<?xml version="1.0" encoding="UTF-8" standalone="no"?>
<!DOCTYPE svg PUBLIC "-//W3C//DTD SVG 1.1//EN"
 "http://www.w3.org/Graphics/SVG/1.1/DTD/svg11.dtd">
<!-- Generated by graphviz version 2.40.1 (20161225.0304)
 -->
<!-- Title: ViennaRNA/alifold.h Pages: 1 -->
<!--zoomable 453 -->
<svg id="main" version="1.1" xmlns="http://www.w3.org/2000/svg" xmlns:xlink="http://www.w3.org/1999/xlink" xml:space="preserve" onload="init(evt)">
<style type="text/css"><![CDATA[
.edge:hover path { stroke: red; }
.edge:hover polygon { stroke: red; fill: red; }
]]></style>
<script type="text/javascript"><![CDATA[
var edges = document.getElementsByTagName('g');
if (edges && edges.length) {
  for (var i=0;i<edges.length;i++) {
    if (edges[i].id.substr(0,4)=='edge') {
      edges[i].setAttribute('class','edge');
    }
  }
}
]]></script>
        <defs>
                <circle id="rim" cx="0" cy="0" r="7"/>
                <circle id="rim2" cx="0" cy="0" r="3.5"/>
                <g id="zoomPlus">
                        <use xlink:href="#rim" fill="#404040">
                                <set attributeName="fill" to="#808080" begin="zoomplus.mouseover" end="zoomplus.mouseout"/>
                        </use>
                        <path d="M-4,0h8M0,-4v8" fill="none" stroke="white" stroke-width="1.5" pointer-events="none"/>
                </g>
                <g id="zoomMin">
                        <use xlink:href="#rim" fill="#404040">
                                <set attributeName="fill" to="#808080" begin="zoomminus.mouseover" end="zoomminus.mouseout"/>
                        </use>
                        <path d="M-4,0h8" fill="none" stroke="white" stroke-width="1.5" pointer-events="none"/>
                </g>
                <g id="dirArrow">
                        <path fill="none" stroke="white" stroke-width="1.5" d="M0,-3.0v7 M-2.5,-0.5L0,-3.0L2.5,-0.5"/>
                </g>
               <g id="resetDef">
                       <use xlink:href="#rim2" fill="#404040">
                               <set attributeName="fill" to="#808080" begin="reset.mouseover" end="reset.mouseout"/>
                       </use>
               </g>
        </defs>

<script type="text/javascript">
var viewWidth = 1464;
var viewHeight = 453;
var sectionId = 'dynsection-0';
</script>
<script xlink:href="svgpan.js"/>
<svg id="graph" class="graph">
<g id="viewport">
<title>ViennaRNA/alifold.h</title>
<!-- Node0 -->
<g id="node1" class="node">
<title>Node0</title>
<polygon fill="#bfbfbf" stroke="#000000" points="773.5,-425.5 773.5,-444.5 878.5,-444.5 878.5,-425.5 773.5,-425.5"/>
<text text-anchor="middle" x="826" y="-432.5" font-family="Helvetica,sans-Serif" font-size="10.00" fill="#000000">ViennaRNA/alifold.h</text>
</g>
<!-- Node1 -->
<g id="node2" class="node">
<title>Node1</title>
<g id="a_node2"><a xlink:href="data__structures_8h.html" target="_top" xlink:title="Various data structures and pre&#45;processor macros. ">
<polygon fill="none" stroke="#000000" points="577.5,-246.5 577.5,-265.5 724.5,-265.5 724.5,-246.5 577.5,-246.5"/>
<text text-anchor="middle" x="651" y="-253.5" font-family="Helvetica,sans-Serif" font-size="10.00" fill="#000000">ViennaRNA/data_structures.h</text>
</a>
</g>
</g>
<!-- Node0&#45;&gt;Node1 -->
<g id="edge1" class="edge">
<title>Node0&#45;&gt;Node1</title>
<path fill="none" stroke="#191970" d="M773.3872,-426.1957C723.9548,-414.6279 653.8307,-388.793 628,-333 619.1655,-313.9181 628.7058,-290.6151 638.047,-274.6756"/>
<polygon fill="#191970" stroke="#191970" points="641.2719,-276.1256 643.6714,-265.806 635.3603,-272.3768 641.2719,-276.1256"/>
</g>
<!-- Node6 -->
<g id="node7" class="node">
<title>Node6</title>
<g id="a_node7"><a xlink:href="params_8h.html" target="_top" xlink:title="Functions to deal with sets of energy parameters. ">
<polygon fill="none" stroke="#000000" points="1278,-129 1278,-148 1390,-148 1390,-129 1278,-129"/>
<text text-anchor="middle" x="1334" y="-136" font-family="Helvetica,sans-Serif" font-size="10.00" fill="#000000">ViennaRNA/params.h</text>
</a>
</g>
</g>
<!-- Node0&#45;&gt;Node6 -->
<g id="edge41" class="edge">
<title>Node0&#45;&gt;Node6</title>
<path fill="none" stroke="#191970" d="M878.6298,-430.7329C1030.0439,-417.7573 1456,-376.0511 1456,-317.5 1456,-317.5 1456,-317.5 1456,-256 1456,-206.0605 1402.3118,-170.6704 1366.1662,-152.503"/>
<polygon fill="#191970" stroke="#191970" points="1367.4739,-149.2476 1356.9473,-148.0471 1364.4276,-155.5501 1367.4739,-149.2476"/>
</g>
<!-- Node20 -->
<g id="node21" class="node">
<title>Node20</title>
<g id="a_node21"><a xlink:href="ribo_8h.html" target="_top" xlink:title="Parse RiboSum Scoring Matrices for Covariance Scoring of Alignments. ">
<polygon fill="none" stroke="#000000" points="702.5,-369.5 702.5,-388.5 797.5,-388.5 797.5,-369.5 702.5,-369.5"/>
<text text-anchor="middle" x="750" y="-376.5" font-family="Helvetica,sans-Serif" font-size="10.00" fill="#000000">ViennaRNA/ribo.h</text>
</a>
</g>
</g>
<!-- Node0&#45;&gt;Node20 -->
<g id="edge42" class="edge">
<title>Node0&#45;&gt;Node20</title>
<path fill="none" stroke="#191970" d="M812.7618,-425.2455C801.319,-416.814 784.5704,-404.4729 771.2525,-394.6598"/>
<polygon fill="#191970" stroke="#191970" points="773.2133,-391.757 763.0865,-388.6427 769.0609,-397.3924 773.2133,-391.757"/>
</g>
<!-- Node21 -->
<g id="node22" class="node">
<title>Node21</title>
<g id="a_node22"><a xlink:href="mfe_8h.html" target="_top" xlink:title="Compute Minimum Free energy (MFE) and backtrace corresponding secondary structures from RNA sequence ...">
<polygon fill="none" stroke="#000000" points="485,-308 485,-327 581,-327 581,-308 485,-308"/>
<text text-anchor="middle" x="533" y="-315" font-family="Helvetica,sans-Serif" font-size="10.00" fill="#000000">ViennaRNA/mfe.h</text>
</a>
</g>
</g>
<!-- Node0&#45;&gt;Node21 -->
<g id="edge43" class="edge">
<title>Node0&#45;&gt;Node21</title>
<path fill="none" stroke="#191970" d="M773.4056,-428.5491C714.9001,-420.6773 624.6971,-406.2607 595,-389 572.9135,-376.1627 554.7849,-352.5437 543.9539,-335.9753"/>
<polygon fill="#191970" stroke="#191970" points="546.7161,-333.7912 538.4453,-327.1696 540.7816,-337.5037 546.7161,-333.7912"/>
</g>
<!-- Node22 -->
<g id="node23" class="node">
<title>Node22</title>
<g id="a_node23"><a xlink:href="part__func_8h.html" target="_top" xlink:title="Partition function implementations. ">
<polygon fill="none" stroke="#000000" points="854,-369.5 854,-388.5 974,-388.5 974,-369.5 854,-369.5"/>
<text text-anchor="middle" x="914" y="-376.5" font-family="Helvetica,sans-Serif" font-size="10.00" fill="#000000">ViennaRNA/part_func.h</text>
</a>
</g>
</g>
<!-- Node0&#45;&gt;Node22 -->
<g id="edge46" class="edge">
<title>Node0&#45;&gt;Node22</title>
<path fill="none" stroke="#191970" d="M841.3284,-425.2455C854.8303,-416.6534 874.7122,-404.0014 890.2686,-394.1018"/>
<polygon fill="#191970" stroke="#191970" points="892.2897,-396.9643 898.8472,-388.6427 888.5315,-391.0587 892.2897,-396.9643"/>
</g>
<!-- Node25 -->
<g id="node26" class="node">
<title>Node25</title>
<g id="a_node26"><a xlink:href="boltzmann__sampling_8h.html" target="_top" xlink:title="Boltzmann Sampling of secondary structures from the ensemble. ">
<polygon fill="none" stroke="#000000" points="769,-302.5 769,-332.5 885,-332.5 885,-302.5 769,-302.5"/>
<text text-anchor="start" x="777" y="-320.5" font-family="Helvetica,sans-Serif" font-size="10.00" fill="#000000">ViennaRNA/boltzmann</text>
<text text-anchor="middle" x="827" y="-309.5" font-family="Helvetica,sans-Serif" font-size="10.00" fill="#000000">_sampling.h</text>
</a>
</g>
</g>
<!-- Node0&#45;&gt;Node25 -->
<g id="edge59" class="edge">
<title>Node0&#45;&gt;Node25</title>
<path fill="none" stroke="#191970" d="M826.0818,-425.3845C826.2337,-407.544 826.5635,-368.7839 826.7837,-342.9138"/>
<polygon fill="#191970" stroke="#191970" points="830.2852,-342.7438 826.8705,-332.7143 823.2854,-342.6841 830.2852,-342.7438"/>
</g>
<!-- Node26 -->
<g id="node27" class="node">
<title>Node26</title>
<g id="a_node27"><a xlink:href="aln__util_8h.html" target="_top" xlink:title="Various utility&#45; and helper&#45;functions for sequence alignments and comparative structure prediction...">
<polygon fill="none" stroke="#000000" points="1104,-246.5 1104,-265.5 1214,-265.5 1214,-246.5 1104,-246.5"/>
<text text-anchor="middle" x="1159" y="-253.5" font-family="Helvetica,sans-Serif" font-size="10.00" fill="#000000">ViennaRNA/aln_util.h</text>
</a>
</g>
</g>
<!-- Node0&#45;&gt;Node26 -->
<g id="edge57" class="edge">
<title>Node0&#45;&gt;Node26</title>
<path fill="none" stroke="#191970" d="M871.6127,-425.4378C903.6583,-417.8164 947.0478,-405.6534 983,-389 1024.0495,-369.9854 1031.7786,-360.104 1068,-333 1094.2957,-313.3232 1122.9593,-288.4522 1140.9502,-272.3883"/>
<polygon fill="#191970" stroke="#191970" points="1143.3195,-274.9648 1148.4184,-265.6776 1138.6408,-269.758 1143.3195,-274.9648"/>
</g>
<!-- Node2 -->
<g id="node3" class="node">
<title>Node2</title>
<g id="a_node3"><a xlink:href="energy__const_8h.html" target="_top" xlink:title="Energy parameter constants. ">
<polygon fill="none" stroke="#000000" points="1307,-62 1307,-81 1445,-81 1445,-62 1307,-62"/>
<text text-anchor="middle" x="1376" y="-69" font-family="Helvetica,sans-Serif" font-size="10.00" fill="#000000">ViennaRNA/energy_const.h</text>
</a>
</g>
</g>
<!-- Node1&#45;&gt;Node2 -->
<g id="edge2" class="edge">
<title>Node1&#45;&gt;Node2</title>
<path fill="none" stroke="#191970" d="M724.6925,-251.4502C904.759,-239.5762 1355.5958,-204.994 1399,-154 1414.5113,-135.7764 1401.428,-107.8584 1389.5737,-89.6385"/>
<polygon fill="#191970" stroke="#191970" points="1392.2224,-87.3163 1383.6447,-81.0975 1386.4721,-91.3081 1392.2224,-87.3163"/>
</g>
<!-- Node4 -->
<g id="node5" class="node">
<title>Node4</title>
<g id="a_node5"><a xlink:href="fold__compound_8h.html" target="_top" xlink:title="The Basic Fold Compound API. ">
<polygon fill="none" stroke="#000000" points="790,-190.5 790,-209.5 936,-209.5 936,-190.5 790,-190.5"/>
<text text-anchor="middle" x="863" y="-197.5" font-family="Helvetica,sans-Serif" font-size="10.00" fill="#000000">ViennaRNA/fold_compound.h</text>
</a>
</g>
</g>
<!-- Node1&#45;&gt;Node4 -->
<g id="edge4" class="edge">
<title>Node1&#45;&gt;Node4</title>
<path fill="none" stroke="#191970" d="M687.4441,-246.3733C723.3069,-236.9001 778.1878,-222.4032 817.0282,-212.1435"/>
<polygon fill="#191970" stroke="#191970" points="818.257,-215.439 827.0315,-209.5011 816.4692,-208.6712 818.257,-215.439"/>
</g>
<!-- Node5 -->
<g id="node6" class="node">
<title>Node5</title>
<g id="a_node6"><a xlink:href="model_8h.html" target="_top" xlink:title="The model details data structure and its corresponding modifiers. ">
<polygon fill="none" stroke="#000000" points="921,-62 921,-81 1027,-81 1027,-62 921,-62"/>
<text text-anchor="middle" x="974" y="-69" font-family="Helvetica,sans-Serif" font-size="10.00" fill="#000000">ViennaRNA/model.h</text>
</a>
</g>
</g>
<!-- Node1&#45;&gt;Node5 -->
<g id="edge33" class="edge">
<title>Node1&#45;&gt;Node5</title>
<path fill="none" stroke="#191970" d="M649.0737,-246.3359C644.8184,-221.9005 637.4775,-157.169 671,-123 687.5908,-106.0892 826.9815,-87.8568 910.8099,-78.2748"/>
<polygon fill="#191970" stroke="#191970" points="911.4534,-81.7244 920.9962,-77.1217 910.6659,-74.7688 911.4534,-81.7244"/>
</g>
<!-- Node1&#45;&gt;Node6 -->
<g id="edge34" class="edge">
<title>Node1&#45;&gt;Node6</title>
<path fill="none" stroke="#191970" d="M724.5005,-249.2548C793.3835,-242.4003 898.8025,-229.9182 989,-210 1018.0999,-203.5739 1024.0358,-197.0125 1053,-190 1143.7588,-168.0265 1168.5392,-172.8392 1260,-154 1265.3972,-152.8883 1271.0294,-151.6555 1276.6809,-150.3848"/>
<polygon fill="#191970" stroke="#191970" points="1277.8546,-153.7072 1286.8282,-148.0747 1276.3007,-146.8819 1277.8546,-153.7072"/>
</g>
<!-- Node8 -->
<g id="node9" class="node">
<title>Node8</title>
<g id="a_node9"><a xlink:href="dp__matrices_8h.html" target="_top" xlink:title="Functions to deal with standard dynamic programming (DP) matrices. ">
<polygon fill="none" stroke="#000000" points="812.5,-129 812.5,-148 945.5,-148 945.5,-129 812.5,-129"/>
<text text-anchor="middle" x="879" y="-136" font-family="Helvetica,sans-Serif" font-size="10.00" fill="#000000">ViennaRNA/dp_matrices.h</text>
</a>
</g>
</g>
<!-- Node1&#45;&gt;Node8 -->
<g id="edge35" class="edge">
<title>Node1&#45;&gt;Node8</title>
<path fill="none" stroke="#191970" d="M665.7464,-246.3845C702.455,-225.6336 797.4239,-176.5812 847.4191,-152.4289"/>
<polygon fill="#191970" stroke="#191970" points="848.9885,-155.558 856.4974,-148.0836 845.9663,-149.244 848.9885,-155.558"/>
</g>
<!-- Node9 -->
<g id="node10" class="node">
<title>Node9</title>
<g id="a_node10"><a xlink:href="constraints_8h.html" target="_top" xlink:title="Functions and data structures for constraining secondary structure predictions and evaluation...">
<polygon fill="none" stroke="#000000" points="419,-129 419,-148 547,-148 547,-129 419,-129"/>
<text text-anchor="middle" x="483" y="-136" font-family="Helvetica,sans-Serif" font-size="10.00" fill="#000000">ViennaRNA/constraints.h</text>
</a>
</g>
</g>
<!-- Node1&#45;&gt;Node9 -->
<g id="edge36" class="edge">
<title>Node1&#45;&gt;Node9</title>
<path fill="none" stroke="#191970" d="M621.0027,-246.4281C600.4377,-238.054 573.472,-224.9186 552,-210 529.0477,-194.0529 505.8275,-171.8073 492.6535,-156.382"/>
<polygon fill="#191970" stroke="#191970" points="495.0998,-153.8349 486.1358,-148.1871 489.6212,-158.1922 495.0998,-153.8349"/>
</g>
<!-- Node15 -->
<g id="node16" class="node">
<title>Node15</title>
<g id="a_node16"><a xlink:href="grammar_8h.html" target="_top" xlink:title="Implementations for the RNA folding grammar. ">
<polygon fill="none" stroke="#000000" points="1142,-129 1142,-148 1260,-148 1260,-129 1142,-129"/>
<text text-anchor="middle" x="1201" y="-136" font-family="Helvetica,sans-Serif" font-size="10.00" fill="#000000">ViennaRNA/grammar.h</text>
</a>
</g>
</g>
<!-- Node1&#45;&gt;Node15 -->
<g id="edge37" class="edge">
<title>Node1&#45;&gt;Node15</title>
<path fill="none" stroke="#191970" d="M724.6946,-246.8837C782.5987,-239.3444 864.9239,-227.0935 936,-210 963.7402,-203.3286 969.64,-198.0906 997,-190 1046.787,-175.2775 1104.3175,-160.3328 1145.6682,-150.3622"/>
<polygon fill="#191970" stroke="#191970" points="1146.6405,-153.7285 1155.5532,-148.0003 1145.0136,-146.9202 1146.6405,-153.7285"/>
</g>
<!-- Node16 -->
<g id="node17" class="node">
<title>Node16</title>
<g id="a_node17"><a xlink:href="structured__domains_8h.html" target="_top" xlink:title="This module provides interfaces that deal with additional structured domains in the folding grammar...">
<polygon fill="none" stroke="#000000" points="679.5,-123.5 679.5,-153.5 794.5,-153.5 794.5,-123.5 679.5,-123.5"/>
<text text-anchor="start" x="687.5" y="-141.5" font-family="Helvetica,sans-Serif" font-size="10.00" fill="#000000">ViennaRNA/structured</text>
<text text-anchor="middle" x="737" y="-130.5" font-family="Helvetica,sans-Serif" font-size="10.00" fill="#000000">_domains.h</text>
</a>
</g>
</g>
<!-- Node1&#45;&gt;Node16 -->
<g id="edge38" class="edge">
<title>Node1&#45;&gt;Node16</title>
<path fill="none" stroke="#191970" d="M658.0377,-246.3845C671.4452,-228.0661 700.9953,-187.6925 719.9,-161.8633"/>
<polygon fill="#191970" stroke="#191970" points="722.7825,-163.851 725.8644,-153.7143 717.1339,-159.7167 722.7825,-163.851"/>
</g>
<!-- Node17 -->
<g id="node18" class="node">
<title>Node17</title>
<g id="a_node18"><a xlink:href="unstructured__domains_8h.html" target="_top" xlink:title="Functions to modify unstructured domains, e.g. to incorporate ligands binding to unpaired stretches...">
<polygon fill="none" stroke="#000000" points="161.5,-123.5 161.5,-153.5 286.5,-153.5 286.5,-123.5 161.5,-123.5"/>
<text text-anchor="start" x="169.5" y="-141.5" font-family="Helvetica,sans-Serif" font-size="10.00" fill="#000000">ViennaRNA/unstructured</text>
<text text-anchor="middle" x="224" y="-130.5" font-family="Helvetica,sans-Serif" font-size="10.00" fill="#000000">_domains.h</text>
</a>
</g>
</g>
<!-- Node1&#45;&gt;Node17 -->
<g id="edge39" class="edge">
<title>Node1&#45;&gt;Node17</title>
<path fill="none" stroke="#191970" d="M577.277,-252.0033C487.0982,-246.0105 340.6673,-232.8836 292,-210 268.7382,-199.0622 247.7561,-178.5037 235.0921,-162.2289"/>
<polygon fill="#191970" stroke="#191970" points="237.64,-159.7783 228.9507,-153.7163 231.9631,-163.8739 237.64,-159.7783"/>
</g>
<!-- Node18 -->
<g id="node19" class="node">
<title>Node18</title>
<g id="a_node19"><a xlink:href="structure__utils_8h.html" target="_top" xlink:title="Various utility&#45; and helper&#45;functions for secondary structure parsing, converting, etc. ">
<polygon fill="none" stroke="#000000" points="28,-56.5 28,-86.5 138,-86.5 138,-56.5 28,-56.5"/>
<text text-anchor="start" x="36" y="-74.5" font-family="Helvetica,sans-Serif" font-size="10.00" fill="#000000">ViennaRNA/structure</text>
<text text-anchor="middle" x="83" y="-63.5" font-family="Helvetica,sans-Serif" font-size="10.00" fill="#000000">_utils.h</text>
</a>
</g>
</g>
<!-- Node1&#45;&gt;Node18 -->
<g id="edge40" class="edge">
<title>Node1&#45;&gt;Node18</title>
<path fill="none" stroke="#191970" d="M577.3638,-250.5179C480.8372,-242.4924 317.3243,-226.678 260,-210 204.6458,-193.8952 188.5306,-189.3613 143,-154 121.6516,-137.4197 102.383,-113.2096 91.2963,-95.3009"/>
<polygon fill="#191970" stroke="#191970" points="94.3001,-93.5034 86.2768,-86.584 88.2339,-96.9965 94.3001,-93.5034"/>
</g>
<!-- Node3 -->
<g id="node4" class="node">
<title>Node3</title>
<polygon fill="none" stroke="#bfbfbf" points="1352,-.5 1352,-19.5 1400,-19.5 1400,-.5 1352,-.5"/>
<text text-anchor="middle" x="1376" y="-7.5" font-family="Helvetica,sans-Serif" font-size="10.00" fill="#000000">limits.h</text>
</g>
<!-- Node2&#45;&gt;Node3 -->
<g id="edge3" class="edge">
<title>Node2&#45;&gt;Node3</title>
<path fill="none" stroke="#191970" d="M1376,-61.8906C1376,-53.3657 1376,-40.6392 1376,-29.9235"/>
<polygon fill="#191970" stroke="#191970" points="1379.5001,-29.7448 1376,-19.7449 1372.5001,-29.7449 1379.5001,-29.7448"/>
</g>
<!-- Node4&#45;&gt;Node5 -->
<g id="edge5" class="edge">
<title>Node4&#45;&gt;Node5</title>
<path fill="none" stroke="#191970" d="M898.398,-190.4717C917.864,-183.4623 940.864,-171.9623 955,-154 969.1597,-136.0076 973.1222,-109.3642 974.0545,-91.2603"/>
<polygon fill="#191970" stroke="#191970" points="977.5596,-91.0924 974.3071,-81.0092 970.5618,-90.9199 977.5596,-91.0924"/>
</g>
<!-- Node4&#45;&gt;Node6 -->
<g id="edge6" class="edge">
<title>Node4&#45;&gt;Node6</title>
<path fill="none" stroke="#191970" d="M936.3579,-194.3836C1017.9652,-187.5109 1153.5355,-174.2312 1269,-154 1274.9296,-152.961 1281.1259,-151.7064 1287.2373,-150.3663"/>
<polygon fill="#191970" stroke="#191970" points="1288.4086,-153.6891 1297.38,-148.0531 1286.852,-146.8644 1288.4086,-153.6891"/>
</g>
<!-- Node7 -->
<g id="node8" class="node">
<title>Node7</title>
<g id="a_node8"><a xlink:href="sequence_8h.html" target="_top" xlink:title="Functions and data structures related to sequence representations. ">
<polygon fill="none" stroke="#000000" points="1002,-129 1002,-148 1124,-148 1124,-129 1002,-129"/>
<text text-anchor="middle" x="1063" y="-136" font-family="Helvetica,sans-Serif" font-size="10.00" fill="#000000">ViennaRNA/sequence.h</text>
</a>
</g>
</g>
<!-- Node4&#45;&gt;Node7 -->
<g id="edge10" class="edge">
<title>Node4&#45;&gt;Node7</title>
<path fill="none" stroke="#191970" d="M894.25,-190.3906C928.7411,-179.7846 984.3812,-162.6753 1022.2662,-151.0257"/>
<polygon fill="#191970" stroke="#191970" points="1023.4399,-154.3266 1031.9694,-148.0419 1021.3824,-147.6357 1023.4399,-154.3266"/>
</g>
<!-- Node4&#45;&gt;Node8 -->
<g id="edge11" class="edge">
<title>Node4&#45;&gt;Node8</title>
<path fill="none" stroke="#191970" d="M865.5,-190.3906C867.7412,-181.776 871.0986,-168.8708 873.9045,-158.0858"/>
<polygon fill="#191970" stroke="#191970" points="877.3341,-158.804 876.4648,-148.2449 870.5596,-157.0414 877.3341,-158.804"/>
</g>
<!-- Node4&#45;&gt;Node9 -->
<g id="edge13" class="edge">
<title>Node4&#45;&gt;Node9</title>
<path fill="none" stroke="#191970" d="M804.0419,-190.4581C735.8495,-179.4217 623.7476,-161.2789 551.6785,-149.6151"/>
<polygon fill="#191970" stroke="#191970" points="552.2145,-146.1564 541.7837,-148.0137 551.0961,-153.0664 552.2145,-146.1564"/>
</g>
<!-- Node4&#45;&gt;Node15 -->
<g id="edge25" class="edge">
<title>Node4&#45;&gt;Node15</title>
<path fill="none" stroke="#191970" d="M924.8387,-190.4629C979.6801,-181.7674 1061.8801,-168.1527 1133,-154 1138.7819,-152.8494 1144.8241,-151.5758 1150.8185,-150.2677"/>
<polygon fill="#191970" stroke="#191970" points="1151.8039,-153.6342 1160.8071,-148.0491 1150.2861,-146.8007 1151.8039,-153.6342"/>
</g>
<!-- Node4&#45;&gt;Node16 -->
<g id="edge27" class="edge">
<title>Node4&#45;&gt;Node16</title>
<path fill="none" stroke="#191970" d="M843.3125,-190.3906C825.6284,-181.7591 799.1194,-168.8202 776.997,-158.0224"/>
<polygon fill="#191970" stroke="#191970" points="778.345,-154.7857 767.8231,-153.5446 775.2745,-161.0763 778.345,-154.7857"/>
</g>
<!-- Node4&#45;&gt;Node17 -->
<g id="edge28" class="edge">
<title>Node4&#45;&gt;Node17</title>
<path fill="none" stroke="#191970" d="M789.6986,-192.9452C666.6195,-181.0995 419.8606,-157.3504 296.9903,-145.5249"/>
<polygon fill="#191970" stroke="#191970" points="297.2163,-142.0306 286.927,-144.5564 296.5457,-148.9984 297.2163,-142.0306"/>
</g>
<!-- Node6&#45;&gt;Node1 -->
<g id="edge8" class="edge">
<title>Node6&#45;&gt;Node1</title>
<path fill="none" stroke="#191970" d="M1304.3572,-148.0747C1295.8725,-150.1325 1286.6356,-152.2212 1278,-154 1186.5392,-172.8392 1161.7588,-168.0265 1071,-190 1042.0358,-197.0125 1036.0999,-203.5739 1007,-210 915.1869,-230.275 807.6021,-242.8451 734.8606,-249.6177"/>
<polygon fill="#191970" stroke="#191970" points="734.4725,-246.1385 724.833,-250.5351 735.1103,-253.1094 734.4725,-246.1385"/>
</g>
<!-- Node6&#45;&gt;Node2 -->
<g id="edge7" class="edge">
<title>Node6&#45;&gt;Node2</title>
<path fill="none" stroke="#191970" d="M1340.0176,-128.9005C1346.38,-118.751 1356.5709,-102.4941 1364.4858,-89.8679"/>
<polygon fill="#191970" stroke="#191970" points="1367.6477,-91.4135 1369.9936,-81.0817 1361.7167,-87.6956 1367.6477,-91.4135"/>
</g>
<!-- Node6&#45;&gt;Node5 -->
<g id="edge9" class="edge">
<title>Node6&#45;&gt;Node5</title>
<path fill="none" stroke="#191970" d="M1295.5919,-128.9295C1286.8717,-126.8714 1277.635,-124.7815 1269,-123 1189.4604,-106.5896 1097.1481,-91.0306 1037.2678,-81.3943"/>
<polygon fill="#191970" stroke="#191970" points="1037.6376,-77.909 1027.2097,-79.7823 1036.5299,-84.8208 1037.6376,-77.909"/>
</g>
<!-- Node8&#45;&gt;Node1 -->
<g id="edge12" class="edge">
<title>Node8&#45;&gt;Node1</title>
<path fill="none" stroke="#191970" d="M864.3101,-148.0836C827.6613,-168.8054 732.6993,-217.8561 682.658,-242.0339"/>
<polygon fill="#191970" stroke="#191970" points="681.0785,-238.9096 673.57,-246.3845 684.1011,-245.2234 681.0785,-238.9096"/>
</g>
<!-- Node9&#45;&gt;Node1 -->
<g id="edge14" class="edge">
<title>Node9&#45;&gt;Node1</title>
<path fill="none" stroke="#191970" d="M497.6678,-148.1871C514.7027,-162.8328 542.543,-190.9231 570,-210 587.9492,-222.471 609.7374,-233.6959 626.3434,-241.9351"/>
<polygon fill="#191970" stroke="#191970" points="624.9369,-245.144 635.4537,-246.4281 628.0331,-238.8659 624.9369,-245.144"/>
</g>
<!-- Node10 -->
<g id="node11" class="node">
<title>Node10</title>
<g id="a_node11"><a xlink:href="constraints__hard_8h.html" target="_top" xlink:title="Functions and data structures for handling of secondary structure hard constraints. ">
<polygon fill="none" stroke="#000000" points="156.5,-56.5 156.5,-86.5 275.5,-86.5 275.5,-56.5 156.5,-56.5"/>
<text text-anchor="start" x="164.5" y="-74.5" font-family="Helvetica,sans-Serif" font-size="10.00" fill="#000000">ViennaRNA/constraints</text>
<text text-anchor="middle" x="216" y="-63.5" font-family="Helvetica,sans-Serif" font-size="10.00" fill="#000000">_hard.h</text>
</a>
</g>
</g>
<!-- Node9&#45;&gt;Node10 -->
<g id="edge15" class="edge">
<title>Node9&#45;&gt;Node10</title>
<path fill="none" stroke="#191970" d="M445.029,-128.9717C403.6593,-118.5905 336.5882,-101.76 285.6938,-88.9887"/>
<polygon fill="#191970" stroke="#191970" points="286.2942,-85.5309 275.7431,-86.4917 284.5905,-92.3204 286.2942,-85.5309"/>
</g>
<!-- Node11 -->
<g id="node12" class="node">
<title>Node11</title>
<g id="a_node12"><a xlink:href="constraints__soft_8h.html" target="_top" xlink:title="Functions and data structures for secondary structure soft constraints. ">
<polygon fill="none" stroke="#000000" points="293.5,-56.5 293.5,-86.5 412.5,-86.5 412.5,-56.5 293.5,-56.5"/>
<text text-anchor="start" x="301.5" y="-74.5" font-family="Helvetica,sans-Serif" font-size="10.00" fill="#000000">ViennaRNA/constraints</text>
<text text-anchor="middle" x="353" y="-63.5" font-family="Helvetica,sans-Serif" font-size="10.00" fill="#000000">_soft.h</text>
</a>
</g>
</g>
<!-- Node9&#45;&gt;Node11 -->
<g id="edge17" class="edge">
<title>Node9&#45;&gt;Node11</title>
<path fill="none" stroke="#191970" d="M464.3742,-128.9005C445.3244,-119.0826 415.1861,-103.5498 391.0623,-91.1167"/>
<polygon fill="#191970" stroke="#191970" points="392.6391,-87.9919 382.1467,-86.5218 389.4322,-94.2141 392.6391,-87.9919"/>
</g>
<!-- Node12 -->
<g id="node13" class="node">
<title>Node12</title>
<g id="a_node13"><a xlink:href="constraints__SHAPE_8h.html" target="_top" xlink:title="This module provides function to incorporate SHAPE reactivity data into the folding recursions by mea...">
<polygon fill="none" stroke="#000000" points="430.5,-56.5 430.5,-86.5 549.5,-86.5 549.5,-56.5 430.5,-56.5"/>
<text text-anchor="start" x="438.5" y="-74.5" font-family="Helvetica,sans-Serif" font-size="10.00" fill="#000000">ViennaRNA/constraints</text>
<text text-anchor="middle" x="490" y="-63.5" font-family="Helvetica,sans-Serif" font-size="10.00" fill="#000000">_SHAPE.h</text>
</a>
</g>
</g>
<!-- Node9&#45;&gt;Node12 -->
<g id="edge19" class="edge">
<title>Node9&#45;&gt;Node12</title>
<path fill="none" stroke="#191970" d="M484.0029,-128.9005C484.8796,-120.5099 486.1923,-107.9451 487.3663,-96.7085"/>
<polygon fill="#191970" stroke="#191970" points="490.8724,-96.8314 488.4306,-86.5218 483.9103,-96.1039 490.8724,-96.8314"/>
</g>
<!-- Node13 -->
<g id="node14" class="node">
<title>Node13</title>
<g id="a_node14"><a xlink:href="perturbation__fold_8h.html" target="_top" xlink:title="Find a vector of perturbation energies that minimizes the discripancies between predicted and observe...">
<polygon fill="none" stroke="#000000" points="568,-56.5 568,-86.5 690,-86.5 690,-56.5 568,-56.5"/>
<text text-anchor="start" x="576" y="-74.5" font-family="Helvetica,sans-Serif" font-size="10.00" fill="#000000">ViennaRNA/perturbation</text>
<text text-anchor="middle" x="629" y="-63.5" font-family="Helvetica,sans-Serif" font-size="10.00" fill="#000000">_fold.h</text>
</a>
</g>
</g>
<!-- Node9&#45;&gt;Node13 -->
<g id="edge21" class="edge">
<title>Node9&#45;&gt;Node13</title>
<path fill="none" stroke="#191970" d="M503.9182,-128.9005C525.5011,-118.9961 559.7576,-103.2756 586.9677,-90.7888"/>
<polygon fill="#191970" stroke="#191970" points="588.6371,-93.8737 596.266,-86.5218 585.7175,-87.5116 588.6371,-93.8737"/>
</g>
<!-- Node14 -->
<g id="node15" class="node">
<title>Node14</title>
<g id="a_node15"><a xlink:href="constraints__ligand_8h.html" target="_top" xlink:title="Functions for incorporation of ligands binding to hairpin and interior loop motifs using the soft con...">
<polygon fill="none" stroke="#000000" points="708.5,-56.5 708.5,-86.5 827.5,-86.5 827.5,-56.5 708.5,-56.5"/>
<text text-anchor="start" x="716.5" y="-74.5" font-family="Helvetica,sans-Serif" font-size="10.00" fill="#000000">ViennaRNA/constraints</text>
<text text-anchor="middle" x="768" y="-63.5" font-family="Helvetica,sans-Serif" font-size="10.00" fill="#000000">_ligand.h</text>
</a>
</g>
</g>
<!-- Node9&#45;&gt;Node14 -->
<g id="edge23" class="edge">
<title>Node9&#45;&gt;Node14</title>
<path fill="none" stroke="#191970" d="M523.5309,-128.9717C568.9585,-118.2922 643.4199,-100.7873 698.2475,-87.8979"/>
<polygon fill="#191970" stroke="#191970" points="699.3115,-91.2433 708.2452,-85.5476 697.7095,-84.4291 699.3115,-91.2433"/>
</g>
<!-- Node10&#45;&gt;Node1 -->
<g id="edge16" class="edge">
<title>Node10&#45;&gt;Node1</title>
<path fill="none" stroke="#191970" d="M239.7087,-86.5212C255.5052,-96.6355 276.6545,-110.3815 295,-123 349.2758,-160.3323 354.5819,-183.7472 415,-210 463.1519,-230.9229 520.9537,-242.3902 567.3011,-248.6427"/>
<polygon fill="#191970" stroke="#191970" points="566.9437,-252.1256 577.31,-249.9365 567.8412,-245.1833 566.9437,-252.1256"/>
</g>
<!-- Node11&#45;&gt;Node1 -->
<g id="edge18" class="edge">
<title>Node11&#45;&gt;Node1</title>
<path fill="none" stroke="#191970" d="M357.7748,-86.5547C367.8444,-115.6488 394.1817,-179.4175 440,-210 461.5608,-224.3912 521.3933,-236.6569 571.8608,-244.8943"/>
<polygon fill="#191970" stroke="#191970" points="571.3879,-248.3631 581.8154,-246.4875 572.4942,-241.4511 571.3879,-248.3631"/>
</g>
<!-- Node12&#45;&gt;Node1 -->
<g id="edge20" class="edge">
<title>Node12&#45;&gt;Node1</title>
<path fill="none" stroke="#191970" d="M450.949,-86.6371C435.2799,-94.872 418.8599,-106.7594 410,-123 403.4017,-135.095 402.5623,-142.4022 410,-154 444.1272,-207.2157 512.3549,-232.7161 567.531,-244.9082"/>
<polygon fill="#191970" stroke="#191970" points="566.8123,-248.3335 577.3182,-246.9634 568.251,-241.4829 566.8123,-248.3335"/>
</g>
<!-- Node13&#45;&gt;Node1 -->
<g id="edge22" class="edge">
<title>Node13&#45;&gt;Node1</title>
<path fill="none" stroke="#191970" d="M617.2091,-86.7621C610.4254,-96.5336 602.5606,-109.8138 599,-123 588.92,-160.3297 583.1178,-174.7457 599,-210 604.5697,-222.3631 615.2863,-232.7437 625.5506,-240.4967"/>
<polygon fill="#191970" stroke="#191970" points="623.7451,-243.5052 633.9433,-246.377 627.7618,-237.7723 623.7451,-243.5052"/>
</g>
<!-- Node14&#45;&gt;Node1 -->
<g id="edge24" class="edge">
<title>Node14&#45;&gt;Node1</title>
<path fill="none" stroke="#191970" d="M712.3176,-86.5514C680.8889,-96.2949 646.1162,-109.6208 637,-123 613.467,-157.5377 629.9497,-209.2618 641.8096,-236.9277"/>
<polygon fill="#191970" stroke="#191970" points="638.7243,-238.5992 646.0357,-246.2669 645.1018,-235.7133 638.7243,-238.5992"/>
</g>
<!-- Node15&#45;&gt;Node1 -->
<g id="edge26" class="edge">
<title>Node15&#45;&gt;Node1</title>
<path fill="none" stroke="#191970" d="M1169.1174,-148.0003C1131.8572,-157.8668 1068.8921,-174.0636 1015,-190 987.64,-198.0906 981.7402,-203.3286 954,-210 880.9623,-227.5653 796.046,-240.017 734.6585,-247.4972"/>
<polygon fill="#191970" stroke="#191970" points="734.1429,-244.0338 724.6311,-248.7002 734.9768,-250.984 734.1429,-244.0338"/>
</g>
<!-- Node17&#45;&gt;Node1 -->
<g id="edge29" class="edge">
<title>Node17&#45;&gt;Node1</title>
<path fill="none" stroke="#191970" d="M241.9538,-153.7163C258.0631,-170.5595 282.4305,-197.0367 310,-210 354.6131,-230.9773 481.3801,-243.7557 567.1907,-250.3556"/>
<polygon fill="#191970" stroke="#191970" points="566.9479,-253.8471 577.1832,-251.1106 567.4754,-246.867 566.9479,-253.8471"/>
</g>
<!-- Node17&#45;&gt;Node18 -->
<g id="edge30" class="edge">
<title>Node17&#45;&gt;Node18</title>
<path fill="none" stroke="#191970" d="M192.3568,-123.4639C172.2701,-113.9191 146.0633,-101.4663 124.3403,-91.144"/>
<polygon fill="#191970" stroke="#191970" points="125.5597,-87.8484 115.0254,-86.7177 122.5554,-94.1709 125.5597,-87.8484"/>
</g>
<!-- Node18&#45;&gt;Node1 -->
<g id="edge32" class="edge">
<title>Node18&#45;&gt;Node1</title>
<path fill="none" stroke="#191970" d="M99.0057,-86.584C113.7287,-104.5376 135.9303,-134.5296 161,-154 206.5306,-189.3613 222.6458,-193.8952 278,-210 330.9347,-225.4009 474.418,-240.0653 567.2637,-248.5404"/>
<polygon fill="#191970" stroke="#191970" points="567.2092,-252.0497 577.4844,-249.4671 567.8413,-245.0783 567.2092,-252.0497"/>
</g>
<!-- Node19 -->
<g id="node20" class="node">
<title>Node19</title>
<polygon fill="none" stroke="#bfbfbf" points="19,-.5 19,-19.5 65,-19.5 65,-.5 19,-.5"/>
<text text-anchor="middle" x="42" y="-7.5" font-family="Helvetica,sans-Serif" font-size="10.00" fill="#000000">stdio.h</text>
</g>
<!-- Node18&#45;&gt;Node19 -->
<g id="edge31" class="edge">
<title>Node18&#45;&gt;Node19</title>
<path fill="none" stroke="#191970" d="M72.8652,-56.2977C67.2332,-47.8498 60.1849,-37.2773 54.246,-28.369"/>
<polygon fill="#191970" stroke="#191970" points="57.0238,-26.226 48.5646,-19.8469 51.1995,-30.1089 57.0238,-26.226"/>
</g>
<!-- Node21&#45;&gt;Node1 -->
<g id="edge45" class="edge">
<title>Node21&#45;&gt;Node1</title>
<path fill="none" stroke="#191970" d="M551.4375,-307.8906C570.8347,-297.7811 601.569,-281.7628 623.7617,-270.1962"/>
<polygon fill="#191970" stroke="#191970" points="625.4418,-273.2675 632.692,-265.5419 622.2064,-267.06 625.4418,-273.2675"/>
</g>
<!-- Node21&#45;&gt;Node19 -->
<g id="edge44" class="edge">
<title>Node21&#45;&gt;Node19</title>
<path fill="none" stroke="#191970" d="M484.7597,-311.9668C353.557,-296.2707 0,-249.3919 0,-200 0,-200 0,-200 0,-138.5 0,-100.8735 6.2748,-91.4093 19,-56 22.349,-46.681 27.113,-36.8029 31.4375,-28.5992"/>
<polygon fill="#191970" stroke="#191970" points="34.6458,-30.0268 36.3696,-19.5731 28.5031,-26.6701 34.6458,-30.0268"/>
</g>
<!-- Node22&#45;&gt;Node1 -->
<g id="edge47" class="edge">
<title>Node22&#45;&gt;Node1</title>
<path fill="none" stroke="#191970" d="M914.5307,-369.3416C914.8616,-352.9483 912.9656,-319.735 894,-302 871.1624,-280.6443 795.6598,-268.6992 734.8077,-262.3691"/>
<polygon fill="#191970" stroke="#191970" points="735.0923,-258.8802 724.7926,-261.3635 734.3928,-265.8451 735.0923,-258.8802"/>
</g>
<!-- Node22&#45;&gt;Node6 -->
<g id="edge48" class="edge">
<title>Node22&#45;&gt;Node6</title>
<path fill="none" stroke="#191970" d="M965.2244,-369.4579C1030.1561,-355.4198 1143.2241,-324.317 1223,-266 1266.0243,-234.5488 1303.8616,-183.564 1322.2227,-156.5823"/>
<polygon fill="#191970" stroke="#191970" points="1325.2372,-158.3704 1327.8815,-148.1109 1319.4165,-154.4822 1325.2372,-158.3704"/>
</g>
<!-- Node23 -->
<g id="node24" class="node">
<title>Node23</title>
<g id="a_node24"><a xlink:href="centroid_8h.html" target="_top" xlink:title="Centroid structure computation. ">
<polygon fill="none" stroke="#000000" points="637,-308 637,-327 751,-327 751,-308 637,-308"/>
<text text-anchor="middle" x="694" y="-315" font-family="Helvetica,sans-Serif" font-size="10.00" fill="#000000">ViennaRNA/centroid.h</text>
</a>
</g>
</g>
<!-- Node22&#45;&gt;Node23 -->
<g id="edge49" class="edge">
<title>Node22&#45;&gt;Node23</title>
<path fill="none" stroke="#191970" d="M879.625,-369.3906C841.4427,-358.7169 779.6984,-341.4566 738.0116,-329.8033"/>
<polygon fill="#191970" stroke="#191970" points="738.7067,-326.3634 728.1336,-327.0419 736.8221,-333.105 738.7067,-326.3634"/>
</g>
<!-- Node24 -->
<g id="node25" class="node">
<title>Node24</title>
<g id="a_node25"><a xlink:href="equilibrium__probs_8h.html" target="_top" xlink:title="Equilibrium Probability implementations. ">
<polygon fill="none" stroke="#000000" points="941,-302.5 941,-332.5 1059,-332.5 1059,-302.5 941,-302.5"/>
<text text-anchor="start" x="949" y="-320.5" font-family="Helvetica,sans-Serif" font-size="10.00" fill="#000000">ViennaRNA/equilibrium</text>
<text text-anchor="middle" x="1000" y="-309.5" font-family="Helvetica,sans-Serif" font-size="10.00" fill="#000000">_probs.h</text>
</a>
</g>
</g>
<!-- Node22&#45;&gt;Node24 -->
<g id="edge52" class="edge">
<title>Node22&#45;&gt;Node24</title>
<path fill="none" stroke="#191970" d="M927.4375,-369.3906C938.9688,-361.1444 955.9976,-348.9669 970.6611,-338.4807"/>
<polygon fill="#191970" stroke="#191970" points="972.8638,-341.2084 978.962,-332.5446 968.792,-335.5145 972.8638,-341.2084"/>
</g>
<!-- Node22&#45;&gt;Node25 -->
<g id="edge55" class="edge">
<title>Node22&#45;&gt;Node25</title>
<path fill="none" stroke="#191970" d="M900.4063,-369.3906C888.7409,-361.1444 871.5141,-348.9669 856.68,-338.4807"/>
<polygon fill="#191970" stroke="#191970" points="858.4687,-335.459 848.2826,-332.5446 854.428,-341.175 858.4687,-335.459"/>
</g>
<!-- Node23&#45;&gt;Node1 -->
<g id="edge50" class="edge">
<title>Node23&#45;&gt;Node1</title>
<path fill="none" stroke="#191970" d="M687.2813,-307.8906C681.007,-298.917 671.4777,-285.2879 663.7596,-274.2491"/>
<polygon fill="#191970" stroke="#191970" points="666.4121,-271.9348 657.8135,-265.7449 660.6753,-275.9459 666.4121,-271.9348"/>
</g>
<!-- Node23&#45;&gt;Node18 -->
<g id="edge51" class="edge">
<title>Node23&#45;&gt;Node18</title>
<path fill="none" stroke="#191970" d="M639.5293,-307.9446C529.5516,-288.2544 284.7597,-242.3031 206,-210 162.7612,-192.2657 147.1086,-189.7431 117,-154 103.0321,-137.4181 94.1748,-114.3096 89.0149,-96.7665"/>
<polygon fill="#191970" stroke="#191970" points="92.2705,-95.4007 86.2673,-86.6707 85.5162,-97.2389 92.2705,-95.4007"/>
</g>
<!-- Node24&#45;&gt;Node1 -->
<g id="edge53" class="edge">
<title>Node24&#45;&gt;Node1</title>
<path fill="none" stroke="#191970" d="M940.6818,-304.6767C936.0571,-303.7467 931.4554,-302.8439 927,-302 857.9164,-288.9154 778.7224,-275.9218 722.9349,-267.0991"/>
<polygon fill="#191970" stroke="#191970" points="723.2213,-263.6011 712.7983,-265.5012 722.1312,-270.5158 723.2213,-263.6011"/>
</g>
<!-- Node24&#45;&gt;Node6 -->
<g id="edge54" class="edge">
<title>Node24&#45;&gt;Node6</title>
<path fill="none" stroke="#191970" d="M1017.7188,-302.2564C1036.1925,-286.833 1066.3915,-262.9136 1095,-246 1163.7398,-205.3603 1250.5664,-169.9151 1298.3672,-151.6447"/>
<polygon fill="#191970" stroke="#191970" points="1299.844,-154.828 1307.9545,-148.011 1297.3631,-148.2824 1299.844,-154.828"/>
</g>
<!-- Node25&#45;&gt;Node1 -->
<g id="edge56" class="edge">
<title>Node25&#45;&gt;Node1</title>
<path fill="none" stroke="#191970" d="M783.9456,-302.4554C754.5795,-292.194 716.0855,-278.7429 688.0805,-268.9571"/>
<polygon fill="#191970" stroke="#191970" points="688.8686,-265.525 678.2738,-265.5303 686.5594,-272.1332 688.8686,-265.525"/>
</g>
<!-- Node26&#45;&gt;Node4 -->
<g id="edge58" class="edge">
<title>Node26&#45;&gt;Node4</title>
<path fill="none" stroke="#191970" d="M1108.4521,-246.4369C1057.1555,-236.7321 977.7421,-221.708 923.2182,-211.3926"/>
<polygon fill="#191970" stroke="#191970" points="923.8158,-207.9437 913.3394,-209.5237 922.5145,-214.8217 923.8158,-207.9437"/>
</g>
</g>
</svg>
        <g id="navigator" transform="translate(0 0)" fill="#404254">
                <rect fill="#f2f5e9" fill-opacity="0.5" stroke="#606060" stroke-width=".5" x="0" y="0" width="60" height="60"/>
                <use id="zoomplus" xlink:href="#zoomPlus" x="17" y="9" onmousedown="handleZoom(evt,'in')"/>
                <use id="zoomminus" xlink:href="#zoomMin" x="42" y="9" onmousedown="handleZoom(evt,'out')"/>
                <use id="reset" xlink:href="#resetDef" x="30" y="36" onmousedown="handleReset()"/>
                <g id="arrowUp" xlink:href="#dirArrow" transform="translate(30 24)" onmousedown="handlePan(0,-1)">
                  <use xlink:href="#rim" fill="#404040">
                        <set attributeName="fill" to="#808080" begin="arrowUp.mouseover" end="arrowUp.mouseout"/>
                  </use>
                  <path fill="none" stroke="white" stroke-width="1.5" d="M0,-3.0v7 M-2.5,-0.5L0,-3.0L2.5,-0.5"/>
                </g>
                <g id="arrowRight" xlink:href="#dirArrow" transform="rotate(90) translate(36 -43)" onmousedown="handlePan(1,0)">
                  <use xlink:href="#rim" fill="#404040">
                        <set attributeName="fill" to="#808080" begin="arrowRight.mouseover" end="arrowRight.mouseout"/>
                  </use>
                  <path fill="none" stroke="white" stroke-width="1.5" d="M0,-3.0v7 M-2.5,-0.5L0,-3.0L2.5,-0.5"/>
                </g>
                <g id="arrowDown" xlink:href="#dirArrow" transform="rotate(180) translate(-30 -48)" onmousedown="handlePan(0,1)">
                  <use xlink:href="#rim" fill="#404040">
                        <set attributeName="fill" to="#808080" begin="arrowDown.mouseover" end="arrowDown.mouseout"/>
                  </use>
                  <path fill="none" stroke="white" stroke-width="1.5" d="M0,-3.0v7 M-2.5,-0.5L0,-3.0L2.5,-0.5"/>
                </g>
                <g id="arrowLeft" xlink:href="#dirArrow" transform="rotate(270) translate(-36 17)" onmousedown="handlePan(-1,0)">
                  <use xlink:href="#rim" fill="#404040">
                        <set attributeName="fill" to="#808080" begin="arrowLeft.mouseover" end="arrowLeft.mouseout"/>
                  </use>
                  <path fill="none" stroke="white" stroke-width="1.5" d="M0,-3.0v7 M-2.5,-0.5L0,-3.0L2.5,-0.5"/>
                </g>
        </g>
        <svg viewBox="0 0 15 15" width="100%" height="30px" preserveAspectRatio="xMaxYMin meet">
         <g id="arrow_out" transform="scale(0.3 0.3)">
          <a xlink:href="alifold_8h__incl_org.svg" target="_base">
           <rect id="button" ry="5" rx="5" y="6" x="6" height="38" width="38"
                fill="#f2f5e9" fill-opacity="0.5" stroke="#606060" stroke-width="1.0"/>
           <path id="arrow"
             d="M 11.500037,31.436501 C 11.940474,20.09759 22.043105,11.32322 32.158766,21.979434 L 37.068811,17.246167 C 37.068811,17.246167 37.088388,32 37.088388,32 L 22.160133,31.978069 C 22.160133,31.978069 26.997745,27.140456 26.997745,27.140456 C 18.528582,18.264221 13.291696,25.230495 11.500037,31.436501 z"
             style="fill:#404040;"/>
          </a>
         </g>
        </svg>
</svg>
