<?xml version="1.0" encoding="UTF-8" standalone="no"?>
<!DOCTYPE svg PUBLIC "-//W3C//DTD SVG 1.1//EN"
 "http://www.w3.org/Graphics/SVG/1.1/DTD/svg11.dtd">
<!-- Generated by graphviz version 2.40.1 (20161225.0304)
 -->
<!-- Title: ViennaRNA/aln_util.h Pages: 1 -->
<!--zoomable 386 -->
<svg id="main" version="1.1" xmlns="http://www.w3.org/2000/svg" xmlns:xlink="http://www.w3.org/1999/xlink" xml:space="preserve" onload="init(evt)">
<style type="text/css"><![CDATA[
.edge:hover path { stroke: red; }
.edge:hover polygon { stroke: red; fill: red; }
]]></style>
<script type="text/javascript"><![CDATA[
var edges = document.getElementsByTagName('g');
if (edges && edges.length) {
  for (var i=0;i<edges.length;i++) {
    if (edges[i].id.substr(0,4)=='edge') {
      edges[i].setAttribute('class','edge');
    }
  }
}
]]></script>
        <defs>
                <circle id="rim" cx="0" cy="0" r="7"/>
                <circle id="rim2" cx="0" cy="0" r="3.5"/>
                <g id="zoomPlus">
                        <use xlink:href="#rim" fill="#404040">
                                <set attributeName="fill" to="#808080" begin="zoomplus.mouseover" end="zoomplus.mouseout"/>
                        </use>
                        <path d="M-4,0h8M0,-4v8" fill="none" stroke="white" stroke-width="1.5" pointer-events="none"/>
                </g>
                <g id="zoomMin">
                        <use xlink:href="#rim" fill="#404040">
                                <set attributeName="fill" to="#808080" begin="zoomminus.mouseover" end="zoomminus.mouseout"/>
                        </use>
                        <path d="M-4,0h8" fill="none" stroke="white" stroke-width="1.5" pointer-events="none"/>
                </g>
                <g id="dirArrow">
                        <path fill="none" stroke="white" stroke-width="1.5" d="M0,-3.0v7 M-2.5,-0.5L0,-3.0L2.5,-0.5"/>
                </g>
               <g id="resetDef">
                       <use xlink:href="#rim2" fill="#404040">
                               <set attributeName="fill" to="#808080" begin="reset.mouseover" end="reset.mouseout"/>
                       </use>
               </g>
        </defs>

<script type="text/javascript">
var viewWidth = 1228;
var viewHeight = 386;
var sectionId = 'dynsection-0';
</script>
<script xlink:href="svgpan.js"/>
<svg id="graph" class="graph">
<g id="viewport">
<title>ViennaRNA/aln_util.h</title>
<!-- Node0 -->
<g id="node1" class="node">
<title>Node0</title>
<polygon fill="#bfbfbf" stroke="#000000" points="674,-358.5 674,-377.5 784,-377.5 784,-358.5 674,-358.5"/>
<text text-anchor="middle" x="729" y="-365.5" font-family="Helvetica,sans-Serif" font-size="10.00" fill="#000000">ViennaRNA/aln_util.h</text>
</g>
<!-- Node1 -->
<g id="node2" class="node">
<title>Node1</title>
<g id="a_node2"><a xlink:href="fold__compound_8h.html" target="_top" xlink:title="The Basic Fold Compound API. ">
<polygon fill="none" stroke="#000000" points="656,-302.5 656,-321.5 802,-321.5 802,-302.5 656,-302.5"/>
<text text-anchor="middle" x="729" y="-309.5" font-family="Helvetica,sans-Serif" font-size="10.00" fill="#000000">ViennaRNA/fold_compound.h</text>
</a>
</g>
</g>
<!-- Node0&#45;&gt;Node1 -->
<g id="edge1" class="edge">
<title>Node0&#45;&gt;Node1</title>
<path fill="none" stroke="#191970" d="M729,-358.2455C729,-350.9382 729,-340.6944 729,-331.7046"/>
<polygon fill="#191970" stroke="#191970" points="732.5001,-331.6426 729,-321.6427 725.5001,-331.6427 732.5001,-331.6426"/>
</g>
<!-- Node2 -->
<g id="node3" class="node">
<title>Node2</title>
<g id="a_node3"><a xlink:href="model_8h.html" target="_top" xlink:title="The model details data structure and its corresponding modifiers. ">
<polygon fill="none" stroke="#000000" points="0,-129 0,-148 106,-148 106,-129 0,-129"/>
<text text-anchor="middle" x="53" y="-136" font-family="Helvetica,sans-Serif" font-size="10.00" fill="#000000">ViennaRNA/model.h</text>
</a>
</g>
</g>
<!-- Node1&#45;&gt;Node2 -->
<g id="edge2" class="edge">
<title>Node1&#45;&gt;Node2</title>
<path fill="none" stroke="#191970" d="M683.224,-302.4701C641.1834,-293.5656 577.2197,-279.6335 522,-266 364.1322,-227.0232 178.1713,-174.4767 95.8738,-150.8779"/>
<polygon fill="#191970" stroke="#191970" points="96.7043,-147.475 86.1267,-148.0792 94.7724,-154.2032 96.7043,-147.475"/>
</g>
<!-- Node3 -->
<g id="node4" class="node">
<title>Node3</title>
<g id="a_node4"><a xlink:href="params_8h.html" target="_top" xlink:title="Functions to deal with sets of energy parameters. ">
<polygon fill="none" stroke="#000000" points="589,-246.5 589,-265.5 701,-265.5 701,-246.5 589,-246.5"/>
<text text-anchor="middle" x="645" y="-253.5" font-family="Helvetica,sans-Serif" font-size="10.00" fill="#000000">ViennaRNA/params.h</text>
</a>
</g>
</g>
<!-- Node1&#45;&gt;Node3 -->
<g id="edge3" class="edge">
<title>Node1&#45;&gt;Node3</title>
<path fill="none" stroke="#191970" d="M714.3683,-302.2455C701.6006,-293.7337 682.8562,-281.2375 668.0701,-271.3801"/>
<polygon fill="#191970" stroke="#191970" points="669.726,-268.2775 659.464,-265.6427 665.8431,-274.1019 669.726,-268.2775"/>
</g>
<!-- Node7 -->
<g id="node8" class="node">
<title>Node7</title>
<g id="a_node8"><a xlink:href="dp__matrices_8h.html" target="_top" xlink:title="Functions to deal with standard dynamic programming (DP) matrices. ">
<polygon fill="none" stroke="#000000" points="280.5,-129 280.5,-148 413.5,-148 413.5,-129 280.5,-129"/>
<text text-anchor="middle" x="347" y="-136" font-family="Helvetica,sans-Serif" font-size="10.00" fill="#000000">ViennaRNA/dp_matrices.h</text>
</a>
</g>
</g>
<!-- Node1&#45;&gt;Node7 -->
<g id="edge36" class="edge">
<title>Node1&#45;&gt;Node7</title>
<path fill="none" stroke="#191970" d="M683.6855,-302.4574C650.3863,-294.6734 604.439,-282.3034 566,-266 489.8821,-233.7156 407.4982,-180.1192 369.07,-153.9005"/>
<polygon fill="#191970" stroke="#191970" points="370.9247,-150.9283 360.7012,-148.1478 366.9593,-156.6969 370.9247,-150.9283"/>
</g>
<!-- Node8 -->
<g id="node9" class="node">
<title>Node8</title>
<g id="a_node9"><a xlink:href="constraints_8h.html" target="_top" xlink:title="Functions and data structures for constraining secondary structure predictions and evaluation...">
<polygon fill="none" stroke="#000000" points="508,-129 508,-148 636,-148 636,-129 508,-129"/>
<text text-anchor="middle" x="572" y="-136" font-family="Helvetica,sans-Serif" font-size="10.00" fill="#000000">ViennaRNA/constraints.h</text>
</a>
</g>
</g>
<!-- Node1&#45;&gt;Node8 -->
<g id="edge37" class="edge">
<title>Node1&#45;&gt;Node8</title>
<path fill="none" stroke="#191970" d="M676.8833,-302.4201C638.9701,-294.3057 592.2262,-281.5274 580,-266 555.5197,-234.9098 561.2764,-185.2251 567.0139,-157.966"/>
<polygon fill="#191970" stroke="#191970" points="570.4561,-158.6155 569.3052,-148.0833 563.637,-157.0344 570.4561,-158.6155"/>
</g>
<!-- Node14 -->
<g id="node15" class="node">
<title>Node14</title>
<g id="a_node15"><a xlink:href="grammar_8h.html" target="_top" xlink:title="Implementations for the RNA folding grammar. ">
<polygon fill="none" stroke="#000000" points="968,-129 968,-148 1086,-148 1086,-129 968,-129"/>
<text text-anchor="middle" x="1027" y="-136" font-family="Helvetica,sans-Serif" font-size="10.00" fill="#000000">ViennaRNA/grammar.h</text>
</a>
</g>
</g>
<!-- Node1&#45;&gt;Node14 -->
<g id="edge38" class="edge">
<title>Node1&#45;&gt;Node14</title>
<path fill="none" stroke="#191970" d="M738.502,-302.1089C766.2525,-273.2305 845.3339,-190.9996 847,-190 868.443,-177.1358 929.1326,-161.1315 974.1462,-150.4087"/>
<polygon fill="#191970" stroke="#191970" points="975.1365,-153.7712 984.0666,-148.07 973.5303,-146.958 975.1365,-153.7712"/>
</g>
<!-- Node15 -->
<g id="node16" class="node">
<title>Node15</title>
<g id="a_node16"><a xlink:href="structured__domains_8h.html" target="_top" xlink:title="This module provides interfaces that deal with additional structured domains in the folding grammar...">
<polygon fill="none" stroke="#000000" points="1104.5,-123.5 1104.5,-153.5 1219.5,-153.5 1219.5,-123.5 1104.5,-123.5"/>
<text text-anchor="start" x="1112.5" y="-141.5" font-family="Helvetica,sans-Serif" font-size="10.00" fill="#000000">ViennaRNA/structured</text>
<text text-anchor="middle" x="1162" y="-130.5" font-family="Helvetica,sans-Serif" font-size="10.00" fill="#000000">_domains.h</text>
</a>
</g>
</g>
<!-- Node1&#45;&gt;Node15 -->
<g id="edge39" class="edge">
<title>Node1&#45;&gt;Node15</title>
<path fill="none" stroke="#191970" d="M749.8731,-302.4989C778.8861,-289.3793 833.1269,-265.1651 880,-246 960.2296,-213.1963 1054.5285,-177.8981 1111.2103,-157.0278"/>
<polygon fill="#191970" stroke="#191970" points="1112.4819,-160.2895 1120.66,-153.5538 1110.0664,-153.7194 1112.4819,-160.2895"/>
</g>
<!-- Node16 -->
<g id="node17" class="node">
<title>Node16</title>
<g id="a_node17"><a xlink:href="unstructured__domains_8h.html" target="_top" xlink:title="Functions to modify unstructured domains, e.g. to incorporate ligands binding to unpaired stretches...">
<polygon fill="none" stroke="#000000" points="824.5,-123.5 824.5,-153.5 949.5,-153.5 949.5,-123.5 824.5,-123.5"/>
<text text-anchor="start" x="832.5" y="-141.5" font-family="Helvetica,sans-Serif" font-size="10.00" fill="#000000">ViennaRNA/unstructured</text>
<text text-anchor="middle" x="887" y="-130.5" font-family="Helvetica,sans-Serif" font-size="10.00" fill="#000000">_domains.h</text>
</a>
</g>
</g>
<!-- Node1&#45;&gt;Node16 -->
<g id="edge40" class="edge">
<title>Node1&#45;&gt;Node16</title>
<path fill="none" stroke="#191970" d="M733.6756,-302.1906C744.5256,-280.1586 773.2371,-225.8759 809,-190 820.841,-178.1216 835.8354,-167.4398 849.5066,-158.9247"/>
<polygon fill="#191970" stroke="#191970" points="851.4964,-161.812 858.253,-153.6512 847.882,-155.8173 851.4964,-161.812"/>
</g>
<!-- Node19 -->
<g id="node20" class="node">
<title>Node19</title>
<g id="a_node20"><a xlink:href="sequence_8h.html" target="_top" xlink:title="Functions and data structures related to sequence representations. ">
<polygon fill="none" stroke="#000000" points="889,-246.5 889,-265.5 1011,-265.5 1011,-246.5 889,-246.5"/>
<text text-anchor="middle" x="950" y="-253.5" font-family="Helvetica,sans-Serif" font-size="10.00" fill="#000000">ViennaRNA/sequence.h</text>
</a>
</g>
</g>
<!-- Node1&#45;&gt;Node19 -->
<g id="edge35" class="edge">
<title>Node1&#45;&gt;Node19</title>
<path fill="none" stroke="#191970" d="M766.7401,-302.4369C804.2448,-292.9335 861.8799,-278.3291 902.4824,-268.0407"/>
<polygon fill="#191970" stroke="#191970" points="903.5816,-271.3728 912.4155,-265.5237 901.8621,-264.5873 903.5816,-271.3728"/>
</g>
<!-- Node3&#45;&gt;Node2 -->
<g id="edge34" class="edge">
<title>Node3&#45;&gt;Node2</title>
<path fill="none" stroke="#191970" d="M590.2443,-246.4846C493.8496,-229.5055 287.6943,-192.1744 115,-154 109.9827,-152.8909 104.7516,-151.6758 99.5483,-150.4294"/>
<polygon fill="#191970" stroke="#191970" points="100.1843,-146.982 89.6398,-148.0134 98.526,-153.7828 100.1843,-146.982"/>
</g>
<!-- Node4 -->
<g id="node5" class="node">
<title>Node4</title>
<g id="a_node5"><a xlink:href="energy__const_8h.html" target="_top" xlink:title="Energy parameter constants. ">
<polygon fill="none" stroke="#000000" points="124,-129 124,-148 262,-148 262,-129 124,-129"/>
<text text-anchor="middle" x="193" y="-136" font-family="Helvetica,sans-Serif" font-size="10.00" fill="#000000">ViennaRNA/energy_const.h</text>
</a>
</g>
</g>
<!-- Node3&#45;&gt;Node4 -->
<g id="edge4" class="edge">
<title>Node3&#45;&gt;Node4</title>
<path fill="none" stroke="#191970" d="M626.965,-246.327C599.2001,-231.8528 543.9543,-204.6928 494,-190 397.6854,-161.6714 369.8061,-171.7867 271,-154 263.9937,-152.7387 256.6454,-151.3568 249.3771,-149.9538"/>
<polygon fill="#191970" stroke="#191970" points="250.0403,-146.5173 239.5551,-148.0372 248.6996,-153.3877 250.0403,-146.5173"/>
</g>
<!-- Node6 -->
<g id="node7" class="node">
<title>Node6</title>
<g id="a_node7"><a xlink:href="data__structures_8h.html" target="_top" xlink:title="Various data structures and pre&#45;processor macros. ">
<polygon fill="none" stroke="#000000" points="609.5,-190.5 609.5,-209.5 756.5,-209.5 756.5,-190.5 609.5,-190.5"/>
<text text-anchor="middle" x="683" y="-197.5" font-family="Helvetica,sans-Serif" font-size="10.00" fill="#000000">ViennaRNA/data_structures.h</text>
</a>
</g>
</g>
<!-- Node3&#45;&gt;Node6 -->
<g id="edge6" class="edge">
<title>Node3&#45;&gt;Node6</title>
<path fill="none" stroke="#191970" d="M646.3522,-246.2455C650.1726,-238.3761 657.4717,-227.101 664.6978,-217.6542"/>
<polygon fill="#191970" stroke="#191970" points="667.6187,-219.6097 671.2116,-209.6427 662.1874,-215.1937 667.6187,-219.6097"/>
</g>
<!-- Node5 -->
<g id="node6" class="node">
<title>Node5</title>
<polygon fill="none" stroke="#bfbfbf" points="166,-62 166,-81 214,-81 214,-62 166,-62"/>
<text text-anchor="middle" x="190" y="-69" font-family="Helvetica,sans-Serif" font-size="10.00" fill="#000000">limits.h</text>
</g>
<!-- Node4&#45;&gt;Node5 -->
<g id="edge5" class="edge">
<title>Node4&#45;&gt;Node5</title>
<path fill="none" stroke="#191970" d="M192.5702,-128.9005C192.1335,-119.149 191.4445,-103.7597 190.8897,-91.3695"/>
<polygon fill="#191970" stroke="#191970" points="194.3729,-90.9151 190.429,-81.0817 187.3799,-91.2282 194.3729,-90.9151"/>
</g>
<!-- Node6&#45;&gt;Node1 -->
<g id="edge8" class="edge">
<title>Node6&#45;&gt;Node1</title>
<path fill="none" stroke="#191970" d="M689.7639,-209.8477C695.7461,-218.9114 704.374,-232.896 710,-246 716.468,-261.0653 721.4692,-278.9873 724.7134,-292.3511"/>
<polygon fill="#191970" stroke="#191970" points="721.3599,-293.3849 727.0188,-302.3419 728.1806,-291.8109 721.3599,-293.3849"/>
</g>
<!-- Node6&#45;&gt;Node2 -->
<g id="edge9" class="edge">
<title>Node6&#45;&gt;Node2</title>
<path fill="none" stroke="#191970" d="M609.2563,-195.5406C477.8172,-187.3399 208.1092,-169.3025 115,-154 109.1085,-153.0317 102.9542,-151.7856 96.9081,-150.4213"/>
<polygon fill="#191970" stroke="#191970" points="97.4388,-146.95 86.9004,-148.0418 95.8195,-153.7601 97.4388,-146.95"/>
</g>
<!-- Node6&#45;&gt;Node3 -->
<g id="edge10" class="edge">
<title>Node6&#45;&gt;Node3</title>
<path fill="none" stroke="#191970" d="M681.7019,-209.6427C677.9146,-217.4797 670.6318,-228.7472 663.4051,-238.2112"/>
<polygon fill="#191970" stroke="#191970" points="660.4689,-236.2749 656.8859,-246.2455 665.9047,-240.6855 660.4689,-236.2749"/>
</g>
<!-- Node6&#45;&gt;Node4 -->
<g id="edge7" class="edge">
<title>Node6&#45;&gt;Node4</title>
<path fill="none" stroke="#191970" d="M609.0599,-191.5842C604.3021,-191.0468 599.584,-190.5151 595,-190 451.0201,-173.8205 414.1846,-176.1399 271,-154 263.3251,-152.8133 255.2571,-151.3997 247.3393,-149.9163"/>
<polygon fill="#191970" stroke="#191970" points="247.9124,-146.4624 237.4314,-148.0118 246.5909,-153.3366 247.9124,-146.4624"/>
</g>
<!-- Node6&#45;&gt;Node7 -->
<g id="edge11" class="edge">
<title>Node6&#45;&gt;Node7</title>
<path fill="none" stroke="#191970" d="M622.3182,-190.4732C568.6148,-181.2835 488.4378,-166.9064 419,-154 412.0959,-152.7167 404.8641,-151.3562 397.7468,-149.9952"/>
<polygon fill="#191970" stroke="#191970" points="397.9346,-146.467 387.4527,-148.0097 396.6088,-153.3403 397.9346,-146.467"/>
</g>
<!-- Node6&#45;&gt;Node8 -->
<g id="edge13" class="edge">
<title>Node6&#45;&gt;Node8</title>
<path fill="none" stroke="#191970" d="M660.5938,-190.3906C640.7357,-180.4616 612.2587,-164.833 592.8783,-153.3201"/>
<polygon fill="#191970" stroke="#191970" points="594.5384,-150.2335 584.1727,-148.0419 590.9092,-156.2193 594.5384,-150.2335"/>
</g>
<!-- Node6&#45;&gt;Node14 -->
<g id="edge25" class="edge">
<title>Node6&#45;&gt;Node14</title>
<path fill="none" stroke="#191970" d="M739.658,-190.4635C793.8386,-181.8197 877.5561,-168.2806 950,-154 955.784,-152.8598 961.8275,-151.5927 967.8845,-150.2882"/>
<polygon fill="#191970" stroke="#191970" points="969.0221,-153.6225 978.0474,-148.0732 967.5314,-146.783 969.0221,-153.6225"/>
</g>
<!-- Node6&#45;&gt;Node15 -->
<g id="edge27" class="edge">
<title>Node6&#45;&gt;Node15</title>
<path fill="none" stroke="#191970" d="M756.668,-194.3727C837.197,-187.6353 970.1703,-174.7961 1094.2801,-153.9941"/>
<polygon fill="#191970" stroke="#191970" points="1095.069,-157.4103 1104.3425,-152.2865 1093.8978,-150.509 1095.069,-157.4103"/>
</g>
<!-- Node6&#45;&gt;Node16 -->
<g id="edge28" class="edge">
<title>Node6&#45;&gt;Node16</title>
<path fill="none" stroke="#191970" d="M709.8125,-190.3906C738.0831,-181.3352 783.4667,-167.539 821.2651,-156.4479"/>
<polygon fill="#191970" stroke="#191970" points="822.5823,-159.7094 831.1989,-153.5446 820.6186,-152.9904 822.5823,-159.7094"/>
</g>
<!-- Node17 -->
<g id="node18" class="node">
<title>Node17</title>
<g id="a_node18"><a xlink:href="structure__utils_8h.html" target="_top" xlink:title="Various utility&#45; and helper&#45;functions for secondary structure parsing, converting, etc. ">
<polygon fill="none" stroke="#000000" points="922,-56.5 922,-86.5 1032,-86.5 1032,-56.5 922,-56.5"/>
<text text-anchor="start" x="930" y="-74.5" font-family="Helvetica,sans-Serif" font-size="10.00" fill="#000000">ViennaRNA/structure</text>
<text text-anchor="middle" x="977" y="-63.5" font-family="Helvetica,sans-Serif" font-size="10.00" fill="#000000">_utils.h</text>
</a>
</g>
</g>
<!-- Node6&#45;&gt;Node17 -->
<g id="edge33" class="edge">
<title>Node6&#45;&gt;Node17</title>
<path fill="none" stroke="#191970" d="M694.124,-190.4639C722.7029,-171.0519 794.9867,-128.3244 807,-123 840.5537,-108.1287 879.7475,-95.4966 912.1122,-86.465"/>
<polygon fill="#191970" stroke="#191970" points="913.2024,-89.7954 921.9234,-83.7792 911.3541,-83.0438 913.2024,-89.7954"/>
</g>
<!-- Node7&#45;&gt;Node6 -->
<g id="edge12" class="edge">
<title>Node7&#45;&gt;Node6</title>
<path fill="none" stroke="#191970" d="M405.0353,-148.0097C415.7222,-150.009 426.7241,-152.09 437,-154 501.9623,-166.0745 576.3241,-179.4363 626.2144,-188.6334"/>
<polygon fill="#191970" stroke="#191970" points="625.6966,-192.0969 636.1663,-190.4732 626.9692,-185.2135 625.6966,-192.0969"/>
</g>
<!-- Node8&#45;&gt;Node6 -->
<g id="edge14" class="edge">
<title>Node8&#45;&gt;Node6</title>
<path fill="none" stroke="#191970" d="M594.2713,-148.0419C614.0901,-157.945 642.5681,-173.57 661.9896,-185.1015"/>
<polygon fill="#191970" stroke="#191970" points="660.3525,-188.2019 670.7188,-190.3906 663.98,-182.2151 660.3525,-188.2019"/>
</g>
<!-- Node9 -->
<g id="node10" class="node">
<title>Node9</title>
<g id="a_node10"><a xlink:href="constraints__hard_8h.html" target="_top" xlink:title="Functions and data structures for handling of secondary structure hard constraints. ">
<polygon fill="none" stroke="#000000" points="506.5,-56.5 506.5,-86.5 625.5,-86.5 625.5,-56.5 506.5,-56.5"/>
<text text-anchor="start" x="514.5" y="-74.5" font-family="Helvetica,sans-Serif" font-size="10.00" fill="#000000">ViennaRNA/constraints</text>
<text text-anchor="middle" x="566" y="-63.5" font-family="Helvetica,sans-Serif" font-size="10.00" fill="#000000">_hard.h</text>
</a>
</g>
</g>
<!-- Node8&#45;&gt;Node9 -->
<g id="edge15" class="edge">
<title>Node8&#45;&gt;Node9</title>
<path fill="none" stroke="#191970" d="M571.1403,-128.9005C570.3889,-120.5099 569.2637,-107.9451 568.2575,-96.7085"/>
<polygon fill="#191970" stroke="#191970" points="571.7233,-96.1697 567.3452,-86.5218 564.7512,-96.7941 571.7233,-96.1697"/>
</g>
<!-- Node10 -->
<g id="node11" class="node">
<title>Node10</title>
<g id="a_node11"><a xlink:href="constraints__soft_8h.html" target="_top" xlink:title="Functions and data structures for secondary structure soft constraints. ">
<polygon fill="none" stroke="#000000" points="232.5,-56.5 232.5,-86.5 351.5,-86.5 351.5,-56.5 232.5,-56.5"/>
<text text-anchor="start" x="240.5" y="-74.5" font-family="Helvetica,sans-Serif" font-size="10.00" fill="#000000">ViennaRNA/constraints</text>
<text text-anchor="middle" x="292" y="-63.5" font-family="Helvetica,sans-Serif" font-size="10.00" fill="#000000">_soft.h</text>
</a>
</g>
</g>
<!-- Node8&#45;&gt;Node10 -->
<g id="edge17" class="edge">
<title>Node8&#45;&gt;Node10</title>
<path fill="none" stroke="#191970" d="M532.1802,-128.9717C487.8338,-118.3602 415.3253,-101.01 361.5603,-88.1448"/>
<polygon fill="#191970" stroke="#191970" points="362.2904,-84.7207 351.7504,-85.7974 360.6613,-91.5286 362.2904,-84.7207"/>
</g>
<!-- Node11 -->
<g id="node12" class="node">
<title>Node11</title>
<g id="a_node12"><a xlink:href="constraints__SHAPE_8h.html" target="_top" xlink:title="This module provides function to incorporate SHAPE reactivity data into the folding recursions by mea...">
<polygon fill="none" stroke="#000000" points="369.5,-56.5 369.5,-86.5 488.5,-86.5 488.5,-56.5 369.5,-56.5"/>
<text text-anchor="start" x="377.5" y="-74.5" font-family="Helvetica,sans-Serif" font-size="10.00" fill="#000000">ViennaRNA/constraints</text>
<text text-anchor="middle" x="429" y="-63.5" font-family="Helvetica,sans-Serif" font-size="10.00" fill="#000000">_SHAPE.h</text>
</a>
</g>
</g>
<!-- Node8&#45;&gt;Node11 -->
<g id="edge19" class="edge">
<title>Node8&#45;&gt;Node11</title>
<path fill="none" stroke="#191970" d="M551.5116,-128.9005C530.3722,-118.9961 496.8196,-103.2756 470.1687,-90.7888"/>
<polygon fill="#191970" stroke="#191970" points="471.6017,-87.5952 461.0614,-86.5218 468.6318,-93.9339 471.6017,-87.5952"/>
</g>
<!-- Node12 -->
<g id="node13" class="node">
<title>Node12</title>
<g id="a_node13"><a xlink:href="perturbation__fold_8h.html" target="_top" xlink:title="Find a vector of perturbation energies that minimizes the discripancies between predicted and observe...">
<polygon fill="none" stroke="#000000" points="644,-56.5 644,-86.5 766,-86.5 766,-56.5 644,-56.5"/>
<text text-anchor="start" x="652" y="-74.5" font-family="Helvetica,sans-Serif" font-size="10.00" fill="#000000">ViennaRNA/perturbation</text>
<text text-anchor="middle" x="705" y="-63.5" font-family="Helvetica,sans-Serif" font-size="10.00" fill="#000000">_fold.h</text>
</a>
</g>
</g>
<!-- Node8&#45;&gt;Node12 -->
<g id="edge21" class="edge">
<title>Node8&#45;&gt;Node12</title>
<path fill="none" stroke="#191970" d="M591.0557,-128.9005C610.545,-119.0826 641.3788,-103.5498 666.0594,-91.1167"/>
<polygon fill="#191970" stroke="#191970" points="667.8245,-94.1466 675.1807,-86.5218 664.6752,-87.895 667.8245,-94.1466"/>
</g>
<!-- Node13 -->
<g id="node14" class="node">
<title>Node13</title>
<g id="a_node14"><a xlink:href="constraints__ligand_8h.html" target="_top" xlink:title="Functions for incorporation of ligands binding to hairpin and interior loop motifs using the soft con...">
<polygon fill="none" stroke="#000000" points="784.5,-56.5 784.5,-86.5 903.5,-86.5 903.5,-56.5 784.5,-56.5"/>
<text text-anchor="start" x="792.5" y="-74.5" font-family="Helvetica,sans-Serif" font-size="10.00" fill="#000000">ViennaRNA/constraints</text>
<text text-anchor="middle" x="844" y="-63.5" font-family="Helvetica,sans-Serif" font-size="10.00" fill="#000000">_ligand.h</text>
</a>
</g>
</g>
<!-- Node8&#45;&gt;Node13 -->
<g id="edge23" class="edge">
<title>Node8&#45;&gt;Node13</title>
<path fill="none" stroke="#191970" d="M610.6821,-128.9717C653.2587,-118.4841 722.558,-101.414 774.5912,-88.597"/>
<polygon fill="#191970" stroke="#191970" points="775.5521,-91.965 784.4247,-86.1748 773.8778,-85.1682 775.5521,-91.965"/>
</g>
<!-- Node9&#45;&gt;Node6 -->
<g id="edge16" class="edge">
<title>Node9&#45;&gt;Node6</title>
<path fill="none" stroke="#191970" d="M596.9906,-86.561C612.8751,-95.4599 631.6344,-107.937 645,-123 659.9339,-139.8304 670.4676,-163.5817 676.5984,-180.2421"/>
<polygon fill="#191970" stroke="#191970" points="673.4075,-181.7232 679.9934,-190.0224 680.0205,-179.4276 673.4075,-181.7232"/>
</g>
<!-- Node10&#45;&gt;Node6 -->
<g id="edge18" class="edge">
<title>Node10&#45;&gt;Node6</title>
<path fill="none" stroke="#191970" d="M339.1889,-86.5632C364.533,-95.5398 395.8506,-108.0886 422,-123 441.5383,-134.1415 441.5771,-144.5776 462,-154 488.2979,-166.1329 557.8956,-179.5891 612.0292,-188.7965"/>
<polygon fill="#191970" stroke="#191970" points="611.501,-192.2567 621.9432,-190.4649 612.6628,-185.3538 611.501,-192.2567"/>
</g>
<!-- Node11&#45;&gt;Node6 -->
<g id="edge20" class="edge">
<title>Node11&#45;&gt;Node6</title>
<path fill="none" stroke="#191970" d="M437.8007,-86.8097C449.3931,-105.5663 471.5595,-136.9457 499,-154 529.0333,-172.6658 566.2485,-183.7661 599.335,-190.3635"/>
<polygon fill="#191970" stroke="#191970" points="598.9831,-193.8587 609.4581,-192.2698 600.2786,-186.9796 598.9831,-193.8587"/>
</g>
<!-- Node12&#45;&gt;Node6 -->
<g id="edge22" class="edge">
<title>Node12&#45;&gt;Node6</title>
<path fill="none" stroke="#191970" d="M702.3974,-86.7016C698.4094,-109.9952 690.7866,-154.5195 686.3776,-180.2718"/>
<polygon fill="#191970" stroke="#191970" points="682.8914,-179.8944 684.6536,-190.3416 689.791,-181.0757 682.8914,-179.8944"/>
</g>
<!-- Node13&#45;&gt;Node6 -->
<g id="edge24" class="edge">
<title>Node13&#45;&gt;Node6</title>
<path fill="none" stroke="#191970" d="M817.9412,-86.5611C801.8776,-96.2569 781.1438,-109.5282 764,-123 739.8767,-141.9564 714.6507,-166.8722 698.8879,-183.1533"/>
<polygon fill="#191970" stroke="#191970" points="696.3471,-180.746 691.9563,-190.3882 701.4017,-185.5887 696.3471,-180.746"/>
</g>
<!-- Node14&#45;&gt;Node6 -->
<g id="edge26" class="edge">
<title>Node14&#45;&gt;Node6</title>
<path fill="none" stroke="#191970" d="M995.5764,-148.0732C986.6896,-150.1311 977.0286,-152.2202 968,-154 899.6594,-167.4717 821.286,-180.2836 763.9782,-188.9484"/>
<polygon fill="#191970" stroke="#191970" points="763.2595,-185.517 753.8903,-190.4635 764.2992,-192.4393 763.2595,-185.517"/>
</g>
<!-- Node16&#45;&gt;Node6 -->
<g id="edge29" class="edge">
<title>Node16&#45;&gt;Node6</title>
<path fill="none" stroke="#191970" d="M842.9931,-153.5446C809.547,-164.0031 763.7465,-177.7748 729.6647,-187.6025"/>
<polygon fill="#191970" stroke="#191970" points="728.586,-184.2707 719.9375,-190.3906 730.5148,-190.9997 728.586,-184.2707"/>
</g>
<!-- Node16&#45;&gt;Node17 -->
<g id="edge30" class="edge">
<title>Node16&#45;&gt;Node17</title>
<path fill="none" stroke="#191970" d="M907.4224,-123.2967C919.5048,-114.302 934.9972,-102.7687 948.2948,-92.8694"/>
<polygon fill="#191970" stroke="#191970" points="950.7271,-95.4221 956.6584,-86.6432 946.5471,-89.8072 950.7271,-95.4221"/>
</g>
<!-- Node17&#45;&gt;Node6 -->
<g id="edge32" class="edge">
<title>Node17&#45;&gt;Node6</title>
<path fill="none" stroke="#191970" d="M927.6047,-86.5871C897.395,-95.6102 858.4027,-108.1956 825,-123 813.9253,-127.9084 751.6294,-164.6041 713.1465,-185.5162"/>
<polygon fill="#191970" stroke="#191970" points="711.0797,-182.653 703.9214,-190.4639 714.3882,-188.8218 711.0797,-182.653"/>
</g>
<!-- Node18 -->
<g id="node19" class="node">
<title>Node18</title>
<polygon fill="none" stroke="#bfbfbf" points="954,-.5 954,-19.5 1000,-19.5 1000,-.5 954,-.5"/>
<text text-anchor="middle" x="977" y="-7.5" font-family="Helvetica,sans-Serif" font-size="10.00" fill="#000000">stdio.h</text>
</g>
<!-- Node17&#45;&gt;Node18 -->
<g id="edge31" class="edge">
<title>Node17&#45;&gt;Node18</title>
<path fill="none" stroke="#191970" d="M977,-56.2977C977,-48.3834 977,-38.6043 977,-30.0759"/>
<polygon fill="#191970" stroke="#191970" points="980.5001,-29.8469 977,-19.8469 973.5001,-29.847 980.5001,-29.8469"/>
</g>
</g>
</svg>
        <g id="navigator" transform="translate(0 0)" fill="#404254">
                <rect fill="#f2f5e9" fill-opacity="0.5" stroke="#606060" stroke-width=".5" x="0" y="0" width="60" height="60"/>
                <use id="zoomplus" xlink:href="#zoomPlus" x="17" y="9" onmousedown="handleZoom(evt,'in')"/>
                <use id="zoomminus" xlink:href="#zoomMin" x="42" y="9" onmousedown="handleZoom(evt,'out')"/>
                <use id="reset" xlink:href="#resetDef" x="30" y="36" onmousedown="handleReset()"/>
                <g id="arrowUp" xlink:href="#dirArrow" transform="translate(30 24)" onmousedown="handlePan(0,-1)">
                  <use xlink:href="#rim" fill="#404040">
                        <set attributeName="fill" to="#808080" begin="arrowUp.mouseover" end="arrowUp.mouseout"/>
                  </use>
                  <path fill="none" stroke="white" stroke-width="1.5" d="M0,-3.0v7 M-2.5,-0.5L0,-3.0L2.5,-0.5"/>
                </g>
                <g id="arrowRight" xlink:href="#dirArrow" transform="rotate(90) translate(36 -43)" onmousedown="handlePan(1,0)">
                  <use xlink:href="#rim" fill="#404040">
                        <set attributeName="fill" to="#808080" begin="arrowRight.mouseover" end="arrowRight.mouseout"/>
                  </use>
                  <path fill="none" stroke="white" stroke-width="1.5" d="M0,-3.0v7 M-2.5,-0.5L0,-3.0L2.5,-0.5"/>
                </g>
                <g id="arrowDown" xlink:href="#dirArrow" transform="rotate(180) translate(-30 -48)" onmousedown="handlePan(0,1)">
                  <use xlink:href="#rim" fill="#404040">
                        <set attributeName="fill" to="#808080" begin="arrowDown.mouseover" end="arrowDown.mouseout"/>
                  </use>
                  <path fill="none" stroke="white" stroke-width="1.5" d="M0,-3.0v7 M-2.5,-0.5L0,-3.0L2.5,-0.5"/>
                </g>
                <g id="arrowLeft" xlink:href="#dirArrow" transform="rotate(270) translate(-36 17)" onmousedown="handlePan(-1,0)">
                  <use xlink:href="#rim" fill="#404040">
                        <set attributeName="fill" to="#808080" begin="arrowLeft.mouseover" end="arrowLeft.mouseout"/>
                  </use>
                  <path fill="none" stroke="white" stroke-width="1.5" d="M0,-3.0v7 M-2.5,-0.5L0,-3.0L2.5,-0.5"/>
                </g>
        </g>
        <svg viewBox="0 0 15 15" width="100%" height="30px" preserveAspectRatio="xMaxYMin meet">
         <g id="arrow_out" transform="scale(0.3 0.3)">
          <a xlink:href="aln__util_8h__incl_org.svg" target="_base">
           <rect id="button" ry="5" rx="5" y="6" x="6" height="38" width="38"
                fill="#f2f5e9" fill-opacity="0.5" stroke="#606060" stroke-width="1.0"/>
           <path id="arrow"
             d="M 11.500037,31.436501 C 11.940474,20.09759 22.043105,11.32322 32.158766,21.979434 L 37.068811,17.246167 C 37.068811,17.246167 37.088388,32 37.088388,32 L 22.160133,31.978069 C 22.160133,31.978069 26.997745,27.140456 26.997745,27.140456 C 18.528582,18.264221 13.291696,25.230495 11.500037,31.436501 z"
             style="fill:#404040;"/>
          </a>
         </g>
        </svg>
</svg>
