<?xml version="1.0" encoding="UTF-8" standalone="no"?>
<!DOCTYPE svg PUBLIC "-//W3C//DTD SVG 1.1//EN"
 "http://www.w3.org/Graphics/SVG/1.1/DTD/svg11.dtd">
<!-- Generated by graphviz version 2.40.1 (20161225.0304)
 -->
<!-- Title: ViennaRNA/centroid.h Pages: 1 -->
<!--zoomable 330 -->
<svg id="main" version="1.1" xmlns="http://www.w3.org/2000/svg" xmlns:xlink="http://www.w3.org/1999/xlink" xml:space="preserve" onload="init(evt)">
<style type="text/css"><![CDATA[
.edge:hover path { stroke: red; }
.edge:hover polygon { stroke: red; fill: red; }
]]></style>
<script type="text/javascript"><![CDATA[
var edges = document.getElementsByTagName('g');
if (edges && edges.length) {
  for (var i=0;i<edges.length;i++) {
    if (edges[i].id.substr(0,4)=='edge') {
      edges[i].setAttribute('class','edge');
    }
  }
}
]]></script>
        <defs>
                <circle id="rim" cx="0" cy="0" r="7"/>
                <circle id="rim2" cx="0" cy="0" r="3.5"/>
                <g id="zoomPlus">
                        <use xlink:href="#rim" fill="#404040">
                                <set attributeName="fill" to="#808080" begin="zoomplus.mouseover" end="zoomplus.mouseout"/>
                        </use>
                        <path d="M-4,0h8M0,-4v8" fill="none" stroke="white" stroke-width="1.5" pointer-events="none"/>
                </g>
                <g id="zoomMin">
                        <use xlink:href="#rim" fill="#404040">
                                <set attributeName="fill" to="#808080" begin="zoomminus.mouseover" end="zoomminus.mouseout"/>
                        </use>
                        <path d="M-4,0h8" fill="none" stroke="white" stroke-width="1.5" pointer-events="none"/>
                </g>
                <g id="dirArrow">
                        <path fill="none" stroke="white" stroke-width="1.5" d="M0,-3.0v7 M-2.5,-0.5L0,-3.0L2.5,-0.5"/>
                </g>
               <g id="resetDef">
                       <use xlink:href="#rim2" fill="#404040">
                               <set attributeName="fill" to="#808080" begin="reset.mouseover" end="reset.mouseout"/>
                       </use>
               </g>
        </defs>

<script type="text/javascript">
var viewWidth = 1392;
var viewHeight = 330;
var sectionId = 'dynsection-0';
</script>
<script xlink:href="svgpan.js"/>
<svg id="graph" class="graph">
<g id="viewport">
<title>ViennaRNA/centroid.h</title>
<!-- Node0 -->
<g id="node1" class="node">
<title>Node0</title>
<polygon fill="#bfbfbf" stroke="#000000" points="1004.3754,-302.5 1004.3754,-321.5 1118.3754,-321.5 1118.3754,-302.5 1004.3754,-302.5"/>
<text text-anchor="middle" x="1061.3754" y="-309.5" font-family="Helvetica,sans-Serif" font-size="10.00" fill="#000000">ViennaRNA/centroid.h</text>
</g>
<!-- Node1 -->
<g id="node2" class="node">
<title>Node1</title>
<g id="a_node2"><a xlink:href="data__structures_8h.html" target="_top" xlink:title="Various data structures and pre&#45;processor macros. ">
<polygon fill="none" stroke="#000000" points="738.8754,-246.5 738.8754,-265.5 885.8754,-265.5 885.8754,-246.5 738.8754,-246.5"/>
<text text-anchor="middle" x="812.3754" y="-253.5" font-family="Helvetica,sans-Serif" font-size="10.00" fill="#000000">ViennaRNA/data_structures.h</text>
</a>
</g>
</g>
<!-- Node0&#45;&gt;Node1 -->
<g id="edge1" class="edge">
<title>Node0&#45;&gt;Node1</title>
<path fill="none" stroke="#191970" d="M1018.8537,-302.4369C976.2393,-292.8529 910.5578,-278.0812 864.7544,-267.78"/>
<polygon fill="#191970" stroke="#191970" points="865.246,-264.3032 854.7217,-265.5237 863.7101,-271.1326 865.246,-264.3032"/>
</g>
<!-- Node18 -->
<g id="node19" class="node">
<title>Node18</title>
<g id="a_node19"><a xlink:href="structure__utils_8h.html" target="_top" xlink:title="Various utility&#45; and helper&#45;functions for secondary structure parsing, converting, etc. ">
<polygon fill="none" stroke="#000000" points="1274.3754,-56.5 1274.3754,-86.5 1384.3754,-86.5 1384.3754,-56.5 1274.3754,-56.5"/>
<text text-anchor="start" x="1282.3754" y="-74.5" font-family="Helvetica,sans-Serif" font-size="10.00" fill="#000000">ViennaRNA/structure</text>
<text text-anchor="middle" x="1329.3754" y="-63.5" font-family="Helvetica,sans-Serif" font-size="10.00" fill="#000000">_utils.h</text>
</a>
</g>
</g>
<!-- Node0&#45;&gt;Node18 -->
<g id="edge41" class="edge">
<title>Node0&#45;&gt;Node18</title>
<path fill="none" stroke="#191970" d="M1082.9008,-302.4682C1127.7486,-281.6304 1232.1059,-227.9064 1293.3754,-154 1307.3338,-137.1628 1316.7897,-114.0781 1322.4943,-96.6091"/>
<polygon fill="#191970" stroke="#191970" points="1325.9888,-97.1504 1325.5681,-86.5639 1319.2952,-95.1021 1325.9888,-97.1504"/>
</g>
<!-- Node2 -->
<g id="node3" class="node">
<title>Node2</title>
<g id="a_node3"><a xlink:href="energy__const_8h.html" target="_top" xlink:title="Energy parameter constants. ">
<polygon fill="none" stroke="#000000" points="36.3754,-62 36.3754,-81 174.3754,-81 174.3754,-62 36.3754,-62"/>
<text text-anchor="middle" x="105.3754" y="-69" font-family="Helvetica,sans-Serif" font-size="10.00" fill="#000000">ViennaRNA/energy_const.h</text>
</a>
</g>
</g>
<!-- Node1&#45;&gt;Node2 -->
<g id="edge2" class="edge">
<title>Node1&#45;&gt;Node2</title>
<path fill="none" stroke="#191970" d="M738.7663,-252.3801C548.5403,-242.2482 52.2114,-210.5786 6.3754,-154 -16.7014,-125.5146 30.3223,-99.6952 67.1625,-84.7991"/>
<polygon fill="#191970" stroke="#191970" points="68.6875,-87.9614 76.7376,-81.0732 66.1491,-81.4379 68.6875,-87.9614"/>
</g>
<!-- Node4 -->
<g id="node5" class="node">
<title>Node4</title>
<g id="a_node5"><a xlink:href="fold__compound_8h.html" target="_top" xlink:title="The Basic Fold Compound API. ">
<polygon fill="none" stroke="#000000" points="510.3754,-190.5 510.3754,-209.5 656.3754,-209.5 656.3754,-190.5 510.3754,-190.5"/>
<text text-anchor="middle" x="583.3754" y="-197.5" font-family="Helvetica,sans-Serif" font-size="10.00" fill="#000000">ViennaRNA/fold_compound.h</text>
</a>
</g>
</g>
<!-- Node1&#45;&gt;Node4 -->
<g id="edge4" class="edge">
<title>Node1&#45;&gt;Node4</title>
<path fill="none" stroke="#191970" d="M773.2691,-246.4369C734.2422,-236.8932 674.1789,-222.2052 632.0792,-211.9101"/>
<polygon fill="#191970" stroke="#191970" points="632.8656,-208.4993 622.3204,-209.5237 631.2028,-215.299 632.8656,-208.4993"/>
</g>
<!-- Node5 -->
<g id="node6" class="node">
<title>Node5</title>
<g id="a_node6"><a xlink:href="model_8h.html" target="_top" xlink:title="The model details data structure and its corresponding modifiers. ">
<polygon fill="none" stroke="#000000" points="460.3754,-62 460.3754,-81 566.3754,-81 566.3754,-62 460.3754,-62"/>
<text text-anchor="middle" x="513.3754" y="-69" font-family="Helvetica,sans-Serif" font-size="10.00" fill="#000000">ViennaRNA/model.h</text>
</a>
</g>
</g>
<!-- Node1&#45;&gt;Node5 -->
<g id="edge33" class="edge">
<title>Node1&#45;&gt;Node5</title>
<path fill="none" stroke="#191970" d="M809.7797,-246.4855C802.5364,-221.8326 779.6679,-155.5431 735.3754,-123 676.6366,-79.8428 646.2922,-103.8403 575.3754,-87 570.6965,-85.8889 565.8246,-84.7097 560.9593,-83.5174"/>
<polygon fill="#191970" stroke="#191970" points="561.5931,-80.0688 551.0456,-81.069 559.9147,-86.8646 561.5931,-80.0688"/>
</g>
<!-- Node6 -->
<g id="node7" class="node">
<title>Node6</title>
<g id="a_node7"><a xlink:href="params_8h.html" target="_top" xlink:title="Functions to deal with sets of energy parameters. ">
<polygon fill="none" stroke="#000000" points="167.3754,-129 167.3754,-148 279.3754,-148 279.3754,-129 167.3754,-129"/>
<text text-anchor="middle" x="223.3754" y="-136" font-family="Helvetica,sans-Serif" font-size="10.00" fill="#000000">ViennaRNA/params.h</text>
</a>
</g>
</g>
<!-- Node1&#45;&gt;Node6 -->
<g id="edge34" class="edge">
<title>Node1&#45;&gt;Node6</title>
<path fill="none" stroke="#191970" d="M738.7195,-251.2053C662.8242,-245.0981 541.7066,-232.5285 439.3754,-210 370.778,-194.898 293.1947,-167.9747 252.0955,-151.8243"/>
<polygon fill="#191970" stroke="#191970" points="253.2834,-148.5298 242.6989,-148.0617 250.6813,-155.0282 253.2834,-148.5298"/>
</g>
<!-- Node8 -->
<g id="node9" class="node">
<title>Node8</title>
<g id="a_node9"><a xlink:href="dp__matrices_8h.html" target="_top" xlink:title="Functions to deal with standard dynamic programming (DP) matrices. ">
<polygon fill="none" stroke="#000000" points="15.8754,-129 15.8754,-148 148.8754,-148 148.8754,-129 15.8754,-129"/>
<text text-anchor="middle" x="82.3754" y="-136" font-family="Helvetica,sans-Serif" font-size="10.00" fill="#000000">ViennaRNA/dp_matrices.h</text>
</a>
</g>
</g>
<!-- Node1&#45;&gt;Node8 -->
<g id="edge35" class="edge">
<title>Node1&#45;&gt;Node8</title>
<path fill="none" stroke="#191970" d="M738.5864,-251.9502C648.5697,-246.0454 492.3195,-233.1673 360.3754,-210 272.238,-194.5244 171.1008,-166.9852 118.3449,-150.978"/>
<polygon fill="#191970" stroke="#191970" points="119.351,-147.6257 108.764,-148.0331 117.2943,-154.3168 119.351,-147.6257"/>
</g>
<!-- Node9 -->
<g id="node10" class="node">
<title>Node9</title>
<g id="a_node10"><a xlink:href="constraints_8h.html" target="_top" xlink:title="Functions and data structures for constraining secondary structure predictions and evaluation...">
<polygon fill="none" stroke="#000000" points="859.3754,-129 859.3754,-148 987.3754,-148 987.3754,-129 859.3754,-129"/>
<text text-anchor="middle" x="923.3754" y="-136" font-family="Helvetica,sans-Serif" font-size="10.00" fill="#000000">ViennaRNA/constraints.h</text>
</a>
</g>
</g>
<!-- Node1&#45;&gt;Node9 -->
<g id="edge36" class="edge">
<title>Node1&#45;&gt;Node9</title>
<path fill="none" stroke="#191970" d="M817.5472,-246.3845C832.9878,-226.4167 876.2801,-180.243 902.6432,-155.2667"/>
<polygon fill="#191970" stroke="#191970" points="905.2667,-157.6078 910.2318,-148.2484 900.5138,-152.4687 905.2667,-157.6078"/>
</g>
<!-- Node15 -->
<g id="node16" class="node">
<title>Node15</title>
<g id="a_node16"><a xlink:href="grammar_8h.html" target="_top" xlink:title="Implementations for the RNA folding grammar. ">
<polygon fill="none" stroke="#000000" points="297.3754,-129 297.3754,-148 415.3754,-148 415.3754,-129 297.3754,-129"/>
<text text-anchor="middle" x="356.3754" y="-136" font-family="Helvetica,sans-Serif" font-size="10.00" fill="#000000">ViennaRNA/grammar.h</text>
</a>
</g>
</g>
<!-- Node1&#45;&gt;Node15 -->
<g id="edge37" class="edge">
<title>Node1&#45;&gt;Node15</title>
<path fill="none" stroke="#191970" d="M738.5933,-252.1352C672.6148,-247.0444 574.1764,-235.5265 492.3754,-210 447.9903,-196.1494 400.3319,-170.2848 374.6605,-153.7543"/>
<polygon fill="#191970" stroke="#191970" points="376.5024,-150.7755 366.2442,-148.1259 372.6111,-156.5943 376.5024,-150.7755"/>
</g>
<!-- Node16 -->
<g id="node17" class="node">
<title>Node16</title>
<g id="a_node17"><a xlink:href="structured__domains_8h.html" target="_top" xlink:title="This module provides interfaces that deal with additional structured domains in the folding grammar...">
<polygon fill="none" stroke="#000000" points="611.8754,-123.5 611.8754,-153.5 726.8754,-153.5 726.8754,-123.5 611.8754,-123.5"/>
<text text-anchor="start" x="619.8754" y="-141.5" font-family="Helvetica,sans-Serif" font-size="10.00" fill="#000000">ViennaRNA/structured</text>
<text text-anchor="middle" x="669.3754" y="-130.5" font-family="Helvetica,sans-Serif" font-size="10.00" fill="#000000">_domains.h</text>
</a>
</g>
</g>
<!-- Node1&#45;&gt;Node16 -->
<g id="edge38" class="edge">
<title>Node1&#45;&gt;Node16</title>
<path fill="none" stroke="#191970" d="M795.3487,-246.3295C780.5282,-237.5998 758.757,-224.0099 741.3754,-210 722.8592,-195.0755 703.8492,-176.0082 690.0154,-161.3178"/>
<polygon fill="#191970" stroke="#191970" points="692.2703,-158.6027 682.8986,-153.6608 687.143,-163.3683 692.2703,-158.6027"/>
</g>
<!-- Node17 -->
<g id="node18" class="node">
<title>Node17</title>
<g id="a_node18"><a xlink:href="unstructured__domains_8h.html" target="_top" xlink:title="Functions to modify unstructured domains, e.g. to incorporate ligands binding to unpaired stretches...">
<polygon fill="none" stroke="#000000" points="1119.8754,-123.5 1119.8754,-153.5 1244.8754,-153.5 1244.8754,-123.5 1119.8754,-123.5"/>
<text text-anchor="start" x="1127.8754" y="-141.5" font-family="Helvetica,sans-Serif" font-size="10.00" fill="#000000">ViennaRNA/unstructured</text>
<text text-anchor="middle" x="1182.3754" y="-130.5" font-family="Helvetica,sans-Serif" font-size="10.00" fill="#000000">_domains.h</text>
</a>
</g>
</g>
<!-- Node1&#45;&gt;Node17 -->
<g id="edge39" class="edge">
<title>Node1&#45;&gt;Node17</title>
<path fill="none" stroke="#191970" d="M886.0222,-248.6771C957.4014,-241.0419 1059.8992,-227.7124 1096.3754,-210 1119.9266,-198.5638 1141.2715,-177.479 1157.0678,-161.1579"/>
<polygon fill="#191970" stroke="#191970" points="1159.9413,-163.22 1164.362,-153.5915 1154.9018,-158.3617 1159.9413,-163.22"/>
</g>
<!-- Node1&#45;&gt;Node18 -->
<g id="edge40" class="edge">
<title>Node1&#45;&gt;Node18</title>
<path fill="none" stroke="#191970" d="M886.1057,-252.0555C952.1162,-247.0253 1050.7862,-235.6451 1133.3754,-210 1186.5253,-193.4962 1201.0141,-187.6059 1245.3754,-154 1267.9879,-136.8699 1289.29,-112.3151 1305.0597,-94.4507"/>
<polygon fill="#191970" stroke="#191970" points="1307.8669,-96.5611 1311.9008,-86.7642 1302.638,-91.9072 1307.8669,-96.5611"/>
</g>
<!-- Node3 -->
<g id="node4" class="node">
<title>Node3</title>
<polygon fill="none" stroke="#bfbfbf" points="81.3754,-.5 81.3754,-19.5 129.3754,-19.5 129.3754,-.5 81.3754,-.5"/>
<text text-anchor="middle" x="105.3754" y="-7.5" font-family="Helvetica,sans-Serif" font-size="10.00" fill="#000000">limits.h</text>
</g>
<!-- Node2&#45;&gt;Node3 -->
<g id="edge3" class="edge">
<title>Node2&#45;&gt;Node3</title>
<path fill="none" stroke="#191970" d="M105.3754,-61.8906C105.3754,-53.3657 105.3754,-40.6392 105.3754,-29.9235"/>
<polygon fill="#191970" stroke="#191970" points="108.8755,-29.7448 105.3754,-19.7449 101.8755,-29.7449 108.8755,-29.7448"/>
</g>
<!-- Node4&#45;&gt;Node5 -->
<g id="edge5" class="edge">
<title>Node4&#45;&gt;Node5</title>
<path fill="none" stroke="#191970" d="M582.6534,-190.3971C581.163,-175.2072 576.7704,-145.0959 564.3754,-123 556.7224,-109.3574 544.476,-96.8205 533.9018,-87.5325"/>
<polygon fill="#191970" stroke="#191970" points="536.153,-84.8525 526.2455,-81.0986 531.6496,-90.2116 536.153,-84.8525"/>
</g>
<!-- Node4&#45;&gt;Node6 -->
<g id="edge6" class="edge">
<title>Node4&#45;&gt;Node6</title>
<path fill="none" stroke="#191970" d="M511.8648,-190.4703C451.9493,-182.0982 364.2809,-168.9438 288.3754,-154 282.6877,-152.8802 276.7438,-151.6071 270.8606,-150.283"/>
<polygon fill="#191970" stroke="#191970" points="271.6036,-146.8626 261.0727,-148.0249 270.0299,-153.6834 271.6036,-146.8626"/>
</g>
<!-- Node7 -->
<g id="node8" class="node">
<title>Node7</title>
<g id="a_node8"><a xlink:href="sequence_8h.html" target="_top" xlink:title="Functions and data structures related to sequence representations. ">
<polygon fill="none" stroke="#000000" points="433.3754,-129 433.3754,-148 555.3754,-148 555.3754,-129 433.3754,-129"/>
<text text-anchor="middle" x="494.3754" y="-136" font-family="Helvetica,sans-Serif" font-size="10.00" fill="#000000">ViennaRNA/sequence.h</text>
</a>
</g>
</g>
<!-- Node4&#45;&gt;Node7 -->
<g id="edge10" class="edge">
<title>Node4&#45;&gt;Node7</title>
<path fill="none" stroke="#191970" d="M569.4692,-190.3906C555.3616,-180.6421 533.303,-165.3994 516.7369,-153.9521"/>
<polygon fill="#191970" stroke="#191970" points="518.4007,-150.8474 508.184,-148.0419 514.4212,-156.6063 518.4007,-150.8474"/>
</g>
<!-- Node4&#45;&gt;Node8 -->
<g id="edge11" class="edge">
<title>Node4&#45;&gt;Node8</title>
<path fill="none" stroke="#191970" d="M510.1559,-194.1672C425.2455,-186.9194 281.2059,-173.13 158.3754,-154 150.9741,-152.8473 143.2011,-151.4637 135.5672,-150.004"/>
<polygon fill="#191970" stroke="#191970" points="136.1424,-146.5502 125.6549,-148.0543 134.7913,-153.4186 136.1424,-146.5502"/>
</g>
<!-- Node4&#45;&gt;Node9 -->
<g id="edge13" class="edge">
<title>Node4&#45;&gt;Node9</title>
<path fill="none" stroke="#191970" d="M636.1274,-190.4581C696.7673,-179.4894 796.2141,-161.5012 860.7354,-149.8305"/>
<polygon fill="#191970" stroke="#191970" points="861.5622,-153.2378 870.7795,-148.0137 860.3161,-146.3496 861.5622,-153.2378"/>
</g>
<!-- Node4&#45;&gt;Node15 -->
<g id="edge25" class="edge">
<title>Node4&#45;&gt;Node15</title>
<path fill="none" stroke="#191970" d="M547.9067,-190.3906C508.4261,-179.6944 444.5311,-162.3836 401.5149,-150.7294"/>
<polygon fill="#191970" stroke="#191970" points="402.1624,-147.2787 391.5951,-148.0419 400.3319,-154.0352 402.1624,-147.2787"/>
</g>
<!-- Node4&#45;&gt;Node16 -->
<g id="edge27" class="edge">
<title>Node4&#45;&gt;Node16</title>
<path fill="none" stroke="#191970" d="M596.8129,-190.3906C608.3442,-182.1444 625.373,-169.9669 640.0365,-159.4807"/>
<polygon fill="#191970" stroke="#191970" points="642.2392,-162.2084 648.3375,-153.5446 638.1674,-156.5145 642.2392,-162.2084"/>
</g>
<!-- Node4&#45;&gt;Node17 -->
<g id="edge28" class="edge">
<title>Node4&#45;&gt;Node17</title>
<path fill="none" stroke="#191970" d="M656.5249,-192.4897C771.7981,-180.6544 994.4128,-157.7983 1109.5096,-145.9812"/>
<polygon fill="#191970" stroke="#191970" points="1110.0409,-149.4452 1119.6311,-144.942 1109.3259,-142.4818 1110.0409,-149.4452"/>
</g>
<!-- Node6&#45;&gt;Node1 -->
<g id="edge8" class="edge">
<title>Node6&#45;&gt;Node1</title>
<path fill="none" stroke="#191970" d="M253.8506,-148.0617C298.3398,-163.4546 383.122,-193.6529 457.3754,-210 549.3169,-230.2412 656.4238,-242.4431 728.8072,-249.1416"/>
<polygon fill="#191970" stroke="#191970" points="728.5089,-252.6288 738.7852,-250.0506 729.144,-245.6577 728.5089,-252.6288"/>
</g>
<!-- Node6&#45;&gt;Node2 -->
<g id="edge7" class="edge">
<title>Node6&#45;&gt;Node2</title>
<path fill="none" stroke="#191970" d="M206.4689,-128.9005C186.7535,-117.7062 153.9532,-99.0823 131.0796,-86.0947"/>
<polygon fill="#191970" stroke="#191970" points="132.6748,-82.9757 122.2506,-81.0817 129.2184,-89.0629 132.6748,-82.9757"/>
</g>
<!-- Node6&#45;&gt;Node5 -->
<g id="edge9" class="edge">
<title>Node6&#45;&gt;Node5</title>
<path fill="none" stroke="#191970" d="M263.2371,-128.9341C271.5416,-126.9582 280.2417,-124.9006 288.3754,-123 347.5083,-109.1824 415.4747,-93.6776 461.0963,-83.3249"/>
<polygon fill="#191970" stroke="#191970" points="462.0723,-86.6925 471.0505,-81.0673 460.524,-79.8659 462.0723,-86.6925"/>
</g>
<!-- Node8&#45;&gt;Node1 -->
<g id="edge12" class="edge">
<title>Node8&#45;&gt;Node1</title>
<path fill="none" stroke="#191970" d="M119.9157,-148.0331C176.0105,-163.3853 284.5576,-193.527 378.3754,-210 499.4336,-231.2559 640.9528,-243.8504 728.6956,-250.3444"/>
<polygon fill="#191970" stroke="#191970" points="728.6318,-253.849 738.8603,-251.0873 729.142,-246.8676 728.6318,-253.849"/>
</g>
<!-- Node9&#45;&gt;Node1 -->
<g id="edge14" class="edge">
<title>Node9&#45;&gt;Node1</title>
<path fill="none" stroke="#191970" d="M918.1008,-148.2484C902.5373,-168.3318 859.221,-214.5163 832.9329,-239.3987"/>
<polygon fill="#191970" stroke="#191970" points="830.3413,-237.0279 825.3708,-246.3845 835.0913,-242.1698 830.3413,-237.0279"/>
</g>
<!-- Node10 -->
<g id="node11" class="node">
<title>Node10</title>
<g id="a_node11"><a xlink:href="constraints__hard_8h.html" target="_top" xlink:title="Functions and data structures for handling of secondary structure hard constraints. ">
<polygon fill="none" stroke="#000000" points="584.8754,-56.5 584.8754,-86.5 703.8754,-86.5 703.8754,-56.5 584.8754,-56.5"/>
<text text-anchor="start" x="592.8754" y="-74.5" font-family="Helvetica,sans-Serif" font-size="10.00" fill="#000000">ViennaRNA/constraints</text>
<text text-anchor="middle" x="644.3754" y="-63.5" font-family="Helvetica,sans-Serif" font-size="10.00" fill="#000000">_hard.h</text>
</a>
</g>
</g>
<!-- Node9&#45;&gt;Node10 -->
<g id="edge15" class="edge">
<title>Node9&#45;&gt;Node10</title>
<path fill="none" stroke="#191970" d="M883.6978,-128.9717C839.5098,-118.3602 767.2602,-101.01 713.6873,-88.1448"/>
<polygon fill="#191970" stroke="#191970" points="714.4533,-84.7293 703.9124,-85.7974 712.8187,-91.5358 714.4533,-84.7293"/>
</g>
<!-- Node11 -->
<g id="node12" class="node">
<title>Node11</title>
<g id="a_node12"><a xlink:href="constraints__soft_8h.html" target="_top" xlink:title="Functions and data structures for secondary structure soft constraints. ">
<polygon fill="none" stroke="#000000" points="721.8754,-56.5 721.8754,-86.5 840.8754,-86.5 840.8754,-56.5 721.8754,-56.5"/>
<text text-anchor="start" x="729.8754" y="-74.5" font-family="Helvetica,sans-Serif" font-size="10.00" fill="#000000">ViennaRNA/constraints</text>
<text text-anchor="middle" x="781.3754" y="-63.5" font-family="Helvetica,sans-Serif" font-size="10.00" fill="#000000">_soft.h</text>
</a>
</g>
</g>
<!-- Node9&#45;&gt;Node11 -->
<g id="edge17" class="edge">
<title>Node9&#45;&gt;Node11</title>
<path fill="none" stroke="#191970" d="M903.0303,-128.9005C882.1304,-119.0393 849.0115,-103.4128 822.6033,-90.9526"/>
<polygon fill="#191970" stroke="#191970" points="823.75,-87.6236 813.2126,-86.5218 820.7629,-93.9543 823.75,-87.6236"/>
</g>
<!-- Node12 -->
<g id="node13" class="node">
<title>Node12</title>
<g id="a_node13"><a xlink:href="constraints__SHAPE_8h.html" target="_top" xlink:title="This module provides function to incorporate SHAPE reactivity data into the folding recursions by mea...">
<polygon fill="none" stroke="#000000" points="858.8754,-56.5 858.8754,-86.5 977.8754,-86.5 977.8754,-56.5 858.8754,-56.5"/>
<text text-anchor="start" x="866.8754" y="-74.5" font-family="Helvetica,sans-Serif" font-size="10.00" fill="#000000">ViennaRNA/constraints</text>
<text text-anchor="middle" x="918.3754" y="-63.5" font-family="Helvetica,sans-Serif" font-size="10.00" fill="#000000">_SHAPE.h</text>
</a>
</g>
</g>
<!-- Node9&#45;&gt;Node12 -->
<g id="edge19" class="edge">
<title>Node9&#45;&gt;Node12</title>
<path fill="none" stroke="#191970" d="M922.659,-128.9005C922.0329,-120.5099 921.0952,-107.9451 920.2567,-96.7085"/>
<polygon fill="#191970" stroke="#191970" points="923.731,-96.2335 919.4964,-86.5218 916.7504,-96.7545 923.731,-96.2335"/>
</g>
<!-- Node13 -->
<g id="node14" class="node">
<title>Node13</title>
<g id="a_node14"><a xlink:href="perturbation__fold_8h.html" target="_top" xlink:title="Find a vector of perturbation energies that minimizes the discripancies between predicted and observe...">
<polygon fill="none" stroke="#000000" points="996.3754,-56.5 996.3754,-86.5 1118.3754,-86.5 1118.3754,-56.5 996.3754,-56.5"/>
<text text-anchor="start" x="1004.3754" y="-74.5" font-family="Helvetica,sans-Serif" font-size="10.00" fill="#000000">ViennaRNA/perturbation</text>
<text text-anchor="middle" x="1057.3754" y="-63.5" font-family="Helvetica,sans-Serif" font-size="10.00" fill="#000000">_fold.h</text>
</a>
</g>
</g>
<!-- Node9&#45;&gt;Node13 -->
<g id="edge21" class="edge">
<title>Node9&#45;&gt;Node13</title>
<path fill="none" stroke="#191970" d="M942.5744,-128.9005C962.2103,-119.0826 993.2759,-103.5498 1018.142,-91.1167"/>
<polygon fill="#191970" stroke="#191970" points="1019.9529,-94.1245 1027.3319,-86.5218 1016.8223,-87.8635 1019.9529,-94.1245"/>
</g>
<!-- Node14 -->
<g id="node15" class="node">
<title>Node14</title>
<g id="a_node15"><a xlink:href="constraints__ligand_8h.html" target="_top" xlink:title="Functions for incorporation of ligands binding to hairpin and interior loop motifs using the soft con...">
<polygon fill="none" stroke="#000000" points="1136.8754,-56.5 1136.8754,-86.5 1255.8754,-86.5 1255.8754,-56.5 1136.8754,-56.5"/>
<text text-anchor="start" x="1144.8754" y="-74.5" font-family="Helvetica,sans-Serif" font-size="10.00" fill="#000000">ViennaRNA/constraints</text>
<text text-anchor="middle" x="1196.3754" y="-63.5" font-family="Helvetica,sans-Serif" font-size="10.00" fill="#000000">_ligand.h</text>
</a>
</g>
</g>
<!-- Node9&#45;&gt;Node14 -->
<g id="edge23" class="edge">
<title>Node9&#45;&gt;Node14</title>
<path fill="none" stroke="#191970" d="M962.1997,-128.9717C1005.002,-118.4671 1074.7121,-101.3588 1126.9648,-88.5348"/>
<polygon fill="#191970" stroke="#191970" points="1127.9607,-91.8944 1136.8383,-86.1117 1126.2922,-85.0961 1127.9607,-91.8944"/>
</g>
<!-- Node10&#45;&gt;Node1 -->
<g id="edge16" class="edge">
<title>Node10&#45;&gt;Node1</title>
<path fill="none" stroke="#191970" d="M704.1476,-84.5756C727.2281,-92.3158 752.1646,-104.3896 769.3754,-123 798.917,-154.9441 808.1708,-207.3827 811.064,-235.9385"/>
<polygon fill="#191970" stroke="#191970" points="807.6068,-236.5946 811.9341,-246.2655 814.5821,-236.0069 807.6068,-236.5946"/>
</g>
<!-- Node11&#45;&gt;Node1 -->
<g id="edge18" class="edge">
<title>Node11&#45;&gt;Node1</title>
<path fill="none" stroke="#191970" d="M791.1771,-86.5865C797.0554,-96.5034 804.0218,-110.0046 807.3754,-123 817.4846,-162.1739 816.1045,-209.977 814.2222,-236.2808"/>
<polygon fill="#191970" stroke="#191970" points="810.7176,-236.1957 813.3892,-246.4482 817.6942,-236.7674 810.7176,-236.1957"/>
</g>
<!-- Node12&#45;&gt;Node1 -->
<g id="edge20" class="edge">
<title>Node12&#45;&gt;Node1</title>
<path fill="none" stroke="#191970" d="M956.0666,-86.6402C971.4716,-94.9259 987.6872,-106.8524 996.3754,-123 1002.9036,-135.133 1003.368,-142.1286 996.3754,-154 967.7675,-202.5683 906.7823,-229.6473 862.8535,-243.4957"/>
<polygon fill="#191970" stroke="#191970" points="861.7596,-240.1699 853.2005,-246.4143 863.7855,-246.8703 861.7596,-240.1699"/>
</g>
<!-- Node13&#45;&gt;Node1 -->
<g id="edge22" class="edge">
<title>Node13&#45;&gt;Node1</title>
<path fill="none" stroke="#191970" d="M1052.0307,-86.5168C1040.8644,-115.5445 1012.1474,-179.2021 965.3754,-210 940.5137,-226.3707 909.608,-237.0998 882.0952,-244.0404"/>
<polygon fill="#191970" stroke="#191970" points="881.0383,-240.6945 872.1298,-246.4295 882.6703,-247.5017 881.0383,-240.6945"/>
</g>
<!-- Node14&#45;&gt;Node1 -->
<g id="edge24" class="edge">
<title>Node14&#45;&gt;Node1</title>
<path fill="none" stroke="#191970" d="M1170.3818,-86.5316C1153.3825,-96.5366 1130.8074,-110.1559 1111.3754,-123 1056.1193,-159.5229 1050.3548,-181.8996 990.3754,-210 955.914,-226.1452 914.9416,-237.2295 880.9985,-244.465"/>
<polygon fill="#191970" stroke="#191970" points="880.2503,-241.0456 871.1652,-246.4963 881.6665,-247.9008 880.2503,-241.0456"/>
</g>
<!-- Node15&#45;&gt;Node1 -->
<g id="edge26" class="edge">
<title>Node15&#45;&gt;Node1</title>
<path fill="none" stroke="#191970" d="M377.3403,-148.1259C406.5769,-163.7509 460.5395,-194.4484 510.3754,-210 582.3103,-232.4477 667.1112,-244.0622 728.5659,-249.9994"/>
<polygon fill="#191970" stroke="#191970" points="728.3235,-253.4919 738.6062,-250.9391 728.9759,-246.5224 728.3235,-253.4919"/>
</g>
<!-- Node17&#45;&gt;Node1 -->
<g id="edge29" class="edge">
<title>Node17&#45;&gt;Node1</title>
<path fill="none" stroke="#191970" d="M1177.3651,-153.5915C1166.198,-170.3201 1141.7804,-196.6925 1114.3754,-210 1077.3055,-228.0007 972.0474,-241.4746 896.1622,-249.0454"/>
<polygon fill="#191970" stroke="#191970" points="895.7381,-245.5701 886.1274,-250.0293 896.4213,-252.5367 895.7381,-245.5701"/>
</g>
<!-- Node17&#45;&gt;Node18 -->
<g id="edge30" class="edge">
<title>Node17&#45;&gt;Node18</title>
<path fill="none" stroke="#191970" d="M1215.3651,-123.4639C1236.5688,-113.7996 1264.3138,-101.154 1287.1245,-90.7572"/>
<polygon fill="#191970" stroke="#191970" points="1288.594,-93.9339 1296.2419,-86.6017 1285.6908,-87.5643 1288.594,-93.9339"/>
</g>
<!-- Node18&#45;&gt;Node1 -->
<g id="edge32" class="edge">
<title>Node18&#45;&gt;Node1</title>
<path fill="none" stroke="#191970" d="M1324.7222,-86.7642C1313.7842,-104.6197 1289.4511,-134.2464 1263.3754,-154 1219.0141,-187.6059 1204.5253,-193.4962 1151.3754,-210 1066.9973,-236.2006 965.8341,-247.5116 896.0397,-252.3736"/>
<polygon fill="#191970" stroke="#191970" points="895.7203,-248.887 885.9755,-253.0451 896.1864,-255.8715 895.7203,-248.887"/>
</g>
<!-- Node19 -->
<g id="node20" class="node">
<title>Node19</title>
<polygon fill="none" stroke="#bfbfbf" points="1306.3754,-.5 1306.3754,-19.5 1352.3754,-19.5 1352.3754,-.5 1306.3754,-.5"/>
<text text-anchor="middle" x="1329.3754" y="-7.5" font-family="Helvetica,sans-Serif" font-size="10.00" fill="#000000">stdio.h</text>
</g>
<!-- Node18&#45;&gt;Node19 -->
<g id="edge31" class="edge">
<title>Node18&#45;&gt;Node19</title>
<path fill="none" stroke="#191970" d="M1329.3754,-56.2977C1329.3754,-48.3834 1329.3754,-38.6043 1329.3754,-30.0759"/>
<polygon fill="#191970" stroke="#191970" points="1332.8755,-29.8469 1329.3754,-19.8469 1325.8755,-29.847 1332.8755,-29.8469"/>
</g>
</g>
</svg>
        <g id="navigator" transform="translate(0 0)" fill="#404254">
                <rect fill="#f2f5e9" fill-opacity="0.5" stroke="#606060" stroke-width=".5" x="0" y="0" width="60" height="60"/>
                <use id="zoomplus" xlink:href="#zoomPlus" x="17" y="9" onmousedown="handleZoom(evt,'in')"/>
                <use id="zoomminus" xlink:href="#zoomMin" x="42" y="9" onmousedown="handleZoom(evt,'out')"/>
                <use id="reset" xlink:href="#resetDef" x="30" y="36" onmousedown="handleReset()"/>
                <g id="arrowUp" xlink:href="#dirArrow" transform="translate(30 24)" onmousedown="handlePan(0,-1)">
                  <use xlink:href="#rim" fill="#404040">
                        <set attributeName="fill" to="#808080" begin="arrowUp.mouseover" end="arrowUp.mouseout"/>
                  </use>
                  <path fill="none" stroke="white" stroke-width="1.5" d="M0,-3.0v7 M-2.5,-0.5L0,-3.0L2.5,-0.5"/>
                </g>
                <g id="arrowRight" xlink:href="#dirArrow" transform="rotate(90) translate(36 -43)" onmousedown="handlePan(1,0)">
                  <use xlink:href="#rim" fill="#404040">
                        <set attributeName="fill" to="#808080" begin="arrowRight.mouseover" end="arrowRight.mouseout"/>
                  </use>
                  <path fill="none" stroke="white" stroke-width="1.5" d="M0,-3.0v7 M-2.5,-0.5L0,-3.0L2.5,-0.5"/>
                </g>
                <g id="arrowDown" xlink:href="#dirArrow" transform="rotate(180) translate(-30 -48)" onmousedown="handlePan(0,1)">
                  <use xlink:href="#rim" fill="#404040">
                        <set attributeName="fill" to="#808080" begin="arrowDown.mouseover" end="arrowDown.mouseout"/>
                  </use>
                  <path fill="none" stroke="white" stroke-width="1.5" d="M0,-3.0v7 M-2.5,-0.5L0,-3.0L2.5,-0.5"/>
                </g>
                <g id="arrowLeft" xlink:href="#dirArrow" transform="rotate(270) translate(-36 17)" onmousedown="handlePan(-1,0)">
                  <use xlink:href="#rim" fill="#404040">
                        <set attributeName="fill" to="#808080" begin="arrowLeft.mouseover" end="arrowLeft.mouseout"/>
                  </use>
                  <path fill="none" stroke="white" stroke-width="1.5" d="M0,-3.0v7 M-2.5,-0.5L0,-3.0L2.5,-0.5"/>
                </g>
        </g>
        <svg viewBox="0 0 15 15" width="100%" height="30px" preserveAspectRatio="xMaxYMin meet">
         <g id="arrow_out" transform="scale(0.3 0.3)">
          <a xlink:href="centroid_8h__incl_org.svg" target="_base">
           <rect id="button" ry="5" rx="5" y="6" x="6" height="38" width="38"
                fill="#f2f5e9" fill-opacity="0.5" stroke="#606060" stroke-width="1.0"/>
           <path id="arrow"
             d="M 11.500037,31.436501 C 11.940474,20.09759 22.043105,11.32322 32.158766,21.979434 L 37.068811,17.246167 C 37.068811,17.246167 37.088388,32 37.088388,32 L 22.160133,31.978069 C 22.160133,31.978069 26.997745,27.140456 26.997745,27.140456 C 18.528582,18.264221 13.291696,25.230495 11.500037,31.436501 z"
             style="fill:#404040;"/>
          </a>
         </g>
        </svg>
</svg>
