<?xml version="1.0" encoding="UTF-8" standalone="no"?>
<!DOCTYPE svg PUBLIC "-//W3C//DTD SVG 1.1//EN"
 "http://www.w3.org/Graphics/SVG/1.1/DTD/svg11.dtd">
<!-- Generated by graphviz version 2.40.1 (20161225.0304)
 -->
<!-- Title: ViennaRNA/cofold.h Pages: 1 -->
<svg width="1542pt" height="386pt"
 viewBox="0.00 0.00 1541.50 386.00" xmlns="http://www.w3.org/2000/svg" xmlns:xlink="http://www.w3.org/1999/xlink">
<g id="graph0" class="graph" transform="scale(1 1) rotate(0) translate(4 382)">
<title>ViennaRNA/cofold.h</title>
<!-- Node0 -->
<g id="node1" class="node">
<title>Node0</title>
<polygon fill="#bfbfbf" stroke="#000000" points="1131.5,-358.5 1131.5,-377.5 1237.5,-377.5 1237.5,-358.5 1131.5,-358.5"/>
<text text-anchor="middle" x="1184.5" y="-365.5" font-family="Helvetica,sans-Serif" font-size="10.00" fill="#000000">ViennaRNA/cofold.h</text>
</g>
<!-- Node1 -->
<g id="node2" class="node">
<title>Node1</title>
<g id="a_node2"><a xlink:href="data__structures_8h.html" target="_top" xlink:title="Various data structures and pre&#45;processor macros. ">
<polygon fill="none" stroke="#000000" points="828,-246.5 828,-265.5 975,-265.5 975,-246.5 828,-246.5"/>
<text text-anchor="middle" x="901.5" y="-253.5" font-family="Helvetica,sans-Serif" font-size="10.00" fill="#000000">ViennaRNA/data_structures.h</text>
</a>
</g>
</g>
<!-- Node0&#45;&gt;Node1 -->
<g id="edge1" class="edge">
<title>Node0&#45;&gt;Node1</title>
<path fill="none" stroke="#191970" d="M1160.3716,-358.4509C1109.8289,-338.4482 992.7466,-292.1117 934.9741,-269.2477"/>
<polygon fill="#191970" stroke="#191970" points="936.1536,-265.9504 925.5673,-265.5249 933.5777,-272.4592 936.1536,-265.9504"/>
</g>
<!-- Node6 -->
<g id="node7" class="node">
<title>Node6</title>
<g id="a_node7"><a xlink:href="params_8h.html" target="_top" xlink:title="Functions to deal with sets of energy parameters. ">
<polygon fill="none" stroke="#000000" points="1137.5,-129 1137.5,-148 1249.5,-148 1249.5,-129 1137.5,-129"/>
<text text-anchor="middle" x="1193.5" y="-136" font-family="Helvetica,sans-Serif" font-size="10.00" fill="#000000">ViennaRNA/params.h</text>
</a>
</g>
</g>
<!-- Node0&#45;&gt;Node6 -->
<g id="edge41" class="edge">
<title>Node0&#45;&gt;Node6</title>
<path fill="none" stroke="#191970" d="M1203.71,-358.4505C1217.0266,-350.663 1233.7125,-338.2917 1241.5,-322 1268.76,-264.971 1228.1532,-190.2963 1206.1286,-156.5011"/>
<polygon fill="#191970" stroke="#191970" points="1208.9655,-154.4475 1200.4812,-148.1018 1203.1564,-158.3533 1208.9655,-154.4475"/>
</g>
<!-- Node20 -->
<g id="node21" class="node">
<title>Node20</title>
<g id="a_node21"><a xlink:href="mfe_8h.html" target="_top" xlink:title="Compute Minimum Free energy (MFE) and backtrace corresponding secondary structures from RNA sequence ...">
<polygon fill="none" stroke="#000000" points="1136.5,-302.5 1136.5,-321.5 1232.5,-321.5 1232.5,-302.5 1136.5,-302.5"/>
<text text-anchor="middle" x="1184.5" y="-309.5" font-family="Helvetica,sans-Serif" font-size="10.00" fill="#000000">ViennaRNA/mfe.h</text>
</a>
</g>
</g>
<!-- Node0&#45;&gt;Node20 -->
<g id="edge42" class="edge">
<title>Node0&#45;&gt;Node20</title>
<path fill="none" stroke="#191970" d="M1184.5,-358.2455C1184.5,-350.9382 1184.5,-340.6944 1184.5,-331.7046"/>
<polygon fill="#191970" stroke="#191970" points="1188.0001,-331.6426 1184.5,-321.6427 1181.0001,-331.6427 1188.0001,-331.6426"/>
</g>
<!-- Node2 -->
<g id="node3" class="node">
<title>Node2</title>
<g id="a_node3"><a xlink:href="energy__const_8h.html" target="_top" xlink:title="Energy parameter constants. ">
<polygon fill="none" stroke="#000000" points="839.5,-62 839.5,-81 977.5,-81 977.5,-62 839.5,-62"/>
<text text-anchor="middle" x="908.5" y="-69" font-family="Helvetica,sans-Serif" font-size="10.00" fill="#000000">ViennaRNA/energy_const.h</text>
</a>
</g>
</g>
<!-- Node1&#45;&gt;Node2 -->
<g id="edge2" class="edge">
<title>Node1&#45;&gt;Node2</title>
<path fill="none" stroke="#191970" d="M843.7708,-246.4478C757.5671,-229.7412 610.8728,-190.4179 665.5,-123 685.9132,-97.8071 766.1932,-84.4412 828.9629,-77.7005"/>
<polygon fill="#191970" stroke="#191970" points="829.6827,-81.1449 839.27,-76.6354 828.9632,-74.1819 829.6827,-81.1449"/>
</g>
<!-- Node4 -->
<g id="node5" class="node">
<title>Node4</title>
<g id="a_node5"><a xlink:href="fold__compound_8h.html" target="_top" xlink:title="The Basic Fold Compound API. ">
<polygon fill="none" stroke="#000000" points="828.5,-190.5 828.5,-209.5 974.5,-209.5 974.5,-190.5 828.5,-190.5"/>
<text text-anchor="middle" x="901.5" y="-197.5" font-family="Helvetica,sans-Serif" font-size="10.00" fill="#000000">ViennaRNA/fold_compound.h</text>
</a>
</g>
</g>
<!-- Node1&#45;&gt;Node4 -->
<g id="edge4" class="edge">
<title>Node1&#45;&gt;Node4</title>
<path fill="none" stroke="#191970" d="M901.5,-246.2455C901.5,-238.9382 901.5,-228.6944 901.5,-219.7046"/>
<polygon fill="#191970" stroke="#191970" points="905.0001,-219.6426 901.5,-209.6427 898.0001,-219.6427 905.0001,-219.6426"/>
</g>
<!-- Node5 -->
<g id="node6" class="node">
<title>Node5</title>
<g id="a_node6"><a xlink:href="model_8h.html" target="_top" xlink:title="The model details data structure and its corresponding modifiers. ">
<polygon fill="none" stroke="#000000" points="1140.5,-62 1140.5,-81 1246.5,-81 1246.5,-62 1140.5,-62"/>
<text text-anchor="middle" x="1193.5" y="-69" font-family="Helvetica,sans-Serif" font-size="10.00" fill="#000000">ViennaRNA/model.h</text>
</a>
</g>
</g>
<!-- Node1&#45;&gt;Node5 -->
<g id="edge33" class="edge">
<title>Node1&#45;&gt;Node5</title>
<path fill="none" stroke="#191970" d="M969.1601,-246.4426C1062.6497,-231.6914 1223.773,-200.1692 1258.5,-154 1276.5408,-130.0149 1244.5136,-102.7684 1219.3426,-86.3691"/>
<polygon fill="#191970" stroke="#191970" points="1221.1541,-83.3739 1210.8186,-81.044 1217.4453,-89.3107 1221.1541,-83.3739"/>
</g>
<!-- Node1&#45;&gt;Node6 -->
<g id="edge34" class="edge">
<title>Node1&#45;&gt;Node6</title>
<path fill="none" stroke="#191970" d="M919.0403,-246.3672C940.4569,-237.1008 976.9346,-222.6701 1008.5,-210 1058.7925,-189.8129 1117.0329,-166.0835 1154.6784,-151.6759"/>
<polygon fill="#191970" stroke="#191970" points="1156.1462,-154.8626 1164.2569,-148.0459 1153.6655,-148.3169 1156.1462,-154.8626"/>
</g>
<!-- Node8 -->
<g id="node9" class="node">
<title>Node8</title>
<g id="a_node9"><a xlink:href="dp__matrices_8h.html" target="_top" xlink:title="Functions to deal with standard dynamic programming (DP) matrices. ">
<polygon fill="none" stroke="#000000" points="986,-129 986,-148 1119,-148 1119,-129 986,-129"/>
<text text-anchor="middle" x="1052.5" y="-136" font-family="Helvetica,sans-Serif" font-size="10.00" fill="#000000">ViennaRNA/dp_matrices.h</text>
</a>
</g>
</g>
<!-- Node1&#45;&gt;Node8 -->
<g id="edge35" class="edge">
<title>Node1&#45;&gt;Node8</title>
<path fill="none" stroke="#191970" d="M915.1836,-246.3965C930.6254,-238.0035 955.2447,-224.8582 974.5,-210 995.6668,-193.6667 1016.4943,-170.904 1031.6323,-155.4831"/>
<polygon fill="#191970" stroke="#191970" points="1034.3747,-157.6923 1039.0016,-148.1611 1029.4409,-152.7266 1034.3747,-157.6923"/>
</g>
<!-- Node9 -->
<g id="node10" class="node">
<title>Node9</title>
<g id="a_node10"><a xlink:href="constraints_8h.html" target="_top" xlink:title="Functions and data structures for constraining secondary structure predictions and evaluation...">
<polygon fill="none" stroke="#000000" points="277.5,-129 277.5,-148 405.5,-148 405.5,-129 277.5,-129"/>
<text text-anchor="middle" x="341.5" y="-136" font-family="Helvetica,sans-Serif" font-size="10.00" fill="#000000">ViennaRNA/constraints.h</text>
</a>
</g>
</g>
<!-- Node1&#45;&gt;Node9 -->
<g id="edge36" class="edge">
<title>Node1&#45;&gt;Node9</title>
<path fill="none" stroke="#191970" d="M827.8608,-254.7968C709.4017,-251.8952 482.7924,-242.1579 410.5,-210 384.0172,-198.2196 360.5493,-173.8001 348.5469,-156.7962"/>
<polygon fill="#191970" stroke="#191970" points="351.4283,-154.8045 343.1122,-148.2399 345.5194,-158.5576 351.4283,-154.8045"/>
</g>
<!-- Node15 -->
<g id="node16" class="node">
<title>Node15</title>
<g id="a_node16"><a xlink:href="grammar_8h.html" target="_top" xlink:title="Implementations for the RNA folding grammar. ">
<polygon fill="none" stroke="#000000" points="461.5,-129 461.5,-148 579.5,-148 579.5,-129 461.5,-129"/>
<text text-anchor="middle" x="520.5" y="-136" font-family="Helvetica,sans-Serif" font-size="10.00" fill="#000000">ViennaRNA/grammar.h</text>
</a>
</g>
</g>
<!-- Node1&#45;&gt;Node15 -->
<g id="edge37" class="edge">
<title>Node1&#45;&gt;Node15</title>
<path fill="none" stroke="#191970" d="M827.7883,-250.8141C747.6063,-243.9979 625.5846,-230.4391 584.5,-210 559.6715,-197.6481 537.9458,-173.7212 526.8403,-156.9609"/>
<polygon fill="#191970" stroke="#191970" points="529.6843,-154.8935 521.5857,-148.0625 523.6568,-158.4529 529.6843,-154.8935"/>
</g>
<!-- Node16 -->
<g id="node17" class="node">
<title>Node16</title>
<g id="a_node17"><a xlink:href="structured__domains_8h.html" target="_top" xlink:title="This module provides interfaces that deal with additional structured domains in the folding grammar...">
<polygon fill="none" stroke="#000000" points="674,-123.5 674,-153.5 789,-153.5 789,-123.5 674,-123.5"/>
<text text-anchor="start" x="682" y="-141.5" font-family="Helvetica,sans-Serif" font-size="10.00" fill="#000000">ViennaRNA/structured</text>
<text text-anchor="middle" x="731.5" y="-130.5" font-family="Helvetica,sans-Serif" font-size="10.00" fill="#000000">_domains.h</text>
</a>
</g>
</g>
<!-- Node1&#45;&gt;Node16 -->
<g id="edge38" class="edge">
<title>Node1&#45;&gt;Node16</title>
<path fill="none" stroke="#191970" d="M882.3912,-246.4686C865.4128,-237.7247 840.1577,-224.035 819.5,-210 797.1116,-194.7891 773.3864,-175.2912 756.2192,-160.4997"/>
<polygon fill="#191970" stroke="#191970" points="758.1947,-157.5792 748.3531,-153.6559 753.6,-162.8602 758.1947,-157.5792"/>
</g>
<!-- Node17 -->
<g id="node18" class="node">
<title>Node17</title>
<g id="a_node18"><a xlink:href="unstructured__domains_8h.html" target="_top" xlink:title="Functions to modify unstructured domains, e.g. to incorporate ligands binding to unpaired stretches...">
<polygon fill="none" stroke="#000000" points="1306,-123.5 1306,-153.5 1431,-153.5 1431,-123.5 1306,-123.5"/>
<text text-anchor="start" x="1314" y="-141.5" font-family="Helvetica,sans-Serif" font-size="10.00" fill="#000000">ViennaRNA/unstructured</text>
<text text-anchor="middle" x="1368.5" y="-130.5" font-family="Helvetica,sans-Serif" font-size="10.00" fill="#000000">_domains.h</text>
</a>
</g>
</g>
<!-- Node1&#45;&gt;Node17 -->
<g id="edge39" class="edge">
<title>Node1&#45;&gt;Node17</title>
<path fill="none" stroke="#191970" d="M975.2118,-252.4075C1070.1415,-247.0136 1229.0436,-234.7036 1282.5,-210 1306.2659,-199.0171 1327.5848,-177.8773 1343.3168,-161.4204"/>
<polygon fill="#191970" stroke="#191970" points="1346.2241,-163.442 1350.5772,-153.7828 1341.1506,-158.6191 1346.2241,-163.442"/>
</g>
<!-- Node18 -->
<g id="node19" class="node">
<title>Node18</title>
<g id="a_node19"><a xlink:href="structure__utils_8h.html" target="_top" xlink:title="Various utility&#45; and helper&#45;functions for secondary structure parsing, converting, etc. ">
<polygon fill="none" stroke="#000000" points="1395.5,-56.5 1395.5,-86.5 1505.5,-86.5 1505.5,-56.5 1395.5,-56.5"/>
<text text-anchor="start" x="1403.5" y="-74.5" font-family="Helvetica,sans-Serif" font-size="10.00" fill="#000000">ViennaRNA/structure</text>
<text text-anchor="middle" x="1450.5" y="-63.5" font-family="Helvetica,sans-Serif" font-size="10.00" fill="#000000">_utils.h</text>
</a>
</g>
</g>
<!-- Node1&#45;&gt;Node18 -->
<g id="edge40" class="edge">
<title>Node1&#45;&gt;Node18</title>
<path fill="none" stroke="#191970" d="M975.1454,-250.8079C1077.3136,-243.3751 1256.3632,-228.5305 1319.5,-210 1372.9008,-194.327 1399.441,-199.4918 1431.5,-154 1443.1316,-137.4947 1445.0341,-114.3791 1445.8393,-96.8137"/>
<polygon fill="#191970" stroke="#191970" points="1449.3412,-96.8445 1446.2761,-86.7028 1442.3477,-96.5424 1449.3412,-96.8445"/>
</g>
<!-- Node3 -->
<g id="node4" class="node">
<title>Node3</title>
<polygon fill="none" stroke="#bfbfbf" points="884.5,-.5 884.5,-19.5 932.5,-19.5 932.5,-.5 884.5,-.5"/>
<text text-anchor="middle" x="908.5" y="-7.5" font-family="Helvetica,sans-Serif" font-size="10.00" fill="#000000">limits.h</text>
</g>
<!-- Node2&#45;&gt;Node3 -->
<g id="edge3" class="edge">
<title>Node2&#45;&gt;Node3</title>
<path fill="none" stroke="#191970" d="M908.5,-61.8906C908.5,-53.3657 908.5,-40.6392 908.5,-29.9235"/>
<polygon fill="#191970" stroke="#191970" points="912.0001,-29.7448 908.5,-19.7449 905.0001,-29.7449 912.0001,-29.7448"/>
</g>
<!-- Node4&#45;&gt;Node5 -->
<g id="edge5" class="edge">
<title>Node4&#45;&gt;Node5</title>
<path fill="none" stroke="#191970" d="M908.2258,-190.256C920.168,-173.7335 946.7335,-140.3307 977.5,-123 1024.809,-96.3509 1085.4447,-83.4365 1130.4222,-77.2102"/>
<polygon fill="#191970" stroke="#191970" points="1130.8857,-80.6795 1140.3459,-75.9093 1129.9758,-73.7389 1130.8857,-80.6795"/>
</g>
<!-- Node4&#45;&gt;Node6 -->
<g id="edge6" class="edge">
<title>Node4&#45;&gt;Node6</title>
<path fill="none" stroke="#191970" d="M951.1988,-190.436C997.2574,-181.4523 1067.6352,-167.4198 1128.5,-154 1133.6087,-152.8736 1138.9344,-151.6631 1144.2422,-150.4331"/>
<polygon fill="#191970" stroke="#191970" points="1145.428,-153.7501 1154.3656,-148.0606 1143.8307,-146.9348 1145.428,-153.7501"/>
</g>
<!-- Node7 -->
<g id="node8" class="node">
<title>Node7</title>
<g id="a_node8"><a xlink:href="sequence_8h.html" target="_top" xlink:title="Functions and data structures related to sequence representations. ">
<polygon fill="none" stroke="#000000" points="807.5,-129 807.5,-148 929.5,-148 929.5,-129 807.5,-129"/>
<text text-anchor="middle" x="868.5" y="-136" font-family="Helvetica,sans-Serif" font-size="10.00" fill="#000000">ViennaRNA/sequence.h</text>
</a>
</g>
</g>
<!-- Node4&#45;&gt;Node7 -->
<g id="edge10" class="edge">
<title>Node4&#45;&gt;Node7</title>
<path fill="none" stroke="#191970" d="M896.3438,-190.3906C891.5768,-181.5068 884.3615,-168.0601 878.4703,-157.0811"/>
<polygon fill="#191970" stroke="#191970" points="881.5412,-155.4016 873.7289,-148.2449 875.3731,-158.7114 881.5412,-155.4016"/>
</g>
<!-- Node4&#45;&gt;Node8 -->
<g id="edge11" class="edge">
<title>Node4&#45;&gt;Node8</title>
<path fill="none" stroke="#191970" d="M925.0938,-190.3906C950.4696,-180.0554 991.0081,-163.5447 1019.5293,-151.9284"/>
<polygon fill="#191970" stroke="#191970" points="1021.1308,-155.0554 1029.0719,-148.0419 1018.4904,-148.5725 1021.1308,-155.0554"/>
</g>
<!-- Node4&#45;&gt;Node9 -->
<g id="edge13" class="edge">
<title>Node4&#45;&gt;Node9</title>
<path fill="none" stroke="#191970" d="M828.3041,-193.3318C739.3526,-185.0366 584.7463,-170.0023 452.5,-154 440.6533,-152.5665 428.1123,-150.9303 415.8896,-149.2707"/>
<polygon fill="#191970" stroke="#191970" points="416.1026,-145.7673 405.7196,-147.8752 415.1509,-152.7023 416.1026,-145.7673"/>
</g>
<!-- Node4&#45;&gt;Node15 -->
<g id="edge25" class="edge">
<title>Node4&#45;&gt;Node15</title>
<path fill="none" stroke="#191970" d="M842.3868,-190.4581C774.0149,-179.4217 661.618,-161.2789 589.3593,-149.6151"/>
<polygon fill="#191970" stroke="#191970" points="589.8684,-146.152 579.4384,-148.0137 588.7529,-153.0626 589.8684,-146.152"/>
</g>
<!-- Node4&#45;&gt;Node16 -->
<g id="edge27" class="edge">
<title>Node4&#45;&gt;Node16</title>
<path fill="none" stroke="#191970" d="M874.9375,-190.3906C850.3323,-181.4893 813.0649,-168.0073 782.6839,-157.0165"/>
<polygon fill="#191970" stroke="#191970" points="783.6809,-153.6553 773.0867,-153.5446 781.2996,-160.2378 783.6809,-153.6553"/>
</g>
<!-- Node4&#45;&gt;Node17 -->
<g id="edge28" class="edge">
<title>Node4&#45;&gt;Node17</title>
<path fill="none" stroke="#191970" d="M974.6921,-190.8264C1046.8788,-181.7181 1160.3397,-167.2394 1258.5,-154 1270.6404,-152.3626 1283.5283,-150.5834 1296.0454,-148.8337"/>
<polygon fill="#191970" stroke="#191970" points="1296.566,-152.2951 1305.9829,-147.4401 1295.5937,-145.3629 1296.566,-152.2951"/>
</g>
<!-- Node6&#45;&gt;Node1 -->
<g id="edge8" class="edge">
<title>Node6&#45;&gt;Node1</title>
<path fill="none" stroke="#191970" d="M1176.1035,-148.0459C1145.5053,-161.8142 1081.2868,-188.009 1026.5,-210 998.6337,-221.1853 966.9389,-233.7428 942.3013,-242.9078"/>
<polygon fill="#191970" stroke="#191970" points="941.0673,-239.6324 932.8884,-246.3672 943.482,-246.2028 941.0673,-239.6324"/>
</g>
<!-- Node6&#45;&gt;Node2 -->
<g id="edge7" class="edge">
<title>Node6&#45;&gt;Node2</title>
<path fill="none" stroke="#191970" d="M1153.631,-128.9652C1145.327,-126.9871 1136.629,-124.9207 1128.5,-123 1070.5931,-109.318 1004.0709,-93.7692 959.4727,-83.3692"/>
<polygon fill="#191970" stroke="#191970" points="959.9978,-79.8979 949.4643,-81.036 958.4085,-86.7151 959.9978,-79.8979"/>
</g>
<!-- Node6&#45;&gt;Node5 -->
<g id="edge9" class="edge">
<title>Node6&#45;&gt;Node5</title>
<path fill="none" stroke="#191970" d="M1193.5,-128.9005C1193.5,-119.149 1193.5,-103.7597 1193.5,-91.3695"/>
<polygon fill="#191970" stroke="#191970" points="1197.0001,-91.0816 1193.5,-81.0817 1190.0001,-91.0817 1197.0001,-91.0816"/>
</g>
<!-- Node8&#45;&gt;Node1 -->
<g id="edge12" class="edge">
<title>Node8&#45;&gt;Node1</title>
<path fill="none" stroke="#191970" d="M1050.5336,-148.1611C1041.745,-162.773 1017.3565,-190.8196 992.5,-210 976.2533,-222.5366 956.188,-233.8538 938.9068,-242.1258"/>
<polygon fill="#191970" stroke="#191970" points="937.2532,-239.034 929.6346,-246.3965 940.1817,-245.392 937.2532,-239.034"/>
</g>
<!-- Node9&#45;&gt;Node1 -->
<g id="edge14" class="edge">
<title>Node9&#45;&gt;Node1</title>
<path fill="none" stroke="#191970" d="M354.0964,-148.2399C369.9609,-164.3224 397.113,-196.0381 428.5,-210 496.4378,-240.2209 700.6617,-250.6408 817.3942,-254.1947"/>
<polygon fill="#191970" stroke="#191970" points="817.6198,-257.7027 827.7183,-254.4981 817.8255,-250.7057 817.6198,-257.7027"/>
</g>
<!-- Node10 -->
<g id="node11" class="node">
<title>Node10</title>
<g id="a_node11"><a xlink:href="constraints__hard_8h.html" target="_top" xlink:title="Functions and data structures for handling of secondary structure hard constraints. ">
<polygon fill="none" stroke="#000000" points="415,-56.5 415,-86.5 534,-86.5 534,-56.5 415,-56.5"/>
<text text-anchor="start" x="423" y="-74.5" font-family="Helvetica,sans-Serif" font-size="10.00" fill="#000000">ViennaRNA/constraints</text>
<text text-anchor="middle" x="474.5" y="-63.5" font-family="Helvetica,sans-Serif" font-size="10.00" fill="#000000">_hard.h</text>
</a>
</g>
</g>
<!-- Node9&#45;&gt;Node10 -->
<g id="edge15" class="edge">
<title>Node9&#45;&gt;Node10</title>
<path fill="none" stroke="#191970" d="M360.5557,-128.9005C380.045,-119.0826 410.8788,-103.5498 435.5594,-91.1167"/>
<polygon fill="#191970" stroke="#191970" points="437.3245,-94.1466 444.6807,-86.5218 434.1752,-87.895 437.3245,-94.1466"/>
</g>
<!-- Node11 -->
<g id="node12" class="node">
<title>Node11</title>
<g id="a_node12"><a xlink:href="constraints__soft_8h.html" target="_top" xlink:title="Functions and data structures for secondary structure soft constraints. ">
<polygon fill="none" stroke="#000000" points="552,-56.5 552,-86.5 671,-86.5 671,-56.5 552,-56.5"/>
<text text-anchor="start" x="560" y="-74.5" font-family="Helvetica,sans-Serif" font-size="10.00" fill="#000000">ViennaRNA/constraints</text>
<text text-anchor="middle" x="611.5" y="-63.5" font-family="Helvetica,sans-Serif" font-size="10.00" fill="#000000">_soft.h</text>
</a>
</g>
</g>
<!-- Node9&#45;&gt;Node11 -->
<g id="edge17" class="edge">
<title>Node9&#45;&gt;Node11</title>
<path fill="none" stroke="#191970" d="M379.8977,-128.9717C422.0244,-118.518 490.506,-101.5244 542.0995,-88.7216"/>
<polygon fill="#191970" stroke="#191970" points="542.9903,-92.1068 551.853,-86.3013 541.3044,-85.3128 542.9903,-92.1068"/>
</g>
<!-- Node12 -->
<g id="node13" class="node">
<title>Node12</title>
<g id="a_node13"><a xlink:href="constraints__SHAPE_8h.html" target="_top" xlink:title="This module provides function to incorporate SHAPE reactivity data into the folding recursions by mea...">
<polygon fill="none" stroke="#000000" points="0,-56.5 0,-86.5 119,-86.5 119,-56.5 0,-56.5"/>
<text text-anchor="start" x="8" y="-74.5" font-family="Helvetica,sans-Serif" font-size="10.00" fill="#000000">ViennaRNA/constraints</text>
<text text-anchor="middle" x="59.5" y="-63.5" font-family="Helvetica,sans-Serif" font-size="10.00" fill="#000000">_SHAPE.h</text>
</a>
</g>
</g>
<!-- Node9&#45;&gt;Node12 -->
<g id="edge19" class="edge">
<title>Node9&#45;&gt;Node12</title>
<path fill="none" stroke="#191970" d="M301.3958,-128.9717C256.5895,-118.3262 183.2377,-100.8987 129.0371,-88.0212"/>
<polygon fill="#191970" stroke="#191970" points="129.689,-84.5787 119.1507,-85.6723 128.0709,-91.3892 129.689,-84.5787"/>
</g>
<!-- Node13 -->
<g id="node14" class="node">
<title>Node13</title>
<g id="a_node14"><a xlink:href="perturbation__fold_8h.html" target="_top" xlink:title="Find a vector of perturbation energies that minimizes the discripancies between predicted and observe...">
<polygon fill="none" stroke="#000000" points="137.5,-56.5 137.5,-86.5 259.5,-86.5 259.5,-56.5 137.5,-56.5"/>
<text text-anchor="start" x="145.5" y="-74.5" font-family="Helvetica,sans-Serif" font-size="10.00" fill="#000000">ViennaRNA/perturbation</text>
<text text-anchor="middle" x="198.5" y="-63.5" font-family="Helvetica,sans-Serif" font-size="10.00" fill="#000000">_fold.h</text>
</a>
</g>
</g>
<!-- Node9&#45;&gt;Node13 -->
<g id="edge21" class="edge">
<title>Node9&#45;&gt;Node13</title>
<path fill="none" stroke="#191970" d="M321.0116,-128.9005C299.8722,-118.9961 266.3196,-103.2756 239.6687,-90.7888"/>
<polygon fill="#191970" stroke="#191970" points="241.1017,-87.5952 230.5614,-86.5218 238.1318,-93.9339 241.1017,-87.5952"/>
</g>
<!-- Node14 -->
<g id="node15" class="node">
<title>Node14</title>
<g id="a_node15"><a xlink:href="constraints__ligand_8h.html" target="_top" xlink:title="Functions for incorporation of ligands binding to hairpin and interior loop motifs using the soft con...">
<polygon fill="none" stroke="#000000" points="278,-56.5 278,-86.5 397,-86.5 397,-56.5 278,-56.5"/>
<text text-anchor="start" x="286" y="-74.5" font-family="Helvetica,sans-Serif" font-size="10.00" fill="#000000">ViennaRNA/constraints</text>
<text text-anchor="middle" x="337.5" y="-63.5" font-family="Helvetica,sans-Serif" font-size="10.00" fill="#000000">_ligand.h</text>
</a>
</g>
</g>
<!-- Node9&#45;&gt;Node14 -->
<g id="edge23" class="edge">
<title>Node9&#45;&gt;Node14</title>
<path fill="none" stroke="#191970" d="M340.9269,-128.9005C340.426,-120.5099 339.6758,-107.9451 339.005,-96.7085"/>
<polygon fill="#191970" stroke="#191970" points="342.4866,-96.2954 338.3968,-86.5218 335.4991,-96.7126 342.4866,-96.2954"/>
</g>
<!-- Node10&#45;&gt;Node1 -->
<g id="edge16" class="edge">
<title>Node10&#45;&gt;Node1</title>
<path fill="none" stroke="#191970" d="M463.8745,-86.5171C453.0264,-103.8737 439.4844,-132.7686 452.5,-154 481.1722,-200.7706 510.1375,-193.6369 562.5,-210 647.0611,-236.425 748.1722,-247.6731 817.8378,-252.4592"/>
<polygon fill="#191970" stroke="#191970" points="817.6744,-255.9559 827.8825,-253.1194 818.1336,-248.9709 817.6744,-255.9559"/>
</g>
<!-- Node11&#45;&gt;Node1 -->
<g id="edge18" class="edge">
<title>Node11&#45;&gt;Node1</title>
<path fill="none" stroke="#191970" d="M613.819,-86.7692C619.0539,-115.66 634.5995,-178.264 674.5,-210 696.5715,-227.5552 762.6069,-239.6828 817.8017,-247.0601"/>
<polygon fill="#191970" stroke="#191970" points="817.6006,-250.5634 827.9685,-248.3826 818.5036,-243.6218 817.6006,-250.5634"/>
</g>
<!-- Node12&#45;&gt;Node1 -->
<g id="edge20" class="edge">
<title>Node12&#45;&gt;Node1</title>
<path fill="none" stroke="#191970" d="M76.1327,-86.6687C110.0663,-116.5604 190.9834,-182.5539 272.5,-210 371.1136,-243.2025 670.0101,-252.4593 817.4384,-255.025"/>
<polygon fill="#191970" stroke="#191970" points="817.7293,-258.5303 827.7866,-255.1985 817.8467,-251.5313 817.7293,-258.5303"/>
</g>
<!-- Node13&#45;&gt;Node1 -->
<g id="edge22" class="edge">
<title>Node13&#45;&gt;Node1</title>
<path fill="none" stroke="#191970" d="M204.7047,-86.6198C217.8468,-116.4237 251.6063,-182.2672 303.5,-210 347.6847,-233.613 663.4001,-247.7202 817.4179,-253.2688"/>
<polygon fill="#191970" stroke="#191970" points="817.6548,-256.7794 827.7732,-253.6378 817.9041,-249.7838 817.6548,-256.7794"/>
</g>
<!-- Node14&#45;&gt;Node1 -->
<g id="edge24" class="edge">
<title>Node14&#45;&gt;Node1</title>
<path fill="none" stroke="#191970" d="M305.8579,-86.5161C291.6842,-95.0591 276.4065,-107.2327 268.5,-123 262.3241,-135.3161 261.1366,-142.3549 268.5,-154 299.5247,-203.0647 330.4924,-194.7348 386.5,-210 465.3681,-231.496 692.6848,-245.6887 817.3047,-252.0895"/>
<polygon fill="#191970" stroke="#191970" points="817.401,-255.5988 827.5658,-252.6109 817.7563,-248.6078 817.401,-255.5988"/>
</g>
<!-- Node15&#45;&gt;Node1 -->
<g id="edge26" class="edge">
<title>Node15&#45;&gt;Node1</title>
<path fill="none" stroke="#191970" d="M532.5699,-148.0625C547.5374,-163.8835 572.7987,-195.2239 602.5,-210 639.6008,-228.4572 742.7034,-241.3037 817.5308,-248.6409"/>
<polygon fill="#191970" stroke="#191970" points="817.6021,-252.1639 827.8918,-249.6397 818.2738,-245.1962 817.6021,-252.1639"/>
</g>
<!-- Node17&#45;&gt;Node1 -->
<g id="edge29" class="edge">
<title>Node17&#45;&gt;Node1</title>
<path fill="none" stroke="#191970" d="M1363.5803,-153.7828C1352.4963,-170.6869 1328.1549,-197.2199 1300.5,-210 1246.6496,-234.8857 1085.7931,-247.1944 985.4686,-252.5256"/>
<polygon fill="#191970" stroke="#191970" points="985.1584,-249.0369 975.3532,-253.0504 985.5211,-256.0275 985.1584,-249.0369"/>
</g>
<!-- Node17&#45;&gt;Node18 -->
<g id="edge30" class="edge">
<title>Node17&#45;&gt;Node18</title>
<path fill="none" stroke="#191970" d="M1387.1071,-123.2967C1398.0107,-114.3876 1411.9622,-102.9882 1423.9997,-93.1527"/>
<polygon fill="#191970" stroke="#191970" points="1426.4373,-95.6808 1431.9666,-86.6432 1422.0082,-90.2601 1426.4373,-95.6808"/>
</g>
<!-- Node18&#45;&gt;Node1 -->
<g id="edge32" class="edge">
<title>Node18&#45;&gt;Node1</title>
<path fill="none" stroke="#191970" d="M1459.0975,-86.7028C1463.4048,-104.4992 1463.5457,-134.069 1449.5,-154 1417.441,-199.4918 1390.9008,-194.327 1337.5,-210 1273.9971,-228.638 1093.2332,-243.5471 985.3736,-250.9364"/>
<polygon fill="#191970" stroke="#191970" points="984.9099,-247.4597 975.1695,-251.6279 985.3833,-254.4437 984.9099,-247.4597"/>
</g>
<!-- Node19 -->
<g id="node20" class="node">
<title>Node19</title>
<polygon fill="none" stroke="#bfbfbf" points="1468.5,-.5 1468.5,-19.5 1514.5,-19.5 1514.5,-.5 1468.5,-.5"/>
<text text-anchor="middle" x="1491.5" y="-7.5" font-family="Helvetica,sans-Serif" font-size="10.00" fill="#000000">stdio.h</text>
</g>
<!-- Node18&#45;&gt;Node19 -->
<g id="edge31" class="edge">
<title>Node18&#45;&gt;Node19</title>
<path fill="none" stroke="#191970" d="M1460.6348,-56.2977C1466.2668,-47.8498 1473.3151,-37.2773 1479.254,-28.369"/>
<polygon fill="#191970" stroke="#191970" points="1482.3005,-30.1089 1484.9354,-19.8469 1476.4762,-26.226 1482.3005,-30.1089"/>
</g>
<!-- Node20&#45;&gt;Node1 -->
<g id="edge44" class="edge">
<title>Node20&#45;&gt;Node1</title>
<path fill="none" stroke="#191970" d="M1136.4929,-302.5004C1087.7052,-292.8463 1012.0777,-277.8811 959.8593,-267.5481"/>
<polygon fill="#191970" stroke="#191970" points="960.2318,-264.054 949.7426,-265.5462 958.8729,-270.9209 960.2318,-264.054"/>
</g>
<!-- Node20&#45;&gt;Node19 -->
<g id="edge43" class="edge">
<title>Node20&#45;&gt;Node19</title>
<path fill="none" stroke="#191970" d="M1232.6605,-306.7488C1328.4004,-294.9671 1533.5,-262.4407 1533.5,-200 1533.5,-200 1533.5,-200 1533.5,-138.5 1533.5,-100.8735 1527.2252,-91.4093 1514.5,-56 1511.151,-46.681 1506.387,-36.8029 1502.0625,-28.5992"/>
<polygon fill="#191970" stroke="#191970" points="1504.9969,-26.6701 1497.1304,-19.5731 1498.8542,-30.0268 1504.9969,-26.6701"/>
</g>
</g>
</svg>
