<?xml version="1.0" encoding="UTF-8" standalone="no"?>
<!DOCTYPE svg PUBLIC "-//W3C//DTD SVG 1.1//EN"
 "http://www.w3.org/Graphics/SVG/1.1/DTD/svg11.dtd">
<!-- Generated by graphviz version 2.40.1 (20161225.0304)
 -->
<!-- Title: ViennaRNA/concentrations.h Pages: 1 -->
<!--zoomable 386 -->
<svg id="main" version="1.1" xmlns="http://www.w3.org/2000/svg" xmlns:xlink="http://www.w3.org/1999/xlink" xml:space="preserve" onload="init(evt)">
<style type="text/css"><![CDATA[
.edge:hover path { stroke: red; }
.edge:hover polygon { stroke: red; fill: red; }
]]></style>
<script type="text/javascript"><![CDATA[
var edges = document.getElementsByTagName('g');
if (edges && edges.length) {
  for (var i=0;i<edges.length;i++) {
    if (edges[i].id.substr(0,4)=='edge') {
      edges[i].setAttribute('class','edge');
    }
  }
}
]]></script>
        <defs>
                <circle id="rim" cx="0" cy="0" r="7"/>
                <circle id="rim2" cx="0" cy="0" r="3.5"/>
                <g id="zoomPlus">
                        <use xlink:href="#rim" fill="#404040">
                                <set attributeName="fill" to="#808080" begin="zoomplus.mouseover" end="zoomplus.mouseout"/>
                        </use>
                        <path d="M-4,0h8M0,-4v8" fill="none" stroke="white" stroke-width="1.5" pointer-events="none"/>
                </g>
                <g id="zoomMin">
                        <use xlink:href="#rim" fill="#404040">
                                <set attributeName="fill" to="#808080" begin="zoomminus.mouseover" end="zoomminus.mouseout"/>
                        </use>
                        <path d="M-4,0h8" fill="none" stroke="white" stroke-width="1.5" pointer-events="none"/>
                </g>
                <g id="dirArrow">
                        <path fill="none" stroke="white" stroke-width="1.5" d="M0,-3.0v7 M-2.5,-0.5L0,-3.0L2.5,-0.5"/>
                </g>
               <g id="resetDef">
                       <use xlink:href="#rim2" fill="#404040">
                               <set attributeName="fill" to="#808080" begin="reset.mouseover" end="reset.mouseout"/>
                       </use>
               </g>
        </defs>

<script type="text/javascript">
var viewWidth = 1227;
var viewHeight = 386;
var sectionId = 'dynsection-0';
</script>
<script xlink:href="svgpan.js"/>
<svg id="graph" class="graph">
<g id="viewport">
<title>ViennaRNA/concentrations.h</title>
<!-- Node0 -->
<g id="node1" class="node">
<title>Node0</title>
<polygon fill="#bfbfbf" stroke="#000000" points="469.5,-358.5 469.5,-377.5 612.5,-377.5 612.5,-358.5 469.5,-358.5"/>
<text text-anchor="middle" x="541" y="-365.5" font-family="Helvetica,sans-Serif" font-size="10.00" fill="#000000">ViennaRNA/concentrations.h</text>
</g>
<!-- Node1 -->
<g id="node2" class="node">
<title>Node1</title>
<g id="a_node2"><a xlink:href="fold__compound_8h.html" target="_top" xlink:title="The Basic Fold Compound API. ">
<polygon fill="none" stroke="#000000" points="529,-302.5 529,-321.5 675,-321.5 675,-302.5 529,-302.5"/>
<text text-anchor="middle" x="602" y="-309.5" font-family="Helvetica,sans-Serif" font-size="10.00" fill="#000000">ViennaRNA/fold_compound.h</text>
</a>
</g>
</g>
<!-- Node0&#45;&gt;Node1 -->
<g id="edge1" class="edge">
<title>Node0&#45;&gt;Node1</title>
<path fill="none" stroke="#191970" d="M551.6254,-358.2455C560.5473,-350.0549 573.488,-338.1749 584.0192,-328.5069"/>
<polygon fill="#191970" stroke="#191970" points="586.4968,-330.9837 591.4964,-321.6427 581.7629,-325.8271 586.4968,-330.9837"/>
</g>
<!-- Node3 -->
<g id="node4" class="node">
<title>Node3</title>
<g id="a_node4"><a xlink:href="params_8h.html" target="_top" xlink:title="Functions to deal with sets of energy parameters. ">
<polygon fill="none" stroke="#000000" points="389,-246.5 389,-265.5 501,-265.5 501,-246.5 389,-246.5"/>
<text text-anchor="middle" x="445" y="-253.5" font-family="Helvetica,sans-Serif" font-size="10.00" fill="#000000">ViennaRNA/params.h</text>
</a>
</g>
</g>
<!-- Node0&#45;&gt;Node3 -->
<g id="edge41" class="edge">
<title>Node0&#45;&gt;Node3</title>
<path fill="none" stroke="#191970" d="M532.8151,-358.4509C516.5909,-339.5227 480.1549,-297.014 459.6811,-273.1279"/>
<polygon fill="#191970" stroke="#191970" points="462.3295,-270.8397 453.1642,-265.5249 457.0147,-275.3953 462.3295,-270.8397"/>
</g>
<!-- Node2 -->
<g id="node3" class="node">
<title>Node2</title>
<g id="a_node3"><a xlink:href="model_8h.html" target="_top" xlink:title="The model details data structure and its corresponding modifiers. ">
<polygon fill="none" stroke="#000000" points="0,-129 0,-148 106,-148 106,-129 0,-129"/>
<text text-anchor="middle" x="53" y="-136" font-family="Helvetica,sans-Serif" font-size="10.00" fill="#000000">ViennaRNA/model.h</text>
</a>
</g>
</g>
<!-- Node1&#45;&gt;Node2 -->
<g id="edge2" class="edge">
<title>Node1&#45;&gt;Node2</title>
<path fill="none" stroke="#191970" d="M544.8983,-302.4471C499.7432,-294.3475 435.3149,-281.5761 380,-266 309.0924,-246.0332 292.671,-236.662 224,-210 174.7206,-190.867 118.2684,-166.8454 84.1436,-152.0889"/>
<polygon fill="#191970" stroke="#191970" points="85.2862,-148.7695 74.7191,-148.0034 82.502,-155.192 85.2862,-148.7695"/>
</g>
<!-- Node1&#45;&gt;Node3 -->
<g id="edge3" class="edge">
<title>Node1&#45;&gt;Node3</title>
<path fill="none" stroke="#191970" d="M575.0107,-302.3733C549.1301,-293.1419 509.8752,-279.1402 481.2711,-268.9375"/>
<polygon fill="#191970" stroke="#191970" points="482.2317,-265.5642 471.6371,-265.5011 479.88,-272.1573 482.2317,-265.5642"/>
</g>
<!-- Node7 -->
<g id="node8" class="node">
<title>Node7</title>
<g id="a_node8"><a xlink:href="dp__matrices_8h.html" target="_top" xlink:title="Functions to deal with standard dynamic programming (DP) matrices. ">
<polygon fill="none" stroke="#000000" points="280.5,-129 280.5,-148 413.5,-148 413.5,-129 280.5,-129"/>
<text text-anchor="middle" x="347" y="-136" font-family="Helvetica,sans-Serif" font-size="10.00" fill="#000000">ViennaRNA/dp_matrices.h</text>
</a>
</g>
</g>
<!-- Node1&#45;&gt;Node7 -->
<g id="edge36" class="edge">
<title>Node1&#45;&gt;Node7</title>
<path fill="none" stroke="#191970" d="M589.0122,-302.4377C571.2979,-289.4521 538.5017,-265.6108 510,-246 460.9439,-212.2465 402.464,-174.1999 370.5902,-153.6441"/>
<polygon fill="#191970" stroke="#191970" points="372.2661,-150.5605 361.9636,-148.089 368.4762,-156.4458 372.2661,-150.5605"/>
</g>
<!-- Node8 -->
<g id="node9" class="node">
<title>Node8</title>
<g id="a_node9"><a xlink:href="constraints_8h.html" target="_top" xlink:title="Functions and data structures for constraining secondary structure predictions and evaluation...">
<polygon fill="none" stroke="#000000" points="508,-129 508,-148 636,-148 636,-129 508,-129"/>
<text text-anchor="middle" x="572" y="-136" font-family="Helvetica,sans-Serif" font-size="10.00" fill="#000000">ViennaRNA/constraints.h</text>
</a>
</g>
</g>
<!-- Node1&#45;&gt;Node8 -->
<g id="edge37" class="edge">
<title>Node1&#45;&gt;Node8</title>
<path fill="none" stroke="#191970" d="M600.3443,-302.4248C595.6021,-274.999 581.896,-195.732 575.4403,-158.3964"/>
<polygon fill="#191970" stroke="#191970" points="578.8403,-157.5169 573.6875,-148.2595 571.9426,-158.7097 578.8403,-157.5169"/>
</g>
<!-- Node14 -->
<g id="node15" class="node">
<title>Node14</title>
<g id="a_node15"><a xlink:href="grammar_8h.html" target="_top" xlink:title="Implementations for the RNA folding grammar. ">
<polygon fill="none" stroke="#000000" points="824,-129 824,-148 942,-148 942,-129 824,-129"/>
<text text-anchor="middle" x="883" y="-136" font-family="Helvetica,sans-Serif" font-size="10.00" fill="#000000">ViennaRNA/grammar.h</text>
</a>
</g>
</g>
<!-- Node1&#45;&gt;Node14 -->
<g id="edge38" class="edge">
<title>Node1&#45;&gt;Node14</title>
<path fill="none" stroke="#191970" d="M616.906,-302.3329C649.1636,-281.4669 727.9485,-230.7963 795,-190 815.7983,-177.3457 839.6479,-163.4241 857.2676,-153.2492"/>
<polygon fill="#191970" stroke="#191970" points="859.4382,-156.0381 866.3564,-148.0138 855.9442,-149.9724 859.4382,-156.0381"/>
</g>
<!-- Node15 -->
<g id="node16" class="node">
<title>Node15</title>
<g id="a_node16"><a xlink:href="structured__domains_8h.html" target="_top" xlink:title="This module provides interfaces that deal with additional structured domains in the folding grammar...">
<polygon fill="none" stroke="#000000" points="960.5,-123.5 960.5,-153.5 1075.5,-153.5 1075.5,-123.5 960.5,-123.5"/>
<text text-anchor="start" x="968.5" y="-141.5" font-family="Helvetica,sans-Serif" font-size="10.00" fill="#000000">ViennaRNA/structured</text>
<text text-anchor="middle" x="1018" y="-130.5" font-family="Helvetica,sans-Serif" font-size="10.00" fill="#000000">_domains.h</text>
</a>
</g>
</g>
<!-- Node1&#45;&gt;Node15 -->
<g id="edge39" class="edge">
<title>Node1&#45;&gt;Node15</title>
<path fill="none" stroke="#191970" d="M624.7785,-302.4146C645.4577,-293.5274 676.6563,-279.6547 703,-266 732.7096,-250.6007 802.1816,-203.0395 833,-190 854.2662,-181.0021 906.6852,-166.6628 950.3164,-155.3972"/>
<polygon fill="#191970" stroke="#191970" points="951.233,-158.7755 960.0478,-152.8975 949.4915,-151.9956 951.233,-158.7755"/>
</g>
<!-- Node16 -->
<g id="node17" class="node">
<title>Node16</title>
<g id="a_node17"><a xlink:href="unstructured__domains_8h.html" target="_top" xlink:title="Functions to modify unstructured domains, e.g. to incorporate ligands binding to unpaired stretches...">
<polygon fill="none" stroke="#000000" points="1093.5,-123.5 1093.5,-153.5 1218.5,-153.5 1218.5,-123.5 1093.5,-123.5"/>
<text text-anchor="start" x="1101.5" y="-141.5" font-family="Helvetica,sans-Serif" font-size="10.00" fill="#000000">ViennaRNA/unstructured</text>
<text text-anchor="middle" x="1156" y="-130.5" font-family="Helvetica,sans-Serif" font-size="10.00" fill="#000000">_domains.h</text>
</a>
</g>
</g>
<!-- Node1&#45;&gt;Node16 -->
<g id="edge40" class="edge">
<title>Node1&#45;&gt;Node16</title>
<path fill="none" stroke="#191970" d="M632.5746,-302.4248C721.5108,-274.572 981.1744,-193.2513 1097.9385,-156.6835"/>
<polygon fill="#191970" stroke="#191970" points="1099.2791,-159.9314 1107.7761,-153.6026 1097.187,-153.2513 1099.2791,-159.9314"/>
</g>
<!-- Node19 -->
<g id="node20" class="node">
<title>Node19</title>
<g id="a_node20"><a xlink:href="sequence_8h.html" target="_top" xlink:title="Functions and data structures related to sequence representations. ">
<polygon fill="none" stroke="#000000" points="875,-246.5 875,-265.5 997,-265.5 997,-246.5 875,-246.5"/>
<text text-anchor="middle" x="936" y="-253.5" font-family="Helvetica,sans-Serif" font-size="10.00" fill="#000000">ViennaRNA/sequence.h</text>
</a>
</g>
</g>
<!-- Node1&#45;&gt;Node19 -->
<g id="edge35" class="edge">
<title>Node1&#45;&gt;Node19</title>
<path fill="none" stroke="#191970" d="M659.0371,-302.4369C717.2794,-292.6717 807.6442,-277.5207 869.1966,-267.2006"/>
<polygon fill="#191970" stroke="#191970" points="869.9145,-270.6291 879.1981,-265.5237 868.757,-263.7255 869.9145,-270.6291"/>
</g>
<!-- Node3&#45;&gt;Node2 -->
<g id="edge34" class="edge">
<title>Node3&#45;&gt;Node2</title>
<path fill="none" stroke="#191970" d="M413.253,-246.484C342.724,-225.3433 173.0333,-174.4794 94.3507,-150.8947"/>
<polygon fill="#191970" stroke="#191970" points="95.3532,-147.5414 84.7693,-148.0227 93.3433,-154.2466 95.3532,-147.5414"/>
</g>
<!-- Node4 -->
<g id="node5" class="node">
<title>Node4</title>
<g id="a_node5"><a xlink:href="energy__const_8h.html" target="_top" xlink:title="Energy parameter constants. ">
<polygon fill="none" stroke="#000000" points="124,-129 124,-148 262,-148 262,-129 124,-129"/>
<text text-anchor="middle" x="193" y="-136" font-family="Helvetica,sans-Serif" font-size="10.00" fill="#000000">ViennaRNA/energy_const.h</text>
</a>
</g>
</g>
<!-- Node3&#45;&gt;Node4 -->
<g id="edge4" class="edge">
<title>Node3&#45;&gt;Node4</title>
<path fill="none" stroke="#191970" d="M424.3778,-246.3845C379.8739,-225.6336 274.672,-176.5812 222.8729,-152.4289"/>
<polygon fill="#191970" stroke="#191970" points="224.096,-149.1374 213.5537,-148.0836 221.1379,-155.4817 224.096,-149.1374"/>
</g>
<!-- Node6 -->
<g id="node7" class="node">
<title>Node6</title>
<g id="a_node7"><a xlink:href="data__structures_8h.html" target="_top" xlink:title="Various data structures and pre&#45;processor macros. ">
<polygon fill="none" stroke="#000000" points="595.5,-190.5 595.5,-209.5 742.5,-209.5 742.5,-190.5 595.5,-190.5"/>
<text text-anchor="middle" x="669" y="-197.5" font-family="Helvetica,sans-Serif" font-size="10.00" fill="#000000">ViennaRNA/data_structures.h</text>
</a>
</g>
</g>
<!-- Node3&#45;&gt;Node6 -->
<g id="edge6" class="edge">
<title>Node3&#45;&gt;Node6</title>
<path fill="none" stroke="#191970" d="M478.2649,-246.3733C514.6112,-236.8194 573.133,-222.1561 615.8332,-211.8825"/>
<polygon fill="#191970" stroke="#191970" points="616.8682,-215.2336 625.7782,-209.5011 615.2381,-208.4261 616.8682,-215.2336"/>
</g>
<!-- Node5 -->
<g id="node6" class="node">
<title>Node5</title>
<polygon fill="none" stroke="#bfbfbf" points="169,-62 169,-81 217,-81 217,-62 169,-62"/>
<text text-anchor="middle" x="193" y="-69" font-family="Helvetica,sans-Serif" font-size="10.00" fill="#000000">limits.h</text>
</g>
<!-- Node4&#45;&gt;Node5 -->
<g id="edge5" class="edge">
<title>Node4&#45;&gt;Node5</title>
<path fill="none" stroke="#191970" d="M193,-128.9005C193,-119.149 193,-103.7597 193,-91.3695"/>
<polygon fill="#191970" stroke="#191970" points="196.5001,-91.0816 193,-81.0817 189.5001,-91.0817 196.5001,-91.0816"/>
</g>
<!-- Node6&#45;&gt;Node1 -->
<g id="edge8" class="edge">
<title>Node6&#45;&gt;Node1</title>
<path fill="none" stroke="#191970" d="M663.3021,-209.5249C652.1885,-228.1028 627.4469,-269.4618 613.0237,-293.5723"/>
<polygon fill="#191970" stroke="#191970" points="609.8425,-292.0724 607.7124,-302.4509 615.8497,-295.6661 609.8425,-292.0724"/>
</g>
<!-- Node6&#45;&gt;Node2 -->
<g id="edge9" class="edge">
<title>Node6&#45;&gt;Node2</title>
<path fill="none" stroke="#191970" d="M595.4954,-197.6873C488.9518,-193.4791 285.6782,-182.2292 115,-154 109.1094,-153.0257 102.9558,-151.7762 96.9099,-150.4101"/>
<polygon fill="#191970" stroke="#191970" points="97.441,-146.9388 86.9024,-148.0291 95.8208,-153.7488 97.441,-146.9388"/>
</g>
<!-- Node6&#45;&gt;Node3 -->
<g id="edge10" class="edge">
<title>Node6&#45;&gt;Node3</title>
<path fill="none" stroke="#191970" d="M636.1271,-209.5237C599.8931,-219.0532 541.2875,-233.7401 498.4587,-244.0473"/>
<polygon fill="#191970" stroke="#191970" points="497.3917,-240.7038 488.482,-246.4369 499.0222,-247.5113 497.3917,-240.7038"/>
</g>
<!-- Node6&#45;&gt;Node4 -->
<g id="edge7" class="edge">
<title>Node6&#45;&gt;Node4</title>
<path fill="none" stroke="#191970" d="M595.4035,-193.2974C515.3392,-185.5859 383.6954,-171.68 271,-154 263.5078,-152.8246 255.6397,-151.44 247.9019,-149.9901"/>
<polygon fill="#191970" stroke="#191970" points="248.3282,-146.508 237.8474,-148.0585 247.0075,-153.3823 248.3282,-146.508"/>
</g>
<!-- Node6&#45;&gt;Node7 -->
<g id="edge11" class="edge">
<title>Node6&#45;&gt;Node7</title>
<path fill="none" stroke="#191970" d="M612.2655,-190.4921C561.4132,-181.1949 485.1047,-166.6336 419,-154 412.197,-152.6998 405.0727,-151.3376 398.0522,-149.9831"/>
<polygon fill="#191970" stroke="#191970" points="398.3736,-146.4803 387.8901,-148.0124 397.0409,-153.3523 398.3736,-146.4803"/>
</g>
<!-- Node6&#45;&gt;Node8 -->
<g id="edge13" class="edge">
<title>Node6&#45;&gt;Node8</title>
<path fill="none" stroke="#191970" d="M648.7813,-190.3906C631.5034,-180.6421 607.168,-165.3994 590.4268,-153.9521"/>
<polygon fill="#191970" stroke="#191970" points="592.1973,-150.9188 582.0005,-148.0419 588.1777,-156.6497 592.1973,-150.9188"/>
</g>
<!-- Node6&#45;&gt;Node14 -->
<g id="edge25" class="edge">
<title>Node6&#45;&gt;Node14</title>
<path fill="none" stroke="#191970" d="M697.375,-190.3906C732.5074,-179.6944 792.5921,-162.3836 834.9297,-150.7294"/>
<polygon fill="#191970" stroke="#191970" points="836.0269,-154.0579 844.748,-148.0419 834.1787,-147.3063 836.0269,-154.0579"/>
</g>
<!-- Node6&#45;&gt;Node15 -->
<g id="edge27" class="edge">
<title>Node6&#45;&gt;Node15</title>
<path fill="none" stroke="#191970" d="M735.0308,-190.4821C789.9708,-182.2765 870.4555,-169.5955 950.0962,-154.103"/>
<polygon fill="#191970" stroke="#191970" points="951.1689,-157.4593 960.3081,-152.0998 949.8214,-150.5902 951.1689,-157.4593"/>
</g>
<!-- Node6&#45;&gt;Node16 -->
<g id="edge28" class="edge">
<title>Node6&#45;&gt;Node16</title>
<path fill="none" stroke="#191970" d="M742.7485,-193.6196C824.5247,-186.3681 960.0175,-173.0188 1076,-154 1078.3636,-153.6124 1080.7672,-153.1971 1083.1953,-152.7602"/>
<polygon fill="#191970" stroke="#191970" points="1084.0991,-156.1516 1093.2774,-150.8592 1082.8021,-149.2728 1084.0991,-156.1516"/>
</g>
<!-- Node17 -->
<g id="node18" class="node">
<title>Node17</title>
<g id="a_node18"><a xlink:href="structure__utils_8h.html" target="_top" xlink:title="Various utility&#45; and helper&#45;functions for secondary structure parsing, converting, etc. ">
<polygon fill="none" stroke="#000000" points="928,-56.5 928,-86.5 1038,-86.5 1038,-56.5 928,-56.5"/>
<text text-anchor="start" x="936" y="-74.5" font-family="Helvetica,sans-Serif" font-size="10.00" fill="#000000">ViennaRNA/structure</text>
<text text-anchor="middle" x="983" y="-63.5" font-family="Helvetica,sans-Serif" font-size="10.00" fill="#000000">_utils.h</text>
</a>
</g>
</g>
<!-- Node6&#45;&gt;Node17 -->
<g id="edge33" class="edge">
<title>Node6&#45;&gt;Node17</title>
<path fill="none" stroke="#191970" d="M680.6432,-190.3574C696.395,-181.0839 724.0717,-166.6483 748,-154 773.8408,-140.3408 779.0124,-134.2246 806,-123 842.0193,-108.0189 883.9732,-95.1543 918.0671,-86.0297"/>
<polygon fill="#191970" stroke="#191970" points="919.1395,-89.3668 927.9205,-83.4385 917.3592,-82.597 919.1395,-89.3668"/>
</g>
<!-- Node7&#45;&gt;Node6 -->
<g id="edge12" class="edge">
<title>Node7&#45;&gt;Node6</title>
<path fill="none" stroke="#191970" d="M405.4897,-148.0124C416.0374,-149.9922 426.8745,-152.0649 437,-154 498.5858,-165.77 569.0281,-179.2131 616.0694,-188.5139"/>
<polygon fill="#191970" stroke="#191970" points="615.5436,-191.9778 626.0337,-190.4921 616.9067,-185.1117 615.5436,-191.9778"/>
</g>
<!-- Node8&#45;&gt;Node6 -->
<g id="edge14" class="edge">
<title>Node8&#45;&gt;Node6</title>
<path fill="none" stroke="#191970" d="M592.0991,-148.0419C609.3442,-157.765 633.6809,-173.0037 650.457,-184.4685"/>
<polygon fill="#191970" stroke="#191970" points="648.7085,-187.5171 658.9063,-190.3906 652.7263,-181.7849 648.7085,-187.5171"/>
</g>
<!-- Node9 -->
<g id="node10" class="node">
<title>Node9</title>
<g id="a_node10"><a xlink:href="constraints__hard_8h.html" target="_top" xlink:title="Functions and data structures for handling of secondary structure hard constraints. ">
<polygon fill="none" stroke="#000000" points="238.5,-56.5 238.5,-86.5 357.5,-86.5 357.5,-56.5 238.5,-56.5"/>
<text text-anchor="start" x="246.5" y="-74.5" font-family="Helvetica,sans-Serif" font-size="10.00" fill="#000000">ViennaRNA/constraints</text>
<text text-anchor="middle" x="298" y="-63.5" font-family="Helvetica,sans-Serif" font-size="10.00" fill="#000000">_hard.h</text>
</a>
</g>
</g>
<!-- Node8&#45;&gt;Node9 -->
<g id="edge15" class="edge">
<title>Node8&#45;&gt;Node9</title>
<path fill="none" stroke="#191970" d="M533.0335,-128.9717C490.0744,-118.4671 420.1089,-101.3588 367.6649,-88.5348"/>
<polygon fill="#191970" stroke="#191970" points="368.3004,-85.0872 357.7552,-86.1117 366.6377,-91.8869 368.3004,-85.0872"/>
</g>
<!-- Node10 -->
<g id="node11" class="node">
<title>Node10</title>
<g id="a_node11"><a xlink:href="constraints__soft_8h.html" target="_top" xlink:title="Functions and data structures for secondary structure soft constraints. ">
<polygon fill="none" stroke="#000000" points="375.5,-56.5 375.5,-86.5 494.5,-86.5 494.5,-56.5 375.5,-56.5"/>
<text text-anchor="start" x="383.5" y="-74.5" font-family="Helvetica,sans-Serif" font-size="10.00" fill="#000000">ViennaRNA/constraints</text>
<text text-anchor="middle" x="435" y="-63.5" font-family="Helvetica,sans-Serif" font-size="10.00" fill="#000000">_soft.h</text>
</a>
</g>
</g>
<!-- Node8&#45;&gt;Node10 -->
<g id="edge17" class="edge">
<title>Node8&#45;&gt;Node10</title>
<path fill="none" stroke="#191970" d="M552.3712,-128.9005C532.2073,-119.0393 500.2546,-103.4128 474.7762,-90.9526"/>
<polygon fill="#191970" stroke="#191970" points="476.2371,-87.7709 465.7161,-86.5218 473.1618,-94.0592 476.2371,-87.7709"/>
</g>
<!-- Node11 -->
<g id="node12" class="node">
<title>Node11</title>
<g id="a_node12"><a xlink:href="constraints__SHAPE_8h.html" target="_top" xlink:title="This module provides function to incorporate SHAPE reactivity data into the folding recursions by mea...">
<polygon fill="none" stroke="#000000" points="512.5,-56.5 512.5,-86.5 631.5,-86.5 631.5,-56.5 512.5,-56.5"/>
<text text-anchor="start" x="520.5" y="-74.5" font-family="Helvetica,sans-Serif" font-size="10.00" fill="#000000">ViennaRNA/constraints</text>
<text text-anchor="middle" x="572" y="-63.5" font-family="Helvetica,sans-Serif" font-size="10.00" fill="#000000">_SHAPE.h</text>
</a>
</g>
</g>
<!-- Node8&#45;&gt;Node11 -->
<g id="edge19" class="edge">
<title>Node8&#45;&gt;Node11</title>
<path fill="none" stroke="#191970" d="M572,-128.9005C572,-120.5099 572,-107.9451 572,-96.7085"/>
<polygon fill="#191970" stroke="#191970" points="575.5001,-96.5217 572,-86.5218 568.5001,-96.5218 575.5001,-96.5217"/>
</g>
<!-- Node12 -->
<g id="node13" class="node">
<title>Node12</title>
<g id="a_node13"><a xlink:href="perturbation__fold_8h.html" target="_top" xlink:title="Find a vector of perturbation energies that minimizes the discripancies between predicted and observe...">
<polygon fill="none" stroke="#000000" points="650,-56.5 650,-86.5 772,-86.5 772,-56.5 650,-56.5"/>
<text text-anchor="start" x="658" y="-74.5" font-family="Helvetica,sans-Serif" font-size="10.00" fill="#000000">ViennaRNA/perturbation</text>
<text text-anchor="middle" x="711" y="-63.5" font-family="Helvetica,sans-Serif" font-size="10.00" fill="#000000">_fold.h</text>
</a>
</g>
</g>
<!-- Node8&#45;&gt;Node12 -->
<g id="edge21" class="edge">
<title>Node8&#45;&gt;Node12</title>
<path fill="none" stroke="#191970" d="M591.9153,-128.9005C612.3736,-119.0393 644.7928,-103.4128 670.6432,-90.9526"/>
<polygon fill="#191970" stroke="#191970" points="672.347,-94.0167 679.8354,-86.5218 669.3076,-87.711 672.347,-94.0167"/>
</g>
<!-- Node13 -->
<g id="node14" class="node">
<title>Node13</title>
<g id="a_node14"><a xlink:href="constraints__ligand_8h.html" target="_top" xlink:title="Functions for incorporation of ligands binding to hairpin and interior loop motifs using the soft con...">
<polygon fill="none" stroke="#000000" points="790.5,-56.5 790.5,-86.5 909.5,-86.5 909.5,-56.5 790.5,-56.5"/>
<text text-anchor="start" x="798.5" y="-74.5" font-family="Helvetica,sans-Serif" font-size="10.00" fill="#000000">ViennaRNA/constraints</text>
<text text-anchor="middle" x="850" y="-63.5" font-family="Helvetica,sans-Serif" font-size="10.00" fill="#000000">_ligand.h</text>
</a>
</g>
</g>
<!-- Node8&#45;&gt;Node13 -->
<g id="edge23" class="edge">
<title>Node8&#45;&gt;Node13</title>
<path fill="none" stroke="#191970" d="M611.5354,-128.9717C655.4945,-118.3772 727.325,-101.0656 780.6797,-88.2067"/>
<polygon fill="#191970" stroke="#191970" points="781.5148,-91.6057 790.4163,-85.8601 779.8746,-84.8006 781.5148,-91.6057"/>
</g>
<!-- Node9&#45;&gt;Node6 -->
<g id="edge16" class="edge">
<title>Node9&#45;&gt;Node6</title>
<path fill="none" stroke="#191970" d="M341.0352,-86.5595C365.4309,-95.7826 396.1504,-108.57 422,-123 442.5715,-134.4837 443.5188,-144.3243 465,-154 502.8323,-171.0406 547.5432,-182.0342 585.451,-188.9837"/>
<polygon fill="#191970" stroke="#191970" points="584.9838,-192.4553 595.4407,-190.7512 586.2035,-185.5624 584.9838,-192.4553"/>
</g>
<!-- Node10&#45;&gt;Node6 -->
<g id="edge18" class="edge">
<title>Node10&#45;&gt;Node6</title>
<path fill="none" stroke="#191970" d="M442.7684,-86.735C453.0804,-105.4145 473.0511,-136.7144 499,-154 524.4941,-170.9826 556.0709,-181.718 585.0647,-188.495"/>
<polygon fill="#191970" stroke="#191970" points="584.6789,-191.994 595.1982,-190.7308 586.1871,-185.1584 584.6789,-191.994"/>
</g>
<!-- Node11&#45;&gt;Node6 -->
<g id="edge20" class="edge">
<title>Node11&#45;&gt;Node6</title>
<path fill="none" stroke="#191970" d="M602.2761,-86.7023C617.0419,-95.4926 633.9544,-107.8276 645,-123 657.3206,-139.9238 663.436,-163.3411 666.3919,-179.8959"/>
<polygon fill="#191970" stroke="#191970" points="662.9823,-180.7497 667.971,-190.0965 669.8999,-179.6788 662.9823,-180.7497"/>
</g>
<!-- Node12&#45;&gt;Node6 -->
<g id="edge22" class="edge">
<title>Node12&#45;&gt;Node6</title>
<path fill="none" stroke="#191970" d="M706.0314,-86.7016C698.3838,-110.0997 683.7346,-154.9192 675.3353,-180.6171"/>
<polygon fill="#191970" stroke="#191970" points="671.9368,-179.7491 672.1568,-190.3416 678.5904,-181.9238 671.9368,-179.7491"/>
</g>
<!-- Node13&#45;&gt;Node6 -->
<g id="edge24" class="edge">
<title>Node13&#45;&gt;Node6</title>
<path fill="none" stroke="#191970" d="M822.6538,-86.5545C805.4385,-96.3516 782.9669,-109.7339 764,-123 736.2406,-142.4158 706.1789,-167.5421 687.4691,-183.7174"/>
<polygon fill="#191970" stroke="#191970" points="684.9623,-181.2593 679.7206,-190.4667 689.56,-186.5377 684.9623,-181.2593"/>
</g>
<!-- Node14&#45;&gt;Node6 -->
<g id="edge26" class="edge">
<title>Node14&#45;&gt;Node6</title>
<path fill="none" stroke="#191970" d="M854.8466,-148.0419C819.8194,-158.7103 759.7501,-176.0189 717.3379,-187.6969"/>
<polygon fill="#191970" stroke="#191970" points="716.2206,-184.3739 707.5,-190.3906 718.0693,-191.1254 716.2206,-184.3739"/>
</g>
<!-- Node16&#45;&gt;Node6 -->
<g id="edge29" class="edge">
<title>Node16&#45;&gt;Node6</title>
<path fill="none" stroke="#191970" d="M1096.6297,-153.5603C1095.7485,-153.7104 1094.8715,-153.8571 1094,-154 976.3996,-173.2841 838.7408,-186.7394 752.6249,-193.9195"/>
<polygon fill="#191970" stroke="#191970" points="752.3212,-190.4326 742.6427,-194.7428 752.8966,-197.4089 752.3212,-190.4326"/>
</g>
<!-- Node16&#45;&gt;Node17 -->
<g id="edge30" class="edge">
<title>Node16&#45;&gt;Node17</title>
<path fill="none" stroke="#191970" d="M1117.1754,-123.4639C1091.8887,-113.6708 1058.6971,-100.8162 1031.6532,-90.3426"/>
<polygon fill="#191970" stroke="#191970" points="1032.583,-86.9494 1021.9939,-86.6017 1030.055,-93.477 1032.583,-86.9494"/>
</g>
<!-- Node17&#45;&gt;Node6 -->
<g id="edge32" class="edge">
<title>Node17&#45;&gt;Node6</title>
<path fill="none" stroke="#191970" d="M932.0371,-86.5424C900.4156,-95.6333 859.3498,-108.2974 824,-123 797.0124,-134.2246 791.8408,-140.3408 766,-154 745.5301,-164.8202 722.317,-176.9484 703.5737,-186.0339"/>
<polygon fill="#191970" stroke="#191970" points="702.0161,-182.899 694.4912,-190.3574 705.0248,-189.2194 702.0161,-182.899"/>
</g>
<!-- Node18 -->
<g id="node19" class="node">
<title>Node18</title>
<polygon fill="none" stroke="#bfbfbf" points="960,-.5 960,-19.5 1006,-19.5 1006,-.5 960,-.5"/>
<text text-anchor="middle" x="983" y="-7.5" font-family="Helvetica,sans-Serif" font-size="10.00" fill="#000000">stdio.h</text>
</g>
<!-- Node17&#45;&gt;Node18 -->
<g id="edge31" class="edge">
<title>Node17&#45;&gt;Node18</title>
<path fill="none" stroke="#191970" d="M983,-56.2977C983,-48.3834 983,-38.6043 983,-30.0759"/>
<polygon fill="#191970" stroke="#191970" points="986.5001,-29.8469 983,-19.8469 979.5001,-29.847 986.5001,-29.8469"/>
</g>
</g>
</svg>
        <g id="navigator" transform="translate(0 0)" fill="#404254">
                <rect fill="#f2f5e9" fill-opacity="0.5" stroke="#606060" stroke-width=".5" x="0" y="0" width="60" height="60"/>
                <use id="zoomplus" xlink:href="#zoomPlus" x="17" y="9" onmousedown="handleZoom(evt,'in')"/>
                <use id="zoomminus" xlink:href="#zoomMin" x="42" y="9" onmousedown="handleZoom(evt,'out')"/>
                <use id="reset" xlink:href="#resetDef" x="30" y="36" onmousedown="handleReset()"/>
                <g id="arrowUp" xlink:href="#dirArrow" transform="translate(30 24)" onmousedown="handlePan(0,-1)">
                  <use xlink:href="#rim" fill="#404040">
                        <set attributeName="fill" to="#808080" begin="arrowUp.mouseover" end="arrowUp.mouseout"/>
                  </use>
                  <path fill="none" stroke="white" stroke-width="1.5" d="M0,-3.0v7 M-2.5,-0.5L0,-3.0L2.5,-0.5"/>
                </g>
                <g id="arrowRight" xlink:href="#dirArrow" transform="rotate(90) translate(36 -43)" onmousedown="handlePan(1,0)">
                  <use xlink:href="#rim" fill="#404040">
                        <set attributeName="fill" to="#808080" begin="arrowRight.mouseover" end="arrowRight.mouseout"/>
                  </use>
                  <path fill="none" stroke="white" stroke-width="1.5" d="M0,-3.0v7 M-2.5,-0.5L0,-3.0L2.5,-0.5"/>
                </g>
                <g id="arrowDown" xlink:href="#dirArrow" transform="rotate(180) translate(-30 -48)" onmousedown="handlePan(0,1)">
                  <use xlink:href="#rim" fill="#404040">
                        <set attributeName="fill" to="#808080" begin="arrowDown.mouseover" end="arrowDown.mouseout"/>
                  </use>
                  <path fill="none" stroke="white" stroke-width="1.5" d="M0,-3.0v7 M-2.5,-0.5L0,-3.0L2.5,-0.5"/>
                </g>
                <g id="arrowLeft" xlink:href="#dirArrow" transform="rotate(270) translate(-36 17)" onmousedown="handlePan(-1,0)">
                  <use xlink:href="#rim" fill="#404040">
                        <set attributeName="fill" to="#808080" begin="arrowLeft.mouseover" end="arrowLeft.mouseout"/>
                  </use>
                  <path fill="none" stroke="white" stroke-width="1.5" d="M0,-3.0v7 M-2.5,-0.5L0,-3.0L2.5,-0.5"/>
                </g>
        </g>
        <svg viewBox="0 0 15 15" width="100%" height="30px" preserveAspectRatio="xMaxYMin meet">
         <g id="arrow_out" transform="scale(0.3 0.3)">
          <a xlink:href="concentrations_8h__incl_org.svg" target="_base">
           <rect id="button" ry="5" rx="5" y="6" x="6" height="38" width="38"
                fill="#f2f5e9" fill-opacity="0.5" stroke="#606060" stroke-width="1.0"/>
           <path id="arrow"
             d="M 11.500037,31.436501 C 11.940474,20.09759 22.043105,11.32322 32.158766,21.979434 L 37.068811,17.246167 C 37.068811,17.246167 37.088388,32 37.088388,32 L 22.160133,31.978069 C 22.160133,31.978069 26.997745,27.140456 26.997745,27.140456 C 18.528582,18.264221 13.291696,25.230495 11.500037,31.436501 z"
             style="fill:#404040;"/>
          </a>
         </g>
        </svg>
</svg>
