<?xml version="1.0" encoding="UTF-8" standalone="no"?>
<!DOCTYPE svg PUBLIC "-//W3C//DTD SVG 1.1//EN"
 "http://www.w3.org/Graphics/SVG/1.1/DTD/svg11.dtd">
<!-- Generated by graphviz version 2.40.1 (20161225.0304)
 -->
<!-- Title: ViennaRNA/constraints_ligand.h Pages: 1 -->
<svg width="1412pt" height="341pt"
 viewBox="0.00 0.00 1411.50 341.00" xmlns="http://www.w3.org/2000/svg" xmlns:xlink="http://www.w3.org/1999/xlink">
<g id="graph0" class="graph" transform="scale(1 1) rotate(0) translate(4 337)">
<title>ViennaRNA/constraints_ligand.h</title>
<!-- Node0 -->
<g id="node1" class="node">
<title>Node0</title>
<polygon fill="#bfbfbf" stroke="#000000" points="287,-302.5 287,-332.5 406,-332.5 406,-302.5 287,-302.5"/>
<text text-anchor="start" x="295" y="-320.5" font-family="Helvetica,sans-Serif" font-size="10.00" fill="#000000">ViennaRNA/constraints</text>
<text text-anchor="middle" x="346.5" y="-309.5" font-family="Helvetica,sans-Serif" font-size="10.00" fill="#000000">_ligand.h</text>
</g>
<!-- Node1 -->
<g id="node2" class="node">
<title>Node1</title>
<g id="a_node2"><a xlink:href="data__structures_8h.html" target="_top" xlink:title="Various data structures and pre&#45;processor macros. ">
<polygon fill="none" stroke="#000000" points="566,-246.5 566,-265.5 713,-265.5 713,-246.5 566,-246.5"/>
<text text-anchor="middle" x="639.5" y="-253.5" font-family="Helvetica,sans-Serif" font-size="10.00" fill="#000000">ViennaRNA/data_structures.h</text>
</a>
</g>
</g>
<!-- Node0&#45;&gt;Node1 -->
<g id="edge1" class="edge">
<title>Node0&#45;&gt;Node1</title>
<path fill="none" stroke="#191970" d="M406.1461,-304.9804C458.2251,-294.0492 533.2224,-278.3074 584.0275,-267.6436"/>
<polygon fill="#191970" stroke="#191970" points="584.7842,-271.0611 593.852,-265.5814 583.3462,-264.2103 584.7842,-271.0611"/>
</g>
<!-- Node2 -->
<g id="node3" class="node">
<title>Node2</title>
<g id="a_node3"><a xlink:href="energy__const_8h.html" target="_top" xlink:title="Energy parameter constants. ">
<polygon fill="none" stroke="#000000" points="1074.5,-62 1074.5,-81 1212.5,-81 1212.5,-62 1074.5,-62"/>
<text text-anchor="middle" x="1143.5" y="-69" font-family="Helvetica,sans-Serif" font-size="10.00" fill="#000000">ViennaRNA/energy_const.h</text>
</a>
</g>
</g>
<!-- Node1&#45;&gt;Node2 -->
<g id="edge2" class="edge">
<title>Node1&#45;&gt;Node2</title>
<path fill="none" stroke="#191970" d="M713.2386,-251.1097C811.9547,-243.9507 981.4845,-229.3399 1040.5,-210 1088.1707,-194.3779 1112.0193,-196.6065 1138.5,-154 1150.2369,-135.1157 1149.5973,-108.8666 1147.2638,-91.087"/>
<polygon fill="#191970" stroke="#191970" points="1150.6883,-90.3372 1145.6433,-81.0207 1143.7772,-91.4499 1150.6883,-90.3372"/>
</g>
<!-- Node4 -->
<g id="node5" class="node">
<title>Node4</title>
<g id="a_node5"><a xlink:href="fold__compound_8h.html" target="_top" xlink:title="The Basic Fold Compound API. ">
<polygon fill="none" stroke="#000000" points="667.5,-190.5 667.5,-209.5 813.5,-209.5 813.5,-190.5 667.5,-190.5"/>
<text text-anchor="middle" x="740.5" y="-197.5" font-family="Helvetica,sans-Serif" font-size="10.00" fill="#000000">ViennaRNA/fold_compound.h</text>
</a>
</g>
</g>
<!-- Node1&#45;&gt;Node4 -->
<g id="edge4" class="edge">
<title>Node1&#45;&gt;Node4</title>
<path fill="none" stroke="#191970" d="M657.0929,-246.2455C672.879,-237.4928 696.2639,-224.527 714.2587,-214.5496"/>
<polygon fill="#191970" stroke="#191970" points="716.0603,-217.5528 723.1087,-209.6427 712.6659,-211.4308 716.0603,-217.5528"/>
</g>
<!-- Node5 -->
<g id="node6" class="node">
<title>Node5</title>
<g id="a_node6"><a xlink:href="model_8h.html" target="_top" xlink:title="The model details data structure and its corresponding modifiers. ">
<polygon fill="none" stroke="#000000" points="936.5,-62 936.5,-81 1042.5,-81 1042.5,-62 936.5,-62"/>
<text text-anchor="middle" x="989.5" y="-69" font-family="Helvetica,sans-Serif" font-size="10.00" fill="#000000">ViennaRNA/model.h</text>
</a>
</g>
</g>
<!-- Node1&#45;&gt;Node5 -->
<g id="edge32" class="edge">
<title>Node1&#45;&gt;Node5</title>
<path fill="none" stroke="#191970" d="M694.8672,-246.4904C779.4419,-230.7693 934.6918,-196.8016 969.5,-154 984.0539,-136.104 988.2875,-109.2526 989.3801,-91.0857"/>
<polygon fill="#191970" stroke="#191970" points="992.8793,-91.1667 989.7187,-81.0543 985.8832,-90.9305 992.8793,-91.1667"/>
</g>
<!-- Node6 -->
<g id="node7" class="node">
<title>Node6</title>
<g id="a_node7"><a xlink:href="params_8h.html" target="_top" xlink:title="Functions to deal with sets of energy parameters. ">
<polygon fill="none" stroke="#000000" points="1017.5,-129 1017.5,-148 1129.5,-148 1129.5,-129 1017.5,-129"/>
<text text-anchor="middle" x="1073.5" y="-136" font-family="Helvetica,sans-Serif" font-size="10.00" fill="#000000">ViennaRNA/params.h</text>
</a>
</g>
</g>
<!-- Node1&#45;&gt;Node6 -->
<g id="edge33" class="edge">
<title>Node1&#45;&gt;Node6</title>
<path fill="none" stroke="#191970" d="M713.1412,-252.0163C802.2515,-246.3894 946.1486,-234.007 994.5,-210 1019.5045,-197.585 1040.7006,-172.5812 1055.2427,-155.6862"/>
<polygon fill="#191970" stroke="#191970" points="1057.8953,-157.9696 1061.8345,-148.1343 1052.6217,-153.3664 1057.8953,-157.9696"/>
</g>
<!-- Node8 -->
<g id="node9" class="node">
<title>Node8</title>
<g id="a_node9"><a xlink:href="dp__matrices_8h.html" target="_top" xlink:title="Functions to deal with standard dynamic programming (DP) matrices. ">
<polygon fill="none" stroke="#000000" points="342,-129 342,-148 475,-148 475,-129 342,-129"/>
<text text-anchor="middle" x="408.5" y="-136" font-family="Helvetica,sans-Serif" font-size="10.00" fill="#000000">ViennaRNA/dp_matrices.h</text>
</a>
</g>
</g>
<!-- Node1&#45;&gt;Node8 -->
<g id="edge34" class="edge">
<title>Node1&#45;&gt;Node8</title>
<path fill="none" stroke="#191970" d="M616.6845,-246.3845C572.7012,-225.8062 477.2874,-177.3951 432.4478,-153.0365"/>
<polygon fill="#191970" stroke="#191970" points="433.8841,-149.8322 423.4346,-148.0836 430.5129,-155.967 433.8841,-149.8322"/>
</g>
<!-- Node9 -->
<g id="node10" class="node">
<title>Node9</title>
<g id="a_node10"><a xlink:href="constraints_8h.html" target="_top" xlink:title="Functions and data structures for constraining secondary structure predictions and evaluation...">
<polygon fill="none" stroke="#000000" points="157.5,-129 157.5,-148 285.5,-148 285.5,-129 157.5,-129"/>
<text text-anchor="middle" x="221.5" y="-136" font-family="Helvetica,sans-Serif" font-size="10.00" fill="#000000">ViennaRNA/constraints.h</text>
</a>
</g>
</g>
<!-- Node1&#45;&gt;Node9 -->
<g id="edge35" class="edge">
<title>Node1&#45;&gt;Node9</title>
<path fill="none" stroke="#191970" d="M565.8434,-251.6601C478.0362,-245.376 337.4929,-232.0208 290.5,-210 264.254,-197.7012 240.731,-173.4022 228.6515,-156.5672"/>
<polygon fill="#191970" stroke="#191970" points="231.5462,-154.5981 223.1734,-148.106 225.6702,-158.4024 231.5462,-154.5981"/>
</g>
<!-- Node14 -->
<g id="node15" class="node">
<title>Node14</title>
<g id="a_node15"><a xlink:href="grammar_8h.html" target="_top" xlink:title="Implementations for the RNA folding grammar. ">
<polygon fill="none" stroke="#000000" points="493.5,-129 493.5,-148 611.5,-148 611.5,-129 493.5,-129"/>
<text text-anchor="middle" x="552.5" y="-136" font-family="Helvetica,sans-Serif" font-size="10.00" fill="#000000">ViennaRNA/grammar.h</text>
</a>
</g>
</g>
<!-- Node1&#45;&gt;Node14 -->
<g id="edge36" class="edge">
<title>Node1&#45;&gt;Node14</title>
<path fill="none" stroke="#191970" d="M628.4686,-246.3845C610.6537,-226.8471 577.2263,-182.2211 561.0639,-156.9106"/>
<polygon fill="#191970" stroke="#191970" points="563.9771,-154.9651 555.7835,-148.2484 558.0001,-158.6088 563.9771,-154.9651"/>
</g>
<!-- Node15 -->
<g id="node16" class="node">
<title>Node15</title>
<g id="a_node16"><a xlink:href="structured__domains_8h.html" target="_top" xlink:title="This module provides interfaces that deal with additional structured domains in the folding grammar...">
<polygon fill="none" stroke="#000000" points="846,-123.5 846,-153.5 961,-153.5 961,-123.5 846,-123.5"/>
<text text-anchor="start" x="854" y="-141.5" font-family="Helvetica,sans-Serif" font-size="10.00" fill="#000000">ViennaRNA/structured</text>
<text text-anchor="middle" x="903.5" y="-130.5" font-family="Helvetica,sans-Serif" font-size="10.00" fill="#000000">_domains.h</text>
</a>
</g>
</g>
<!-- Node1&#45;&gt;Node15 -->
<g id="edge37" class="edge">
<title>Node1&#45;&gt;Node15</title>
<path fill="none" stroke="#191970" d="M709.6775,-246.4402C744.9803,-239.6634 787.5725,-228.3938 822.5,-210 846.0335,-197.6065 868.3476,-177.0063 883.573,-161.093"/>
<polygon fill="#191970" stroke="#191970" points="886.1932,-163.4151 890.4522,-153.714 881.0731,-158.6418 886.1932,-163.4151"/>
</g>
<!-- Node16 -->
<g id="node17" class="node">
<title>Node16</title>
<g id="a_node17"><a xlink:href="unstructured__domains_8h.html" target="_top" xlink:title="Functions to modify unstructured domains, e.g. to incorporate ligands binding to unpaired stretches...">
<polygon fill="none" stroke="#000000" points="1186,-123.5 1186,-153.5 1311,-153.5 1311,-123.5 1186,-123.5"/>
<text text-anchor="start" x="1194" y="-141.5" font-family="Helvetica,sans-Serif" font-size="10.00" fill="#000000">ViennaRNA/unstructured</text>
<text text-anchor="middle" x="1248.5" y="-130.5" font-family="Helvetica,sans-Serif" font-size="10.00" fill="#000000">_domains.h</text>
</a>
</g>
</g>
<!-- Node1&#45;&gt;Node16 -->
<g id="edge38" class="edge">
<title>Node1&#45;&gt;Node16</title>
<path fill="none" stroke="#191970" d="M713.2054,-252.0068C847.6141,-244.6074 1122.1644,-227.883 1162.5,-210 1186.5775,-199.3251 1207.9876,-177.9497 1223.6953,-161.3385"/>
<polygon fill="#191970" stroke="#191970" points="1226.6375,-163.3185 1230.935,-153.6343 1221.5364,-158.5248 1226.6375,-163.3185"/>
</g>
<!-- Node17 -->
<g id="node18" class="node">
<title>Node17</title>
<g id="a_node18"><a xlink:href="structure__utils_8h.html" target="_top" xlink:title="Various utility&#45; and helper&#45;functions for secondary structure parsing, converting, etc. ">
<polygon fill="none" stroke="#000000" points="1293.5,-56.5 1293.5,-86.5 1403.5,-86.5 1403.5,-56.5 1293.5,-56.5"/>
<text text-anchor="start" x="1301.5" y="-74.5" font-family="Helvetica,sans-Serif" font-size="10.00" fill="#000000">ViennaRNA/structure</text>
<text text-anchor="middle" x="1348.5" y="-63.5" font-family="Helvetica,sans-Serif" font-size="10.00" fill="#000000">_utils.h</text>
</a>
</g>
</g>
<!-- Node1&#45;&gt;Node17 -->
<g id="edge39" class="edge">
<title>Node1&#45;&gt;Node17</title>
<path fill="none" stroke="#191970" d="M713.1426,-253.3293C843.5548,-248.1814 1109.5297,-235.1091 1199.5,-210 1253.1048,-195.0398 1274.9216,-195.944 1311.5,-154 1325.6274,-137.8003 1332.6984,-114.1634 1337.7334,-96.3383"/>
<polygon fill="#191970" stroke="#191970" points="1341.1296,-97.191 1340.5006,-86.6149 1334.397,-95.2749 1341.1296,-97.191"/>
</g>
<!-- Node3 -->
<g id="node4" class="node">
<title>Node3</title>
<polygon fill="none" stroke="#bfbfbf" points="1119.5,-.5 1119.5,-19.5 1167.5,-19.5 1167.5,-.5 1119.5,-.5"/>
<text text-anchor="middle" x="1143.5" y="-7.5" font-family="Helvetica,sans-Serif" font-size="10.00" fill="#000000">limits.h</text>
</g>
<!-- Node2&#45;&gt;Node3 -->
<g id="edge3" class="edge">
<title>Node2&#45;&gt;Node3</title>
<path fill="none" stroke="#191970" d="M1143.5,-61.8906C1143.5,-53.3657 1143.5,-40.6392 1143.5,-29.9235"/>
<polygon fill="#191970" stroke="#191970" points="1147.0001,-29.7448 1143.5,-19.7449 1140.0001,-29.7449 1147.0001,-29.7448"/>
</g>
<!-- Node4&#45;&gt;Node5 -->
<g id="edge5" class="edge">
<title>Node4&#45;&gt;Node5</title>
<path fill="none" stroke="#191970" d="M752.9849,-190.1789C764.7576,-180.8989 782.8778,-166.5662 798.5,-154 815.4834,-140.3389 817.4194,-133.5353 836.5,-123 868.463,-105.3517 907.5161,-92.3287 938.1661,-83.7938"/>
<polygon fill="#191970" stroke="#191970" points="939.4791,-87.0643 948.216,-81.0712 937.6487,-80.3079 939.4791,-87.0643"/>
</g>
<!-- Node4&#45;&gt;Node6 -->
<g id="edge6" class="edge">
<title>Node4&#45;&gt;Node6</title>
<path fill="none" stroke="#191970" d="M792.1659,-190.4581C851.5574,-179.4894 948.9568,-161.5012 1012.1496,-149.8305"/>
<polygon fill="#191970" stroke="#191970" points="1012.7889,-153.2717 1021.9869,-148.0137 1011.5175,-146.3881 1012.7889,-153.2717"/>
</g>
<!-- Node7 -->
<g id="node8" class="node">
<title>Node7</title>
<g id="a_node8"><a xlink:href="sequence_8h.html" target="_top" xlink:title="Functions and data structures related to sequence representations. ">
<polygon fill="none" stroke="#000000" points="667.5,-129 667.5,-148 789.5,-148 789.5,-129 667.5,-129"/>
<text text-anchor="middle" x="728.5" y="-136" font-family="Helvetica,sans-Serif" font-size="10.00" fill="#000000">ViennaRNA/sequence.h</text>
</a>
</g>
</g>
<!-- Node4&#45;&gt;Node7 -->
<g id="edge10" class="edge">
<title>Node4&#45;&gt;Node7</title>
<path fill="none" stroke="#191970" d="M738.625,-190.3906C736.9441,-181.776 734.426,-168.8708 732.3216,-158.0858"/>
<polygon fill="#191970" stroke="#191970" points="735.7518,-157.3895 730.4014,-148.2449 728.8814,-158.7301 735.7518,-157.3895"/>
</g>
<!-- Node4&#45;&gt;Node8 -->
<g id="edge11" class="edge">
<title>Node4&#45;&gt;Node8</title>
<path fill="none" stroke="#191970" d="M685.2498,-190.4568C633.3554,-181.4022 553.572,-167.2473 484.5,-154 477.9247,-152.7389 471.0368,-151.383 464.2057,-150.0167"/>
<polygon fill="#191970" stroke="#191970" points="464.7753,-146.5612 454.281,-148.0173 463.3928,-153.4234 464.7753,-146.5612"/>
</g>
<!-- Node4&#45;&gt;Node9 -->
<g id="edge13" class="edge">
<title>Node4&#45;&gt;Node9</title>
<path fill="none" stroke="#191970" d="M667.4657,-192.3548C585.7741,-183.6664 449.544,-168.7674 332.5,-154 320.6608,-152.5062 308.1237,-150.8386 295.9025,-149.1662"/>
<polygon fill="#191970" stroke="#191970" points="296.1178,-145.6628 285.7334,-147.7639 295.1615,-152.5972 296.1178,-145.6628"/>
</g>
<!-- Node4&#45;&gt;Node14 -->
<g id="edge24" class="edge">
<title>Node4&#45;&gt;Node14</title>
<path fill="none" stroke="#191970" d="M711.125,-190.3906C678.8414,-179.8298 626.8465,-162.8208 591.2453,-151.1747"/>
<polygon fill="#191970" stroke="#191970" points="592.2613,-147.8246 581.6687,-148.0419 590.0849,-154.4776 592.2613,-147.8246"/>
</g>
<!-- Node4&#45;&gt;Node15 -->
<g id="edge26" class="edge">
<title>Node4&#45;&gt;Node15</title>
<path fill="none" stroke="#191970" d="M765.9688,-190.3906C789.4586,-181.5279 824.9845,-168.1239 854.045,-157.1594"/>
<polygon fill="#191970" stroke="#191970" points="855.5051,-160.3494 863.6257,-153.5446 853.034,-153.8001 855.5051,-160.3494"/>
</g>
<!-- Node4&#45;&gt;Node16 -->
<g id="edge27" class="edge">
<title>Node4&#45;&gt;Node16</title>
<path fill="none" stroke="#191970" d="M813.5563,-192.1085C893.4349,-183.3513 1025.1801,-168.5303 1138.5,-154 1150.4558,-152.467 1163.1303,-150.7586 1175.46,-149.052"/>
<polygon fill="#191970" stroke="#191970" points="1176.2916,-152.47 1185.7125,-147.6226 1175.3249,-145.537 1176.2916,-152.47"/>
</g>
<!-- Node6&#45;&gt;Node1 -->
<g id="edge8" class="edge">
<title>Node6&#45;&gt;Node1</title>
<path fill="none" stroke="#191970" d="M1072.8187,-148.1343C1065.5355,-164.0611 1041.5961,-195.5535 1012.5,-210 963.7154,-234.2221 817.6655,-246.6103 723.3931,-252.1659"/>
<polygon fill="#191970" stroke="#191970" points="723.084,-248.6778 713.3014,-252.7462 723.4859,-255.6662 723.084,-248.6778"/>
</g>
<!-- Node6&#45;&gt;Node2 -->
<g id="edge7" class="edge">
<title>Node6&#45;&gt;Node2</title>
<path fill="none" stroke="#191970" d="M1083.5293,-128.9005C1094.6531,-118.2535 1112.7987,-100.8856 1126.221,-88.0385"/>
<polygon fill="#191970" stroke="#191970" points="1128.6852,-90.5247 1133.4893,-81.0817 1123.845,-85.4678 1128.6852,-90.5247"/>
</g>
<!-- Node6&#45;&gt;Node5 -->
<g id="edge9" class="edge">
<title>Node6&#45;&gt;Node5</title>
<path fill="none" stroke="#191970" d="M1061.4648,-128.9005C1047.8668,-118.0544 1025.5246,-100.2339 1009.3376,-87.3229"/>
<polygon fill="#191970" stroke="#191970" points="1011.5131,-84.5811 1001.5128,-81.0817 1007.1481,-90.0535 1011.5131,-84.5811"/>
</g>
<!-- Node8&#45;&gt;Node1 -->
<g id="edge12" class="edge">
<title>Node8&#45;&gt;Node1</title>
<path fill="none" stroke="#191970" d="M431.2473,-148.0836C475.1773,-168.633 570.5906,-217.0422 615.4825,-241.4256"/>
<polygon fill="#191970" stroke="#191970" points="614.0584,-244.6366 624.5081,-246.3845 617.4292,-238.5016 614.0584,-244.6366"/>
</g>
<!-- Node9&#45;&gt;Node0 -->
<g id="edge23" class="edge">
<title>Node9&#45;&gt;Node0</title>
<path fill="none" stroke="#191970" d="M227.3769,-148.3703C235.7514,-162.309 251.7425,-188.4638 266.5,-210 286.9323,-239.8176 312.032,-273.0402 328.6068,-294.5507"/>
<polygon fill="#191970" stroke="#191970" points="325.8394,-296.6935 334.7259,-302.4624 331.3765,-292.4109 325.8394,-296.6935"/>
</g>
<!-- Node9&#45;&gt;Node1 -->
<g id="edge14" class="edge">
<title>Node9&#45;&gt;Node1</title>
<path fill="none" stroke="#191970" d="M234.1576,-148.106C250.1121,-163.9911 277.3936,-195.4236 308.5,-210 351.4108,-230.1079 472.3252,-242.9904 555.5411,-249.8613"/>
<polygon fill="#191970" stroke="#191970" points="555.4982,-253.3693 565.7485,-250.6898 556.0645,-246.3922 555.4982,-253.3693"/>
</g>
<!-- Node10 -->
<g id="node11" class="node">
<title>Node10</title>
<g id="a_node11"><a xlink:href="constraints__hard_8h.html" target="_top" xlink:title="Functions and data structures for handling of secondary structure hard constraints. ">
<polygon fill="none" stroke="#000000" points="278,-56.5 278,-86.5 397,-86.5 397,-56.5 278,-56.5"/>
<text text-anchor="start" x="286" y="-74.5" font-family="Helvetica,sans-Serif" font-size="10.00" fill="#000000">ViennaRNA/constraints</text>
<text text-anchor="middle" x="337.5" y="-63.5" font-family="Helvetica,sans-Serif" font-size="10.00" fill="#000000">_hard.h</text>
</a>
</g>
</g>
<!-- Node9&#45;&gt;Node10 -->
<g id="edge15" class="edge">
<title>Node9&#45;&gt;Node10</title>
<path fill="none" stroke="#191970" d="M238.12,-128.9005C254.8936,-119.2123 281.3017,-103.9593 302.6805,-91.6113"/>
<polygon fill="#191970" stroke="#191970" points="304.5833,-94.5541 311.4922,-86.5218 301.0822,-88.4926 304.5833,-94.5541"/>
</g>
<!-- Node11 -->
<g id="node12" class="node">
<title>Node11</title>
<g id="a_node12"><a xlink:href="constraints__soft_8h.html" target="_top" xlink:title="Functions and data structures for secondary structure soft constraints. ">
<polygon fill="none" stroke="#000000" points="509,-56.5 509,-86.5 628,-86.5 628,-56.5 509,-56.5"/>
<text text-anchor="start" x="517" y="-74.5" font-family="Helvetica,sans-Serif" font-size="10.00" fill="#000000">ViennaRNA/constraints</text>
<text text-anchor="middle" x="568.5" y="-63.5" font-family="Helvetica,sans-Serif" font-size="10.00" fill="#000000">_soft.h</text>
</a>
</g>
</g>
<!-- Node9&#45;&gt;Node11 -->
<g id="edge17" class="edge">
<title>Node9&#45;&gt;Node11</title>
<path fill="none" stroke="#191970" d="M270.8481,-128.9717C330.4695,-117.4598 431.1662,-98.0169 498.7195,-84.9735"/>
<polygon fill="#191970" stroke="#191970" points="499.6958,-88.3497 508.8509,-83.0173 498.3687,-81.4766 499.6958,-88.3497"/>
</g>
<!-- Node12 -->
<g id="node13" class="node">
<title>Node12</title>
<g id="a_node13"><a xlink:href="constraints__SHAPE_8h.html" target="_top" xlink:title="This module provides function to incorporate SHAPE reactivity data into the folding recursions by mea...">
<polygon fill="none" stroke="#000000" points="0,-56.5 0,-86.5 119,-86.5 119,-56.5 0,-56.5"/>
<text text-anchor="start" x="8" y="-74.5" font-family="Helvetica,sans-Serif" font-size="10.00" fill="#000000">ViennaRNA/constraints</text>
<text text-anchor="middle" x="59.5" y="-63.5" font-family="Helvetica,sans-Serif" font-size="10.00" fill="#000000">_SHAPE.h</text>
</a>
</g>
</g>
<!-- Node9&#45;&gt;Node12 -->
<g id="edge19" class="edge">
<title>Node9&#45;&gt;Node12</title>
<path fill="none" stroke="#191970" d="M198.2893,-128.9005C174.1321,-118.9096 135.6656,-103.0006 105.3494,-90.4624"/>
<polygon fill="#191970" stroke="#191970" points="106.3998,-87.1094 95.8213,-86.5218 103.7245,-93.578 106.3998,-87.1094"/>
</g>
<!-- Node13 -->
<g id="node14" class="node">
<title>Node13</title>
<g id="a_node14"><a xlink:href="perturbation__fold_8h.html" target="_top" xlink:title="Find a vector of perturbation energies that minimizes the discripancies between predicted and observe...">
<polygon fill="none" stroke="#000000" points="137.5,-56.5 137.5,-86.5 259.5,-86.5 259.5,-56.5 137.5,-56.5"/>
<text text-anchor="start" x="145.5" y="-74.5" font-family="Helvetica,sans-Serif" font-size="10.00" fill="#000000">ViennaRNA/perturbation</text>
<text text-anchor="middle" x="198.5" y="-63.5" font-family="Helvetica,sans-Serif" font-size="10.00" fill="#000000">_fold.h</text>
</a>
</g>
</g>
<!-- Node9&#45;&gt;Node13 -->
<g id="edge21" class="edge">
<title>Node9&#45;&gt;Node13</title>
<path fill="none" stroke="#191970" d="M218.2047,-128.9005C215.2649,-120.3368 210.8325,-107.4252 206.9157,-96.0152"/>
<polygon fill="#191970" stroke="#191970" points="210.214,-94.8436 203.6567,-86.5218 203.5933,-97.1164 210.214,-94.8436"/>
</g>
<!-- Node10&#45;&gt;Node1 -->
<g id="edge16" class="edge">
<title>Node10&#45;&gt;Node1</title>
<path fill="none" stroke="#191970" d="M331.2439,-86.7947C325.035,-104.6794 318.3111,-134.3342 332.5,-154 361.6108,-194.3475 497.4727,-227.703 578.3818,-244.4191"/>
<polygon fill="#191970" stroke="#191970" points="577.9513,-247.9033 588.449,-246.4719 579.35,-241.0444 577.9513,-247.9033"/>
</g>
<!-- Node11&#45;&gt;Node1 -->
<g id="edge18" class="edge">
<title>Node11&#45;&gt;Node1</title>
<path fill="none" stroke="#191970" d="M589.2809,-86.5705C600.3943,-95.7972 613.2487,-108.5845 620.5,-123 639.026,-159.8294 641.0274,-209.2028 640.4911,-236.2423"/>
<polygon fill="#191970" stroke="#191970" points="636.989,-236.2483 640.1467,-246.3616 643.9849,-236.4865 636.989,-236.2483"/>
</g>
<!-- Node12&#45;&gt;Node1 -->
<g id="edge20" class="edge">
<title>Node12&#45;&gt;Node1</title>
<path fill="none" stroke="#191970" d="M67.9766,-86.941C85.2579,-116.7122 127.6933,-181.6129 183.5,-210 215.7919,-226.4259 432.9421,-242.7626 555.573,-250.823"/>
<polygon fill="#191970" stroke="#191970" points="555.4783,-254.3242 565.685,-251.483 555.9342,-247.3391 555.4783,-254.3242"/>
</g>
<!-- Node13&#45;&gt;Node1 -->
<g id="edge22" class="edge">
<title>Node13&#45;&gt;Node1</title>
<path fill="none" stroke="#191970" d="M178.4394,-86.5085C158.7712,-103.1227 133.7311,-130.6433 148.5,-154 179.5247,-203.0647 210.7569,-193.7954 266.5,-210 319.0393,-225.2732 462.8277,-240.2775 555.756,-248.81"/>
<polygon fill="#191970" stroke="#191970" points="555.7086,-252.3201 565.9849,-249.742 556.3438,-245.349 555.7086,-252.3201"/>
</g>
<!-- Node14&#45;&gt;Node1 -->
<g id="edge25" class="edge">
<title>Node14&#45;&gt;Node1</title>
<path fill="none" stroke="#191970" d="M563.6524,-148.2484C581.5377,-167.899 614.9613,-212.5378 631.0454,-237.7608"/>
<polygon fill="#191970" stroke="#191970" points="628.1044,-239.6607 636.2922,-246.3845 634.0845,-236.0222 628.1044,-239.6607"/>
</g>
<!-- Node16&#45;&gt;Node1 -->
<g id="edge28" class="edge">
<title>Node16&#45;&gt;Node1</title>
<path fill="none" stroke="#191970" d="M1243.8478,-153.6343C1232.9231,-170.6676 1208.5174,-197.5783 1180.5,-210 1140.1415,-227.8932 865.3021,-244.6264 723.5612,-252.0194"/>
<polygon fill="#191970" stroke="#191970" points="722.9816,-248.5446 713.1759,-252.5567 723.3434,-255.5352 722.9816,-248.5446"/>
</g>
<!-- Node16&#45;&gt;Node17 -->
<g id="edge29" class="edge">
<title>Node16&#45;&gt;Node17</title>
<path fill="none" stroke="#191970" d="M1271.1915,-123.2967C1284.8722,-114.1306 1302.4874,-102.3285 1317.447,-92.3055"/>
<polygon fill="#191970" stroke="#191970" points="1319.5387,-95.1171 1325.8983,-86.6432 1315.6424,-89.3017 1319.5387,-95.1171"/>
</g>
<!-- Node17&#45;&gt;Node1 -->
<g id="edge31" class="edge">
<title>Node17&#45;&gt;Node1</title>
<path fill="none" stroke="#191970" d="M1353.2295,-86.6149C1353.2022,-104.5989 1346.4001,-134.6209 1329.5,-154 1292.9216,-195.944 1271.1048,-195.0398 1217.5,-210 1127.3398,-235.1621 860.4314,-248.2365 723.0871,-253.3618"/>
<polygon fill="#191970" stroke="#191970" points="722.8889,-249.8666 713.0242,-253.7317 723.1461,-256.8619 722.8889,-249.8666"/>
</g>
<!-- Node18 -->
<g id="node19" class="node">
<title>Node18</title>
<polygon fill="none" stroke="#bfbfbf" points="1325.5,-.5 1325.5,-19.5 1371.5,-19.5 1371.5,-.5 1325.5,-.5"/>
<text text-anchor="middle" x="1348.5" y="-7.5" font-family="Helvetica,sans-Serif" font-size="10.00" fill="#000000">stdio.h</text>
</g>
<!-- Node17&#45;&gt;Node18 -->
<g id="edge30" class="edge">
<title>Node17&#45;&gt;Node18</title>
<path fill="none" stroke="#191970" d="M1348.5,-56.2977C1348.5,-48.3834 1348.5,-38.6043 1348.5,-30.0759"/>
<polygon fill="#191970" stroke="#191970" points="1352.0001,-29.8469 1348.5,-19.8469 1345.0001,-29.847 1352.0001,-29.8469"/>
</g>
</g>
</svg>
