<?xml version="1.0" encoding="UTF-8" standalone="no"?>
<!DOCTYPE svg PUBLIC "-//W3C//DTD SVG 1.1//EN"
 "http://www.w3.org/Graphics/SVG/1.1/DTD/svg11.dtd">
<!-- Generated by graphviz version 2.40.1 (20161225.0304)
 -->
<!-- Title: ViennaRNA/constraints_soft.h Pages: 1 -->
<svg width="1412pt" height="341pt"
 viewBox="0.00 0.00 1412.00 341.00" xmlns="http://www.w3.org/2000/svg" xmlns:xlink="http://www.w3.org/1999/xlink">
<g id="graph0" class="graph" transform="scale(1 1) rotate(0) translate(4 337)">
<title>ViennaRNA/constraints_soft.h</title>
<!-- Node0 -->
<g id="node1" class="node">
<title>Node0</title>
<polygon fill="#bfbfbf" stroke="#000000" points="287.5,-302.5 287.5,-332.5 406.5,-332.5 406.5,-302.5 287.5,-302.5"/>
<text text-anchor="start" x="295.5" y="-320.5" font-family="Helvetica,sans-Serif" font-size="10.00" fill="#000000">ViennaRNA/constraints</text>
<text text-anchor="middle" x="347" y="-309.5" font-family="Helvetica,sans-Serif" font-size="10.00" fill="#000000">_soft.h</text>
</g>
<!-- Node1 -->
<g id="node2" class="node">
<title>Node1</title>
<g id="a_node2"><a xlink:href="data__structures_8h.html" target="_top" xlink:title="Various data structures and pre&#45;processor macros. ">
<polygon fill="none" stroke="#000000" points="566.5,-246.5 566.5,-265.5 713.5,-265.5 713.5,-246.5 566.5,-246.5"/>
<text text-anchor="middle" x="640" y="-253.5" font-family="Helvetica,sans-Serif" font-size="10.00" fill="#000000">ViennaRNA/data_structures.h</text>
</a>
</g>
</g>
<!-- Node0&#45;&gt;Node1 -->
<g id="edge1" class="edge">
<title>Node0&#45;&gt;Node1</title>
<path fill="none" stroke="#191970" d="M406.6461,-304.9804C458.7251,-294.0492 533.7224,-278.3074 584.5275,-267.6436"/>
<polygon fill="#191970" stroke="#191970" points="585.2842,-271.0611 594.352,-265.5814 583.8462,-264.2103 585.2842,-271.0611"/>
</g>
<!-- Node2 -->
<g id="node3" class="node">
<title>Node2</title>
<g id="a_node3"><a xlink:href="energy__const_8h.html" target="_top" xlink:title="Energy parameter constants. ">
<polygon fill="none" stroke="#000000" points="1075,-62 1075,-81 1213,-81 1213,-62 1075,-62"/>
<text text-anchor="middle" x="1144" y="-69" font-family="Helvetica,sans-Serif" font-size="10.00" fill="#000000">ViennaRNA/energy_const.h</text>
</a>
</g>
</g>
<!-- Node1&#45;&gt;Node2 -->
<g id="edge2" class="edge">
<title>Node1&#45;&gt;Node2</title>
<path fill="none" stroke="#191970" d="M713.7386,-251.1097C812.4547,-243.9507 981.9845,-229.3399 1041,-210 1088.6707,-194.3779 1112.5193,-196.6065 1139,-154 1150.7369,-135.1157 1150.0973,-108.8666 1147.7638,-91.087"/>
<polygon fill="#191970" stroke="#191970" points="1151.1883,-90.3372 1146.1433,-81.0207 1144.2772,-91.4499 1151.1883,-90.3372"/>
</g>
<!-- Node4 -->
<g id="node5" class="node">
<title>Node4</title>
<g id="a_node5"><a xlink:href="fold__compound_8h.html" target="_top" xlink:title="The Basic Fold Compound API. ">
<polygon fill="none" stroke="#000000" points="668,-190.5 668,-209.5 814,-209.5 814,-190.5 668,-190.5"/>
<text text-anchor="middle" x="741" y="-197.5" font-family="Helvetica,sans-Serif" font-size="10.00" fill="#000000">ViennaRNA/fold_compound.h</text>
</a>
</g>
</g>
<!-- Node1&#45;&gt;Node4 -->
<g id="edge4" class="edge">
<title>Node1&#45;&gt;Node4</title>
<path fill="none" stroke="#191970" d="M657.5929,-246.2455C673.379,-237.4928 696.7639,-224.527 714.7587,-214.5496"/>
<polygon fill="#191970" stroke="#191970" points="716.5603,-217.5528 723.6087,-209.6427 713.1659,-211.4308 716.5603,-217.5528"/>
</g>
<!-- Node5 -->
<g id="node6" class="node">
<title>Node5</title>
<g id="a_node6"><a xlink:href="model_8h.html" target="_top" xlink:title="The model details data structure and its corresponding modifiers. ">
<polygon fill="none" stroke="#000000" points="937,-62 937,-81 1043,-81 1043,-62 937,-62"/>
<text text-anchor="middle" x="990" y="-69" font-family="Helvetica,sans-Serif" font-size="10.00" fill="#000000">ViennaRNA/model.h</text>
</a>
</g>
</g>
<!-- Node1&#45;&gt;Node5 -->
<g id="edge32" class="edge">
<title>Node1&#45;&gt;Node5</title>
<path fill="none" stroke="#191970" d="M695.3672,-246.4904C779.9419,-230.7693 935.1918,-196.8016 970,-154 984.5539,-136.104 988.7875,-109.2526 989.8801,-91.0857"/>
<polygon fill="#191970" stroke="#191970" points="993.3793,-91.1667 990.2187,-81.0543 986.3832,-90.9305 993.3793,-91.1667"/>
</g>
<!-- Node6 -->
<g id="node7" class="node">
<title>Node6</title>
<g id="a_node7"><a xlink:href="params_8h.html" target="_top" xlink:title="Functions to deal with sets of energy parameters. ">
<polygon fill="none" stroke="#000000" points="1018,-129 1018,-148 1130,-148 1130,-129 1018,-129"/>
<text text-anchor="middle" x="1074" y="-136" font-family="Helvetica,sans-Serif" font-size="10.00" fill="#000000">ViennaRNA/params.h</text>
</a>
</g>
</g>
<!-- Node1&#45;&gt;Node6 -->
<g id="edge33" class="edge">
<title>Node1&#45;&gt;Node6</title>
<path fill="none" stroke="#191970" d="M713.6412,-252.0163C802.7515,-246.3894 946.6486,-234.007 995,-210 1020.0045,-197.585 1041.2006,-172.5812 1055.7427,-155.6862"/>
<polygon fill="#191970" stroke="#191970" points="1058.3953,-157.9696 1062.3345,-148.1343 1053.1217,-153.3664 1058.3953,-157.9696"/>
</g>
<!-- Node8 -->
<g id="node9" class="node">
<title>Node8</title>
<g id="a_node9"><a xlink:href="dp__matrices_8h.html" target="_top" xlink:title="Functions to deal with standard dynamic programming (DP) matrices. ">
<polygon fill="none" stroke="#000000" points="342.5,-129 342.5,-148 475.5,-148 475.5,-129 342.5,-129"/>
<text text-anchor="middle" x="409" y="-136" font-family="Helvetica,sans-Serif" font-size="10.00" fill="#000000">ViennaRNA/dp_matrices.h</text>
</a>
</g>
</g>
<!-- Node1&#45;&gt;Node8 -->
<g id="edge34" class="edge">
<title>Node1&#45;&gt;Node8</title>
<path fill="none" stroke="#191970" d="M617.1845,-246.3845C573.2012,-225.8062 477.7874,-177.3951 432.9478,-153.0365"/>
<polygon fill="#191970" stroke="#191970" points="434.3841,-149.8322 423.9346,-148.0836 431.0129,-155.967 434.3841,-149.8322"/>
</g>
<!-- Node9 -->
<g id="node10" class="node">
<title>Node9</title>
<g id="a_node10"><a xlink:href="constraints_8h.html" target="_top" xlink:title="Functions and data structures for constraining secondary structure predictions and evaluation...">
<polygon fill="none" stroke="#000000" points="158,-129 158,-148 286,-148 286,-129 158,-129"/>
<text text-anchor="middle" x="222" y="-136" font-family="Helvetica,sans-Serif" font-size="10.00" fill="#000000">ViennaRNA/constraints.h</text>
</a>
</g>
</g>
<!-- Node1&#45;&gt;Node9 -->
<g id="edge35" class="edge">
<title>Node1&#45;&gt;Node9</title>
<path fill="none" stroke="#191970" d="M566.3434,-251.6601C478.5362,-245.376 337.9929,-232.0208 291,-210 264.754,-197.7012 241.231,-173.4022 229.1515,-156.5672"/>
<polygon fill="#191970" stroke="#191970" points="232.0462,-154.5981 223.6734,-148.106 226.1702,-158.4024 232.0462,-154.5981"/>
</g>
<!-- Node14 -->
<g id="node15" class="node">
<title>Node14</title>
<g id="a_node15"><a xlink:href="grammar_8h.html" target="_top" xlink:title="Implementations for the RNA folding grammar. ">
<polygon fill="none" stroke="#000000" points="494,-129 494,-148 612,-148 612,-129 494,-129"/>
<text text-anchor="middle" x="553" y="-136" font-family="Helvetica,sans-Serif" font-size="10.00" fill="#000000">ViennaRNA/grammar.h</text>
</a>
</g>
</g>
<!-- Node1&#45;&gt;Node14 -->
<g id="edge36" class="edge">
<title>Node1&#45;&gt;Node14</title>
<path fill="none" stroke="#191970" d="M628.9686,-246.3845C611.1537,-226.8471 577.7263,-182.2211 561.5639,-156.9106"/>
<polygon fill="#191970" stroke="#191970" points="564.4771,-154.9651 556.2835,-148.2484 558.5001,-158.6088 564.4771,-154.9651"/>
</g>
<!-- Node15 -->
<g id="node16" class="node">
<title>Node15</title>
<g id="a_node16"><a xlink:href="structured__domains_8h.html" target="_top" xlink:title="This module provides interfaces that deal with additional structured domains in the folding grammar...">
<polygon fill="none" stroke="#000000" points="846.5,-123.5 846.5,-153.5 961.5,-153.5 961.5,-123.5 846.5,-123.5"/>
<text text-anchor="start" x="854.5" y="-141.5" font-family="Helvetica,sans-Serif" font-size="10.00" fill="#000000">ViennaRNA/structured</text>
<text text-anchor="middle" x="904" y="-130.5" font-family="Helvetica,sans-Serif" font-size="10.00" fill="#000000">_domains.h</text>
</a>
</g>
</g>
<!-- Node1&#45;&gt;Node15 -->
<g id="edge37" class="edge">
<title>Node1&#45;&gt;Node15</title>
<path fill="none" stroke="#191970" d="M710.1775,-246.4402C745.4803,-239.6634 788.0725,-228.3938 823,-210 846.5335,-197.6065 868.8476,-177.0063 884.073,-161.093"/>
<polygon fill="#191970" stroke="#191970" points="886.6932,-163.4151 890.9522,-153.714 881.5731,-158.6418 886.6932,-163.4151"/>
</g>
<!-- Node16 -->
<g id="node17" class="node">
<title>Node16</title>
<g id="a_node17"><a xlink:href="unstructured__domains_8h.html" target="_top" xlink:title="Functions to modify unstructured domains, e.g. to incorporate ligands binding to unpaired stretches...">
<polygon fill="none" stroke="#000000" points="1186.5,-123.5 1186.5,-153.5 1311.5,-153.5 1311.5,-123.5 1186.5,-123.5"/>
<text text-anchor="start" x="1194.5" y="-141.5" font-family="Helvetica,sans-Serif" font-size="10.00" fill="#000000">ViennaRNA/unstructured</text>
<text text-anchor="middle" x="1249" y="-130.5" font-family="Helvetica,sans-Serif" font-size="10.00" fill="#000000">_domains.h</text>
</a>
</g>
</g>
<!-- Node1&#45;&gt;Node16 -->
<g id="edge38" class="edge">
<title>Node1&#45;&gt;Node16</title>
<path fill="none" stroke="#191970" d="M713.7054,-252.0068C848.1141,-244.6074 1122.6644,-227.883 1163,-210 1187.0775,-199.3251 1208.4876,-177.9497 1224.1953,-161.3385"/>
<polygon fill="#191970" stroke="#191970" points="1227.1375,-163.3185 1231.435,-153.6343 1222.0364,-158.5248 1227.1375,-163.3185"/>
</g>
<!-- Node17 -->
<g id="node18" class="node">
<title>Node17</title>
<g id="a_node18"><a xlink:href="structure__utils_8h.html" target="_top" xlink:title="Various utility&#45; and helper&#45;functions for secondary structure parsing, converting, etc. ">
<polygon fill="none" stroke="#000000" points="1294,-56.5 1294,-86.5 1404,-86.5 1404,-56.5 1294,-56.5"/>
<text text-anchor="start" x="1302" y="-74.5" font-family="Helvetica,sans-Serif" font-size="10.00" fill="#000000">ViennaRNA/structure</text>
<text text-anchor="middle" x="1349" y="-63.5" font-family="Helvetica,sans-Serif" font-size="10.00" fill="#000000">_utils.h</text>
</a>
</g>
</g>
<!-- Node1&#45;&gt;Node17 -->
<g id="edge39" class="edge">
<title>Node1&#45;&gt;Node17</title>
<path fill="none" stroke="#191970" d="M713.6426,-253.3293C844.0548,-248.1814 1110.0297,-235.1091 1200,-210 1253.6048,-195.0398 1275.4216,-195.944 1312,-154 1326.1274,-137.8003 1333.1984,-114.1634 1338.2334,-96.3383"/>
<polygon fill="#191970" stroke="#191970" points="1341.6296,-97.191 1341.0006,-86.6149 1334.897,-95.2749 1341.6296,-97.191"/>
</g>
<!-- Node3 -->
<g id="node4" class="node">
<title>Node3</title>
<polygon fill="none" stroke="#bfbfbf" points="1120,-.5 1120,-19.5 1168,-19.5 1168,-.5 1120,-.5"/>
<text text-anchor="middle" x="1144" y="-7.5" font-family="Helvetica,sans-Serif" font-size="10.00" fill="#000000">limits.h</text>
</g>
<!-- Node2&#45;&gt;Node3 -->
<g id="edge3" class="edge">
<title>Node2&#45;&gt;Node3</title>
<path fill="none" stroke="#191970" d="M1144,-61.8906C1144,-53.3657 1144,-40.6392 1144,-29.9235"/>
<polygon fill="#191970" stroke="#191970" points="1147.5001,-29.7448 1144,-19.7449 1140.5001,-29.7449 1147.5001,-29.7448"/>
</g>
<!-- Node4&#45;&gt;Node5 -->
<g id="edge5" class="edge">
<title>Node4&#45;&gt;Node5</title>
<path fill="none" stroke="#191970" d="M753.4849,-190.1789C765.2576,-180.8989 783.3778,-166.5662 799,-154 815.9834,-140.3389 817.9194,-133.5353 837,-123 868.963,-105.3517 908.0161,-92.3287 938.6661,-83.7938"/>
<polygon fill="#191970" stroke="#191970" points="939.9791,-87.0643 948.716,-81.0712 938.1487,-80.3079 939.9791,-87.0643"/>
</g>
<!-- Node4&#45;&gt;Node6 -->
<g id="edge6" class="edge">
<title>Node4&#45;&gt;Node6</title>
<path fill="none" stroke="#191970" d="M792.6659,-190.4581C852.0574,-179.4894 949.4568,-161.5012 1012.6496,-149.8305"/>
<polygon fill="#191970" stroke="#191970" points="1013.2889,-153.2717 1022.4869,-148.0137 1012.0175,-146.3881 1013.2889,-153.2717"/>
</g>
<!-- Node7 -->
<g id="node8" class="node">
<title>Node7</title>
<g id="a_node8"><a xlink:href="sequence_8h.html" target="_top" xlink:title="Functions and data structures related to sequence representations. ">
<polygon fill="none" stroke="#000000" points="668,-129 668,-148 790,-148 790,-129 668,-129"/>
<text text-anchor="middle" x="729" y="-136" font-family="Helvetica,sans-Serif" font-size="10.00" fill="#000000">ViennaRNA/sequence.h</text>
</a>
</g>
</g>
<!-- Node4&#45;&gt;Node7 -->
<g id="edge10" class="edge">
<title>Node4&#45;&gt;Node7</title>
<path fill="none" stroke="#191970" d="M739.125,-190.3906C737.4441,-181.776 734.926,-168.8708 732.8216,-158.0858"/>
<polygon fill="#191970" stroke="#191970" points="736.2518,-157.3895 730.9014,-148.2449 729.3814,-158.7301 736.2518,-157.3895"/>
</g>
<!-- Node4&#45;&gt;Node8 -->
<g id="edge11" class="edge">
<title>Node4&#45;&gt;Node8</title>
<path fill="none" stroke="#191970" d="M685.7498,-190.4568C633.8554,-181.4022 554.072,-167.2473 485,-154 478.4247,-152.7389 471.5368,-151.383 464.7057,-150.0167"/>
<polygon fill="#191970" stroke="#191970" points="465.2753,-146.5612 454.781,-148.0173 463.8928,-153.4234 465.2753,-146.5612"/>
</g>
<!-- Node4&#45;&gt;Node9 -->
<g id="edge13" class="edge">
<title>Node4&#45;&gt;Node9</title>
<path fill="none" stroke="#191970" d="M667.9657,-192.3548C586.2741,-183.6664 450.044,-168.7674 333,-154 321.1608,-152.5062 308.6237,-150.8386 296.4025,-149.1662"/>
<polygon fill="#191970" stroke="#191970" points="296.6178,-145.6628 286.2334,-147.7639 295.6615,-152.5972 296.6178,-145.6628"/>
</g>
<!-- Node4&#45;&gt;Node14 -->
<g id="edge24" class="edge">
<title>Node4&#45;&gt;Node14</title>
<path fill="none" stroke="#191970" d="M711.625,-190.3906C679.3414,-179.8298 627.3465,-162.8208 591.7453,-151.1747"/>
<polygon fill="#191970" stroke="#191970" points="592.7613,-147.8246 582.1687,-148.0419 590.5849,-154.4776 592.7613,-147.8246"/>
</g>
<!-- Node4&#45;&gt;Node15 -->
<g id="edge26" class="edge">
<title>Node4&#45;&gt;Node15</title>
<path fill="none" stroke="#191970" d="M766.4688,-190.3906C789.9586,-181.5279 825.4845,-168.1239 854.545,-157.1594"/>
<polygon fill="#191970" stroke="#191970" points="856.0051,-160.3494 864.1257,-153.5446 853.534,-153.8001 856.0051,-160.3494"/>
</g>
<!-- Node4&#45;&gt;Node16 -->
<g id="edge27" class="edge">
<title>Node4&#45;&gt;Node16</title>
<path fill="none" stroke="#191970" d="M814.0563,-192.1085C893.9349,-183.3513 1025.6801,-168.5303 1139,-154 1150.9558,-152.467 1163.6303,-150.7586 1175.96,-149.052"/>
<polygon fill="#191970" stroke="#191970" points="1176.7916,-152.47 1186.2125,-147.6226 1175.8249,-145.537 1176.7916,-152.47"/>
</g>
<!-- Node6&#45;&gt;Node1 -->
<g id="edge8" class="edge">
<title>Node6&#45;&gt;Node1</title>
<path fill="none" stroke="#191970" d="M1073.3187,-148.1343C1066.0355,-164.0611 1042.0961,-195.5535 1013,-210 964.2154,-234.2221 818.1655,-246.6103 723.8931,-252.1659"/>
<polygon fill="#191970" stroke="#191970" points="723.584,-248.6778 713.8014,-252.7462 723.9859,-255.6662 723.584,-248.6778"/>
</g>
<!-- Node6&#45;&gt;Node2 -->
<g id="edge7" class="edge">
<title>Node6&#45;&gt;Node2</title>
<path fill="none" stroke="#191970" d="M1084.0293,-128.9005C1095.1531,-118.2535 1113.2987,-100.8856 1126.721,-88.0385"/>
<polygon fill="#191970" stroke="#191970" points="1129.1852,-90.5247 1133.9893,-81.0817 1124.345,-85.4678 1129.1852,-90.5247"/>
</g>
<!-- Node6&#45;&gt;Node5 -->
<g id="edge9" class="edge">
<title>Node6&#45;&gt;Node5</title>
<path fill="none" stroke="#191970" d="M1061.9648,-128.9005C1048.3668,-118.0544 1026.0246,-100.2339 1009.8376,-87.3229"/>
<polygon fill="#191970" stroke="#191970" points="1012.0131,-84.5811 1002.0128,-81.0817 1007.6481,-90.0535 1012.0131,-84.5811"/>
</g>
<!-- Node8&#45;&gt;Node1 -->
<g id="edge12" class="edge">
<title>Node8&#45;&gt;Node1</title>
<path fill="none" stroke="#191970" d="M431.7473,-148.0836C475.6773,-168.633 571.0906,-217.0422 615.9825,-241.4256"/>
<polygon fill="#191970" stroke="#191970" points="614.5584,-244.6366 625.0081,-246.3845 617.9292,-238.5016 614.5584,-244.6366"/>
</g>
<!-- Node9&#45;&gt;Node0 -->
<g id="edge17" class="edge">
<title>Node9&#45;&gt;Node0</title>
<path fill="none" stroke="#191970" d="M227.8769,-148.3703C236.2514,-162.309 252.2425,-188.4638 267,-210 287.4323,-239.8176 312.532,-273.0402 329.1068,-294.5507"/>
<polygon fill="#191970" stroke="#191970" points="326.3394,-296.6935 335.2259,-302.4624 331.8765,-292.4109 326.3394,-296.6935"/>
</g>
<!-- Node9&#45;&gt;Node1 -->
<g id="edge14" class="edge">
<title>Node9&#45;&gt;Node1</title>
<path fill="none" stroke="#191970" d="M234.6576,-148.106C250.6121,-163.9911 277.8936,-195.4236 309,-210 351.9108,-230.1079 472.8252,-242.9904 556.0411,-249.8613"/>
<polygon fill="#191970" stroke="#191970" points="555.9982,-253.3693 566.2485,-250.6898 556.5645,-246.3922 555.9982,-253.3693"/>
</g>
<!-- Node10 -->
<g id="node11" class="node">
<title>Node10</title>
<g id="a_node11"><a xlink:href="constraints__hard_8h.html" target="_top" xlink:title="Functions and data structures for handling of secondary structure hard constraints. ">
<polygon fill="none" stroke="#000000" points="277.5,-56.5 277.5,-86.5 396.5,-86.5 396.5,-56.5 277.5,-56.5"/>
<text text-anchor="start" x="285.5" y="-74.5" font-family="Helvetica,sans-Serif" font-size="10.00" fill="#000000">ViennaRNA/constraints</text>
<text text-anchor="middle" x="337" y="-63.5" font-family="Helvetica,sans-Serif" font-size="10.00" fill="#000000">_hard.h</text>
</a>
</g>
</g>
<!-- Node9&#45;&gt;Node10 -->
<g id="edge15" class="edge">
<title>Node9&#45;&gt;Node10</title>
<path fill="none" stroke="#191970" d="M238.4767,-128.9005C255.1057,-119.2123 281.2862,-103.9593 302.4807,-91.6113"/>
<polygon fill="#191970" stroke="#191970" points="304.3378,-94.58 311.2164,-86.5218 300.8139,-88.5317 304.3378,-94.58"/>
</g>
<!-- Node11 -->
<g id="node12" class="node">
<title>Node11</title>
<g id="a_node12"><a xlink:href="constraints__SHAPE_8h.html" target="_top" xlink:title="This module provides function to incorporate SHAPE reactivity data into the folding recursions by mea...">
<polygon fill="none" stroke="#000000" points="508.5,-56.5 508.5,-86.5 627.5,-86.5 627.5,-56.5 508.5,-56.5"/>
<text text-anchor="start" x="516.5" y="-74.5" font-family="Helvetica,sans-Serif" font-size="10.00" fill="#000000">ViennaRNA/constraints</text>
<text text-anchor="middle" x="568" y="-63.5" font-family="Helvetica,sans-Serif" font-size="10.00" fill="#000000">_SHAPE.h</text>
</a>
</g>
</g>
<!-- Node9&#45;&gt;Node11 -->
<g id="edge18" class="edge">
<title>Node9&#45;&gt;Node11</title>
<path fill="none" stroke="#191970" d="M271.2059,-128.9717C330.5667,-117.477 430.7624,-98.0749 498.1187,-85.0319"/>
<polygon fill="#191970" stroke="#191970" points="499.0701,-88.4128 508.2223,-83.0754 497.7393,-81.5405 499.0701,-88.4128"/>
</g>
<!-- Node12 -->
<g id="node13" class="node">
<title>Node12</title>
<g id="a_node13"><a xlink:href="perturbation__fold_8h.html" target="_top" xlink:title="Find a vector of perturbation energies that minimizes the discripancies between predicted and observe...">
<polygon fill="none" stroke="#000000" points="0,-56.5 0,-86.5 122,-86.5 122,-56.5 0,-56.5"/>
<text text-anchor="start" x="8" y="-74.5" font-family="Helvetica,sans-Serif" font-size="10.00" fill="#000000">ViennaRNA/perturbation</text>
<text text-anchor="middle" x="61" y="-63.5" font-family="Helvetica,sans-Serif" font-size="10.00" fill="#000000">_fold.h</text>
</a>
</g>
</g>
<!-- Node9&#45;&gt;Node12 -->
<g id="edge20" class="edge">
<title>Node9&#45;&gt;Node12</title>
<path fill="none" stroke="#191970" d="M198.9326,-128.9005C174.9245,-118.9096 136.6954,-103.0006 106.5663,-90.4624"/>
<polygon fill="#191970" stroke="#191970" points="107.6743,-87.1325 97.0971,-86.5218 104.9848,-93.5953 107.6743,-87.1325"/>
</g>
<!-- Node13 -->
<g id="node14" class="node">
<title>Node13</title>
<g id="a_node14"><a xlink:href="constraints__ligand_8h.html" target="_top" xlink:title="Functions for incorporation of ligands binding to hairpin and interior loop motifs using the soft con...">
<polygon fill="none" stroke="#000000" points="140.5,-56.5 140.5,-86.5 259.5,-86.5 259.5,-56.5 140.5,-56.5"/>
<text text-anchor="start" x="148.5" y="-74.5" font-family="Helvetica,sans-Serif" font-size="10.00" fill="#000000">ViennaRNA/constraints</text>
<text text-anchor="middle" x="200" y="-63.5" font-family="Helvetica,sans-Serif" font-size="10.00" fill="#000000">_ligand.h</text>
</a>
</g>
</g>
<!-- Node9&#45;&gt;Node13 -->
<g id="edge22" class="edge">
<title>Node9&#45;&gt;Node13</title>
<path fill="none" stroke="#191970" d="M218.8479,-128.9005C216.0644,-120.4234 211.8819,-107.6856 208.1634,-96.3614"/>
<polygon fill="#191970" stroke="#191970" points="211.3776,-94.9308 204.9325,-86.5218 204.727,-97.1146 211.3776,-94.9308"/>
</g>
<!-- Node10&#45;&gt;Node1 -->
<g id="edge16" class="edge">
<title>Node10&#45;&gt;Node1</title>
<path fill="none" stroke="#191970" d="M331.0151,-86.7991C325.1055,-104.6882 318.8204,-134.3472 333,-154 362.1108,-194.3475 497.9727,-227.703 578.8818,-244.4191"/>
<polygon fill="#191970" stroke="#191970" points="578.4513,-247.9033 588.949,-246.4719 579.85,-241.0444 578.4513,-247.9033"/>
</g>
<!-- Node11&#45;&gt;Node1 -->
<g id="edge19" class="edge">
<title>Node11&#45;&gt;Node1</title>
<path fill="none" stroke="#191970" d="M589.448,-86.7081C600.7132,-95.8923 613.6669,-108.5932 621,-123 639.7012,-159.7408 641.6358,-209.1479 641.0414,-236.2168"/>
<polygon fill="#191970" stroke="#191970" points="637.5388,-236.2276 640.6734,-246.3481 644.5342,-236.4818 637.5388,-236.2276"/>
</g>
<!-- Node12&#45;&gt;Node1 -->
<g id="edge21" class="edge">
<title>Node12&#45;&gt;Node1</title>
<path fill="none" stroke="#191970" d="M69.3743,-86.9392C86.4566,-116.7073 128.4501,-181.6027 184,-210 216.2588,-226.4908 433.423,-242.8001 556.0647,-250.8392"/>
<polygon fill="#191970" stroke="#191970" points="555.9714,-254.3405 566.1777,-251.4975 556.4261,-247.3553 555.9714,-254.3405"/>
</g>
<!-- Node13&#45;&gt;Node1 -->
<g id="edge23" class="edge">
<title>Node13&#45;&gt;Node1</title>
<path fill="none" stroke="#191970" d="M179.2558,-86.7631C159.3225,-103.3658 134.2411,-130.6592 149,-154 180.0247,-203.0647 211.2569,-193.7954 267,-210 319.5393,-225.2732 463.3277,-240.2775 556.256,-248.81"/>
<polygon fill="#191970" stroke="#191970" points="556.2086,-252.3201 566.4849,-249.742 556.8438,-245.349 556.2086,-252.3201"/>
</g>
<!-- Node14&#45;&gt;Node1 -->
<g id="edge25" class="edge">
<title>Node14&#45;&gt;Node1</title>
<path fill="none" stroke="#191970" d="M564.1524,-148.2484C582.0377,-167.899 615.4613,-212.5378 631.5454,-237.7608"/>
<polygon fill="#191970" stroke="#191970" points="628.6044,-239.6607 636.7922,-246.3845 634.5845,-236.0222 628.6044,-239.6607"/>
</g>
<!-- Node16&#45;&gt;Node1 -->
<g id="edge28" class="edge">
<title>Node16&#45;&gt;Node1</title>
<path fill="none" stroke="#191970" d="M1244.3478,-153.6343C1233.4231,-170.6676 1209.0174,-197.5783 1181,-210 1140.6415,-227.8932 865.8021,-244.6264 724.0612,-252.0194"/>
<polygon fill="#191970" stroke="#191970" points="723.4816,-248.5446 713.6759,-252.5567 723.8434,-255.5352 723.4816,-248.5446"/>
</g>
<!-- Node16&#45;&gt;Node17 -->
<g id="edge29" class="edge">
<title>Node16&#45;&gt;Node17</title>
<path fill="none" stroke="#191970" d="M1271.6915,-123.2967C1285.3722,-114.1306 1302.9874,-102.3285 1317.947,-92.3055"/>
<polygon fill="#191970" stroke="#191970" points="1320.0387,-95.1171 1326.3983,-86.6432 1316.1424,-89.3017 1320.0387,-95.1171"/>
</g>
<!-- Node17&#45;&gt;Node1 -->
<g id="edge31" class="edge">
<title>Node17&#45;&gt;Node1</title>
<path fill="none" stroke="#191970" d="M1353.7295,-86.6149C1353.7022,-104.5989 1346.9001,-134.6209 1330,-154 1293.4216,-195.944 1271.6048,-195.0398 1218,-210 1127.8398,-235.1621 860.9314,-248.2365 723.5871,-253.3618"/>
<polygon fill="#191970" stroke="#191970" points="723.3889,-249.8666 713.5242,-253.7317 723.6461,-256.8619 723.3889,-249.8666"/>
</g>
<!-- Node18 -->
<g id="node19" class="node">
<title>Node18</title>
<polygon fill="none" stroke="#bfbfbf" points="1326,-.5 1326,-19.5 1372,-19.5 1372,-.5 1326,-.5"/>
<text text-anchor="middle" x="1349" y="-7.5" font-family="Helvetica,sans-Serif" font-size="10.00" fill="#000000">stdio.h</text>
</g>
<!-- Node17&#45;&gt;Node18 -->
<g id="edge30" class="edge">
<title>Node17&#45;&gt;Node18</title>
<path fill="none" stroke="#191970" d="M1349,-56.2977C1349,-48.3834 1349,-38.6043 1349,-30.0759"/>
<polygon fill="#191970" stroke="#191970" points="1352.5001,-29.8469 1349,-19.8469 1345.5001,-29.847 1352.5001,-29.8469"/>
</g>
</g>
</svg>
