<?xml version="1.0" encoding="UTF-8" standalone="no"?>
<!DOCTYPE svg PUBLIC "-//W3C//DTD SVG 1.1//EN"
 "http://www.w3.org/Graphics/SVG/1.1/DTD/svg11.dtd">
<!-- Generated by graphviz version 2.40.1 (20161225.0304)
 -->
<!-- Title: ViennaRNA/constraints.h Pages: 1 -->
<svg width="1031pt" height="397pt"
 viewBox="0.00 0.00 1031.00 397.00" xmlns="http://www.w3.org/2000/svg" xmlns:xlink="http://www.w3.org/1999/xlink">
<g id="graph0" class="graph" transform="scale(1 1) rotate(0) translate(4 393)">
<title>ViennaRNA/constraints.h</title>
<!-- Node0 -->
<g id="node1" class="node">
<title>Node0</title>
<polygon fill="#bfbfbf" stroke="#000000" points="562,-369.5 562,-388.5 690,-388.5 690,-369.5 562,-369.5"/>
<text text-anchor="middle" x="626" y="-376.5" font-family="Helvetica,sans-Serif" font-size="10.00" fill="#000000">ViennaRNA/constraints.h</text>
</g>
<!-- Node1 -->
<g id="node2" class="node">
<title>Node1</title>
<g id="a_node2"><a xlink:href="data__structures_8h.html" target="_top" xlink:title="Various data structures and pre&#45;processor macros. ">
<polygon fill="none" stroke="#000000" points="552.5,-246.5 552.5,-265.5 699.5,-265.5 699.5,-246.5 552.5,-246.5"/>
<text text-anchor="middle" x="626" y="-253.5" font-family="Helvetica,sans-Serif" font-size="10.00" fill="#000000">ViennaRNA/data_structures.h</text>
</a>
</g>
</g>
<!-- Node0&#45;&gt;Node1 -->
<g id="edge1" class="edge">
<title>Node0&#45;&gt;Node1</title>
<path fill="none" stroke="#191970" d="M624.9358,-369.2032C628.1112,-360.1737 635.1271,-346.2108 638,-333 640.9278,-319.5369 640.9278,-315.4631 638,-302 636.0024,-292.8144 632.0019,-283.2651 628.6821,-275.2635"/>
<polygon fill="#191970" stroke="#191970" points="631.87,-273.8073 624.9358,-265.7968 625.3611,-276.3831 631.87,-273.8073"/>
</g>
<!-- Node14 -->
<g id="node15" class="node">
<title>Node14</title>
<g id="a_node15"><a xlink:href="constraints__hard_8h.html" target="_top" xlink:title="Functions and data structures for handling of secondary structure hard constraints. ">
<polygon fill="none" stroke="#000000" points="712.5,-302.5 712.5,-332.5 831.5,-332.5 831.5,-302.5 712.5,-302.5"/>
<text text-anchor="start" x="720.5" y="-320.5" font-family="Helvetica,sans-Serif" font-size="10.00" fill="#000000">ViennaRNA/constraints</text>
<text text-anchor="middle" x="772" y="-309.5" font-family="Helvetica,sans-Serif" font-size="10.00" fill="#000000">_hard.h</text>
</a>
</g>
</g>
<!-- Node0&#45;&gt;Node14 -->
<g id="edge30" class="edge">
<title>Node0&#45;&gt;Node14</title>
<path fill="none" stroke="#191970" d="M648.8125,-369.3906C669.6696,-360.6049 701.1207,-347.3567 727.0225,-336.446"/>
<polygon fill="#191970" stroke="#191970" points="728.4273,-339.6522 736.2844,-332.5446 725.7099,-333.2011 728.4273,-339.6522"/>
</g>
<!-- Node15 -->
<g id="node16" class="node">
<title>Node15</title>
<g id="a_node16"><a xlink:href="constraints__soft_8h.html" target="_top" xlink:title="Functions and data structures for secondary structure soft constraints. ">
<polygon fill="none" stroke="#000000" points="849.5,-302.5 849.5,-332.5 968.5,-332.5 968.5,-302.5 849.5,-302.5"/>
<text text-anchor="start" x="857.5" y="-320.5" font-family="Helvetica,sans-Serif" font-size="10.00" fill="#000000">ViennaRNA/constraints</text>
<text text-anchor="middle" x="909" y="-309.5" font-family="Helvetica,sans-Serif" font-size="10.00" fill="#000000">_soft.h</text>
</a>
</g>
</g>
<!-- Node0&#45;&gt;Node15 -->
<g id="edge32" class="edge">
<title>Node0&#45;&gt;Node15</title>
<path fill="none" stroke="#191970" d="M671.3378,-369.4832C712.75,-360.7491 775.9377,-347.3198 839.5147,-333.3149"/>
<polygon fill="#191970" stroke="#191970" points="840.2953,-336.7269 849.306,-331.154 838.7867,-329.8914 840.2953,-336.7269"/>
</g>
<!-- Node16 -->
<g id="node17" class="node">
<title>Node16</title>
<g id="a_node17"><a xlink:href="constraints__SHAPE_8h.html" target="_top" xlink:title="This module provides function to incorporate SHAPE reactivity data into the folding recursions by mea...">
<polygon fill="none" stroke="#000000" points="240.5,-302.5 240.5,-332.5 359.5,-332.5 359.5,-302.5 240.5,-302.5"/>
<text text-anchor="start" x="248.5" y="-320.5" font-family="Helvetica,sans-Serif" font-size="10.00" fill="#000000">ViennaRNA/constraints</text>
<text text-anchor="middle" x="300" y="-309.5" font-family="Helvetica,sans-Serif" font-size="10.00" fill="#000000">_SHAPE.h</text>
</a>
</g>
</g>
<!-- Node0&#45;&gt;Node16 -->
<g id="edge34" class="edge">
<title>Node0&#45;&gt;Node16</title>
<path fill="none" stroke="#191970" d="M568.7021,-369.4849C518.771,-361.0249 444.1739,-347.9826 369.8166,-333.1161"/>
<polygon fill="#191970" stroke="#191970" points="370.2986,-329.6431 359.8048,-331.1029 368.9186,-336.5057 370.2986,-329.6431"/>
</g>
<!-- Node17 -->
<g id="node18" class="node">
<title>Node17</title>
<g id="a_node18"><a xlink:href="perturbation__fold_8h.html" target="_top" xlink:title="Find a vector of perturbation energies that minimizes the discripancies between predicted and observe...">
<polygon fill="none" stroke="#000000" points="378,-302.5 378,-332.5 500,-332.5 500,-302.5 378,-302.5"/>
<text text-anchor="start" x="386" y="-320.5" font-family="Helvetica,sans-Serif" font-size="10.00" fill="#000000">ViennaRNA/perturbation</text>
<text text-anchor="middle" x="439" y="-309.5" font-family="Helvetica,sans-Serif" font-size="10.00" fill="#000000">_fold.h</text>
</a>
</g>
</g>
<!-- Node0&#45;&gt;Node17 -->
<g id="edge36" class="edge">
<title>Node0&#45;&gt;Node17</title>
<path fill="none" stroke="#191970" d="M596.7813,-369.3906C569.4812,-360.4123 528.0105,-346.7735 494.436,-335.7316"/>
<polygon fill="#191970" stroke="#191970" points="495.3383,-332.344 484.7453,-332.5446 493.1513,-338.9936 495.3383,-332.344"/>
</g>
<!-- Node18 -->
<g id="node19" class="node">
<title>Node18</title>
<g id="a_node19"><a xlink:href="constraints__ligand_8h.html" target="_top" xlink:title="Functions for incorporation of ligands binding to hairpin and interior loop motifs using the soft con...">
<polygon fill="none" stroke="#000000" points="518.5,-302.5 518.5,-332.5 637.5,-332.5 637.5,-302.5 518.5,-302.5"/>
<text text-anchor="start" x="526.5" y="-320.5" font-family="Helvetica,sans-Serif" font-size="10.00" fill="#000000">ViennaRNA/constraints</text>
<text text-anchor="middle" x="578" y="-309.5" font-family="Helvetica,sans-Serif" font-size="10.00" fill="#000000">_ligand.h</text>
</a>
</g>
</g>
<!-- Node0&#45;&gt;Node18 -->
<g id="edge38" class="edge">
<title>Node0&#45;&gt;Node18</title>
<path fill="none" stroke="#191970" d="M618.5,-369.3906C612.485,-361.6839 603.7899,-350.5434 595.9972,-340.5589"/>
<polygon fill="#191970" stroke="#191970" points="598.654,-338.2743 589.7421,-332.5446 593.1358,-342.5812 598.654,-338.2743"/>
</g>
<!-- Node1&#45;&gt;Node0 -->
<g id="edge25" class="edge">
<title>Node1&#45;&gt;Node0</title>
<path fill="none" stroke="#191970" d="M639.0173,-265.7968C646.1112,-274.8263 653.1271,-288.7892 656,-302 658.9278,-315.4631 658.9278,-319.5369 656,-333 653.9127,-342.5985 649.6383,-352.594 644.7359,-360.8059"/>
<polygon fill="#191970" stroke="#191970" points="641.7532,-358.9677 639.0173,-369.2032 647.539,-362.9078 641.7532,-358.9677"/>
</g>
<!-- Node2 -->
<g id="node3" class="node">
<title>Node2</title>
<g id="a_node3"><a xlink:href="energy__const_8h.html" target="_top" xlink:title="Energy parameter constants. ">
<polygon fill="none" stroke="#000000" points="543,-62 543,-81 681,-81 681,-62 543,-62"/>
<text text-anchor="middle" x="612" y="-69" font-family="Helvetica,sans-Serif" font-size="10.00" fill="#000000">ViennaRNA/energy_const.h</text>
</a>
</g>
</g>
<!-- Node1&#45;&gt;Node2 -->
<g id="edge2" class="edge">
<title>Node1&#45;&gt;Node2</title>
<path fill="none" stroke="#191970" d="M625.267,-246.3402C623.0651,-217.3223 616.4776,-130.5088 613.4957,-91.2113"/>
<polygon fill="#191970" stroke="#191970" points="616.9724,-90.7706 612.7257,-81.0641 609.9925,-91.3003 616.9724,-90.7706"/>
</g>
<!-- Node4 -->
<g id="node5" class="node">
<title>Node4</title>
<g id="a_node5"><a xlink:href="fold__compound_8h.html" target="_top" xlink:title="The Basic Fold Compound API. ">
<polygon fill="none" stroke="#000000" points="385,-190.5 385,-209.5 531,-209.5 531,-190.5 385,-190.5"/>
<text text-anchor="middle" x="458" y="-197.5" font-family="Helvetica,sans-Serif" font-size="10.00" fill="#000000">ViennaRNA/fold_compound.h</text>
</a>
</g>
</g>
<!-- Node1&#45;&gt;Node4 -->
<g id="edge4" class="edge">
<title>Node1&#45;&gt;Node4</title>
<path fill="none" stroke="#191970" d="M597.1198,-246.3733C569.1839,-237.0613 526.6858,-222.8953 496.0131,-212.671"/>
<polygon fill="#191970" stroke="#191970" points="497.097,-209.3431 486.5034,-209.5011 494.8834,-215.9839 497.097,-209.3431"/>
</g>
<!-- Node5 -->
<g id="node6" class="node">
<title>Node5</title>
<g id="a_node6"><a xlink:href="model_8h.html" target="_top" xlink:title="The model details data structure and its corresponding modifiers. ">
<polygon fill="none" stroke="#000000" points="405,-62 405,-81 511,-81 511,-62 405,-62"/>
<text text-anchor="middle" x="458" y="-69" font-family="Helvetica,sans-Serif" font-size="10.00" fill="#000000">ViennaRNA/model.h</text>
</a>
</g>
</g>
<!-- Node1&#45;&gt;Node5 -->
<g id="edge22" class="edge">
<title>Node1&#45;&gt;Node5</title>
<path fill="none" stroke="#191970" d="M552.2689,-251.3321C433.6175,-242.0314 209.1068,-216.428 165,-154 157.0498,-142.7474 156.141,-133.552 165,-123 193.7233,-88.7877 317.4106,-77.2965 394.6097,-73.4415"/>
<polygon fill="#191970" stroke="#191970" points="394.8891,-76.9323 404.7139,-72.967 394.5608,-69.94 394.8891,-76.9323"/>
</g>
<!-- Node6 -->
<g id="node7" class="node">
<title>Node6</title>
<g id="a_node7"><a xlink:href="params_8h.html" target="_top" xlink:title="Functions to deal with sets of energy parameters. ">
<polygon fill="none" stroke="#000000" points="486,-129 486,-148 598,-148 598,-129 486,-129"/>
<text text-anchor="middle" x="542" y="-136" font-family="Helvetica,sans-Serif" font-size="10.00" fill="#000000">ViennaRNA/params.h</text>
</a>
</g>
</g>
<!-- Node1&#45;&gt;Node6 -->
<g id="edge23" class="edge">
<title>Node1&#45;&gt;Node6</title>
<path fill="none" stroke="#191970" d="M615.2141,-246.3845C597.8981,-226.8471 565.61,-182.2211 550.0939,-156.9106"/>
<polygon fill="#191970" stroke="#191970" points="553.1003,-155.1182 545.0346,-148.2484 547.0558,-158.6486 553.1003,-155.1182"/>
</g>
<!-- Node8 -->
<g id="node9" class="node">
<title>Node8</title>
<g id="a_node9"><a xlink:href="dp__matrices_8h.html" target="_top" xlink:title="Functions to deal with standard dynamic programming (DP) matrices. ">
<polygon fill="none" stroke="#000000" points="797.5,-129 797.5,-148 930.5,-148 930.5,-129 797.5,-129"/>
<text text-anchor="middle" x="864" y="-136" font-family="Helvetica,sans-Serif" font-size="10.00" fill="#000000">ViennaRNA/dp_matrices.h</text>
</a>
</g>
</g>
<!-- Node1&#45;&gt;Node8 -->
<g id="edge24" class="edge">
<title>Node1&#45;&gt;Node8</title>
<path fill="none" stroke="#191970" d="M641.5647,-246.3845C680.1194,-225.5905 779.5955,-176.3771 831.5576,-152.2785"/>
<polygon fill="#191970" stroke="#191970" points="833.0581,-155.4409 840.6818,-148.0836 830.134,-149.0809 833.0581,-155.4409"/>
</g>
<!-- Node9 -->
<g id="node10" class="node">
<title>Node9</title>
<g id="a_node10"><a xlink:href="grammar_8h.html" target="_top" xlink:title="Implementations for the RNA folding grammar. ">
<polygon fill="none" stroke="#000000" points="0,-129 0,-148 118,-148 118,-129 0,-129"/>
<text text-anchor="middle" x="59" y="-136" font-family="Helvetica,sans-Serif" font-size="10.00" fill="#000000">ViennaRNA/grammar.h</text>
</a>
</g>
</g>
<!-- Node1&#45;&gt;Node9 -->
<g id="edge26" class="edge">
<title>Node1&#45;&gt;Node9</title>
<path fill="none" stroke="#191970" d="M552.4262,-252.1738C421.9978,-244.7232 160.6838,-227.4623 123,-210 97.8389,-198.3406 76.1868,-174.2605 65.1891,-157.2758"/>
<polygon fill="#191970" stroke="#191970" points="68.0157,-155.1699 59.999,-148.243 61.9463,-158.6573 68.0157,-155.1699"/>
</g>
<!-- Node10 -->
<g id="node11" class="node">
<title>Node10</title>
<g id="a_node11"><a xlink:href="structured__domains_8h.html" target="_top" xlink:title="This module provides interfaces that deal with additional structured domains in the folding grammar...">
<polygon fill="none" stroke="#000000" points="174.5,-123.5 174.5,-153.5 289.5,-153.5 289.5,-123.5 174.5,-123.5"/>
<text text-anchor="start" x="182.5" y="-141.5" font-family="Helvetica,sans-Serif" font-size="10.00" fill="#000000">ViennaRNA/structured</text>
<text text-anchor="middle" x="232" y="-130.5" font-family="Helvetica,sans-Serif" font-size="10.00" fill="#000000">_domains.h</text>
</a>
</g>
</g>
<!-- Node1&#45;&gt;Node10 -->
<g id="edge27" class="edge">
<title>Node1&#45;&gt;Node10</title>
<path fill="none" stroke="#191970" d="M552.4486,-247.9528C501.9153,-241.1033 433.7825,-229.2393 376,-210 336.4512,-196.8318 294.0411,-174.6956 265.5664,-158.5356"/>
<polygon fill="#191970" stroke="#191970" points="267.2467,-155.4645 256.8323,-153.5177 263.7596,-161.5341 267.2467,-155.4645"/>
</g>
<!-- Node11 -->
<g id="node12" class="node">
<title>Node11</title>
<g id="a_node12"><a xlink:href="unstructured__domains_8h.html" target="_top" xlink:title="Functions to modify unstructured domains, e.g. to incorporate ligands binding to unpaired stretches...">
<polygon fill="none" stroke="#000000" points="654.5,-123.5 654.5,-153.5 779.5,-153.5 779.5,-123.5 654.5,-123.5"/>
<text text-anchor="start" x="662.5" y="-141.5" font-family="Helvetica,sans-Serif" font-size="10.00" fill="#000000">ViennaRNA/unstructured</text>
<text text-anchor="middle" x="717" y="-130.5" font-family="Helvetica,sans-Serif" font-size="10.00" fill="#000000">_domains.h</text>
</a>
</g>
</g>
<!-- Node1&#45;&gt;Node11 -->
<g id="edge28" class="edge">
<title>Node1&#45;&gt;Node11</title>
<path fill="none" stroke="#191970" d="M629.5351,-246.3845C640.6302,-227.9865 671.5832,-187.341 693.6776,-161.5272"/>
<polygon fill="#191970" stroke="#191970" points="696.5598,-163.5479 700.5034,-153.7143 691.2882,-158.9424 696.5598,-163.5479"/>
</g>
<!-- Node12 -->
<g id="node13" class="node">
<title>Node12</title>
<g id="a_node13"><a xlink:href="structure__utils_8h.html" target="_top" xlink:title="Various utility&#45; and helper&#45;functions for secondary structure parsing, converting, etc. ">
<polygon fill="none" stroke="#000000" points="913,-56.5 913,-86.5 1023,-86.5 1023,-56.5 913,-56.5"/>
<text text-anchor="start" x="921" y="-74.5" font-family="Helvetica,sans-Serif" font-size="10.00" fill="#000000">ViennaRNA/structure</text>
<text text-anchor="middle" x="968" y="-63.5" font-family="Helvetica,sans-Serif" font-size="10.00" fill="#000000">_utils.h</text>
</a>
</g>
</g>
<!-- Node1&#45;&gt;Node12 -->
<g id="edge29" class="edge">
<title>Node1&#45;&gt;Node12</title>
<path fill="none" stroke="#191970" d="M666.2585,-246.4482C740.0764,-229.4132 892.5,-191.9986 931,-154 946.3882,-138.8122 953.3216,-114.863 958.0111,-96.6721"/>
<polygon fill="#191970" stroke="#191970" points="961.4651,-97.2929 960.5599,-86.7368 954.6847,-95.5534 961.4651,-97.2929"/>
</g>
<!-- Node3 -->
<g id="node4" class="node">
<title>Node3</title>
<polygon fill="none" stroke="#bfbfbf" points="588,-.5 588,-19.5 636,-19.5 636,-.5 588,-.5"/>
<text text-anchor="middle" x="612" y="-7.5" font-family="Helvetica,sans-Serif" font-size="10.00" fill="#000000">limits.h</text>
</g>
<!-- Node2&#45;&gt;Node3 -->
<g id="edge3" class="edge">
<title>Node2&#45;&gt;Node3</title>
<path fill="none" stroke="#191970" d="M612,-61.8906C612,-53.3657 612,-40.6392 612,-29.9235"/>
<polygon fill="#191970" stroke="#191970" points="615.5001,-29.7448 612,-19.7449 608.5001,-29.7449 615.5001,-29.7448"/>
</g>
<!-- Node4&#45;&gt;Node0 -->
<g id="edge13" class="edge">
<title>Node4&#45;&gt;Node0</title>
<path fill="none" stroke="#191970" d="M406.7052,-209.5212C323.4854,-227.0895 173.8241,-268.7792 231,-333 251.9026,-356.4781 442.9839,-369.8322 551.5256,-375.5843"/>
<polygon fill="#191970" stroke="#191970" points="551.5949,-379.0926 561.7634,-376.1173 551.959,-372.102 551.5949,-379.0926"/>
</g>
<!-- Node4&#45;&gt;Node5 -->
<g id="edge5" class="edge">
<title>Node4&#45;&gt;Node5</title>
<path fill="none" stroke="#191970" d="M458,-190.3416C458,-169.4114 458,-119.504 458,-91.4762"/>
<polygon fill="#191970" stroke="#191970" points="461.5001,-91.2704 458,-81.2705 454.5001,-91.2705 461.5001,-91.2704"/>
</g>
<!-- Node4&#45;&gt;Node6 -->
<g id="edge6" class="edge">
<title>Node4&#45;&gt;Node6</title>
<path fill="none" stroke="#191970" d="M471.125,-190.3906C484.44,-180.6421 505.2594,-165.3994 520.8947,-153.9521"/>
<polygon fill="#191970" stroke="#191970" points="522.9661,-156.7734 528.9672,-148.0419 518.8309,-151.1253 522.9661,-156.7734"/>
</g>
<!-- Node7 -->
<g id="node8" class="node">
<title>Node7</title>
<g id="a_node8"><a xlink:href="sequence_8h.html" target="_top" xlink:title="Functions and data structures related to sequence representations. ">
<polygon fill="none" stroke="#000000" points="308,-129 308,-148 430,-148 430,-129 308,-129"/>
<text text-anchor="middle" x="369" y="-136" font-family="Helvetica,sans-Serif" font-size="10.00" fill="#000000">ViennaRNA/sequence.h</text>
</a>
</g>
</g>
<!-- Node4&#45;&gt;Node7 -->
<g id="edge10" class="edge">
<title>Node4&#45;&gt;Node7</title>
<path fill="none" stroke="#191970" d="M444.0938,-190.3906C429.9862,-180.6421 407.9276,-165.3994 391.3615,-153.9521"/>
<polygon fill="#191970" stroke="#191970" points="393.0253,-150.8474 382.8086,-148.0419 389.0458,-156.6063 393.0253,-150.8474"/>
</g>
<!-- Node4&#45;&gt;Node8 -->
<g id="edge11" class="edge">
<title>Node4&#45;&gt;Node8</title>
<path fill="none" stroke="#191970" d="M531.1821,-191.2316C598.3961,-182.8461 700.6694,-169.2483 789,-154 795.8664,-152.8147 803.0645,-151.4651 810.1708,-150.0682"/>
<polygon fill="#191970" stroke="#191970" points="811.3518,-153.401 820.4674,-148.0013 809.9741,-146.5379 811.3518,-153.401"/>
</g>
<!-- Node4&#45;&gt;Node9 -->
<g id="edge14" class="edge">
<title>Node4&#45;&gt;Node9</title>
<path fill="none" stroke="#191970" d="M396.094,-190.4581C323.5076,-179.27 203.5399,-160.7787 128.0156,-149.1377"/>
<polygon fill="#191970" stroke="#191970" points="128.5365,-145.6768 118.12,-147.6125 127.4701,-152.5951 128.5365,-145.6768"/>
</g>
<!-- Node4&#45;&gt;Node10 -->
<g id="edge16" class="edge">
<title>Node4&#45;&gt;Node10</title>
<path fill="none" stroke="#191970" d="M422.6875,-190.3906C389.1983,-181.2774 338.0646,-167.3627 297.1755,-156.2358"/>
<polygon fill="#191970" stroke="#191970" points="297.854,-152.7932 287.2858,-153.5446 296.0159,-159.5476 297.854,-152.7932"/>
</g>
<!-- Node4&#45;&gt;Node11 -->
<g id="edge17" class="edge">
<title>Node4&#45;&gt;Node11</title>
<path fill="none" stroke="#191970" d="M498.1846,-190.4581C537.184,-181.1976 597.2545,-166.9338 644.5961,-155.6924"/>
<polygon fill="#191970" stroke="#191970" points="645.5721,-159.0581 654.493,-153.3424 643.9549,-152.2474 645.5721,-159.0581"/>
</g>
<!-- Node6&#45;&gt;Node1 -->
<g id="edge8" class="edge">
<title>Node6&#45;&gt;Node1</title>
<path fill="none" stroke="#191970" d="M552.9035,-148.2484C570.2105,-167.8124 602.2868,-212.1449 617.806,-237.4263"/>
<polygon fill="#191970" stroke="#191970" points="614.9723,-239.5143 623.0377,-246.3845 621.0169,-235.9841 614.9723,-239.5143"/>
</g>
<!-- Node6&#45;&gt;Node2 -->
<g id="edge7" class="edge">
<title>Node6&#45;&gt;Node2</title>
<path fill="none" stroke="#191970" d="M552.0293,-128.9005C563.1531,-118.2535 581.2987,-100.8856 594.721,-88.0385"/>
<polygon fill="#191970" stroke="#191970" points="597.1852,-90.5247 601.9893,-81.0817 592.345,-85.4678 597.1852,-90.5247"/>
</g>
<!-- Node6&#45;&gt;Node5 -->
<g id="edge9" class="edge">
<title>Node6&#45;&gt;Node5</title>
<path fill="none" stroke="#191970" d="M529.9648,-128.9005C516.3668,-118.0544 494.0246,-100.2339 477.8376,-87.3229"/>
<polygon fill="#191970" stroke="#191970" points="480.0131,-84.5811 470.0128,-81.0817 475.6481,-90.0535 480.0131,-84.5811"/>
</g>
<!-- Node8&#45;&gt;Node1 -->
<g id="edge12" class="edge">
<title>Node8&#45;&gt;Node1</title>
<path fill="none" stroke="#191970" d="M848.4945,-148.0836C810.0023,-168.8484 710.5331,-218.0601 658.5222,-242.1844"/>
<polygon fill="#191970" stroke="#191970" points="657.0116,-239.0267 649.3884,-246.3845 659.9361,-245.3865 657.0116,-239.0267"/>
</g>
<!-- Node9&#45;&gt;Node1 -->
<g id="edge15" class="edge">
<title>Node9&#45;&gt;Node1</title>
<path fill="none" stroke="#191970" d="M70.9832,-148.243C85.823,-164.33 110.9008,-196.0523 141,-210 176.6915,-226.5391 412.992,-242.8975 542.1536,-250.9113"/>
<polygon fill="#191970" stroke="#191970" points="542.2088,-254.4212 552.4054,-251.5438 542.6399,-247.4345 542.2088,-254.4212"/>
</g>
<!-- Node11&#45;&gt;Node1 -->
<g id="edge18" class="edge">
<title>Node11&#45;&gt;Node1</title>
<path fill="none" stroke="#191970" d="M709.9307,-153.7143C695.6208,-175.5955 664.5329,-215.8351 644.2793,-238.7797"/>
<polygon fill="#191970" stroke="#191970" points="641.5007,-236.6328 637.3587,-246.3845 646.6779,-241.3442 641.5007,-236.6328"/>
</g>
<!-- Node11&#45;&gt;Node12 -->
<g id="edge19" class="edge">
<title>Node11&#45;&gt;Node12</title>
<path fill="none" stroke="#191970" d="M773.3293,-123.4639C811.7853,-113.1987 862.8425,-99.5699 903.0198,-88.8453"/>
<polygon fill="#191970" stroke="#191970" points="903.9638,-92.216 912.7228,-86.2553 902.1584,-85.4528 903.9638,-92.216"/>
</g>
<!-- Node12&#45;&gt;Node1 -->
<g id="edge21" class="edge">
<title>Node12&#45;&gt;Node1</title>
<path fill="none" stroke="#191970" d="M973.1952,-86.7368C973.7174,-105.1249 967.4083,-135.8314 949,-154 912.0039,-190.5143 769.8106,-226.4893 686.8557,-244.3598"/>
<polygon fill="#191970" stroke="#191970" points="686.0962,-240.943 677.0439,-246.4482 687.5535,-247.7896 686.0962,-240.943"/>
</g>
<!-- Node13 -->
<g id="node14" class="node">
<title>Node13</title>
<polygon fill="none" stroke="#bfbfbf" points="945,-.5 945,-19.5 991,-19.5 991,-.5 945,-.5"/>
<text text-anchor="middle" x="968" y="-7.5" font-family="Helvetica,sans-Serif" font-size="10.00" fill="#000000">stdio.h</text>
</g>
<!-- Node12&#45;&gt;Node13 -->
<g id="edge20" class="edge">
<title>Node12&#45;&gt;Node13</title>
<path fill="none" stroke="#191970" d="M968,-56.2977C968,-48.3834 968,-38.6043 968,-30.0759"/>
<polygon fill="#191970" stroke="#191970" points="971.5001,-29.8469 968,-19.8469 964.5001,-29.847 971.5001,-29.8469"/>
</g>
<!-- Node14&#45;&gt;Node1 -->
<g id="edge31" class="edge">
<title>Node14&#45;&gt;Node1</title>
<path fill="none" stroke="#191970" d="M736.2844,-302.4554C712.3513,-292.374 681.1095,-279.2139 657.9906,-269.4755"/>
<polygon fill="#191970" stroke="#191970" points="659.1993,-266.1868 648.6248,-265.5303 656.4819,-272.6379 659.1993,-266.1868"/>
</g>
<!-- Node15&#45;&gt;Node1 -->
<g id="edge33" class="edge">
<title>Node15&#45;&gt;Node1</title>
<path fill="none" stroke="#191970" d="M849.306,-303.846C846.4989,-303.2188 843.7193,-302.6008 841,-302 786.7113,-290.0056 724.5997,-276.7689 681.1413,-267.5863"/>
<polygon fill="#191970" stroke="#191970" points="681.8451,-264.1579 671.3378,-265.5168 680.3992,-271.0069 681.8451,-264.1579"/>
</g>
<!-- Node16&#45;&gt;Node1 -->
<g id="edge35" class="edge">
<title>Node16&#45;&gt;Node1</title>
<path fill="none" stroke="#191970" d="M359.8048,-303.8971C362.912,-303.2431 365.9912,-302.6069 369,-302 433.149,-289.0604 506.6829,-276.0851 558.6132,-267.23"/>
<polygon fill="#191970" stroke="#191970" points="559.43,-270.6415 568.7021,-265.5151 558.2569,-263.7404 559.43,-270.6415"/>
</g>
<!-- Node17&#45;&gt;Node1 -->
<g id="edge37" class="edge">
<title>Node17&#45;&gt;Node1</title>
<path fill="none" stroke="#191970" d="M484.7453,-302.4554C516.2205,-292.104 557.5649,-278.5067 587.3824,-268.7004"/>
<polygon fill="#191970" stroke="#191970" points="588.6157,-271.9793 597.0216,-265.5303 586.4287,-265.3297 588.6157,-271.9793"/>
</g>
<!-- Node18&#45;&gt;Node1 -->
<g id="edge39" class="edge">
<title>Node18&#45;&gt;Node1</title>
<path fill="none" stroke="#191970" d="M589.8652,-302.2977C596.5975,-293.672 605.0585,-282.8312 612.1006,-273.8087"/>
<polygon fill="#191970" stroke="#191970" points="614.921,-275.8836 618.3146,-265.8469 609.4027,-271.5766 614.921,-275.8836"/>
</g>
</g>
</svg>
