<?xml version="1.0" encoding="UTF-8" standalone="no"?>
<!DOCTYPE svg PUBLIC "-//W3C//DTD SVG 1.1//EN"
 "http://www.w3.org/Graphics/SVG/1.1/DTD/svg11.dtd">
<!-- Generated by graphviz version 2.40.1 (20161225.0304)
 -->
<!-- Title: ViennaRNA/dp_matrices.h Pages: 1 -->
<svg width="1453pt" height="330pt"
 viewBox="0.00 0.00 1452.50 330.00" xmlns="http://www.w3.org/2000/svg" xmlns:xlink="http://www.w3.org/1999/xlink">
<g id="graph0" class="graph" transform="scale(1 1) rotate(0) translate(4 326)">
<title>ViennaRNA/dp_matrices.h</title>
<!-- Node0 -->
<g id="node1" class="node">
<title>Node0</title>
<polygon fill="#bfbfbf" stroke="#000000" points="650.5,-302.5 650.5,-321.5 783.5,-321.5 783.5,-302.5 650.5,-302.5"/>
<text text-anchor="middle" x="717" y="-309.5" font-family="Helvetica,sans-Serif" font-size="10.00" fill="#000000">ViennaRNA/dp_matrices.h</text>
</g>
<!-- Node1 -->
<g id="node2" class="node">
<title>Node1</title>
<g id="a_node2"><a xlink:href="data__structures_8h.html" target="_top" xlink:title="Various data structures and pre&#45;processor macros. ">
<polygon fill="none" stroke="#000000" points="643.5,-246.5 643.5,-265.5 790.5,-265.5 790.5,-246.5 643.5,-246.5"/>
<text text-anchor="middle" x="717" y="-253.5" font-family="Helvetica,sans-Serif" font-size="10.00" fill="#000000">ViennaRNA/data_structures.h</text>
</a>
</g>
</g>
<!-- Node0&#45;&gt;Node1 -->
<g id="edge1" class="edge">
<title>Node0&#45;&gt;Node1</title>
<path fill="none" stroke="#191970" d="M711.7332,-302.2455C710.3221,-294.9382 709.9179,-284.6944 710.5205,-275.7046"/>
<polygon fill="#191970" stroke="#191970" points="714.0111,-275.9945 711.7549,-265.6427 707.0632,-275.1421 714.0111,-275.9945"/>
</g>
<!-- Node1&#45;&gt;Node0 -->
<g id="edge34" class="edge">
<title>Node1&#45;&gt;Node0</title>
<path fill="none" stroke="#191970" d="M722.2451,-265.6427C723.6665,-272.9199 724.081,-283.155 723.4887,-292.1575"/>
<polygon fill="#191970" stroke="#191970" points="719.9947,-291.8972 722.2668,-302.2455 726.9439,-292.739 719.9947,-291.8972"/>
</g>
<!-- Node2 -->
<g id="node3" class="node">
<title>Node2</title>
<g id="a_node3"><a xlink:href="energy__const_8h.html" target="_top" xlink:title="Energy parameter constants. ">
<polygon fill="none" stroke="#000000" points="489,-62 489,-81 627,-81 627,-62 489,-62"/>
<text text-anchor="middle" x="558" y="-69" font-family="Helvetica,sans-Serif" font-size="10.00" fill="#000000">ViennaRNA/energy_const.h</text>
</a>
</g>
</g>
<!-- Node1&#45;&gt;Node2 -->
<g id="edge2" class="edge">
<title>Node1&#45;&gt;Node2</title>
<path fill="none" stroke="#191970" d="M709.485,-246.4591C691.9884,-224.3479 646.9747,-168.0498 607,-123 596.5294,-111.2 584.2982,-98.3437 574.6753,-88.4281"/>
<polygon fill="#191970" stroke="#191970" points="577.0911,-85.8924 567.6005,-81.1828 572.0827,-90.7828 577.0911,-85.8924"/>
</g>
<!-- Node4 -->
<g id="node5" class="node">
<title>Node4</title>
<g id="a_node5"><a xlink:href="fold__compound_8h.html" target="_top" xlink:title="The Basic Fold Compound API. ">
<polygon fill="none" stroke="#000000" points="273,-190.5 273,-209.5 419,-209.5 419,-190.5 273,-190.5"/>
<text text-anchor="middle" x="346" y="-197.5" font-family="Helvetica,sans-Serif" font-size="10.00" fill="#000000">ViennaRNA/fold_compound.h</text>
</a>
</g>
</g>
<!-- Node1&#45;&gt;Node4 -->
<g id="edge4" class="edge">
<title>Node1&#45;&gt;Node4</title>
<path fill="none" stroke="#191970" d="M653.6444,-246.4369C588.6833,-236.6314 487.7464,-221.3957 419.3596,-211.0731"/>
<polygon fill="#191970" stroke="#191970" points="419.5047,-207.5555 409.0943,-209.5237 418.4599,-214.4771 419.5047,-207.5555"/>
</g>
<!-- Node5 -->
<g id="node6" class="node">
<title>Node5</title>
<g id="a_node6"><a xlink:href="model_8h.html" target="_top" xlink:title="The model details data structure and its corresponding modifiers. ">
<polygon fill="none" stroke="#000000" points="365,-62 365,-81 471,-81 471,-62 365,-62"/>
<text text-anchor="middle" x="418" y="-69" font-family="Helvetica,sans-Serif" font-size="10.00" fill="#000000">ViennaRNA/model.h</text>
</a>
</g>
</g>
<!-- Node1&#45;&gt;Node5 -->
<g id="edge32" class="edge">
<title>Node1&#45;&gt;Node5</title>
<path fill="none" stroke="#191970" d="M674.0561,-246.4231C622.356,-233.091 535.2326,-204.6703 477,-154 455.8164,-135.5674 438.1303,-108.0861 427.8043,-89.982"/>
<polygon fill="#191970" stroke="#191970" points="430.7463,-88.0691 422.8494,-81.0058 424.618,-91.452 430.7463,-88.0691"/>
</g>
<!-- Node6 -->
<g id="node7" class="node">
<title>Node6</title>
<g id="a_node7"><a xlink:href="params_8h.html" target="_top" xlink:title="Functions to deal with sets of energy parameters. ">
<polygon fill="none" stroke="#000000" points="486,-129 486,-148 598,-148 598,-129 486,-129"/>
<text text-anchor="middle" x="542" y="-136" font-family="Helvetica,sans-Serif" font-size="10.00" fill="#000000">ViennaRNA/params.h</text>
</a>
</g>
</g>
<!-- Node1&#45;&gt;Node6 -->
<g id="edge33" class="edge">
<title>Node1&#45;&gt;Node6</title>
<path fill="none" stroke="#191970" d="M679.9425,-246.4784C656.4355,-238.6318 626.4169,-226.1739 603,-210 581.2535,-194.9798 560.6314,-172.5594 549.3671,-156.8396"/>
<polygon fill="#191970" stroke="#191970" points="552.2874,-154.9102 543.8784,-148.465 546.4327,-158.7473 552.2874,-154.9102"/>
</g>
<!-- Node8 -->
<g id="node9" class="node">
<title>Node8</title>
<g id="a_node9"><a xlink:href="constraints_8h.html" target="_top" xlink:title="Functions and data structures for constraining secondary structure predictions and evaluation...">
<polygon fill="none" stroke="#000000" points="930,-129 930,-148 1058,-148 1058,-129 930,-129"/>
<text text-anchor="middle" x="994" y="-136" font-family="Helvetica,sans-Serif" font-size="10.00" fill="#000000">ViennaRNA/constraints.h</text>
</a>
</g>
</g>
<!-- Node1&#45;&gt;Node8 -->
<g id="edge35" class="edge">
<title>Node1&#45;&gt;Node8</title>
<path fill="none" stroke="#191970" d="M790.5824,-246.7954C827.0933,-240.2072 870.9158,-228.9953 907,-210 932.9833,-196.322 956.9285,-171.8496 973.4416,-155.3952"/>
<polygon fill="#191970" stroke="#191970" points="976.2447,-157.548 980.9274,-148.0441 971.3401,-152.5535 976.2447,-157.548"/>
</g>
<!-- Node14 -->
<g id="node15" class="node">
<title>Node14</title>
<g id="a_node15"><a xlink:href="grammar_8h.html" target="_top" xlink:title="Implementations for the RNA folding grammar. ">
<polygon fill="none" stroke="#000000" points="0,-129 0,-148 118,-148 118,-129 0,-129"/>
<text text-anchor="middle" x="59" y="-136" font-family="Helvetica,sans-Serif" font-size="10.00" fill="#000000">ViennaRNA/grammar.h</text>
</a>
</g>
</g>
<!-- Node1&#45;&gt;Node14 -->
<g id="edge36" class="edge">
<title>Node1&#45;&gt;Node14</title>
<path fill="none" stroke="#191970" d="M643.292,-254.0692C551.2236,-250.4027 389.6661,-239.8868 255,-210 192.0021,-196.0187 121.5818,-168.7604 84.5331,-152.2361"/>
<polygon fill="#191970" stroke="#191970" points="85.9799,-149.0492 75.4295,-148.0804 83.0731,-155.4171 85.9799,-149.0492"/>
</g>
<!-- Node15 -->
<g id="node16" class="node">
<title>Node15</title>
<g id="a_node16"><a xlink:href="structured__domains_8h.html" target="_top" xlink:title="This module provides interfaces that deal with additional structured domains in the folding grammar...">
<polygon fill="none" stroke="#000000" points="314.5,-123.5 314.5,-153.5 429.5,-153.5 429.5,-123.5 314.5,-123.5"/>
<text text-anchor="start" x="322.5" y="-141.5" font-family="Helvetica,sans-Serif" font-size="10.00" fill="#000000">ViennaRNA/structured</text>
<text text-anchor="middle" x="372" y="-130.5" font-family="Helvetica,sans-Serif" font-size="10.00" fill="#000000">_domains.h</text>
</a>
</g>
</g>
<!-- Node1&#45;&gt;Node15 -->
<g id="edge37" class="edge">
<title>Node1&#45;&gt;Node15</title>
<path fill="none" stroke="#191970" d="M643.2347,-250.7237C593.0408,-245.1133 526.0046,-233.5916 471,-210 442.6983,-197.8614 414.642,-176.4797 395.6636,-160.2514"/>
<polygon fill="#191970" stroke="#191970" points="397.9452,-157.5972 388.1116,-153.6539 393.3399,-162.8689 397.9452,-157.5972"/>
</g>
<!-- Node16 -->
<g id="node17" class="node">
<title>Node16</title>
<g id="a_node17"><a xlink:href="unstructured__domains_8h.html" target="_top" xlink:title="Functions to modify unstructured domains, e.g. to incorporate ligands binding to unpaired stretches...">
<polygon fill="none" stroke="#000000" points="654.5,-123.5 654.5,-153.5 779.5,-153.5 779.5,-123.5 654.5,-123.5"/>
<text text-anchor="start" x="662.5" y="-141.5" font-family="Helvetica,sans-Serif" font-size="10.00" fill="#000000">ViennaRNA/unstructured</text>
<text text-anchor="middle" x="717" y="-130.5" font-family="Helvetica,sans-Serif" font-size="10.00" fill="#000000">_domains.h</text>
</a>
</g>
</g>
<!-- Node1&#45;&gt;Node16 -->
<g id="edge38" class="edge">
<title>Node1&#45;&gt;Node16</title>
<path fill="none" stroke="#191970" d="M713.0882,-246.3845C710.0302,-228.544 709.4433,-189.7839 711.3275,-163.9138"/>
<polygon fill="#191970" stroke="#191970" points="714.835,-163.998 712.2863,-153.7143 707.8657,-163.3428 714.835,-163.998"/>
</g>
<!-- Node17 -->
<g id="node18" class="node">
<title>Node17</title>
<g id="a_node18"><a xlink:href="structure__utils_8h.html" target="_top" xlink:title="Various utility&#45; and helper&#45;functions for secondary structure parsing, converting, etc. ">
<polygon fill="none" stroke="#000000" points="645,-56.5 645,-86.5 755,-86.5 755,-56.5 645,-56.5"/>
<text text-anchor="start" x="653" y="-74.5" font-family="Helvetica,sans-Serif" font-size="10.00" fill="#000000">ViennaRNA/structure</text>
<text text-anchor="middle" x="700" y="-63.5" font-family="Helvetica,sans-Serif" font-size="10.00" fill="#000000">_utils.h</text>
</a>
</g>
</g>
<!-- Node1&#45;&gt;Node17 -->
<g id="edge39" class="edge">
<title>Node1&#45;&gt;Node17</title>
<path fill="none" stroke="#191970" d="M724.8862,-246.222C747.5323,-224.0789 806.2345,-168.4906 780,-123 772.2466,-109.5556 759.4951,-99.3032 746.3869,-91.6254"/>
<polygon fill="#191970" stroke="#191970" points="747.7726,-88.3956 737.3121,-86.7137 744.4406,-94.5518 747.7726,-88.3956"/>
</g>
<!-- Node3 -->
<g id="node4" class="node">
<title>Node3</title>
<polygon fill="none" stroke="#bfbfbf" points="534,-.5 534,-19.5 582,-19.5 582,-.5 534,-.5"/>
<text text-anchor="middle" x="558" y="-7.5" font-family="Helvetica,sans-Serif" font-size="10.00" fill="#000000">limits.h</text>
</g>
<!-- Node2&#45;&gt;Node3 -->
<g id="edge3" class="edge">
<title>Node2&#45;&gt;Node3</title>
<path fill="none" stroke="#191970" d="M558,-61.8906C558,-53.3657 558,-40.6392 558,-29.9235"/>
<polygon fill="#191970" stroke="#191970" points="561.5001,-29.7448 558,-19.7449 554.5001,-29.7449 561.5001,-29.7448"/>
</g>
<!-- Node4&#45;&gt;Node0 -->
<g id="edge11" class="edge">
<title>Node4&#45;&gt;Node0</title>
<path fill="none" stroke="#191970" d="M377.5512,-209.5249C444.4238,-229.7128 600.4061,-276.8018 675.3495,-299.4263"/>
<polygon fill="#191970" stroke="#191970" points="674.7839,-302.9115 685.3687,-302.4509 676.807,-296.2102 674.7839,-302.9115"/>
</g>
<!-- Node4&#45;&gt;Node5 -->
<g id="edge5" class="edge">
<title>Node4&#45;&gt;Node5</title>
<path fill="none" stroke="#191970" d="M334.4689,-190.4493C317.9572,-175.5844 291.126,-146.2105 306,-123 318.1117,-104.1 339.1002,-92.042 359.6582,-84.3923"/>
<polygon fill="#191970" stroke="#191970" points="361.0244,-87.6243 369.3563,-81.0798 358.7617,-81 361.0244,-87.6243"/>
</g>
<!-- Node4&#45;&gt;Node6 -->
<g id="edge6" class="edge">
<title>Node4&#45;&gt;Node6</title>
<path fill="none" stroke="#191970" d="M376.625,-190.3906C410.2824,-179.8298 464.4899,-162.8208 501.6059,-151.1747"/>
<polygon fill="#191970" stroke="#191970" points="503.0966,-154.3753 511.5901,-148.0419 501.0009,-147.6963 503.0966,-154.3753"/>
</g>
<!-- Node7 -->
<g id="node8" class="node">
<title>Node7</title>
<g id="a_node8"><a xlink:href="sequence_8h.html" target="_top" xlink:title="Functions and data structures related to sequence representations. ">
<polygon fill="none" stroke="#000000" points="136,-129 136,-148 258,-148 258,-129 136,-129"/>
<text text-anchor="middle" x="197" y="-136" font-family="Helvetica,sans-Serif" font-size="10.00" fill="#000000">ViennaRNA/sequence.h</text>
</a>
</g>
</g>
<!-- Node4&#45;&gt;Node7 -->
<g id="edge10" class="edge">
<title>Node4&#45;&gt;Node7</title>
<path fill="none" stroke="#191970" d="M322.7188,-190.3906C297.679,-180.0554 257.6775,-163.5447 229.534,-151.9284"/>
<polygon fill="#191970" stroke="#191970" points="230.6967,-148.622 220.1178,-148.0419 228.026,-155.0925 230.6967,-148.622"/>
</g>
<!-- Node4&#45;&gt;Node8 -->
<g id="edge12" class="edge">
<title>Node4&#45;&gt;Node8</title>
<path fill="none" stroke="#191970" d="M419.0742,-193.0647C543.344,-181.2706 794.509,-157.4332 919.6448,-145.5569"/>
<polygon fill="#191970" stroke="#191970" points="920.2695,-149.0134 929.894,-144.5841 919.608,-142.0447 920.2695,-149.0134"/>
</g>
<!-- Node4&#45;&gt;Node14 -->
<g id="edge24" class="edge">
<title>Node4&#45;&gt;Node14</title>
<path fill="none" stroke="#191970" d="M299.384,-190.4489C255.0145,-181.3012 186.3937,-167.0058 127,-154 121.6034,-152.8183 115.9705,-151.5654 110.357,-150.3044"/>
<polygon fill="#191970" stroke="#191970" points="110.8541,-146.8286 100.3286,-148.0392 109.3117,-153.6565 110.8541,-146.8286"/>
</g>
<!-- Node4&#45;&gt;Node15 -->
<g id="edge26" class="edge">
<title>Node4&#45;&gt;Node15</title>
<path fill="none" stroke="#191970" d="M350.0625,-190.3906C353.1903,-182.9922 357.656,-172.4291 361.7428,-162.7623"/>
<polygon fill="#191970" stroke="#191970" points="364.9694,-164.1182 365.6397,-153.5446 358.5219,-161.3924 364.9694,-164.1182"/>
</g>
<!-- Node4&#45;&gt;Node16 -->
<g id="edge27" class="edge">
<title>Node4&#45;&gt;Node16</title>
<path fill="none" stroke="#191970" d="M403.5617,-190.4581C468.354,-179.7176 573.7478,-162.2467 644.2057,-150.567"/>
<polygon fill="#191970" stroke="#191970" points="645.0457,-153.9756 654.3387,-148.8873 643.9009,-147.0698 645.0457,-153.9756"/>
</g>
<!-- Node6&#45;&gt;Node1 -->
<g id="edge8" class="edge">
<title>Node6&#45;&gt;Node1</title>
<path fill="none" stroke="#191970" d="M555.1613,-148.2188C570.312,-163.1596 594.8426,-191.9332 621,-210 641.0324,-223.8363 665.8962,-234.9531 685.4174,-242.7899"/>
<polygon fill="#191970" stroke="#191970" points="684.2179,-246.079 694.8052,-246.4784 686.7778,-239.5639 684.2179,-246.079"/>
</g>
<!-- Node6&#45;&gt;Node2 -->
<g id="edge7" class="edge">
<title>Node6&#45;&gt;Node2</title>
<path fill="none" stroke="#191970" d="M544.2924,-128.9005C546.6449,-119.0495 550.3713,-103.4451 553.3454,-90.9912"/>
<polygon fill="#191970" stroke="#191970" points="556.7933,-91.6212 555.7118,-81.0817 549.9847,-89.9952 556.7933,-91.6212"/>
</g>
<!-- Node6&#45;&gt;Node5 -->
<g id="edge9" class="edge">
<title>Node6&#45;&gt;Node5</title>
<path fill="none" stroke="#191970" d="M524.2338,-128.9005C503.4238,-117.6564 468.7412,-98.9166 444.6913,-85.9219"/>
<polygon fill="#191970" stroke="#191970" points="446.1949,-82.7561 435.7332,-81.0817 442.8673,-88.9147 446.1949,-82.7561"/>
</g>
<!-- Node8&#45;&gt;Node1 -->
<g id="edge13" class="edge">
<title>Node8&#45;&gt;Node1</title>
<path fill="none" stroke="#191970" d="M992.0235,-148.0441C982.7105,-163.5514 955.2351,-194.0837 925,-210 886.9621,-230.0238 840.3252,-241.3985 800.8072,-247.8254"/>
<polygon fill="#191970" stroke="#191970" points="800.2703,-244.3667 790.9232,-249.355 801.3409,-251.2844 800.2703,-244.3667"/>
</g>
<!-- Node9 -->
<g id="node10" class="node">
<title>Node9</title>
<g id="a_node10"><a xlink:href="constraints__hard_8h.html" target="_top" xlink:title="Functions and data structures for handling of secondary structure hard constraints. ">
<polygon fill="none" stroke="#000000" points="773.5,-56.5 773.5,-86.5 892.5,-86.5 892.5,-56.5 773.5,-56.5"/>
<text text-anchor="start" x="781.5" y="-74.5" font-family="Helvetica,sans-Serif" font-size="10.00" fill="#000000">ViennaRNA/constraints</text>
<text text-anchor="middle" x="833" y="-63.5" font-family="Helvetica,sans-Serif" font-size="10.00" fill="#000000">_hard.h</text>
</a>
</g>
</g>
<!-- Node8&#45;&gt;Node9 -->
<g id="edge14" class="edge">
<title>Node8&#45;&gt;Node9</title>
<path fill="none" stroke="#191970" d="M970.9326,-128.9005C946.9245,-118.9096 908.6954,-103.0006 878.5663,-90.4624"/>
<polygon fill="#191970" stroke="#191970" points="879.6743,-87.1325 869.0971,-86.5218 876.9848,-93.5953 879.6743,-87.1325"/>
</g>
<!-- Node10 -->
<g id="node11" class="node">
<title>Node10</title>
<g id="a_node11"><a xlink:href="constraints__soft_8h.html" target="_top" xlink:title="Functions and data structures for secondary structure soft constraints. ">
<polygon fill="none" stroke="#000000" points="910.5,-56.5 910.5,-86.5 1029.5,-86.5 1029.5,-56.5 910.5,-56.5"/>
<text text-anchor="start" x="918.5" y="-74.5" font-family="Helvetica,sans-Serif" font-size="10.00" fill="#000000">ViennaRNA/constraints</text>
<text text-anchor="middle" x="970" y="-63.5" font-family="Helvetica,sans-Serif" font-size="10.00" fill="#000000">_soft.h</text>
</a>
</g>
</g>
<!-- Node8&#45;&gt;Node10 -->
<g id="edge16" class="edge">
<title>Node8&#45;&gt;Node10</title>
<path fill="none" stroke="#191970" d="M990.5614,-128.9005C987.4938,-120.3368 982.8687,-107.4252 978.7816,-96.0152"/>
<polygon fill="#191970" stroke="#191970" points="982.0482,-94.7557 975.3809,-86.5218 975.4583,-97.1163 982.0482,-94.7557"/>
</g>
<!-- Node11 -->
<g id="node12" class="node">
<title>Node11</title>
<g id="a_node12"><a xlink:href="constraints__SHAPE_8h.html" target="_top" xlink:title="This module provides function to incorporate SHAPE reactivity data into the folding recursions by mea...">
<polygon fill="none" stroke="#000000" points="1047.5,-56.5 1047.5,-86.5 1166.5,-86.5 1166.5,-56.5 1047.5,-56.5"/>
<text text-anchor="start" x="1055.5" y="-74.5" font-family="Helvetica,sans-Serif" font-size="10.00" fill="#000000">ViennaRNA/constraints</text>
<text text-anchor="middle" x="1107" y="-63.5" font-family="Helvetica,sans-Serif" font-size="10.00" fill="#000000">_SHAPE.h</text>
</a>
</g>
</g>
<!-- Node8&#45;&gt;Node11 -->
<g id="edge18" class="edge">
<title>Node8&#45;&gt;Node11</title>
<path fill="none" stroke="#191970" d="M1010.1901,-128.9005C1026.457,-119.2556 1052.0256,-104.0954 1072.8018,-91.7768"/>
<polygon fill="#191970" stroke="#191970" points="1074.8481,-94.6325 1081.6648,-86.5218 1071.278,-88.6113 1074.8481,-94.6325"/>
</g>
<!-- Node12 -->
<g id="node13" class="node">
<title>Node12</title>
<g id="a_node13"><a xlink:href="perturbation__fold_8h.html" target="_top" xlink:title="Find a vector of perturbation energies that minimizes the discripancies between predicted and observe...">
<polygon fill="none" stroke="#000000" points="1185,-56.5 1185,-86.5 1307,-86.5 1307,-56.5 1185,-56.5"/>
<text text-anchor="start" x="1193" y="-74.5" font-family="Helvetica,sans-Serif" font-size="10.00" fill="#000000">ViennaRNA/perturbation</text>
<text text-anchor="middle" x="1246" y="-63.5" font-family="Helvetica,sans-Serif" font-size="10.00" fill="#000000">_fold.h</text>
</a>
</g>
</g>
<!-- Node8&#45;&gt;Node12 -->
<g id="edge20" class="edge">
<title>Node8&#45;&gt;Node12</title>
<path fill="none" stroke="#191970" d="M1029.8378,-128.9717C1068.7384,-118.6291 1131.7169,-101.8848 1179.6861,-89.1311"/>
<polygon fill="#191970" stroke="#191970" points="1180.609,-92.5074 1189.3739,-86.5553 1178.8103,-85.7424 1180.609,-92.5074"/>
</g>
<!-- Node13 -->
<g id="node14" class="node">
<title>Node13</title>
<g id="a_node14"><a xlink:href="constraints__ligand_8h.html" target="_top" xlink:title="Functions for incorporation of ligands binding to hairpin and interior loop motifs using the soft con...">
<polygon fill="none" stroke="#000000" points="1325.5,-56.5 1325.5,-86.5 1444.5,-86.5 1444.5,-56.5 1325.5,-56.5"/>
<text text-anchor="start" x="1333.5" y="-74.5" font-family="Helvetica,sans-Serif" font-size="10.00" fill="#000000">ViennaRNA/constraints</text>
<text text-anchor="middle" x="1385" y="-63.5" font-family="Helvetica,sans-Serif" font-size="10.00" fill="#000000">_ligand.h</text>
</a>
</g>
</g>
<!-- Node8&#45;&gt;Node13 -->
<g id="edge22" class="edge">
<title>Node8&#45;&gt;Node13</title>
<path fill="none" stroke="#191970" d="M1058.0499,-129.4583C1120.9529,-120.3064 1219.8605,-105.1917 1315.1115,-87.1026"/>
<polygon fill="#191970" stroke="#191970" points="1316.0443,-90.4877 1325.2086,-85.171 1314.729,-83.6123 1316.0443,-90.4877"/>
</g>
<!-- Node9&#45;&gt;Node1 -->
<g id="edge15" class="edge">
<title>Node9&#45;&gt;Node1</title>
<path fill="none" stroke="#191970" d="M832.9866,-86.6161C832.1912,-114.1658 826.8369,-173.1018 797,-210 785.571,-224.1338 768.5597,-234.7747 753.1587,-242.2427"/>
<polygon fill="#191970" stroke="#191970" points="751.4921,-239.1558 743.8418,-246.4855 754.3931,-245.5264 751.4921,-239.1558"/>
</g>
<!-- Node10&#45;&gt;Node1 -->
<g id="edge17" class="edge">
<title>Node10&#45;&gt;Node1</title>
<path fill="none" stroke="#191970" d="M956.0641,-86.8926C930.574,-114.3717 873.8148,-172.4986 817,-210 796.9438,-223.2384 772.4615,-234.5706 752.7412,-242.675"/>
<polygon fill="#191970" stroke="#191970" points="751.1782,-239.5307 743.1981,-246.4999 753.7824,-246.0283 751.1782,-239.5307"/>
</g>
<!-- Node11&#45;&gt;Node1 -->
<g id="edge19" class="edge">
<title>Node11&#45;&gt;Node1</title>
<path fill="none" stroke="#191970" d="M1102.9519,-86.6811C1097.4619,-104.7303 1086.0849,-134.8165 1067,-154 1027.187,-194.0187 1006.5026,-191.999 953,-210 903.6084,-226.6178 846.2663,-237.9673 800.4736,-245.2348"/>
<polygon fill="#191970" stroke="#191970" points="799.9326,-241.7768 790.5877,-246.7691 801.0062,-248.694 799.9326,-241.7768"/>
</g>
<!-- Node12&#45;&gt;Node1 -->
<g id="edge21" class="edge">
<title>Node12&#45;&gt;Node1</title>
<path fill="none" stroke="#191970" d="M1224.9821,-86.6123C1183.6797,-115.5183 1088.0947,-178.5562 998,-210 933.8269,-232.397 857.5287,-244.005 800.6415,-249.9526"/>
<polygon fill="#191970" stroke="#191970" points="800.2099,-246.4782 790.6115,-250.9638 800.9122,-253.4429 800.2099,-246.4782"/>
</g>
<!-- Node13&#45;&gt;Node1 -->
<g id="edge23" class="edge">
<title>Node13&#45;&gt;Node1</title>
<path fill="none" stroke="#191970" d="M1353.9857,-86.6391C1293.917,-115.3077 1156.876,-177.5481 1035,-210 956.9697,-230.7771 865.508,-242.7652 800.7537,-249.2606"/>
<polygon fill="#191970" stroke="#191970" points="800.2073,-245.7973 790.5965,-250.2564 800.8903,-252.7639 800.2073,-245.7973"/>
</g>
<!-- Node14&#45;&gt;Node1 -->
<g id="edge25" class="edge">
<title>Node14&#45;&gt;Node1</title>
<path fill="none" stroke="#191970" d="M86.4698,-148.0804C126.9367,-163.7827 204.3725,-194.7693 273,-210 396.7241,-237.4584 543.147,-248.5659 633.1037,-253.0331"/>
<polygon fill="#191970" stroke="#191970" points="633.0917,-256.5364 643.2482,-253.5205 633.4278,-249.5445 633.0917,-256.5364"/>
</g>
<!-- Node16&#45;&gt;Node1 -->
<g id="edge28" class="edge">
<title>Node16&#45;&gt;Node1</title>
<path fill="none" stroke="#191970" d="M721.7137,-153.7143C724.2576,-174.8278 724.418,-213.0339 722.1947,-236.3022"/>
<polygon fill="#191970" stroke="#191970" points="718.7022,-236.0226 720.9118,-246.3845 725.6462,-236.9063 718.7022,-236.0226"/>
</g>
<!-- Node16&#45;&gt;Node17 -->
<g id="edge29" class="edge">
<title>Node16&#45;&gt;Node17</title>
<path fill="none" stroke="#191970" d="M713.1424,-123.2967C711.1428,-115.4156 708.6486,-105.5857 706.3721,-96.6135"/>
<polygon fill="#191970" stroke="#191970" points="709.6943,-95.4752 703.8423,-86.6432 702.9093,-97.1968 709.6943,-95.4752"/>
</g>
<!-- Node17&#45;&gt;Node1 -->
<g id="edge31" class="edge">
<title>Node17&#45;&gt;Node1</title>
<path fill="none" stroke="#191970" d="M753.9977,-86.7137C771.3437,-94.7414 788.4574,-106.453 798,-123 822.0824,-164.759 774.5915,-215.0269 742.481,-240.1216"/>
<polygon fill="#191970" stroke="#191970" points="740.2259,-237.4372 734.3032,-246.222 744.4114,-243.0481 740.2259,-237.4372"/>
</g>
<!-- Node18 -->
<g id="node19" class="node">
<title>Node18</title>
<polygon fill="none" stroke="#bfbfbf" points="677,-.5 677,-19.5 723,-19.5 723,-.5 677,-.5"/>
<text text-anchor="middle" x="700" y="-7.5" font-family="Helvetica,sans-Serif" font-size="10.00" fill="#000000">stdio.h</text>
</g>
<!-- Node17&#45;&gt;Node18 -->
<g id="edge30" class="edge">
<title>Node17&#45;&gt;Node18</title>
<path fill="none" stroke="#191970" d="M700,-56.2977C700,-48.3834 700,-38.6043 700,-30.0759"/>
<polygon fill="#191970" stroke="#191970" points="703.5001,-29.8469 700,-19.8469 696.5001,-29.847 703.5001,-29.8469"/>
</g>
</g>
</svg>
