<?xml version="1.0" encoding="UTF-8" standalone="no"?>
<!DOCTYPE svg PUBLIC "-//W3C//DTD SVG 1.1//EN"
 "http://www.w3.org/Graphics/SVG/1.1/DTD/svg11.dtd">
<!-- Generated by graphviz version 2.40.1 (20161225.0304)
 -->
<!-- Title: ViennaRNA/equilibrium_probs.h Pages: 1 -->
<svg width="1385pt" height="341pt"
 viewBox="0.00 0.00 1385.00 341.00" xmlns="http://www.w3.org/2000/svg" xmlns:xlink="http://www.w3.org/1999/xlink">
<g id="graph0" class="graph" transform="scale(1 1) rotate(0) translate(4 337)">
<title>ViennaRNA/equilibrium_probs.h</title>
<!-- Node0 -->
<g id="node1" class="node">
<title>Node0</title>
<polygon fill="#bfbfbf" stroke="#000000" points="304,-302.5 304,-332.5 422,-332.5 422,-302.5 304,-302.5"/>
<text text-anchor="start" x="312" y="-320.5" font-family="Helvetica,sans-Serif" font-size="10.00" fill="#000000">ViennaRNA/equilibrium</text>
<text text-anchor="middle" x="363" y="-309.5" font-family="Helvetica,sans-Serif" font-size="10.00" fill="#000000">_probs.h</text>
</g>
<!-- Node1 -->
<g id="node2" class="node">
<title>Node1</title>
<g id="a_node2"><a xlink:href="data__structures_8h.html" target="_top" xlink:title="Various data structures and pre&#45;processor macros. ">
<polygon fill="none" stroke="#000000" points="687.5,-246.5 687.5,-265.5 834.5,-265.5 834.5,-246.5 687.5,-246.5"/>
<text text-anchor="middle" x="761" y="-253.5" font-family="Helvetica,sans-Serif" font-size="10.00" fill="#000000">ViennaRNA/data_structures.h</text>
</a>
</g>
</g>
<!-- Node0&#45;&gt;Node1 -->
<g id="edge1" class="edge">
<title>Node0&#45;&gt;Node1</title>
<path fill="none" stroke="#191970" d="M422.1549,-308.3592C493.3416,-297.3593 612.805,-278.8995 689.204,-267.0941"/>
<polygon fill="#191970" stroke="#191970" points="689.8776,-270.5317 699.2258,-265.5455 688.8085,-263.6138 689.8776,-270.5317"/>
</g>
<!-- Node6 -->
<g id="node7" class="node">
<title>Node6</title>
<g id="a_node7"><a xlink:href="params_8h.html" target="_top" xlink:title="Functions to deal with sets of energy parameters. ">
<polygon fill="none" stroke="#000000" points="55,-129 55,-148 167,-148 167,-129 55,-129"/>
<text text-anchor="middle" x="111" y="-136" font-family="Helvetica,sans-Serif" font-size="10.00" fill="#000000">ViennaRNA/params.h</text>
</a>
</g>
</g>
<!-- Node0&#45;&gt;Node6 -->
<g id="edge41" class="edge">
<title>Node0&#45;&gt;Node6</title>
<path fill="none" stroke="#191970" d="M341.5146,-302.2386C294.1037,-268.5618 180.9414,-188.1806 133.0308,-154.1489"/>
<polygon fill="#191970" stroke="#191970" points="134.7951,-151.109 124.6156,-148.1714 130.7414,-156.8158 134.7951,-151.109"/>
</g>
<!-- Node2 -->
<g id="node3" class="node">
<title>Node2</title>
<g id="a_node3"><a xlink:href="energy__const_8h.html" target="_top" xlink:title="Energy parameter constants. ">
<polygon fill="none" stroke="#000000" points="0,-62 0,-81 138,-81 138,-62 0,-62"/>
<text text-anchor="middle" x="69" y="-69" font-family="Helvetica,sans-Serif" font-size="10.00" fill="#000000">ViennaRNA/energy_const.h</text>
</a>
</g>
</g>
<!-- Node1&#45;&gt;Node2 -->
<g id="edge2" class="edge">
<title>Node1&#45;&gt;Node2</title>
<path fill="none" stroke="#191970" d="M687.3226,-254.469C584.1752,-251.2296 391.2611,-241.1688 230,-210 146.072,-193.7783 96.8897,-222.6826 46,-154 31.8284,-134.8735 44.3766,-107.4048 55.7675,-89.5078"/>
<polygon fill="#191970" stroke="#191970" points="58.7445,-91.3542 61.4711,-81.1162 52.9551,-87.4193 58.7445,-91.3542"/>
</g>
<!-- Node4 -->
<g id="node5" class="node">
<title>Node4</title>
<g id="a_node5"><a xlink:href="fold__compound_8h.html" target="_top" xlink:title="The Basic Fold Compound API. ">
<polygon fill="none" stroke="#000000" points="555,-190.5 555,-209.5 701,-209.5 701,-190.5 555,-190.5"/>
<text text-anchor="middle" x="628" y="-197.5" font-family="Helvetica,sans-Serif" font-size="10.00" fill="#000000">ViennaRNA/fold_compound.h</text>
</a>
</g>
</g>
<!-- Node1&#45;&gt;Node4 -->
<g id="edge4" class="edge">
<title>Node1&#45;&gt;Node4</title>
<path fill="none" stroke="#191970" d="M738.1365,-246.3733C716.595,-237.3032 684.1162,-223.6279 660.0044,-213.4755"/>
<polygon fill="#191970" stroke="#191970" points="661.1397,-210.156 650.5652,-209.5011 658.4233,-216.6075 661.1397,-210.156"/>
</g>
<!-- Node5 -->
<g id="node6" class="node">
<title>Node5</title>
<g id="a_node6"><a xlink:href="model_8h.html" target="_top" xlink:title="The model details data structure and its corresponding modifiers. ">
<polygon fill="none" stroke="#000000" points="294,-62 294,-81 400,-81 400,-62 294,-62"/>
<text text-anchor="middle" x="347" y="-69" font-family="Helvetica,sans-Serif" font-size="10.00" fill="#000000">ViennaRNA/model.h</text>
</a>
</g>
</g>
<!-- Node1&#45;&gt;Node5 -->
<g id="edge33" class="edge">
<title>Node1&#45;&gt;Node5</title>
<path fill="none" stroke="#191970" d="M687.3795,-248.4519C619.2917,-240.5858 523.6995,-227.0334 490,-210 432.1358,-180.7526 382.2881,-119.998 359.7799,-89.6176"/>
<polygon fill="#191970" stroke="#191970" points="362.4005,-87.2697 353.6937,-81.2329 356.7355,-91.3817 362.4005,-87.2697"/>
</g>
<!-- Node1&#45;&gt;Node6 -->
<g id="edge34" class="edge">
<title>Node1&#45;&gt;Node6</title>
<path fill="none" stroke="#191970" d="M687.3864,-251.4701C573.964,-243.7779 362.2069,-227.3042 289,-210 231.4295,-196.3918 167.753,-169.2742 134.1812,-152.6255"/>
<polygon fill="#191970" stroke="#191970" points="135.6531,-149.4473 125.1542,-148.0242 132.4741,-155.6838 135.6531,-149.4473"/>
</g>
<!-- Node8 -->
<g id="node9" class="node">
<title>Node8</title>
<g id="a_node9"><a xlink:href="dp__matrices_8h.html" target="_top" xlink:title="Functions to deal with standard dynamic programming (DP) matrices. ">
<polygon fill="none" stroke="#000000" points="185.5,-129 185.5,-148 318.5,-148 318.5,-129 185.5,-129"/>
<text text-anchor="middle" x="252" y="-136" font-family="Helvetica,sans-Serif" font-size="10.00" fill="#000000">ViennaRNA/dp_matrices.h</text>
</a>
</g>
</g>
<!-- Node1&#45;&gt;Node8 -->
<g id="edge35" class="edge">
<title>Node1&#45;&gt;Node8</title>
<path fill="none" stroke="#191970" d="M687.3115,-253.6932C579.9695,-249.3296 386.8297,-237.6914 324,-210 296.918,-198.0639 272.4499,-173.6806 259.7683,-156.7274"/>
<polygon fill="#191970" stroke="#191970" points="262.4988,-154.5175 253.9938,-148.1997 256.7026,-158.4424 262.4988,-154.5175"/>
</g>
<!-- Node9 -->
<g id="node10" class="node">
<title>Node9</title>
<g id="a_node10"><a xlink:href="constraints_8h.html" target="_top" xlink:title="Functions and data structures for constraining secondary structure predictions and evaluation...">
<polygon fill="none" stroke="#000000" points="899,-129 899,-148 1027,-148 1027,-129 899,-129"/>
<text text-anchor="middle" x="963" y="-136" font-family="Helvetica,sans-Serif" font-size="10.00" fill="#000000">ViennaRNA/constraints.h</text>
</a>
</g>
</g>
<!-- Node1&#45;&gt;Node9 -->
<g id="edge36" class="edge">
<title>Node1&#45;&gt;Node9</title>
<path fill="none" stroke="#191970" d="M790.1429,-246.4691C814.3041,-238.8622 848.6691,-226.7037 876,-210 900.7854,-194.852 924.711,-171.1382 941.5036,-155.2197"/>
<polygon fill="#191970" stroke="#191970" points="944.2131,-157.4791 949.1467,-148.103 939.443,-152.356 944.2131,-157.4791"/>
</g>
<!-- Node15 -->
<g id="node16" class="node">
<title>Node15</title>
<g id="a_node16"><a xlink:href="grammar_8h.html" target="_top" xlink:title="Implementations for the RNA folding grammar. ">
<polygon fill="none" stroke="#000000" points="591,-129 591,-148 709,-148 709,-129 591,-129"/>
<text text-anchor="middle" x="650" y="-136" font-family="Helvetica,sans-Serif" font-size="10.00" fill="#000000">ViennaRNA/grammar.h</text>
</a>
</g>
</g>
<!-- Node1&#45;&gt;Node15 -->
<g id="edge37" class="edge">
<title>Node1&#45;&gt;Node15</title>
<path fill="none" stroke="#191970" d="M748.2381,-246.1061C736.0755,-232.7445 718.552,-208.4787 701,-190 689.0641,-177.434 674.3083,-164.7369 663.4963,-155.0941"/>
<polygon fill="#191970" stroke="#191970" points="665.5477,-152.228 655.8001,-148.0765 660.8312,-157.4006 665.5477,-152.228"/>
</g>
<!-- Node16 -->
<g id="node17" class="node">
<title>Node16</title>
<g id="a_node17"><a xlink:href="structured__domains_8h.html" target="_top" xlink:title="This module provides interfaces that deal with additional structured domains in the folding grammar...">
<polygon fill="none" stroke="#000000" points="727.5,-123.5 727.5,-153.5 842.5,-153.5 842.5,-123.5 727.5,-123.5"/>
<text text-anchor="start" x="735.5" y="-141.5" font-family="Helvetica,sans-Serif" font-size="10.00" fill="#000000">ViennaRNA/structured</text>
<text text-anchor="middle" x="785" y="-130.5" font-family="Helvetica,sans-Serif" font-size="10.00" fill="#000000">_domains.h</text>
</a>
</g>
</g>
<!-- Node1&#45;&gt;Node16 -->
<g id="edge38" class="edge">
<title>Node1&#45;&gt;Node16</title>
<path fill="none" stroke="#191970" d="M762.964,-246.3845C766.6243,-228.4644 774.5958,-189.4375 779.8797,-163.5681"/>
<polygon fill="#191970" stroke="#191970" points="783.3203,-164.2125 781.8924,-153.7143 776.4619,-162.8116 783.3203,-164.2125"/>
</g>
<!-- Node17 -->
<g id="node18" class="node">
<title>Node17</title>
<g id="a_node18"><a xlink:href="unstructured__domains_8h.html" target="_top" xlink:title="Functions to modify unstructured domains, e.g. to incorporate ligands binding to unpaired stretches...">
<polygon fill="none" stroke="#000000" points="1159.5,-123.5 1159.5,-153.5 1284.5,-153.5 1284.5,-123.5 1159.5,-123.5"/>
<text text-anchor="start" x="1167.5" y="-141.5" font-family="Helvetica,sans-Serif" font-size="10.00" fill="#000000">ViennaRNA/unstructured</text>
<text text-anchor="middle" x="1222" y="-130.5" font-family="Helvetica,sans-Serif" font-size="10.00" fill="#000000">_domains.h</text>
</a>
</g>
</g>
<!-- Node1&#45;&gt;Node17 -->
<g id="edge39" class="edge">
<title>Node1&#45;&gt;Node17</title>
<path fill="none" stroke="#191970" d="M834.7057,-252.2317C928.2722,-246.6928 1083.6052,-234.2708 1136,-210 1159.756,-198.9955 1181.076,-177.8584 1196.811,-161.4079"/>
<polygon fill="#191970" stroke="#191970" points="1199.7167,-163.4315 1204.073,-153.7736 1194.6448,-158.6069 1199.7167,-163.4315"/>
</g>
<!-- Node18 -->
<g id="node19" class="node">
<title>Node18</title>
<g id="a_node19"><a xlink:href="structure__utils_8h.html" target="_top" xlink:title="Various utility&#45; and helper&#45;functions for secondary structure parsing, converting, etc. ">
<polygon fill="none" stroke="#000000" points="1267,-56.5 1267,-86.5 1377,-86.5 1377,-56.5 1267,-56.5"/>
<text text-anchor="start" x="1275" y="-74.5" font-family="Helvetica,sans-Serif" font-size="10.00" fill="#000000">ViennaRNA/structure</text>
<text text-anchor="middle" x="1322" y="-63.5" font-family="Helvetica,sans-Serif" font-size="10.00" fill="#000000">_utils.h</text>
</a>
</g>
</g>
<!-- Node1&#45;&gt;Node18 -->
<g id="edge40" class="edge">
<title>Node1&#45;&gt;Node18</title>
<path fill="none" stroke="#191970" d="M834.8143,-250.651C935.7171,-243.1177 1111.0185,-228.2425 1173,-210 1226.3888,-194.2865 1248.4216,-195.944 1285,-154 1299.1274,-137.8003 1306.1984,-114.1634 1311.2334,-96.3383"/>
<polygon fill="#191970" stroke="#191970" points="1314.6296,-97.191 1314.0006,-86.6149 1307.897,-95.2749 1314.6296,-97.191"/>
</g>
<!-- Node3 -->
<g id="node4" class="node">
<title>Node3</title>
<polygon fill="none" stroke="#bfbfbf" points="45,-.5 45,-19.5 93,-19.5 93,-.5 45,-.5"/>
<text text-anchor="middle" x="69" y="-7.5" font-family="Helvetica,sans-Serif" font-size="10.00" fill="#000000">limits.h</text>
</g>
<!-- Node2&#45;&gt;Node3 -->
<g id="edge3" class="edge">
<title>Node2&#45;&gt;Node3</title>
<path fill="none" stroke="#191970" d="M69,-61.8906C69,-53.3657 69,-40.6392 69,-29.9235"/>
<polygon fill="#191970" stroke="#191970" points="72.5001,-29.7448 69,-19.7449 65.5001,-29.7449 72.5001,-29.7448"/>
</g>
<!-- Node4&#45;&gt;Node5 -->
<g id="edge5" class="edge">
<title>Node4&#45;&gt;Node5</title>
<path fill="none" stroke="#191970" d="M556.2898,-190.4165C520.5127,-183.6462 477.4292,-172.3895 442,-154 409.7424,-137.2568 379.287,-107.4296 361.9167,-88.5976"/>
<polygon fill="#191970" stroke="#191970" points="364.3968,-86.1215 355.1014,-81.0376 359.1976,-90.8086 364.3968,-86.1215"/>
</g>
<!-- Node4&#45;&gt;Node6 -->
<g id="edge6" class="edge">
<title>Node4&#45;&gt;Node6</title>
<path fill="none" stroke="#191970" d="M554.9694,-195.4612C465.4545,-189.2297 309.3436,-176.1943 177,-154 170.7535,-152.9524 164.2167,-151.6604 157.7878,-150.2729"/>
<polygon fill="#191970" stroke="#191970" points="158.3553,-146.8133 147.8313,-148.0356 156.8206,-153.6429 158.3553,-146.8133"/>
</g>
<!-- Node7 -->
<g id="node8" class="node">
<title>Node7</title>
<g id="a_node8"><a xlink:href="sequence_8h.html" target="_top" xlink:title="Functions and data structures related to sequence representations. ">
<polygon fill="none" stroke="#000000" points="451,-129 451,-148 573,-148 573,-129 451,-129"/>
<text text-anchor="middle" x="512" y="-136" font-family="Helvetica,sans-Serif" font-size="10.00" fill="#000000">ViennaRNA/sequence.h</text>
</a>
</g>
</g>
<!-- Node4&#45;&gt;Node7 -->
<g id="edge10" class="edge">
<title>Node4&#45;&gt;Node7</title>
<path fill="none" stroke="#191970" d="M609.875,-190.3906C590.8917,-180.3262 560.8627,-164.4057 539.0693,-152.8514"/>
<polygon fill="#191970" stroke="#191970" points="540.4723,-149.6338 529.9977,-148.0419 537.1934,-155.8184 540.4723,-149.6338"/>
</g>
<!-- Node4&#45;&gt;Node8 -->
<g id="edge11" class="edge">
<title>Node4&#45;&gt;Node8</title>
<path fill="none" stroke="#191970" d="M569.6625,-190.4581C502.3259,-179.4443 391.7195,-161.3531 320.3936,-149.6867"/>
<polygon fill="#191970" stroke="#191970" points="320.5988,-146.1738 310.1649,-148.0137 319.4688,-153.0821 320.5988,-146.1738"/>
</g>
<!-- Node4&#45;&gt;Node9 -->
<g id="edge13" class="edge">
<title>Node4&#45;&gt;Node9</title>
<path fill="none" stroke="#191970" d="M679.9762,-190.4581C739.7244,-179.4894 837.7087,-161.5012 901.2811,-149.8305"/>
<polygon fill="#191970" stroke="#191970" points="901.9739,-153.2619 911.1775,-148.0137 900.7099,-146.3769 901.9739,-153.2619"/>
</g>
<!-- Node4&#45;&gt;Node15 -->
<g id="edge25" class="edge">
<title>Node4&#45;&gt;Node15</title>
<path fill="none" stroke="#191970" d="M631.4375,-190.3906C634.5513,-181.6862 639.232,-168.6015 643.114,-157.7494"/>
<polygon fill="#191970" stroke="#191970" points="646.4412,-158.8394 646.514,-148.2449 639.8503,-156.4817 646.4412,-158.8394"/>
</g>
<!-- Node4&#45;&gt;Node16 -->
<g id="edge27" class="edge">
<title>Node4&#45;&gt;Node16</title>
<path fill="none" stroke="#191970" d="M652.5313,-190.3906C675.0581,-181.5664 709.0773,-168.2404 737,-157.3026"/>
<polygon fill="#191970" stroke="#191970" points="738.559,-160.4509 746.5935,-153.5446 736.0058,-153.9331 738.559,-160.4509"/>
</g>
<!-- Node4&#45;&gt;Node17 -->
<g id="edge28" class="edge">
<title>Node4&#45;&gt;Node17</title>
<path fill="none" stroke="#191970" d="M701.1337,-192.4281C815.5189,-180.5852 1035.4379,-157.8158 1149.458,-146.0107"/>
<polygon fill="#191970" stroke="#191970" points="1149.9002,-149.4837 1159.4865,-144.9724 1149.1792,-142.5209 1149.9002,-149.4837"/>
</g>
<!-- Node6&#45;&gt;Node1 -->
<g id="edge8" class="edge">
<title>Node6&#45;&gt;Node1</title>
<path fill="none" stroke="#191970" d="M136.1384,-148.0242C173.1221,-163.7889 243.7466,-195.0485 307,-210 375.6084,-226.2173 565.9078,-241.705 677.2016,-249.9186"/>
<polygon fill="#191970" stroke="#191970" points="677.1583,-253.4247 687.3878,-250.6664 677.6709,-246.4435 677.1583,-253.4247"/>
</g>
<!-- Node6&#45;&gt;Node2 -->
<g id="edge7" class="edge">
<title>Node6&#45;&gt;Node2</title>
<path fill="none" stroke="#191970" d="M104.9824,-128.9005C98.62,-118.751 88.4291,-102.4941 80.5142,-89.8679"/>
<polygon fill="#191970" stroke="#191970" points="83.2833,-87.6956 75.0064,-81.0817 77.3523,-91.4135 83.2833,-87.6956"/>
</g>
<!-- Node6&#45;&gt;Node5 -->
<g id="edge9" class="edge">
<title>Node6&#45;&gt;Node5</title>
<path fill="none" stroke="#191970" d="M144.5624,-128.9717C186.2946,-117.124 257.6164,-96.8758 303.503,-83.8487"/>
<polygon fill="#191970" stroke="#191970" points="304.5073,-87.202 313.1713,-81.1039 302.5955,-80.4681 304.5073,-87.202"/>
</g>
<!-- Node8&#45;&gt;Node1 -->
<g id="edge12" class="edge">
<title>Node8&#45;&gt;Node1</title>
<path fill="none" stroke="#191970" d="M264.978,-148.1997C281.4772,-164.2229 309.9028,-195.8536 342,-210 400.5713,-235.8146 572.3871,-247.6783 676.9777,-252.703"/>
<polygon fill="#191970" stroke="#191970" points="677.0428,-256.2098 687.1959,-253.1824 677.371,-249.2175 677.0428,-256.2098"/>
</g>
<!-- Node9&#45;&gt;Node1 -->
<g id="edge14" class="edge">
<title>Node9&#45;&gt;Node1</title>
<path fill="none" stroke="#191970" d="M960.4632,-148.103C950.5181,-163.1479 922.8412,-192.3732 894,-210 869.872,-224.7462 840.2618,-235.9501 815.0258,-243.6073"/>
<polygon fill="#191970" stroke="#191970" points="813.8476,-240.3051 805.2304,-246.4691 815.8107,-247.0242 813.8476,-240.3051"/>
</g>
<!-- Node10 -->
<g id="node11" class="node">
<title>Node10</title>
<g id="a_node11"><a xlink:href="constraints__hard_8h.html" target="_top" xlink:title="Functions and data structures for handling of secondary structure hard constraints. ">
<polygon fill="none" stroke="#000000" points="498.5,-56.5 498.5,-86.5 617.5,-86.5 617.5,-56.5 498.5,-56.5"/>
<text text-anchor="start" x="506.5" y="-74.5" font-family="Helvetica,sans-Serif" font-size="10.00" fill="#000000">ViennaRNA/constraints</text>
<text text-anchor="middle" x="558" y="-63.5" font-family="Helvetica,sans-Serif" font-size="10.00" fill="#000000">_hard.h</text>
</a>
</g>
</g>
<!-- Node9&#45;&gt;Node10 -->
<g id="edge15" class="edge">
<title>Node9&#45;&gt;Node10</title>
<path fill="none" stroke="#191970" d="M905.4035,-128.9717C832.3574,-116.8875 706.4855,-96.0643 627.9834,-83.0775"/>
<polygon fill="#191970" stroke="#191970" points="628.1423,-79.5563 617.7051,-81.3771 626.9998,-86.4624 628.1423,-79.5563"/>
</g>
<!-- Node11 -->
<g id="node12" class="node">
<title>Node11</title>
<g id="a_node12"><a xlink:href="constraints__soft_8h.html" target="_top" xlink:title="Functions and data structures for secondary structure soft constraints. ">
<polygon fill="none" stroke="#000000" points="714.5,-56.5 714.5,-86.5 833.5,-86.5 833.5,-56.5 714.5,-56.5"/>
<text text-anchor="start" x="722.5" y="-74.5" font-family="Helvetica,sans-Serif" font-size="10.00" fill="#000000">ViennaRNA/constraints</text>
<text text-anchor="middle" x="774" y="-63.5" font-family="Helvetica,sans-Serif" font-size="10.00" fill="#000000">_soft.h</text>
</a>
</g>
</g>
<!-- Node9&#45;&gt;Node11 -->
<g id="edge17" class="edge">
<title>Node9&#45;&gt;Node11</title>
<path fill="none" stroke="#191970" d="M935.9209,-128.9005C907.3714,-118.7798 861.6914,-102.5864 826.1178,-89.9756"/>
<polygon fill="#191970" stroke="#191970" points="826.9696,-86.5642 816.3748,-86.5218 824.6307,-93.1619 826.9696,-86.5642"/>
</g>
<!-- Node12 -->
<g id="node13" class="node">
<title>Node12</title>
<g id="a_node13"><a xlink:href="constraints__SHAPE_8h.html" target="_top" xlink:title="This module provides function to incorporate SHAPE reactivity data into the folding recursions by mea...">
<polygon fill="none" stroke="#000000" points="851.5,-56.5 851.5,-86.5 970.5,-86.5 970.5,-56.5 851.5,-56.5"/>
<text text-anchor="start" x="859.5" y="-74.5" font-family="Helvetica,sans-Serif" font-size="10.00" fill="#000000">ViennaRNA/constraints</text>
<text text-anchor="middle" x="911" y="-63.5" font-family="Helvetica,sans-Serif" font-size="10.00" fill="#000000">_SHAPE.h</text>
</a>
</g>
</g>
<!-- Node9&#45;&gt;Node12 -->
<g id="edge19" class="edge">
<title>Node9&#45;&gt;Node12</title>
<path fill="none" stroke="#191970" d="M955.5497,-128.9005C948.6347,-119.9908 938.067,-106.3748 928.9593,-94.6399"/>
<polygon fill="#191970" stroke="#191970" points="931.5549,-92.2757 922.6587,-86.5218 926.025,-96.5676 931.5549,-92.2757"/>
</g>
<!-- Node13 -->
<g id="node14" class="node">
<title>Node13</title>
<g id="a_node14"><a xlink:href="perturbation__fold_8h.html" target="_top" xlink:title="Find a vector of perturbation energies that minimizes the discripancies between predicted and observe...">
<polygon fill="none" stroke="#000000" points="989,-56.5 989,-86.5 1111,-86.5 1111,-56.5 989,-56.5"/>
<text text-anchor="start" x="997" y="-74.5" font-family="Helvetica,sans-Serif" font-size="10.00" fill="#000000">ViennaRNA/perturbation</text>
<text text-anchor="middle" x="1050" y="-63.5" font-family="Helvetica,sans-Serif" font-size="10.00" fill="#000000">_fold.h</text>
</a>
</g>
</g>
<!-- Node9&#45;&gt;Node13 -->
<g id="edge21" class="edge">
<title>Node9&#45;&gt;Node13</title>
<path fill="none" stroke="#191970" d="M975.465,-128.9005C987.5959,-119.5583 1006.4458,-105.0417 1022.1535,-92.945"/>
<polygon fill="#191970" stroke="#191970" points="1024.7068,-95.3963 1030.4941,-86.5218 1020.4357,-89.8503 1024.7068,-95.3963"/>
</g>
<!-- Node14 -->
<g id="node15" class="node">
<title>Node14</title>
<g id="a_node15"><a xlink:href="constraints__ligand_8h.html" target="_top" xlink:title="Functions for incorporation of ligands binding to hairpin and interior loop motifs using the soft con...">
<polygon fill="none" stroke="#000000" points="1129.5,-56.5 1129.5,-86.5 1248.5,-86.5 1248.5,-56.5 1129.5,-56.5"/>
<text text-anchor="start" x="1137.5" y="-74.5" font-family="Helvetica,sans-Serif" font-size="10.00" fill="#000000">ViennaRNA/constraints</text>
<text text-anchor="middle" x="1189" y="-63.5" font-family="Helvetica,sans-Serif" font-size="10.00" fill="#000000">_ligand.h</text>
</a>
</g>
</g>
<!-- Node9&#45;&gt;Node14 -->
<g id="edge23" class="edge">
<title>Node9&#45;&gt;Node14</title>
<path fill="none" stroke="#191970" d="M995.3803,-128.9005C1030.0294,-118.6284 1085.7801,-102.1006 1128.5798,-89.4122"/>
<polygon fill="#191970" stroke="#191970" points="1129.7369,-92.7198 1138.3296,-86.5218 1127.7472,-86.0085 1129.7369,-92.7198"/>
</g>
<!-- Node10&#45;&gt;Node1 -->
<g id="edge16" class="edge">
<title>Node10&#45;&gt;Node1</title>
<path fill="none" stroke="#191970" d="M498.3068,-83.6548C476.8073,-91.2231 454.7312,-103.4183 442,-123 434.49,-134.5511 434.9349,-142.1716 442,-154 467.9554,-197.455 606.1565,-228.9813 691.9206,-244.7048"/>
<polygon fill="#191970" stroke="#191970" points="691.3881,-248.1652 701.8509,-246.4979 692.632,-241.2766 691.3881,-248.1652"/>
</g>
<!-- Node11&#45;&gt;Node1 -->
<g id="edge18" class="edge">
<title>Node11&#45;&gt;Node1</title>
<path fill="none" stroke="#191970" d="M811.6912,-86.6402C827.0961,-94.9259 843.3118,-106.8524 852,-123 858.5282,-135.133 856.9081,-141.1261 852,-154 838.132,-190.3759 804.671,-222.0157 782.4215,-240.0527"/>
<polygon fill="#191970" stroke="#191970" points="780.2012,-237.3461 774.5074,-246.281 784.5303,-242.847 780.2012,-237.3461"/>
</g>
<!-- Node12&#45;&gt;Node1 -->
<g id="edge20" class="edge">
<title>Node12&#45;&gt;Node1</title>
<path fill="none" stroke="#191970" d="M970.7377,-86.0257C1012.088,-99.2291 1056.3202,-121.6261 1036,-154 1011.8579,-192.4629 887.8655,-226.8429 814.8777,-244.1586"/>
<polygon fill="#191970" stroke="#191970" points="813.8717,-240.7994 804.9331,-246.4873 815.4677,-247.615 813.8717,-240.7994"/>
</g>
<!-- Node13&#45;&gt;Node1 -->
<g id="edge22" class="edge">
<title>Node13&#45;&gt;Node1</title>
<path fill="none" stroke="#191970" d="M1054.4698,-86.7377C1058.6518,-104.0437 1062.7907,-132.6452 1052,-154 1033.0774,-191.4477 1014.2607,-192.7805 976,-210 934.6783,-228.5971 885.4474,-239.8382 844.5282,-246.5464"/>
<polygon fill="#191970" stroke="#191970" points="843.9176,-243.0994 834.5851,-248.1149 845.0084,-250.0139 843.9176,-243.0994"/>
</g>
<!-- Node14&#45;&gt;Node1 -->
<g id="edge24" class="edge">
<title>Node14&#45;&gt;Node1</title>
<path fill="none" stroke="#191970" d="M1174.5958,-86.9235C1146.406,-116.0783 1080.6805,-179.1137 1012,-210 982.6249,-223.2103 905.6437,-236.2541 844.6127,-245.0588"/>
<polygon fill="#191970" stroke="#191970" points="843.985,-241.6128 834.5791,-246.4891 844.973,-248.5427 843.985,-241.6128"/>
</g>
<!-- Node15&#45;&gt;Node1 -->
<g id="edge26" class="edge">
<title>Node15&#45;&gt;Node1</title>
<path fill="none" stroke="#191970" d="M669.4056,-148.0765C684.2175,-157.9389 703.8734,-174.0748 719,-190 733.1239,-204.8695 747.2293,-223.4864 755.4901,-237.1535"/>
<polygon fill="#191970" stroke="#191970" points="752.5182,-239.0137 760.389,-246.1061 758.659,-235.6534 752.5182,-239.0137"/>
</g>
<!-- Node17&#45;&gt;Node1 -->
<g id="edge29" class="edge">
<title>Node17&#45;&gt;Node1</title>
<path fill="none" stroke="#191970" d="M1217.0761,-153.7736C1205.9883,-170.6694 1181.6433,-197.1948 1154,-210 1101.1895,-234.4634 943.8007,-246.8892 844.8999,-252.3622"/>
<polygon fill="#191970" stroke="#191970" points="844.4233,-248.8828 834.6268,-252.9174 844.8011,-255.8726 844.4233,-248.8828"/>
</g>
<!-- Node17&#45;&gt;Node18 -->
<g id="edge30" class="edge">
<title>Node17&#45;&gt;Node18</title>
<path fill="none" stroke="#191970" d="M1244.6915,-123.2967C1258.3722,-114.1306 1275.9874,-102.3285 1290.947,-92.3055"/>
<polygon fill="#191970" stroke="#191970" points="1293.0387,-95.1171 1299.3983,-86.6432 1289.1424,-89.3017 1293.0387,-95.1171"/>
</g>
<!-- Node18&#45;&gt;Node1 -->
<g id="edge32" class="edge">
<title>Node18&#45;&gt;Node1</title>
<path fill="none" stroke="#191970" d="M1326.7295,-86.6149C1326.7022,-104.5989 1319.9001,-134.6209 1303,-154 1266.4216,-195.944 1244.3888,-194.2865 1191,-210 1128.5639,-228.3763 951.1395,-243.3357 844.6528,-250.8156"/>
<polygon fill="#191970" stroke="#191970" points="844.3085,-247.331 834.5753,-251.516 844.7939,-254.3142 844.3085,-247.331"/>
</g>
<!-- Node19 -->
<g id="node20" class="node">
<title>Node19</title>
<polygon fill="none" stroke="#bfbfbf" points="1299,-.5 1299,-19.5 1345,-19.5 1345,-.5 1299,-.5"/>
<text text-anchor="middle" x="1322" y="-7.5" font-family="Helvetica,sans-Serif" font-size="10.00" fill="#000000">stdio.h</text>
</g>
<!-- Node18&#45;&gt;Node19 -->
<g id="edge31" class="edge">
<title>Node18&#45;&gt;Node19</title>
<path fill="none" stroke="#191970" d="M1322,-56.2977C1322,-48.3834 1322,-38.6043 1322,-30.0759"/>
<polygon fill="#191970" stroke="#191970" points="1325.5001,-29.8469 1322,-19.8469 1318.5001,-29.847 1325.5001,-29.8469"/>
</g>
</g>
</svg>
