<?xml version="1.0" encoding="UTF-8" standalone="no"?>
<!DOCTYPE svg PUBLIC "-//W3C//DTD SVG 1.1//EN"
 "http://www.w3.org/Graphics/SVG/1.1/DTD/svg11.dtd">
<!-- Generated by graphviz version 2.40.1 (20161225.0304)
 -->
<!-- Title: ViennaRNA/file_formats.h Pages: 1 -->
<!--zoomable 341 -->
<svg id="main" version="1.1" xmlns="http://www.w3.org/2000/svg" xmlns:xlink="http://www.w3.org/1999/xlink" xml:space="preserve" onload="init(evt)">
<style type="text/css"><![CDATA[
.edge:hover path { stroke: red; }
.edge:hover polygon { stroke: red; fill: red; }
]]></style>
<script type="text/javascript"><![CDATA[
var edges = document.getElementsByTagName('g');
if (edges && edges.length) {
  for (var i=0;i<edges.length;i++) {
    if (edges[i].id.substr(0,4)=='edge') {
      edges[i].setAttribute('class','edge');
    }
  }
}
]]></script>
        <defs>
                <circle id="rim" cx="0" cy="0" r="7"/>
                <circle id="rim2" cx="0" cy="0" r="3.5"/>
                <g id="zoomPlus">
                        <use xlink:href="#rim" fill="#404040">
                                <set attributeName="fill" to="#808080" begin="zoomplus.mouseover" end="zoomplus.mouseout"/>
                        </use>
                        <path d="M-4,0h8M0,-4v8" fill="none" stroke="white" stroke-width="1.5" pointer-events="none"/>
                </g>
                <g id="zoomMin">
                        <use xlink:href="#rim" fill="#404040">
                                <set attributeName="fill" to="#808080" begin="zoomminus.mouseover" end="zoomminus.mouseout"/>
                        </use>
                        <path d="M-4,0h8" fill="none" stroke="white" stroke-width="1.5" pointer-events="none"/>
                </g>
                <g id="dirArrow">
                        <path fill="none" stroke="white" stroke-width="1.5" d="M0,-3.0v7 M-2.5,-0.5L0,-3.0L2.5,-0.5"/>
                </g>
               <g id="resetDef">
                       <use xlink:href="#rim2" fill="#404040">
                               <set attributeName="fill" to="#808080" begin="reset.mouseover" end="reset.mouseout"/>
                       </use>
               </g>
        </defs>

<script type="text/javascript">
var viewWidth = 1573;
var viewHeight = 341;
var sectionId = 'dynsection-0';
</script>
<script xlink:href="svgpan.js"/>
<svg id="graph" class="graph">
<g id="viewport">
<title>ViennaRNA/file_formats.h</title>
<!-- Node0 -->
<g id="node1" class="node">
<title>Node0</title>
<polygon fill="#bfbfbf" stroke="#000000" points="1349.5,-313.5 1349.5,-332.5 1480.5,-332.5 1480.5,-313.5 1349.5,-313.5"/>
<text text-anchor="middle" x="1415" y="-320.5" font-family="Helvetica,sans-Serif" font-size="10.00" fill="#000000">ViennaRNA/file_formats.h</text>
</g>
<!-- Node1 -->
<g id="node2" class="node">
<title>Node1</title>
<polygon fill="none" stroke="#bfbfbf" points="1392,-.5 1392,-19.5 1438,-19.5 1438,-.5 1392,-.5"/>
<text text-anchor="middle" x="1415" y="-7.5" font-family="Helvetica,sans-Serif" font-size="10.00" fill="#000000">stdio.h</text>
</g>
<!-- Node0&#45;&gt;Node1 -->
<g id="edge1" class="edge">
<title>Node0&#45;&gt;Node1</title>
<path fill="none" stroke="#191970" d="M1415,-313.2511C1415,-293.1182 1415,-245.4826 1415,-205.5 1415,-205.5 1415,-205.5 1415,-138.5 1415,-100.0012 1415,-55.0145 1415,-29.7812"/>
<polygon fill="#191970" stroke="#191970" points="1418.5001,-29.6718 1415,-19.6719 1411.5001,-29.6719 1418.5001,-29.6718"/>
</g>
<!-- Node2 -->
<g id="node3" class="node">
<title>Node2</title>
<g id="a_node3"><a xlink:href="data__structures_8h.html" target="_top" xlink:title="Various data structures and pre&#45;processor macros. ">
<polygon fill="none" stroke="#000000" points="760.5,-257.5 760.5,-276.5 907.5,-276.5 907.5,-257.5 760.5,-257.5"/>
<text text-anchor="middle" x="834" y="-264.5" font-family="Helvetica,sans-Serif" font-size="10.00" fill="#000000">ViennaRNA/data_structures.h</text>
</a>
</g>
</g>
<!-- Node0&#45;&gt;Node2 -->
<g id="edge2" class="edge">
<title>Node0&#45;&gt;Node2</title>
<path fill="none" stroke="#191970" d="M1349.4813,-316.6849C1243.507,-306.4706 1034.6094,-286.3358 917.9046,-275.0872"/>
<polygon fill="#191970" stroke="#191970" points="918.2297,-271.6024 907.94,-274.1267 917.558,-278.5701 918.2297,-271.6024"/>
</g>
<!-- Node20 -->
<g id="node21" class="node">
<title>Node20</title>
<g id="a_node21"><a xlink:href="file__formats__msa_8h.html" target="_top" xlink:title="Functions dealing with file formats for Multiple Sequence Alignments (MSA) ">
<polygon fill="none" stroke="#000000" points="1443,-190.5 1443,-220.5 1565,-220.5 1565,-190.5 1443,-190.5"/>
<text text-anchor="start" x="1451" y="-208.5" font-family="Helvetica,sans-Serif" font-size="10.00" fill="#000000">ViennaRNA/file_formats</text>
<text text-anchor="middle" x="1504" y="-197.5" font-family="Helvetica,sans-Serif" font-size="10.00" fill="#000000">_msa.h</text>
</a>
</g>
</g>
<!-- Node0&#45;&gt;Node20 -->
<g id="edge42" class="edge">
<title>Node0&#45;&gt;Node20</title>
<path fill="none" stroke="#191970" d="M1422.2832,-313.3845C1436.1584,-295.0661 1466.7393,-254.6925 1486.3035,-228.8633"/>
<polygon fill="#191970" stroke="#191970" points="1489.228,-230.799 1492.476,-220.7143 1483.648,-226.5725 1489.228,-230.799"/>
</g>
<!-- Node3 -->
<g id="node4" class="node">
<title>Node3</title>
<g id="a_node4"><a xlink:href="energy__const_8h.html" target="_top" xlink:title="Energy parameter constants. ">
<polygon fill="none" stroke="#000000" points="0,-62 0,-81 138,-81 138,-62 0,-62"/>
<text text-anchor="middle" x="69" y="-69" font-family="Helvetica,sans-Serif" font-size="10.00" fill="#000000">ViennaRNA/energy_const.h</text>
</a>
</g>
</g>
<!-- Node2&#45;&gt;Node3 -->
<g id="edge3" class="edge">
<title>Node2&#45;&gt;Node3</title>
<path fill="none" stroke="#191970" d="M760.402,-264.1196C599.1102,-257.4879 224.4841,-240.2268 170,-221 120.9351,-203.6855 99.4455,-199.3838 74,-154 63.184,-134.709 63.5795,-108.742 65.607,-91.1305"/>
<polygon fill="#191970" stroke="#191970" points="69.0835,-91.5431 67.0339,-81.1484 62.1539,-90.5524 69.0835,-91.5431"/>
</g>
<!-- Node5 -->
<g id="node6" class="node">
<title>Node5</title>
<g id="a_node6"><a xlink:href="fold__compound_8h.html" target="_top" xlink:title="The Basic Fold Compound API. ">
<polygon fill="none" stroke="#000000" points="623,-196 623,-215 769,-215 769,-196 623,-196"/>
<text text-anchor="middle" x="696" y="-203" font-family="Helvetica,sans-Serif" font-size="10.00" fill="#000000">ViennaRNA/fold_compound.h</text>
</a>
</g>
</g>
<!-- Node2&#45;&gt;Node5 -->
<g id="edge5" class="edge">
<title>Node2&#45;&gt;Node5</title>
<path fill="none" stroke="#191970" d="M812.4375,-257.3906C789.4488,-247.1457 752.844,-230.8326 726.8176,-219.2339"/>
<polygon fill="#191970" stroke="#191970" points="727.9698,-215.9156 717.4111,-215.0419 725.1204,-222.3095 727.9698,-215.9156"/>
</g>
<!-- Node6 -->
<g id="node7" class="node">
<title>Node6</title>
<g id="a_node7"><a xlink:href="model_8h.html" target="_top" xlink:title="The model details data structure and its corresponding modifiers. ">
<polygon fill="none" stroke="#000000" points="170,-62 170,-81 276,-81 276,-62 170,-62"/>
<text text-anchor="middle" x="223" y="-69" font-family="Helvetica,sans-Serif" font-size="10.00" fill="#000000">ViennaRNA/model.h</text>
</a>
</g>
</g>
<!-- Node2&#45;&gt;Node6 -->
<g id="edge34" class="edge">
<title>Node2&#45;&gt;Node6</title>
<path fill="none" stroke="#191970" d="M760.3506,-263.7131C627.5946,-257.3033 358.42,-241.9095 321,-221 269.6634,-192.3142 240.6315,-124.1837 229.0117,-90.7198"/>
<polygon fill="#191970" stroke="#191970" points="232.3138,-89.5575 225.8447,-81.167 225.6694,-91.7604 232.3138,-89.5575"/>
</g>
<!-- Node7 -->
<g id="node8" class="node">
<title>Node7</title>
<g id="a_node8"><a xlink:href="params_8h.html" target="_top" xlink:title="Functions to deal with sets of energy parameters. ">
<polygon fill="none" stroke="#000000" points="83,-129 83,-148 195,-148 195,-129 83,-129"/>
<text text-anchor="middle" x="139" y="-136" font-family="Helvetica,sans-Serif" font-size="10.00" fill="#000000">ViennaRNA/params.h</text>
</a>
</g>
</g>
<!-- Node2&#45;&gt;Node7 -->
<g id="edge35" class="edge">
<title>Node2&#45;&gt;Node7</title>
<path fill="none" stroke="#191970" d="M760.4964,-264.9268C604.0149,-259.9151 248.5844,-245.6991 200,-221 172.6066,-207.0739 151.6376,-177.2547 142.418,-157.5428"/>
<polygon fill="#191970" stroke="#191970" points="145.5819,-156.0284 138.6165,-148.0451 139.0831,-158.6296 145.5819,-156.0284"/>
</g>
<!-- Node9 -->
<g id="node10" class="node">
<title>Node9</title>
<g id="a_node10"><a xlink:href="dp__matrices_8h.html" target="_top" xlink:title="Functions to deal with standard dynamic programming (DP) matrices. ">
<polygon fill="none" stroke="#000000" points="289.5,-129 289.5,-148 422.5,-148 422.5,-129 289.5,-129"/>
<text text-anchor="middle" x="356" y="-136" font-family="Helvetica,sans-Serif" font-size="10.00" fill="#000000">ViennaRNA/dp_matrices.h</text>
</a>
</g>
</g>
<!-- Node2&#45;&gt;Node9 -->
<g id="edge36" class="edge">
<title>Node2&#45;&gt;Node9</title>
<path fill="none" stroke="#191970" d="M760.1736,-262.1709C668.3715,-255.1776 517.6903,-240.8599 466,-221 426.4001,-205.7854 387.2995,-174.7814 367.8246,-155.4151"/>
<polygon fill="#191970" stroke="#191970" points="370.359,-153.0011 360.9427,-148.1448 365.2753,-157.8133 370.359,-153.0011"/>
</g>
<!-- Node10 -->
<g id="node11" class="node">
<title>Node10</title>
<g id="a_node11"><a xlink:href="constraints_8h.html" target="_top" xlink:title="Functions and data structures for constraining secondary structure predictions and evaluation...">
<polygon fill="none" stroke="#000000" points="657,-129 657,-148 785,-148 785,-129 657,-129"/>
<text text-anchor="middle" x="721" y="-136" font-family="Helvetica,sans-Serif" font-size="10.00" fill="#000000">ViennaRNA/constraints.h</text>
</a>
</g>
</g>
<!-- Node2&#45;&gt;Node10 -->
<g id="edge37" class="edge">
<title>Node2&#45;&gt;Node10</title>
<path fill="none" stroke="#191970" d="M822.1579,-257.274C809.1516,-242.1746 789.2267,-212.492 769,-190 757.7412,-177.4803 743.7242,-164.7837 733.4873,-155.1297"/>
<polygon fill="#191970" stroke="#191970" points="735.8364,-152.5326 726.2128,-148.1012 730.9725,-157.5667 735.8364,-152.5326"/>
</g>
<!-- Node16 -->
<g id="node17" class="node">
<title>Node16</title>
<g id="a_node17"><a xlink:href="grammar_8h.html" target="_top" xlink:title="Implementations for the RNA folding grammar. ">
<polygon fill="none" stroke="#000000" points="803,-129 803,-148 921,-148 921,-129 803,-129"/>
<text text-anchor="middle" x="862" y="-136" font-family="Helvetica,sans-Serif" font-size="10.00" fill="#000000">ViennaRNA/grammar.h</text>
</a>
</g>
</g>
<!-- Node2&#45;&gt;Node16 -->
<g id="edge38" class="edge">
<title>Node2&#45;&gt;Node16</title>
<path fill="none" stroke="#191970" d="M832.3312,-257.3416C833.4186,-236.2254 844.0438,-185.6144 852.8268,-157.7341"/>
<polygon fill="#191970" stroke="#191970" points="856.139,-158.8651 856.0791,-148.2705 849.519,-156.5901 856.139,-158.8651"/>
</g>
<!-- Node17 -->
<g id="node18" class="node">
<title>Node17</title>
<g id="a_node18"><a xlink:href="structured__domains_8h.html" target="_top" xlink:title="This module provides interfaces that deal with additional structured domains in the folding grammar...">
<polygon fill="none" stroke="#000000" points="939.5,-123.5 939.5,-153.5 1054.5,-153.5 1054.5,-123.5 939.5,-123.5"/>
<text text-anchor="start" x="947.5" y="-141.5" font-family="Helvetica,sans-Serif" font-size="10.00" fill="#000000">ViennaRNA/structured</text>
<text text-anchor="middle" x="997" y="-130.5" font-family="Helvetica,sans-Serif" font-size="10.00" fill="#000000">_domains.h</text>
</a>
</g>
</g>
<!-- Node2&#45;&gt;Node17 -->
<g id="edge39" class="edge">
<title>Node2&#45;&gt;Node17</title>
<path fill="none" stroke="#191970" d="M846.2515,-257.3416C872.2979,-236.8081 933.7212,-188.3855 969.6094,-160.0932"/>
<polygon fill="#191970" stroke="#191970" points="972.0307,-162.6412 977.717,-153.7016 967.697,-157.144 972.0307,-162.6412"/>
</g>
<!-- Node18 -->
<g id="node19" class="node">
<title>Node18</title>
<g id="a_node19"><a xlink:href="unstructured__domains_8h.html" target="_top" xlink:title="Functions to modify unstructured domains, e.g. to incorporate ligands binding to unpaired stretches...">
<polygon fill="none" stroke="#000000" points="1187.5,-123.5 1187.5,-153.5 1312.5,-153.5 1312.5,-123.5 1187.5,-123.5"/>
<text text-anchor="start" x="1195.5" y="-141.5" font-family="Helvetica,sans-Serif" font-size="10.00" fill="#000000">ViennaRNA/unstructured</text>
<text text-anchor="middle" x="1250" y="-130.5" font-family="Helvetica,sans-Serif" font-size="10.00" fill="#000000">_domains.h</text>
</a>
</g>
</g>
<!-- Node2&#45;&gt;Node18 -->
<g id="edge40" class="edge">
<title>Node2&#45;&gt;Node18</title>
<path fill="none" stroke="#191970" d="M907.832,-262.3118C991.0635,-256.2287 1120.2803,-243.6149 1164,-221 1190.376,-207.3565 1212.5113,-180.9485 1228.0494,-161.6738"/>
<polygon fill="#191970" stroke="#191970" points="1230.9637,-163.635 1234.5064,-153.65 1225.5102,-159.2464 1230.9637,-163.635"/>
</g>
<!-- Node19 -->
<g id="node20" class="node">
<title>Node19</title>
<g id="a_node20"><a xlink:href="structure__utils_8h.html" target="_top" xlink:title="Various utility&#45; and helper&#45;functions for secondary structure parsing, converting, etc. ">
<polygon fill="none" stroke="#000000" points="1277,-56.5 1277,-86.5 1387,-86.5 1387,-56.5 1277,-56.5"/>
<text text-anchor="start" x="1285" y="-74.5" font-family="Helvetica,sans-Serif" font-size="10.00" fill="#000000">ViennaRNA/structure</text>
<text text-anchor="middle" x="1332" y="-63.5" font-family="Helvetica,sans-Serif" font-size="10.00" fill="#000000">_utils.h</text>
</a>
</g>
</g>
<!-- Node2&#45;&gt;Node19 -->
<g id="edge41" class="edge">
<title>Node2&#45;&gt;Node19</title>
<path fill="none" stroke="#191970" d="M907.868,-261.5542C1000.4069,-254.3528 1153.1528,-240.2844 1207,-221 1259.1165,-202.3354 1282.2347,-200.6746 1312,-154 1322.8092,-137.0502 1325.1185,-114.1574 1326.4187,-96.7871"/>
<polygon fill="#191970" stroke="#191970" points="1329.911,-97.0206 1327.1649,-86.7879 1322.9304,-96.4997 1329.911,-97.0206"/>
</g>
<!-- Node4 -->
<g id="node5" class="node">
<title>Node4</title>
<polygon fill="none" stroke="#bfbfbf" points="45,-.5 45,-19.5 93,-19.5 93,-.5 45,-.5"/>
<text text-anchor="middle" x="69" y="-7.5" font-family="Helvetica,sans-Serif" font-size="10.00" fill="#000000">limits.h</text>
</g>
<!-- Node3&#45;&gt;Node4 -->
<g id="edge4" class="edge">
<title>Node3&#45;&gt;Node4</title>
<path fill="none" stroke="#191970" d="M69,-61.8906C69,-53.3657 69,-40.6392 69,-29.9235"/>
<polygon fill="#191970" stroke="#191970" points="72.5001,-29.7448 69,-19.7449 65.5001,-29.7449 72.5001,-29.7448"/>
</g>
<!-- Node5&#45;&gt;Node6 -->
<g id="edge6" class="edge">
<title>Node5&#45;&gt;Node6</title>
<path fill="none" stroke="#191970" d="M655.9878,-195.9641C617.6509,-186.4937 558.3486,-170.9682 508,-154 473.0404,-142.2181 466.1022,-134.3499 431,-123 380.3703,-106.6294 321.3849,-92.4752 279.1859,-83.1712"/>
<polygon fill="#191970" stroke="#191970" points="279.8899,-79.7425 269.3734,-81.0284 278.3965,-86.5814 279.8899,-79.7425"/>
</g>
<!-- Node5&#45;&gt;Node7 -->
<g id="edge7" class="edge">
<title>Node5&#45;&gt;Node7</title>
<path fill="none" stroke="#191970" d="M622.8958,-196.7065C513.9254,-183.5988 310.4913,-159.1282 205.4936,-146.4983"/>
<polygon fill="#191970" stroke="#191970" points="205.6854,-142.9963 195.339,-145.2769 204.8494,-149.9462 205.6854,-142.9963"/>
</g>
<!-- Node8 -->
<g id="node9" class="node">
<title>Node8</title>
<g id="a_node9"><a xlink:href="sequence_8h.html" target="_top" xlink:title="Functions and data structures related to sequence representations. ">
<polygon fill="none" stroke="#000000" points="517,-129 517,-148 639,-148 639,-129 517,-129"/>
<text text-anchor="middle" x="578" y="-136" font-family="Helvetica,sans-Serif" font-size="10.00" fill="#000000">ViennaRNA/sequence.h</text>
</a>
</g>
</g>
<!-- Node5&#45;&gt;Node8 -->
<g id="edge11" class="edge">
<title>Node5&#45;&gt;Node8</title>
<path fill="none" stroke="#191970" d="M679.0935,-195.9005C659.378,-184.7062 626.5778,-166.0823 603.7041,-153.0947"/>
<polygon fill="#191970" stroke="#191970" points="605.2993,-149.9757 594.8752,-148.0817 601.843,-156.0629 605.2993,-149.9757"/>
</g>
<!-- Node5&#45;&gt;Node9 -->
<g id="edge12" class="edge">
<title>Node5&#45;&gt;Node9</title>
<path fill="none" stroke="#191970" d="M647.6474,-195.9717C586.177,-183.8584 480.1452,-162.9639 414.2759,-149.9838"/>
<polygon fill="#191970" stroke="#191970" points="414.9488,-146.5491 404.4608,-148.0496 413.5954,-153.4171 414.9488,-146.5491"/>
</g>
<!-- Node5&#45;&gt;Node10 -->
<g id="edge14" class="edge">
<title>Node5&#45;&gt;Node10</title>
<path fill="none" stroke="#191970" d="M699.5819,-195.9005C703.2948,-185.95 709.198,-170.1292 713.8676,-157.6147"/>
<polygon fill="#191970" stroke="#191970" points="717.2079,-158.6743 717.4248,-148.0817 710.6496,-156.2271 717.2079,-158.6743"/>
</g>
<!-- Node5&#45;&gt;Node16 -->
<g id="edge26" class="edge">
<title>Node5&#45;&gt;Node16</title>
<path fill="none" stroke="#191970" d="M719.7838,-195.9005C748.3819,-184.3579 796.5506,-164.9163 828.8017,-151.8993"/>
<polygon fill="#191970" stroke="#191970" points="830.2972,-155.0701 838.2604,-148.0817 827.6772,-148.5789 830.2972,-155.0701"/>
</g>
<!-- Node5&#45;&gt;Node17 -->
<g id="edge28" class="edge">
<title>Node5&#45;&gt;Node17</title>
<path fill="none" stroke="#191970" d="M740.0217,-195.9587C784.9653,-186.1847 857.0219,-170.4241 929.0979,-154.1909"/>
<polygon fill="#191970" stroke="#191970" points="930.2805,-157.5122 939.2655,-151.8978 928.7404,-150.6837 930.2805,-157.5122"/>
</g>
<!-- Node5&#45;&gt;Node18 -->
<g id="edge29" class="edge">
<title>Node5&#45;&gt;Node18</title>
<path fill="none" stroke="#191970" d="M769.281,-196.6375C875.5438,-183.7862 1071.2544,-160.1172 1177.2297,-147.3007"/>
<polygon fill="#191970" stroke="#191970" points="1177.6918,-150.7704 1187.1992,-146.095 1176.8513,-143.8211 1177.6918,-150.7704"/>
</g>
<!-- Node7&#45;&gt;Node2 -->
<g id="edge9" class="edge">
<title>Node7&#45;&gt;Node2</title>
<path fill="none" stroke="#191970" d="M148.9035,-148.0451C162.3079,-166.023 185.6833,-204.571 218,-221 264.5619,-244.6709 592.9546,-258.7133 750.3586,-264.2529"/>
<polygon fill="#191970" stroke="#191970" points="750.3585,-267.755 760.4744,-264.6055 750.6024,-260.7592 750.3585,-267.755"/>
</g>
<!-- Node7&#45;&gt;Node3 -->
<g id="edge8" class="edge">
<title>Node7&#45;&gt;Node3</title>
<path fill="none" stroke="#191970" d="M128.9707,-128.9005C117.8469,-118.2535 99.7013,-100.8856 86.279,-88.0385"/>
<polygon fill="#191970" stroke="#191970" points="88.655,-85.4678 79.0107,-81.0817 83.8148,-90.5247 88.655,-85.4678"/>
</g>
<!-- Node7&#45;&gt;Node6 -->
<g id="edge10" class="edge">
<title>Node7&#45;&gt;Node6</title>
<path fill="none" stroke="#191970" d="M151.0352,-128.9005C164.6332,-118.0544 186.9754,-100.2339 203.1624,-87.3229"/>
<polygon fill="#191970" stroke="#191970" points="205.3519,-90.0535 210.9872,-81.0817 200.9869,-84.5811 205.3519,-90.0535"/>
</g>
<!-- Node9&#45;&gt;Node2 -->
<g id="edge13" class="edge">
<title>Node9&#45;&gt;Node2</title>
<path fill="none" stroke="#191970" d="M371.3489,-148.1448C394.5346,-165.9383 438.9442,-203.6892 484,-221 531.4647,-239.2364 662.3974,-252.7997 750.0176,-260.31"/>
<polygon fill="#191970" stroke="#191970" points="749.954,-263.8171 760.2137,-261.1735 750.5448,-256.842 749.954,-263.8171"/>
</g>
<!-- Node10&#45;&gt;Node2 -->
<g id="edge15" class="edge">
<title>Node10&#45;&gt;Node2</title>
<path fill="none" stroke="#191970" d="M739.8183,-148.1012C754.0329,-157.9829 772.7314,-174.1334 787,-190 803.7503,-208.6261 820.2935,-232.1836 829.1378,-248.3065"/>
<polygon fill="#191970" stroke="#191970" points="826.0057,-249.8687 833.5828,-257.274 832.2776,-246.7599 826.0057,-249.8687"/>
</g>
<!-- Node11 -->
<g id="node12" class="node">
<title>Node11</title>
<g id="a_node12"><a xlink:href="constraints__hard_8h.html" target="_top" xlink:title="Functions and data structures for handling of secondary structure hard constraints. ">
<polygon fill="none" stroke="#000000" points="1088.5,-56.5 1088.5,-86.5 1207.5,-86.5 1207.5,-56.5 1088.5,-56.5"/>
<text text-anchor="start" x="1096.5" y="-74.5" font-family="Helvetica,sans-Serif" font-size="10.00" fill="#000000">ViennaRNA/constraints</text>
<text text-anchor="middle" x="1148" y="-63.5" font-family="Helvetica,sans-Serif" font-size="10.00" fill="#000000">_hard.h</text>
</a>
</g>
</g>
<!-- Node10&#45;&gt;Node11 -->
<g id="edge16" class="edge">
<title>Node10&#45;&gt;Node11</title>
<path fill="none" stroke="#191970" d="M762.9633,-128.9731C773.0941,-126.8441 783.9089,-124.7124 794,-123 918.5696,-101.8607 951.4604,-108.3149 1076,-87 1076.7562,-86.8706 1077.5165,-86.7387 1078.2803,-86.6046"/>
<polygon fill="#191970" stroke="#191970" points="1079.1565,-90.0022 1088.357,-84.7486 1077.8885,-83.1179 1079.1565,-90.0022"/>
</g>
<!-- Node12 -->
<g id="node13" class="node">
<title>Node12</title>
<g id="a_node13"><a xlink:href="constraints__soft_8h.html" target="_top" xlink:title="Functions and data structures for secondary structure soft constraints. ">
<polygon fill="none" stroke="#000000" points="352.5,-56.5 352.5,-86.5 471.5,-86.5 471.5,-56.5 352.5,-56.5"/>
<text text-anchor="start" x="360.5" y="-74.5" font-family="Helvetica,sans-Serif" font-size="10.00" fill="#000000">ViennaRNA/constraints</text>
<text text-anchor="middle" x="412" y="-63.5" font-family="Helvetica,sans-Serif" font-size="10.00" fill="#000000">_soft.h</text>
</a>
</g>
</g>
<!-- Node10&#45;&gt;Node12 -->
<g id="edge18" class="edge">
<title>Node10&#45;&gt;Node12</title>
<path fill="none" stroke="#191970" d="M677.056,-128.9717C626.1809,-117.9405 541.7198,-99.627 481.8248,-86.64"/>
<polygon fill="#191970" stroke="#191970" points="482.2023,-83.1406 471.6877,-84.442 480.7189,-89.9816 482.2023,-83.1406"/>
</g>
<!-- Node13 -->
<g id="node14" class="node">
<title>Node13</title>
<g id="a_node14"><a xlink:href="constraints__SHAPE_8h.html" target="_top" xlink:title="This module provides function to incorporate SHAPE reactivity data into the folding recursions by mea...">
<polygon fill="none" stroke="#000000" points="604.5,-56.5 604.5,-86.5 723.5,-86.5 723.5,-56.5 604.5,-56.5"/>
<text text-anchor="start" x="612.5" y="-74.5" font-family="Helvetica,sans-Serif" font-size="10.00" fill="#000000">ViennaRNA/constraints</text>
<text text-anchor="middle" x="664" y="-63.5" font-family="Helvetica,sans-Serif" font-size="10.00" fill="#000000">_SHAPE.h</text>
</a>
</g>
</g>
<!-- Node10&#45;&gt;Node13 -->
<g id="edge20" class="edge">
<title>Node10&#45;&gt;Node13</title>
<path fill="none" stroke="#191970" d="M712.8333,-128.9005C705.1798,-119.9043 693.4443,-106.1099 683.3959,-94.2986"/>
<polygon fill="#191970" stroke="#191970" points="685.9253,-91.8704 676.7797,-86.5218 680.5937,-96.4063 685.9253,-91.8704"/>
</g>
<!-- Node14 -->
<g id="node15" class="node">
<title>Node14</title>
<g id="a_node15"><a xlink:href="perturbation__fold_8h.html" target="_top" xlink:title="Find a vector of perturbation energies that minimizes the discripancies between predicted and observe...">
<polygon fill="none" stroke="#000000" points="802,-56.5 802,-86.5 924,-86.5 924,-56.5 802,-56.5"/>
<text text-anchor="start" x="810" y="-74.5" font-family="Helvetica,sans-Serif" font-size="10.00" fill="#000000">ViennaRNA/perturbation</text>
<text text-anchor="middle" x="863" y="-63.5" font-family="Helvetica,sans-Serif" font-size="10.00" fill="#000000">_fold.h</text>
</a>
</g>
</g>
<!-- Node10&#45;&gt;Node14 -->
<g id="edge22" class="edge">
<title>Node10&#45;&gt;Node14</title>
<path fill="none" stroke="#191970" d="M741.3451,-128.9005C762.245,-119.0393 795.3639,-103.4128 821.7721,-90.9526"/>
<polygon fill="#191970" stroke="#191970" points="823.6125,-93.9543 831.1628,-86.5218 820.6254,-87.6236 823.6125,-93.9543"/>
</g>
<!-- Node15 -->
<g id="node16" class="node">
<title>Node15</title>
<g id="a_node16"><a xlink:href="constraints__ligand_8h.html" target="_top" xlink:title="Functions for incorporation of ligands binding to hairpin and interior loop motifs using the soft con...">
<polygon fill="none" stroke="#000000" points="948.5,-56.5 948.5,-86.5 1067.5,-86.5 1067.5,-56.5 948.5,-56.5"/>
<text text-anchor="start" x="956.5" y="-74.5" font-family="Helvetica,sans-Serif" font-size="10.00" fill="#000000">ViennaRNA/constraints</text>
<text text-anchor="middle" x="1008" y="-63.5" font-family="Helvetica,sans-Serif" font-size="10.00" fill="#000000">_ligand.h</text>
</a>
</g>
</g>
<!-- Node10&#45;&gt;Node15 -->
<g id="edge24" class="edge">
<title>Node10&#45;&gt;Node15</title>
<path fill="none" stroke="#191970" d="M761.8153,-128.9717C807.7074,-118.2582 883.0235,-100.6757 938.285,-87.7749"/>
<polygon fill="#191970" stroke="#191970" points="939.416,-91.1051 948.3585,-85.4233 937.8246,-84.2884 939.416,-91.1051"/>
</g>
<!-- Node11&#45;&gt;Node2 -->
<g id="edge17" class="edge">
<title>Node11&#45;&gt;Node2</title>
<path fill="none" stroke="#191970" d="M1143.6825,-86.6368C1134.1078,-117.2931 1108.0508,-186.7115 1060,-221 1037.256,-237.2299 972.1412,-249.4354 917.6139,-257.1807"/>
<polygon fill="#191970" stroke="#191970" points="916.9921,-253.7334 907.5682,-258.575 917.9545,-260.6669 916.9921,-253.7334"/>
</g>
<!-- Node12&#45;&gt;Node2 -->
<g id="edge19" class="edge">
<title>Node12&#45;&gt;Node2</title>
<path fill="none" stroke="#191970" d="M352.2768,-84.3903C307.9134,-97.023 258.5156,-119.4658 280,-154 329.023,-232.8002 607.8678,-256.8418 750.287,-264.0262"/>
<polygon fill="#191970" stroke="#191970" points="750.1417,-267.5232 760.3004,-264.5149 750.4829,-260.5315 750.1417,-267.5232"/>
</g>
<!-- Node13&#45;&gt;Node2 -->
<g id="edge21" class="edge">
<title>Node13&#45;&gt;Node2</title>
<path fill="none" stroke="#191970" d="M604.4107,-79.5376C550.9879,-89.6394 484.3825,-111.1321 508,-154 534.8939,-202.8149 562.3445,-200.0743 614,-221 657.4421,-238.5985 708.5532,-249.8095 750.5718,-256.7528"/>
<polygon fill="#191970" stroke="#191970" points="750.066,-260.2163 760.4936,-258.3415 751.1728,-253.3043 750.066,-260.2163"/>
</g>
<!-- Node14&#45;&gt;Node2 -->
<g id="edge23" class="edge">
<title>Node14&#45;&gt;Node2</title>
<path fill="none" stroke="#191970" d="M924.1601,-85.3419C981.3392,-98.5736 1058.6,-117.3234 1063,-123 1071.4407,-133.8895 1070.2608,-142.2907 1063,-154 1027.0938,-211.9052 951.768,-241.0107 897.2926,-255.0263"/>
<polygon fill="#191970" stroke="#191970" points="896.2488,-251.6788 887.3777,-257.4713 897.9248,-258.4752 896.2488,-251.6788"/>
</g>
<!-- Node15&#45;&gt;Node2 -->
<g id="edge25" class="edge">
<title>Node15&#45;&gt;Node2</title>
<path fill="none" stroke="#191970" d="M1041.7333,-86.6358C1056.3002,-95.0853 1071.8477,-107.1457 1080,-123 1102.94,-167.6128 1066.6073,-194.5205 1024,-221 992.2544,-240.7292 952.66,-251.9967 917.8446,-258.4316"/>
<polygon fill="#191970" stroke="#191970" points="916.9382,-255.0367 907.6864,-260.1995 918.1384,-261.933 916.9382,-255.0367"/>
</g>
<!-- Node16&#45;&gt;Node2 -->
<g id="edge27" class="edge">
<title>Node16&#45;&gt;Node2</title>
<path fill="none" stroke="#191970" d="M863.663,-148.2705C862.5468,-169.3972 851.9967,-219.6679 843.2428,-247.5446"/>
<polygon fill="#191970" stroke="#191970" points="839.8161,-246.747 839.8779,-257.3416 846.4365,-249.0208 839.8161,-246.747"/>
</g>
<!-- Node18&#45;&gt;Node2 -->
<g id="edge30" class="edge">
<title>Node18&#45;&gt;Node2</title>
<path fill="none" stroke="#191970" d="M1246.8544,-153.65C1236.9697,-172.8532 1212.2792,-205.3375 1182,-221 1137.7439,-243.8924 1005.8797,-256.5368 917.7217,-262.5328"/>
<polygon fill="#191970" stroke="#191970" points="917.4772,-259.0412 907.7313,-263.1966 917.9413,-266.0258 917.4772,-259.0412"/>
</g>
<!-- Node18&#45;&gt;Node19 -->
<g id="edge31" class="edge">
<title>Node18&#45;&gt;Node19</title>
<path fill="none" stroke="#191970" d="M1268.6071,-123.2967C1279.5107,-114.3876 1293.4622,-102.9882 1305.4997,-93.1527"/>
<polygon fill="#191970" stroke="#191970" points="1307.9373,-95.6808 1313.4666,-86.6432 1303.5082,-90.2601 1307.9373,-95.6808"/>
</g>
<!-- Node19&#45;&gt;Node1 -->
<g id="edge32" class="edge">
<title>Node19&#45;&gt;Node1</title>
<path fill="none" stroke="#191970" d="M1352.5169,-56.2977C1364.9982,-47.0495 1380.9159,-35.2551 1393.5614,-25.8853"/>
<polygon fill="#191970" stroke="#191970" points="1395.7596,-28.6126 1401.7106,-19.8469 1391.5922,-22.9882 1395.7596,-28.6126"/>
</g>
<!-- Node19&#45;&gt;Node2 -->
<g id="edge33" class="edge">
<title>Node19&#45;&gt;Node2</title>
<path fill="none" stroke="#191970" d="M1340.0776,-86.7879C1343.711,-104.3987 1343.0526,-133.5323 1330,-154 1300.2347,-200.6746 1277.1165,-202.3354 1225,-221 1170.6397,-240.4682 1015.4869,-254.6205 917.6955,-261.7581"/>
<polygon fill="#191970" stroke="#191970" points="917.2585,-258.2804 907.5357,-262.4895 917.7612,-265.2624 917.2585,-258.2804"/>
</g>
<!-- Node20&#45;&gt;Node1 -->
<g id="edge43" class="edge">
<title>Node20&#45;&gt;Node1</title>
<path fill="none" stroke="#191970" d="M1497.1641,-190.4841C1481.1719,-155.3551 1441.3412,-67.8618 1423.6746,-29.0549"/>
<polygon fill="#191970" stroke="#191970" points="1426.8311,-27.5409 1419.5023,-19.8898 1420.4602,-30.4413 1426.8311,-27.5409"/>
</g>
</g>
</svg>
        <g id="navigator" transform="translate(0 0)" fill="#404254">
                <rect fill="#f2f5e9" fill-opacity="0.5" stroke="#606060" stroke-width=".5" x="0" y="0" width="60" height="60"/>
                <use id="zoomplus" xlink:href="#zoomPlus" x="17" y="9" onmousedown="handleZoom(evt,'in')"/>
                <use id="zoomminus" xlink:href="#zoomMin" x="42" y="9" onmousedown="handleZoom(evt,'out')"/>
                <use id="reset" xlink:href="#resetDef" x="30" y="36" onmousedown="handleReset()"/>
                <g id="arrowUp" xlink:href="#dirArrow" transform="translate(30 24)" onmousedown="handlePan(0,-1)">
                  <use xlink:href="#rim" fill="#404040">
                        <set attributeName="fill" to="#808080" begin="arrowUp.mouseover" end="arrowUp.mouseout"/>
                  </use>
                  <path fill="none" stroke="white" stroke-width="1.5" d="M0,-3.0v7 M-2.5,-0.5L0,-3.0L2.5,-0.5"/>
                </g>
                <g id="arrowRight" xlink:href="#dirArrow" transform="rotate(90) translate(36 -43)" onmousedown="handlePan(1,0)">
                  <use xlink:href="#rim" fill="#404040">
                        <set attributeName="fill" to="#808080" begin="arrowRight.mouseover" end="arrowRight.mouseout"/>
                  </use>
                  <path fill="none" stroke="white" stroke-width="1.5" d="M0,-3.0v7 M-2.5,-0.5L0,-3.0L2.5,-0.5"/>
                </g>
                <g id="arrowDown" xlink:href="#dirArrow" transform="rotate(180) translate(-30 -48)" onmousedown="handlePan(0,1)">
                  <use xlink:href="#rim" fill="#404040">
                        <set attributeName="fill" to="#808080" begin="arrowDown.mouseover" end="arrowDown.mouseout"/>
                  </use>
                  <path fill="none" stroke="white" stroke-width="1.5" d="M0,-3.0v7 M-2.5,-0.5L0,-3.0L2.5,-0.5"/>
                </g>
                <g id="arrowLeft" xlink:href="#dirArrow" transform="rotate(270) translate(-36 17)" onmousedown="handlePan(-1,0)">
                  <use xlink:href="#rim" fill="#404040">
                        <set attributeName="fill" to="#808080" begin="arrowLeft.mouseover" end="arrowLeft.mouseout"/>
                  </use>
                  <path fill="none" stroke="white" stroke-width="1.5" d="M0,-3.0v7 M-2.5,-0.5L0,-3.0L2.5,-0.5"/>
                </g>
        </g>
        <svg viewBox="0 0 15 15" width="100%" height="30px" preserveAspectRatio="xMaxYMin meet">
         <g id="arrow_out" transform="scale(0.3 0.3)">
          <a xlink:href="file__formats_8h__incl_org.svg" target="_base">
           <rect id="button" ry="5" rx="5" y="6" x="6" height="38" width="38"
                fill="#f2f5e9" fill-opacity="0.5" stroke="#606060" stroke-width="1.0"/>
           <path id="arrow"
             d="M 11.500037,31.436501 C 11.940474,20.09759 22.043105,11.32322 32.158766,21.979434 L 37.068811,17.246167 C 37.068811,17.246167 37.088388,32 37.088388,32 L 22.160133,31.978069 C 22.160133,31.978069 26.997745,27.140456 26.997745,27.140456 C 18.528582,18.264221 13.291696,25.230495 11.500037,31.436501 z"
             style="fill:#404040;"/>
          </a>
         </g>
        </svg>
</svg>
