<?xml version="1.0" encoding="UTF-8" standalone="no"?>
<!DOCTYPE svg PUBLIC "-//W3C//DTD SVG 1.1//EN"
 "http://www.w3.org/Graphics/SVG/1.1/DTD/svg11.dtd">
<!-- Generated by graphviz version 2.40.1 (20161225.0304)
 -->
<!-- Title: ViennaRNA/grammar.h Pages: 1 -->
<svg width="1427pt" height="330pt"
 viewBox="0.00 0.00 1427.42 330.00" xmlns="http://www.w3.org/2000/svg" xmlns:xlink="http://www.w3.org/1999/xlink">
<g id="graph0" class="graph" transform="scale(1 1) rotate(0) translate(4 326)">
<title>ViennaRNA/grammar.h</title>
<!-- Node0 -->
<g id="node1" class="node">
<title>Node0</title>
<polygon fill="#bfbfbf" stroke="#000000" points="687.917,-302.5 687.917,-321.5 805.917,-321.5 805.917,-302.5 687.917,-302.5"/>
<text text-anchor="middle" x="746.917" y="-309.5" font-family="Helvetica,sans-Serif" font-size="10.00" fill="#000000">ViennaRNA/grammar.h</text>
</g>
<!-- Node1 -->
<g id="node2" class="node">
<title>Node1</title>
<g id="a_node2"><a xlink:href="data__structures_8h.html" target="_top" xlink:title="Various data structures and pre&#45;processor macros. ">
<polygon fill="none" stroke="#000000" points="673.417,-246.5 673.417,-265.5 820.417,-265.5 820.417,-246.5 673.417,-246.5"/>
<text text-anchor="middle" x="746.917" y="-253.5" font-family="Helvetica,sans-Serif" font-size="10.00" fill="#000000">ViennaRNA/data_structures.h</text>
</a>
</g>
</g>
<!-- Node0&#45;&gt;Node1 -->
<g id="edge1" class="edge">
<title>Node0&#45;&gt;Node1</title>
<path fill="none" stroke="#191970" d="M741.6502,-302.2455C740.2391,-294.9382 739.8349,-284.6944 740.4375,-275.7046"/>
<polygon fill="#191970" stroke="#191970" points="743.9281,-275.9945 741.6719,-265.6427 736.9802,-275.1421 743.9281,-275.9945"/>
</g>
<!-- Node1&#45;&gt;Node0 -->
<g id="edge36" class="edge">
<title>Node1&#45;&gt;Node0</title>
<path fill="none" stroke="#191970" d="M752.1621,-265.6427C753.5835,-272.9199 753.998,-283.155 753.4057,-292.1575"/>
<polygon fill="#191970" stroke="#191970" points="749.9117,-291.8972 752.1839,-302.2455 756.8609,-292.739 749.9117,-291.8972"/>
</g>
<!-- Node2 -->
<g id="node3" class="node">
<title>Node2</title>
<g id="a_node3"><a xlink:href="energy__const_8h.html" target="_top" xlink:title="Energy parameter constants. ">
<polygon fill="none" stroke="#000000" points="591.917,-62 591.917,-81 729.917,-81 729.917,-62 591.917,-62"/>
<text text-anchor="middle" x="660.917" y="-69" font-family="Helvetica,sans-Serif" font-size="10.00" fill="#000000">ViennaRNA/energy_const.h</text>
</a>
</g>
</g>
<!-- Node1&#45;&gt;Node2 -->
<g id="edge2" class="edge">
<title>Node1&#45;&gt;Node2</title>
<path fill="none" stroke="#191970" d="M763.6544,-246.2988C775.6754,-238.2823 790.94,-225.6887 797.917,-210 813.629,-174.6695 819.9286,-154.7899 797.917,-123 787.4835,-107.9316 745.3047,-93.4919 710.4716,-83.7574"/>
<polygon fill="#191970" stroke="#191970" points="710.9769,-80.2676 700.4085,-81.0161 709.137,-87.0215 710.9769,-80.2676"/>
</g>
<!-- Node4 -->
<g id="node5" class="node">
<title>Node4</title>
<g id="a_node5"><a xlink:href="fold__compound_8h.html" target="_top" xlink:title="The Basic Fold Compound API. ">
<polygon fill="none" stroke="#000000" points="441.917,-190.5 441.917,-209.5 587.917,-209.5 587.917,-190.5 441.917,-190.5"/>
<text text-anchor="middle" x="514.917" y="-197.5" font-family="Helvetica,sans-Serif" font-size="10.00" fill="#000000">ViennaRNA/fold_compound.h</text>
</a>
</g>
</g>
<!-- Node1&#45;&gt;Node4 -->
<g id="edge4" class="edge">
<title>Node1&#45;&gt;Node4</title>
<path fill="none" stroke="#191970" d="M707.2984,-246.4369C667.7602,-236.8932 606.9101,-222.2052 564.2589,-211.9101"/>
<polygon fill="#191970" stroke="#191970" points="564.9143,-208.4679 554.3722,-209.5237 563.2718,-215.2724 564.9143,-208.4679"/>
</g>
<!-- Node5 -->
<g id="node6" class="node">
<title>Node5</title>
<g id="a_node6"><a xlink:href="model_8h.html" target="_top" xlink:title="The model details data structure and its corresponding modifiers. ">
<polygon fill="none" stroke="#000000" points="126.917,-62 126.917,-81 232.917,-81 232.917,-62 126.917,-62"/>
<text text-anchor="middle" x="179.917" y="-69" font-family="Helvetica,sans-Serif" font-size="10.00" fill="#000000">ViennaRNA/model.h</text>
</a>
</g>
</g>
<!-- Node1&#45;&gt;Node5 -->
<g id="edge32" class="edge">
<title>Node1&#45;&gt;Node5</title>
<path fill="none" stroke="#191970" d="M673.1804,-251.3442C494.7597,-239.3165 51.269,-204.5735 8.917,-154 -25.8643,-112.4669 54.492,-90.2589 116.4859,-79.6809"/>
<polygon fill="#191970" stroke="#191970" points="117.341,-83.0877 126.6458,-78.0211 116.2123,-76.1793 117.341,-83.0877"/>
</g>
<!-- Node6 -->
<g id="node7" class="node">
<title>Node6</title>
<g id="a_node7"><a xlink:href="params_8h.html" target="_top" xlink:title="Functions to deal with sets of energy parameters. ">
<polygon fill="none" stroke="#000000" points="481.917,-129 481.917,-148 593.917,-148 593.917,-129 481.917,-129"/>
<text text-anchor="middle" x="537.917" y="-136" font-family="Helvetica,sans-Serif" font-size="10.00" fill="#000000">ViennaRNA/params.h</text>
</a>
</g>
</g>
<!-- Node1&#45;&gt;Node6 -->
<g id="edge33" class="edge">
<title>Node1&#45;&gt;Node6</title>
<path fill="none" stroke="#191970" d="M723.7506,-246.3638C698.1065,-233.4941 656.4968,-209.9937 620.917,-190 598.9704,-177.6673 574.0518,-163.7218 557.0842,-153.4559"/>
<polygon fill="#191970" stroke="#191970" points="558.889,-150.4568 548.5451,-148.1647 555.202,-156.4071 558.889,-150.4568"/>
</g>
<!-- Node8 -->
<g id="node9" class="node">
<title>Node8</title>
<g id="a_node9"><a xlink:href="dp__matrices_8h.html" target="_top" xlink:title="Functions to deal with standard dynamic programming (DP) matrices. ">
<polygon fill="none" stroke="#000000" points="18.417,-129 18.417,-148 151.417,-148 151.417,-129 18.417,-129"/>
<text text-anchor="middle" x="84.917" y="-136" font-family="Helvetica,sans-Serif" font-size="10.00" fill="#000000">ViennaRNA/dp_matrices.h</text>
</a>
</g>
</g>
<!-- Node1&#45;&gt;Node8 -->
<g id="edge34" class="edge">
<title>Node1&#45;&gt;Node8</title>
<path fill="none" stroke="#191970" d="M673.3436,-247.3626C607.594,-238.8427 508.9748,-224.9557 423.917,-210 318.828,-191.5222 196.8536,-165.3668 131.5815,-150.3482"/>
<polygon fill="#191970" stroke="#191970" points="132.1358,-146.884 121.6038,-148.0363 130.5556,-153.7034 132.1358,-146.884"/>
</g>
<!-- Node9 -->
<g id="node10" class="node">
<title>Node9</title>
<g id="a_node10"><a xlink:href="constraints_8h.html" target="_top" xlink:title="Functions and data structures for constraining secondary structure predictions and evaluation...">
<polygon fill="none" stroke="#000000" points="925.917,-129 925.917,-148 1053.917,-148 1053.917,-129 925.917,-129"/>
<text text-anchor="middle" x="989.917" y="-136" font-family="Helvetica,sans-Serif" font-size="10.00" fill="#000000">ViennaRNA/constraints.h</text>
</a>
</g>
</g>
<!-- Node1&#45;&gt;Node9 -->
<g id="edge35" class="edge">
<title>Node1&#45;&gt;Node9</title>
<path fill="none" stroke="#191970" d="M798.4577,-246.4515C829.9972,-239.528 870.2889,-228.1189 902.917,-210 928.45,-195.8211 952.3525,-171.6771 968.9578,-155.4138"/>
<polygon fill="#191970" stroke="#191970" points="971.7302,-157.6025 976.4985,-148.1413 966.8709,-152.564 971.7302,-157.6025"/>
</g>
<!-- Node15 -->
<g id="node16" class="node">
<title>Node15</title>
<g id="a_node16"><a xlink:href="structured__domains_8h.html" target="_top" xlink:title="This module provides interfaces that deal with additional structured domains in the folding grammar...">
<polygon fill="none" stroke="#000000" points="348.417,-123.5 348.417,-153.5 463.417,-153.5 463.417,-123.5 348.417,-123.5"/>
<text text-anchor="start" x="356.417" y="-141.5" font-family="Helvetica,sans-Serif" font-size="10.00" fill="#000000">ViennaRNA/structured</text>
<text text-anchor="middle" x="405.917" y="-130.5" font-family="Helvetica,sans-Serif" font-size="10.00" fill="#000000">_domains.h</text>
</a>
</g>
</g>
<!-- Node1&#45;&gt;Node15 -->
<g id="edge37" class="edge">
<title>Node1&#45;&gt;Node15</title>
<path fill="none" stroke="#191970" d="M718.4413,-246.3429C694.3828,-237.8226 659.2568,-224.5265 629.917,-210 614.5476,-202.3904 612.6856,-196.7435 596.917,-190 574.6322,-180.4698 518.8607,-165.7935 473.3018,-154.5426"/>
<polygon fill="#191970" stroke="#191970" points="474.0015,-151.1106 463.4553,-152.1247 472.3321,-157.9086 474.0015,-151.1106"/>
</g>
<!-- Node16 -->
<g id="node17" class="node">
<title>Node16</title>
<g id="a_node17"><a xlink:href="unstructured__domains_8h.html" target="_top" xlink:title="Functions to modify unstructured domains, e.g. to incorporate ligands binding to unpaired stretches...">
<polygon fill="none" stroke="#000000" points="612.417,-123.5 612.417,-153.5 737.417,-153.5 737.417,-123.5 612.417,-123.5"/>
<text text-anchor="start" x="620.417" y="-141.5" font-family="Helvetica,sans-Serif" font-size="10.00" fill="#000000">ViennaRNA/unstructured</text>
<text text-anchor="middle" x="674.917" y="-130.5" font-family="Helvetica,sans-Serif" font-size="10.00" fill="#000000">_domains.h</text>
</a>
</g>
</g>
<!-- Node1&#45;&gt;Node16 -->
<g id="edge38" class="edge">
<title>Node1&#45;&gt;Node16</title>
<path fill="none" stroke="#191970" d="M737.1131,-246.3845C722.9357,-228.3051 698.1316,-188.742 684.2617,-162.8814"/>
<polygon fill="#191970" stroke="#191970" points="687.2254,-160.9925 679.5262,-153.7143 681.0062,-164.2053 687.2254,-160.9925"/>
</g>
<!-- Node17 -->
<g id="node18" class="node">
<title>Node17</title>
<g id="a_node18"><a xlink:href="structure__utils_8h.html" target="_top" xlink:title="Various utility&#45; and helper&#45;functions for secondary structure parsing, converting, etc. ">
<polygon fill="none" stroke="#000000" points="463.917,-56.5 463.917,-86.5 573.917,-86.5 573.917,-56.5 463.917,-56.5"/>
<text text-anchor="start" x="471.917" y="-74.5" font-family="Helvetica,sans-Serif" font-size="10.00" fill="#000000">ViennaRNA/structure</text>
<text text-anchor="middle" x="518.917" y="-63.5" font-family="Helvetica,sans-Serif" font-size="10.00" fill="#000000">_utils.h</text>
</a>
</g>
</g>
<!-- Node1&#45;&gt;Node17 -->
<g id="edge39" class="edge">
<title>Node1&#45;&gt;Node17</title>
<path fill="none" stroke="#191970" d="M746.1254,-246.31C749.9102,-222.3677 767.4388,-159.7051 737.917,-123 693.2483,-67.4625 650.6337,-100.4816 581.792,-88.532"/>
<polygon fill="#191970" stroke="#191970" points="582.3962,-85.0834 571.9011,-86.5335 581.0098,-91.9447 582.3962,-85.0834"/>
</g>
<!-- Node3 -->
<g id="node4" class="node">
<title>Node3</title>
<polygon fill="none" stroke="#bfbfbf" points="636.917,-.5 636.917,-19.5 684.917,-19.5 684.917,-.5 636.917,-.5"/>
<text text-anchor="middle" x="660.917" y="-7.5" font-family="Helvetica,sans-Serif" font-size="10.00" fill="#000000">limits.h</text>
</g>
<!-- Node2&#45;&gt;Node3 -->
<g id="edge3" class="edge">
<title>Node2&#45;&gt;Node3</title>
<path fill="none" stroke="#191970" d="M660.917,-61.8906C660.917,-53.3657 660.917,-40.6392 660.917,-29.9235"/>
<polygon fill="#191970" stroke="#191970" points="664.4171,-29.7448 660.917,-19.7449 657.4171,-29.7449 664.4171,-29.7448"/>
</g>
<!-- Node4&#45;&gt;Node0 -->
<g id="edge25" class="edge">
<title>Node4&#45;&gt;Node0</title>
<path fill="none" stroke="#191970" d="M534.6471,-209.5249C575.6099,-229.3 670.0404,-274.8872 717.9336,-298.008"/>
<polygon fill="#191970" stroke="#191970" points="716.6096,-301.2553 727.1368,-302.4509 719.6529,-294.9515 716.6096,-301.2553"/>
</g>
<!-- Node4&#45;&gt;Node5 -->
<g id="edge5" class="edge">
<title>Node4&#45;&gt;Node5</title>
<path fill="none" stroke="#191970" d="M441.6038,-193.6815C353.865,-185.4542 216.4998,-170.2003 198.917,-154 181.7392,-138.1729 178.5666,-110.2037 178.6307,-91.2665"/>
<polygon fill="#191970" stroke="#191970" points="182.1353,-91.1891 178.9767,-81.0761 175.1393,-90.9515 182.1353,-91.1891"/>
</g>
<!-- Node4&#45;&gt;Node6 -->
<g id="edge6" class="edge">
<title>Node4&#45;&gt;Node6</title>
<path fill="none" stroke="#191970" d="M518.5108,-190.3906C521.7661,-181.6862 526.6595,-168.6015 530.718,-157.7494"/>
<polygon fill="#191970" stroke="#191970" points="534.0479,-158.8373 534.2726,-148.2449 527.4914,-156.3852 534.0479,-158.8373"/>
</g>
<!-- Node7 -->
<g id="node8" class="node">
<title>Node7</title>
<g id="a_node8"><a xlink:href="sequence_8h.html" target="_top" xlink:title="Functions and data structures related to sequence representations. ">
<polygon fill="none" stroke="#000000" points="207.917,-129 207.917,-148 329.917,-148 329.917,-129 207.917,-129"/>
<text text-anchor="middle" x="268.917" y="-136" font-family="Helvetica,sans-Serif" font-size="10.00" fill="#000000">ViennaRNA/sequence.h</text>
</a>
</g>
</g>
<!-- Node4&#45;&gt;Node7 -->
<g id="edge10" class="edge">
<title>Node4&#45;&gt;Node7</title>
<path fill="none" stroke="#191970" d="M476.7494,-190.4581C433.75,-179.7082 363.7819,-162.2162 317.0628,-150.5365"/>
<polygon fill="#191970" stroke="#191970" points="317.7245,-147.0942 307.1741,-148.0643 316.0267,-153.8852 317.7245,-147.0942"/>
</g>
<!-- Node4&#45;&gt;Node8 -->
<g id="edge11" class="edge">
<title>Node4&#45;&gt;Node8</title>
<path fill="none" stroke="#191970" d="M441.8778,-191.6238C371.1426,-183.217 260.9417,-169.341 165.917,-154 158.2644,-152.7646 150.2258,-151.3584 142.3067,-149.909"/>
<polygon fill="#191970" stroke="#191970" points="142.8498,-146.45 132.3779,-148.0596 141.5679,-153.3317 142.8498,-146.45"/>
</g>
<!-- Node4&#45;&gt;Node9 -->
<g id="edge13" class="edge">
<title>Node4&#45;&gt;Node9</title>
<path fill="none" stroke="#191970" d="M588.0948,-190.5254C677.0506,-179.008 826.3311,-159.6801 915.7371,-148.1043"/>
<polygon fill="#191970" stroke="#191970" points="916.3327,-151.5565 925.8005,-146.8014 915.4338,-144.6145 916.3327,-151.5565"/>
</g>
<!-- Node4&#45;&gt;Node15 -->
<g id="edge26" class="edge">
<title>Node4&#45;&gt;Node15</title>
<path fill="none" stroke="#191970" d="M497.8858,-190.3906C482.8608,-181.9132 460.4718,-169.2809 441.5464,-158.6028"/>
<polygon fill="#191970" stroke="#191970" points="443.0107,-155.4104 432.5814,-153.5446 439.5709,-161.5069 443.0107,-155.4104"/>
</g>
<!-- Node4&#45;&gt;Node16 -->
<g id="edge27" class="edge">
<title>Node4&#45;&gt;Node16</title>
<path fill="none" stroke="#191970" d="M539.917,-190.3906C562.9746,-181.5279 597.8466,-168.1239 626.3722,-157.1594"/>
<polygon fill="#191970" stroke="#191970" points="627.6982,-160.3995 635.7766,-153.5446 625.1866,-153.8655 627.6982,-160.3995"/>
</g>
<!-- Node6&#45;&gt;Node1 -->
<g id="edge8" class="edge">
<title>Node6&#45;&gt;Node1</title>
<path fill="none" stroke="#191970" d="M561.8987,-148.1647C582.7208,-158.5015 612.9062,-175.3835 638.917,-190 669.9103,-207.4164 705.4792,-227.4937 727.2841,-240.8872"/>
<polygon fill="#191970" stroke="#191970" points="725.6712,-244.0073 736.0006,-246.3638 729.3953,-238.0801 725.6712,-244.0073"/>
</g>
<!-- Node6&#45;&gt;Node2 -->
<g id="edge7" class="edge">
<title>Node6&#45;&gt;Node2</title>
<path fill="none" stroke="#191970" d="M555.5399,-128.9005C576.1821,-117.6564 610.585,-98.9166 634.441,-85.9219"/>
<polygon fill="#191970" stroke="#191970" points="636.2194,-88.9388 643.3268,-81.0817 632.8709,-82.7916 636.2194,-88.9388"/>
</g>
<!-- Node6&#45;&gt;Node5 -->
<g id="edge9" class="edge">
<title>Node6&#45;&gt;Node5</title>
<path fill="none" stroke="#191970" d="M499.5073,-128.9369C490.7873,-126.8784 481.551,-124.7865 472.917,-123 394.0296,-106.6766 302.5025,-91.1262 243.023,-81.4665"/>
<polygon fill="#191970" stroke="#191970" points="243.4612,-77.992 233.0306,-79.8502 242.3434,-84.9022 243.4612,-77.992"/>
</g>
<!-- Node8&#45;&gt;Node1 -->
<g id="edge12" class="edge">
<title>Node8&#45;&gt;Node1</title>
<path fill="none" stroke="#191970" d="M133.1092,-148.0363C201.7545,-162.5463 331.2059,-190.5337 441.917,-210 519.7907,-223.6925 609.0318,-236.4893 670.8372,-245.0915"/>
<polygon fill="#191970" stroke="#191970" points="670.5112,-248.5798 680.8976,-246.4886 671.4741,-241.6463 670.5112,-248.5798"/>
</g>
<!-- Node9&#45;&gt;Node1 -->
<g id="edge14" class="edge">
<title>Node9&#45;&gt;Node1</title>
<path fill="none" stroke="#191970" d="M987.5485,-148.3918C977.8341,-163.8324 950.4675,-193.5901 920.917,-210 891.4752,-226.3495 855.7936,-237.2357 824.3748,-244.2927"/>
<polygon fill="#191970" stroke="#191970" points="823.3775,-240.9271 814.337,-246.4515 824.8494,-247.7706 823.3775,-240.9271"/>
</g>
<!-- Node10 -->
<g id="node11" class="node">
<title>Node10</title>
<g id="a_node11"><a xlink:href="constraints__hard_8h.html" target="_top" xlink:title="Functions and data structures for handling of secondary structure hard constraints. ">
<polygon fill="none" stroke="#000000" points="748.417,-56.5 748.417,-86.5 867.417,-86.5 867.417,-56.5 748.417,-56.5"/>
<text text-anchor="start" x="756.417" y="-74.5" font-family="Helvetica,sans-Serif" font-size="10.00" fill="#000000">ViennaRNA/constraints</text>
<text text-anchor="middle" x="807.917" y="-63.5" font-family="Helvetica,sans-Serif" font-size="10.00" fill="#000000">_hard.h</text>
</a>
</g>
</g>
<!-- Node9&#45;&gt;Node10 -->
<g id="edge15" class="edge">
<title>Node9&#45;&gt;Node10</title>
<path fill="none" stroke="#191970" d="M963.8408,-128.9005C936.4662,-118.8231 892.7363,-102.7247 858.5442,-90.1375"/>
<polygon fill="#191970" stroke="#191970" points="859.3159,-86.692 848.7224,-86.5218 856.8976,-93.261 859.3159,-86.692"/>
</g>
<!-- Node11 -->
<g id="node12" class="node">
<title>Node11</title>
<g id="a_node12"><a xlink:href="constraints__soft_8h.html" target="_top" xlink:title="Functions and data structures for secondary structure soft constraints. ">
<polygon fill="none" stroke="#000000" points="885.417,-56.5 885.417,-86.5 1004.417,-86.5 1004.417,-56.5 885.417,-56.5"/>
<text text-anchor="start" x="893.417" y="-74.5" font-family="Helvetica,sans-Serif" font-size="10.00" fill="#000000">ViennaRNA/constraints</text>
<text text-anchor="middle" x="944.917" y="-63.5" font-family="Helvetica,sans-Serif" font-size="10.00" fill="#000000">_soft.h</text>
</a>
</g>
</g>
<!-- Node9&#45;&gt;Node11 -->
<g id="edge17" class="edge">
<title>Node9&#45;&gt;Node11</title>
<path fill="none" stroke="#191970" d="M983.4696,-128.9005C977.5436,-120.0773 968.5176,-106.6387 960.6886,-94.9822"/>
<polygon fill="#191970" stroke="#191970" points="963.4873,-92.8717 955.0063,-86.5218 957.6764,-96.7746 963.4873,-92.8717"/>
</g>
<!-- Node12 -->
<g id="node13" class="node">
<title>Node12</title>
<g id="a_node13"><a xlink:href="constraints__SHAPE_8h.html" target="_top" xlink:title="This module provides function to incorporate SHAPE reactivity data into the folding recursions by mea...">
<polygon fill="none" stroke="#000000" points="1022.417,-56.5 1022.417,-86.5 1141.417,-86.5 1141.417,-56.5 1022.417,-56.5"/>
<text text-anchor="start" x="1030.417" y="-74.5" font-family="Helvetica,sans-Serif" font-size="10.00" fill="#000000">ViennaRNA/constraints</text>
<text text-anchor="middle" x="1081.917" y="-63.5" font-family="Helvetica,sans-Serif" font-size="10.00" fill="#000000">_SHAPE.h</text>
</a>
</g>
</g>
<!-- Node9&#45;&gt;Node12 -->
<g id="edge19" class="edge">
<title>Node9&#45;&gt;Node12</title>
<path fill="none" stroke="#191970" d="M1003.0984,-128.9005C1016.0452,-119.4718 1036.2294,-104.7725 1052.9307,-92.6096"/>
<polygon fill="#191970" stroke="#191970" points="1055.267,-95.238 1061.2901,-86.5218 1051.1461,-89.5795 1055.267,-95.238"/>
</g>
<!-- Node13 -->
<g id="node14" class="node">
<title>Node13</title>
<g id="a_node14"><a xlink:href="perturbation__fold_8h.html" target="_top" xlink:title="Find a vector of perturbation energies that minimizes the discripancies between predicted and observe...">
<polygon fill="none" stroke="#000000" points="1159.917,-56.5 1159.917,-86.5 1281.917,-86.5 1281.917,-56.5 1159.917,-56.5"/>
<text text-anchor="start" x="1167.917" y="-74.5" font-family="Helvetica,sans-Serif" font-size="10.00" fill="#000000">ViennaRNA/perturbation</text>
<text text-anchor="middle" x="1220.917" y="-63.5" font-family="Helvetica,sans-Serif" font-size="10.00" fill="#000000">_fold.h</text>
</a>
</g>
</g>
<!-- Node9&#45;&gt;Node13 -->
<g id="edge21" class="edge">
<title>Node9&#45;&gt;Node13</title>
<path fill="none" stroke="#191970" d="M1023.0137,-128.9005C1058.504,-118.6068 1115.6535,-102.031 1159.4362,-89.3321"/>
<polygon fill="#191970" stroke="#191970" points="1160.4964,-92.6689 1169.1256,-86.5218 1158.5464,-85.946 1160.4964,-92.6689"/>
</g>
<!-- Node14 -->
<g id="node15" class="node">
<title>Node14</title>
<g id="a_node15"><a xlink:href="constraints__ligand_8h.html" target="_top" xlink:title="Functions for incorporation of ligands binding to hairpin and interior loop motifs using the soft con...">
<polygon fill="none" stroke="#000000" points="1300.417,-56.5 1300.417,-86.5 1419.417,-86.5 1419.417,-56.5 1300.417,-56.5"/>
<text text-anchor="start" x="1308.417" y="-74.5" font-family="Helvetica,sans-Serif" font-size="10.00" fill="#000000">ViennaRNA/constraints</text>
<text text-anchor="middle" x="1359.917" y="-63.5" font-family="Helvetica,sans-Serif" font-size="10.00" fill="#000000">_ligand.h</text>
</a>
</g>
</g>
<!-- Node9&#45;&gt;Node14 -->
<g id="edge23" class="edge">
<title>Node9&#45;&gt;Node14</title>
<path fill="none" stroke="#191970" d="M1051.1947,-128.9643C1109.9348,-119.6085 1201.3244,-104.4927 1290.1419,-87.0969"/>
<polygon fill="#191970" stroke="#191970" points="1290.9832,-90.4985 1300.1178,-85.1311 1289.6297,-83.6306 1290.9832,-90.4985"/>
</g>
<!-- Node10&#45;&gt;Node1 -->
<g id="edge16" class="edge">
<title>Node10&#45;&gt;Node1</title>
<path fill="none" stroke="#191970" d="M818.9309,-86.8796C825.2657,-96.6952 832.6066,-109.9806 835.917,-123 845.4455,-160.4742 856.0246,-176.9728 835.917,-210 826.617,-225.2754 810.4304,-235.7009 794.3894,-242.7081"/>
<polygon fill="#191970" stroke="#191970" points="793.0048,-239.4922 785.0146,-246.4497 795.5996,-245.9935 793.0048,-239.4922"/>
</g>
<!-- Node11&#45;&gt;Node1 -->
<g id="edge18" class="edge">
<title>Node11&#45;&gt;Node1</title>
<path fill="none" stroke="#191970" d="M936.3814,-86.7883C918.2438,-118.8562 875.7433,-191.6996 853.917,-210 836.0741,-224.9605 812.6326,-235.7696 792.2399,-243.1349"/>
<polygon fill="#191970" stroke="#191970" points="790.8319,-239.9178 782.5117,-246.4771 793.1063,-246.538 790.8319,-239.9178"/>
</g>
<!-- Node12&#45;&gt;Node1 -->
<g id="edge20" class="edge">
<title>Node12&#45;&gt;Node1</title>
<path fill="none" stroke="#191970" d="M1082.18,-86.5467C1081.7241,-104.4635 1078.4385,-134.4194 1062.917,-154 1027.8504,-198.2369 1002.1304,-191.1612 948.917,-210 905.3143,-225.4364 854.5435,-236.9722 814.8097,-244.6309"/>
<polygon fill="#191970" stroke="#191970" points="814.132,-241.1969 804.9567,-246.4945 815.433,-248.0749 814.132,-241.1969"/>
</g>
<!-- Node13&#45;&gt;Node1 -->
<g id="edge22" class="edge">
<title>Node13&#45;&gt;Node1</title>
<path fill="none" stroke="#191970" d="M1202.0452,-86.5366C1164.9142,-115.3117 1078.7574,-178.1331 995.917,-210 942.8496,-230.4139 879.8453,-241.9422 830.491,-248.3527"/>
<polygon fill="#191970" stroke="#191970" points="829.9795,-244.8893 820.4925,-249.606 830.8502,-251.835 829.9795,-244.8893"/>
</g>
<!-- Node14&#45;&gt;Node1 -->
<g id="edge24" class="edge">
<title>Node14&#45;&gt;Node1</title>
<path fill="none" stroke="#191970" d="M1330.8367,-86.5398C1274.4969,-115.0386 1145.8826,-177.0014 1030.917,-210 964.9064,-228.947 887.8791,-240.811 830.7106,-247.7347"/>
<polygon fill="#191970" stroke="#191970" points="830.1532,-244.2762 820.6347,-248.9289 830.9771,-251.2276 830.1532,-244.2762"/>
</g>
<!-- Node16&#45;&gt;Node1 -->
<g id="edge28" class="edge">
<title>Node16&#45;&gt;Node1</title>
<path fill="none" stroke="#191970" d="M688.9535,-153.7143C704.6462,-175.1157 728.6512,-214.079 740.5274,-237.2456"/>
<polygon fill="#191970" stroke="#191970" points="737.4389,-238.8989 744.9368,-246.3845 743.7435,-235.857 737.4389,-238.8989"/>
</g>
<!-- Node16&#45;&gt;Node17 -->
<g id="edge29" class="edge">
<title>Node16&#45;&gt;Node17</title>
<path fill="none" stroke="#191970" d="M639.9076,-123.4639C617.3057,-113.7567 587.7002,-101.0415 563.4323,-90.6188"/>
<polygon fill="#191970" stroke="#191970" points="564.6488,-87.3321 554.0791,-86.6017 561.8863,-93.764 564.6488,-87.3321"/>
</g>
<!-- Node17&#45;&gt;Node1 -->
<g id="edge31" class="edge">
<title>Node17&#45;&gt;Node1</title>
<path fill="none" stroke="#191970" d="M573.9576,-82.7941C580.0446,-84.2296 586.1245,-85.663 591.917,-87 664.6295,-103.7836 709.1474,-64.8503 755.917,-123 782.2099,-155.6905 771.1818,-208.9708 759.3463,-237.149"/>
<polygon fill="#191970" stroke="#191970" points="756.1253,-235.7733 755.017,-246.31 762.4542,-238.7642 756.1253,-235.7733"/>
</g>
<!-- Node18 -->
<g id="node19" class="node">
<title>Node18</title>
<polygon fill="none" stroke="#bfbfbf" points="495.917,-.5 495.917,-19.5 541.917,-19.5 541.917,-.5 495.917,-.5"/>
<text text-anchor="middle" x="518.917" y="-7.5" font-family="Helvetica,sans-Serif" font-size="10.00" fill="#000000">stdio.h</text>
</g>
<!-- Node17&#45;&gt;Node18 -->
<g id="edge30" class="edge">
<title>Node17&#45;&gt;Node18</title>
<path fill="none" stroke="#191970" d="M518.917,-56.2977C518.917,-48.3834 518.917,-38.6043 518.917,-30.0759"/>
<polygon fill="#191970" stroke="#191970" points="522.4171,-29.8469 518.917,-19.8469 515.4171,-29.847 522.4171,-29.8469"/>
</g>
</g>
</svg>
