<?xml version="1.0" encoding="UTF-8" standalone="no"?>
<!DOCTYPE svg PUBLIC "-//W3C//DTD SVG 1.1//EN"
 "http://www.w3.org/Graphics/SVG/1.1/DTD/svg11.dtd">
<!-- Generated by graphviz version 2.40.1 (20161225.0304)
 -->
<!-- Title: Extending the folding grammar with additional domains Pages: 1 -->
<svg width="447pt" height="66pt"
 viewBox="0.00 0.00 447.00 66.00" xmlns="http://www.w3.org/2000/svg" xmlns:xlink="http://www.w3.org/1999/xlink">
<g id="graph0" class="graph" transform="scale(1 1) rotate(0) translate(4 62)">
<title>Extending the folding grammar with additional domains</title>
<!-- Node3 -->
<g id="node1" class="node">
<title>Node3</title>
<g id="a_node1"><a xlink:href="group__domains__struc.html" target="_top" xlink:title="Add and modify structured domains to the RNA folding grammar. ">
<polygon fill="none" stroke="#000000" points="332,-38.5 332,-57.5 433,-57.5 433,-38.5 332,-38.5"/>
<text text-anchor="middle" x="382.5" y="-45.5" font-family="Helvetica,sans-Serif" font-size="10.00" fill="#000000">Structured domains</text>
</a>
</g>
</g>
<!-- Node1 -->
<g id="node2" class="node">
<title>Node1</title>
<g id="a_node2"><a xlink:href="group__grammar.html" target="_top" xlink:title="The RNA folding grammar as implemented in RNAlib. ">
<polygon fill="none" stroke="#000000" points="0,-19.5 0,-38.5 131,-38.5 131,-19.5 0,-19.5"/>
<text text-anchor="middle" x="65.5" y="-26.5" font-family="Helvetica,sans-Serif" font-size="10.00" fill="#000000">The RNA folding grammar</text>
</a>
</g>
</g>
<!-- Node0 -->
<g id="node4" class="node">
<title>Node0</title>
<polygon fill="#bfbfbf" stroke="#000000" points="167,-8.5 167,-49.5 290,-49.5 290,-8.5 167,-8.5"/>
<text text-anchor="start" x="175" y="-37.5" font-family="Helvetica,sans-Serif" font-size="10.00" fill="#000000">Extending the folding</text>
<text text-anchor="start" x="175" y="-26.5" font-family="Helvetica,sans-Serif" font-size="10.00" fill="#000000"> grammar with additional</text>
<text text-anchor="middle" x="228.5" y="-15.5" font-family="Helvetica,sans-Serif" font-size="10.00" fill="#000000"> domains</text>
</g>
<!-- Node1&#45;&gt;Node0 -->
<g id="edge1" class="edge">
<title>Node1&#45;&gt;Node0</title>
<path fill="none" stroke="#000000" d="M141.6076,-29C150.0867,-29 158.644,-29 166.9103,-29"/>
<polygon fill="#000000" stroke="#000000" points="141.3285,-25.5001 131.3285,-29 141.3285,-32.5001 141.3285,-25.5001"/>
</g>
<!-- Node2 -->
<g id="node3" class="node">
<title>Node2</title>
<g id="a_node3"><a xlink:href="group__domains__up.html" target="_top" xlink:title="Add and modify unstructured domains to the RNA folding grammar. ">
<polygon fill="none" stroke="#000000" points="326,-.5 326,-19.5 439,-19.5 439,-.5 326,-.5"/>
<text text-anchor="middle" x="382.5" y="-7.5" font-family="Helvetica,sans-Serif" font-size="10.00" fill="#000000">Unstructured domains</text>
</a>
</g>
</g>
<!-- Node0&#45;&gt;Node3 -->
<g id="edge3" class="edge">
<title>Node0&#45;&gt;Node3</title>
<path fill="none" stroke="#000000" d="M300.3136,-37.8601C310.8788,-39.1636 321.5748,-40.4833 331.6011,-41.7203"/>
<polygon fill="#000000" stroke="#000000" points="300.6037,-34.3695 290.2504,-36.6185 299.7465,-41.3168 300.6037,-34.3695"/>
</g>
<!-- Node0&#45;&gt;Node2 -->
<g id="edge2" class="edge">
<title>Node0&#45;&gt;Node2</title>
<path fill="none" stroke="#000000" d="M300.226,-20.1507C308.7795,-19.0954 317.4203,-18.0293 325.7234,-17.0049"/>
<polygon fill="#000000" stroke="#000000" points="299.7465,-16.6832 290.2504,-21.3815 300.6037,-23.6305 299.7465,-16.6832"/>
</g>
</g>
</svg>
