<?xml version="1.0" encoding="UTF-8" standalone="no"?>
<!DOCTYPE svg PUBLIC "-//W3C//DTD SVG 1.1//EN"
 "http://www.w3.org/Graphics/SVG/1.1/DTD/svg11.dtd">
<!-- Generated by graphviz version 2.40.1 (20161225.0304)
 -->
<!-- Title: Stochastic Backtracking of Consensus Structures from Sequence Alignment(s) Pages: 1 -->
<svg width="300pt" height="88pt"
 viewBox="0.00 0.00 300.00 88.00" xmlns="http://www.w3.org/2000/svg" xmlns:xlink="http://www.w3.org/1999/xlink">
<g id="graph0" class="graph" transform="scale(1 1) rotate(0) translate(4 84)">
<title>Stochastic Backtracking of Consensus Structures from Sequence Alignment(s)</title>
<!-- Node1 -->
<g id="node1" class="node">
<title>Node1</title>
<g id="a_node1"><a xlink:href="group__consensus__fold.html" target="_top" xlink:title="Comparative structure\l prediction">
<polygon fill="none" stroke="#000000" points="0,-49.5 0,-79.5 113,-79.5 113,-49.5 0,-49.5"/>
<text text-anchor="start" x="8" y="-67.5" font-family="Helvetica,sans-Serif" font-size="10.00" fill="#000000">Comparative structure</text>
<text text-anchor="middle" x="56.5" y="-56.5" font-family="Helvetica,sans-Serif" font-size="10.00" fill="#000000"> prediction</text>
</a>
</g>
</g>
<!-- Node0 -->
<g id="node3" class="node">
<title>Node0</title>
<polygon fill="#bfbfbf" stroke="#000000" points="149,-19 149,-60 292,-60 292,-19 149,-19"/>
<text text-anchor="start" x="157" y="-48" font-family="Helvetica,sans-Serif" font-size="10.00" fill="#000000">Stochastic Backtracking</text>
<text text-anchor="start" x="157" y="-37" font-family="Helvetica,sans-Serif" font-size="10.00" fill="#000000"> of Consensus Structures</text>
<text text-anchor="middle" x="220.5" y="-26" font-family="Helvetica,sans-Serif" font-size="10.00" fill="#000000"> from Sequence Alignment(s)</text>
</g>
<!-- Node1&#45;&gt;Node0 -->
<g id="edge1" class="edge">
<title>Node1&#45;&gt;Node0</title>
<path fill="none" stroke="#000000" d="M123.5042,-54.2859C131.8972,-53.0065 140.5071,-51.694 148.966,-50.4046"/>
<polygon fill="#000000" stroke="#000000" points="122.7573,-50.8593 113.399,-55.8264 123.8123,-57.7793 122.7573,-50.8593"/>
</g>
<!-- Node2 -->
<g id="node2" class="node">
<title>Node2</title>
<g id="a_node2"><a xlink:href="group__subopt__stochbt.html" target="_top" xlink:title="Structure sampling\l from the ensemble">
<polygon fill="none" stroke="#000000" points="6,-.5 6,-30.5 107,-30.5 107,-.5 6,-.5"/>
<text text-anchor="start" x="14" y="-18.5" font-family="Helvetica,sans-Serif" font-size="10.00" fill="#000000">Structure sampling</text>
<text text-anchor="middle" x="56.5" y="-7.5" font-family="Helvetica,sans-Serif" font-size="10.00" fill="#000000"> from the ensemble</text>
</a>
</g>
</g>
<!-- Node2&#45;&gt;Node0 -->
<g id="edge2" class="edge">
<title>Node2&#45;&gt;Node0</title>
<path fill="none" stroke="#000000" d="M117.1389,-24.374C127.421,-25.8787 138.1849,-27.4539 148.7201,-28.9956"/>
<polygon fill="#000000" stroke="#000000" points="117.445,-20.8816 107.0436,-22.8966 116.4314,-27.8078 117.445,-20.8816"/>
</g>
</g>
</svg>
