<?xml version="1.0" encoding="UTF-8" standalone="no"?>
<!DOCTYPE svg PUBLIC "-//W3C//DTD SVG 1.1//EN"
 "http://www.w3.org/Graphics/SVG/1.1/DTD/svg11.dtd">
<!-- Generated by graphviz version 2.40.1 (20161225.0304)
 -->
<!-- Title: Constraining the RNA folding grammar Pages: 1 -->
<svg width="413pt" height="66pt"
 viewBox="0.00 0.00 413.00 66.00" xmlns="http://www.w3.org/2000/svg" xmlns:xlink="http://www.w3.org/1999/xlink">
<g id="graph0" class="graph" transform="scale(1 1) rotate(0) translate(4 62)">
<title>Constraining the RNA folding grammar</title>
<!-- Node0 -->
<g id="node1" class="node">
<title>Node0</title>
<polygon fill="#bfbfbf" stroke="#000000" points="167,-14 167,-44 280,-44 280,-14 167,-14"/>
<text text-anchor="start" x="175" y="-32" font-family="Helvetica,sans-Serif" font-size="10.00" fill="#000000">Constraining the RNA</text>
<text text-anchor="middle" x="223.5" y="-21" font-family="Helvetica,sans-Serif" font-size="10.00" fill="#000000"> folding grammar</text>
</g>
<!-- Node3 -->
<g id="node3" class="node">
<title>Node3</title>
<g id="a_node3"><a xlink:href="group__soft__constraints.html" target="_top" xlink:title="Functions and data structures for secondary structure soft constraints. ">
<polygon fill="none" stroke="#000000" points="317.5,-38.5 317.5,-57.5 403.5,-57.5 403.5,-38.5 317.5,-38.5"/>
<text text-anchor="middle" x="360.5" y="-45.5" font-family="Helvetica,sans-Serif" font-size="10.00" fill="#000000">Soft constraints</text>
</a>
</g>
</g>
<!-- Node0&#45;&gt;Node3 -->
<g id="edge3" class="edge">
<title>Node0&#45;&gt;Node3</title>
<path fill="none" stroke="#000000" d="M289.9642,-38.2177C299.1809,-39.4959 308.4467,-40.7809 317.0935,-41.9801"/>
<polygon fill="#000000" stroke="#000000" points="290.4001,-34.7447 280.0141,-36.8377 289.4385,-41.6783 290.4001,-34.7447"/>
</g>
<!-- Node2 -->
<g id="node4" class="node">
<title>Node2</title>
<g id="a_node4"><a xlink:href="group__hard__constraints.html" target="_top" xlink:title="This module covers all functionality for hard constraints in secondary structure prediction. ">
<polygon fill="none" stroke="#000000" points="316,-.5 316,-19.5 405,-19.5 405,-.5 316,-.5"/>
<text text-anchor="middle" x="360.5" y="-7.5" font-family="Helvetica,sans-Serif" font-size="10.00" fill="#000000">Hard constraints</text>
</a>
</g>
</g>
<!-- Node0&#45;&gt;Node2 -->
<g id="edge2" class="edge">
<title>Node0&#45;&gt;Node2</title>
<path fill="none" stroke="#000000" d="M290.1743,-19.7532C298.8734,-18.5468 307.6118,-17.3349 315.8277,-16.1954"/>
<polygon fill="#000000" stroke="#000000" points="289.4385,-16.3217 280.0141,-21.1623 290.4001,-23.2553 289.4385,-16.3217"/>
</g>
<!-- Node1 -->
<g id="node2" class="node">
<title>Node1</title>
<g id="a_node2"><a xlink:href="group__grammar.html" target="_top" xlink:title="The RNA folding grammar as implemented in RNAlib. ">
<polygon fill="none" stroke="#000000" points="0,-19.5 0,-38.5 131,-38.5 131,-19.5 0,-19.5"/>
<text text-anchor="middle" x="65.5" y="-26.5" font-family="Helvetica,sans-Serif" font-size="10.00" fill="#000000">The RNA folding grammar</text>
</a>
</g>
</g>
<!-- Node1&#45;&gt;Node0 -->
<g id="edge1" class="edge">
<title>Node1&#45;&gt;Node0</title>
<path fill="none" stroke="#000000" d="M141.2225,-29C149.8584,-29 158.5465,-29 166.8733,-29"/>
<polygon fill="#000000" stroke="#000000" points="141.1336,-25.5001 131.1336,-29 141.1336,-32.5001 141.1336,-25.5001"/>
</g>
</g>
</svg>
