<?xml version="1.0" encoding="UTF-8" standalone="no"?>
<!DOCTYPE svg PUBLIC "-//W3C//DTD SVG 1.1//EN"
 "http://www.w3.org/Graphics/SVG/1.1/DTD/svg11.dtd">
<!-- Generated by graphviz version 2.40.1 (20161225.0304)
 -->
<!-- Title: RNA&#45;RNA interaction Pages: 1 -->
<svg width="360pt" height="225pt"
 viewBox="0.00 0.00 360.00 224.50" xmlns="http://www.w3.org/2000/svg" xmlns:xlink="http://www.w3.org/1999/xlink">
<g id="graph0" class="graph" transform="scale(1 1) rotate(0) translate(4 220.5)">
<title>RNA&#45;RNA interaction</title>
<!-- Node3 -->
<g id="node1" class="node">
<title>Node3</title>
<g id="a_node1"><a xlink:href="group__up__cofold.html" target="_top" xlink:title="RNA&#45;RNA interaction as a stepwise process. ">
<polygon fill="none" stroke="#000000" points="220,-164 220,-216 352,-216 352,-164 220,-164"/>
<text text-anchor="start" x="228" y="-204" font-family="Helvetica,sans-Serif" font-size="10.00" fill="#000000">Partition Function</text>
<text text-anchor="start" x="228" y="-193" font-family="Helvetica,sans-Serif" font-size="10.00" fill="#000000"> for two hybridized</text>
<text text-anchor="start" x="228" y="-182" font-family="Helvetica,sans-Serif" font-size="10.00" fill="#000000"> Sequences as a stepwise</text>
<text text-anchor="middle" x="286" y="-171" font-family="Helvetica,sans-Serif" font-size="10.00" fill="#000000"> Process</text>
</a>
</g>
</g>
<!-- Node4 -->
<g id="node2" class="node">
<title>Node4</title>
<g id="a_node2"><a xlink:href="group__pf__fold.html" target="_top" xlink:title="Compute the partition function and various equilibrium properties derived from it. ">
<polygon fill="none" stroke="#000000" points="220.5,-115 220.5,-145 351.5,-145 351.5,-115 220.5,-115"/>
<text text-anchor="start" x="228.5" y="-133" font-family="Helvetica,sans-Serif" font-size="10.00" fill="#000000">Partition function</text>
<text text-anchor="middle" x="286" y="-122" font-family="Helvetica,sans-Serif" font-size="10.00" fill="#000000"> and equilibrium properties</text>
</a>
</g>
</g>
<!-- Node1 -->
<g id="node3" class="node">
<title>Node1</title>
<g id="a_node3"><a xlink:href="group__mfe__cofold.html" target="_top" xlink:title="MFE version of cofolding routines This file includes (almost) all function declarations within the RN...">
<polygon fill="none" stroke="#000000" points="228,-66 228,-96 344,-96 344,-66 228,-66"/>
<text text-anchor="start" x="236" y="-84" font-family="Helvetica,sans-Serif" font-size="10.00" fill="#000000">MFE Structures of two</text>
<text text-anchor="middle" x="286" y="-73" font-family="Helvetica,sans-Serif" font-size="10.00" fill="#000000"> hybridized Sequences</text>
</a>
</g>
</g>
<!-- Node0 -->
<g id="node4" class="node">
<title>Node0</title>
<polygon fill="#bfbfbf" stroke="#000000" points="0,-79.5 0,-98.5 111,-98.5 111,-79.5 0,-79.5"/>
<text text-anchor="middle" x="55.5" y="-86.5" font-family="Helvetica,sans-Serif" font-size="10.00" fill="#000000">RNA&#45;RNA interaction</text>
</g>
<!-- Node0&#45;&gt;Node3 -->
<g id="edge3" class="edge">
<title>Node0&#45;&gt;Node3</title>
<path fill="none" stroke="#000000" d="M71.2678,-106.0977C85.1633,-120.1627 106.6285,-139.5767 129,-151 157.1398,-165.3686 190.867,-174.6402 219.8366,-180.5198"/>
<polygon fill="#000000" stroke="#000000" points="73.4605,-103.3277 64.0114,-98.5355 68.4097,-108.1743 73.4605,-103.3277"/>
</g>
<!-- Node0&#45;&gt;Node4 -->
<g id="edge4" class="edge">
<title>Node0&#45;&gt;Node4</title>
<path fill="none" stroke="#006400" stroke-dasharray="5,2" d="M108.9607,-98.5093C142.2088,-104.4233 185.1975,-112.0698 220.4875,-118.347"/>
<text text-anchor="middle" x="165.5" y="-139" font-family="Helvetica,sans-Serif" font-size="10.00" fill="#000000">concentrations.h</text>
<text text-anchor="middle" x="165.5" y="-128" font-family="Helvetica,sans-Serif" font-size="10.00" fill="#000000">part_func_co.h</text>
<text text-anchor="middle" x="165.5" y="-117" font-family="Helvetica,sans-Serif" font-size="10.00" fill="#000000">part_func_up.h</text>
</g>
<!-- Node0&#45;&gt;Node1 -->
<g id="edge1" class="edge">
<title>Node0&#45;&gt;Node1</title>
<path fill="none" stroke="#000000" d="M121.1882,-86.7201C154.7759,-85.5544 195.3012,-84.1479 227.7612,-83.0213"/>
<polygon fill="#000000" stroke="#000000" points="120.8764,-83.2288 111.0038,-87.0736 121.1192,-90.2246 120.8764,-83.2288"/>
</g>
<!-- Node2 -->
<g id="node5" class="node">
<title>Node2</title>
<g id="a_node5"><a xlink:href="group__pf__cofold.html" target="_top" xlink:title="Partition Function Cofolding. ">
<polygon fill="none" stroke="#000000" points="237.5,-.5 237.5,-41.5 334.5,-41.5 334.5,-.5 237.5,-.5"/>
<text text-anchor="start" x="245.5" y="-29.5" font-family="Helvetica,sans-Serif" font-size="10.00" fill="#000000">Partition Function</text>
<text text-anchor="start" x="245.5" y="-18.5" font-family="Helvetica,sans-Serif" font-size="10.00" fill="#000000"> for two hybridized</text>
<text text-anchor="middle" x="286" y="-7.5" font-family="Helvetica,sans-Serif" font-size="10.00" fill="#000000"> Sequences</text>
</a>
</g>
</g>
<!-- Node0&#45;&gt;Node2 -->
<g id="edge2" class="edge">
<title>Node0&#45;&gt;Node2</title>
<path fill="none" stroke="#000000" d="M104.0409,-77.0161C132.6886,-69.7106 169.5742,-59.8992 202,-50 213.5094,-46.4863 225.8034,-42.4216 237.3353,-38.4678"/>
<polygon fill="#000000" stroke="#000000" points="103.1061,-73.6423 94.2723,-79.4917 104.8257,-80.4278 103.1061,-73.6423"/>
</g>
<!-- Node0&#45;&gt;Node2 -->
<g id="edge5" class="edge">
<title>Node0&#45;&gt;Node2</title>
<path fill="none" stroke="#006400" stroke-dasharray="5,2" d="M61.0665,-79.4364C71.6952,-62.2562 96.7231,-26.6868 129,-13 163.1722,1.4905 205.346,-1.673 237.3754,-7.8227"/>
<text text-anchor="middle" x="165.5" y="-38" font-family="Helvetica,sans-Serif" font-size="10.00" fill="#000000">concentrations.h</text>
<text text-anchor="middle" x="165.5" y="-27" font-family="Helvetica,sans-Serif" font-size="10.00" fill="#000000">part_func_co.h</text>
<text text-anchor="middle" x="165.5" y="-16" font-family="Helvetica,sans-Serif" font-size="10.00" fill="#000000">part_func_up.h</text>
</g>
</g>
</svg>
