<?xml version="1.0" encoding="UTF-8" standalone="no"?>
<!DOCTYPE svg PUBLIC "-//W3C//DTD SVG 1.1//EN"
 "http://www.w3.org/Graphics/SVG/1.1/DTD/svg11.dtd">
<!-- Generated by graphviz version 2.40.1 (20161225.0304)
 -->
<!-- Title: Structure sampling from the ensemble Pages: 1 -->
<svg width="478pt" height="110pt"
 viewBox="0.00 0.00 478.00 110.00" xmlns="http://www.w3.org/2000/svg" xmlns:xlink="http://www.w3.org/1999/xlink">
<g id="graph0" class="graph" transform="scale(1 1) rotate(0) translate(4 106)">
<title>Structure sampling from the ensemble</title>
<!-- Node3 -->
<g id="node1" class="node">
<title>Node3</title>
<g id="a_node1"><a xlink:href="group__kl__neighborhood__stochbt.html" target="_top" xlink:title="Contains functions related to stochastic backtracking from a specified distance class. ">
<polygon fill="none" stroke="#000000" points="328.5,-60.5 328.5,-101.5 468.5,-101.5 468.5,-60.5 328.5,-60.5"/>
<text text-anchor="start" x="336.5" y="-89.5" font-family="Helvetica,sans-Serif" font-size="10.00" fill="#000000">Stochastic Backtracking</text>
<text text-anchor="start" x="336.5" y="-78.5" font-family="Helvetica,sans-Serif" font-size="10.00" fill="#000000"> of Structures from Distance</text>
<text text-anchor="middle" x="398.5" y="-67.5" font-family="Helvetica,sans-Serif" font-size="10.00" fill="#000000"> Based Partitioning</text>
</a>
</g>
</g>
<!-- Node0 -->
<g id="node2" class="node">
<title>Node0</title>
<polygon fill="#bfbfbf" stroke="#000000" points="190,-36 190,-66 291,-66 291,-36 190,-36"/>
<text text-anchor="start" x="198" y="-54" font-family="Helvetica,sans-Serif" font-size="10.00" fill="#000000">Structure sampling</text>
<text text-anchor="middle" x="240.5" y="-43" font-family="Helvetica,sans-Serif" font-size="10.00" fill="#000000"> from the ensemble</text>
</g>
<!-- Node0&#45;&gt;Node3 -->
<g id="edge3" class="edge">
<title>Node0&#45;&gt;Node3</title>
<path fill="none" stroke="#000000" d="M301.247,-62.5342C310.1484,-64.2244 319.3768,-65.9766 328.446,-67.6986"/>
<polygon fill="#000000" stroke="#000000" points="301.8393,-59.0842 291.3619,-60.6573 300.5335,-65.9614 301.8393,-59.0842"/>
</g>
<!-- Node2 -->
<g id="node3" class="node">
<title>Node2</title>
<g id="a_node3"><a xlink:href="group__consensus__stochbt.html" target="_top" xlink:title="Stochastic Backtracking\l of Consensus Structures\l from Sequence Alignment(s)">
<polygon fill="none" stroke="#000000" points="327,-.5 327,-41.5 470,-41.5 470,-.5 327,-.5"/>
<text text-anchor="start" x="335" y="-29.5" font-family="Helvetica,sans-Serif" font-size="10.00" fill="#000000">Stochastic Backtracking</text>
<text text-anchor="start" x="335" y="-18.5" font-family="Helvetica,sans-Serif" font-size="10.00" fill="#000000"> of Consensus Structures</text>
<text text-anchor="middle" x="398.5" y="-7.5" font-family="Helvetica,sans-Serif" font-size="10.00" fill="#000000"> from Sequence Alignment(s)</text>
</a>
</g>
</g>
<!-- Node0&#45;&gt;Node2 -->
<g id="edge2" class="edge">
<title>Node0&#45;&gt;Node2</title>
<path fill="none" stroke="#000000" d="M301.3347,-39.4491C309.6477,-37.8707 318.2445,-36.2384 326.7291,-34.6274"/>
<polygon fill="#000000" stroke="#000000" points="300.5335,-36.0386 291.3619,-41.3427 301.8393,-42.9158 300.5335,-36.0386"/>
</g>
<!-- Node1 -->
<g id="node4" class="node">
<title>Node1</title>
<g id="a_node4"><a xlink:href="group__subopt__and__representatives.html" target="_top" xlink:title="Sample and enumerate suboptimal secondary structures from RNA sequence data. ">
<polygon fill="none" stroke="#000000" points="0,-36 0,-66 154,-66 154,-36 0,-36"/>
<text text-anchor="start" x="8" y="-54" font-family="Helvetica,sans-Serif" font-size="10.00" fill="#000000">Suboptimals and representative</text>
<text text-anchor="middle" x="77" y="-43" font-family="Helvetica,sans-Serif" font-size="10.00" fill="#000000"> structures</text>
</a>
</g>
</g>
<!-- Node1&#45;&gt;Node0 -->
<g id="edge1" class="edge">
<title>Node1&#45;&gt;Node0</title>
<path fill="none" stroke="#000000" d="M164.6148,-51C173.267,-51 181.8312,-51 189.9169,-51"/>
<polygon fill="#000000" stroke="#000000" points="164.4408,-47.5001 154.4407,-51 164.4407,-54.5001 164.4408,-47.5001"/>
</g>
</g>
</svg>
