<?xml version="1.0" encoding="UTF-8" standalone="no"?>
<!DOCTYPE svg PUBLIC "-//W3C//DTD SVG 1.1//EN"
 "http://www.w3.org/Graphics/SVG/1.1/DTD/svg11.dtd">
<!-- Generated by graphviz version 2.40.1 (20161225.0304)
 -->
<!-- Title: Utilities Pages: 1 -->
<svg width="255pt" height="391pt"
 viewBox="0.00 0.00 255.00 390.50" xmlns="http://www.w3.org/2000/svg" xmlns:xlink="http://www.w3.org/1999/xlink">
<g id="graph0" class="graph" transform="scale(1 1) rotate(0) translate(4 386.5)">
<title>Utilities</title>
<!-- Node2 -->
<g id="node1" class="node">
<title>Node2</title>
<g id="a_node1"><a xlink:href="group__struct__utils.html" target="_top" xlink:title="Parsing, converting,\l comparing secondary\l structures">
<polygon fill="none" stroke="#000000" points="110,-341 110,-382 223,-382 223,-341 110,-341"/>
<text text-anchor="start" x="118" y="-370" font-family="Helvetica,sans-Serif" font-size="10.00" fill="#000000">Parsing, converting,</text>
<text text-anchor="start" x="118" y="-359" font-family="Helvetica,sans-Serif" font-size="10.00" fill="#000000"> comparing secondary</text>
<text text-anchor="middle" x="166.5" y="-348" font-family="Helvetica,sans-Serif" font-size="10.00" fill="#000000"> structures</text>
</a>
</g>
</g>
<!-- Node7 -->
<g id="node2" class="node">
<title>Node7</title>
<g id="a_node2"><a xlink:href="group__units.html" target="_top" xlink:title="Functions to convert\l between various units">
<polygon fill="none" stroke="#000000" points="109,-291.5 109,-321.5 224,-321.5 224,-291.5 109,-291.5"/>
<text text-anchor="start" x="117" y="-309.5" font-family="Helvetica,sans-Serif" font-size="10.00" fill="#000000">Functions to convert</text>
<text text-anchor="middle" x="166.5" y="-298.5" font-family="Helvetica,sans-Serif" font-size="10.00" fill="#000000"> between various units</text>
</a>
</g>
</g>
<!-- Node1 -->
<g id="node3" class="node">
<title>Node1</title>
<g id="a_node3"><a xlink:href="group__string__utils.html" target="_top" xlink:title="Parsing, converting,\l and comparing sequences">
<polygon fill="none" stroke="#000000" points="99.5,-242.5 99.5,-272.5 233.5,-272.5 233.5,-242.5 99.5,-242.5"/>
<text text-anchor="start" x="107.5" y="-260.5" font-family="Helvetica,sans-Serif" font-size="10.00" fill="#000000">Parsing, converting,</text>
<text text-anchor="middle" x="166.5" y="-249.5" font-family="Helvetica,sans-Serif" font-size="10.00" fill="#000000"> and comparing sequences</text>
</a>
</g>
</g>
<!-- Node6 -->
<g id="node4" class="node">
<title>Node6</title>
<g id="a_node4"><a xlink:href="group__plotting__utils.html" target="_top" xlink:title="Functions for Creating\l Secondary Structure Plots,\l Dot&#45;Plots, and More">
<polygon fill="none" stroke="#000000" points="98,-182 98,-223 235,-223 235,-182 98,-182"/>
<text text-anchor="start" x="106" y="-211" font-family="Helvetica,sans-Serif" font-size="10.00" fill="#000000">Functions for Creating</text>
<text text-anchor="start" x="106" y="-200" font-family="Helvetica,sans-Serif" font-size="10.00" fill="#000000"> Secondary Structure Plots,</text>
<text text-anchor="middle" x="166.5" y="-189" font-family="Helvetica,sans-Serif" font-size="10.00" fill="#000000"> Dot&#45;Plots, and More</text>
</a>
</g>
</g>
<!-- Node4 -->
<g id="node5" class="node">
<title>Node4</title>
<g id="a_node5"><a xlink:href="group__file__utils.html" target="_top" xlink:title="Functions dealing with file formats for RNA sequences, structures, and alignments. ">
<polygon fill="none" stroke="#000000" points="86,-110.5 86,-162.5 247,-162.5 247,-110.5 86,-110.5"/>
<text text-anchor="start" x="94" y="-150.5" font-family="Helvetica,sans-Serif" font-size="10.00" fill="#000000">Functions to Read/Write</text>
<text text-anchor="start" x="94" y="-139.5" font-family="Helvetica,sans-Serif" font-size="10.00" fill="#000000"> several File Formats</text>
<text text-anchor="start" x="94" y="-128.5" font-family="Helvetica,sans-Serif" font-size="10.00" fill="#000000"> for RNA Sequences, Structures,</text>
<text text-anchor="middle" x="166.5" y="-117.5" font-family="Helvetica,sans-Serif" font-size="10.00" fill="#000000"> and Alignments</text>
</a>
</g>
</g>
<!-- Node0 -->
<g id="node6" class="node">
<title>Node0</title>
<polygon fill="#bfbfbf" stroke="#000000" points="0,-193 0,-212 50,-212 50,-193 0,-193"/>
<text text-anchor="middle" x="25" y="-200" font-family="Helvetica,sans-Serif" font-size="10.00" fill="#000000">Utilities</text>
</g>
<!-- Node0&#45;&gt;Node2 -->
<g id="edge2" class="edge">
<title>Node0&#45;&gt;Node2</title>
<path fill="none" stroke="#000000" d="M29.2418,-221.8385C36.3248,-249.761 53.1404,-301.3206 86,-331.5 92.8105,-337.755 101.0439,-342.7399 109.6115,-346.703"/>
<polygon fill="#000000" stroke="#000000" points="32.6385,-220.9934 26.9208,-212.0738 25.8282,-222.6121 32.6385,-220.9934"/>
</g>
<!-- Node0&#45;&gt;Node7 -->
<g id="edge7" class="edge">
<title>Node0&#45;&gt;Node7</title>
<path fill="none" stroke="#000000" d="M34.704,-221.2934C45.0477,-239.5182 63.084,-266.669 86,-282.5 92.8393,-287.2248 100.6239,-291.0354 108.5936,-294.1047"/>
<polygon fill="#000000" stroke="#000000" points="37.6193,-219.3279 29.7668,-212.2154 31.4699,-222.6724 37.6193,-219.3279"/>
</g>
<!-- Node0&#45;&gt;Node1 -->
<g id="edge1" class="edge">
<title>Node0&#45;&gt;Node1</title>
<path fill="none" stroke="#000000" d="M51.6496,-216.7296C62.1832,-222.0554 74.5,-227.9188 86,-232.5 94.8368,-236.0202 104.3759,-239.3646 113.6909,-242.3954"/>
<polygon fill="#000000" stroke="#000000" points="53.0442,-213.5109 42.5517,-212.0418 49.8379,-219.7335 53.0442,-213.5109"/>
</g>
<!-- Node0&#45;&gt;Node6 -->
<g id="edge6" class="edge">
<title>Node0&#45;&gt;Node6</title>
<path fill="none" stroke="#000000" d="M60.6045,-202.5C71.9271,-202.5 84.8595,-202.5 97.7059,-202.5"/>
<polygon fill="#000000" stroke="#000000" points="60.2974,-199.0001 50.2974,-202.5 60.2973,-206.0001 60.2974,-199.0001"/>
</g>
<!-- Node0&#45;&gt;Node4 -->
<g id="edge4" class="edge">
<title>Node0&#45;&gt;Node4</title>
<path fill="none" stroke="#000000" d="M52.8871,-188.5188C63.2453,-183.3961 75.121,-177.6056 86,-172.5 92.9296,-169.2479 100.2231,-165.8928 107.4741,-162.5991"/>
<polygon fill="#000000" stroke="#000000" points="51.2717,-185.4131 43.8732,-192.9968 54.3861,-191.6822 51.2717,-185.4131"/>
</g>
<!-- Node5 -->
<g id="node7" class="node">
<title>Node5</title>
<g id="a_node7"><a xlink:href="group__buffer__utils.html" target="_top" xlink:title="Functions that provide\l dynamically buffered\l stream&#45;like data structures">
<polygon fill="none" stroke="#000000" points="98.5,-50 98.5,-91 234.5,-91 234.5,-50 98.5,-50"/>
<text text-anchor="start" x="106.5" y="-79" font-family="Helvetica,sans-Serif" font-size="10.00" fill="#000000">Functions that provide</text>
<text text-anchor="start" x="106.5" y="-68" font-family="Helvetica,sans-Serif" font-size="10.00" fill="#000000"> dynamically buffered</text>
<text text-anchor="middle" x="166.5" y="-57" font-family="Helvetica,sans-Serif" font-size="10.00" fill="#000000"> stream&#45;like data structures</text>
</a>
</g>
</g>
<!-- Node0&#45;&gt;Node5 -->
<g id="edge5" class="edge">
<title>Node0&#45;&gt;Node5</title>
<path fill="none" stroke="#000000" d="M32.1204,-183.2196C41.3381,-160.7192 59.435,-123.7635 86,-101.5 90.7061,-97.556 95.9695,-94.0801 101.4912,-91.0236"/>
<polygon fill="#000000" stroke="#000000" points="28.793,-182.1184 28.4107,-192.7063 35.3123,-184.6677 28.793,-182.1184"/>
</g>
<!-- Node3 -->
<g id="node8" class="node">
<title>Node3</title>
<g id="a_node8"><a xlink:href="group__aln__utils.html" target="_top" xlink:title="Utilities for sequence\l alignments">
<polygon fill="none" stroke="#000000" points="112,-.5 112,-30.5 221,-30.5 221,-.5 112,-.5"/>
<text text-anchor="start" x="120" y="-18.5" font-family="Helvetica,sans-Serif" font-size="10.00" fill="#000000">Utilities for sequence</text>
<text text-anchor="middle" x="166.5" y="-7.5" font-family="Helvetica,sans-Serif" font-size="10.00" fill="#000000"> alignments</text>
</a>
</g>
</g>
<!-- Node0&#45;&gt;Node3 -->
<g id="edge3" class="edge">
<title>Node0&#45;&gt;Node3</title>
<path fill="none" stroke="#000000" d="M26.877,-182.8485C31.1644,-148.9513 44.7409,-79.3936 86,-40.5 93.2411,-33.6741 102.3152,-28.7105 111.7375,-25.1015"/>
<polygon fill="#000000" stroke="#000000" points="23.3883,-182.5535 25.7526,-192.8812 30.3447,-183.3333 23.3883,-182.5535"/>
</g>
</g>
</svg>
