<?xml version="1.0" encoding="UTF-8" standalone="no"?>
<!DOCTYPE svg PUBLIC "-//W3C//DTD SVG 1.1//EN"
 "http://www.w3.org/Graphics/SVG/1.1/DTD/svg11.dtd">
<!-- Generated by graphviz version 2.40.1 (20161225.0304)
 -->
<!-- Title: Suboptimals and representative structures Pages: 1 -->
<svg width="324pt" height="269pt"
 viewBox="0.00 0.00 324.00 269.00" xmlns="http://www.w3.org/2000/svg" xmlns:xlink="http://www.w3.org/1999/xlink">
<g id="graph0" class="graph" transform="scale(1 1) rotate(0) translate(4 265)">
<title>Suboptimals and representative structures</title>
<!-- Node1 -->
<g id="node1" class="node">
<title>Node1</title>
<g id="a_node1"><a xlink:href="group__subopt__zuker.html" target="_top" xlink:title="Suboptimal structures\l sensu Stiegler et al.\l 1984 / Zuker et al. 1989">
<polygon fill="none" stroke="#000000" points="191.5,-219.5 191.5,-260.5 314.5,-260.5 314.5,-219.5 191.5,-219.5"/>
<text text-anchor="start" x="199.5" y="-248.5" font-family="Helvetica,sans-Serif" font-size="10.00" fill="#000000">Suboptimal structures</text>
<text text-anchor="start" x="199.5" y="-237.5" font-family="Helvetica,sans-Serif" font-size="10.00" fill="#000000"> sensu Stiegler et al.</text>
<text text-anchor="middle" x="253" y="-226.5" font-family="Helvetica,sans-Serif" font-size="10.00" fill="#000000"> 1984 / Zuker et al. 1989</text>
</a>
</g>
</g>
<!-- Node4 -->
<g id="node2" class="node">
<title>Node4</title>
<g id="a_node2"><a xlink:href="group__mea__fold.html" target="_top" xlink:title="Compute the structure\l with maximum expected\l accuracy (MEA)">
<polygon fill="none" stroke="#000000" points="190,-159.5 190,-200.5 316,-200.5 316,-159.5 190,-159.5"/>
<text text-anchor="start" x="198" y="-188.5" font-family="Helvetica,sans-Serif" font-size="10.00" fill="#000000">Compute the structure</text>
<text text-anchor="start" x="198" y="-177.5" font-family="Helvetica,sans-Serif" font-size="10.00" fill="#000000"> with maximum expected</text>
<text text-anchor="middle" x="253" y="-166.5" font-family="Helvetica,sans-Serif" font-size="10.00" fill="#000000"> accuracy (MEA)</text>
</a>
</g>
</g>
<!-- Node3 -->
<g id="node3" class="node">
<title>Node3</title>
<g id="a_node3"><a xlink:href="group__subopt__stochbt.html" target="_top" xlink:title="Structure sampling\l from the ensemble">
<polygon fill="none" stroke="#000000" points="202.5,-110 202.5,-140 303.5,-140 303.5,-110 202.5,-110"/>
<text text-anchor="start" x="210.5" y="-128" font-family="Helvetica,sans-Serif" font-size="10.00" fill="#000000">Structure sampling</text>
<text text-anchor="middle" x="253" y="-117" font-family="Helvetica,sans-Serif" font-size="10.00" fill="#000000"> from the ensemble</text>
</a>
</g>
</g>
<!-- Node5 -->
<g id="node4" class="node">
<title>Node5</title>
<g id="a_node4"><a xlink:href="group__centroid__fold.html" target="_top" xlink:title="Compute the centroid\l structure">
<polygon fill="none" stroke="#000000" points="198,-61 198,-91 308,-91 308,-61 198,-61"/>
<text text-anchor="start" x="206" y="-79" font-family="Helvetica,sans-Serif" font-size="10.00" fill="#000000">Compute the centroid</text>
<text text-anchor="middle" x="253" y="-68" font-family="Helvetica,sans-Serif" font-size="10.00" fill="#000000"> structure</text>
</a>
</g>
</g>
<!-- Node0 -->
<g id="node5" class="node">
<title>Node0</title>
<polygon fill="#bfbfbf" stroke="#000000" points="0,-110 0,-140 154,-140 154,-110 0,-110"/>
<text text-anchor="start" x="8" y="-128" font-family="Helvetica,sans-Serif" font-size="10.00" fill="#000000">Suboptimals and representative</text>
<text text-anchor="middle" x="77" y="-117" font-family="Helvetica,sans-Serif" font-size="10.00" fill="#000000"> structures</text>
</g>
<!-- Node0&#45;&gt;Node1 -->
<g id="edge1" class="edge">
<title>Node0&#45;&gt;Node1</title>
<path fill="none" stroke="#000000" d="M102.5486,-146.5683C124.7926,-164.7611 158.3495,-190.8264 190,-210 195.3879,-213.2639 201.1863,-216.4397 207.0062,-219.4284"/>
<polygon fill="#000000" stroke="#000000" points="104.5452,-143.6781 94.6048,-140.012 100.0894,-149.0768 104.5452,-143.6781"/>
</g>
<!-- Node0&#45;&gt;Node4 -->
<g id="edge4" class="edge">
<title>Node0&#45;&gt;Node4</title>
<path fill="none" stroke="#000000" d="M134.6766,-143.0239C152.3084,-148.5339 171.7906,-154.6221 189.7707,-160.2409"/>
<polygon fill="#000000" stroke="#000000" points="135.6816,-139.6711 125.0928,-140.029 133.5936,-146.3525 135.6816,-139.6711"/>
</g>
<!-- Node0&#45;&gt;Node3 -->
<g id="edge3" class="edge">
<title>Node0&#45;&gt;Node3</title>
<path fill="none" stroke="#000000" d="M164.2014,-125C177.3165,-125 190.4552,-125 202.4522,-125"/>
<polygon fill="#000000" stroke="#000000" points="164.1962,-121.5001 154.1962,-125 164.1961,-128.5001 164.1962,-121.5001"/>
</g>
<!-- Node0&#45;&gt;Node5 -->
<g id="edge5" class="edge">
<title>Node0&#45;&gt;Node5</title>
<path fill="none" stroke="#000000" d="M141.011,-107.1788C160.0137,-101.8882 180.6322,-96.1478 198.9372,-91.0516"/>
<polygon fill="#000000" stroke="#000000" points="139.9368,-103.8446 131.2419,-109.8986 141.8143,-110.5882 139.9368,-103.8446"/>
</g>
<!-- Node2 -->
<g id="node6" class="node">
<title>Node2</title>
<g id="a_node6"><a xlink:href="group__subopt__wuchty.html" target="_top" xlink:title="Suboptimal structures\l within an energy band\l arround the MFE">
<polygon fill="none" stroke="#000000" points="195.5,-.5 195.5,-41.5 310.5,-41.5 310.5,-.5 195.5,-.5"/>
<text text-anchor="start" x="203.5" y="-29.5" font-family="Helvetica,sans-Serif" font-size="10.00" fill="#000000">Suboptimal structures</text>
<text text-anchor="start" x="203.5" y="-18.5" font-family="Helvetica,sans-Serif" font-size="10.00" fill="#000000"> within an energy band</text>
<text text-anchor="middle" x="253" y="-7.5" font-family="Helvetica,sans-Serif" font-size="10.00" fill="#000000"> arround the MFE</text>
</a>
</g>
</g>
<!-- Node0&#45;&gt;Node2 -->
<g id="edge2" class="edge">
<title>Node0&#45;&gt;Node2</title>
<path fill="none" stroke="#000000" d="M107.0376,-104.2321C129.473,-89.0584 161.1166,-68.3625 190,-52 196.2577,-48.455 202.9773,-44.8974 209.6135,-41.5214"/>
<polygon fill="#000000" stroke="#000000" points="104.9175,-101.4412 98.6179,-109.9597 108.8547,-107.2289 104.9175,-101.4412"/>
</g>
</g>
</svg>
