<?xml version="1.0" encoding="UTF-8" standalone="no"?>
<!DOCTYPE svg PUBLIC "-//W3C//DTD SVG 1.1//EN"
 "http://www.w3.org/Graphics/SVG/1.1/DTD/svg11.dtd">
<!-- Generated by graphviz version 2.40.1 (20161225.0304)
 -->
<!-- Title: Refolding paths of secondary structures Pages: 1 -->
<svg width="461pt" height="50pt"
 viewBox="0.00 0.00 461.00 50.00" xmlns="http://www.w3.org/2000/svg" xmlns:xlink="http://www.w3.org/1999/xlink">
<g id="graph0" class="graph" transform="scale(1 1) rotate(0) translate(4 46)">
<title>Refolding paths of secondary structures</title>
<!-- Node0 -->
<g id="node1" class="node">
<title>Node0</title>
<polygon fill="#bfbfbf" stroke="#000000" points="183,-6 183,-36 294,-36 294,-6 183,-6"/>
<text text-anchor="start" x="191" y="-24" font-family="Helvetica,sans-Serif" font-size="10.00" fill="#000000">Refolding paths of</text>
<text text-anchor="middle" x="238.5" y="-13" font-family="Helvetica,sans-Serif" font-size="10.00" fill="#000000"> secondary structures</text>
</g>
<!-- Node2 -->
<g id="node3" class="node">
<title>Node2</title>
<g id="a_node3"><a xlink:href="group__direct__paths.html" target="_top" xlink:title="Heuristics to explore direct, optimal (re&#45;)folding paths between two secondary structures. ">
<polygon fill="none" stroke="#000000" points="330,-.5 330,-41.5 453,-41.5 453,-.5 330,-.5"/>
<text text-anchor="start" x="338" y="-29.5" font-family="Helvetica,sans-Serif" font-size="10.00" fill="#000000">Direct refolding paths</text>
<text text-anchor="start" x="338" y="-18.5" font-family="Helvetica,sans-Serif" font-size="10.00" fill="#000000"> between two secondary</text>
<text text-anchor="middle" x="391.5" y="-7.5" font-family="Helvetica,sans-Serif" font-size="10.00" fill="#000000"> structures</text>
</a>
</g>
</g>
<!-- Node0&#45;&gt;Node2 -->
<g id="edge2" class="edge">
<title>Node0&#45;&gt;Node2</title>
<path fill="none" stroke="#000000" d="M304.3915,-21C312.8673,-21 321.5204,-21 329.9235,-21"/>
<polygon fill="#000000" stroke="#000000" points="304.1694,-17.5001 294.1693,-21 304.1693,-24.5001 304.1694,-17.5001"/>
</g>
<!-- Node1 -->
<g id="node2" class="node">
<title>Node1</title>
<g id="a_node2"><a xlink:href="group__landscape.html" target="_top" xlink:title="The RNA secondary structure\l landscape">
<polygon fill="none" stroke="#000000" points="0,-6 0,-36 147,-36 147,-6 0,-6"/>
<text text-anchor="start" x="8" y="-24" font-family="Helvetica,sans-Serif" font-size="10.00" fill="#000000">The RNA secondary structure</text>
<text text-anchor="middle" x="73.5" y="-13" font-family="Helvetica,sans-Serif" font-size="10.00" fill="#000000"> landscape</text>
</a>
</g>
</g>
<!-- Node1&#45;&gt;Node0 -->
<g id="edge1" class="edge">
<title>Node1&#45;&gt;Node0</title>
<path fill="none" stroke="#000000" d="M157.3393,-21C165.8914,-21 174.4242,-21 182.5702,-21"/>
<polygon fill="#000000" stroke="#000000" points="157.3132,-17.5001 147.3132,-21 157.3131,-24.5001 157.3132,-17.5001"/>
</g>
</g>
</svg>
