<?xml version="1.0" encoding="UTF-8" standalone="no"?>
<!DOCTYPE svg PUBLIC "-//W3C//DTD SVG 1.1//EN"
 "http://www.w3.org/Graphics/SVG/1.1/DTD/svg11.dtd">
<!-- Generated by graphviz version 2.40.1 (20161225.0304)
 -->
<!-- Title: Partition Function for two hybridized Sequences as a stepwise Process Pages: 1 -->
<svg width="307pt" height="78pt"
 viewBox="0.00 0.00 307.00 77.50" xmlns="http://www.w3.org/2000/svg" xmlns:xlink="http://www.w3.org/1999/xlink">
<g id="graph0" class="graph" transform="scale(1 1) rotate(0) translate(4 73.5)">
<title>Partition Function for two hybridized Sequences as a stepwise Process</title>
<!-- Node0 -->
<g id="node1" class="node">
<title>Node0</title>
<polygon fill="#bfbfbf" stroke="#000000" points="167,-6 167,-58 299,-58 299,-6 167,-6"/>
<text text-anchor="start" x="175" y="-46" font-family="Helvetica,sans-Serif" font-size="10.00" fill="#000000">Partition Function</text>
<text text-anchor="start" x="175" y="-35" font-family="Helvetica,sans-Serif" font-size="10.00" fill="#000000"> for two hybridized</text>
<text text-anchor="start" x="175" y="-24" font-family="Helvetica,sans-Serif" font-size="10.00" fill="#000000"> Sequences as a stepwise</text>
<text text-anchor="middle" x="233" y="-13" font-family="Helvetica,sans-Serif" font-size="10.00" fill="#000000"> Process</text>
</g>
<!-- Node2 -->
<g id="node2" class="node">
<title>Node2</title>
<g id="a_node2"><a xlink:href="group__pf__fold.html" target="_top" xlink:title="Compute the partition function and various equilibrium properties derived from it. ">
<polygon fill="none" stroke="#000000" points="0,-39 0,-69 131,-69 131,-39 0,-39"/>
<text text-anchor="start" x="8" y="-57" font-family="Helvetica,sans-Serif" font-size="10.00" fill="#000000">Partition function</text>
<text text-anchor="middle" x="65.5" y="-46" font-family="Helvetica,sans-Serif" font-size="10.00" fill="#000000"> and equilibrium properties</text>
</a>
</g>
</g>
<!-- Node2&#45;&gt;Node0 -->
<g id="edge2" class="edge">
<title>Node2&#45;&gt;Node0</title>
<path fill="none" stroke="#000000" d="M141.2139,-44.0555C149.7905,-42.929 158.4806,-41.7876 166.9198,-40.6792"/>
<polygon fill="#000000" stroke="#000000" points="140.6787,-40.5956 131.2197,-45.3682 141.5904,-47.536 140.6787,-40.5956"/>
</g>
<!-- Node1 -->
<g id="node3" class="node">
<title>Node1</title>
<g id="a_node3"><a xlink:href="group__cofold.html" target="_top" xlink:title="RNA&#45;RNA interaction">
<polygon fill="none" stroke="#000000" points="10,-.5 10,-19.5 121,-19.5 121,-.5 10,-.5"/>
<text text-anchor="middle" x="65.5" y="-7.5" font-family="Helvetica,sans-Serif" font-size="10.00" fill="#000000">RNA&#45;RNA interaction</text>
</a>
</g>
</g>
<!-- Node1&#45;&gt;Node0 -->
<g id="edge1" class="edge">
<title>Node1&#45;&gt;Node0</title>
<path fill="none" stroke="#000000" d="M131.3441,-18.6482C142.9706,-20.1752 155.0802,-21.7658 166.7188,-23.2944"/>
<polygon fill="#000000" stroke="#000000" points="131.6457,-15.1578 121.2751,-17.3257 130.7341,-22.0982 131.6457,-15.1578"/>
</g>
</g>
</svg>
