<?xml version="1.0" encoding="UTF-8" standalone="no"?>
<!DOCTYPE svg PUBLIC "-//W3C//DTD SVG 1.1//EN"
 "http://www.w3.org/Graphics/SVG/1.1/DTD/svg11.dtd">
<!-- Generated by graphviz version 2.40.1 (20161225.0304)
 -->
<!-- Title: Ligands binding to RNA structures Pages: 1 -->
<svg width="272pt" height="110pt"
 viewBox="0.00 0.00 272.00 110.00" xmlns="http://www.w3.org/2000/svg" xmlns:xlink="http://www.w3.org/1999/xlink">
<g id="graph0" class="graph" transform="scale(1 1) rotate(0) translate(4 106)">
<title>Ligands binding to RNA structures</title>
<!-- Node0 -->
<g id="node1" class="node">
<title>Node0</title>
<polygon fill="#bfbfbf" stroke="#000000" points="0,-30.5 0,-60.5 95,-60.5 95,-30.5 0,-30.5"/>
<text text-anchor="start" x="8" y="-48.5" font-family="Helvetica,sans-Serif" font-size="10.00" fill="#000000">Ligands binding to</text>
<text text-anchor="middle" x="47.5" y="-37.5" font-family="Helvetica,sans-Serif" font-size="10.00" fill="#000000"> RNA structures</text>
</g>
<!-- Node2 -->
<g id="node2" class="node">
<title>Node2</title>
<g id="a_node2"><a xlink:href="group__constraints__ligand.html" target="_top" xlink:title="Ligand binding to specific hairpin/interior loop like motifs using the Soft constraints feature...">
<polygon fill="none" stroke="#000000" points="131,-49.5 131,-101.5 264,-101.5 264,-49.5 131,-49.5"/>
<text text-anchor="start" x="139" y="-89.5" font-family="Helvetica,sans-Serif" font-size="10.00" fill="#000000">Incorporating ligands</text>
<text text-anchor="start" x="139" y="-78.5" font-family="Helvetica,sans-Serif" font-size="10.00" fill="#000000"> binding to specific</text>
<text text-anchor="start" x="139" y="-67.5" font-family="Helvetica,sans-Serif" font-size="10.00" fill="#000000"> sequence/structure motifs</text>
<text text-anchor="middle" x="197.5" y="-56.5" font-family="Helvetica,sans-Serif" font-size="10.00" fill="#000000"> using soft constraints</text>
</a>
</g>
</g>
<!-- Node0&#45;&gt;Node2 -->
<g id="edge2" class="edge">
<title>Node0&#45;&gt;Node2</title>
<path fill="none" stroke="#000000" d="M105.3965,-57.0793C113.7603,-58.7521 122.4237,-60.4847 130.9401,-62.188"/>
<polygon fill="#000000" stroke="#000000" points="105.8656,-53.6039 95.3734,-55.0747 104.4927,-60.4679 105.8656,-53.6039"/>
</g>
<!-- Node1 -->
<g id="node3" class="node">
<title>Node1</title>
<g id="a_node3"><a xlink:href="group__ligands__up.html" target="_top" xlink:title="Add ligand binding to loop regions using the Unstructured domains feature. ">
<polygon fill="none" stroke="#000000" points="141,-.5 141,-30.5 254,-30.5 254,-.5 141,-.5"/>
<text text-anchor="start" x="149" y="-18.5" font-family="Helvetica,sans-Serif" font-size="10.00" fill="#000000">Ligands binding to</text>
<text text-anchor="middle" x="197.5" y="-7.5" font-family="Helvetica,sans-Serif" font-size="10.00" fill="#000000"> unstructured domains</text>
</a>
</g>
</g>
<!-- Node0&#45;&gt;Node1 -->
<g id="edge1" class="edge">
<title>Node0&#45;&gt;Node1</title>
<path fill="none" stroke="#000000" d="M105.4321,-33.9136C117.0827,-31.5835 129.3136,-29.1373 140.9175,-26.8165"/>
<polygon fill="#000000" stroke="#000000" points="104.4927,-30.5321 95.3734,-35.9253 105.8656,-37.3961 104.4927,-30.5321"/>
</g>
</g>
</svg>
