<?xml version="1.0" encoding="UTF-8" standalone="no"?>
<!DOCTYPE svg PUBLIC "-//W3C//DTD SVG 1.1//EN"
 "http://www.w3.org/Graphics/SVG/1.1/DTD/svg11.dtd">
<!-- Generated by graphviz version 2.40.1 (20161225.0304)
 -->
<!-- Title: Energy parameters Pages: 1 -->
<svg width="450pt" height="39pt"
 viewBox="0.00 0.00 450.00 39.00" xmlns="http://www.w3.org/2000/svg" xmlns:xlink="http://www.w3.org/1999/xlink">
<g id="graph0" class="graph" transform="scale(1 1) rotate(0) translate(4 35)">
<title>Energy parameters</title>
<!-- Node0 -->
<g id="node1" class="node">
<title>Node0</title>
<polygon fill="#bfbfbf" stroke="#000000" points="167,-6 167,-25 266,-25 266,-6 167,-6"/>
<text text-anchor="middle" x="216.5" y="-13" font-family="Helvetica,sans-Serif" font-size="10.00" fill="#000000">Energy parameters</text>
</g>
<!-- Node2 -->
<g id="node2" class="node">
<title>Node2</title>
<g id="a_node2"><a xlink:href="group__energy__parameters__rw.html" target="_top" xlink:title="Read and Write energy parameter sets from and to text files. ">
<polygon fill="none" stroke="#000000" points="302,-.5 302,-30.5 442,-30.5 442,-.5 302,-.5"/>
<text text-anchor="start" x="310" y="-18.5" font-family="Helvetica,sans-Serif" font-size="10.00" fill="#000000">Reading/Writing Energy</text>
<text text-anchor="middle" x="372" y="-7.5" font-family="Helvetica,sans-Serif" font-size="10.00" fill="#000000"> Parameter Sets from/to File</text>
</a>
</g>
</g>
<!-- Node0&#45;&gt;Node2 -->
<g id="edge2" class="edge">
<title>Node0&#45;&gt;Node2</title>
<path fill="none" stroke="#000000" d="M276.1991,-15.5C284.5992,-15.5 293.2969,-15.5 301.8698,-15.5"/>
<polygon fill="#000000" stroke="#000000" points="276.1287,-12.0001 266.1287,-15.5 276.1287,-19.0001 276.1287,-12.0001"/>
</g>
<!-- Node1 -->
<g id="node3" class="node">
<title>Node1</title>
<g id="a_node3"><a xlink:href="group__grammar.html" target="_top" xlink:title="The RNA folding grammar as implemented in RNAlib. ">
<polygon fill="none" stroke="#000000" points="0,-6 0,-25 131,-25 131,-6 0,-6"/>
<text text-anchor="middle" x="65.5" y="-13" font-family="Helvetica,sans-Serif" font-size="10.00" fill="#000000">The RNA folding grammar</text>
</a>
</g>
</g>
<!-- Node1&#45;&gt;Node0 -->
<g id="edge1" class="edge">
<title>Node1&#45;&gt;Node0</title>
<path fill="none" stroke="#000000" d="M141.401,-15.5C150.0331,-15.5 158.6582,-15.5 166.8249,-15.5"/>
<polygon fill="#000000" stroke="#000000" points="141.2916,-12.0001 131.2915,-15.5 141.2915,-19.0001 141.2916,-12.0001"/>
</g>
</g>
</svg>
