<?xml version="1.0" encoding="UTF-8" standalone="no"?>
<!DOCTYPE svg PUBLIC "-//W3C//DTD SVG 1.1//EN"
 "http://www.w3.org/Graphics/SVG/1.1/DTD/svg11.dtd">
<!-- Generated by graphviz version 2.40.1 (20161225.0304)
 -->
<!-- Title: The RNA secondary structure landscape Pages: 1 -->
<svg width="337pt" height="100pt"
 viewBox="0.00 0.00 337.00 99.50" xmlns="http://www.w3.org/2000/svg" xmlns:xlink="http://www.w3.org/1999/xlink">
<g id="graph0" class="graph" transform="scale(1 1) rotate(0) translate(4 95.5)">
<title>The RNA secondary structure landscape</title>
<!-- Node1 -->
<g id="node1" class="node">
<title>Node1</title>
<g id="a_node1"><a xlink:href="group__neighbors.html" target="_top" xlink:title="Different functions to generate structural neighbors of a secondary structure according to a particul...">
<polygon fill="none" stroke="#000000" points="183,-50 183,-91 329,-91 329,-50 183,-50"/>
<text text-anchor="start" x="191" y="-79" font-family="Helvetica,sans-Serif" font-size="10.00" fill="#000000">Neighborhood relation</text>
<text text-anchor="start" x="191" y="-68" font-family="Helvetica,sans-Serif" font-size="10.00" fill="#000000"> and move sets for secondary</text>
<text text-anchor="middle" x="256" y="-57" font-family="Helvetica,sans-Serif" font-size="10.00" fill="#000000"> structures</text>
</a>
</g>
</g>
<!-- Node2 -->
<g id="node2" class="node">
<title>Node2</title>
<g id="a_node2"><a xlink:href="group__paths.html" target="_top" xlink:title="Refolding paths of\l secondary structures">
<polygon fill="none" stroke="#000000" points="200.5,-.5 200.5,-30.5 311.5,-30.5 311.5,-.5 200.5,-.5"/>
<text text-anchor="start" x="208.5" y="-18.5" font-family="Helvetica,sans-Serif" font-size="10.00" fill="#000000">Refolding paths of</text>
<text text-anchor="middle" x="256" y="-7.5" font-family="Helvetica,sans-Serif" font-size="10.00" fill="#000000"> secondary structures</text>
</a>
</g>
</g>
<!-- Node0 -->
<g id="node3" class="node">
<title>Node0</title>
<polygon fill="#bfbfbf" stroke="#000000" points="0,-27.5 0,-57.5 147,-57.5 147,-27.5 0,-27.5"/>
<text text-anchor="start" x="8" y="-45.5" font-family="Helvetica,sans-Serif" font-size="10.00" fill="#000000">The RNA secondary structure</text>
<text text-anchor="middle" x="73.5" y="-34.5" font-family="Helvetica,sans-Serif" font-size="10.00" fill="#000000"> landscape</text>
</g>
<!-- Node0&#45;&gt;Node1 -->
<g id="edge1" class="edge">
<title>Node0&#45;&gt;Node1</title>
<path fill="none" stroke="#000000" d="M157.2143,-55.3438C165.7925,-56.6599 174.4601,-57.9898 182.9111,-59.2864"/>
<polygon fill="#000000" stroke="#000000" points="157.6188,-51.865 147.2037,-53.808 156.5572,-58.7841 157.6188,-51.865"/>
</g>
<!-- Node0&#45;&gt;Node2 -->
<g id="edge2" class="edge">
<title>Node0&#45;&gt;Node2</title>
<path fill="none" stroke="#000000" d="M157.2425,-30.1107C171.8292,-27.9527 186.6734,-25.7565 200.2708,-23.7449"/>
<polygon fill="#000000" stroke="#000000" points="156.5838,-26.67 147.2037,-31.5959 157.6083,-33.5946 156.5838,-26.67"/>
</g>
</g>
</svg>
