<?xml version="1.0" encoding="UTF-8" standalone="no"?>
<!DOCTYPE svg PUBLIC "-//W3C//DTD SVG 1.1//EN"
 "http://www.w3.org/Graphics/SVG/1.1/DTD/svg11.dtd">
<!-- Generated by graphviz version 2.40.1 (20161225.0304)
 -->
<!-- Title: Functions for Creating Secondary Structure Plots, Dot&#45;Plots, and More Pages: 1 -->
<svg width="402pt" height="61pt"
 viewBox="0.00 0.00 402.00 61.00" xmlns="http://www.w3.org/2000/svg" xmlns:xlink="http://www.w3.org/1999/xlink">
<g id="graph0" class="graph" transform="scale(1 1) rotate(0) translate(4 57)">
<title>Functions for Creating Secondary Structure Plots, Dot&#45;Plots, and More</title>
<!-- Node0 -->
<g id="node1" class="node">
<title>Node0</title>
<polygon fill="#bfbfbf" stroke="#000000" points="86,-6 86,-47 223,-47 223,-6 86,-6"/>
<text text-anchor="start" x="94" y="-35" font-family="Helvetica,sans-Serif" font-size="10.00" fill="#000000">Functions for Creating</text>
<text text-anchor="start" x="94" y="-24" font-family="Helvetica,sans-Serif" font-size="10.00" fill="#000000"> Secondary Structure Plots,</text>
<text text-anchor="middle" x="154.5" y="-13" font-family="Helvetica,sans-Serif" font-size="10.00" fill="#000000"> Dot&#45;Plots, and More</text>
</g>
<!-- Node2 -->
<g id="node3" class="node">
<title>Node2</title>
<g id="a_node3"><a xlink:href="group__annotation__utils.html" target="_top" xlink:title="Functions to generate\l annotations for Secondary\l Structure Plots, Dot&#45;Plots,\l and Others">
<polygon fill="none" stroke="#000000" points="259,-.5 259,-52.5 394,-52.5 394,-.5 259,-.5"/>
<text text-anchor="start" x="267" y="-40.5" font-family="Helvetica,sans-Serif" font-size="10.00" fill="#000000">Functions to generate</text>
<text text-anchor="start" x="267" y="-29.5" font-family="Helvetica,sans-Serif" font-size="10.00" fill="#000000"> annotations for Secondary</text>
<text text-anchor="start" x="267" y="-18.5" font-family="Helvetica,sans-Serif" font-size="10.00" fill="#000000"> Structure Plots, Dot&#45;Plots,</text>
<text text-anchor="middle" x="326.5" y="-7.5" font-family="Helvetica,sans-Serif" font-size="10.00" fill="#000000"> and Others</text>
</a>
</g>
</g>
<!-- Node0&#45;&gt;Node2 -->
<g id="edge2" class="edge">
<title>Node0&#45;&gt;Node2</title>
<path fill="none" stroke="#000000" d="M233.6864,-26.5C242.1175,-26.5 250.6364,-26.5 258.9164,-26.5"/>
<polygon fill="#000000" stroke="#000000" points="233.468,-23.0001 223.4679,-26.5 233.4679,-30.0001 233.468,-23.0001"/>
</g>
<!-- Node1 -->
<g id="node2" class="node">
<title>Node1</title>
<g id="a_node2"><a xlink:href="group__utils.html" target="_top" xlink:title="Utilities">
<polygon fill="none" stroke="#000000" points="0,-17 0,-36 50,-36 50,-17 0,-17"/>
<text text-anchor="middle" x="25" y="-24" font-family="Helvetica,sans-Serif" font-size="10.00" fill="#000000">Utilities</text>
</a>
</g>
</g>
<!-- Node1&#45;&gt;Node0 -->
<g id="edge1" class="edge">
<title>Node1&#45;&gt;Node0</title>
<path fill="none" stroke="#000000" d="M60.316,-26.5C68.3309,-26.5 77.1101,-26.5 85.9839,-26.5"/>
<polygon fill="#000000" stroke="#000000" points="60.2764,-23.0001 50.2763,-26.5 60.2763,-30.0001 60.2764,-23.0001"/>
</g>
</g>
</svg>
