<?xml version="1.0" encoding="UTF-8" standalone="no"?>
<!DOCTYPE svg PUBLIC "-//W3C//DTD SVG 1.1//EN"
 "http://www.w3.org/Graphics/SVG/1.1/DTD/svg11.dtd">
<!-- Generated by graphviz version 2.40.1 (20161225.0304)
 -->
<!-- Title: The RNA folding grammar Pages: 1 -->
<svg width="298pt" height="188pt"
 viewBox="0.00 0.00 298.00 187.50" xmlns="http://www.w3.org/2000/svg" xmlns:xlink="http://www.w3.org/1999/xlink">
<g id="graph0" class="graph" transform="scale(1 1) rotate(0) translate(4 183.5)">
<title>The RNA folding grammar</title>
<!-- Node1 -->
<g id="node1" class="node">
<title>Node1</title>
<g id="a_node1"><a xlink:href="group__model__details.html" target="_top" xlink:title="Functions and data structures to fine&#45;tune the implemented secondary structure evaluation model...">
<polygon fill="none" stroke="#000000" points="173.5,-149 173.5,-179 283.5,-179 283.5,-149 173.5,-149"/>
<text text-anchor="start" x="181.5" y="-167" font-family="Helvetica,sans-Serif" font-size="10.00" fill="#000000">Fine&#45;tuning of the</text>
<text text-anchor="middle" x="228.5" y="-156" font-family="Helvetica,sans-Serif" font-size="10.00" fill="#000000"> implemented models</text>
</a>
</g>
</g>
<!-- Node2 -->
<g id="node2" class="node">
<title>Node2</title>
<g id="a_node2"><a xlink:href="group__energy__parameters.html" target="_top" xlink:title="All relevant functions to retrieve and copy pre&#45;calculated energy parameter sets as well as reading/w...">
<polygon fill="none" stroke="#000000" points="179,-110.5 179,-129.5 278,-129.5 278,-110.5 179,-110.5"/>
<text text-anchor="middle" x="228.5" y="-117.5" font-family="Helvetica,sans-Serif" font-size="10.00" fill="#000000">Energy parameters</text>
</a>
</g>
</g>
<!-- Node4 -->
<g id="node3" class="node">
<title>Node4</title>
<g id="a_node3"><a xlink:href="group__constraints.html" target="_top" xlink:title="This module provides general functions that allow for an easy control of constrained secondary struct...">
<polygon fill="none" stroke="#000000" points="172,-61 172,-91 285,-91 285,-61 172,-61"/>
<text text-anchor="start" x="180" y="-79" font-family="Helvetica,sans-Serif" font-size="10.00" fill="#000000">Constraining the RNA</text>
<text text-anchor="middle" x="228.5" y="-68" font-family="Helvetica,sans-Serif" font-size="10.00" fill="#000000"> folding grammar</text>
</a>
</g>
</g>
<!-- Node0 -->
<g id="node4" class="node">
<title>Node0</title>
<polygon fill="#bfbfbf" stroke="#000000" points="0,-88.5 0,-107.5 131,-107.5 131,-88.5 0,-88.5"/>
<text text-anchor="middle" x="65.5" y="-95.5" font-family="Helvetica,sans-Serif" font-size="10.00" fill="#000000">The RNA folding grammar</text>
</g>
<!-- Node0&#45;&gt;Node1 -->
<g id="edge1" class="edge">
<title>Node0&#45;&gt;Node1</title>
<path fill="none" stroke="#000000" d="M98.5558,-111.3846C125.403,-122.2552 163.2592,-137.5835 191.1899,-148.8929"/>
<polygon fill="#000000" stroke="#000000" points="99.7842,-108.106 89.2016,-107.597 97.157,-114.5943 99.7842,-108.106"/>
</g>
<!-- Node0&#45;&gt;Node2 -->
<g id="edge2" class="edge">
<title>Node0&#45;&gt;Node2</title>
<path fill="none" stroke="#000000" d="M141.4794,-108.2549C154.2148,-109.9738 167.1307,-111.717 178.9758,-113.3157"/>
<polygon fill="#000000" stroke="#000000" points="141.7068,-104.7539 131.3285,-106.8848 140.7705,-111.691 141.7068,-104.7539"/>
</g>
<!-- Node0&#45;&gt;Node4 -->
<g id="edge4" class="edge">
<title>Node0&#45;&gt;Node4</title>
<path fill="none" stroke="#000000" d="M141.4878,-87.744C151.7098,-86.3643 162.0479,-84.969 171.8551,-83.6453"/>
<polygon fill="#000000" stroke="#000000" points="140.7705,-84.309 131.3285,-89.1152 141.7068,-91.2461 140.7705,-84.309"/>
</g>
<!-- Node3 -->
<g id="node5" class="node">
<title>Node3</title>
<g id="a_node5"><a xlink:href="group__domains.html" target="_top" xlink:title="This module covers simple and straight&#45;forward extensions to the RNA folding grammar. ">
<polygon fill="none" stroke="#000000" points="167,-.5 167,-41.5 290,-41.5 290,-.5 167,-.5"/>
<text text-anchor="start" x="175" y="-29.5" font-family="Helvetica,sans-Serif" font-size="10.00" fill="#000000">Extending the folding</text>
<text text-anchor="start" x="175" y="-18.5" font-family="Helvetica,sans-Serif" font-size="10.00" fill="#000000"> grammar with additional</text>
<text text-anchor="middle" x="228.5" y="-7.5" font-family="Helvetica,sans-Serif" font-size="10.00" fill="#000000"> domains</text>
</a>
</g>
</g>
<!-- Node0&#45;&gt;Node3 -->
<g id="edge3" class="edge">
<title>Node0&#45;&gt;Node3</title>
<path fill="none" stroke="#000000" d="M95.1665,-83.9858C120.2489,-72.137 156.5275,-54.9993 184.9119,-41.5907"/>
<polygon fill="#000000" stroke="#000000" points="93.3614,-80.9675 85.8145,-88.4036 96.3514,-87.2969 93.3614,-80.9675"/>
</g>
</g>
</svg>
