<?xml version="1.0" encoding="UTF-8" standalone="no"?>
<!DOCTYPE svg PUBLIC "-//W3C//DTD SVG 1.1//EN"
 "http://www.w3.org/Graphics/SVG/1.1/DTD/svg11.dtd">
<!-- Generated by graphviz version 2.40.1 (20161225.0304)
 -->
<!-- Title: Data Structures and Preprocessor Macros Pages: 1 -->
<svg width="293pt" height="78pt"
 viewBox="0.00 0.00 293.00 77.50" xmlns="http://www.w3.org/2000/svg" xmlns:xlink="http://www.w3.org/1999/xlink">
<g id="graph0" class="graph" transform="scale(1 1) rotate(0) translate(4 73.5)">
<title>Data Structures and Preprocessor Macros</title>
<!-- Node0 -->
<g id="node1" class="node">
<title>Node0</title>
<polygon fill="#bfbfbf" stroke="#000000" points="0,-22.5 0,-52.5 113,-52.5 113,-22.5 0,-22.5"/>
<text text-anchor="start" x="8" y="-40.5" font-family="Helvetica,sans-Serif" font-size="10.00" fill="#000000">Data Structures and</text>
<text text-anchor="middle" x="56.5" y="-29.5" font-family="Helvetica,sans-Serif" font-size="10.00" fill="#000000"> Preprocessor Macros</text>
</g>
<!-- Node1 -->
<g id="node2" class="node">
<title>Node1</title>
<g id="a_node2"><a xlink:href="group__fold__compound.html" target="_top" xlink:title="This module provides interfaces that deal with the most basic data structure used in structure predic...">
<polygon fill="none" stroke="#000000" points="164.5,-50 164.5,-69 269.5,-69 269.5,-50 164.5,-50"/>
<text text-anchor="middle" x="217" y="-57" font-family="Helvetica,sans-Serif" font-size="10.00" fill="#000000">The Fold Compound</text>
</a>
</g>
</g>
<!-- Node0&#45;&gt;Node1 -->
<g id="edge1" class="edge">
<title>Node0&#45;&gt;Node1</title>
<path fill="none" stroke="#000000" d="M123.0169,-46.6176C136.824,-48.5101 151.1901,-50.4793 164.4142,-52.292"/>
<polygon fill="#000000" stroke="#000000" points="123.469,-43.1469 113.0863,-45.2564 122.5183,-50.0821 123.469,-43.1469"/>
</g>
<!-- Node2 -->
<g id="node3" class="node">
<title>Node2</title>
<g id="a_node3"><a xlink:href="group__dp__matrices.html" target="_top" xlink:title="This module provides interfaces that deal with creation and destruction of dynamic programming matric...">
<polygon fill="none" stroke="#000000" points="149,-.5 149,-30.5 285,-30.5 285,-.5 149,-.5"/>
<text text-anchor="start" x="157" y="-18.5" font-family="Helvetica,sans-Serif" font-size="10.00" fill="#000000">The Dynamic Programming</text>
<text text-anchor="middle" x="217" y="-7.5" font-family="Helvetica,sans-Serif" font-size="10.00" fill="#000000"> Matrices</text>
</a>
</g>
</g>
<!-- Node0&#45;&gt;Node2 -->
<g id="edge2" class="edge">
<title>Node0&#45;&gt;Node2</title>
<path fill="none" stroke="#000000" d="M123.2582,-28.3493C131.7022,-27.1919 140.3514,-26.0064 148.8172,-24.8459"/>
<polygon fill="#000000" stroke="#000000" points="122.5183,-24.9179 113.0863,-29.7436 123.469,-31.8531 122.5183,-24.9179"/>
</g>
</g>
</svg>
