<?xml version="1.0" encoding="UTF-8" standalone="no"?>
<!DOCTYPE svg PUBLIC "-//W3C//DTD SVG 1.1//EN"
 "http://www.w3.org/Graphics/SVG/1.1/DTD/svg11.dtd">
<!-- Generated by graphviz version 2.40.1 (20161225.0304)
 -->
<!-- Title: Reading/Writing Energy Parameter Sets from/to File Pages: 1 -->
<svg width="465pt" height="39pt"
 viewBox="0.00 0.00 465.00 39.00" xmlns="http://www.w3.org/2000/svg" xmlns:xlink="http://www.w3.org/1999/xlink">
<g id="graph0" class="graph" transform="scale(1 1) rotate(0) translate(4 35)">
<title>Reading/Writing Energy Parameter Sets from/to File</title>
<!-- Node1 -->
<g id="node1" class="node">
<title>Node1</title>
<g id="a_node1"><a xlink:href="group__energy__parameters.html" target="_top" xlink:title="All relevant functions to retrieve and copy pre&#45;calculated energy parameter sets as well as reading/w...">
<polygon fill="none" stroke="#000000" points="0,-6 0,-25 99,-25 99,-6 0,-6"/>
<text text-anchor="middle" x="49.5" y="-13" font-family="Helvetica,sans-Serif" font-size="10.00" fill="#000000">Energy parameters</text>
</a>
</g>
</g>
<!-- Node0 -->
<g id="node2" class="node">
<title>Node0</title>
<polygon fill="#bfbfbf" stroke="#000000" points="135,-.5 135,-30.5 275,-30.5 275,-.5 135,-.5"/>
<text text-anchor="start" x="143" y="-18.5" font-family="Helvetica,sans-Serif" font-size="10.00" fill="#000000">Reading/Writing Energy</text>
<text text-anchor="middle" x="205" y="-7.5" font-family="Helvetica,sans-Serif" font-size="10.00" fill="#000000"> Parameter Sets from/to File</text>
</g>
<!-- Node1&#45;&gt;Node0 -->
<g id="edge1" class="edge">
<title>Node1&#45;&gt;Node0</title>
<path fill="none" stroke="#000000" d="M109.1991,-15.5C117.5992,-15.5 126.2969,-15.5 134.8698,-15.5"/>
<polygon fill="#000000" stroke="#000000" points="109.1287,-12.0001 99.1287,-15.5 109.1287,-19.0001 109.1287,-12.0001"/>
</g>
<!-- Node2 -->
<g id="node3" class="node">
<title>Node2</title>
<g id="a_node3"><a xlink:href="group__energy__parameters__convert.html" target="_top" xlink:title="Convert energy parameter files into the latest format. ">
<polygon fill="none" stroke="#000000" points="311,-.5 311,-30.5 457,-30.5 457,-.5 311,-.5"/>
<text text-anchor="start" x="319" y="-18.5" font-family="Helvetica,sans-Serif" font-size="10.00" fill="#000000">Converting Energy Parameter</text>
<text text-anchor="middle" x="384" y="-7.5" font-family="Helvetica,sans-Serif" font-size="10.00" fill="#000000"> Files</text>
</a>
</g>
</g>
<!-- Node0&#45;&gt;Node2 -->
<g id="edge2" class="edge">
<title>Node0&#45;&gt;Node2</title>
<path fill="none" stroke="#000000" d="M285.4336,-15.5C293.858,-15.5 302.3906,-15.5 310.7288,-15.5"/>
<polygon fill="#000000" stroke="#000000" points="285.2318,-12.0001 275.2318,-15.5 285.2318,-19.0001 285.2318,-12.0001"/>
</g>
</g>
</svg>
