<?xml version="1.0" encoding="UTF-8" standalone="no"?>
<!DOCTYPE svg PUBLIC "-//W3C//DTD SVG 1.1//EN"
 "http://www.w3.org/Graphics/SVG/1.1/DTD/svg11.dtd">
<!-- Generated by graphviz version 2.40.1 (20161225.0304)
 -->
<!-- Title: MFE Structures of two hybridized Sequences Pages: 1 -->
<svg width="273pt" height="78pt"
 viewBox="0.00 0.00 273.00 77.50" xmlns="http://www.w3.org/2000/svg" xmlns:xlink="http://www.w3.org/1999/xlink">
<g id="graph0" class="graph" transform="scale(1 1) rotate(0) translate(4 73.5)">
<title>MFE Structures of two hybridized Sequences</title>
<!-- Node2 -->
<g id="node1" class="node">
<title>Node2</title>
<g id="a_node1"><a xlink:href="group__mfe__fold.html" target="_top" xlink:title="Minimum Free Energy\l (MFE) algorithms">
<polygon fill="none" stroke="#000000" points="0,-39 0,-69 113,-69 113,-39 0,-39"/>
<text text-anchor="start" x="8" y="-57" font-family="Helvetica,sans-Serif" font-size="10.00" fill="#000000">Minimum Free Energy</text>
<text text-anchor="middle" x="56.5" y="-46" font-family="Helvetica,sans-Serif" font-size="10.00" fill="#000000"> (MFE) algorithms</text>
</a>
</g>
</g>
<!-- Node0 -->
<g id="node2" class="node">
<title>Node0</title>
<polygon fill="#bfbfbf" stroke="#000000" points="149,-17 149,-47 265,-47 265,-17 149,-17"/>
<text text-anchor="start" x="157" y="-35" font-family="Helvetica,sans-Serif" font-size="10.00" fill="#000000">MFE Structures of two</text>
<text text-anchor="middle" x="207" y="-24" font-family="Helvetica,sans-Serif" font-size="10.00" fill="#000000"> hybridized Sequences</text>
</g>
<!-- Node2&#45;&gt;Node0 -->
<g id="edge2" class="edge">
<title>Node2&#45;&gt;Node0</title>
<path fill="none" stroke="#000000" d="M123.5571,-44.1976C131.9658,-42.9685 140.5126,-41.7191 148.7707,-40.5119"/>
<polygon fill="#000000" stroke="#000000" points="122.7862,-40.773 113.3976,-45.6827 123.7987,-47.6994 122.7862,-40.773"/>
</g>
<!-- Node1 -->
<g id="node3" class="node">
<title>Node1</title>
<g id="a_node3"><a xlink:href="group__cofold.html" target="_top" xlink:title="RNA&#45;RNA interaction">
<polygon fill="none" stroke="#000000" points="1,-.5 1,-19.5 112,-19.5 112,-.5 1,-.5"/>
<text text-anchor="middle" x="56.5" y="-7.5" font-family="Helvetica,sans-Serif" font-size="10.00" fill="#000000">RNA&#45;RNA interaction</text>
</a>
</g>
</g>
<!-- Node1&#45;&gt;Node0 -->
<g id="edge1" class="edge">
<title>Node1&#45;&gt;Node0</title>
<path fill="none" stroke="#000000" d="M122.0682,-19.5847C130.979,-20.8873 140.0741,-22.2168 148.8422,-23.4985"/>
<polygon fill="#000000" stroke="#000000" points="122.5142,-16.1128 112.1131,-18.1295 121.5016,-23.0392 122.5142,-16.1128"/>
</g>
</g>
</svg>
