<?xml version="1.0" encoding="UTF-8" standalone="no"?>
<!DOCTYPE svg PUBLIC "-//W3C//DTD SVG 1.1//EN"
 "http://www.w3.org/Graphics/SVG/1.1/DTD/svg11.dtd">
<!-- Generated by graphviz version 2.40.1 (20161225.0304)
 -->
<!-- Title: Partition Function for two hybridized Sequences Pages: 1 -->
<svg width="565pt" height="72pt"
 viewBox="0.00 0.00 565.00 72.37" xmlns="http://www.w3.org/2000/svg" xmlns:xlink="http://www.w3.org/1999/xlink">
<g id="graph0" class="graph" transform="scale(1 1) rotate(0) translate(4 68.3721)">
<title>Partition Function for two hybridized Sequences</title>
<!-- Node2 -->
<g id="node1" class="node">
<title>Node2</title>
<g id="a_node1"><a xlink:href="group__pf__fold.html" target="_top" xlink:title="Compute the partition function and various equilibrium properties derived from it. ">
<polygon fill="none" stroke="#000000" points="0,-16.3721 0,-46.3721 131,-46.3721 131,-16.3721 0,-16.3721"/>
<text text-anchor="start" x="8" y="-34.3721" font-family="Helvetica,sans-Serif" font-size="10.00" fill="#000000">Partition function</text>
<text text-anchor="middle" x="65.5" y="-23.3721" font-family="Helvetica,sans-Serif" font-size="10.00" fill="#000000"> and equilibrium properties</text>
</a>
</g>
</g>
<!-- Node0 -->
<g id="node3" class="node">
<title>Node0</title>
<polygon fill="#bfbfbf" stroke="#000000" points="240,-10.8721 240,-51.8721 337,-51.8721 337,-10.8721 240,-10.8721"/>
<text text-anchor="start" x="248" y="-39.8721" font-family="Helvetica,sans-Serif" font-size="10.00" fill="#000000">Partition Function</text>
<text text-anchor="start" x="248" y="-28.8721" font-family="Helvetica,sans-Serif" font-size="10.00" fill="#000000"> for two hybridized</text>
<text text-anchor="middle" x="288.5" y="-17.8721" font-family="Helvetica,sans-Serif" font-size="10.00" fill="#000000"> Sequences</text>
</g>
<!-- Node2&#45;&gt;Node0 -->
<g id="edge2" class="edge">
<title>Node2&#45;&gt;Node0</title>
<path fill="none" stroke="#000000" d="M141.2416,-40.8421C143.8575,-41.0418 146.4495,-41.2199 149,-41.3721 181.3868,-43.3046 189.6459,-43.7912 222,-41.3721 227.8212,-40.9369 233.9053,-40.2902 239.9275,-39.5312"/>
<polygon fill="#000000" stroke="#000000" points="141.3323,-37.3372 131.0706,-39.9731 140.7364,-44.3117 141.3323,-37.3372"/>
</g>
<!-- Node1 -->
<g id="node2" class="node">
<title>Node1</title>
<g id="a_node2"><a xlink:href="group__cofold.html" target="_top" xlink:title="RNA&#45;RNA interaction">
<polygon fill="none" stroke="#000000" points="446,-21.8721 446,-40.8721 557,-40.8721 557,-21.8721 446,-21.8721"/>
<text text-anchor="middle" x="501.5" y="-28.8721" font-family="Helvetica,sans-Serif" font-size="10.00" fill="#000000">RNA&#45;RNA interaction</text>
</a>
</g>
</g>
<!-- Node1&#45;&gt;Node0 -->
<g id="edge1" class="edge">
<title>Node1&#45;&gt;Node0</title>
<path fill="none" stroke="#000000" d="M435.661,-29.4932C433.074,-29.4471 430.5129,-29.4063 428,-29.3721 395.5586,-28.9308 387.4408,-28.8844 355,-29.3721 349.2255,-29.4589 343.1698,-29.5881 337.1632,-29.7399"/>
<polygon fill="#000000" stroke="#000000" points="435.6525,-32.9936 445.7207,-29.695 435.793,-25.995 435.6525,-32.9936"/>
</g>
<!-- Node0&#45;&gt;Node2 -->
<g id="edge3" class="edge">
<title>Node0&#45;&gt;Node2</title>
<path fill="none" stroke="#006400" stroke-dasharray="5,2" d="M244.513,-10.7761C237.1406,-8.1243 229.46,-5.8288 222,-4.3721 190.157,1.8458 181.0486,.6806 149,-4.3721 133.7998,-6.7686 117.5964,-11.4767 103.5473,-16.2995"/>
<text text-anchor="middle" x="185.5" y="-29.3721" font-family="Helvetica,sans-Serif" font-size="10.00" fill="#000000">concentrations.h</text>
<text text-anchor="middle" x="185.5" y="-18.3721" font-family="Helvetica,sans-Serif" font-size="10.00" fill="#000000">part_func_co.h</text>
<text text-anchor="middle" x="185.5" y="-7.3721" font-family="Helvetica,sans-Serif" font-size="10.00" fill="#000000">part_func_up.h</text>
</g>
<!-- Node0&#45;&gt;Node1 -->
<g id="edge4" class="edge">
<title>Node0&#45;&gt;Node1</title>
<path fill="none" stroke="#006400" stroke-dasharray="5,2" d="M337.0995,-31.3721C369.5142,-31.3721 412.2103,-31.3721 445.967,-31.3721"/>
<text text-anchor="middle" x="391.5" y="-56.3721" font-family="Helvetica,sans-Serif" font-size="10.00" fill="#000000">concentrations.h</text>
<text text-anchor="middle" x="391.5" y="-45.3721" font-family="Helvetica,sans-Serif" font-size="10.00" fill="#000000">part_func_co.h</text>
<text text-anchor="middle" x="391.5" y="-34.3721" font-family="Helvetica,sans-Serif" font-size="10.00" fill="#000000">part_func_up.h</text>
</g>
</g>
</svg>
