<?xml version="1.0" encoding="UTF-8" standalone="no"?>
<!DOCTYPE svg PUBLIC "-//W3C//DTD SVG 1.1//EN"
 "http://www.w3.org/Graphics/SVG/1.1/DTD/svg11.dtd">
<!-- Generated by graphviz version 2.40.1 (20161225.0304)
 -->
<!-- Title: ViennaRNA/hairpin_loops.h Pages: 1 -->
<svg width="1496pt" height="442pt"
 viewBox="0.00 0.00 1496.00 442.00" xmlns="http://www.w3.org/2000/svg" xmlns:xlink="http://www.w3.org/1999/xlink">
<g id="graph0" class="graph" transform="scale(1 1) rotate(0) translate(4 438)">
<title>ViennaRNA/hairpin_loops.h</title>
<!-- Node0 -->
<g id="node1" class="node">
<title>Node0</title>
<polygon fill="#bfbfbf" stroke="#000000" points="149.5,-414.5 149.5,-433.5 286.5,-433.5 286.5,-414.5 149.5,-414.5"/>
<text text-anchor="middle" x="218" y="-421.5" font-family="Helvetica,sans-Serif" font-size="10.00" fill="#000000">ViennaRNA/hairpin_loops.h</text>
</g>
<!-- Node1 -->
<g id="node2" class="node">
<title>Node1</title>
<polygon fill="none" stroke="#bfbfbf" points="75.5,-358.5 75.5,-377.5 122.5,-377.5 122.5,-358.5 75.5,-358.5"/>
<text text-anchor="middle" x="99" y="-365.5" font-family="Helvetica,sans-Serif" font-size="10.00" fill="#000000">math.h</text>
</g>
<!-- Node0&#45;&gt;Node1 -->
<g id="edge1" class="edge">
<title>Node0&#45;&gt;Node1</title>
<path fill="none" stroke="#191970" d="M197.5432,-414.3733C178.5262,-405.4241 149.9825,-391.9917 128.5024,-381.8835"/>
<polygon fill="#191970" stroke="#191970" points="129.7284,-378.5923 119.1899,-377.5011 126.7478,-384.926 129.7284,-378.5923"/>
</g>
<!-- Node2 -->
<g id="node3" class="node">
<title>Node2</title>
<polygon fill="none" stroke="#bfbfbf" points="140.5,-358.5 140.5,-377.5 189.5,-377.5 189.5,-358.5 140.5,-358.5"/>
<text text-anchor="middle" x="165" y="-365.5" font-family="Helvetica,sans-Serif" font-size="10.00" fill="#000000">string.h</text>
</g>
<!-- Node0&#45;&gt;Node2 -->
<g id="edge2" class="edge">
<title>Node0&#45;&gt;Node2</title>
<path fill="none" stroke="#191970" d="M208.7681,-414.2455C201.1683,-406.2155 190.2123,-394.6394 181.1632,-385.0781"/>
<polygon fill="#191970" stroke="#191970" points="183.542,-382.4998 174.1261,-377.6427 178.4579,-387.3115 183.542,-382.4998"/>
</g>
<!-- Node3 -->
<g id="node4" class="node">
<title>Node3</title>
<g id="a_node4"><a xlink:href="utils_8h.html" target="_top" xlink:title="General utility&#45; and helper&#45;functions used throughout the ViennaRNA Package. ">
<polygon fill="none" stroke="#000000" points="835,-358.5 835,-377.5 933,-377.5 933,-358.5 835,-358.5"/>
<text text-anchor="middle" x="884" y="-365.5" font-family="Helvetica,sans-Serif" font-size="10.00" fill="#000000">ViennaRNA/utils.h</text>
</a>
</g>
</g>
<!-- Node0&#45;&gt;Node3 -->
<g id="edge3" class="edge">
<title>Node0&#45;&gt;Node3</title>
<path fill="none" stroke="#191970" d="M286.7652,-418.2179C417.8471,-407.196 701.3845,-383.3551 824.7071,-372.9856"/>
<polygon fill="#191970" stroke="#191970" points="825.0494,-376.4692 834.721,-372.1436 824.4629,-369.4939 825.0494,-376.4692"/>
</g>
<!-- Node6 -->
<g id="node7" class="node">
<title>Node6</title>
<g id="a_node7"><a xlink:href="data__structures_8h.html" target="_top" xlink:title="Various data structures and pre&#45;processor macros. ">
<polygon fill="none" stroke="#000000" points="695.5,-246.5 695.5,-265.5 842.5,-265.5 842.5,-246.5 695.5,-246.5"/>
<text text-anchor="middle" x="769" y="-253.5" font-family="Helvetica,sans-Serif" font-size="10.00" fill="#000000">ViennaRNA/data_structures.h</text>
</a>
</g>
</g>
<!-- Node0&#45;&gt;Node6 -->
<g id="edge53" class="edge">
<title>Node0&#45;&gt;Node6</title>
<path fill="none" stroke="#191970" d="M249.2029,-414.4862C343.044,-385.8741 622.6971,-300.6078 728.1495,-268.4553"/>
<polygon fill="#191970" stroke="#191970" points="729.2542,-271.7777 737.7987,-265.5133 727.2126,-265.082 729.2542,-271.7777"/>
</g>
<!-- Node11 -->
<g id="node12" class="node">
<title>Node11</title>
<g id="a_node12"><a xlink:href="params_8h.html" target="_top" xlink:title="Functions to deal with sets of energy parameters. ">
<polygon fill="none" stroke="#000000" points="136,-129 136,-148 248,-148 248,-129 136,-129"/>
<text text-anchor="middle" x="192" y="-136" font-family="Helvetica,sans-Serif" font-size="10.00" fill="#000000">ViennaRNA/params.h</text>
</a>
</g>
</g>
<!-- Node0&#45;&gt;Node11 -->
<g id="edge54" class="edge">
<title>Node0&#45;&gt;Node11</title>
<path fill="none" stroke="#191970" d="M218,-414.4116C218,-395.0538 218,-349.9167 218,-312 218,-312 218,-312 218,-256 218,-220.6488 206.6418,-180.6979 198.9398,-157.671"/>
<polygon fill="#191970" stroke="#191970" points="202.1999,-156.3897 195.6152,-148.0896 195.5867,-158.6844 202.1999,-156.3897"/>
</g>
<!-- Node4 -->
<g id="node5" class="node">
<title>Node4</title>
<polygon fill="none" stroke="#bfbfbf" points="1422,-.5 1422,-19.5 1468,-19.5 1468,-.5 1422,-.5"/>
<text text-anchor="middle" x="1445" y="-7.5" font-family="Helvetica,sans-Serif" font-size="10.00" fill="#000000">stdio.h</text>
</g>
<!-- Node3&#45;&gt;Node4 -->
<g id="edge4" class="edge">
<title>Node3&#45;&gt;Node4</title>
<path fill="none" stroke="#191970" d="M933.2565,-364.6113C1032.1824,-357.5186 1251.8022,-340.2491 1325,-322 1400.8365,-303.093 1488,-334.1578 1488,-256 1488,-256 1488,-256 1488,-138.5 1488,-97.5611 1468.1297,-52.9012 1455.404,-28.4971"/>
<polygon fill="#191970" stroke="#191970" points="1458.4479,-26.7676 1450.6215,-19.6263 1452.2863,-30.0895 1458.4479,-26.7676"/>
</g>
<!-- Node5 -->
<g id="node6" class="node">
<title>Node5</title>
<polygon fill="none" stroke="#bfbfbf" points="881,-246.5 881,-265.5 933,-265.5 933,-246.5 881,-246.5"/>
<text text-anchor="middle" x="907" y="-253.5" font-family="Helvetica,sans-Serif" font-size="10.00" fill="#000000">stdarg.h</text>
</g>
<!-- Node3&#45;&gt;Node5 -->
<g id="edge5" class="edge">
<title>Node3&#45;&gt;Node5</title>
<path fill="none" stroke="#191970" d="M891.6619,-358.4654C898.2487,-349.6125 907.2597,-335.7614 911,-322 915.1399,-306.7685 913.6787,-288.8588 911.4389,-275.542"/>
<polygon fill="#191970" stroke="#191970" points="914.8465,-274.7311 909.4802,-265.5958 907.9784,-276.0836 914.8465,-274.7311"/>
</g>
<!-- Node3&#45;&gt;Node6 -->
<g id="edge6" class="edge">
<title>Node3&#45;&gt;Node6</title>
<path fill="none" stroke="#191970" d="M846.3629,-358.4397C815.2157,-349.6768 774.581,-335.9756 765,-322 755.7931,-308.5702 758.0168,-289.7606 761.8309,-275.6558"/>
<polygon fill="#191970" stroke="#191970" points="765.2208,-276.5437 764.8945,-265.9539 758.5457,-274.4358 765.2208,-276.5437"/>
</g>
<!-- Node23 -->
<g id="node24" class="node">
<title>Node23</title>
<g id="a_node24"><a xlink:href="structure__utils_8h.html" target="_top" xlink:title="Various utility&#45; and helper&#45;functions for secondary structure parsing, converting, etc. ">
<polygon fill="none" stroke="#000000" points="1348,-56.5 1348,-86.5 1458,-86.5 1458,-56.5 1348,-56.5"/>
<text text-anchor="start" x="1356" y="-74.5" font-family="Helvetica,sans-Serif" font-size="10.00" fill="#000000">ViennaRNA/structure</text>
<text text-anchor="middle" x="1403" y="-63.5" font-family="Helvetica,sans-Serif" font-size="10.00" fill="#000000">_utils.h</text>
</a>
</g>
</g>
<!-- Node3&#45;&gt;Node23 -->
<g id="edge49" class="edge">
<title>Node3&#45;&gt;Node23</title>
<path fill="none" stroke="#191970" d="M933.2387,-363.4495C1070.943,-350.0668 1450,-308.4636 1450,-256 1450,-256 1450,-256 1450,-200 1450,-161.6644 1431.3219,-120.5958 1417.5151,-95.4747"/>
<polygon fill="#191970" stroke="#191970" points="1420.494,-93.6326 1412.5112,-86.6666 1414.4076,-97.0903 1420.494,-93.6326"/>
</g>
<!-- Node24 -->
<g id="node25" class="node">
<title>Node24</title>
<g id="a_node25"><a xlink:href="string__utils_8h.html" target="_top" xlink:title="General utility&#45; and helper&#45;functions for RNA sequence and structure strings used throughout the Vien...">
<polygon fill="none" stroke="#000000" points="774.5,-302.5 774.5,-321.5 901.5,-321.5 901.5,-302.5 774.5,-302.5"/>
<text text-anchor="middle" x="838" y="-309.5" font-family="Helvetica,sans-Serif" font-size="10.00" fill="#000000">ViennaRNA/string_utils.h</text>
</a>
</g>
</g>
<!-- Node3&#45;&gt;Node24 -->
<g id="edge46" class="edge">
<title>Node3&#45;&gt;Node24</title>
<path fill="none" stroke="#191970" d="M875.9874,-358.2455C869.5232,-350.3761 860.2615,-339.101 852.5017,-329.6542"/>
<polygon fill="#191970" stroke="#191970" points="854.9727,-327.1484 845.9208,-321.6427 849.5636,-331.5916 854.9727,-327.1484"/>
</g>
<!-- Node25 -->
<g id="node26" class="node">
<title>Node25</title>
<g id="a_node26"><a xlink:href="file__utils_8h.html" target="_top" xlink:title="Several utilities for file handling. ">
<polygon fill="none" stroke="#000000" points="958,-302.5 958,-321.5 1074,-321.5 1074,-302.5 958,-302.5"/>
<text text-anchor="middle" x="1016" y="-309.5" font-family="Helvetica,sans-Serif" font-size="10.00" fill="#000000">ViennaRNA/file_utils.h</text>
</a>
</g>
</g>
<!-- Node3&#45;&gt;Node25 -->
<g id="edge50" class="edge">
<title>Node3&#45;&gt;Node25</title>
<path fill="none" stroke="#191970" d="M906.6916,-358.3733C928.0711,-349.3032 960.3057,-335.6279 984.2362,-325.4755"/>
<polygon fill="#191970" stroke="#191970" points="985.7656,-328.6287 993.6045,-321.5011 983.0317,-322.1846 985.7656,-328.6287"/>
</g>
<!-- Node26 -->
<g id="node27" class="node">
<title>Node26</title>
<g id="a_node27"><a xlink:href="alphabet_8h.html" target="_top" xlink:title="Functions to process, convert, and generally handle different nucleotide and/or base pair alphabets...">
<polygon fill="none" stroke="#000000" points="74,-190.5 74,-209.5 190,-209.5 190,-190.5 74,-190.5"/>
<text text-anchor="middle" x="132" y="-197.5" font-family="Helvetica,sans-Serif" font-size="10.00" fill="#000000">ViennaRNA/alphabet.h</text>
</a>
</g>
</g>
<!-- Node3&#45;&gt;Node26 -->
<g id="edge51" class="edge">
<title>Node3&#45;&gt;Node26</title>
<path fill="none" stroke="#191970" d="M841.4146,-358.4862C712.4374,-329.6722 326.2738,-243.4016 184.7414,-211.7826"/>
<polygon fill="#191970" stroke="#191970" points="185.1058,-208.2779 174.5833,-209.5133 183.5796,-215.1095 185.1058,-208.2779"/>
</g>
<!-- Node7 -->
<g id="node8" class="node">
<title>Node7</title>
<g id="a_node8"><a xlink:href="energy__const_8h.html" target="_top" xlink:title="Energy parameter constants. ">
<polygon fill="none" stroke="#000000" points="0,-62 0,-81 138,-81 138,-62 0,-62"/>
<text text-anchor="middle" x="69" y="-69" font-family="Helvetica,sans-Serif" font-size="10.00" fill="#000000">ViennaRNA/energy_const.h</text>
</a>
</g>
</g>
<!-- Node6&#45;&gt;Node7 -->
<g id="edge7" class="edge">
<title>Node6&#45;&gt;Node7</title>
<path fill="none" stroke="#191970" d="M695.3318,-253.8686C519.126,-248.4128 86.3138,-232.7519 65,-210 34.8273,-177.7914 49.9571,-120.6122 60.9525,-90.7971"/>
<polygon fill="#191970" stroke="#191970" points="64.3435,-91.7356 64.7248,-81.1476 57.824,-89.1869 64.3435,-91.7356"/>
</g>
<!-- Node9 -->
<g id="node10" class="node">
<title>Node9</title>
<g id="a_node10"><a xlink:href="fold__compound_8h.html" target="_top" xlink:title="The Basic Fold Compound API. ">
<polygon fill="none" stroke="#000000" points="586,-190.5 586,-209.5 732,-209.5 732,-190.5 586,-190.5"/>
<text text-anchor="middle" x="659" y="-197.5" font-family="Helvetica,sans-Serif" font-size="10.00" fill="#000000">ViennaRNA/fold_compound.h</text>
</a>
</g>
</g>
<!-- Node6&#45;&gt;Node9 -->
<g id="edge9" class="edge">
<title>Node6&#45;&gt;Node9</title>
<path fill="none" stroke="#191970" d="M749.8395,-246.2455C732.4889,-237.4125 706.7099,-224.2887 687.0417,-214.2758"/>
<polygon fill="#191970" stroke="#191970" points="688.4405,-211.0605 677.941,-209.6427 685.2647,-217.2986 688.4405,-211.0605"/>
</g>
<!-- Node10 -->
<g id="node11" class="node">
<title>Node10</title>
<g id="a_node11"><a xlink:href="model_8h.html" target="_top" xlink:title="The model details data structure and its corresponding modifiers. ">
<polygon fill="none" stroke="#000000" points="201,-62 201,-81 307,-81 307,-62 201,-62"/>
<text text-anchor="middle" x="254" y="-69" font-family="Helvetica,sans-Serif" font-size="10.00" fill="#000000">ViennaRNA/model.h</text>
</a>
</g>
</g>
<!-- Node6&#45;&gt;Node10 -->
<g id="edge38" class="edge">
<title>Node6&#45;&gt;Node10</title>
<path fill="none" stroke="#191970" d="M695.3401,-252.5977C623.6246,-247.828 512.1298,-236.5216 419,-210 360.8418,-193.4376 338.5434,-195.9603 295,-154 276.8041,-136.4656 265.4514,-109.1513 259.4258,-90.8072"/>
<polygon fill="#191970" stroke="#191970" points="262.7545,-89.7234 256.4822,-81.1847 256.0607,-91.7711 262.7545,-89.7234"/>
</g>
<!-- Node6&#45;&gt;Node11 -->
<g id="edge39" class="edge">
<title>Node6&#45;&gt;Node11</title>
<path fill="none" stroke="#191970" d="M695.0559,-253.4444C579.2833,-248.565 361.2828,-236.0083 289,-210 255.4339,-197.9225 222.2388,-172.8325 204.4026,-155.8264"/>
<polygon fill="#191970" stroke="#191970" points="206.4458,-152.9109 196.9461,-148.2198 201.447,-157.8111 206.4458,-152.9109"/>
</g>
<!-- Node13 -->
<g id="node14" class="node">
<title>Node13</title>
<g id="a_node14"><a xlink:href="dp__matrices_8h.html" target="_top" xlink:title="Functions to deal with standard dynamic programming (DP) matrices. ">
<polygon fill="none" stroke="#000000" points="304.5,-129 304.5,-148 437.5,-148 437.5,-129 304.5,-129"/>
<text text-anchor="middle" x="371" y="-136" font-family="Helvetica,sans-Serif" font-size="10.00" fill="#000000">ViennaRNA/dp_matrices.h</text>
</a>
</g>
</g>
<!-- Node6&#45;&gt;Node13 -->
<g id="edge40" class="edge">
<title>Node6&#45;&gt;Node13</title>
<path fill="none" stroke="#191970" d="M695.317,-250.7614C613.0918,-243.7914 486.1466,-229.9785 443,-210 416.1436,-197.5645 391.623,-173.2973 378.8679,-156.5069"/>
<polygon fill="#191970" stroke="#191970" points="381.6096,-154.3173 373.0521,-148.0707 375.8464,-158.2904 381.6096,-154.3173"/>
</g>
<!-- Node14 -->
<g id="node15" class="node">
<title>Node14</title>
<g id="a_node15"><a xlink:href="constraints_8h.html" target="_top" xlink:title="Functions and data structures for constraining secondary structure predictions and evaluation...">
<polygon fill="none" stroke="#000000" points="1018,-129 1018,-148 1146,-148 1146,-129 1018,-129"/>
<text text-anchor="middle" x="1082" y="-136" font-family="Helvetica,sans-Serif" font-size="10.00" fill="#000000">ViennaRNA/constraints.h</text>
</a>
</g>
</g>
<!-- Node6&#45;&gt;Node14 -->
<g id="edge41" class="edge">
<title>Node6&#45;&gt;Node14</title>
<path fill="none" stroke="#191970" d="M832.4818,-246.4871C888.9828,-237.8331 966.7502,-224.2656 995,-210 1021.2112,-196.7639 1045.0997,-172.1816 1061.538,-155.5822"/>
<polygon fill="#191970" stroke="#191970" points="1064.374,-157.6974 1068.9869,-148.1595 1059.4329,-152.739 1064.374,-157.6974"/>
</g>
<!-- Node20 -->
<g id="node21" class="node">
<title>Node20</title>
<g id="a_node21"><a xlink:href="grammar_8h.html" target="_top" xlink:title="Implementations for the RNA folding grammar. ">
<polygon fill="none" stroke="#000000" points="710,-129 710,-148 828,-148 828,-129 710,-129"/>
<text text-anchor="middle" x="769" y="-136" font-family="Helvetica,sans-Serif" font-size="10.00" fill="#000000">ViennaRNA/grammar.h</text>
</a>
</g>
</g>
<!-- Node6&#45;&gt;Node20 -->
<g id="edge42" class="edge">
<title>Node6&#45;&gt;Node20</title>
<path fill="none" stroke="#191970" d="M765.0882,-246.3845C761.7983,-227.1913 761.3685,-183.786 763.7987,-158.2663"/>
<polygon fill="#191970" stroke="#191970" points="767.2833,-158.6085 765.0655,-148.2484 760.3386,-157.7303 767.2833,-158.6085"/>
</g>
<!-- Node21 -->
<g id="node22" class="node">
<title>Node21</title>
<g id="a_node22"><a xlink:href="structured__domains_8h.html" target="_top" xlink:title="This module provides interfaces that deal with additional structured domains in the folding grammar...">
<polygon fill="none" stroke="#000000" points="846.5,-123.5 846.5,-153.5 961.5,-153.5 961.5,-123.5 846.5,-123.5"/>
<text text-anchor="start" x="854.5" y="-141.5" font-family="Helvetica,sans-Serif" font-size="10.00" fill="#000000">ViennaRNA/structured</text>
<text text-anchor="middle" x="904" y="-130.5" font-family="Helvetica,sans-Serif" font-size="10.00" fill="#000000">_domains.h</text>
</a>
</g>
</g>
<!-- Node6&#45;&gt;Node21 -->
<g id="edge43" class="edge">
<title>Node6&#45;&gt;Node21</title>
<path fill="none" stroke="#191970" d="M780.0476,-246.3845C801.4603,-227.7476 849.1021,-186.2815 878.69,-160.5291"/>
<polygon fill="#191970" stroke="#191970" points="881.2745,-162.9197 886.5197,-153.7143 876.6788,-157.6395 881.2745,-162.9197"/>
</g>
<!-- Node22 -->
<g id="node23" class="node">
<title>Node22</title>
<g id="a_node23"><a xlink:href="unstructured__domains_8h.html" target="_top" xlink:title="Functions to modify unstructured domains, e.g. to incorporate ligands binding to unpaired stretches...">
<polygon fill="none" stroke="#000000" points="1240.5,-123.5 1240.5,-153.5 1365.5,-153.5 1365.5,-123.5 1240.5,-123.5"/>
<text text-anchor="start" x="1248.5" y="-141.5" font-family="Helvetica,sans-Serif" font-size="10.00" fill="#000000">ViennaRNA/unstructured</text>
<text text-anchor="middle" x="1303" y="-130.5" font-family="Helvetica,sans-Serif" font-size="10.00" fill="#000000">_domains.h</text>
</a>
</g>
</g>
<!-- Node6&#45;&gt;Node22 -->
<g id="edge44" class="edge">
<title>Node6&#45;&gt;Node22</title>
<path fill="none" stroke="#191970" d="M842.716,-248.1916C969.4028,-235.3205 1214.8654,-210.9644 1217,-210 1241.0018,-199.156 1262.4216,-177.8023 1278.1521,-161.242"/>
<polygon fill="#191970" stroke="#191970" points="1281.0816,-163.2377 1285.4038,-153.5646 1275.9927,-158.4311 1281.0816,-163.2377"/>
</g>
<!-- Node6&#45;&gt;Node23 -->
<g id="edge45" class="edge">
<title>Node6&#45;&gt;Node23</title>
<path fill="none" stroke="#191970" d="M842.6649,-247.9405C849.5256,-247.2798 856.3821,-246.6259 863,-246 1036.7375,-229.5681 1086.1745,-257.8468 1254,-210 1307.5206,-194.7414 1329.4216,-195.944 1366,-154 1380.1274,-137.8003 1387.1984,-114.1634 1392.2334,-96.3383"/>
<polygon fill="#191970" stroke="#191970" points="1395.6296,-97.191 1395.0006,-86.6149 1388.897,-95.2749 1395.6296,-97.191"/>
</g>
<!-- Node8 -->
<g id="node9" class="node">
<title>Node8</title>
<polygon fill="none" stroke="#bfbfbf" points="45,-.5 45,-19.5 93,-19.5 93,-.5 45,-.5"/>
<text text-anchor="middle" x="69" y="-7.5" font-family="Helvetica,sans-Serif" font-size="10.00" fill="#000000">limits.h</text>
</g>
<!-- Node7&#45;&gt;Node8 -->
<g id="edge8" class="edge">
<title>Node7&#45;&gt;Node8</title>
<path fill="none" stroke="#191970" d="M69,-61.8906C69,-53.3657 69,-40.6392 69,-29.9235"/>
<polygon fill="#191970" stroke="#191970" points="72.5001,-29.7448 69,-19.7449 65.5001,-29.7449 72.5001,-29.7448"/>
</g>
<!-- Node9&#45;&gt;Node10 -->
<g id="edge10" class="edge">
<title>Node9&#45;&gt;Node10</title>
<path fill="none" stroke="#191970" d="M634.6317,-190.4254C595.2958,-175.1437 515.211,-144.7491 446,-123 398.0958,-107.9464 342.624,-93.3686 303.6608,-83.5884"/>
<polygon fill="#191970" stroke="#191970" points="304.1779,-80.1101 293.628,-81.0844 302.4829,-86.9018 304.1779,-80.1101"/>
</g>
<!-- Node9&#45;&gt;Node11 -->
<g id="edge11" class="edge">
<title>Node9&#45;&gt;Node11</title>
<path fill="none" stroke="#191970" d="M585.7272,-191.2566C512.1714,-182.3579 395.6374,-167.9292 295,-154 283.105,-152.3536 270.4504,-150.5184 258.2307,-148.7031"/>
<polygon fill="#191970" stroke="#191970" points="258.5024,-145.2049 248.0947,-147.1875 257.4671,-152.1279 258.5024,-145.2049"/>
</g>
<!-- Node12 -->
<g id="node13" class="node">
<title>Node12</title>
<g id="a_node13"><a xlink:href="sequence_8h.html" target="_top" xlink:title="Functions and data structures related to sequence representations. ">
<polygon fill="none" stroke="#000000" points="570,-129 570,-148 692,-148 692,-129 570,-129"/>
<text text-anchor="middle" x="631" y="-136" font-family="Helvetica,sans-Serif" font-size="10.00" fill="#000000">ViennaRNA/sequence.h</text>
</a>
</g>
</g>
<!-- Node9&#45;&gt;Node12 -->
<g id="edge15" class="edge">
<title>Node9&#45;&gt;Node12</title>
<path fill="none" stroke="#191970" d="M654.625,-190.3906C650.6212,-181.5965 644.5817,-168.3312 639.6115,-157.4145"/>
<polygon fill="#191970" stroke="#191970" points="642.7657,-155.8957 635.4367,-148.2449 636.3949,-158.7963 642.7657,-155.8957"/>
</g>
<!-- Node9&#45;&gt;Node13 -->
<g id="edge16" class="edge">
<title>Node9&#45;&gt;Node13</title>
<path fill="none" stroke="#191970" d="M614.316,-190.4581C563.4475,-179.5956 480.3405,-161.8488 425.6549,-150.1711"/>
<polygon fill="#191970" stroke="#191970" points="426.2993,-146.7299 415.7888,-148.0643 424.8374,-153.5755 426.2993,-146.7299"/>
</g>
<!-- Node9&#45;&gt;Node14 -->
<g id="edge18" class="edge">
<title>Node9&#45;&gt;Node14</title>
<path fill="none" stroke="#191970" d="M724.6296,-190.4581C801.2941,-179.3118 927.8146,-160.917 1007.9321,-149.2687"/>
<polygon fill="#191970" stroke="#191970" points="1008.5574,-152.7147 1017.9497,-147.8123 1007.5502,-145.7875 1008.5574,-152.7147"/>
</g>
<!-- Node9&#45;&gt;Node20 -->
<g id="edge30" class="edge">
<title>Node9&#45;&gt;Node20</title>
<path fill="none" stroke="#191970" d="M676.1875,-190.3906C694.1082,-180.3713 722.4095,-164.5483 743.0523,-153.0071"/>
<polygon fill="#191970" stroke="#191970" points="744.9128,-155.9769 751.9332,-148.0419 741.4967,-149.867 744.9128,-155.9769"/>
</g>
<!-- Node9&#45;&gt;Node21 -->
<g id="edge32" class="edge">
<title>Node9&#45;&gt;Node21</title>
<path fill="none" stroke="#191970" d="M697.0124,-190.4581C734.1243,-181.1423 791.4072,-166.7631 836.3116,-155.4912"/>
<polygon fill="#191970" stroke="#191970" points="837.4265,-158.82 846.2735,-152.9905 835.7222,-152.0306 837.4265,-158.82"/>
</g>
<!-- Node9&#45;&gt;Node22 -->
<g id="edge33" class="edge">
<title>Node9&#45;&gt;Node22</title>
<path fill="none" stroke="#191970" d="M732.1414,-193.4903C828.9201,-184.8141 1004.8215,-168.8275 1155,-154 1179.5209,-151.579 1206.3132,-148.8105 1230.281,-146.2895"/>
<polygon fill="#191970" stroke="#191970" points="1230.7874,-149.7556 1240.3651,-145.226 1230.0532,-142.7942 1230.7874,-149.7556"/>
</g>
<!-- Node11&#45;&gt;Node6 -->
<g id="edge13" class="edge">
<title>Node11&#45;&gt;Node6</title>
<path fill="none" stroke="#191970" d="M207.9303,-148.2198C229.3849,-164.2728 267.9413,-195.9461 307,-210 374.9138,-234.4363 571.4627,-246.998 685.1786,-252.4742"/>
<polygon fill="#191970" stroke="#191970" points="685.0882,-255.9738 695.2426,-252.9508 685.4194,-248.9816 685.0882,-255.9738"/>
</g>
<!-- Node11&#45;&gt;Node7 -->
<g id="edge12" class="edge">
<title>Node11&#45;&gt;Node7</title>
<path fill="none" stroke="#191970" d="M174.3771,-128.9005C153.7349,-117.6564 119.332,-98.9166 95.476,-85.9219"/>
<polygon fill="#191970" stroke="#191970" points="97.0462,-82.7916 86.5902,-81.0817 93.6977,-88.9388 97.0462,-82.7916"/>
</g>
<!-- Node11&#45;&gt;Node10 -->
<g id="edge14" class="edge">
<title>Node11&#45;&gt;Node10</title>
<path fill="none" stroke="#191970" d="M200.8831,-128.9005C210.5514,-118.4525 226.2088,-101.5325 238.0248,-88.7635"/>
<polygon fill="#191970" stroke="#191970" points="240.9103,-90.7985 245.1334,-81.0817 235.7726,-86.0441 240.9103,-90.7985"/>
</g>
<!-- Node13&#45;&gt;Node6 -->
<g id="edge17" class="edge">
<title>Node13&#45;&gt;Node6</title>
<path fill="none" stroke="#191970" d="M384.0363,-148.0707C400.6214,-163.9038 429.1702,-195.2616 461,-210 500.1193,-228.1138 608.124,-241.1591 685.23,-248.6314"/>
<polygon fill="#191970" stroke="#191970" points="685.1324,-252.1379 695.4198,-249.6041 685.7977,-245.1696 685.1324,-252.1379"/>
</g>
<!-- Node14&#45;&gt;Node6 -->
<g id="edge19" class="edge">
<title>Node14&#45;&gt;Node6</title>
<path fill="none" stroke="#191970" d="M1080.083,-148.1595C1070.8555,-163.8327 1043.5003,-194.598 1013,-210 985.6812,-223.7954 912.0549,-236.9381 852.7105,-245.6157"/>
<polygon fill="#191970" stroke="#191970" points="851.9654,-242.1868 842.5662,-247.0761 852.9629,-249.1153 851.9654,-242.1868"/>
</g>
<!-- Node15 -->
<g id="node16" class="node">
<title>Node15</title>
<g id="a_node16"><a xlink:href="constraints__hard_8h.html" target="_top" xlink:title="Functions and data structures for handling of secondary structure hard constraints. ">
<polygon fill="none" stroke="#000000" points="446.5,-56.5 446.5,-86.5 565.5,-86.5 565.5,-56.5 446.5,-56.5"/>
<text text-anchor="start" x="454.5" y="-74.5" font-family="Helvetica,sans-Serif" font-size="10.00" fill="#000000">ViennaRNA/constraints</text>
<text text-anchor="middle" x="506" y="-63.5" font-family="Helvetica,sans-Serif" font-size="10.00" fill="#000000">_hard.h</text>
</a>
</g>
</g>
<!-- Node14&#45;&gt;Node15 -->
<g id="edge20" class="edge">
<title>Node14&#45;&gt;Node15</title>
<path fill="none" stroke="#191970" d="M1017.7693,-129.2146C1002.4544,-127.0882 986.1561,-124.8971 971,-123 830.9264,-105.4669 666.7192,-88.0032 575.7108,-78.596"/>
<polygon fill="#191970" stroke="#191970" points="575.8267,-75.0895 565.5203,-77.5447 575.1083,-82.0525 575.8267,-75.0895"/>
</g>
<!-- Node16 -->
<g id="node17" class="node">
<title>Node16</title>
<g id="a_node17"><a xlink:href="constraints__soft_8h.html" target="_top" xlink:title="Functions and data structures for secondary structure soft constraints. ">
<polygon fill="none" stroke="#000000" points="708.5,-56.5 708.5,-86.5 827.5,-86.5 827.5,-56.5 708.5,-56.5"/>
<text text-anchor="start" x="716.5" y="-74.5" font-family="Helvetica,sans-Serif" font-size="10.00" fill="#000000">ViennaRNA/constraints</text>
<text text-anchor="middle" x="768" y="-63.5" font-family="Helvetica,sans-Serif" font-size="10.00" fill="#000000">_soft.h</text>
</a>
</g>
</g>
<!-- Node14&#45;&gt;Node16 -->
<g id="edge22" class="edge">
<title>Node14&#45;&gt;Node16</title>
<path fill="none" stroke="#191970" d="M1037.3449,-128.9717C985.2191,-117.8493 898.3968,-99.3235 837.4496,-86.3189"/>
<polygon fill="#191970" stroke="#191970" points="838.0321,-82.8644 827.5218,-84.2005 836.5713,-89.7103 838.0321,-82.8644"/>
</g>
<!-- Node17 -->
<g id="node18" class="node">
<title>Node17</title>
<g id="a_node18"><a xlink:href="constraints__SHAPE_8h.html" target="_top" xlink:title="This module provides function to incorporate SHAPE reactivity data into the folding recursions by mea...">
<polygon fill="none" stroke="#000000" points="907.5,-56.5 907.5,-86.5 1026.5,-86.5 1026.5,-56.5 907.5,-56.5"/>
<text text-anchor="start" x="915.5" y="-74.5" font-family="Helvetica,sans-Serif" font-size="10.00" fill="#000000">ViennaRNA/constraints</text>
<text text-anchor="middle" x="967" y="-63.5" font-family="Helvetica,sans-Serif" font-size="10.00" fill="#000000">_SHAPE.h</text>
</a>
</g>
</g>
<!-- Node14&#45;&gt;Node17 -->
<g id="edge24" class="edge">
<title>Node14&#45;&gt;Node17</title>
<path fill="none" stroke="#191970" d="M1065.5233,-128.9005C1048.8943,-119.2123 1022.7138,-103.9593 1001.5193,-91.6113"/>
<polygon fill="#191970" stroke="#191970" points="1003.1861,-88.5317 992.7836,-86.5218 999.6622,-94.58 1003.1861,-88.5317"/>
</g>
<!-- Node18 -->
<g id="node19" class="node">
<title>Node18</title>
<g id="a_node19"><a xlink:href="perturbation__fold_8h.html" target="_top" xlink:title="Find a vector of perturbation energies that minimizes the discripancies between predicted and observe...">
<polygon fill="none" stroke="#000000" points="1045,-56.5 1045,-86.5 1167,-86.5 1167,-56.5 1045,-56.5"/>
<text text-anchor="start" x="1053" y="-74.5" font-family="Helvetica,sans-Serif" font-size="10.00" fill="#000000">ViennaRNA/perturbation</text>
<text text-anchor="middle" x="1106" y="-63.5" font-family="Helvetica,sans-Serif" font-size="10.00" fill="#000000">_fold.h</text>
</a>
</g>
</g>
<!-- Node14&#45;&gt;Node18 -->
<g id="edge26" class="edge">
<title>Node14&#45;&gt;Node18</title>
<path fill="none" stroke="#191970" d="M1085.4386,-128.9005C1088.5062,-120.3368 1093.1313,-107.4252 1097.2184,-96.0152"/>
<polygon fill="#191970" stroke="#191970" points="1100.5417,-97.1163 1100.6191,-86.5218 1093.9518,-94.7557 1100.5417,-97.1163"/>
</g>
<!-- Node19 -->
<g id="node20" class="node">
<title>Node19</title>
<g id="a_node20"><a xlink:href="constraints__ligand_8h.html" target="_top" xlink:title="Functions for incorporation of ligands binding to hairpin and interior loop motifs using the soft con...">
<polygon fill="none" stroke="#000000" points="1185.5,-56.5 1185.5,-86.5 1304.5,-86.5 1304.5,-56.5 1185.5,-56.5"/>
<text text-anchor="start" x="1193.5" y="-74.5" font-family="Helvetica,sans-Serif" font-size="10.00" fill="#000000">ViennaRNA/constraints</text>
<text text-anchor="middle" x="1245" y="-63.5" font-family="Helvetica,sans-Serif" font-size="10.00" fill="#000000">_ligand.h</text>
</a>
</g>
</g>
<!-- Node14&#45;&gt;Node19 -->
<g id="edge28" class="edge">
<title>Node14&#45;&gt;Node19</title>
<path fill="none" stroke="#191970" d="M1105.3539,-128.9005C1129.6603,-118.9096 1168.3642,-103.0006 1198.8676,-90.4624"/>
<polygon fill="#191970" stroke="#191970" points="1200.536,-93.5608 1208.4545,-86.5218 1197.8747,-87.0864 1200.536,-93.5608"/>
</g>
<!-- Node15&#45;&gt;Node6 -->
<g id="edge21" class="edge">
<title>Node15&#45;&gt;Node6</title>
<path fill="none" stroke="#191970" d="M506.9661,-86.6389C509.6468,-115.3071 519.6847,-177.5468 557,-210 576.2821,-226.7697 634.6928,-238.6863 685.3305,-246.1827"/>
<polygon fill="#191970" stroke="#191970" points="684.9439,-249.663 695.3405,-247.6232 685.941,-242.7344 684.9439,-249.663"/>
</g>
<!-- Node16&#45;&gt;Node6 -->
<g id="edge23" class="edge">
<title>Node16&#45;&gt;Node6</title>
<path fill="none" stroke="#191970" d="M708.4002,-78.194C653.8816,-85.6903 579.0462,-99.914 561,-123 536.7874,-153.9746 548.6068,-182.8062 577,-210 593.1385,-225.4568 642.6456,-237.1015 687.3433,-244.8077"/>
<polygon fill="#191970" stroke="#191970" points="686.9451,-248.2897 697.3858,-246.4885 688.1007,-241.3857 686.9451,-248.2897"/>
</g>
<!-- Node17&#45;&gt;Node6 -->
<g id="edge25" class="edge">
<title>Node17&#45;&gt;Node6</title>
<path fill="none" stroke="#191970" d="M972.5684,-86.7701C977.9569,-104.3642 983.6247,-133.4822 971,-154 940.1503,-204.1372 876.2095,-230.5269 828.4844,-243.7919"/>
<polygon fill="#191970" stroke="#191970" points="827.3304,-240.477 818.5642,-246.4272 829.1276,-247.2424 827.3304,-240.477"/>
</g>
<!-- Node18&#45;&gt;Node6 -->
<g id="edge27" class="edge">
<title>Node18&#45;&gt;Node6</title>
<path fill="none" stroke="#191970" d="M1125.6819,-86.5183C1144.9764,-103.1411 1169.533,-130.6692 1155,-154 1123.1241,-205.1725 956.334,-233.8978 852.7024,-247.0537"/>
<polygon fill="#191970" stroke="#191970" points="852.0576,-243.6069 842.5671,-248.3165 852.9231,-250.5532 852.0576,-243.6069"/>
</g>
<!-- Node19&#45;&gt;Node6 -->
<g id="edge29" class="edge">
<title>Node19&#45;&gt;Node6</title>
<path fill="none" stroke="#191970" d="M1234.3,-86.5035C1211.7262,-116.7126 1155.8518,-184.184 1090,-210 1068.2981,-218.5078 940.3265,-235.2601 852.6689,-246.0286"/>
<polygon fill="#191970" stroke="#191970" points="852.2227,-242.557 842.722,-247.2462 853.0732,-249.5052 852.2227,-242.557"/>
</g>
<!-- Node20&#45;&gt;Node6 -->
<g id="edge31" class="edge">
<title>Node20&#45;&gt;Node6</title>
<path fill="none" stroke="#191970" d="M772.9345,-148.2484C776.2112,-167.5527 776.6278,-210.9723 774.1844,-236.4095"/>
<polygon fill="#191970" stroke="#191970" points="770.7056,-236.0219 772.9118,-246.3845 777.6493,-236.9079 770.7056,-236.0219"/>
</g>
<!-- Node22&#45;&gt;Node6 -->
<g id="edge34" class="edge">
<title>Node22&#45;&gt;Node6</title>
<path fill="none" stroke="#191970" d="M1298.3165,-153.5646C1287.3626,-170.5324 1262.9293,-197.3816 1235,-210 1232.8615,-210.9662 986.5057,-235.4095 852.8551,-248.2619"/>
<polygon fill="#191970" stroke="#191970" points="852.265,-244.8024 842.6453,-249.2422 852.9341,-251.7704 852.265,-244.8024"/>
</g>
<!-- Node22&#45;&gt;Node23 -->
<g id="edge35" class="edge">
<title>Node22&#45;&gt;Node23</title>
<path fill="none" stroke="#191970" d="M1325.6915,-123.2967C1339.3722,-114.1306 1356.9874,-102.3285 1371.947,-92.3055"/>
<polygon fill="#191970" stroke="#191970" points="1374.0387,-95.1171 1380.3983,-86.6432 1370.1424,-89.3017 1374.0387,-95.1171"/>
</g>
<!-- Node23&#45;&gt;Node4 -->
<g id="edge36" class="edge">
<title>Node23&#45;&gt;Node4</title>
<path fill="none" stroke="#191970" d="M1413.382,-56.2977C1419.1513,-47.8498 1426.3716,-37.2773 1432.4553,-28.369"/>
<polygon fill="#191970" stroke="#191970" points="1435.5259,-30.0788 1438.2753,-19.8469 1429.7453,-26.1311 1435.5259,-30.0788"/>
</g>
<!-- Node23&#45;&gt;Node6 -->
<g id="edge37" class="edge">
<title>Node23&#45;&gt;Node6</title>
<path fill="none" stroke="#191970" d="M1407.7295,-86.6149C1407.7022,-104.5989 1400.9001,-134.6209 1384,-154 1347.4216,-195.944 1325.5206,-194.7414 1272,-210 1104.1745,-257.8468 1054.7375,-229.5681 881,-246 871.8403,-246.8663 862.2235,-247.7862 852.627,-248.7036"/>
<polygon fill="#191970" stroke="#191970" points="852.2756,-245.2211 842.6538,-249.6563 852.9413,-252.1894 852.2756,-245.2211"/>
</g>
<!-- Node24&#45;&gt;Node5 -->
<g id="edge47" class="edge">
<title>Node24&#45;&gt;Node5</title>
<path fill="none" stroke="#191970" d="M850.0189,-302.2455C860.2098,-293.9746 875.0362,-281.9416 887.0107,-272.2232"/>
<polygon fill="#191970" stroke="#191970" points="889.5598,-274.662 895.1188,-265.6427 885.1486,-269.2268 889.5598,-274.662"/>
</g>
<!-- Node24&#45;&gt;Node6 -->
<g id="edge48" class="edge">
<title>Node24&#45;&gt;Node6</title>
<path fill="none" stroke="#191970" d="M825.9811,-302.2455C815.7902,-293.9746 800.9638,-281.9416 788.9893,-272.2232"/>
<polygon fill="#191970" stroke="#191970" points="790.8514,-269.2268 780.8812,-265.6427 786.4402,-274.662 790.8514,-269.2268"/>
</g>
<!-- Node26&#45;&gt;Node10 -->
<g id="edge52" class="edge">
<title>Node26&#45;&gt;Node10</title>
<path fill="none" stroke="#191970" d="M127.7681,-190.005C121.8371,-174.2779 113.2295,-143.4438 127,-123 141.5446,-101.407 166.8586,-88.8641 191.0782,-81.5798"/>
<polygon fill="#191970" stroke="#191970" points="192.2782,-84.8799 200.9956,-78.8584 190.4259,-78.1294 192.2782,-84.8799"/>
</g>
</g>
</svg>
