<?xml version="1.0" encoding="UTF-8" standalone="no"?>
<!DOCTYPE svg PUBLIC "-//W3C//DTD SVG 1.1//EN"
 "http://www.w3.org/Graphics/SVG/1.1/DTD/svg11.dtd">
<!-- Generated by graphviz version 2.40.1 (20161225.0304)
 -->
<!-- Title: ViennaRNA/interior_loops.h Pages: 1 -->
<svg width="1488pt" height="453pt"
 viewBox="0.00 0.00 1488.30 453.00" xmlns="http://www.w3.org/2000/svg" xmlns:xlink="http://www.w3.org/1999/xlink">
<g id="graph0" class="graph" transform="scale(1 1) rotate(0) translate(4 449)">
<title>ViennaRNA/interior_loops.h</title>
<!-- Node0 -->
<g id="node1" class="node">
<title>Node0</title>
<polygon fill="#bfbfbf" stroke="#000000" points="622.7988,-414.5 622.7988,-444.5 723.7988,-444.5 723.7988,-414.5 622.7988,-414.5"/>
<text text-anchor="start" x="630.7988" y="-432.5" font-family="Helvetica,sans-Serif" font-size="10.00" fill="#000000">ViennaRNA/interior</text>
<text text-anchor="middle" x="673.2988" y="-421.5" font-family="Helvetica,sans-Serif" font-size="10.00" fill="#000000">_loops.h</text>
</g>
<!-- Node1 -->
<g id="node2" class="node">
<title>Node1</title>
<g id="a_node2"><a xlink:href="utils_8h.html" target="_top" xlink:title="General utility&#45; and helper&#45;functions used throughout the ViennaRNA Package. ">
<polygon fill="none" stroke="#000000" points="624.2988,-358.5 624.2988,-377.5 722.2988,-377.5 722.2988,-358.5 624.2988,-358.5"/>
<text text-anchor="middle" x="673.2988" y="-365.5" font-family="Helvetica,sans-Serif" font-size="10.00" fill="#000000">ViennaRNA/utils.h</text>
</a>
</g>
</g>
<!-- Node0&#45;&gt;Node1 -->
<g id="edge1" class="edge">
<title>Node0&#45;&gt;Node1</title>
<path fill="none" stroke="#191970" d="M673.2988,-414.2977C673.2988,-406.3834 673.2988,-396.6043 673.2988,-388.0759"/>
<polygon fill="#191970" stroke="#191970" points="676.7989,-387.8469 673.2988,-377.8469 669.7989,-387.847 676.7989,-387.8469"/>
</g>
<!-- Node4 -->
<g id="node5" class="node">
<title>Node4</title>
<g id="a_node5"><a xlink:href="data__structures_8h.html" target="_top" xlink:title="Various data structures and pre&#45;processor macros. ">
<polygon fill="none" stroke="#000000" points="825.7988,-246.5 825.7988,-265.5 972.7988,-265.5 972.7988,-246.5 825.7988,-246.5"/>
<text text-anchor="middle" x="899.2988" y="-253.5" font-family="Helvetica,sans-Serif" font-size="10.00" fill="#000000">ViennaRNA/data_structures.h</text>
</a>
</g>
</g>
<!-- Node0&#45;&gt;Node4 -->
<g id="edge53" class="edge">
<title>Node0&#45;&gt;Node4</title>
<path fill="none" stroke="#191970" d="M723.8781,-421.5575C778.1386,-410.0437 861.7046,-382.9802 900.2988,-322 908.9064,-308.3996 907.768,-289.856 904.9867,-275.8873"/>
<polygon fill="#191970" stroke="#191970" points="908.3113,-274.7444 902.5588,-265.8472 901.5074,-276.3897 908.3113,-274.7444"/>
</g>
<!-- Node9 -->
<g id="node10" class="node">
<title>Node9</title>
<g id="a_node10"><a xlink:href="params_8h.html" target="_top" xlink:title="Functions to deal with sets of energy parameters. ">
<polygon fill="none" stroke="#000000" points="158.2988,-129 158.2988,-148 270.2988,-148 270.2988,-129 158.2988,-129"/>
<text text-anchor="middle" x="214.2988" y="-136" font-family="Helvetica,sans-Serif" font-size="10.00" fill="#000000">ViennaRNA/params.h</text>
</a>
</g>
</g>
<!-- Node0&#45;&gt;Node9 -->
<g id="edge54" class="edge">
<title>Node0&#45;&gt;Node9</title>
<path fill="none" stroke="#191970" d="M622.7371,-425.6616C513.3089,-415.9629 264.2988,-385.7867 264.2988,-312 264.2988,-312 264.2988,-312 264.2988,-256 264.2988,-218.3674 242.3146,-178.9793 227.5011,-156.7103"/>
<polygon fill="#191970" stroke="#191970" points="230.2368,-154.5122 221.6764,-148.2695 224.4754,-158.488 230.2368,-154.5122"/>
</g>
<!-- Node12 -->
<g id="node13" class="node">
<title>Node12</title>
<g id="a_node13"><a xlink:href="constraints_8h.html" target="_top" xlink:title="Functions and data structures for constraining secondary structure predictions and evaluation...">
<polygon fill="none" stroke="#000000" points="1002.2988,-129 1002.2988,-148 1130.2988,-148 1130.2988,-129 1002.2988,-129"/>
<text text-anchor="middle" x="1066.2988" y="-136" font-family="Helvetica,sans-Serif" font-size="10.00" fill="#000000">ViennaRNA/constraints.h</text>
</a>
</g>
</g>
<!-- Node0&#45;&gt;Node12 -->
<g id="edge55" class="edge">
<title>Node0&#45;&gt;Node12</title>
<path fill="none" stroke="#191970" d="M723.8194,-427.0469C893.7855,-418.1302 1434.2988,-384.1056 1434.2988,-312 1434.2988,-312 1434.2988,-312 1434.2988,-256 1434.2988,-194.9275 1248.0442,-161.2822 1140.5476,-146.9497"/>
<polygon fill="#191970" stroke="#191970" points="1140.7689,-143.4489 1130.3995,-145.6227 1139.8612,-150.3899 1140.7689,-143.4489"/>
</g>
<!-- Node25 -->
<g id="node26" class="node">
<title>Node25</title>
<g id="a_node26"><a xlink:href="energy__par_8h_source.html" target="_top" xlink:title="ViennaRNA/energy_par.h">
<polygon fill="none" stroke="#000000" points="30.2988,-358.5 30.2988,-377.5 158.2988,-377.5 158.2988,-358.5 30.2988,-358.5"/>
<text text-anchor="middle" x="94.2988" y="-365.5" font-family="Helvetica,sans-Serif" font-size="10.00" fill="#000000">ViennaRNA/energy_par.h</text>
</a>
</g>
</g>
<!-- Node0&#45;&gt;Node25 -->
<g id="edge51" class="edge">
<title>Node0&#45;&gt;Node25</title>
<path fill="none" stroke="#191970" d="M622.6768,-424.1231C520.2669,-413.2453 288.1097,-388.5861 168.5406,-375.8858"/>
<polygon fill="#191970" stroke="#191970" points="168.6925,-372.3823 158.3787,-374.8064 167.9531,-379.3432 168.6925,-372.3823"/>
</g>
<!-- Node2 -->
<g id="node3" class="node">
<title>Node2</title>
<polygon fill="none" stroke="#bfbfbf" points="778.2988,-.5 778.2988,-19.5 824.2988,-19.5 824.2988,-.5 778.2988,-.5"/>
<text text-anchor="middle" x="801.2988" y="-7.5" font-family="Helvetica,sans-Serif" font-size="10.00" fill="#000000">stdio.h</text>
</g>
<!-- Node1&#45;&gt;Node2 -->
<g id="edge2" class="edge">
<title>Node1&#45;&gt;Node2</title>
<path fill="none" stroke="#191970" d="M624.0431,-362.4649C445.2816,-340.6463 -149.2982,-252.015 35.2988,-56 60.778,-28.9448 623.9408,-14.103 767.9848,-10.7409"/>
<polygon fill="#191970" stroke="#191970" points="768.0799,-14.2397 777.9965,-10.51 767.9185,-7.2415 768.0799,-14.2397"/>
</g>
<!-- Node3 -->
<g id="node4" class="node">
<title>Node3</title>
<polygon fill="none" stroke="#bfbfbf" points="601.2988,-246.5 601.2988,-265.5 653.2988,-265.5 653.2988,-246.5 601.2988,-246.5"/>
<text text-anchor="middle" x="627.2988" y="-253.5" font-family="Helvetica,sans-Serif" font-size="10.00" fill="#000000">stdarg.h</text>
</g>
<!-- Node1&#45;&gt;Node3 -->
<g id="edge3" class="edge">
<title>Node1&#45;&gt;Node3</title>
<path fill="none" stroke="#191970" d="M645.6029,-358.4275C629.2524,-351.1781 609.9248,-339.4435 600.2988,-322 591.663,-306.3509 601.3553,-287.3612 611.4495,-273.7761"/>
<polygon fill="#191970" stroke="#191970" points="614.3956,-275.6987 617.9523,-265.7187 608.9483,-271.3024 614.3956,-275.6987"/>
</g>
<!-- Node1&#45;&gt;Node4 -->
<g id="edge4" class="edge">
<title>Node1&#45;&gt;Node4</title>
<path fill="none" stroke="#191970" d="M722.3568,-362.8805C776.1502,-356.2949 857.836,-343.1194 880.2988,-322 892.8978,-310.1545 897.3195,-290.5476 898.7856,-275.7753"/>
<polygon fill="#191970" stroke="#191970" points="902.289,-275.828 899.4171,-265.6299 895.3025,-275.3931 902.289,-275.828"/>
</g>
<!-- Node21 -->
<g id="node22" class="node">
<title>Node21</title>
<g id="a_node22"><a xlink:href="structure__utils_8h.html" target="_top" xlink:title="Various utility&#45; and helper&#45;functions for secondary structure parsing, converting, etc. ">
<polygon fill="none" stroke="#000000" points="1370.2988,-56.5 1370.2988,-86.5 1480.2988,-86.5 1480.2988,-56.5 1370.2988,-56.5"/>
<text text-anchor="start" x="1378.2988" y="-74.5" font-family="Helvetica,sans-Serif" font-size="10.00" fill="#000000">ViennaRNA/structure</text>
<text text-anchor="middle" x="1425.2988" y="-63.5" font-family="Helvetica,sans-Serif" font-size="10.00" fill="#000000">_utils.h</text>
</a>
</g>
</g>
<!-- Node1&#45;&gt;Node21 -->
<g id="edge47" class="edge">
<title>Node1&#45;&gt;Node21</title>
<path fill="none" stroke="#191970" d="M722.4495,-362.3435C835.4808,-348.074 1121.0087,-304.7869 1340.2988,-210 1382.8524,-191.6064 1405.9905,-194.6384 1428.2988,-154 1437.894,-136.5205 1436.174,-113.6737 1432.6036,-96.4559"/>
<polygon fill="#191970" stroke="#191970" points="1435.9656,-95.4666 1430.2259,-86.5611 1429.1593,-97.1021 1435.9656,-95.4666"/>
</g>
<!-- Node22 -->
<g id="node23" class="node">
<title>Node22</title>
<g id="a_node23"><a xlink:href="string__utils_8h.html" target="_top" xlink:title="General utility&#45; and helper&#45;functions for RNA sequence and structure strings used throughout the Vien...">
<polygon fill="none" stroke="#000000" points="609.7988,-302.5 609.7988,-321.5 736.7988,-321.5 736.7988,-302.5 609.7988,-302.5"/>
<text text-anchor="middle" x="673.2988" y="-309.5" font-family="Helvetica,sans-Serif" font-size="10.00" fill="#000000">ViennaRNA/string_utils.h</text>
</a>
</g>
</g>
<!-- Node1&#45;&gt;Node22 -->
<g id="edge44" class="edge">
<title>Node1&#45;&gt;Node22</title>
<path fill="none" stroke="#191970" d="M673.2988,-358.2455C673.2988,-350.9382 673.2988,-340.6944 673.2988,-331.7046"/>
<polygon fill="#191970" stroke="#191970" points="676.7989,-331.6426 673.2988,-321.6427 669.7989,-331.6427 676.7989,-331.6426"/>
</g>
<!-- Node23 -->
<g id="node24" class="node">
<title>Node23</title>
<g id="a_node24"><a xlink:href="file__utils_8h.html" target="_top" xlink:title="Several utilities for file handling. ">
<polygon fill="none" stroke="#000000" points="755.2988,-302.5 755.2988,-321.5 871.2988,-321.5 871.2988,-302.5 755.2988,-302.5"/>
<text text-anchor="middle" x="813.2988" y="-309.5" font-family="Helvetica,sans-Serif" font-size="10.00" fill="#000000">ViennaRNA/file_utils.h</text>
</a>
</g>
</g>
<!-- Node1&#45;&gt;Node23 -->
<g id="edge48" class="edge">
<title>Node1&#45;&gt;Node23</title>
<path fill="none" stroke="#191970" d="M697.3656,-358.3733C720.1416,-349.2629 754.5332,-335.5062 779.9478,-325.3404"/>
<polygon fill="#191970" stroke="#191970" points="781.5611,-328.4648 789.546,-321.5011 778.9613,-321.9654 781.5611,-328.4648"/>
</g>
<!-- Node24 -->
<g id="node25" class="node">
<title>Node24</title>
<g id="a_node25"><a xlink:href="alphabet_8h.html" target="_top" xlink:title="Functions to process, convert, and generally handle different nucleotide and/or base pair alphabets...">
<polygon fill="none" stroke="#000000" points="120.2988,-190.5 120.2988,-209.5 236.2988,-209.5 236.2988,-190.5 120.2988,-190.5"/>
<text text-anchor="middle" x="178.2988" y="-197.5" font-family="Helvetica,sans-Serif" font-size="10.00" fill="#000000">ViennaRNA/alphabet.h</text>
</a>
</g>
</g>
<!-- Node1&#45;&gt;Node24 -->
<g id="edge49" class="edge">
<title>Node1&#45;&gt;Node24</title>
<path fill="none" stroke="#191970" d="M645.2671,-358.4862C561.2184,-329.9606 311.2504,-245.123 215.8613,-212.7485"/>
<polygon fill="#191970" stroke="#191970" points="216.9233,-209.4129 206.329,-209.5133 214.6736,-216.0416 216.9233,-209.4129"/>
</g>
<!-- Node5 -->
<g id="node6" class="node">
<title>Node5</title>
<g id="a_node6"><a xlink:href="energy__const_8h.html" target="_top" xlink:title="Energy parameter constants. ">
<polygon fill="none" stroke="#000000" points="44.2988,-62 44.2988,-81 182.2988,-81 182.2988,-62 44.2988,-62"/>
<text text-anchor="middle" x="113.2988" y="-69" font-family="Helvetica,sans-Serif" font-size="10.00" fill="#000000">ViennaRNA/energy_const.h</text>
</a>
</g>
</g>
<!-- Node4&#45;&gt;Node5 -->
<g id="edge5" class="edge">
<title>Node4&#45;&gt;Node5</title>
<path fill="none" stroke="#191970" d="M825.4703,-252.3509C630.6953,-242.639 117.3927,-216.46 111.2988,-210 81.024,-177.9063 95.1708,-120.6774 105.6173,-90.8248"/>
<polygon fill="#191970" stroke="#191970" points="109.0054,-91.7553 109.2095,-81.1624 102.4442,-89.3159 109.0054,-91.7553"/>
</g>
<!-- Node7 -->
<g id="node8" class="node">
<title>Node7</title>
<g id="a_node8"><a xlink:href="fold__compound_8h.html" target="_top" xlink:title="The Basic Fold Compound API. ">
<polygon fill="none" stroke="#000000" points="669.2988,-190.5 669.2988,-209.5 815.2988,-209.5 815.2988,-190.5 669.2988,-190.5"/>
<text text-anchor="middle" x="742.2988" y="-197.5" font-family="Helvetica,sans-Serif" font-size="10.00" fill="#000000">ViennaRNA/fold_compound.h</text>
</a>
</g>
</g>
<!-- Node4&#45;&gt;Node7 -->
<g id="edge7" class="edge">
<title>Node4&#45;&gt;Node7</title>
<path fill="none" stroke="#191970" d="M872.3095,-246.3733C846.4288,-237.1419 807.174,-223.1402 778.5699,-212.9375"/>
<polygon fill="#191970" stroke="#191970" points="779.5305,-209.5642 768.9358,-209.5011 777.1787,-216.1573 779.5305,-209.5642"/>
</g>
<!-- Node8 -->
<g id="node9" class="node">
<title>Node8</title>
<g id="a_node9"><a xlink:href="model_8h.html" target="_top" xlink:title="The model details data structure and its corresponding modifiers. ">
<polygon fill="none" stroke="#000000" points="324.2988,-62 324.2988,-81 430.2988,-81 430.2988,-62 324.2988,-62"/>
<text text-anchor="middle" x="377.2988" y="-69" font-family="Helvetica,sans-Serif" font-size="10.00" fill="#000000">ViennaRNA/model.h</text>
</a>
</g>
</g>
<!-- Node4&#45;&gt;Node8 -->
<g id="edge36" class="edge">
<title>Node4&#45;&gt;Node8</title>
<path fill="none" stroke="#191970" d="M825.6162,-248.391C749.525,-239.9045 636.2929,-225.3406 595.2988,-210 514.8202,-179.8838 432.6697,-117.2447 396.4484,-87.6511"/>
<polygon fill="#191970" stroke="#191970" points="398.5853,-84.8765 388.6471,-81.2046 394.1263,-90.2726 398.5853,-84.8765"/>
</g>
<!-- Node4&#45;&gt;Node9 -->
<g id="edge37" class="edge">
<title>Node4&#45;&gt;Node9</title>
<path fill="none" stroke="#191970" d="M825.5263,-251.9691C705.3325,-244.7121 472.9642,-228.4733 393.2988,-210 335.4019,-196.5745 271.391,-169.3967 237.6317,-152.687"/>
<polygon fill="#191970" stroke="#191970" points="239.0535,-149.4835 228.5536,-148.068 235.879,-155.7223 239.0535,-149.4835"/>
</g>
<!-- Node11 -->
<g id="node12" class="node">
<title>Node11</title>
<g id="a_node12"><a xlink:href="dp__matrices_8h.html" target="_top" xlink:title="Functions to deal with standard dynamic programming (DP) matrices. ">
<polygon fill="none" stroke="#000000" points="288.7988,-129 288.7988,-148 421.7988,-148 421.7988,-129 288.7988,-129"/>
<text text-anchor="middle" x="355.2988" y="-136" font-family="Helvetica,sans-Serif" font-size="10.00" fill="#000000">ViennaRNA/dp_matrices.h</text>
</a>
</g>
</g>
<!-- Node4&#45;&gt;Node11 -->
<g id="edge38" class="edge">
<title>Node4&#45;&gt;Node11</title>
<path fill="none" stroke="#191970" d="M825.661,-254.3399C711.095,-250.7866 496.4404,-240.142 427.2988,-210 400.169,-198.1729 375.712,-173.7642 363.0459,-156.7756"/>
<polygon fill="#191970" stroke="#191970" points="365.7739,-154.5609 357.2802,-148.2278 359.9707,-158.4754 365.7739,-154.5609"/>
</g>
<!-- Node4&#45;&gt;Node12 -->
<g id="edge39" class="edge">
<title>Node4&#45;&gt;Node12</title>
<path fill="none" stroke="#191970" d="M914.5837,-246.3846C931.3859,-237.9846 958.0494,-224.8356 979.2988,-210 1002.8573,-193.5522 1026.7445,-170.5133 1043.8175,-155.0766"/>
<polygon fill="#191970" stroke="#191970" points="1046.451,-157.4198 1051.6201,-148.1714 1041.8119,-152.1777 1046.451,-157.4198"/>
</g>
<!-- Node18 -->
<g id="node19" class="node">
<title>Node18</title>
<g id="a_node19"><a xlink:href="grammar_8h.html" target="_top" xlink:title="Implementations for the RNA folding grammar. ">
<polygon fill="none" stroke="#000000" points="694.2988,-129 694.2988,-148 812.2988,-148 812.2988,-129 694.2988,-129"/>
<text text-anchor="middle" x="753.2988" y="-136" font-family="Helvetica,sans-Serif" font-size="10.00" fill="#000000">ViennaRNA/grammar.h</text>
</a>
</g>
</g>
<!-- Node4&#45;&gt;Node18 -->
<g id="edge40" class="edge">
<title>Node4&#45;&gt;Node18</title>
<path fill="none" stroke="#191970" d="M882.8127,-246.2782C865.6479,-233.1118 839.1387,-209.0663 815.2988,-190 799.839,-177.6358 781.7715,-164.5485 768.91,-154.6609"/>
<polygon fill="#191970" stroke="#191970" points="770.9543,-151.8157 760.9337,-148.3751 766.6215,-157.3137 770.9543,-151.8157"/>
</g>
<!-- Node19 -->
<g id="node20" class="node">
<title>Node19</title>
<g id="a_node20"><a xlink:href="structured__domains_8h.html" target="_top" xlink:title="This module provides interfaces that deal with additional structured domains in the folding grammar...">
<polygon fill="none" stroke="#000000" points="830.7988,-123.5 830.7988,-153.5 945.7988,-153.5 945.7988,-123.5 830.7988,-123.5"/>
<text text-anchor="start" x="838.7988" y="-141.5" font-family="Helvetica,sans-Serif" font-size="10.00" fill="#000000">ViennaRNA/structured</text>
<text text-anchor="middle" x="888.2988" y="-130.5" font-family="Helvetica,sans-Serif" font-size="10.00" fill="#000000">_domains.h</text>
</a>
</g>
</g>
<!-- Node4&#45;&gt;Node19 -->
<g id="edge41" class="edge">
<title>Node4&#45;&gt;Node19</title>
<path fill="none" stroke="#191970" d="M898.3986,-246.3845C896.7284,-228.544 893.0998,-189.7839 890.6779,-163.9138"/>
<polygon fill="#191970" stroke="#191970" points="894.14,-163.3445 889.7231,-153.7143 887.1705,-163.997 894.14,-163.3445"/>
</g>
<!-- Node20 -->
<g id="node21" class="node">
<title>Node20</title>
<g id="a_node21"><a xlink:href="unstructured__domains_8h.html" target="_top" xlink:title="Functions to modify unstructured domains, e.g. to incorporate ligands binding to unpaired stretches...">
<polygon fill="none" stroke="#000000" points="1262.7988,-123.5 1262.7988,-153.5 1387.7988,-153.5 1387.7988,-123.5 1262.7988,-123.5"/>
<text text-anchor="start" x="1270.7988" y="-141.5" font-family="Helvetica,sans-Serif" font-size="10.00" fill="#000000">ViennaRNA/unstructured</text>
<text text-anchor="middle" x="1325.2988" y="-130.5" font-family="Helvetica,sans-Serif" font-size="10.00" fill="#000000">_domains.h</text>
</a>
</g>
</g>
<!-- Node4&#45;&gt;Node20 -->
<g id="edge42" class="edge">
<title>Node4&#45;&gt;Node20</title>
<path fill="none" stroke="#191970" d="M972.8867,-251.0916C1058.2714,-244.7182 1193.0535,-231.7552 1239.2988,-210 1262.9892,-198.8553 1284.3172,-177.7351 1300.0718,-161.3267"/>
<polygon fill="#191970" stroke="#191970" points="1302.967,-163.3629 1307.3441,-153.7145 1297.9055,-158.5274 1302.967,-163.3629"/>
</g>
<!-- Node4&#45;&gt;Node21 -->
<g id="edge43" class="edge">
<title>Node4&#45;&gt;Node21</title>
<path fill="none" stroke="#191970" d="M972.881,-249.738C1066.0171,-241.6542 1220.7821,-226.6352 1276.2988,-210 1329.6101,-194.0256 1351.7203,-195.944 1388.2988,-154 1402.4262,-137.8003 1409.4972,-114.1634 1414.5322,-96.3383"/>
<polygon fill="#191970" stroke="#191970" points="1417.9284,-97.191 1417.2994,-86.6149 1411.1957,-95.2749 1417.9284,-97.191"/>
</g>
<!-- Node6 -->
<g id="node7" class="node">
<title>Node6</title>
<polygon fill="none" stroke="#bfbfbf" points="89.2988,-.5 89.2988,-19.5 137.2988,-19.5 137.2988,-.5 89.2988,-.5"/>
<text text-anchor="middle" x="113.2988" y="-7.5" font-family="Helvetica,sans-Serif" font-size="10.00" fill="#000000">limits.h</text>
</g>
<!-- Node5&#45;&gt;Node6 -->
<g id="edge6" class="edge">
<title>Node5&#45;&gt;Node6</title>
<path fill="none" stroke="#191970" d="M113.2988,-61.8906C113.2988,-53.3657 113.2988,-40.6392 113.2988,-29.9235"/>
<polygon fill="#191970" stroke="#191970" points="116.7989,-29.7448 113.2988,-19.7449 109.7989,-29.7449 116.7989,-29.7448"/>
</g>
<!-- Node7&#45;&gt;Node8 -->
<g id="edge8" class="edge">
<title>Node7&#45;&gt;Node8</title>
<path fill="none" stroke="#191970" d="M686.5607,-190.491C646.5715,-182.828 591.771,-170.5926 545.2988,-154 492.658,-135.2049 434.9062,-104.4183 402.6803,-86.242"/>
<polygon fill="#191970" stroke="#191970" points="404.3349,-83.1565 393.9127,-81.2516 400.8722,-89.2401 404.3349,-83.1565"/>
</g>
<!-- Node7&#45;&gt;Node9 -->
<g id="edge9" class="edge">
<title>Node7&#45;&gt;Node9</title>
<path fill="none" stroke="#191970" d="M668.9201,-195.7802C577.2793,-189.8067 415.9154,-176.9674 279.2988,-154 273.1423,-152.965 266.702,-151.6802 260.3692,-150.2965"/>
<polygon fill="#191970" stroke="#191970" points="261.09,-146.8711 250.5623,-148.0621 259.5349,-153.6962 261.09,-146.8711"/>
</g>
<!-- Node10 -->
<g id="node11" class="node">
<title>Node10</title>
<g id="a_node11"><a xlink:href="sequence_8h.html" target="_top" xlink:title="Functions and data structures related to sequence representations. ">
<polygon fill="none" stroke="#000000" points="554.2988,-129 554.2988,-148 676.2988,-148 676.2988,-129 554.2988,-129"/>
<text text-anchor="middle" x="615.2988" y="-136" font-family="Helvetica,sans-Serif" font-size="10.00" fill="#000000">ViennaRNA/sequence.h</text>
</a>
</g>
</g>
<!-- Node7&#45;&gt;Node10 -->
<g id="edge13" class="edge">
<title>Node7&#45;&gt;Node10</title>
<path fill="none" stroke="#191970" d="M722.455,-190.3906C701.4852,-180.2359 668.2043,-164.1196 644.2952,-152.5416"/>
<polygon fill="#191970" stroke="#191970" points="645.5289,-149.2502 635.0032,-148.0419 642.478,-155.5504 645.5289,-149.2502"/>
</g>
<!-- Node7&#45;&gt;Node11 -->
<g id="edge14" class="edge">
<title>Node7&#45;&gt;Node11</title>
<path fill="none" stroke="#191970" d="M682.2546,-190.4581C612.806,-179.4217 498.6391,-161.2789 425.2424,-149.6151"/>
<polygon fill="#191970" stroke="#191970" points="425.5907,-146.1266 415.1653,-148.0137 424.4921,-153.0398 425.5907,-146.1266"/>
</g>
<!-- Node7&#45;&gt;Node12 -->
<g id="edge16" class="edge">
<title>Node7&#45;&gt;Node12</title>
<path fill="none" stroke="#191970" d="M792.5683,-190.4581C850.2357,-179.512 944.7317,-161.5752 1006.2265,-149.9026"/>
<polygon fill="#191970" stroke="#191970" points="1007.0061,-153.3172 1016.1779,-148.0137 1005.7006,-146.44 1007.0061,-153.3172"/>
</g>
<!-- Node7&#45;&gt;Node18 -->
<g id="edge28" class="edge">
<title>Node7&#45;&gt;Node18</title>
<path fill="none" stroke="#191970" d="M744.0175,-190.3906C745.5423,-181.8657 747.8186,-169.1392 749.7352,-158.4235"/>
<polygon fill="#191970" stroke="#191970" points="753.2403,-158.7049 751.5558,-148.2449 746.3497,-157.4724 753.2403,-158.7049"/>
</g>
<!-- Node7&#45;&gt;Node19 -->
<g id="edge30" class="edge">
<title>Node7&#45;&gt;Node19</title>
<path fill="none" stroke="#191970" d="M765.1113,-190.3906C785.9683,-181.6049 817.4194,-168.3567 843.3213,-157.446"/>
<polygon fill="#191970" stroke="#191970" points="844.7261,-160.6522 852.5831,-153.5446 842.0087,-154.2011 844.7261,-160.6522"/>
</g>
<!-- Node7&#45;&gt;Node20 -->
<g id="edge31" class="edge">
<title>Node7&#45;&gt;Node20</title>
<path fill="none" stroke="#191970" d="M815.5458,-192.2733C927.6475,-180.4478 1140.5126,-157.9929 1252.4032,-146.1897"/>
<polygon fill="#191970" stroke="#191970" points="1253.0034,-149.6459 1262.5811,-145.116 1252.269,-142.6845 1253.0034,-149.6459"/>
</g>
<!-- Node9&#45;&gt;Node4 -->
<g id="edge11" class="edge">
<title>Node9&#45;&gt;Node4</title>
<path fill="none" stroke="#191970" d="M239.5378,-148.068C276.694,-163.8971 347.6868,-195.2493 411.2988,-210 486.3499,-227.4033 696.9267,-242.8235 815.5313,-250.619"/>
<polygon fill="#191970" stroke="#191970" points="815.4547,-254.1214 825.6617,-251.281 815.9113,-247.1363 815.4547,-254.1214"/>
</g>
<!-- Node9&#45;&gt;Node5 -->
<g id="edge10" class="edge">
<title>Node9&#45;&gt;Node5</title>
<path fill="none" stroke="#191970" d="M199.8279,-128.9005C183.1778,-117.8554 155.6247,-99.5776 136.0874,-86.6172"/>
<polygon fill="#191970" stroke="#191970" points="138.0107,-83.693 127.7428,-81.0817 134.1411,-89.5263 138.0107,-83.693"/>
</g>
<!-- Node9&#45;&gt;Node8 -->
<g id="edge12" class="edge">
<title>Node9&#45;&gt;Node8</title>
<path fill="none" stroke="#191970" d="M237.6527,-128.9005C265.734,-117.3579 313.0322,-97.9163 344.7005,-84.8993"/>
<polygon fill="#191970" stroke="#191970" points="346.0697,-88.1207 353.9882,-81.0817 343.4084,-81.6463 346.0697,-88.1207"/>
</g>
<!-- Node11&#45;&gt;Node4 -->
<g id="edge15" class="edge">
<title>Node11&#45;&gt;Node4</title>
<path fill="none" stroke="#191970" d="M368.2644,-148.2278C384.7455,-164.2925 413.1449,-195.9827 445.2988,-210 510.1033,-238.2513 702.7381,-249.3745 815.2273,-253.5844"/>
<polygon fill="#191970" stroke="#191970" points="815.4013,-257.093 825.5219,-253.9588 815.6557,-250.0976 815.4013,-257.093"/>
</g>
<!-- Node12&#45;&gt;Node4 -->
<g id="edge17" class="edge">
<title>Node12&#45;&gt;Node4</title>
<path fill="none" stroke="#191970" d="M1063.1521,-148.1714C1052.571,-162.7967 1024.7124,-190.8608 997.2988,-210 979.2036,-222.6334 957.1823,-234.0438 938.4762,-242.3401"/>
<polygon fill="#191970" stroke="#191970" points="936.8486,-239.2297 929.0346,-246.3846 939.605,-245.6641 936.8486,-239.2297"/>
</g>
<!-- Node13 -->
<g id="node14" class="node">
<title>Node13</title>
<g id="a_node14"><a xlink:href="constraints__hard_8h.html" target="_top" xlink:title="Functions and data structures for handling of secondary structure hard constraints. ">
<polygon fill="none" stroke="#000000" points="500.7988,-56.5 500.7988,-86.5 619.7988,-86.5 619.7988,-56.5 500.7988,-56.5"/>
<text text-anchor="start" x="508.7988" y="-74.5" font-family="Helvetica,sans-Serif" font-size="10.00" fill="#000000">ViennaRNA/constraints</text>
<text text-anchor="middle" x="560.2988" y="-63.5" font-family="Helvetica,sans-Serif" font-size="10.00" fill="#000000">_hard.h</text>
</a>
</g>
</g>
<!-- Node12&#45;&gt;Node13 -->
<g id="edge18" class="edge">
<title>Node12&#45;&gt;Node13</title>
<path fill="none" stroke="#191970" d="M1002.0406,-129.4259C986.7268,-127.2913 970.4358,-125.0436 955.2988,-123 841.4998,-107.6364 709.1478,-90.5368 630.1853,-80.4167"/>
<polygon fill="#191970" stroke="#191970" points="630.2426,-76.8956 619.8789,-79.0966 629.3532,-83.8388 630.2426,-76.8956"/>
</g>
<!-- Node14 -->
<g id="node15" class="node">
<title>Node14</title>
<g id="a_node15"><a xlink:href="constraints__soft_8h.html" target="_top" xlink:title="Functions and data structures for secondary structure soft constraints. ">
<polygon fill="none" stroke="#000000" points="817.7988,-56.5 817.7988,-86.5 936.7988,-86.5 936.7988,-56.5 817.7988,-56.5"/>
<text text-anchor="start" x="825.7988" y="-74.5" font-family="Helvetica,sans-Serif" font-size="10.00" fill="#000000">ViennaRNA/constraints</text>
<text text-anchor="middle" x="877.2988" y="-63.5" font-family="Helvetica,sans-Serif" font-size="10.00" fill="#000000">_soft.h</text>
</a>
</g>
</g>
<!-- Node12&#45;&gt;Node14 -->
<g id="edge20" class="edge">
<title>Node12&#45;&gt;Node14</title>
<path fill="none" stroke="#191970" d="M1039.2197,-128.9005C1010.6702,-118.7798 964.9902,-102.5864 929.4165,-89.9756"/>
<polygon fill="#191970" stroke="#191970" points="930.2683,-86.5642 919.6736,-86.5218 927.9294,-93.1619 930.2683,-86.5642"/>
</g>
<!-- Node15 -->
<g id="node16" class="node">
<title>Node15</title>
<g id="a_node16"><a xlink:href="constraints__SHAPE_8h.html" target="_top" xlink:title="This module provides function to incorporate SHAPE reactivity data into the folding recursions by mea...">
<polygon fill="none" stroke="#000000" points="954.7988,-56.5 954.7988,-86.5 1073.7988,-86.5 1073.7988,-56.5 954.7988,-56.5"/>
<text text-anchor="start" x="962.7988" y="-74.5" font-family="Helvetica,sans-Serif" font-size="10.00" fill="#000000">ViennaRNA/constraints</text>
<text text-anchor="middle" x="1014.2988" y="-63.5" font-family="Helvetica,sans-Serif" font-size="10.00" fill="#000000">_SHAPE.h</text>
</a>
</g>
</g>
<!-- Node12&#45;&gt;Node15 -->
<g id="edge22" class="edge">
<title>Node12&#45;&gt;Node15</title>
<path fill="none" stroke="#191970" d="M1058.8484,-128.9005C1051.9334,-119.9908 1041.3658,-106.3748 1032.2581,-94.6399"/>
<polygon fill="#191970" stroke="#191970" points="1034.8537,-92.2757 1025.9574,-86.5218 1029.3238,-96.5676 1034.8537,-92.2757"/>
</g>
<!-- Node16 -->
<g id="node17" class="node">
<title>Node16</title>
<g id="a_node17"><a xlink:href="perturbation__fold_8h.html" target="_top" xlink:title="Find a vector of perturbation energies that minimizes the discripancies between predicted and observe...">
<polygon fill="none" stroke="#000000" points="1092.2988,-56.5 1092.2988,-86.5 1214.2988,-86.5 1214.2988,-56.5 1092.2988,-56.5"/>
<text text-anchor="start" x="1100.2988" y="-74.5" font-family="Helvetica,sans-Serif" font-size="10.00" fill="#000000">ViennaRNA/perturbation</text>
<text text-anchor="middle" x="1153.2988" y="-63.5" font-family="Helvetica,sans-Serif" font-size="10.00" fill="#000000">_fold.h</text>
</a>
</g>
</g>
<!-- Node12&#45;&gt;Node16 -->
<g id="edge24" class="edge">
<title>Node12&#45;&gt;Node16</title>
<path fill="none" stroke="#191970" d="M1078.7637,-128.9005C1090.8947,-119.5583 1109.7446,-105.0417 1125.4523,-92.945"/>
<polygon fill="#191970" stroke="#191970" points="1128.0056,-95.3963 1133.7929,-86.5218 1123.7345,-89.8503 1128.0056,-95.3963"/>
</g>
<!-- Node17 -->
<g id="node18" class="node">
<title>Node17</title>
<g id="a_node18"><a xlink:href="constraints__ligand_8h.html" target="_top" xlink:title="Functions for incorporation of ligands binding to hairpin and interior loop motifs using the soft con...">
<polygon fill="none" stroke="#000000" points="1232.7988,-56.5 1232.7988,-86.5 1351.7988,-86.5 1351.7988,-56.5 1232.7988,-56.5"/>
<text text-anchor="start" x="1240.7988" y="-74.5" font-family="Helvetica,sans-Serif" font-size="10.00" fill="#000000">ViennaRNA/constraints</text>
<text text-anchor="middle" x="1292.2988" y="-63.5" font-family="Helvetica,sans-Serif" font-size="10.00" fill="#000000">_ligand.h</text>
</a>
</g>
</g>
<!-- Node12&#45;&gt;Node17 -->
<g id="edge26" class="edge">
<title>Node12&#45;&gt;Node17</title>
<path fill="none" stroke="#191970" d="M1098.6791,-128.9005C1133.3282,-118.6284 1189.0788,-102.1006 1231.8786,-89.4122"/>
<polygon fill="#191970" stroke="#191970" points="1233.0356,-92.7198 1241.6283,-86.5218 1231.0459,-86.0085 1233.0356,-92.7198"/>
</g>
<!-- Node13&#45;&gt;Node4 -->
<g id="edge19" class="edge">
<title>Node13&#45;&gt;Node4</title>
<path fill="none" stroke="#191970" d="M551.6033,-86.6925C542.8441,-104.2138 532.332,-133.2634 545.2988,-154 574.2014,-200.2217 721.5782,-230.1139 816.8325,-244.9289"/>
<polygon fill="#191970" stroke="#191970" points="816.3276,-248.3923 826.742,-246.4452 817.3865,-241.4728 816.3276,-248.3923"/>
</g>
<!-- Node14&#45;&gt;Node4 -->
<g id="edge21" class="edge">
<title>Node14&#45;&gt;Node4</title>
<path fill="none" stroke="#191970" d="M914.99,-86.6402C930.3949,-94.9259 946.6105,-106.8524 955.2988,-123 976.8291,-163.0155 939.7428,-213.0892 916.2904,-238.8835"/>
<polygon fill="#191970" stroke="#191970" points="913.5554,-236.6825 909.2466,-246.3616 918.651,-241.4821 913.5554,-236.6825"/>
</g>
<!-- Node15&#45;&gt;Node4 -->
<g id="edge23" class="edge">
<title>Node15&#45;&gt;Node4</title>
<path fill="none" stroke="#191970" d="M1074.0365,-86.0257C1115.3868,-99.2291 1159.6189,-121.6261 1139.2988,-154 1105.8778,-207.246 1038.1021,-232.7389 983.0734,-244.9205"/>
<polygon fill="#191970" stroke="#191970" points="982.0255,-241.5641 972.9578,-247.0438 983.4635,-248.4148 982.0255,-241.5641"/>
</g>
<!-- Node16&#45;&gt;Node4 -->
<g id="edge25" class="edge">
<title>Node16&#45;&gt;Node4</title>
<path fill="none" stroke="#191970" d="M1156.8831,-86.634C1160.1781,-103.5975 1163.4343,-131.6517 1155.2988,-154 1144.1838,-184.5329 1136.0913,-193.1661 1108.2988,-210 1085.8056,-223.6241 1024.2798,-236.2466 973.7678,-244.8093"/>
<polygon fill="#191970" stroke="#191970" points="973.1153,-241.3697 963.8271,-246.4667 974.2666,-248.2743 973.1153,-241.3697"/>
</g>
<!-- Node17&#45;&gt;Node4 -->
<g id="edge27" class="edge">
<title>Node17&#45;&gt;Node4</title>
<path fill="none" stroke="#191970" d="M1279.8873,-86.9033C1255.5068,-116.0235 1198.2286,-179.0025 1135.2988,-210 1108.3186,-223.2897 1036.9381,-236.1928 979.69,-244.9339"/>
<polygon fill="#191970" stroke="#191970" points="978.9107,-241.5117 969.5438,-246.4625 979.9537,-248.4336 978.9107,-241.5117"/>
</g>
<!-- Node18&#45;&gt;Node4 -->
<g id="edge29" class="edge">
<title>Node18&#45;&gt;Node4</title>
<path fill="none" stroke="#191970" d="M774.2257,-148.1865C791.0064,-158.2658 814.1524,-174.6874 833.2988,-190 853.0412,-205.7893 874.6143,-224.9932 887.8731,-238.6057"/>
<polygon fill="#191970" stroke="#191970" points="885.6061,-241.3094 894.9635,-246.2782 890.747,-236.5586 885.6061,-241.3094"/>
</g>
<!-- Node20&#45;&gt;Node4 -->
<g id="edge32" class="edge">
<title>Node20&#45;&gt;Node4</title>
<path fill="none" stroke="#191970" d="M1320.3472,-153.7145C1309.234,-170.5559 1284.8659,-197.0316 1257.2988,-210 1210.5732,-231.9812 1073.4618,-244.9866 983.0647,-251.2881"/>
<polygon fill="#191970" stroke="#191970" points="982.5674,-247.8138 972.8291,-251.9869 983.0443,-254.7975 982.5674,-247.8138"/>
</g>
<!-- Node20&#45;&gt;Node21 -->
<g id="edge33" class="edge">
<title>Node20&#45;&gt;Node21</title>
<path fill="none" stroke="#191970" d="M1347.9903,-123.2967C1361.6709,-114.1306 1379.2861,-102.3285 1394.2457,-92.3055"/>
<polygon fill="#191970" stroke="#191970" points="1396.3375,-95.1171 1402.697,-86.6432 1392.4411,-89.3017 1396.3375,-95.1171"/>
</g>
<!-- Node21&#45;&gt;Node2 -->
<g id="edge34" class="edge">
<title>Node21&#45;&gt;Node2</title>
<path fill="none" stroke="#191970" d="M1370.2513,-57.5924C1367.2319,-57.0097 1364.2333,-56.4729 1361.2988,-56 1162.9914,-24.0409 921.3968,-13.7334 834.4487,-10.9234"/>
<polygon fill="#191970" stroke="#191970" points="834.4948,-7.4233 824.3906,-10.6099 834.2766,-14.4199 834.4948,-7.4233"/>
</g>
<!-- Node21&#45;&gt;Node4 -->
<g id="edge35" class="edge">
<title>Node21&#45;&gt;Node4</title>
<path fill="none" stroke="#191970" d="M1430.0283,-86.6149C1430.0009,-104.5989 1423.1988,-134.6209 1406.2988,-154 1369.7203,-195.944 1347.6101,-194.0256 1294.2988,-210 1238.3382,-226.7682 1081.5358,-241.8942 983.0918,-249.9305"/>
<polygon fill="#191970" stroke="#191970" points="982.5521,-246.4626 972.8665,-250.7569 983.116,-253.4399 982.5521,-246.4626"/>
</g>
<!-- Node22&#45;&gt;Node3 -->
<g id="edge45" class="edge">
<title>Node22&#45;&gt;Node3</title>
<path fill="none" stroke="#191970" d="M665.2862,-302.2455C658.822,-294.3761 649.5603,-283.101 641.8004,-273.6542"/>
<polygon fill="#191970" stroke="#191970" points="644.2715,-271.1484 635.2195,-265.6427 638.8624,-275.5916 644.2715,-271.1484"/>
</g>
<!-- Node22&#45;&gt;Node4 -->
<g id="edge46" class="edge">
<title>Node22&#45;&gt;Node4</title>
<path fill="none" stroke="#191970" d="M711.8928,-302.4369C750.3271,-292.9133 809.4348,-278.2672 850.9698,-267.9753"/>
<polygon fill="#191970" stroke="#191970" points="851.9993,-271.3261 860.8639,-265.5237 850.3157,-264.5316 851.9993,-271.3261"/>
</g>
<!-- Node24&#45;&gt;Node8 -->
<g id="edge50" class="edge">
<title>Node24&#45;&gt;Node8</title>
<path fill="none" stroke="#191970" d="M168.8129,-190.0258C155.0491,-174.3271 132.8879,-143.5311 149.2988,-123 169.5978,-97.6045 253.8057,-83.8239 313.9692,-77.0674"/>
<polygon fill="#191970" stroke="#191970" points="314.5874,-80.521 324.1524,-75.9644 313.8336,-73.5617 314.5874,-80.521"/>
</g>
<!-- Node25&#45;&gt;Node5 -->
<g id="edge52" class="edge">
<title>Node25&#45;&gt;Node5</title>
<path fill="none" stroke="#191970" d="M92.5147,-358.496C86.6462,-325.4559 69.4199,-212.7182 89.2988,-123 91.8327,-111.5636 97.18,-99.6558 102.1853,-90.1747"/>
<polygon fill="#191970" stroke="#191970" points="105.3247,-91.7315 107.1454,-81.2943 99.2133,-88.318 105.3247,-91.7315"/>
</g>
</g>
</svg>
