<?xml version="1.0" encoding="UTF-8" standalone="no"?>
<!DOCTYPE svg PUBLIC "-//W3C//DTD SVG 1.1//EN"
 "http://www.w3.org/Graphics/SVG/1.1/DTD/svg11.dtd">
<!-- Generated by graphviz version 2.40.1 (20161225.0304)
 -->
<!-- Title: ViennaRNA/Lfold.h Pages: 1 -->
<!--zoomable 386 -->
<svg id="main" version="1.1" xmlns="http://www.w3.org/2000/svg" xmlns:xlink="http://www.w3.org/1999/xlink" xml:space="preserve" onload="init(evt)">
<style type="text/css"><![CDATA[
.edge:hover path { stroke: red; }
.edge:hover polygon { stroke: red; fill: red; }
]]></style>
<script type="text/javascript"><![CDATA[
var edges = document.getElementsByTagName('g');
if (edges && edges.length) {
  for (var i=0;i<edges.length;i++) {
    if (edges[i].id.substr(0,4)=='edge') {
      edges[i].setAttribute('class','edge');
    }
  }
}
]]></script>
        <defs>
                <circle id="rim" cx="0" cy="0" r="7"/>
                <circle id="rim2" cx="0" cy="0" r="3.5"/>
                <g id="zoomPlus">
                        <use xlink:href="#rim" fill="#404040">
                                <set attributeName="fill" to="#808080" begin="zoomplus.mouseover" end="zoomplus.mouseout"/>
                        </use>
                        <path d="M-4,0h8M0,-4v8" fill="none" stroke="white" stroke-width="1.5" pointer-events="none"/>
                </g>
                <g id="zoomMin">
                        <use xlink:href="#rim" fill="#404040">
                                <set attributeName="fill" to="#808080" begin="zoomminus.mouseover" end="zoomminus.mouseout"/>
                        </use>
                        <path d="M-4,0h8" fill="none" stroke="white" stroke-width="1.5" pointer-events="none"/>
                </g>
                <g id="dirArrow">
                        <path fill="none" stroke="white" stroke-width="1.5" d="M0,-3.0v7 M-2.5,-0.5L0,-3.0L2.5,-0.5"/>
                </g>
               <g id="resetDef">
                       <use xlink:href="#rim2" fill="#404040">
                               <set attributeName="fill" to="#808080" begin="reset.mouseover" end="reset.mouseout"/>
                       </use>
               </g>
        </defs>

<script type="text/javascript">
var viewWidth = 1529;
var viewHeight = 386;
var sectionId = 'dynsection-0';
</script>
<script xlink:href="svgpan.js"/>
<svg id="graph" class="graph">
<g id="viewport">
<title>ViennaRNA/Lfold.h</title>
<!-- Node0 -->
<g id="node1" class="node">
<title>Node0</title>
<polygon fill="#bfbfbf" stroke="#000000" points="1068.5,-358.5 1068.5,-377.5 1169.5,-377.5 1169.5,-358.5 1068.5,-358.5"/>
<text text-anchor="middle" x="1119" y="-365.5" font-family="Helvetica,sans-Serif" font-size="10.00" fill="#000000">ViennaRNA/Lfold.h</text>
</g>
<!-- Node1 -->
<g id="node2" class="node">
<title>Node1</title>
<g id="a_node2"><a xlink:href="mfe_8h.html" target="_top" xlink:title="Compute Minimum Free energy (MFE) and backtrace corresponding secondary structures from RNA sequence ...">
<polygon fill="none" stroke="#000000" points="1071,-302.5 1071,-321.5 1167,-321.5 1167,-302.5 1071,-302.5"/>
<text text-anchor="middle" x="1119" y="-309.5" font-family="Helvetica,sans-Serif" font-size="10.00" fill="#000000">ViennaRNA/mfe.h</text>
</a>
</g>
</g>
<!-- Node0&#45;&gt;Node1 -->
<g id="edge1" class="edge">
<title>Node0&#45;&gt;Node1</title>
<path fill="none" stroke="#191970" d="M1119,-358.2455C1119,-350.9382 1119,-340.6944 1119,-331.7046"/>
<polygon fill="#191970" stroke="#191970" points="1122.5001,-331.6426 1119,-321.6427 1115.5001,-331.6427 1122.5001,-331.6426"/>
</g>
<!-- Node2 -->
<g id="node3" class="node">
<title>Node2</title>
<polygon fill="none" stroke="#bfbfbf" points="374,-.5 374,-19.5 420,-19.5 420,-.5 374,-.5"/>
<text text-anchor="middle" x="397" y="-7.5" font-family="Helvetica,sans-Serif" font-size="10.00" fill="#000000">stdio.h</text>
</g>
<!-- Node1&#45;&gt;Node2 -->
<g id="edge2" class="edge">
<title>Node1&#45;&gt;Node2</title>
<path fill="none" stroke="#191970" d="M1167.2493,-308.6841C1273.6371,-300.0485 1519,-272.2956 1519,-200 1519,-200 1519,-200 1519,-138.5 1519,-100.8735 1528.9459,-80.0394 1500,-56 1489.4345,-47.2254 612.8223,-17.2628 430.1302,-11.1099"/>
<polygon fill="#191970" stroke="#191970" points="430.1628,-7.6091 420.0507,-10.7708 429.9274,-14.6051 430.1628,-7.6091"/>
</g>
<!-- Node3 -->
<g id="node4" class="node">
<title>Node3</title>
<g id="a_node4"><a xlink:href="data__structures_8h.html" target="_top" xlink:title="Various data structures and pre&#45;processor macros. ">
<polygon fill="none" stroke="#000000" points="736.5,-246.5 736.5,-265.5 883.5,-265.5 883.5,-246.5 736.5,-246.5"/>
<text text-anchor="middle" x="810" y="-253.5" font-family="Helvetica,sans-Serif" font-size="10.00" fill="#000000">ViennaRNA/data_structures.h</text>
</a>
</g>
</g>
<!-- Node1&#45;&gt;Node3 -->
<g id="edge3" class="edge">
<title>Node1&#45;&gt;Node3</title>
<path fill="none" stroke="#191970" d="M1070.7188,-303.25C1017.2868,-293.5665 931.0038,-277.9295 872.4625,-267.3201"/>
<polygon fill="#191970" stroke="#191970" points="873.0565,-263.8708 862.5927,-265.5314 871.8082,-270.7586 873.0565,-263.8708"/>
</g>
<!-- Node4 -->
<g id="node5" class="node">
<title>Node4</title>
<g id="a_node5"><a xlink:href="energy__const_8h.html" target="_top" xlink:title="Energy parameter constants. ">
<polygon fill="none" stroke="#000000" points="663,-62 663,-81 801,-81 801,-62 663,-62"/>
<text text-anchor="middle" x="732" y="-69" font-family="Helvetica,sans-Serif" font-size="10.00" fill="#000000">ViennaRNA/energy_const.h</text>
</a>
</g>
</g>
<!-- Node3&#45;&gt;Node4 -->
<g id="edge4" class="edge">
<title>Node3&#45;&gt;Node4</title>
<path fill="none" stroke="#191970" d="M833.6948,-246.4693C882.0155,-225.6801 984.1104,-174.0207 944,-123 939.0593,-116.7154 848.409,-96.3168 787.2615,-83.1566"/>
<polygon fill="#191970" stroke="#191970" points="787.855,-79.7044 777.3434,-81.0297 786.3872,-86.5488 787.855,-79.7044"/>
</g>
<!-- Node6 -->
<g id="node7" class="node">
<title>Node6</title>
<g id="a_node7"><a xlink:href="fold__compound_8h.html" target="_top" xlink:title="The Basic Fold Compound API. ">
<polygon fill="none" stroke="#000000" points="539,-190.5 539,-209.5 685,-209.5 685,-190.5 539,-190.5"/>
<text text-anchor="middle" x="612" y="-197.5" font-family="Helvetica,sans-Serif" font-size="10.00" fill="#000000">ViennaRNA/fold_compound.h</text>
</a>
</g>
</g>
<!-- Node3&#45;&gt;Node6 -->
<g id="edge6" class="edge">
<title>Node3&#45;&gt;Node6</title>
<path fill="none" stroke="#191970" d="M775.9626,-246.3733C742.6106,-236.9404 691.6473,-222.5265 655.3998,-212.2747"/>
<polygon fill="#191970" stroke="#191970" points="656.1684,-208.8548 645.5933,-209.5011 654.2632,-215.5906 656.1684,-208.8548"/>
</g>
<!-- Node7 -->
<g id="node8" class="node">
<title>Node7</title>
<g id="a_node8"><a xlink:href="model_8h.html" target="_top" xlink:title="The model details data structure and its corresponding modifiers. ">
<polygon fill="none" stroke="#000000" points="332,-62 332,-81 438,-81 438,-62 332,-62"/>
<text text-anchor="middle" x="385" y="-69" font-family="Helvetica,sans-Serif" font-size="10.00" fill="#000000">ViennaRNA/model.h</text>
</a>
</g>
</g>
<!-- Node3&#45;&gt;Node7 -->
<g id="edge35" class="edge">
<title>Node3&#45;&gt;Node7</title>
<path fill="none" stroke="#191970" d="M736.0672,-249.8612C625.1179,-238.853 424.3209,-211.3375 385,-154 372.329,-135.5232 375.1425,-108.8246 379.2485,-90.8499"/>
<polygon fill="#191970" stroke="#191970" points="382.636,-91.7298 381.7765,-81.1699 375.8632,-89.961 382.636,-91.7298"/>
</g>
<!-- Node8 -->
<g id="node9" class="node">
<title>Node8</title>
<g id="a_node9"><a xlink:href="params_8h.html" target="_top" xlink:title="Functions to deal with sets of energy parameters. ">
<polygon fill="none" stroke="#000000" points="823,-129 823,-148 935,-148 935,-129 823,-129"/>
<text text-anchor="middle" x="879" y="-136" font-family="Helvetica,sans-Serif" font-size="10.00" fill="#000000">ViennaRNA/params.h</text>
</a>
</g>
</g>
<!-- Node3&#45;&gt;Node8 -->
<g id="edge36" class="edge">
<title>Node3&#45;&gt;Node8</title>
<path fill="none" stroke="#191970" d="M811.7347,-246.3845C819.8947,-226.761 845.9073,-181.8274 863.351,-156.5772"/>
<polygon fill="#191970" stroke="#191970" points="866.3437,-158.4104 869.3409,-148.2484 860.6607,-154.3233 866.3437,-158.4104"/>
</g>
<!-- Node10 -->
<g id="node11" class="node">
<title>Node10</title>
<g id="a_node11"><a xlink:href="dp__matrices_8h.html" target="_top" xlink:title="Functions to deal with standard dynamic programming (DP) matrices. ">
<polygon fill="none" stroke="#000000" points="185.5,-129 185.5,-148 318.5,-148 318.5,-129 185.5,-129"/>
<text text-anchor="middle" x="252" y="-136" font-family="Helvetica,sans-Serif" font-size="10.00" fill="#000000">ViennaRNA/dp_matrices.h</text>
</a>
</g>
</g>
<!-- Node3&#45;&gt;Node10 -->
<g id="edge37" class="edge">
<title>Node3&#45;&gt;Node10</title>
<path fill="none" stroke="#191970" d="M736.1928,-254.5678C618.7634,-251.3288 395.6385,-241.1075 324,-210 296.8532,-198.2121 272.4001,-173.7943 259.7396,-156.7929"/>
<polygon fill="#191970" stroke="#191970" points="262.4667,-154.5764 253.977,-148.2379 256.661,-158.4872 262.4667,-154.5764"/>
</g>
<!-- Node11 -->
<g id="node12" class="node">
<title>Node11</title>
<g id="a_node12"><a xlink:href="constraints_8h.html" target="_top" xlink:title="Functions and data structures for constraining secondary structure predictions and evaluation...">
<polygon fill="none" stroke="#000000" points="1067,-129 1067,-148 1195,-148 1195,-129 1067,-129"/>
<text text-anchor="middle" x="1131" y="-136" font-family="Helvetica,sans-Serif" font-size="10.00" fill="#000000">ViennaRNA/constraints.h</text>
</a>
</g>
</g>
<!-- Node3&#45;&gt;Node11 -->
<g id="edge38" class="edge">
<title>Node3&#45;&gt;Node11</title>
<path fill="none" stroke="#191970" d="M877.3245,-246.4618C935.682,-237.9172 1015.0178,-224.5226 1044,-210 1070.2522,-196.8454 1094.1305,-172.2428 1110.5554,-155.6167"/>
<polygon fill="#191970" stroke="#191970" points="1113.3974,-157.7248 1117.9976,-148.1807 1108.4497,-152.773 1113.3974,-157.7248"/>
</g>
<!-- Node17 -->
<g id="node18" class="node">
<title>Node17</title>
<g id="a_node18"><a xlink:href="grammar_8h.html" target="_top" xlink:title="Implementations for the RNA folding grammar. ">
<polygon fill="none" stroke="#000000" points="553,-129 553,-148 671,-148 671,-129 553,-129"/>
<text text-anchor="middle" x="612" y="-136" font-family="Helvetica,sans-Serif" font-size="10.00" fill="#000000">ViennaRNA/grammar.h</text>
</a>
</g>
</g>
<!-- Node3&#45;&gt;Node17 -->
<g id="edge39" class="edge">
<title>Node3&#45;&gt;Node17</title>
<path fill="none" stroke="#191970" d="M789.885,-246.3845C752.1754,-226.0724 671.9735,-178.6431 633.3618,-153.9939"/>
<polygon fill="#191970" stroke="#191970" points="634.7884,-150.7478 624.4926,-148.2484 630.9825,-156.6228 634.7884,-150.7478"/>
</g>
<!-- Node18 -->
<g id="node19" class="node">
<title>Node18</title>
<g id="a_node19"><a xlink:href="structured__domains_8h.html" target="_top" xlink:title="This module provides interfaces that deal with additional structured domains in the folding grammar...">
<polygon fill="none" stroke="#000000" points="689.5,-123.5 689.5,-153.5 804.5,-153.5 804.5,-123.5 689.5,-123.5"/>
<text text-anchor="start" x="697.5" y="-141.5" font-family="Helvetica,sans-Serif" font-size="10.00" fill="#000000">ViennaRNA/structured</text>
<text text-anchor="middle" x="747" y="-130.5" font-family="Helvetica,sans-Serif" font-size="10.00" fill="#000000">_domains.h</text>
</a>
</g>
</g>
<!-- Node3&#45;&gt;Node18 -->
<g id="edge40" class="edge">
<title>Node3&#45;&gt;Node18</title>
<path fill="none" stroke="#191970" d="M804.8444,-246.3845C795.1081,-228.2254 773.7511,-188.393 759.8897,-162.5404"/>
<polygon fill="#191970" stroke="#191970" points="762.9674,-160.8736 755.1575,-153.7143 756.7983,-164.1813 762.9674,-160.8736"/>
</g>
<!-- Node19 -->
<g id="node20" class="node">
<title>Node19</title>
<g id="a_node20"><a xlink:href="unstructured__domains_8h.html" target="_top" xlink:title="Functions to modify unstructured domains, e.g. to incorporate ligands binding to unpaired stretches...">
<polygon fill="none" stroke="#000000" points="42.5,-123.5 42.5,-153.5 167.5,-153.5 167.5,-123.5 42.5,-123.5"/>
<text text-anchor="start" x="50.5" y="-141.5" font-family="Helvetica,sans-Serif" font-size="10.00" fill="#000000">ViennaRNA/unstructured</text>
<text text-anchor="middle" x="105" y="-130.5" font-family="Helvetica,sans-Serif" font-size="10.00" fill="#000000">_domains.h</text>
</a>
</g>
</g>
<!-- Node3&#45;&gt;Node19 -->
<g id="edge41" class="edge">
<title>Node3&#45;&gt;Node19</title>
<path fill="none" stroke="#191970" d="M736.2746,-252.0817C613.4121,-244.8791 372.4454,-228.5614 290,-210 236.316,-197.9138 177.3592,-174.663 140.6282,-157.9531"/>
<polygon fill="#191970" stroke="#191970" points="141.8778,-154.6746 131.3333,-153.6427 138.9329,-161.025 141.8778,-154.6746"/>
</g>
<!-- Node20 -->
<g id="node21" class="node">
<title>Node20</title>
<g id="a_node21"><a xlink:href="structure__utils_8h.html" target="_top" xlink:title="Various utility&#45; and helper&#45;functions for secondary structure parsing, converting, etc. ">
<polygon fill="none" stroke="#000000" points="0,-56.5 0,-86.5 110,-86.5 110,-56.5 0,-56.5"/>
<text text-anchor="start" x="8" y="-74.5" font-family="Helvetica,sans-Serif" font-size="10.00" fill="#000000">ViennaRNA/structure</text>
<text text-anchor="middle" x="55" y="-63.5" font-family="Helvetica,sans-Serif" font-size="10.00" fill="#000000">_utils.h</text>
</a>
</g>
</g>
<!-- Node3&#45;&gt;Node20 -->
<g id="edge42" class="edge">
<title>Node3&#45;&gt;Node20</title>
<path fill="none" stroke="#191970" d="M736.3776,-254.9531C624.1189,-252.3054 404.1698,-242.9627 221,-210 131.4147,-193.8785 78.8632,-226.6324 24,-154 11.024,-136.8213 19.8519,-112.5813 31.5638,-94.8212"/>
<polygon fill="#191970" stroke="#191970" points="34.4279,-96.8335 37.4621,-86.6824 28.7598,-92.7258 34.4279,-96.8335"/>
</g>
<!-- Node5 -->
<g id="node6" class="node">
<title>Node5</title>
<polygon fill="none" stroke="#bfbfbf" points="708,-.5 708,-19.5 756,-19.5 756,-.5 708,-.5"/>
<text text-anchor="middle" x="732" y="-7.5" font-family="Helvetica,sans-Serif" font-size="10.00" fill="#000000">limits.h</text>
</g>
<!-- Node4&#45;&gt;Node5 -->
<g id="edge5" class="edge">
<title>Node4&#45;&gt;Node5</title>
<path fill="none" stroke="#191970" d="M732,-61.8906C732,-53.3657 732,-40.6392 732,-29.9235"/>
<polygon fill="#191970" stroke="#191970" points="735.5001,-29.7448 732,-19.7449 728.5001,-29.7449 735.5001,-29.7448"/>
</g>
<!-- Node6&#45;&gt;Node7 -->
<g id="edge7" class="edge">
<title>Node6&#45;&gt;Node7</title>
<path fill="none" stroke="#191970" d="M538.7975,-192.1286C486.8006,-185.0429 422.9764,-172.812 404,-154 387.4988,-137.6419 384.132,-110.0267 383.9705,-91.2953"/>
<polygon fill="#191970" stroke="#191970" points="387.4716,-91.2743 384.1829,-81.2029 380.4732,-91.127 387.4716,-91.2743"/>
</g>
<!-- Node6&#45;&gt;Node8 -->
<g id="edge8" class="edge">
<title>Node6&#45;&gt;Node8</title>
<path fill="none" stroke="#191970" d="M654.5896,-190.4337C695.4902,-181.2155 759.0055,-166.8184 814,-154 818.9571,-152.8446 824.1243,-151.6299 829.284,-150.4102"/>
<polygon fill="#191970" stroke="#191970" points="830.2175,-153.786 839.1399,-148.0729 828.6022,-146.9749 830.2175,-153.786"/>
</g>
<!-- Node9 -->
<g id="node10" class="node">
<title>Node9</title>
<g id="a_node10"><a xlink:href="sequence_8h.html" target="_top" xlink:title="Functions and data structures related to sequence representations. ">
<polygon fill="none" stroke="#000000" points="413,-129 413,-148 535,-148 535,-129 413,-129"/>
<text text-anchor="middle" x="474" y="-136" font-family="Helvetica,sans-Serif" font-size="10.00" fill="#000000">ViennaRNA/sequence.h</text>
</a>
</g>
</g>
<!-- Node6&#45;&gt;Node9 -->
<g id="edge12" class="edge">
<title>Node6&#45;&gt;Node9</title>
<path fill="none" stroke="#191970" d="M590.4375,-190.3906C567.4488,-180.1457 530.844,-163.8326 504.8176,-152.2339"/>
<polygon fill="#191970" stroke="#191970" points="505.9698,-148.9156 495.4111,-148.0419 503.1204,-155.3095 505.9698,-148.9156"/>
</g>
<!-- Node6&#45;&gt;Node10 -->
<g id="edge13" class="edge">
<title>Node6&#45;&gt;Node10</title>
<path fill="none" stroke="#191970" d="M556.145,-190.4581C491.8059,-179.4668 386.2079,-161.4272 317.9035,-149.7585"/>
<polygon fill="#191970" stroke="#191970" points="318.1364,-146.2477 307.6898,-148.0137 316.9576,-153.1477 318.1364,-146.2477"/>
</g>
<!-- Node6&#45;&gt;Node11 -->
<g id="edge15" class="edge">
<title>Node6&#45;&gt;Node11</title>
<path fill="none" stroke="#191970" d="M685.2593,-191.319C783.6264,-179.6628 957.4546,-159.0646 1056.4679,-147.3318"/>
<polygon fill="#191970" stroke="#191970" points="1057.1735,-150.7728 1066.6922,-146.1203 1056.3497,-143.8214 1057.1735,-150.7728"/>
</g>
<!-- Node6&#45;&gt;Node17 -->
<g id="edge27" class="edge">
<title>Node6&#45;&gt;Node17</title>
<path fill="none" stroke="#191970" d="M612,-190.3906C612,-181.8657 612,-169.1392 612,-158.4235"/>
<polygon fill="#191970" stroke="#191970" points="615.5001,-158.2448 612,-148.2449 608.5001,-158.2449 615.5001,-158.2448"/>
</g>
<!-- Node6&#45;&gt;Node18 -->
<g id="edge29" class="edge">
<title>Node6&#45;&gt;Node18</title>
<path fill="none" stroke="#191970" d="M633.0938,-190.3906C652.2102,-181.682 680.9514,-168.5888 704.7798,-157.7336"/>
<polygon fill="#191970" stroke="#191970" points="706.3261,-160.8754 713.9753,-153.5446 703.4241,-154.5052 706.3261,-160.8754"/>
</g>
<!-- Node6&#45;&gt;Node19 -->
<g id="edge30" class="edge">
<title>Node6&#45;&gt;Node19</title>
<path fill="none" stroke="#191970" d="M538.7739,-194.7445C454.0047,-188.1049 310.0445,-175.1206 177.5714,-154.1565"/>
<polygon fill="#191970" stroke="#191970" points="178.0763,-150.6929 167.6486,-152.5677 176.9694,-157.6048 178.0763,-150.6929"/>
</g>
<!-- Node8&#45;&gt;Node3 -->
<g id="edge10" class="edge">
<title>Node8&#45;&gt;Node3</title>
<path fill="none" stroke="#191970" d="M877.2099,-148.2484C868.9697,-167.9856 842.9363,-212.9315 825.5314,-238.093"/>
<polygon fill="#191970" stroke="#191970" points="822.5636,-236.2248 819.5584,-246.3845 828.2433,-240.3164 822.5636,-236.2248"/>
</g>
<!-- Node8&#45;&gt;Node4 -->
<g id="edge9" class="edge">
<title>Node8&#45;&gt;Node4</title>
<path fill="none" stroke="#191970" d="M857.9385,-128.9005C832.8319,-117.4574 790.6923,-98.2509 762.1402,-85.2374"/>
<polygon fill="#191970" stroke="#191970" points="763.5735,-82.0443 753.0224,-81.0817 760.6703,-88.4139 763.5735,-82.0443"/>
</g>
<!-- Node8&#45;&gt;Node7 -->
<g id="edge11" class="edge">
<title>Node8&#45;&gt;Node7</title>
<path fill="none" stroke="#191970" d="M842.3723,-128.99C833.1545,-126.8111 823.2505,-124.6526 814,-123 684.9836,-99.9516 532.2528,-84.3759 448.2682,-76.8083"/>
<polygon fill="#191970" stroke="#191970" points="448.3965,-73.3059 438.1249,-75.9032 447.7743,-80.2782 448.3965,-73.3059"/>
</g>
<!-- Node10&#45;&gt;Node3 -->
<g id="edge14" class="edge">
<title>Node10&#45;&gt;Node3</title>
<path fill="none" stroke="#191970" d="M264.9612,-148.2379C281.4358,-164.3175 309.826,-196.0291 342,-210 409.3174,-239.2311 610.3977,-250.0197 725.9546,-253.9024"/>
<polygon fill="#191970" stroke="#191970" points="726.0691,-257.4079 736.1778,-254.2354 726.2971,-250.4116 726.0691,-257.4079"/>
</g>
<!-- Node11&#45;&gt;Node3 -->
<g id="edge16" class="edge">
<title>Node11&#45;&gt;Node3</title>
<path fill="none" stroke="#191970" d="M1129.0937,-148.1807C1119.8816,-163.8845 1092.548,-194.6928 1062,-210 1033.3643,-224.349 955.5722,-237.5967 893.8639,-246.1532"/>
<polygon fill="#191970" stroke="#191970" points="893.1535,-242.7177 883.7188,-247.538 894.1003,-249.6533 893.1535,-242.7177"/>
</g>
<!-- Node12 -->
<g id="node13" class="node">
<title>Node12</title>
<g id="a_node13"><a xlink:href="constraints__hard_8h.html" target="_top" xlink:title="Functions and data structures for handling of secondary structure hard constraints. ">
<polygon fill="none" stroke="#000000" points="819.5,-56.5 819.5,-86.5 938.5,-86.5 938.5,-56.5 819.5,-56.5"/>
<text text-anchor="start" x="827.5" y="-74.5" font-family="Helvetica,sans-Serif" font-size="10.00" fill="#000000">ViennaRNA/constraints</text>
<text text-anchor="middle" x="879" y="-63.5" font-family="Helvetica,sans-Serif" font-size="10.00" fill="#000000">_hard.h</text>
</a>
</g>
</g>
<!-- Node11&#45;&gt;Node12 -->
<g id="edge17" class="edge">
<title>Node11&#45;&gt;Node12</title>
<path fill="none" stroke="#191970" d="M1095.1622,-128.9717C1056.2616,-118.6291 993.2831,-101.8848 945.3139,-89.1311"/>
<polygon fill="#191970" stroke="#191970" points="946.1897,-85.7424 935.6261,-86.5553 944.391,-92.5074 946.1897,-85.7424"/>
</g>
<!-- Node13 -->
<g id="node14" class="node">
<title>Node13</title>
<g id="a_node14"><a xlink:href="constraints__soft_8h.html" target="_top" xlink:title="Functions and data structures for secondary structure soft constraints. ">
<polygon fill="none" stroke="#000000" points="956.5,-56.5 956.5,-86.5 1075.5,-86.5 1075.5,-56.5 956.5,-56.5"/>
<text text-anchor="start" x="964.5" y="-74.5" font-family="Helvetica,sans-Serif" font-size="10.00" fill="#000000">ViennaRNA/constraints</text>
<text text-anchor="middle" x="1016" y="-63.5" font-family="Helvetica,sans-Serif" font-size="10.00" fill="#000000">_soft.h</text>
</a>
</g>
</g>
<!-- Node11&#45;&gt;Node13 -->
<g id="edge19" class="edge">
<title>Node11&#45;&gt;Node13</title>
<path fill="none" stroke="#191970" d="M1114.5233,-128.9005C1097.8943,-119.2123 1071.7138,-103.9593 1050.5193,-91.6113"/>
<polygon fill="#191970" stroke="#191970" points="1052.1861,-88.5317 1041.7836,-86.5218 1048.6622,-94.58 1052.1861,-88.5317"/>
</g>
<!-- Node14 -->
<g id="node15" class="node">
<title>Node14</title>
<g id="a_node15"><a xlink:href="constraints__SHAPE_8h.html" target="_top" xlink:title="This module provides function to incorporate SHAPE reactivity data into the folding recursions by mea...">
<polygon fill="none" stroke="#000000" points="1093.5,-56.5 1093.5,-86.5 1212.5,-86.5 1212.5,-56.5 1093.5,-56.5"/>
<text text-anchor="start" x="1101.5" y="-74.5" font-family="Helvetica,sans-Serif" font-size="10.00" fill="#000000">ViennaRNA/constraints</text>
<text text-anchor="middle" x="1153" y="-63.5" font-family="Helvetica,sans-Serif" font-size="10.00" fill="#000000">_SHAPE.h</text>
</a>
</g>
</g>
<!-- Node11&#45;&gt;Node14 -->
<g id="edge21" class="edge">
<title>Node11&#45;&gt;Node14</title>
<path fill="none" stroke="#191970" d="M1134.1521,-128.9005C1136.9356,-120.4234 1141.1181,-107.6856 1144.8366,-96.3614"/>
<polygon fill="#191970" stroke="#191970" points="1148.273,-97.1146 1148.0675,-86.5218 1141.6224,-94.9308 1148.273,-97.1146"/>
</g>
<!-- Node15 -->
<g id="node16" class="node">
<title>Node15</title>
<g id="a_node16"><a xlink:href="perturbation__fold_8h.html" target="_top" xlink:title="Find a vector of perturbation energies that minimizes the discripancies between predicted and observe...">
<polygon fill="none" stroke="#000000" points="1231,-56.5 1231,-86.5 1353,-86.5 1353,-56.5 1231,-56.5"/>
<text text-anchor="start" x="1239" y="-74.5" font-family="Helvetica,sans-Serif" font-size="10.00" fill="#000000">ViennaRNA/perturbation</text>
<text text-anchor="middle" x="1292" y="-63.5" font-family="Helvetica,sans-Serif" font-size="10.00" fill="#000000">_fold.h</text>
</a>
</g>
</g>
<!-- Node11&#45;&gt;Node15 -->
<g id="edge23" class="edge">
<title>Node11&#45;&gt;Node15</title>
<path fill="none" stroke="#191970" d="M1154.0674,-128.9005C1178.0755,-118.9096 1216.3046,-103.0006 1246.4337,-90.4624"/>
<polygon fill="#191970" stroke="#191970" points="1248.0152,-93.5953 1255.9029,-86.5218 1245.3257,-87.1325 1248.0152,-93.5953"/>
</g>
<!-- Node16 -->
<g id="node17" class="node">
<title>Node16</title>
<g id="a_node17"><a xlink:href="constraints__ligand_8h.html" target="_top" xlink:title="Functions for incorporation of ligands binding to hairpin and interior loop motifs using the soft con...">
<polygon fill="none" stroke="#000000" points="1371.5,-56.5 1371.5,-86.5 1490.5,-86.5 1490.5,-56.5 1371.5,-56.5"/>
<text text-anchor="start" x="1379.5" y="-74.5" font-family="Helvetica,sans-Serif" font-size="10.00" fill="#000000">ViennaRNA/constraints</text>
<text text-anchor="middle" x="1431" y="-63.5" font-family="Helvetica,sans-Serif" font-size="10.00" fill="#000000">_ligand.h</text>
</a>
</g>
</g>
<!-- Node11&#45;&gt;Node16 -->
<g id="edge25" class="edge">
<title>Node11&#45;&gt;Node16</title>
<path fill="none" stroke="#191970" d="M1174.0046,-128.9341C1218.3143,-119.0731 1289.6693,-103.1798 1361.0872,-87.2024"/>
<polygon fill="#191970" stroke="#191970" points="1362.1678,-90.5473 1371.1622,-84.948 1360.6392,-83.7162 1362.1678,-90.5473"/>
</g>
<!-- Node12&#45;&gt;Node3 -->
<g id="edge18" class="edge">
<title>Node12&#45;&gt;Node3</title>
<path fill="none" stroke="#191970" d="M931.203,-86.5408C948.8991,-94.4093 966.7628,-106.0556 977,-123 996.995,-156.0955 1000.4315,-179.2417 977,-210 965.282,-225.3821 923.1937,-236.9182 884.2053,-244.5906"/>
<polygon fill="#191970" stroke="#191970" points="883.5507,-241.1522 874.3801,-246.4579 884.8578,-248.0291 883.5507,-241.1522"/>
</g>
<!-- Node13&#45;&gt;Node3 -->
<g id="edge20" class="edge">
<title>Node13&#45;&gt;Node3</title>
<path fill="none" stroke="#191970" d="M1018.7457,-86.6577C1022.9052,-114.806 1027.3104,-175.4245 996,-210 981.7585,-225.7267 935.5265,-237.202 892.7216,-244.7579"/>
<polygon fill="#191970" stroke="#191970" points="892.0661,-241.3191 882.7979,-246.4524 893.2444,-248.2192 892.0661,-241.3191"/>
</g>
<!-- Node14&#45;&gt;Node3 -->
<g id="edge22" class="edge">
<title>Node14&#45;&gt;Node3</title>
<path fill="none" stroke="#191970" d="M1173.683,-86.7247C1193.564,-103.2946 1218.6009,-130.5601 1204,-154 1171.3377,-206.435 999.4744,-234.8272 893.8096,-247.5577"/>
<polygon fill="#191970" stroke="#191970" points="893.3176,-244.0914 883.7976,-248.741 894.1393,-251.043 893.3176,-244.0914"/>
</g>
<!-- Node15&#45;&gt;Node3 -->
<g id="edge24" class="edge">
<title>Node15&#45;&gt;Node3</title>
<path fill="none" stroke="#191970" d="M1281.4185,-86.5659C1259.0817,-116.8903 1203.7275,-184.563 1138,-210 1094.7578,-226.735 975.826,-240.6407 893.731,-248.6402"/>
<polygon fill="#191970" stroke="#191970" points="893.2775,-245.1676 883.6591,-249.6102 893.9486,-252.1354 893.2775,-245.1676"/>
</g>
<!-- Node16&#45;&gt;Node3 -->
<g id="edge26" class="edge">
<title>Node16&#45;&gt;Node3</title>
<path fill="none" stroke="#191970" d="M1409.0842,-86.6307C1365.5502,-115.858 1264.1513,-179.8493 1169,-210 1119.325,-225.7406 983.3263,-240.3936 893.7102,-248.7612"/>
<polygon fill="#191970" stroke="#191970" points="893.1981,-245.2936 883.5632,-249.7004 893.8433,-252.2638 893.1981,-245.2936"/>
</g>
<!-- Node17&#45;&gt;Node3 -->
<g id="edge28" class="edge">
<title>Node17&#45;&gt;Node3</title>
<path fill="none" stroke="#191970" d="M632.0557,-148.0836C669.8144,-168.4176 750.3215,-216.0304 788.8651,-240.651"/>
<polygon fill="#191970" stroke="#191970" points="787.4138,-243.8812 797.7086,-246.3845 791.2218,-238.0076 787.4138,-243.8812"/>
</g>
<!-- Node19&#45;&gt;Node3 -->
<g id="edge31" class="edge">
<title>Node19&#45;&gt;Node3</title>
<path fill="none" stroke="#191970" d="M144.3364,-153.6427C184.7801,-170.4184 249.5187,-196.8338 308,-210 385.761,-227.5068 604.5413,-243.0176 726.0889,-250.7669"/>
<polygon fill="#191970" stroke="#191970" points="725.9026,-254.2621 736.1041,-251.402 726.3457,-247.2761 725.9026,-254.2621"/>
</g>
<!-- Node19&#45;&gt;Node20 -->
<g id="edge32" class="edge">
<title>Node19&#45;&gt;Node20</title>
<path fill="none" stroke="#191970" d="M93.6542,-123.2967C87.3893,-114.9016 79.4741,-104.2952 72.4402,-94.8698"/>
<polygon fill="#191970" stroke="#191970" points="75.0868,-92.5642 66.3009,-86.6432 69.4767,-96.7508 75.0868,-92.5642"/>
</g>
<!-- Node20&#45;&gt;Node2 -->
<g id="edge33" class="edge">
<title>Node20&#45;&gt;Node2</title>
<path fill="none" stroke="#191970" d="M110.3283,-61.5506C182.2,-48.6263 305.3938,-26.4731 364.0673,-15.9221"/>
<polygon fill="#191970" stroke="#191970" points="364.6903,-19.3663 373.913,-14.1516 363.4514,-12.4768 364.6903,-19.3663"/>
</g>
<!-- Node20&#45;&gt;Node3 -->
<g id="edge34" class="edge">
<title>Node20&#45;&gt;Node3</title>
<path fill="none" stroke="#191970" d="M50.2835,-86.6824C41.3249,-104.4592 26.9006,-134.0102 42,-154 96.8632,-226.6324 149.4147,-193.8785 239,-210 410.3583,-240.8372 613.9056,-251.0023 725.8619,-254.3529"/>
<polygon fill="#191970" stroke="#191970" points="725.979,-257.8576 736.0756,-254.6472 726.1806,-250.8605 725.979,-257.8576"/>
</g>
</g>
</svg>
        <g id="navigator" transform="translate(0 0)" fill="#404254">
                <rect fill="#f2f5e9" fill-opacity="0.5" stroke="#606060" stroke-width=".5" x="0" y="0" width="60" height="60"/>
                <use id="zoomplus" xlink:href="#zoomPlus" x="17" y="9" onmousedown="handleZoom(evt,'in')"/>
                <use id="zoomminus" xlink:href="#zoomMin" x="42" y="9" onmousedown="handleZoom(evt,'out')"/>
                <use id="reset" xlink:href="#resetDef" x="30" y="36" onmousedown="handleReset()"/>
                <g id="arrowUp" xlink:href="#dirArrow" transform="translate(30 24)" onmousedown="handlePan(0,-1)">
                  <use xlink:href="#rim" fill="#404040">
                        <set attributeName="fill" to="#808080" begin="arrowUp.mouseover" end="arrowUp.mouseout"/>
                  </use>
                  <path fill="none" stroke="white" stroke-width="1.5" d="M0,-3.0v7 M-2.5,-0.5L0,-3.0L2.5,-0.5"/>
                </g>
                <g id="arrowRight" xlink:href="#dirArrow" transform="rotate(90) translate(36 -43)" onmousedown="handlePan(1,0)">
                  <use xlink:href="#rim" fill="#404040">
                        <set attributeName="fill" to="#808080" begin="arrowRight.mouseover" end="arrowRight.mouseout"/>
                  </use>
                  <path fill="none" stroke="white" stroke-width="1.5" d="M0,-3.0v7 M-2.5,-0.5L0,-3.0L2.5,-0.5"/>
                </g>
                <g id="arrowDown" xlink:href="#dirArrow" transform="rotate(180) translate(-30 -48)" onmousedown="handlePan(0,1)">
                  <use xlink:href="#rim" fill="#404040">
                        <set attributeName="fill" to="#808080" begin="arrowDown.mouseover" end="arrowDown.mouseout"/>
                  </use>
                  <path fill="none" stroke="white" stroke-width="1.5" d="M0,-3.0v7 M-2.5,-0.5L0,-3.0L2.5,-0.5"/>
                </g>
                <g id="arrowLeft" xlink:href="#dirArrow" transform="rotate(270) translate(-36 17)" onmousedown="handlePan(-1,0)">
                  <use xlink:href="#rim" fill="#404040">
                        <set attributeName="fill" to="#808080" begin="arrowLeft.mouseover" end="arrowLeft.mouseout"/>
                  </use>
                  <path fill="none" stroke="white" stroke-width="1.5" d="M0,-3.0v7 M-2.5,-0.5L0,-3.0L2.5,-0.5"/>
                </g>
        </g>
        <svg viewBox="0 0 15 15" width="100%" height="30px" preserveAspectRatio="xMaxYMin meet">
         <g id="arrow_out" transform="scale(0.3 0.3)">
          <a xlink:href="Lfold_8h__incl_org.svg" target="_base">
           <rect id="button" ry="5" rx="5" y="6" x="6" height="38" width="38"
                fill="#f2f5e9" fill-opacity="0.5" stroke="#606060" stroke-width="1.0"/>
           <path id="arrow"
             d="M 11.500037,31.436501 C 11.940474,20.09759 22.043105,11.32322 32.158766,21.979434 L 37.068811,17.246167 C 37.068811,17.246167 37.088388,32 37.088388,32 L 22.160133,31.978069 C 22.160133,31.978069 26.997745,27.140456 26.997745,27.140456 C 18.528582,18.264221 13.291696,25.230495 11.500037,31.436501 z"
             style="fill:#404040;"/>
          </a>
         </g>
        </svg>
</svg>
