<?xml version="1.0" encoding="UTF-8" standalone="no"?>
<!DOCTYPE svg PUBLIC "-//W3C//DTD SVG 1.1//EN"
 "http://www.w3.org/Graphics/SVG/1.1/DTD/svg11.dtd">
<!-- Generated by graphviz version 2.40.1 (20161225.0304)
 -->
<!-- Title: ViennaRNA/loop_energies.h Pages: 1 -->
<!--zoomable 520 -->
<svg id="main" version="1.1" xmlns="http://www.w3.org/2000/svg" xmlns:xlink="http://www.w3.org/1999/xlink" xml:space="preserve" onload="init(evt)">
<style type="text/css"><![CDATA[
.edge:hover path { stroke: red; }
.edge:hover polygon { stroke: red; fill: red; }
]]></style>
<script type="text/javascript"><![CDATA[
var edges = document.getElementsByTagName('g');
if (edges && edges.length) {
  for (var i=0;i<edges.length;i++) {
    if (edges[i].id.substr(0,4)=='edge') {
      edges[i].setAttribute('class','edge');
    }
  }
}
]]></script>
        <defs>
                <circle id="rim" cx="0" cy="0" r="7"/>
                <circle id="rim2" cx="0" cy="0" r="3.5"/>
                <g id="zoomPlus">
                        <use xlink:href="#rim" fill="#404040">
                                <set attributeName="fill" to="#808080" begin="zoomplus.mouseover" end="zoomplus.mouseout"/>
                        </use>
                        <path d="M-4,0h8M0,-4v8" fill="none" stroke="white" stroke-width="1.5" pointer-events="none"/>
                </g>
                <g id="zoomMin">
                        <use xlink:href="#rim" fill="#404040">
                                <set attributeName="fill" to="#808080" begin="zoomminus.mouseover" end="zoomminus.mouseout"/>
                        </use>
                        <path d="M-4,0h8" fill="none" stroke="white" stroke-width="1.5" pointer-events="none"/>
                </g>
                <g id="dirArrow">
                        <path fill="none" stroke="white" stroke-width="1.5" d="M0,-3.0v7 M-2.5,-0.5L0,-3.0L2.5,-0.5"/>
                </g>
               <g id="resetDef">
                       <use xlink:href="#rim2" fill="#404040">
                               <set attributeName="fill" to="#808080" begin="reset.mouseover" end="reset.mouseout"/>
                       </use>
               </g>
        </defs>

<script type="text/javascript">
var viewWidth = 1572;
var viewHeight = 520;
var sectionId = 'dynsection-0';
</script>
<script xlink:href="svgpan.js"/>
<svg id="graph" class="graph">
<g id="viewport">
<title>ViennaRNA/loop_energies.h</title>
<!-- Node0 -->
<g id="node1" class="node">
<title>Node0</title>
<polygon fill="#bfbfbf" stroke="#000000" points="371,-492.5 371,-511.5 511,-511.5 511,-492.5 371,-492.5"/>
<text text-anchor="middle" x="441" y="-499.5" font-family="Helvetica,sans-Serif" font-size="10.00" fill="#000000">ViennaRNA/loop_energies.h</text>
</g>
<!-- Node1 -->
<g id="node2" class="node">
<title>Node1</title>
<g id="a_node2"><a xlink:href="exterior__loops_8h.html" target="_top" xlink:title="Energy evaluation of exterior loops for MFE and partition function calculations. ">
<polygon fill="none" stroke="#000000" points="187,-302.5 187,-332.5 291,-332.5 291,-302.5 187,-302.5"/>
<text text-anchor="start" x="195" y="-320.5" font-family="Helvetica,sans-Serif" font-size="10.00" fill="#000000">ViennaRNA/exterior</text>
<text text-anchor="middle" x="239" y="-309.5" font-family="Helvetica,sans-Serif" font-size="10.00" fill="#000000">_loops.h</text>
</a>
</g>
</g>
<!-- Node0&#45;&gt;Node1 -->
<g id="edge1" class="edge">
<title>Node0&#45;&gt;Node1</title>
<path fill="none" stroke="#191970" d="M389.9207,-492.4796C364.804,-485.713 335.4112,-474.4407 314,-456 278.2596,-425.218 256.6316,-373.0344 246.3251,-342.2676"/>
<polygon fill="#191970" stroke="#191970" points="249.6484,-341.1687 243.2599,-332.7166 242.9832,-343.3078 249.6484,-341.1687"/>
</g>
<!-- Node21 -->
<g id="node22" class="node">
<title>Node21</title>
<g id="a_node22"><a xlink:href="hairpin__loops_8h.html" target="_top" xlink:title="Energy evaluation of hairpin loops for MFE and partition function calculations. ">
<polygon fill="none" stroke="#000000" points="460.5,-431 460.5,-450 597.5,-450 597.5,-431 460.5,-431"/>
<text text-anchor="middle" x="529" y="-438" font-family="Helvetica,sans-Serif" font-size="10.00" fill="#000000">ViennaRNA/hairpin_loops.h</text>
</a>
</g>
</g>
<!-- Node0&#45;&gt;Node21 -->
<g id="edge43" class="edge">
<title>Node0&#45;&gt;Node21</title>
<path fill="none" stroke="#191970" d="M454.75,-492.3906C468.6991,-482.6421 490.5098,-467.3994 506.8897,-455.9521"/>
<polygon fill="#191970" stroke="#191970" points="509.1548,-458.6392 515.3466,-450.0419 505.1449,-452.9015 509.1548,-458.6392"/>
</g>
<!-- Node29 -->
<g id="node30" class="node">
<title>Node29</title>
<g id="a_node30"><a xlink:href="interior__loops_8h.html" target="_top" xlink:title="Energy evaluation of interior loops for MFE and partition function calculations. ">
<polygon fill="none" stroke="#000000" points="322.5,-425.5 322.5,-455.5 423.5,-455.5 423.5,-425.5 322.5,-425.5"/>
<text text-anchor="start" x="330.5" y="-443.5" font-family="Helvetica,sans-Serif" font-size="10.00" fill="#000000">ViennaRNA/interior</text>
<text text-anchor="middle" x="373" y="-432.5" font-family="Helvetica,sans-Serif" font-size="10.00" fill="#000000">_loops.h</text>
</a>
</g>
</g>
<!-- Node0&#45;&gt;Node29 -->
<g id="edge59" class="edge">
<title>Node0&#45;&gt;Node29</title>
<path fill="none" stroke="#191970" d="M430.375,-492.3906C421.5129,-484.3756 408.5442,-472.6466 397.1777,-462.3666"/>
<polygon fill="#191970" stroke="#191970" points="399.3991,-459.6565 389.6347,-455.5446 394.7036,-464.8482 399.3991,-459.6565"/>
</g>
<!-- Node31 -->
<g id="node32" class="node">
<title>Node31</title>
<g id="a_node32"><a xlink:href="multibranch__loops_8h.html" target="_top" xlink:title="Energy evaluation of multibranch loops for MFE and partition function calculations. ">
<polygon fill="none" stroke="#000000" points="732,-425.5 732,-455.5 854,-455.5 854,-425.5 732,-425.5"/>
<text text-anchor="start" x="740" y="-443.5" font-family="Helvetica,sans-Serif" font-size="10.00" fill="#000000">ViennaRNA/multibranch</text>
<text text-anchor="middle" x="793" y="-432.5" font-family="Helvetica,sans-Serif" font-size="10.00" fill="#000000">_loops.h</text>
</a>
</g>
</g>
<!-- Node0&#45;&gt;Node31 -->
<g id="edge66" class="edge">
<title>Node0&#45;&gt;Node31</title>
<path fill="none" stroke="#191970" d="M495.6138,-492.4581C556.4109,-481.8359 654.8864,-464.6307 721.7132,-452.9549"/>
<polygon fill="#191970" stroke="#191970" points="722.4968,-456.3711 731.7452,-451.2022 721.292,-449.4756 722.4968,-456.3711"/>
</g>
<!-- Node2 -->
<g id="node3" class="node">
<title>Node2</title>
<g id="a_node3"><a xlink:href="data__structures_8h.html" target="_top" xlink:title="Various data structures and pre&#45;processor macros. ">
<polygon fill="none" stroke="#000000" points="616.5,-246.5 616.5,-265.5 763.5,-265.5 763.5,-246.5 616.5,-246.5"/>
<text text-anchor="middle" x="690" y="-253.5" font-family="Helvetica,sans-Serif" font-size="10.00" fill="#000000">ViennaRNA/data_structures.h</text>
</a>
</g>
</g>
<!-- Node1&#45;&gt;Node2 -->
<g id="edge2" class="edge">
<title>Node1&#45;&gt;Node2</title>
<path fill="none" stroke="#191970" d="M291.176,-310.3851C369.5097,-299.7032 518.1096,-279.4396 610.1424,-266.8897"/>
<polygon fill="#191970" stroke="#191970" points="610.8121,-270.3308 620.2475,-265.5117 609.8662,-263.395 610.8121,-270.3308"/>
</g>
<!-- Node7 -->
<g id="node8" class="node">
<title>Node7</title>
<g id="a_node8"><a xlink:href="params_8h.html" target="_top" xlink:title="Functions to deal with sets of energy parameters. ">
<polygon fill="none" stroke="#000000" points="175,-129 175,-148 287,-148 287,-129 175,-129"/>
<text text-anchor="middle" x="231" y="-136" font-family="Helvetica,sans-Serif" font-size="10.00" fill="#000000">ViennaRNA/params.h</text>
</a>
</g>
</g>
<!-- Node1&#45;&gt;Node7 -->
<g id="edge42" class="edge">
<title>Node1&#45;&gt;Node7</title>
<path fill="none" stroke="#191970" d="M234.4883,-302.2438C227.9641,-278.3767 217.083,-230.7215 221,-190 222.0154,-179.4436 224.1759,-167.836 226.2297,-158.3173"/>
<polygon fill="#191970" stroke="#191970" points="229.7051,-158.8189 228.5168,-148.2909 222.8804,-157.2621 229.7051,-158.8189"/>
</g>
<!-- Node3 -->
<g id="node4" class="node">
<title>Node3</title>
<g id="a_node4"><a xlink:href="energy__const_8h.html" target="_top" xlink:title="Energy parameter constants. ">
<polygon fill="none" stroke="#000000" points="0,-62 0,-81 138,-81 138,-62 0,-62"/>
<text text-anchor="middle" x="69" y="-69" font-family="Helvetica,sans-Serif" font-size="10.00" fill="#000000">ViennaRNA/energy_const.h</text>
</a>
</g>
</g>
<!-- Node2&#45;&gt;Node3 -->
<g id="edge3" class="edge">
<title>Node2&#45;&gt;Node3</title>
<path fill="none" stroke="#191970" d="M616.2289,-250.8035C543.316,-244.6677 428.9362,-232.3471 332,-210 256.1273,-192.5087 233.7605,-192.3554 166,-154 134.3253,-136.0708 103.2728,-107.0811 85.1427,-88.6726"/>
<polygon fill="#191970" stroke="#191970" points="87.4494,-86.023 77.9827,-81.2655 82.4163,-90.8881 87.4494,-86.023"/>
</g>
<!-- Node5 -->
<g id="node6" class="node">
<title>Node5</title>
<g id="a_node6"><a xlink:href="fold__compound_8h.html" target="_top" xlink:title="The Basic Fold Compound API. ">
<polygon fill="none" stroke="#000000" points="765,-190.5 765,-209.5 911,-209.5 911,-190.5 765,-190.5"/>
<text text-anchor="middle" x="838" y="-197.5" font-family="Helvetica,sans-Serif" font-size="10.00" fill="#000000">ViennaRNA/fold_compound.h</text>
</a>
</g>
</g>
<!-- Node2&#45;&gt;Node5 -->
<g id="edge5" class="edge">
<title>Node2&#45;&gt;Node5</title>
<path fill="none" stroke="#191970" d="M715.4421,-246.3733C739.7326,-237.1822 776.5208,-223.2624 803.4543,-213.0713"/>
<polygon fill="#191970" stroke="#191970" points="804.7757,-216.3136 812.8899,-209.5011 802.2984,-209.7666 804.7757,-216.3136"/>
</g>
<!-- Node6 -->
<g id="node7" class="node">
<title>Node6</title>
<g id="a_node7"><a xlink:href="model_8h.html" target="_top" xlink:title="The model details data structure and its corresponding modifiers. ">
<polygon fill="none" stroke="#000000" points="1027,-62 1027,-81 1133,-81 1133,-62 1027,-62"/>
<text text-anchor="middle" x="1080" y="-69" font-family="Helvetica,sans-Serif" font-size="10.00" fill="#000000">ViennaRNA/model.h</text>
</a>
</g>
</g>
<!-- Node2&#45;&gt;Node6 -->
<g id="edge34" class="edge">
<title>Node2&#45;&gt;Node6</title>
<path fill="none" stroke="#191970" d="M762.6658,-246.476C861.098,-231.958 1028.9285,-200.9303 1067,-154 1081.2974,-136.3758 1082.9716,-109.4639 1082.1137,-91.2089"/>
<polygon fill="#191970" stroke="#191970" points="1085.5947,-90.8258 1081.3425,-81.1217 1078.615,-91.3595 1085.5947,-90.8258"/>
</g>
<!-- Node2&#45;&gt;Node7 -->
<g id="edge35" class="edge">
<title>Node2&#45;&gt;Node7</title>
<path fill="none" stroke="#191970" d="M616.2572,-250.8817C552.9283,-244.974 459.9636,-232.9643 382,-210 333.2284,-195.6342 279.9526,-169.5567 251.3384,-153.179"/>
<polygon fill="#191970" stroke="#191970" points="253.0118,-150.1025 242.6221,-148.0276 249.4502,-156.1287 253.0118,-150.1025"/>
</g>
<!-- Node9 -->
<g id="node10" class="node">
<title>Node9</title>
<g id="a_node10"><a xlink:href="dp__matrices_8h.html" target="_top" xlink:title="Functions to deal with standard dynamic programming (DP) matrices. ">
<polygon fill="none" stroke="#000000" points="1127.5,-129 1127.5,-148 1260.5,-148 1260.5,-129 1127.5,-129"/>
<text text-anchor="middle" x="1194" y="-136" font-family="Helvetica,sans-Serif" font-size="10.00" fill="#000000">ViennaRNA/dp_matrices.h</text>
</a>
</g>
</g>
<!-- Node2&#45;&gt;Node9 -->
<g id="edge36" class="edge">
<title>Node2&#45;&gt;Node9</title>
<path fill="none" stroke="#191970" d="M763.7342,-247.4473C882.5541,-234.2619 1103.0233,-210.4312 1104,-210 1131.8266,-197.7149 1156.9018,-172.3036 1173.8332,-155.3253"/>
<polygon fill="#191970" stroke="#191970" points="1176.386,-157.7229 1181.0201,-148.1953 1171.4559,-152.7535 1176.386,-157.7229"/>
</g>
<!-- Node10 -->
<g id="node11" class="node">
<title>Node10</title>
<g id="a_node11"><a xlink:href="constraints_8h.html" target="_top" xlink:title="Functions and data structures for constraining secondary structure predictions and evaluation...">
<polygon fill="none" stroke="#000000" points="381,-129 381,-148 509,-148 509,-129 381,-129"/>
<text text-anchor="middle" x="445" y="-136" font-family="Helvetica,sans-Serif" font-size="10.00" fill="#000000">ViennaRNA/constraints.h</text>
</a>
</g>
</g>
<!-- Node2&#45;&gt;Node10 -->
<g id="edge37" class="edge">
<title>Node2&#45;&gt;Node10</title>
<path fill="none" stroke="#191970" d="M621.4517,-246.488C587.4789,-239.5926 546.8921,-228.1988 514,-210 489.0453,-196.1928 465.6714,-172.8363 453.146,-156.5906"/>
<polygon fill="#191970" stroke="#191970" points="455.9906,-154.5512 447.3624,-148.4027 450.2731,-158.5898 455.9906,-154.5512"/>
</g>
<!-- Node16 -->
<g id="node17" class="node">
<title>Node16</title>
<g id="a_node17"><a xlink:href="grammar_8h.html" target="_top" xlink:title="Implementations for the RNA folding grammar. ">
<polygon fill="none" stroke="#000000" points="641,-129 641,-148 759,-148 759,-129 641,-129"/>
<text text-anchor="middle" x="700" y="-136" font-family="Helvetica,sans-Serif" font-size="10.00" fill="#000000">ViennaRNA/grammar.h</text>
</a>
</g>
</g>
<!-- Node2&#45;&gt;Node16 -->
<g id="edge38" class="edge">
<title>Node2&#45;&gt;Node16</title>
<path fill="none" stroke="#191970" d="M686.9065,-246.3845C685.2501,-227.1913 688.5144,-183.786 693.1165,-158.2663"/>
<polygon fill="#191970" stroke="#191970" points="696.5902,-158.7563 695.2359,-148.2484 689.7418,-157.3074 696.5902,-158.7563"/>
</g>
<!-- Node17 -->
<g id="node18" class="node">
<title>Node17</title>
<g id="a_node18"><a xlink:href="structured__domains_8h.html" target="_top" xlink:title="This module provides interfaces that deal with additional structured domains in the folding grammar...">
<polygon fill="none" stroke="#000000" points="777.5,-123.5 777.5,-153.5 892.5,-153.5 892.5,-123.5 777.5,-123.5"/>
<text text-anchor="start" x="785.5" y="-141.5" font-family="Helvetica,sans-Serif" font-size="10.00" fill="#000000">ViennaRNA/structured</text>
<text text-anchor="middle" x="835" y="-130.5" font-family="Helvetica,sans-Serif" font-size="10.00" fill="#000000">_domains.h</text>
</a>
</g>
</g>
<!-- Node2&#45;&gt;Node17 -->
<g id="edge39" class="edge">
<title>Node2&#45;&gt;Node17</title>
<path fill="none" stroke="#191970" d="M698.409,-246.4134C710.4416,-232.9817 733.5998,-208.1718 756,-190 769.7933,-178.8104 786.0831,-167.856 800.2764,-158.947"/>
<polygon fill="#191970" stroke="#191970" points="802.1337,-161.9137 808.8018,-153.6804 798.4547,-155.9584 802.1337,-161.9137"/>
</g>
<!-- Node18 -->
<g id="node19" class="node">
<title>Node18</title>
<g id="a_node19"><a xlink:href="unstructured__domains_8h.html" target="_top" xlink:title="Functions to modify unstructured domains, e.g. to incorporate ligands binding to unpaired stretches...">
<polygon fill="none" stroke="#000000" points="1278.5,-123.5 1278.5,-153.5 1403.5,-153.5 1403.5,-123.5 1278.5,-123.5"/>
<text text-anchor="start" x="1286.5" y="-141.5" font-family="Helvetica,sans-Serif" font-size="10.00" fill="#000000">ViennaRNA/unstructured</text>
<text text-anchor="middle" x="1341" y="-130.5" font-family="Helvetica,sans-Serif" font-size="10.00" fill="#000000">_domains.h</text>
</a>
</g>
</g>
<!-- Node2&#45;&gt;Node18 -->
<g id="edge40" class="edge">
<title>Node2&#45;&gt;Node18</title>
<path fill="none" stroke="#191970" d="M763.6544,-247.0713C767.1461,-246.7068 770.6077,-246.3483 774,-246 937.4769,-229.2152 981.9434,-247.2601 1142,-210 1194.9588,-197.6715 1253.0923,-174.2345 1292.8992,-157.5557"/>
<polygon fill="#191970" stroke="#191970" points="1294.4973,-160.6806 1302.3587,-153.5779 1291.7839,-154.2279 1294.4973,-160.6806"/>
</g>
<!-- Node19 -->
<g id="node20" class="node">
<title>Node19</title>
<g id="a_node20"><a xlink:href="structure__utils_8h.html" target="_top" xlink:title="Various utility&#45; and helper&#45;functions for secondary structure parsing, converting, etc. ">
<polygon fill="none" stroke="#000000" points="1424,-56.5 1424,-86.5 1534,-86.5 1534,-56.5 1424,-56.5"/>
<text text-anchor="start" x="1432" y="-74.5" font-family="Helvetica,sans-Serif" font-size="10.00" fill="#000000">ViennaRNA/structure</text>
<text text-anchor="middle" x="1479" y="-63.5" font-family="Helvetica,sans-Serif" font-size="10.00" fill="#000000">_utils.h</text>
</a>
</g>
</g>
<!-- Node2&#45;&gt;Node19 -->
<g id="edge41" class="edge">
<title>Node2&#45;&gt;Node19</title>
<path fill="none" stroke="#191970" d="M763.6377,-246.8895C767.1339,-246.5747 770.601,-246.2764 774,-246 846.3161,-240.1196 1368.6456,-254.4372 1426,-210 1460.7614,-183.0675 1468.5847,-128.6067 1472.8781,-96.5875"/>
<polygon fill="#191970" stroke="#191970" points="1476.3484,-97.0427 1474.2326,-86.6613 1469.4126,-96.0962 1476.3484,-97.0427"/>
</g>
<!-- Node4 -->
<g id="node5" class="node">
<title>Node4</title>
<polygon fill="none" stroke="#bfbfbf" points="45,-.5 45,-19.5 93,-19.5 93,-.5 45,-.5"/>
<text text-anchor="middle" x="69" y="-7.5" font-family="Helvetica,sans-Serif" font-size="10.00" fill="#000000">limits.h</text>
</g>
<!-- Node3&#45;&gt;Node4 -->
<g id="edge4" class="edge">
<title>Node3&#45;&gt;Node4</title>
<path fill="none" stroke="#191970" d="M69,-61.8906C69,-53.3657 69,-40.6392 69,-29.9235"/>
<polygon fill="#191970" stroke="#191970" points="72.5001,-29.7448 69,-19.7449 65.5001,-29.7449 72.5001,-29.7448"/>
</g>
<!-- Node5&#45;&gt;Node6 -->
<g id="edge6" class="edge">
<title>Node5&#45;&gt;Node6</title>
<path fill="none" stroke="#191970" d="M910.8852,-190.4889C960.962,-182.6844 1021.8934,-170.275 1042,-154 1061.5702,-138.1592 1071.5105,-109.9864 1076.2204,-91.0262"/>
<polygon fill="#191970" stroke="#191970" points="1079.6758,-91.6105 1078.4225,-81.0901 1072.8416,-90.0959 1079.6758,-91.6105"/>
</g>
<!-- Node5&#45;&gt;Node7 -->
<g id="edge7" class="edge">
<title>Node5&#45;&gt;Node7</title>
<path fill="none" stroke="#191970" d="M764.929,-193.0399C673.155,-184.2401 510.8723,-168.4868 372,-154 347.6766,-151.4626 321.007,-148.5615 297.4714,-145.9606"/>
<polygon fill="#191970" stroke="#191970" points="297.5712,-142.4503 287.2465,-144.8278 296.8003,-149.4077 297.5712,-142.4503"/>
</g>
<!-- Node8 -->
<g id="node9" class="node">
<title>Node8</title>
<g id="a_node9"><a xlink:href="sequence_8h.html" target="_top" xlink:title="Functions and data structures related to sequence representations. ">
<polygon fill="none" stroke="#000000" points="911,-129 911,-148 1033,-148 1033,-129 911,-129"/>
<text text-anchor="middle" x="972" y="-136" font-family="Helvetica,sans-Serif" font-size="10.00" fill="#000000">ViennaRNA/sequence.h</text>
</a>
</g>
</g>
<!-- Node5&#45;&gt;Node8 -->
<g id="edge11" class="edge">
<title>Node5&#45;&gt;Node8</title>
<path fill="none" stroke="#191970" d="M858.9375,-190.3906C881.2598,-180.1457 916.8037,-163.8326 942.0757,-152.2339"/>
<polygon fill="#191970" stroke="#191970" points="943.581,-155.3942 951.2095,-148.0419 940.6611,-149.0322 943.581,-155.3942"/>
</g>
<!-- Node5&#45;&gt;Node9 -->
<g id="edge12" class="edge">
<title>Node5&#45;&gt;Node9</title>
<path fill="none" stroke="#191970" d="M893.2344,-190.4581C956.8586,-179.4668 1061.2833,-161.4272 1128.8287,-149.7585"/>
<polygon fill="#191970" stroke="#191970" points="1129.6707,-153.165 1138.9289,-148.0137 1128.4791,-146.2672 1129.6707,-153.165"/>
</g>
<!-- Node5&#45;&gt;Node10 -->
<g id="edge14" class="edge">
<title>Node5&#45;&gt;Node10</title>
<path fill="none" stroke="#191970" d="M777.0249,-190.4581C706.4996,-179.4217 590.5626,-161.2789 516.0281,-149.6151"/>
<polygon fill="#191970" stroke="#191970" points="516.2157,-146.1019 505.7947,-148.0137 515.1333,-153.0177 516.2157,-146.1019"/>
</g>
<!-- Node5&#45;&gt;Node16 -->
<g id="edge26" class="edge">
<title>Node5&#45;&gt;Node16</title>
<path fill="none" stroke="#191970" d="M816.4375,-190.3906C793.4488,-180.1457 756.844,-163.8326 730.8176,-152.2339"/>
<polygon fill="#191970" stroke="#191970" points="731.9698,-148.9156 721.4111,-148.0419 729.1204,-155.3095 731.9698,-148.9156"/>
</g>
<!-- Node5&#45;&gt;Node17 -->
<g id="edge28" class="edge">
<title>Node5&#45;&gt;Node17</title>
<path fill="none" stroke="#191970" d="M837.5313,-190.3906C837.1816,-183.2234 836.6871,-173.0862 836.2279,-163.671"/>
<polygon fill="#191970" stroke="#191970" points="839.717,-163.3622 835.7339,-153.5446 832.7254,-163.7033 839.717,-163.3622"/>
</g>
<!-- Node5&#45;&gt;Node18 -->
<g id="edge29" class="edge">
<title>Node5&#45;&gt;Node18</title>
<path fill="none" stroke="#191970" d="M911.3201,-194.6399C995.3321,-187.9478 1137.2942,-174.9623 1268.1476,-154.2027"/>
<polygon fill="#191970" stroke="#191970" points="1269.0322,-157.6056 1278.3508,-152.5643 1267.9224,-150.6941 1269.0322,-157.6056"/>
</g>
<!-- Node7&#45;&gt;Node2 -->
<g id="edge9" class="edge">
<title>Node7&#45;&gt;Node2</title>
<path fill="none" stroke="#191970" d="M253.7182,-148.0276C285.85,-163.5113 345.7151,-194.0103 400,-210 468.104,-230.0602 547.6548,-241.7612 606.2488,-248.3378"/>
<polygon fill="#191970" stroke="#191970" points="605.8796,-251.8182 616.2013,-249.4283 606.6421,-244.8598 605.8796,-251.8182"/>
</g>
<!-- Node7&#45;&gt;Node3 -->
<g id="edge8" class="edge">
<title>Node7&#45;&gt;Node3</title>
<path fill="none" stroke="#191970" d="M207.7893,-128.9005C180.0006,-117.4077 133.2772,-98.0838 101.8062,-85.068"/>
<polygon fill="#191970" stroke="#191970" points="102.7461,-81.6693 92.1676,-81.0817 100.0708,-88.1379 102.7461,-81.6693"/>
</g>
<!-- Node7&#45;&gt;Node6 -->
<g id="edge10" class="edge">
<title>Node7&#45;&gt;Node6</title>
<path fill="none" stroke="#191970" d="M287.214,-131.8398C313.0233,-128.9056 344.0419,-125.5527 372,-123 496.274,-111.6534 866.9922,-86.0303 1016.4737,-75.8188"/>
<polygon fill="#191970" stroke="#191970" points="1017.1093,-79.2837 1026.8476,-75.1106 1016.6325,-72.2999 1017.1093,-79.2837"/>
</g>
<!-- Node9&#45;&gt;Node2 -->
<g id="edge13" class="edge">
<title>Node9&#45;&gt;Node2</title>
<path fill="none" stroke="#191970" d="M1192.0043,-148.1953C1182.518,-164.212 1154.0883,-195.8334 1122,-210 1121.0195,-210.4329 898.8336,-234.4478 773.4779,-247.6008"/>
<polygon fill="#191970" stroke="#191970" points="773.0938,-244.1218 763.5129,-248.6448 773.8232,-251.0837 773.0938,-244.1218"/>
</g>
<!-- Node10&#45;&gt;Node2 -->
<g id="edge15" class="edge">
<title>Node10&#45;&gt;Node2</title>
<path fill="none" stroke="#191970" d="M458.4127,-148.1519C474.7713,-163.5341 502.2633,-193.547 532,-210 561.5515,-226.3505 597.3141,-237.2081 627.3913,-244.2454"/>
<polygon fill="#191970" stroke="#191970" points="626.8317,-247.707 637.3562,-246.488 628.3687,-240.8778 626.8317,-247.707"/>
</g>
<!-- Node11 -->
<g id="node12" class="node">
<title>Node11</title>
<g id="a_node12"><a xlink:href="constraints__hard_8h.html" target="_top" xlink:title="Functions and data structures for handling of secondary structure hard constraints. ">
<polygon fill="none" stroke="#000000" points="156.5,-56.5 156.5,-86.5 275.5,-86.5 275.5,-56.5 156.5,-56.5"/>
<text text-anchor="start" x="164.5" y="-74.5" font-family="Helvetica,sans-Serif" font-size="10.00" fill="#000000">ViennaRNA/constraints</text>
<text text-anchor="middle" x="216" y="-63.5" font-family="Helvetica,sans-Serif" font-size="10.00" fill="#000000">_hard.h</text>
</a>
</g>
</g>
<!-- Node10&#45;&gt;Node11 -->
<g id="edge16" class="edge">
<title>Node10&#45;&gt;Node11</title>
<path fill="none" stroke="#191970" d="M412.1899,-128.9005C377.0069,-118.6068 320.3521,-102.031 276.9485,-89.3321"/>
<polygon fill="#191970" stroke="#191970" points="277.9235,-85.9707 267.343,-86.5218 275.9579,-92.6891 277.9235,-85.9707"/>
</g>
<!-- Node12 -->
<g id="node13" class="node">
<title>Node12</title>
<g id="a_node13"><a xlink:href="constraints__soft_8h.html" target="_top" xlink:title="Functions and data structures for secondary structure soft constraints. ">
<polygon fill="none" stroke="#000000" points="293.5,-56.5 293.5,-86.5 412.5,-86.5 412.5,-56.5 293.5,-56.5"/>
<text text-anchor="start" x="301.5" y="-74.5" font-family="Helvetica,sans-Serif" font-size="10.00" fill="#000000">ViennaRNA/constraints</text>
<text text-anchor="middle" x="353" y="-63.5" font-family="Helvetica,sans-Serif" font-size="10.00" fill="#000000">_soft.h</text>
</a>
</g>
</g>
<!-- Node10&#45;&gt;Node12 -->
<g id="edge18" class="edge">
<title>Node10&#45;&gt;Node12</title>
<path fill="none" stroke="#191970" d="M431.8186,-128.9005C418.8718,-119.4718 398.6876,-104.7725 381.9863,-92.6096"/>
<polygon fill="#191970" stroke="#191970" points="383.7709,-89.5795 373.6269,-86.5218 379.65,-95.238 383.7709,-89.5795"/>
</g>
<!-- Node13 -->
<g id="node14" class="node">
<title>Node13</title>
<g id="a_node14"><a xlink:href="constraints__SHAPE_8h.html" target="_top" xlink:title="This module provides function to incorporate SHAPE reactivity data into the folding recursions by mea...">
<polygon fill="none" stroke="#000000" points="430.5,-56.5 430.5,-86.5 549.5,-86.5 549.5,-56.5 430.5,-56.5"/>
<text text-anchor="start" x="438.5" y="-74.5" font-family="Helvetica,sans-Serif" font-size="10.00" fill="#000000">ViennaRNA/constraints</text>
<text text-anchor="middle" x="490" y="-63.5" font-family="Helvetica,sans-Serif" font-size="10.00" fill="#000000">_SHAPE.h</text>
</a>
</g>
</g>
<!-- Node10&#45;&gt;Node13 -->
<g id="edge20" class="edge">
<title>Node10&#45;&gt;Node13</title>
<path fill="none" stroke="#191970" d="M451.4474,-128.9005C457.3734,-120.0773 466.3994,-106.6387 474.2284,-94.9822"/>
<polygon fill="#191970" stroke="#191970" points="477.2406,-96.7746 479.9108,-86.5218 471.4297,-92.8717 477.2406,-96.7746"/>
</g>
<!-- Node14 -->
<g id="node15" class="node">
<title>Node14</title>
<g id="a_node15"><a xlink:href="perturbation__fold_8h.html" target="_top" xlink:title="Find a vector of perturbation energies that minimizes the discripancies between predicted and observe...">
<polygon fill="none" stroke="#000000" points="568,-56.5 568,-86.5 690,-86.5 690,-56.5 568,-56.5"/>
<text text-anchor="start" x="576" y="-74.5" font-family="Helvetica,sans-Serif" font-size="10.00" fill="#000000">ViennaRNA/perturbation</text>
<text text-anchor="middle" x="629" y="-63.5" font-family="Helvetica,sans-Serif" font-size="10.00" fill="#000000">_fold.h</text>
</a>
</g>
</g>
<!-- Node10&#45;&gt;Node14 -->
<g id="edge22" class="edge">
<title>Node10&#45;&gt;Node14</title>
<path fill="none" stroke="#191970" d="M471.3627,-128.9005C499.1569,-118.7798 543.6285,-102.5864 578.261,-89.9756"/>
<polygon fill="#191970" stroke="#191970" points="579.5473,-93.2321 587.7462,-86.5218 577.1522,-86.6546 579.5473,-93.2321"/>
</g>
<!-- Node15 -->
<g id="node16" class="node">
<title>Node15</title>
<g id="a_node16"><a xlink:href="constraints__ligand_8h.html" target="_top" xlink:title="Functions for incorporation of ligands binding to hairpin and interior loop motifs using the soft con...">
<polygon fill="none" stroke="#000000" points="708.5,-56.5 708.5,-86.5 827.5,-86.5 827.5,-56.5 708.5,-56.5"/>
<text text-anchor="start" x="716.5" y="-74.5" font-family="Helvetica,sans-Serif" font-size="10.00" fill="#000000">ViennaRNA/constraints</text>
<text text-anchor="middle" x="768" y="-63.5" font-family="Helvetica,sans-Serif" font-size="10.00" fill="#000000">_ligand.h</text>
</a>
</g>
</g>
<!-- Node10&#45;&gt;Node15 -->
<g id="edge24" class="edge">
<title>Node10&#45;&gt;Node15</title>
<path fill="none" stroke="#191970" d="M493.7564,-128.9291C542.8383,-119.2236 620.9805,-103.58 698.268,-87.1331"/>
<polygon fill="#191970" stroke="#191970" points="699.1281,-90.5284 708.1777,-85.0187 697.6674,-83.6825 699.1281,-90.5284"/>
</g>
<!-- Node11&#45;&gt;Node2 -->
<g id="edge17" class="edge">
<title>Node11&#45;&gt;Node2</title>
<path fill="none" stroke="#191970" d="M239.4827,-86.5533C255.4405,-96.7984 277.0171,-110.6814 296,-123 355.252,-161.4504 363.3224,-184.006 429,-210 485.7529,-232.4618 553.772,-243.9966 606.1419,-249.8975"/>
<polygon fill="#191970" stroke="#191970" points="606.0815,-253.4112 616.3993,-251.0041 606.8324,-246.4516 606.0815,-253.4112"/>
</g>
<!-- Node12&#45;&gt;Node2 -->
<g id="edge19" class="edge">
<title>Node12&#45;&gt;Node2</title>
<path fill="none" stroke="#191970" d="M352.6924,-86.5823C353.1043,-104.5342 356.3466,-134.5246 372,-154 404.2858,-194.1688 545.0803,-227.7364 628.1115,-244.5003"/>
<polygon fill="#191970" stroke="#191970" points="627.4482,-247.9369 637.9397,-246.4607 628.8176,-241.0721 627.4482,-247.9369"/>
</g>
<!-- Node13&#45;&gt;Node2 -->
<g id="edge21" class="edge">
<title>Node13&#45;&gt;Node2</title>
<path fill="none" stroke="#191970" d="M498.9948,-86.7727C518.0929,-118.81 562.7598,-191.5977 585,-210 602.7891,-224.7193 626.0193,-235.5448 646.1055,-242.9827"/>
<polygon fill="#191970" stroke="#191970" points="645.081,-246.3327 655.6758,-246.3642 647.413,-239.7326 645.081,-246.3327"/>
</g>
<!-- Node14&#45;&gt;Node2 -->
<g id="edge23" class="edge">
<title>Node14&#45;&gt;Node2</title>
<path fill="none" stroke="#191970" d="M617.2091,-86.7621C610.4254,-96.5336 602.5606,-109.8138 599,-123 588.92,-160.3297 578.7439,-177.0637 599,-210 608.3801,-225.2521 624.5542,-235.6328 640.689,-242.6106"/>
<polygon fill="#191970" stroke="#191970" points="639.5461,-245.9222 650.1328,-246.3369 642.1154,-239.4107 639.5461,-245.9222"/>
</g>
<!-- Node15&#45;&gt;Node2 -->
<g id="edge25" class="edge">
<title>Node15&#45;&gt;Node2</title>
<path fill="none" stroke="#191970" d="M709.4818,-86.5023C677.0602,-96.1255 641.4334,-109.3408 632,-123 605.7947,-160.9446 646.7259,-212.6314 672.1767,-239.0036"/>
<polygon fill="#191970" stroke="#191970" points="669.9466,-241.7239 679.4868,-246.3322 674.9026,-236.7804 669.9466,-241.7239"/>
</g>
<!-- Node16&#45;&gt;Node2 -->
<g id="edge27" class="edge">
<title>Node16&#45;&gt;Node2</title>
<path fill="none" stroke="#191970" d="M703.1048,-148.2484C704.7386,-167.5527 701.4599,-210.9723 696.8517,-236.4095"/>
<polygon fill="#191970" stroke="#191970" points="693.3872,-235.8751 694.7302,-246.3845 700.234,-237.3314 693.3872,-235.8751"/>
</g>
<!-- Node18&#45;&gt;Node2 -->
<g id="edge30" class="edge">
<title>Node18&#45;&gt;Node2</title>
<path fill="none" stroke="#191970" d="M1315.3618,-153.5779C1280.714,-170.2941 1217.3254,-196.655 1160,-210 999.9434,-247.2601 955.4769,-229.2152 792,-246 786.153,-246.6003 780.1003,-247.2308 773.9915,-247.8709"/>
<polygon fill="#191970" stroke="#191970" points="773.2638,-244.428 763.6842,-248.9536 773.9951,-251.3897 773.2638,-244.428"/>
</g>
<!-- Node18&#45;&gt;Node19 -->
<g id="edge31" class="edge">
<title>Node18&#45;&gt;Node19</title>
<path fill="none" stroke="#191970" d="M1371.9699,-123.4639C1391.6292,-113.9191 1417.2784,-101.4663 1438.5393,-91.144"/>
<polygon fill="#191970" stroke="#191970" points="1440.1888,-94.2339 1447.656,-86.7177 1437.1315,-87.9368 1440.1888,-94.2339"/>
</g>
<!-- Node19&#45;&gt;Node2 -->
<g id="edge33" class="edge">
<title>Node19&#45;&gt;Node2</title>
<path fill="none" stroke="#191970" d="M1484.3991,-86.6613C1488.0092,-115.9421 1482.6909,-180.0229 1444,-210 1386.6456,-254.4372 864.3161,-240.1196 792,-246 786.1416,-246.4764 780.0807,-247.018 773.9662,-247.5968"/>
<polygon fill="#191970" stroke="#191970" points="773.2655,-244.1484 763.6518,-248.6011 773.9439,-251.1154 773.2655,-244.1484"/>
</g>
<!-- Node20 -->
<g id="node21" class="node">
<title>Node20</title>
<polygon fill="none" stroke="#bfbfbf" points="1498,-.5 1498,-19.5 1544,-19.5 1544,-.5 1498,-.5"/>
<text text-anchor="middle" x="1521" y="-7.5" font-family="Helvetica,sans-Serif" font-size="10.00" fill="#000000">stdio.h</text>
</g>
<!-- Node19&#45;&gt;Node20 -->
<g id="edge32" class="edge">
<title>Node19&#45;&gt;Node20</title>
<path fill="none" stroke="#191970" d="M1489.382,-56.2977C1495.1513,-47.8498 1502.3716,-37.2773 1508.4553,-28.369"/>
<polygon fill="#191970" stroke="#191970" points="1511.5259,-30.0788 1514.2753,-19.8469 1505.7453,-26.1311 1511.5259,-30.0788"/>
</g>
<!-- Node21&#45;&gt;Node2 -->
<g id="edge57" class="edge">
<title>Node21&#45;&gt;Node2</title>
<path fill="none" stroke="#191970" d="M539.5155,-430.9716C550.474,-420.8857 567.9716,-404.3362 582,-389 618.0965,-349.5385 656.7639,-299.9006 676.5848,-273.8471"/>
<polygon fill="#191970" stroke="#191970" points="679.5294,-275.7561 682.7746,-265.6705 673.9482,-271.531 679.5294,-275.7561"/>
</g>
<!-- Node21&#45;&gt;Node7 -->
<g id="edge58" class="edge">
<title>Node21&#45;&gt;Node7</title>
<path fill="none" stroke="#191970" d="M512.0733,-430.8974C471.1651,-407.0852 365.2041,-341.7365 296,-266 275.8775,-243.9781 272.7371,-236.4796 259,-210 250.1081,-192.86 242.3147,-172.2265 237.2232,-157.5397"/>
<polygon fill="#191970" stroke="#191970" points="240.5287,-156.3885 234.0164,-148.0314 233.8958,-158.6256 240.5287,-156.3885"/>
</g>
<!-- Node22 -->
<g id="node23" class="node">
<title>Node22</title>
<polygon fill="none" stroke="#bfbfbf" points="525.5,-369.5 525.5,-388.5 572.5,-388.5 572.5,-369.5 525.5,-369.5"/>
<text text-anchor="middle" x="549" y="-376.5" font-family="Helvetica,sans-Serif" font-size="10.00" fill="#000000">math.h</text>
</g>
<!-- Node21&#45;&gt;Node22 -->
<g id="edge44" class="edge">
<title>Node21&#45;&gt;Node22</title>
<path fill="none" stroke="#191970" d="M532.125,-430.8906C534.9265,-422.276 539.1233,-409.3708 542.6306,-398.5858"/>
<polygon fill="#191970" stroke="#191970" points="546.0667,-399.3371 545.8309,-388.7449 539.4098,-397.1722 546.0667,-399.3371"/>
</g>
<!-- Node23 -->
<g id="node24" class="node">
<title>Node23</title>
<polygon fill="none" stroke="#bfbfbf" points="458.5,-369.5 458.5,-388.5 507.5,-388.5 507.5,-369.5 458.5,-369.5"/>
<text text-anchor="middle" x="483" y="-376.5" font-family="Helvetica,sans-Serif" font-size="10.00" fill="#000000">string.h</text>
</g>
<!-- Node21&#45;&gt;Node23 -->
<g id="edge45" class="edge">
<title>Node21&#45;&gt;Node23</title>
<path fill="none" stroke="#191970" d="M521.8125,-430.8906C515.0334,-421.8273 504.7022,-408.0149 496.4027,-396.9188"/>
<polygon fill="#191970" stroke="#191970" points="499.0812,-394.6563 490.2888,-388.7449 493.4757,-398.849 499.0812,-394.6563"/>
</g>
<!-- Node24 -->
<g id="node25" class="node">
<title>Node24</title>
<g id="a_node25"><a xlink:href="utils_8h.html" target="_top" xlink:title="General utility&#45; and helper&#45;functions used throughout the ViennaRNA Package. ">
<polygon fill="none" stroke="#000000" points="817,-369.5 817,-388.5 915,-388.5 915,-369.5 817,-369.5"/>
<text text-anchor="middle" x="866" y="-376.5" font-family="Helvetica,sans-Serif" font-size="10.00" fill="#000000">ViennaRNA/utils.h</text>
</a>
</g>
</g>
<!-- Node21&#45;&gt;Node24 -->
<g id="edge46" class="edge">
<title>Node21&#45;&gt;Node24</title>
<path fill="none" stroke="#191970" d="M581.2865,-430.9581C642.3566,-419.8133 743.1364,-401.4217 806.9665,-389.7732"/>
<polygon fill="#191970" stroke="#191970" points="807.6727,-393.2022 816.8818,-387.9637 806.4159,-386.3159 807.6727,-393.2022"/>
</g>
<!-- Node24&#45;&gt;Node2 -->
<g id="edge49" class="edge">
<title>Node24&#45;&gt;Node2</title>
<path fill="none" stroke="#191970" d="M915.063,-371.1952C937.6209,-364.8859 962.3494,-353.5045 976,-333 983.6351,-321.5313 984.9354,-312.4874 976,-302 969.3663,-294.214 855.6253,-277.7422 773.6115,-266.7714"/>
<polygon fill="#191970" stroke="#191970" points="773.8995,-263.2789 763.525,-265.4284 772.9755,-270.2177 773.8995,-263.2789"/>
</g>
<!-- Node24&#45;&gt;Node19 -->
<g id="edge53" class="edge">
<title>Node24&#45;&gt;Node19</title>
<path fill="none" stroke="#191970" d="M915.3714,-370.322C1042.9213,-347.1028 1379.4952,-280.5116 1466,-210 1497.7032,-184.1582 1502.4927,-163.3823 1496,-123 1494.5549,-114.0118 1491.7764,-104.4668 1488.8778,-96.0676"/>
<polygon fill="#191970" stroke="#191970" points="1492.0985,-94.6845 1485.3642,-86.5053 1485.528,-97.0988 1492.0985,-94.6845"/>
</g>
<!-- Node24&#45;&gt;Node20 -->
<g id="edge47" class="edge">
<title>Node24&#45;&gt;Node20</title>
<path fill="none" stroke="#191970" d="M915.082,-375.553C1073.9616,-363.7468 1564,-321.9843 1564,-256 1564,-256 1564,-256 1564,-138.5 1564,-97.5611 1544.1297,-52.9012 1531.404,-28.4971"/>
<polygon fill="#191970" stroke="#191970" points="1534.4479,-26.7676 1526.6215,-19.6263 1528.2863,-30.0895 1534.4479,-26.7676"/>
</g>
<!-- Node25 -->
<g id="node26" class="node">
<title>Node25</title>
<polygon fill="none" stroke="#bfbfbf" points="792,-246.5 792,-265.5 844,-265.5 844,-246.5 792,-246.5"/>
<text text-anchor="middle" x="818" y="-253.5" font-family="Helvetica,sans-Serif" font-size="10.00" fill="#000000">stdarg.h</text>
</g>
<!-- Node24&#45;&gt;Node25 -->
<g id="edge48" class="edge">
<title>Node24&#45;&gt;Node25</title>
<path fill="none" stroke="#191970" d="M860.3293,-369.3723C855.1013,-360.229 847.3621,-345.9888 842,-333 834.0988,-313.8608 827.3177,-291.1405 822.999,-275.3623"/>
<polygon fill="#191970" stroke="#191970" points="826.3753,-274.4394 820.4191,-265.6773 819.6112,-276.2413 826.3753,-274.4394"/>
</g>
<!-- Node26 -->
<g id="node27" class="node">
<title>Node26</title>
<g id="a_node27"><a xlink:href="string__utils_8h.html" target="_top" xlink:title="General utility&#45; and helper&#45;functions for RNA sequence and structure strings used throughout the Vien...">
<polygon fill="none" stroke="#000000" points="667.5,-308 667.5,-327 794.5,-327 794.5,-308 667.5,-308"/>
<text text-anchor="middle" x="731" y="-315" font-family="Helvetica,sans-Serif" font-size="10.00" fill="#000000">ViennaRNA/string_utils.h</text>
</a>
</g>
</g>
<!-- Node24&#45;&gt;Node26 -->
<g id="edge50" class="edge">
<title>Node24&#45;&gt;Node26</title>
<path fill="none" stroke="#191970" d="M844.9063,-369.3906C822.4173,-359.1457 786.6082,-342.8326 761.1476,-331.2339"/>
<polygon fill="#191970" stroke="#191970" points="762.4968,-328.0025 751.9456,-327.0419 759.5948,-334.3727 762.4968,-328.0025"/>
</g>
<!-- Node27 -->
<g id="node28" class="node">
<title>Node27</title>
<g id="a_node28"><a xlink:href="file__utils_8h.html" target="_top" xlink:title="Several utilities for file handling. ">
<polygon fill="none" stroke="#000000" points="851,-308 851,-327 967,-327 967,-308 851,-308"/>
<text text-anchor="middle" x="909" y="-315" font-family="Helvetica,sans-Serif" font-size="10.00" fill="#000000">ViennaRNA/file_utils.h</text>
</a>
</g>
</g>
<!-- Node24&#45;&gt;Node27 -->
<g id="edge54" class="edge">
<title>Node24&#45;&gt;Node27</title>
<path fill="none" stroke="#191970" d="M872.7188,-369.3906C878.993,-360.417 888.5223,-346.7879 896.2404,-335.7491"/>
<polygon fill="#191970" stroke="#191970" points="899.3247,-337.4459 902.1865,-327.2449 893.5879,-333.4348 899.3247,-337.4459"/>
</g>
<!-- Node28 -->
<g id="node29" class="node">
<title>Node28</title>
<g id="a_node29"><a xlink:href="alphabet_8h.html" target="_top" xlink:title="Functions to process, convert, and generally handle different nucleotide and/or base pair alphabets...">
<polygon fill="none" stroke="#000000" points="1310,-190.5 1310,-209.5 1426,-209.5 1426,-190.5 1310,-190.5"/>
<text text-anchor="middle" x="1368" y="-197.5" font-family="Helvetica,sans-Serif" font-size="10.00" fill="#000000">ViennaRNA/alphabet.h</text>
</a>
</g>
</g>
<!-- Node24&#45;&gt;Node28 -->
<g id="edge55" class="edge">
<title>Node24&#45;&gt;Node28</title>
<path fill="none" stroke="#191970" d="M892.9897,-369.3762C977.2725,-339.3232 1235.6563,-247.1903 1331.6192,-212.9724"/>
<polygon fill="#191970" stroke="#191970" points="1332.9387,-216.2179 1341.1822,-209.5625 1330.5876,-209.6245 1332.9387,-216.2179"/>
</g>
<!-- Node26&#45;&gt;Node2 -->
<g id="edge52" class="edge">
<title>Node26&#45;&gt;Node2</title>
<path fill="none" stroke="#191970" d="M724.5938,-307.8906C718.6114,-298.917 709.5253,-285.2879 702.1661,-274.2491"/>
<polygon fill="#191970" stroke="#191970" points="704.9558,-272.1239 696.4966,-265.7449 699.1314,-276.0068 704.9558,-272.1239"/>
</g>
<!-- Node26&#45;&gt;Node25 -->
<g id="edge51" class="edge">
<title>Node26&#45;&gt;Node25</title>
<path fill="none" stroke="#191970" d="M744.5938,-307.8906C758.3843,-298.1421 779.9472,-282.8994 796.141,-271.4521"/>
<polygon fill="#191970" stroke="#191970" points="798.3563,-274.1723 804.5017,-265.5419 794.3156,-268.4563 798.3563,-274.1723"/>
</g>
<!-- Node28&#45;&gt;Node6 -->
<g id="edge56" class="edge">
<title>Node28&#45;&gt;Node6</title>
<path fill="none" stroke="#191970" d="M1381.0766,-190.2865C1400.1828,-174.9452 1431.542,-144.63 1413,-123 1395.6832,-102.7992 1234.7999,-85.3007 1143.1509,-76.8658"/>
<polygon fill="#191970" stroke="#191970" points="1143.4229,-73.3762 1133.147,-75.9558 1142.7887,-80.3474 1143.4229,-73.3762"/>
</g>
<!-- Node29&#45;&gt;Node2 -->
<g id="edge63" class="edge">
<title>Node29&#45;&gt;Node2</title>
<path fill="none" stroke="#191970" d="M386.6163,-425.3514C401.1823,-409.7828 425.5127,-385.5454 450,-369 516.9384,-323.7717 604.8271,-287.4699 653.5263,-269.097"/>
<polygon fill="#191970" stroke="#191970" points="654.8677,-272.3323 663.0138,-265.558 652.4212,-265.7737 654.8677,-272.3323"/>
</g>
<!-- Node29&#45;&gt;Node7 -->
<g id="edge64" class="edge">
<title>Node29&#45;&gt;Node7</title>
<path fill="none" stroke="#191970" d="M322.285,-433.8736C259.0023,-422.4337 159,-392.4917 159,-317.5 159,-317.5 159,-317.5 159,-256 159,-215.0891 191.1251,-176.4062 212.4582,-155.2285"/>
<polygon fill="#191970" stroke="#191970" points="214.9477,-157.6906 219.75,-148.2466 210.1065,-152.6345 214.9477,-157.6906"/>
</g>
<!-- Node29&#45;&gt;Node10 -->
<g id="edge65" class="edge">
<title>Node29&#45;&gt;Node10</title>
<path fill="none" stroke="#191970" d="M376.6695,-425.1086C388.7053,-374.6251 426.9753,-214.1036 440.34,-158.0461"/>
<polygon fill="#191970" stroke="#191970" points="443.7511,-158.8301 442.6657,-148.291 436.9419,-157.2067 443.7511,-158.8301"/>
</g>
<!-- Node29&#45;&gt;Node24 -->
<g id="edge60" class="edge">
<title>Node29&#45;&gt;Node24</title>
<path fill="none" stroke="#191970" d="M423.887,-429.8707C433.2145,-428.1063 442.882,-426.3986 452,-425 577.5321,-405.7452 725.66,-391.2606 806.3079,-384.0627"/>
<polygon fill="#191970" stroke="#191970" points="807.1023,-387.5062 816.7545,-383.1375 806.4847,-380.5335 807.1023,-387.5062"/>
</g>
<!-- Node30 -->
<g id="node31" class="node">
<title>Node30</title>
<g id="a_node31"><a xlink:href="energy__par_8h_source.html" target="_top" xlink:title="ViennaRNA/energy_par.h">
<polygon fill="none" stroke="#000000" points="3,-246.5 3,-265.5 131,-265.5 131,-246.5 3,-246.5"/>
<text text-anchor="middle" x="67" y="-253.5" font-family="Helvetica,sans-Serif" font-size="10.00" fill="#000000">ViennaRNA/energy_par.h</text>
</a>
</g>
</g>
<!-- Node29&#45;&gt;Node30 -->
<g id="edge61" class="edge">
<title>Node29&#45;&gt;Node30</title>
<path fill="none" stroke="#191970" d="M322.2659,-433.8237C263.9835,-425.3406 172.8049,-409.327 145,-389 105.5273,-360.1431 82.6727,-304.7529 72.8178,-275.3859"/>
<polygon fill="#191970" stroke="#191970" points="76.0426,-273.9783 69.6697,-265.5145 69.3735,-276.1052 76.0426,-273.9783"/>
</g>
<!-- Node30&#45;&gt;Node3 -->
<g id="edge62" class="edge">
<title>Node30&#45;&gt;Node3</title>
<path fill="none" stroke="#191970" d="M67.1047,-246.3402C67.4193,-217.3223 68.3603,-130.5088 68.7863,-91.2113"/>
<polygon fill="#191970" stroke="#191970" points="72.2876,-91.1015 68.8963,-81.0641 65.288,-91.0256 72.2876,-91.1015"/>
</g>
<!-- Node31&#45;&gt;Node2 -->
<g id="edge68" class="edge">
<title>Node31&#45;&gt;Node2</title>
<path fill="none" stroke="#191970" d="M851.6694,-425.4542C926.8216,-403.448 1041.8699,-358.8491 993,-302 985.8164,-293.6435 861.0047,-276.8346 773.8379,-266.0151"/>
<polygon fill="#191970" stroke="#191970" points="774.0245,-262.5117 763.6708,-264.759 773.1661,-269.4588 774.0245,-262.5117"/>
</g>
<!-- Node31&#45;&gt;Node7 -->
<g id="edge69" class="edge">
<title>Node31&#45;&gt;Node7</title>
<path fill="none" stroke="#191970" d="M758.5099,-425.4412C680.5342,-390.9299 485.5134,-301.986 332,-210 302.9439,-192.5894 271.3671,-169.5034 251.3962,-154.337"/>
<polygon fill="#191970" stroke="#191970" points="253.4063,-151.468 243.3384,-148.1683 249.1511,-157.0263 253.4063,-151.468"/>
</g>
<!-- Node31&#45;&gt;Node24 -->
<g id="edge67" class="edge">
<title>Node31&#45;&gt;Node24</title>
<path fill="none" stroke="#191970" d="M811.0449,-425.2977C821.8114,-416.2274 835.4851,-404.7077 846.4995,-395.4285"/>
<polygon fill="#191970" stroke="#191970" points="848.9191,-397.9667 854.3118,-388.8469 844.4089,-392.6132 848.9191,-397.9667"/>
</g>
</g>
</svg>
        <g id="navigator" transform="translate(0 0)" fill="#404254">
                <rect fill="#f2f5e9" fill-opacity="0.5" stroke="#606060" stroke-width=".5" x="0" y="0" width="60" height="60"/>
                <use id="zoomplus" xlink:href="#zoomPlus" x="17" y="9" onmousedown="handleZoom(evt,'in')"/>
                <use id="zoomminus" xlink:href="#zoomMin" x="42" y="9" onmousedown="handleZoom(evt,'out')"/>
                <use id="reset" xlink:href="#resetDef" x="30" y="36" onmousedown="handleReset()"/>
                <g id="arrowUp" xlink:href="#dirArrow" transform="translate(30 24)" onmousedown="handlePan(0,-1)">
                  <use xlink:href="#rim" fill="#404040">
                        <set attributeName="fill" to="#808080" begin="arrowUp.mouseover" end="arrowUp.mouseout"/>
                  </use>
                  <path fill="none" stroke="white" stroke-width="1.5" d="M0,-3.0v7 M-2.5,-0.5L0,-3.0L2.5,-0.5"/>
                </g>
                <g id="arrowRight" xlink:href="#dirArrow" transform="rotate(90) translate(36 -43)" onmousedown="handlePan(1,0)">
                  <use xlink:href="#rim" fill="#404040">
                        <set attributeName="fill" to="#808080" begin="arrowRight.mouseover" end="arrowRight.mouseout"/>
                  </use>
                  <path fill="none" stroke="white" stroke-width="1.5" d="M0,-3.0v7 M-2.5,-0.5L0,-3.0L2.5,-0.5"/>
                </g>
                <g id="arrowDown" xlink:href="#dirArrow" transform="rotate(180) translate(-30 -48)" onmousedown="handlePan(0,1)">
                  <use xlink:href="#rim" fill="#404040">
                        <set attributeName="fill" to="#808080" begin="arrowDown.mouseover" end="arrowDown.mouseout"/>
                  </use>
                  <path fill="none" stroke="white" stroke-width="1.5" d="M0,-3.0v7 M-2.5,-0.5L0,-3.0L2.5,-0.5"/>
                </g>
                <g id="arrowLeft" xlink:href="#dirArrow" transform="rotate(270) translate(-36 17)" onmousedown="handlePan(-1,0)">
                  <use xlink:href="#rim" fill="#404040">
                        <set attributeName="fill" to="#808080" begin="arrowLeft.mouseover" end="arrowLeft.mouseout"/>
                  </use>
                  <path fill="none" stroke="white" stroke-width="1.5" d="M0,-3.0v7 M-2.5,-0.5L0,-3.0L2.5,-0.5"/>
                </g>
        </g>
        <svg viewBox="0 0 15 15" width="100%" height="30px" preserveAspectRatio="xMaxYMin meet">
         <g id="arrow_out" transform="scale(0.3 0.3)">
          <a xlink:href="loop__energies_8h__incl_org.svg" target="_base">
           <rect id="button" ry="5" rx="5" y="6" x="6" height="38" width="38"
                fill="#f2f5e9" fill-opacity="0.5" stroke="#606060" stroke-width="1.0"/>
           <path id="arrow"
             d="M 11.500037,31.436501 C 11.940474,20.09759 22.043105,11.32322 32.158766,21.979434 L 37.068811,17.246167 C 37.068811,17.246167 37.088388,32 37.088388,32 L 22.160133,31.978069 C 22.160133,31.978069 26.997745,27.140456 26.997745,27.140456 C 18.528582,18.264221 13.291696,25.230495 11.500037,31.436501 z"
             style="fill:#404040;"/>
          </a>
         </g>
        </svg>
</svg>
