<?xml version="1.0" encoding="UTF-8" standalone="no"?>
<!DOCTYPE svg PUBLIC "-//W3C//DTD SVG 1.1//EN"
 "http://www.w3.org/Graphics/SVG/1.1/DTD/svg11.dtd">
<!-- Generated by graphviz version 2.40.1 (20161225.0304)
 -->
<!-- Title: ViennaRNA/mfe.h Pages: 1 -->
<svg width="470pt" height="84pt"
 viewBox="0.00 0.00 470.00 84.00" xmlns="http://www.w3.org/2000/svg" xmlns:xlink="http://www.w3.org/1999/xlink">
<g id="graph0" class="graph" transform="scale(1 1) rotate(0) translate(4 80)">
<title>ViennaRNA/mfe.h</title>
<!-- Node20 -->
<g id="node1" class="node">
<title>Node20</title>
<polygon fill="#bfbfbf" stroke="#000000" points="187.5,-56.5 187.5,-75.5 283.5,-75.5 283.5,-56.5 187.5,-56.5"/>
<text text-anchor="middle" x="235.5" y="-63.5" font-family="Helvetica,sans-Serif" font-size="10.00" fill="#000000">ViennaRNA/mfe.h</text>
</g>
<!-- Node21 -->
<g id="node2" class="node">
<title>Node21</title>
<g id="a_node2"><a xlink:href="alifold_8h.html" target="_top" xlink:title="Functions for comparative structure prediction using RNA sequence alignments. ">
<polygon fill="none" stroke="#000000" points="0,-.5 0,-19.5 105,-19.5 105,-.5 0,-.5"/>
<text text-anchor="middle" x="52.5" y="-7.5" font-family="Helvetica,sans-Serif" font-size="10.00" fill="#000000">ViennaRNA/alifold.h</text>
</a>
</g>
</g>
<!-- Node20&#45;&gt;Node21 -->
<g id="edge1" class="edge">
<title>Node20&#45;&gt;Node21</title>
<path fill="none" stroke="#191970" d="M194.075,-53.3235C160.5144,-43.0536 113.966,-28.8093 83.5483,-19.5011"/>
<polygon fill="#191970" stroke="#191970" points="193.4547,-56.7938 204.0412,-56.3733 195.5031,-50.1002 193.4547,-56.7938"/>
</g>
<!-- Node22 -->
<g id="node3" class="node">
<title>Node22</title>
<g id="a_node3"><a xlink:href="cofold_8h.html" target="_top" xlink:title="MFE implementations for RNA&#45;RNA interaction. ">
<polygon fill="none" stroke="#000000" points="123.5,-.5 123.5,-19.5 229.5,-19.5 229.5,-.5 123.5,-.5"/>
<text text-anchor="middle" x="176.5" y="-7.5" font-family="Helvetica,sans-Serif" font-size="10.00" fill="#000000">ViennaRNA/cofold.h</text>
</a>
</g>
</g>
<!-- Node20&#45;&gt;Node22 -->
<g id="edge2" class="edge">
<title>Node20&#45;&gt;Node22</title>
<path fill="none" stroke="#191970" d="M217.9693,-49.3607C207.7623,-39.6727 195.2531,-27.7995 186.6592,-19.6427"/>
<polygon fill="#191970" stroke="#191970" points="215.5604,-51.8998 225.223,-56.2455 220.3794,-46.8227 215.5604,-51.8998"/>
</g>
<!-- Node23 -->
<g id="node4" class="node">
<title>Node23</title>
<g id="a_node4"><a xlink:href="fold_8h.html" target="_top" xlink:title="MFE calculations for single RNA sequences. ">
<polygon fill="none" stroke="#000000" points="248,-.5 248,-19.5 343,-19.5 343,-.5 248,-.5"/>
<text text-anchor="middle" x="295.5" y="-7.5" font-family="Helvetica,sans-Serif" font-size="10.00" fill="#000000">ViennaRNA/fold.h</text>
</a>
</g>
</g>
<!-- Node20&#45;&gt;Node23 -->
<g id="edge3" class="edge">
<title>Node20&#45;&gt;Node23</title>
<path fill="none" stroke="#191970" d="M253.3278,-49.3607C263.7078,-39.6727 276.4291,-27.7995 285.1686,-19.6427"/>
<polygon fill="#191970" stroke="#191970" points="250.8737,-46.8636 245.9512,-56.2455 255.6499,-51.981 250.8737,-46.8636"/>
</g>
<!-- Node24 -->
<g id="node5" class="node">
<title>Node24</title>
<g id="a_node5"><a xlink:href="Lfold_8h.html" target="_top" xlink:title="Functions for locally optimal MFE structure prediction. ">
<polygon fill="none" stroke="#000000" points="361,-.5 361,-19.5 462,-19.5 462,-.5 361,-.5"/>
<text text-anchor="middle" x="411.5" y="-7.5" font-family="Helvetica,sans-Serif" font-size="10.00" fill="#000000">ViennaRNA/Lfold.h</text>
</a>
</g>
</g>
<!-- Node20&#45;&gt;Node24 -->
<g id="edge4" class="edge">
<title>Node20&#45;&gt;Node24</title>
<path fill="none" stroke="#191970" d="M275.3404,-53.3235C307.6173,-43.0536 352.3852,-28.8093 381.6393,-19.5011"/>
<polygon fill="#191970" stroke="#191970" points="274.2235,-50.0059 265.7555,-56.3733 276.346,-56.6764 274.2235,-50.0059"/>
</g>
</g>
</svg>
