<?xml version="1.0" encoding="UTF-8" standalone="no"?>
<!DOCTYPE svg PUBLIC "-//W3C//DTD SVG 1.1//EN"
 "http://www.w3.org/Graphics/SVG/1.1/DTD/svg11.dtd">
<!-- Generated by graphviz version 2.40.1 (20161225.0304)
 -->
<!-- Title: ViennaRNA/multibranch_loops.h Pages: 1 -->
<svg width="1514pt" height="453pt"
 viewBox="0.00 0.00 1514.00 453.00" xmlns="http://www.w3.org/2000/svg" xmlns:xlink="http://www.w3.org/1999/xlink">
<g id="graph0" class="graph" transform="scale(1 1) rotate(0) translate(4 449)">
<title>ViennaRNA/multibranch_loops.h</title>
<!-- Node0 -->
<g id="node1" class="node">
<title>Node0</title>
<polygon fill="#bfbfbf" stroke="#000000" points="710,-414.5 710,-444.5 832,-444.5 832,-414.5 710,-414.5"/>
<text text-anchor="start" x="718" y="-432.5" font-family="Helvetica,sans-Serif" font-size="10.00" fill="#000000">ViennaRNA/multibranch</text>
<text text-anchor="middle" x="771" y="-421.5" font-family="Helvetica,sans-Serif" font-size="10.00" fill="#000000">_loops.h</text>
</g>
<!-- Node1 -->
<g id="node2" class="node">
<title>Node1</title>
<g id="a_node2"><a xlink:href="utils_8h.html" target="_top" xlink:title="General utility&#45; and helper&#45;functions used throughout the ViennaRNA Package. ">
<polygon fill="none" stroke="#000000" points="898,-358.5 898,-377.5 996,-377.5 996,-358.5 898,-358.5"/>
<text text-anchor="middle" x="947" y="-365.5" font-family="Helvetica,sans-Serif" font-size="10.00" fill="#000000">ViennaRNA/utils.h</text>
</a>
</g>
</g>
<!-- Node0&#45;&gt;Node1 -->
<g id="edge1" class="edge">
<title>Node0&#45;&gt;Node1</title>
<path fill="none" stroke="#191970" d="M814.0544,-414.4554C843.4205,-404.194 881.9145,-390.7429 909.9195,-380.9571"/>
<polygon fill="#191970" stroke="#191970" points="911.4406,-384.1332 919.7262,-377.5303 909.1314,-377.525 911.4406,-384.1332"/>
</g>
<!-- Node4 -->
<g id="node5" class="node">
<title>Node4</title>
<g id="a_node5"><a xlink:href="data__structures_8h.html" target="_top" xlink:title="Various data structures and pre&#45;processor macros. ">
<polygon fill="none" stroke="#000000" points="735.5,-246.5 735.5,-265.5 882.5,-265.5 882.5,-246.5 735.5,-246.5"/>
<text text-anchor="middle" x="809" y="-253.5" font-family="Helvetica,sans-Serif" font-size="10.00" fill="#000000">ViennaRNA/data_structures.h</text>
</a>
</g>
</g>
<!-- Node0&#45;&gt;Node4 -->
<g id="edge51" class="edge">
<title>Node0&#45;&gt;Node4</title>
<path fill="none" stroke="#191970" d="M774.3058,-414.4065C781.1817,-383.0126 797.0205,-310.6961 804.6869,-275.6925"/>
<polygon fill="#191970" stroke="#191970" points="808.1466,-276.2553 806.8672,-265.738 801.3087,-274.7576 808.1466,-276.2553"/>
</g>
<!-- Node9 -->
<g id="node10" class="node">
<title>Node9</title>
<g id="a_node10"><a xlink:href="params_8h.html" target="_top" xlink:title="Functions to deal with sets of energy parameters. ">
<polygon fill="none" stroke="#000000" points="154,-129 154,-148 266,-148 266,-129 154,-129"/>
<text text-anchor="middle" x="210" y="-136" font-family="Helvetica,sans-Serif" font-size="10.00" fill="#000000">ViennaRNA/params.h</text>
</a>
</g>
</g>
<!-- Node0&#45;&gt;Node9 -->
<g id="edge52" class="edge">
<title>Node0&#45;&gt;Node9</title>
<path fill="none" stroke="#191970" d="M709.8459,-423.0377C564.7987,-406.8871 212,-362.4214 212,-312 212,-312 212,-312 212,-256 212,-221.6349 211.1342,-181.6246 210.5419,-158.2746"/>
<polygon fill="#191970" stroke="#191970" points="214.04,-158.1524 210.2781,-148.248 207.0424,-158.3366 214.04,-158.1524"/>
</g>
<!-- Node2 -->
<g id="node3" class="node">
<title>Node2</title>
<polygon fill="none" stroke="#bfbfbf" points="1440,-.5 1440,-19.5 1486,-19.5 1486,-.5 1440,-.5"/>
<text text-anchor="middle" x="1463" y="-7.5" font-family="Helvetica,sans-Serif" font-size="10.00" fill="#000000">stdio.h</text>
</g>
<!-- Node1&#45;&gt;Node2 -->
<g id="edge2" class="edge">
<title>Node1&#45;&gt;Node2</title>
<path fill="none" stroke="#191970" d="M996.1441,-366.3681C1071.2872,-362.9552 1218.7841,-352.6254 1340,-322 1416.9764,-302.5518 1506,-335.3952 1506,-256 1506,-256 1506,-256 1506,-138.5 1506,-97.5611 1486.1297,-52.9012 1473.404,-28.4971"/>
<polygon fill="#191970" stroke="#191970" points="1476.4479,-26.7676 1468.6215,-19.6263 1470.2863,-30.0895 1476.4479,-26.7676"/>
</g>
<!-- Node3 -->
<g id="node4" class="node">
<title>Node3</title>
<polygon fill="none" stroke="#bfbfbf" points="934,-246.5 934,-265.5 986,-265.5 986,-246.5 934,-246.5"/>
<text text-anchor="middle" x="960" y="-253.5" font-family="Helvetica,sans-Serif" font-size="10.00" fill="#000000">stdarg.h</text>
</g>
<!-- Node1&#45;&gt;Node3 -->
<g id="edge3" class="edge">
<title>Node1&#45;&gt;Node3</title>
<path fill="none" stroke="#191970" d="M954.6619,-358.4654C961.2487,-349.6125 970.2597,-335.7614 974,-322 978.218,-306.481 973.8848,-288.6243 968.9594,-275.4012"/>
<polygon fill="#191970" stroke="#191970" points="972.0942,-273.8231 965.0344,-265.9231 965.6268,-276.5013 972.0942,-273.8231"/>
</g>
<!-- Node1&#45;&gt;Node4 -->
<g id="edge4" class="edge">
<title>Node1&#45;&gt;Node4</title>
<path fill="none" stroke="#191970" d="M897.7191,-359.61C873.6682,-353.1293 846.0936,-341.7715 828,-322 816.5667,-309.5065 811.9716,-290.5604 810.1462,-276.1672"/>
<polygon fill="#191970" stroke="#191970" points="813.5952,-275.4499 809.1983,-265.8105 806.6244,-276.0879 813.5952,-275.4499"/>
</g>
<!-- Node21 -->
<g id="node22" class="node">
<title>Node21</title>
<g id="a_node22"><a xlink:href="structure__utils_8h.html" target="_top" xlink:title="Various utility&#45; and helper&#45;functions for secondary structure parsing, converting, etc. ">
<polygon fill="none" stroke="#000000" points="1366,-56.5 1366,-86.5 1476,-86.5 1476,-56.5 1366,-56.5"/>
<text text-anchor="start" x="1374" y="-74.5" font-family="Helvetica,sans-Serif" font-size="10.00" fill="#000000">ViennaRNA/structure</text>
<text text-anchor="middle" x="1421" y="-63.5" font-family="Helvetica,sans-Serif" font-size="10.00" fill="#000000">_utils.h</text>
</a>
</g>
</g>
<!-- Node1&#45;&gt;Node21 -->
<g id="edge47" class="edge">
<title>Node1&#45;&gt;Node21</title>
<path fill="none" stroke="#191970" d="M996.0144,-362.6311C1125.7102,-347.7675 1468,-303.9936 1468,-256 1468,-256 1468,-256 1468,-200 1468,-161.6644 1449.3219,-120.5958 1435.5151,-95.4747"/>
<polygon fill="#191970" stroke="#191970" points="1438.494,-93.6326 1430.5112,-86.6666 1432.4076,-97.0903 1438.494,-93.6326"/>
</g>
<!-- Node22 -->
<g id="node23" class="node">
<title>Node22</title>
<g id="a_node23"><a xlink:href="string__utils_8h.html" target="_top" xlink:title="General utility&#45; and helper&#45;functions for RNA sequence and structure strings used throughout the Vien...">
<polygon fill="none" stroke="#000000" points="837.5,-302.5 837.5,-321.5 964.5,-321.5 964.5,-302.5 837.5,-302.5"/>
<text text-anchor="middle" x="901" y="-309.5" font-family="Helvetica,sans-Serif" font-size="10.00" fill="#000000">ViennaRNA/string_utils.h</text>
</a>
</g>
</g>
<!-- Node1&#45;&gt;Node22 -->
<g id="edge44" class="edge">
<title>Node1&#45;&gt;Node22</title>
<path fill="none" stroke="#191970" d="M938.9874,-358.2455C932.5232,-350.3761 923.2615,-339.101 915.5017,-329.6542"/>
<polygon fill="#191970" stroke="#191970" points="917.9727,-327.1484 908.9208,-321.6427 912.5636,-331.5916 917.9727,-327.1484"/>
</g>
<!-- Node23 -->
<g id="node24" class="node">
<title>Node23</title>
<g id="a_node24"><a xlink:href="file__utils_8h.html" target="_top" xlink:title="Several utilities for file handling. ">
<polygon fill="none" stroke="#000000" points="1021,-302.5 1021,-321.5 1137,-321.5 1137,-302.5 1021,-302.5"/>
<text text-anchor="middle" x="1079" y="-309.5" font-family="Helvetica,sans-Serif" font-size="10.00" fill="#000000">ViennaRNA/file_utils.h</text>
</a>
</g>
</g>
<!-- Node1&#45;&gt;Node23 -->
<g id="edge48" class="edge">
<title>Node1&#45;&gt;Node23</title>
<path fill="none" stroke="#191970" d="M969.6916,-358.3733C991.0711,-349.3032 1023.3057,-335.6279 1047.2362,-325.4755"/>
<polygon fill="#191970" stroke="#191970" points="1048.7656,-328.6287 1056.6045,-321.5011 1046.0317,-322.1846 1048.7656,-328.6287"/>
</g>
<!-- Node24 -->
<g id="node25" class="node">
<title>Node24</title>
<g id="a_node25"><a xlink:href="alphabet_8h.html" target="_top" xlink:title="Functions to process, convert, and generally handle different nucleotide and/or base pair alphabets...">
<polygon fill="none" stroke="#000000" points="68,-190.5 68,-209.5 184,-209.5 184,-190.5 68,-190.5"/>
<text text-anchor="middle" x="126" y="-197.5" font-family="Helvetica,sans-Serif" font-size="10.00" fill="#000000">ViennaRNA/alphabet.h</text>
</a>
</g>
</g>
<!-- Node1&#45;&gt;Node24 -->
<g id="edge49" class="edge">
<title>Node1&#45;&gt;Node24</title>
<path fill="none" stroke="#191970" d="M900.5071,-358.4862C759.4137,-329.6145 336.4103,-243.0559 182.6559,-211.5934"/>
<polygon fill="#191970" stroke="#191970" points="182.9892,-208.0892 172.4905,-209.5133 181.5858,-214.9471 182.9892,-208.0892"/>
</g>
<!-- Node5 -->
<g id="node6" class="node">
<title>Node5</title>
<g id="a_node6"><a xlink:href="energy__const_8h.html" target="_top" xlink:title="Energy parameter constants. ">
<polygon fill="none" stroke="#000000" points="0,-62 0,-81 138,-81 138,-62 0,-62"/>
<text text-anchor="middle" x="69" y="-69" font-family="Helvetica,sans-Serif" font-size="10.00" fill="#000000">ViennaRNA/energy_const.h</text>
</a>
</g>
</g>
<!-- Node4&#45;&gt;Node5 -->
<g id="edge5" class="edge">
<title>Node4&#45;&gt;Node5</title>
<path fill="none" stroke="#191970" d="M735.3022,-254.1768C550.7738,-249.2539 81.9445,-234.3949 59,-210 28.5641,-177.6402 47.1262,-120.1046 59.917,-90.404"/>
<polygon fill="#191970" stroke="#191970" points="63.1725,-91.6995 64.1108,-81.1463 56.7962,-88.811 63.1725,-91.6995"/>
</g>
<!-- Node7 -->
<g id="node8" class="node">
<title>Node7</title>
<g id="a_node8"><a xlink:href="fold__compound_8h.html" target="_top" xlink:title="The Basic Fold Compound API. ">
<polygon fill="none" stroke="#000000" points="626,-190.5 626,-209.5 772,-209.5 772,-190.5 626,-190.5"/>
<text text-anchor="middle" x="699" y="-197.5" font-family="Helvetica,sans-Serif" font-size="10.00" fill="#000000">ViennaRNA/fold_compound.h</text>
</a>
</g>
</g>
<!-- Node4&#45;&gt;Node7 -->
<g id="edge7" class="edge">
<title>Node4&#45;&gt;Node7</title>
<path fill="none" stroke="#191970" d="M789.8395,-246.2455C772.4889,-237.4125 746.7099,-224.2887 727.0417,-214.2758"/>
<polygon fill="#191970" stroke="#191970" points="728.4405,-211.0605 717.941,-209.6427 725.2647,-217.2986 728.4405,-211.0605"/>
</g>
<!-- Node8 -->
<g id="node9" class="node">
<title>Node8</title>
<g id="a_node9"><a xlink:href="model_8h.html" target="_top" xlink:title="The model details data structure and its corresponding modifiers. ">
<polygon fill="none" stroke="#000000" points="213,-62 213,-81 319,-81 319,-62 213,-62"/>
<text text-anchor="middle" x="266" y="-69" font-family="Helvetica,sans-Serif" font-size="10.00" fill="#000000">ViennaRNA/model.h</text>
</a>
</g>
</g>
<!-- Node4&#45;&gt;Node8 -->
<g id="edge36" class="edge">
<title>Node4&#45;&gt;Node8</title>
<path fill="none" stroke="#191970" d="M735.3639,-253.4128C659.378,-249.2395 538.0304,-238.3543 437,-210 378.7789,-193.6601 357.7137,-194.7109 313,-154 293.6526,-136.3846 280.2284,-108.8965 272.8202,-90.551"/>
<polygon fill="#191970" stroke="#191970" points="276.0797,-89.2754 269.2391,-81.1849 269.5413,-91.7754 276.0797,-89.2754"/>
</g>
<!-- Node4&#45;&gt;Node9 -->
<g id="edge37" class="edge">
<title>Node4&#45;&gt;Node9</title>
<path fill="none" stroke="#191970" d="M735.4924,-255.126C610.341,-252.7179 362.0614,-243.6992 283,-210 255.4383,-198.2521 230.5496,-173.6112 217.7445,-156.5655"/>
<polygon fill="#191970" stroke="#191970" points="220.4465,-154.3142 211.9334,-148.0072 214.6553,-158.2464 220.4465,-154.3142"/>
</g>
<!-- Node11 -->
<g id="node12" class="node">
<title>Node11</title>
<g id="a_node12"><a xlink:href="dp__matrices_8h.html" target="_top" xlink:title="Functions to deal with standard dynamic programming (DP) matrices. ">
<polygon fill="none" stroke="#000000" points="322.5,-129 322.5,-148 455.5,-148 455.5,-129 322.5,-129"/>
<text text-anchor="middle" x="389" y="-136" font-family="Helvetica,sans-Serif" font-size="10.00" fill="#000000">ViennaRNA/dp_matrices.h</text>
</a>
</g>
</g>
<!-- Node4&#45;&gt;Node11 -->
<g id="edge38" class="edge">
<title>Node4&#45;&gt;Node11</title>
<path fill="none" stroke="#191970" d="M735.2269,-251.4808C647.7121,-245.0211 507.9894,-231.495 461,-210 434.0865,-197.6886 409.5792,-173.3926 396.8427,-156.5617"/>
<polygon fill="#191970" stroke="#191970" points="399.5817,-154.3673 391.0373,-148.1027 393.8101,-158.3283 399.5817,-154.3673"/>
</g>
<!-- Node12 -->
<g id="node13" class="node">
<title>Node12</title>
<g id="a_node13"><a xlink:href="constraints_8h.html" target="_top" xlink:title="Functions and data structures for constraining secondary structure predictions and evaluation...">
<polygon fill="none" stroke="#000000" points="1036,-129 1036,-148 1164,-148 1164,-129 1036,-129"/>
<text text-anchor="middle" x="1100" y="-136" font-family="Helvetica,sans-Serif" font-size="10.00" fill="#000000">ViennaRNA/constraints.h</text>
</a>
</g>
</g>
<!-- Node4&#45;&gt;Node12 -->
<g id="edge39" class="edge">
<title>Node4&#45;&gt;Node12</title>
<path fill="none" stroke="#191970" d="M882.7562,-248.5826C922.943,-242.3618 972.5082,-230.9428 1013,-210 1039.0816,-196.5103 1063.0023,-171.9911 1079.4832,-155.4749"/>
<polygon fill="#191970" stroke="#191970" points="1082.3002,-157.6118 1086.953,-148.0933 1077.3799,-152.6327 1082.3002,-157.6118"/>
</g>
<!-- Node18 -->
<g id="node19" class="node">
<title>Node18</title>
<g id="a_node19"><a xlink:href="grammar_8h.html" target="_top" xlink:title="Implementations for the RNA folding grammar. ">
<polygon fill="none" stroke="#000000" points="728,-129 728,-148 846,-148 846,-129 728,-129"/>
<text text-anchor="middle" x="787" y="-136" font-family="Helvetica,sans-Serif" font-size="10.00" fill="#000000">ViennaRNA/grammar.h</text>
</a>
</g>
</g>
<!-- Node4&#45;&gt;Node18 -->
<g id="edge40" class="edge">
<title>Node4&#45;&gt;Node18</title>
<path fill="none" stroke="#191970" d="M803.2878,-246.3845C796.4044,-227.1913 787.8476,-183.786 785.4997,-158.2663"/>
<polygon fill="#191970" stroke="#191970" points="788.9911,-158.0176 784.8907,-148.2484 782.004,-158.4423 788.9911,-158.0176"/>
</g>
<!-- Node19 -->
<g id="node20" class="node">
<title>Node19</title>
<g id="a_node20"><a xlink:href="structured__domains_8h.html" target="_top" xlink:title="This module provides interfaces that deal with additional structured domains in the folding grammar...">
<polygon fill="none" stroke="#000000" points="864.5,-123.5 864.5,-153.5 979.5,-153.5 979.5,-123.5 864.5,-123.5"/>
<text text-anchor="start" x="872.5" y="-141.5" font-family="Helvetica,sans-Serif" font-size="10.00" fill="#000000">ViennaRNA/structured</text>
<text text-anchor="middle" x="922" y="-130.5" font-family="Helvetica,sans-Serif" font-size="10.00" fill="#000000">_domains.h</text>
</a>
</g>
</g>
<!-- Node4&#45;&gt;Node19 -->
<g id="edge41" class="edge">
<title>Node4&#45;&gt;Node19</title>
<path fill="none" stroke="#191970" d="M818.2473,-246.3845C836.0172,-227.9068 875.3683,-186.9887 900.1762,-161.1928"/>
<polygon fill="#191970" stroke="#191970" points="902.9594,-163.3482 907.3684,-153.7143 897.9139,-158.496 902.9594,-163.3482"/>
</g>
<!-- Node20 -->
<g id="node21" class="node">
<title>Node20</title>
<g id="a_node21"><a xlink:href="unstructured__domains_8h.html" target="_top" xlink:title="Functions to modify unstructured domains, e.g. to incorporate ligands binding to unpaired stretches...">
<polygon fill="none" stroke="#000000" points="1258.5,-123.5 1258.5,-153.5 1383.5,-153.5 1383.5,-123.5 1258.5,-123.5"/>
<text text-anchor="start" x="1266.5" y="-141.5" font-family="Helvetica,sans-Serif" font-size="10.00" fill="#000000">ViennaRNA/unstructured</text>
<text text-anchor="middle" x="1321" y="-130.5" font-family="Helvetica,sans-Serif" font-size="10.00" fill="#000000">_domains.h</text>
</a>
</g>
</g>
<!-- Node4&#45;&gt;Node20 -->
<g id="edge42" class="edge">
<title>Node4&#45;&gt;Node20</title>
<path fill="none" stroke="#191970" d="M882.9612,-248.8917C1000.7428,-237.8874 1219.0791,-217.2414 1235,-210 1258.9744,-199.0956 1280.3977,-177.7496 1296.1365,-161.2076"/>
<polygon fill="#191970" stroke="#191970" points="1299.0614,-163.2088 1303.3925,-153.5396 1293.9769,-158.3975 1299.0614,-163.2088"/>
</g>
<!-- Node4&#45;&gt;Node21 -->
<g id="edge43" class="edge">
<title>Node4&#45;&gt;Node21</title>
<path fill="none" stroke="#191970" d="M882.5989,-249.052C1008.5498,-237.5637 1253.4445,-215.3437 1272,-210 1325.4797,-194.5986 1347.4216,-195.944 1384,-154 1398.1274,-137.8003 1405.1984,-114.1634 1410.2334,-96.3383"/>
<polygon fill="#191970" stroke="#191970" points="1413.6296,-97.191 1413.0006,-86.6149 1406.897,-95.2749 1413.6296,-97.191"/>
</g>
<!-- Node6 -->
<g id="node7" class="node">
<title>Node6</title>
<polygon fill="none" stroke="#bfbfbf" points="45,-.5 45,-19.5 93,-19.5 93,-.5 45,-.5"/>
<text text-anchor="middle" x="69" y="-7.5" font-family="Helvetica,sans-Serif" font-size="10.00" fill="#000000">limits.h</text>
</g>
<!-- Node5&#45;&gt;Node6 -->
<g id="edge6" class="edge">
<title>Node5&#45;&gt;Node6</title>
<path fill="none" stroke="#191970" d="M69,-61.8906C69,-53.3657 69,-40.6392 69,-29.9235"/>
<polygon fill="#191970" stroke="#191970" points="72.5001,-29.7448 69,-19.7449 65.5001,-29.7449 72.5001,-29.7448"/>
</g>
<!-- Node7&#45;&gt;Node8 -->
<g id="edge8" class="edge">
<title>Node7&#45;&gt;Node8</title>
<path fill="none" stroke="#191970" d="M671.6768,-190.4341C628.0376,-175.2951 539.7977,-145.2521 464,-123 413.7313,-108.2425 355.6585,-93.3941 315.4626,-83.4586"/>
<polygon fill="#191970" stroke="#191970" points="316.1909,-80.0334 305.6441,-81.0415 314.5175,-86.8305 316.1909,-80.0334"/>
</g>
<!-- Node7&#45;&gt;Node9 -->
<g id="edge9" class="edge">
<title>Node7&#45;&gt;Node9</title>
<path fill="none" stroke="#191970" d="M625.9926,-191.9766C548.3095,-183.2811 421.8524,-168.6728 313,-154 301.0992,-152.3958 288.4418,-150.5809 276.2212,-148.7726"/>
<polygon fill="#191970" stroke="#191970" points="276.4919,-145.2743 266.0848,-147.2599 275.4587,-152.1976 276.4919,-145.2743"/>
</g>
<!-- Node10 -->
<g id="node11" class="node">
<title>Node10</title>
<g id="a_node11"><a xlink:href="sequence_8h.html" target="_top" xlink:title="Functions and data structures related to sequence representations. ">
<polygon fill="none" stroke="#000000" points="588,-129 588,-148 710,-148 710,-129 588,-129"/>
<text text-anchor="middle" x="649" y="-136" font-family="Helvetica,sans-Serif" font-size="10.00" fill="#000000">ViennaRNA/sequence.h</text>
</a>
</g>
</g>
<!-- Node7&#45;&gt;Node10 -->
<g id="edge13" class="edge">
<title>Node7&#45;&gt;Node10</title>
<path fill="none" stroke="#191970" d="M691.1875,-190.3906C683.746,-181.2376 672.3666,-167.2409 663.3008,-156.09"/>
<polygon fill="#191970" stroke="#191970" points="665.9467,-153.7962 656.9226,-148.2449 660.5153,-158.212 665.9467,-153.7962"/>
</g>
<!-- Node7&#45;&gt;Node11 -->
<g id="edge14" class="edge">
<title>Node7&#45;&gt;Node11</title>
<path fill="none" stroke="#191970" d="M650.9026,-190.4581C595.8408,-179.5345 505.6868,-161.6492 446.8409,-149.9749"/>
<polygon fill="#191970" stroke="#191970" points="447.4451,-146.5266 436.9551,-148.0137 446.0829,-153.3928 447.4451,-146.5266"/>
</g>
<!-- Node7&#45;&gt;Node12 -->
<g id="edge16" class="edge">
<title>Node7&#45;&gt;Node12</title>
<path fill="none" stroke="#191970" d="M761.2163,-190.4581C833.3244,-179.3991 951.9583,-161.2047 1027.9921,-149.5436"/>
<polygon fill="#191970" stroke="#191970" points="1028.6139,-152.9893 1037.9677,-148.0137 1027.5527,-146.0702 1028.6139,-152.9893"/>
</g>
<!-- Node7&#45;&gt;Node18 -->
<g id="edge28" class="edge">
<title>Node7&#45;&gt;Node18</title>
<path fill="none" stroke="#191970" d="M712.75,-190.3906C726.6991,-180.6421 748.5098,-165.3994 764.8897,-153.9521"/>
<polygon fill="#191970" stroke="#191970" points="767.1548,-156.6392 773.3466,-148.0419 763.1449,-150.9015 767.1548,-156.6392"/>
</g>
<!-- Node7&#45;&gt;Node19 -->
<g id="edge30" class="edge">
<title>Node7&#45;&gt;Node19</title>
<path fill="none" stroke="#191970" d="M733.8438,-190.3906C766.8884,-181.2774 817.3434,-167.3627 857.6897,-156.2358"/>
<polygon fill="#191970" stroke="#191970" points="858.7385,-159.5773 867.4481,-153.5446 856.8774,-152.8292 858.7385,-159.5773"/>
</g>
<!-- Node7&#45;&gt;Node20 -->
<g id="edge31" class="edge">
<title>Node7&#45;&gt;Node20</title>
<path fill="none" stroke="#191970" d="M772.0982,-193.08C865.2156,-184.2248 1031.1003,-168.3158 1173,-154 1197.5157,-151.5267 1224.3067,-148.7449 1248.2748,-146.2278"/>
<polygon fill="#191970" stroke="#191970" points="1248.7803,-149.694 1258.3592,-145.1669 1248.0479,-142.7324 1248.7803,-149.694"/>
</g>
<!-- Node9&#45;&gt;Node4 -->
<g id="edge11" class="edge">
<title>Node9&#45;&gt;Node4</title>
<path fill="none" stroke="#191970" d="M222.8045,-148.0072C239.4232,-164.0427 268.3343,-196.0765 301,-210 375.5815,-241.7897 600.7475,-251.6166 724.834,-254.6497"/>
<polygon fill="#191970" stroke="#191970" points="724.9744,-258.1539 735.0539,-254.8897 725.1388,-251.1558 724.9744,-258.1539"/>
</g>
<!-- Node9&#45;&gt;Node5 -->
<g id="edge10" class="edge">
<title>Node9&#45;&gt;Node5</title>
<path fill="none" stroke="#191970" d="M189.7981,-128.9005C165.821,-117.5072 125.6479,-98.4178 98.2679,-85.4075"/>
<polygon fill="#191970" stroke="#191970" points="99.6987,-82.2123 89.1644,-81.0817 96.6944,-88.5348 99.6987,-82.2123"/>
</g>
<!-- Node9&#45;&gt;Node8 -->
<g id="edge12" class="edge">
<title>Node9&#45;&gt;Node8</title>
<path fill="none" stroke="#191970" d="M218.0234,-128.9005C226.7561,-118.4525 240.8982,-101.5325 251.5708,-88.7635"/>
<polygon fill="#191970" stroke="#191970" points="254.2638,-90.9991 257.9914,-81.0817 248.8928,-86.5099 254.2638,-90.9991"/>
</g>
<!-- Node11&#45;&gt;Node4 -->
<g id="edge15" class="edge">
<title>Node11&#45;&gt;Node4</title>
<path fill="none" stroke="#191970" d="M402.0215,-148.1027C418.5849,-163.9831 447.1025,-195.4087 479,-210 521.9044,-229.6263 642.1197,-242.6091 725.0121,-249.6353"/>
<polygon fill="#191970" stroke="#191970" points="724.9248,-253.1401 735.1811,-250.4835 725.5066,-246.1643 724.9248,-253.1401"/>
</g>
<!-- Node12&#45;&gt;Node4 -->
<g id="edge17" class="edge">
<title>Node12&#45;&gt;Node4</title>
<path fill="none" stroke="#191970" d="M1098.0492,-148.0933C1088.773,-163.6713 1061.3495,-194.3029 1031,-210 988.4464,-232.0092 935.8719,-243.5 892.514,-249.493"/>
<polygon fill="#191970" stroke="#191970" points="892.0201,-246.0277 882.5588,-250.7957 892.9285,-252.9685 892.0201,-246.0277"/>
</g>
<!-- Node13 -->
<g id="node14" class="node">
<title>Node13</title>
<g id="a_node14"><a xlink:href="constraints__hard_8h.html" target="_top" xlink:title="Functions and data structures for handling of secondary structure hard constraints. ">
<polygon fill="none" stroke="#000000" points="486.5,-56.5 486.5,-86.5 605.5,-86.5 605.5,-56.5 486.5,-56.5"/>
<text text-anchor="start" x="494.5" y="-74.5" font-family="Helvetica,sans-Serif" font-size="10.00" fill="#000000">ViennaRNA/constraints</text>
<text text-anchor="middle" x="546" y="-63.5" font-family="Helvetica,sans-Serif" font-size="10.00" fill="#000000">_hard.h</text>
</a>
</g>
</g>
<!-- Node12&#45;&gt;Node13 -->
<g id="edge18" class="edge">
<title>Node12&#45;&gt;Node13</title>
<path fill="none" stroke="#191970" d="M1035.763,-129.2646C1020.4484,-127.1362 1004.1517,-124.9318 989,-123 850.5341,-105.3465 815.6433,-103.2008 677,-87 657.1453,-84.6799 635.6008,-82.14 615.827,-79.8"/>
<polygon fill="#191970" stroke="#191970" points="616.0085,-76.2971 605.6662,-78.5967 615.1852,-83.2485 616.0085,-76.2971"/>
</g>
<!-- Node14 -->
<g id="node15" class="node">
<title>Node14</title>
<g id="a_node15"><a xlink:href="constraints__soft_8h.html" target="_top" xlink:title="Functions and data structures for secondary structure soft constraints. ">
<polygon fill="none" stroke="#000000" points="686.5,-56.5 686.5,-86.5 805.5,-86.5 805.5,-56.5 686.5,-56.5"/>
<text text-anchor="start" x="694.5" y="-74.5" font-family="Helvetica,sans-Serif" font-size="10.00" fill="#000000">ViennaRNA/constraints</text>
<text text-anchor="middle" x="746" y="-63.5" font-family="Helvetica,sans-Serif" font-size="10.00" fill="#000000">_soft.h</text>
</a>
</g>
</g>
<!-- Node12&#45;&gt;Node14 -->
<g id="edge20" class="edge">
<title>Node12&#45;&gt;Node14</title>
<path fill="none" stroke="#191970" d="M1049.6564,-128.9717C988.3435,-117.3673 884.4505,-97.7039 815.5334,-84.6603"/>
<polygon fill="#191970" stroke="#191970" points="816.1048,-81.2064 805.6283,-82.7856 814.803,-88.0843 816.1048,-81.2064"/>
</g>
<!-- Node15 -->
<g id="node16" class="node">
<title>Node15</title>
<g id="a_node16"><a xlink:href="constraints__SHAPE_8h.html" target="_top" xlink:title="This module provides function to incorporate SHAPE reactivity data into the folding recursions by mea...">
<polygon fill="none" stroke="#000000" points="924.5,-56.5 924.5,-86.5 1043.5,-86.5 1043.5,-56.5 924.5,-56.5"/>
<text text-anchor="start" x="932.5" y="-74.5" font-family="Helvetica,sans-Serif" font-size="10.00" fill="#000000">ViennaRNA/constraints</text>
<text text-anchor="middle" x="984" y="-63.5" font-family="Helvetica,sans-Serif" font-size="10.00" fill="#000000">_SHAPE.h</text>
</a>
</g>
</g>
<!-- Node12&#45;&gt;Node15 -->
<g id="edge22" class="edge">
<title>Node12&#45;&gt;Node15</title>
<path fill="none" stroke="#191970" d="M1083.38,-128.9005C1066.6064,-119.2123 1040.1983,-103.9593 1018.8195,-91.6113"/>
<polygon fill="#191970" stroke="#191970" points="1020.4178,-88.4926 1010.0078,-86.5218 1016.9167,-94.5541 1020.4178,-88.4926"/>
</g>
<!-- Node16 -->
<g id="node17" class="node">
<title>Node16</title>
<g id="a_node17"><a xlink:href="perturbation__fold_8h.html" target="_top" xlink:title="Find a vector of perturbation energies that minimizes the discripancies between predicted and observe...">
<polygon fill="none" stroke="#000000" points="1062,-56.5 1062,-86.5 1184,-86.5 1184,-56.5 1062,-56.5"/>
<text text-anchor="start" x="1070" y="-74.5" font-family="Helvetica,sans-Serif" font-size="10.00" fill="#000000">ViennaRNA/perturbation</text>
<text text-anchor="middle" x="1123" y="-63.5" font-family="Helvetica,sans-Serif" font-size="10.00" fill="#000000">_fold.h</text>
</a>
</g>
</g>
<!-- Node12&#45;&gt;Node16 -->
<g id="edge24" class="edge">
<title>Node12&#45;&gt;Node16</title>
<path fill="none" stroke="#191970" d="M1103.2953,-128.9005C1106.2351,-120.3368 1110.6675,-107.4252 1114.5843,-96.0152"/>
<polygon fill="#191970" stroke="#191970" points="1117.9067,-97.1164 1117.8433,-86.5218 1111.286,-94.8436 1117.9067,-97.1164"/>
</g>
<!-- Node17 -->
<g id="node18" class="node">
<title>Node17</title>
<g id="a_node18"><a xlink:href="constraints__ligand_8h.html" target="_top" xlink:title="Functions for incorporation of ligands binding to hairpin and interior loop motifs using the soft con...">
<polygon fill="none" stroke="#000000" points="1202.5,-56.5 1202.5,-86.5 1321.5,-86.5 1321.5,-56.5 1202.5,-56.5"/>
<text text-anchor="start" x="1210.5" y="-74.5" font-family="Helvetica,sans-Serif" font-size="10.00" fill="#000000">ViennaRNA/constraints</text>
<text text-anchor="middle" x="1262" y="-63.5" font-family="Helvetica,sans-Serif" font-size="10.00" fill="#000000">_ligand.h</text>
</a>
</g>
</g>
<!-- Node12&#45;&gt;Node17 -->
<g id="edge26" class="edge">
<title>Node12&#45;&gt;Node17</title>
<path fill="none" stroke="#191970" d="M1123.2107,-128.9005C1147.3679,-118.9096 1185.8344,-103.0006 1216.1506,-90.4624"/>
<polygon fill="#191970" stroke="#191970" points="1217.7755,-93.578 1225.6787,-86.5218 1215.1002,-87.1094 1217.7755,-93.578"/>
</g>
<!-- Node13&#45;&gt;Node4 -->
<g id="edge19" class="edge">
<title>Node13&#45;&gt;Node4</title>
<path fill="none" stroke="#191970" d="M546.157,-86.7037C547.3337,-115.4827 554.2469,-177.9036 591,-210 611.0832,-227.5387 672.7596,-239.5279 725.4059,-246.8582"/>
<polygon fill="#191970" stroke="#191970" points="725.08,-250.3459 735.4589,-248.2177 726.0182,-243.409 725.08,-250.3459"/>
</g>
<!-- Node14&#45;&gt;Node4 -->
<g id="edge21" class="edge">
<title>Node14&#45;&gt;Node4</title>
<path fill="none" stroke="#191970" d="M686.4045,-82.1684C643.9041,-91.1304 592.0627,-105.3019 579,-123 570.8181,-134.0853 574.9534,-140.8299 579,-154 587.8341,-182.7515 592.2586,-192.8958 617,-210 636.7664,-223.6649 692.4764,-236.1602 738.8277,-244.6679"/>
<polygon fill="#191970" stroke="#191970" points="738.3997,-248.147 748.8618,-246.4751 739.6406,-241.2579 738.3997,-248.147"/>
</g>
<!-- Node15&#45;&gt;Node4 -->
<g id="edge23" class="edge">
<title>Node15&#45;&gt;Node4</title>
<path fill="none" stroke="#191970" d="M989.6688,-86.66C995.191,-104.1508 1001.1373,-133.1717 989,-154 960.8977,-202.2253 900.5886,-229.4873 857.5273,-243.4666"/>
<polygon fill="#191970" stroke="#191970" points="856.309,-240.1801 847.8019,-246.4952 858.3903,-246.8635 856.309,-240.1801"/>
</g>
<!-- Node16&#45;&gt;Node4 -->
<g id="edge25" class="edge">
<title>Node16&#45;&gt;Node4</title>
<path fill="none" stroke="#191970" d="M1143.3579,-86.7736C1162.9179,-103.3852 1187.5224,-130.6863 1173,-154 1143.3407,-201.6141 990.9771,-231.1214 893.0124,-245.4721"/>
<polygon fill="#191970" stroke="#191970" points="892.2232,-242.0496 882.824,-246.9389 893.2207,-248.9782 892.2232,-242.0496"/>
</g>
<!-- Node17&#45;&gt;Node4 -->
<g id="edge27" class="edge">
<title>Node17&#45;&gt;Node4</title>
<path fill="none" stroke="#191970" d="M1250.9407,-86.9404C1228.1245,-117.3205 1172.4502,-184.149 1107,-210 1069.1013,-224.9689 967.0943,-238.7432 892.9647,-247.2402"/>
<polygon fill="#191970" stroke="#191970" points="892.2414,-243.7997 882.6992,-248.4037 893.0298,-250.7552 892.2414,-243.7997"/>
</g>
<!-- Node18&#45;&gt;Node4 -->
<g id="edge29" class="edge">
<title>Node18&#45;&gt;Node4</title>
<path fill="none" stroke="#191970" d="M792.7597,-148.2484C799.6199,-167.4662 808.1205,-210.5834 810.4849,-236.0662"/>
<polygon fill="#191970" stroke="#191970" points="807.0116,-236.6151 811.1115,-246.3845 813.9988,-236.1907 807.0116,-236.6151"/>
</g>
<!-- Node20&#45;&gt;Node4 -->
<g id="edge32" class="edge">
<title>Node20&#45;&gt;Node4</title>
<path fill="none" stroke="#191970" d="M1316.3052,-153.5396C1305.3406,-170.484 1280.8975,-197.3113 1253,-210 1237.0312,-217.2632 1017.4264,-238.0119 893.1286,-248.9908"/>
<polygon fill="#191970" stroke="#191970" points="892.5328,-245.5296 882.8782,-249.893 893.1466,-252.5026 892.5328,-245.5296"/>
</g>
<!-- Node20&#45;&gt;Node21 -->
<g id="edge33" class="edge">
<title>Node20&#45;&gt;Node21</title>
<path fill="none" stroke="#191970" d="M1343.6915,-123.2967C1357.3722,-114.1306 1374.9874,-102.3285 1389.947,-92.3055"/>
<polygon fill="#191970" stroke="#191970" points="1392.0387,-95.1171 1398.3983,-86.6432 1388.1424,-89.3017 1392.0387,-95.1171"/>
</g>
<!-- Node21&#45;&gt;Node2 -->
<g id="edge34" class="edge">
<title>Node21&#45;&gt;Node2</title>
<path fill="none" stroke="#191970" d="M1431.382,-56.2977C1437.1513,-47.8498 1444.3716,-37.2773 1450.4553,-28.369"/>
<polygon fill="#191970" stroke="#191970" points="1453.5259,-30.0788 1456.2753,-19.8469 1447.7453,-26.1311 1453.5259,-30.0788"/>
</g>
<!-- Node21&#45;&gt;Node4 -->
<g id="edge35" class="edge">
<title>Node21&#45;&gt;Node4</title>
<path fill="none" stroke="#191970" d="M1425.7295,-86.6149C1425.7022,-104.5989 1418.9001,-134.6209 1402,-154 1365.4216,-195.944 1343.4797,-194.5986 1290,-210 1271.4097,-215.3538 1025.6281,-237.6474 892.7633,-249.1167"/>
<polygon fill="#191970" stroke="#191970" points="892.2778,-245.6455 882.615,-249.9906 892.8784,-252.6197 892.2778,-245.6455"/>
</g>
<!-- Node22&#45;&gt;Node3 -->
<g id="edge45" class="edge">
<title>Node22&#45;&gt;Node3</title>
<path fill="none" stroke="#191970" d="M911.277,-302.2455C919.8218,-294.1352 932.1778,-282.4075 942.3085,-272.7919"/>
<polygon fill="#191970" stroke="#191970" points="944.9972,-275.0655 949.8408,-265.6427 940.1782,-269.9884 944.9972,-275.0655"/>
</g>
<!-- Node22&#45;&gt;Node4 -->
<g id="edge46" class="edge">
<title>Node22&#45;&gt;Node4</title>
<path fill="none" stroke="#191970" d="M884.9748,-302.2455C870.8592,-293.6534 850.0737,-281.0014 833.8101,-271.1018"/>
<polygon fill="#191970" stroke="#191970" points="835.2034,-267.8525 824.8415,-265.6427 831.5637,-273.8319 835.2034,-267.8525"/>
</g>
<!-- Node24&#45;&gt;Node8 -->
<g id="edge50" class="edge">
<title>Node24&#45;&gt;Node8</title>
<path fill="none" stroke="#191970" d="M125.7616,-190.2515C125.8922,-174.3132 128.4005,-142.5025 145,-123 161.185,-103.9845 185.6273,-91.8168 208.3167,-84.1166"/>
<polygon fill="#191970" stroke="#191970" points="209.4259,-87.4368 217.9042,-81.0831 207.3142,-80.7629 209.4259,-87.4368"/>
</g>
</g>
</svg>
