<?xml version="1.0" encoding="UTF-8" standalone="no"?>
<!DOCTYPE svg PUBLIC "-//W3C//DTD SVG 1.1//EN"
 "http://www.w3.org/Graphics/SVG/1.1/DTD/svg11.dtd">
<!-- Generated by graphviz version 2.40.1 (20161225.0304)
 -->
<!-- Title: ViennaRNA/params.h Pages: 1 -->
<!--zoomable 330 -->
<svg id="main" version="1.1" xmlns="http://www.w3.org/2000/svg" xmlns:xlink="http://www.w3.org/1999/xlink" xml:space="preserve" onload="init(evt)">
<style type="text/css"><![CDATA[
.edge:hover path { stroke: red; }
.edge:hover polygon { stroke: red; fill: red; }
]]></style>
<script type="text/javascript"><![CDATA[
var edges = document.getElementsByTagName('g');
if (edges && edges.length) {
  for (var i=0;i<edges.length;i++) {
    if (edges[i].id.substr(0,4)=='edge') {
      edges[i].setAttribute('class','edge');
    }
  }
}
]]></script>
        <defs>
                <circle id="rim" cx="0" cy="0" r="7"/>
                <circle id="rim2" cx="0" cy="0" r="3.5"/>
                <g id="zoomPlus">
                        <use xlink:href="#rim" fill="#404040">
                                <set attributeName="fill" to="#808080" begin="zoomplus.mouseover" end="zoomplus.mouseout"/>
                        </use>
                        <path d="M-4,0h8M0,-4v8" fill="none" stroke="white" stroke-width="1.5" pointer-events="none"/>
                </g>
                <g id="zoomMin">
                        <use xlink:href="#rim" fill="#404040">
                                <set attributeName="fill" to="#808080" begin="zoomminus.mouseover" end="zoomminus.mouseout"/>
                        </use>
                        <path d="M-4,0h8" fill="none" stroke="white" stroke-width="1.5" pointer-events="none"/>
                </g>
                <g id="dirArrow">
                        <path fill="none" stroke="white" stroke-width="1.5" d="M0,-3.0v7 M-2.5,-0.5L0,-3.0L2.5,-0.5"/>
                </g>
               <g id="resetDef">
                       <use xlink:href="#rim2" fill="#404040">
                               <set attributeName="fill" to="#808080" begin="reset.mouseover" end="reset.mouseout"/>
                       </use>
               </g>
        </defs>

<script type="text/javascript">
var viewWidth = 1354;
var viewHeight = 330;
var sectionId = 'dynsection-0';
</script>
<script xlink:href="svgpan.js"/>
<svg id="graph" class="graph">
<g id="viewport">
<title>ViennaRNA/params.h</title>
<!-- Node0 -->
<g id="node1" class="node">
<title>Node0</title>
<polygon fill="#bfbfbf" stroke="#000000" points="510,-302.5 510,-321.5 622,-321.5 622,-302.5 510,-302.5"/>
<text text-anchor="middle" x="566" y="-309.5" font-family="Helvetica,sans-Serif" font-size="10.00" fill="#000000">ViennaRNA/params.h</text>
</g>
<!-- Node1 -->
<g id="node2" class="node">
<title>Node1</title>
<g id="a_node2"><a xlink:href="energy__const_8h.html" target="_top" xlink:title="Energy parameter constants. ">
<polygon fill="none" stroke="#000000" points="205,-190.5 205,-209.5 343,-209.5 343,-190.5 205,-190.5"/>
<text text-anchor="middle" x="274" y="-197.5" font-family="Helvetica,sans-Serif" font-size="10.00" fill="#000000">ViennaRNA/energy_const.h</text>
</a>
</g>
</g>
<!-- Node0&#45;&gt;Node1 -->
<g id="edge1" class="edge">
<title>Node0&#45;&gt;Node1</title>
<path fill="none" stroke="#191970" d="M509.6315,-306.6129C466.2337,-300.8344 405.6437,-289.1517 357,-266 331.2364,-253.7379 306.2467,-232.1328 290.5367,-216.9915"/>
<polygon fill="#191970" stroke="#191970" points="292.7832,-214.2907 283.2123,-209.7465 287.8605,-219.2673 292.7832,-214.2907"/>
</g>
<!-- Node3 -->
<g id="node4" class="node">
<title>Node3</title>
<g id="a_node4"><a xlink:href="data__structures_8h.html" target="_top" xlink:title="Various data structures and pre&#45;processor macros. ">
<polygon fill="none" stroke="#000000" points="687.5,-246.5 687.5,-265.5 834.5,-265.5 834.5,-246.5 687.5,-246.5"/>
<text text-anchor="middle" x="761" y="-253.5" font-family="Helvetica,sans-Serif" font-size="10.00" fill="#000000">ViennaRNA/data_structures.h</text>
</a>
</g>
</g>
<!-- Node0&#45;&gt;Node3 -->
<g id="edge3" class="edge">
<title>Node0&#45;&gt;Node3</title>
<path fill="none" stroke="#191970" d="M594.2797,-302.3733C625.4135,-292.9001 675.7485,-278.4032 713.0374,-268.1435"/>
<polygon fill="#191970" stroke="#191970" points="713.9761,-271.5154 722.6984,-265.5011 712.1293,-264.7634 713.9761,-271.5154"/>
</g>
<!-- Node5 -->
<g id="node6" class="node">
<title>Node5</title>
<g id="a_node6"><a xlink:href="model_8h.html" target="_top" xlink:title="The model details data structure and its corresponding modifiers. ">
<polygon fill="none" stroke="#000000" points="66,-129 66,-148 172,-148 172,-129 66,-129"/>
<text text-anchor="middle" x="119" y="-136" font-family="Helvetica,sans-Serif" font-size="10.00" fill="#000000">ViennaRNA/model.h</text>
</a>
</g>
</g>
<!-- Node0&#45;&gt;Node5 -->
<g id="edge39" class="edge">
<title>Node0&#45;&gt;Node5</title>
<path fill="none" stroke="#191970" d="M548.6763,-302.4767C516.3315,-284.643 444.6314,-244.8606 385,-210 370.1943,-201.3446 367.9508,-196.3004 352,-190 279.7649,-161.4678 256.6868,-171.4214 181,-154 176.2493,-152.9065 171.303,-151.7318 166.3681,-150.5359"/>
<polygon fill="#191970" stroke="#191970" points="166.8672,-147.0546 156.3212,-148.0708 165.1991,-153.8529 166.8672,-147.0546"/>
</g>
<!-- Node2 -->
<g id="node3" class="node">
<title>Node2</title>
<polygon fill="none" stroke="#bfbfbf" points="0,-129 0,-148 48,-148 48,-129 0,-129"/>
<text text-anchor="middle" x="24" y="-136" font-family="Helvetica,sans-Serif" font-size="10.00" fill="#000000">limits.h</text>
</g>
<!-- Node1&#45;&gt;Node2 -->
<g id="edge2" class="edge">
<title>Node1&#45;&gt;Node2</title>
<path fill="none" stroke="#191970" d="M210.3005,-190.474C166.5015,-182.9645 107.3797,-170.9193 57,-154 55.3499,-153.4458 53.6735,-152.8319 51.9955,-152.1774"/>
<polygon fill="#191970" stroke="#191970" points="53.1094,-148.8467 42.5396,-148.1191 50.3487,-155.2793 53.1094,-148.8467"/>
</g>
<!-- Node3&#45;&gt;Node0 -->
<g id="edge32" class="edge">
<title>Node3&#45;&gt;Node0</title>
<path fill="none" stroke="#191970" d="M733.133,-265.5011C702.17,-274.9296 651.8629,-289.4228 614.459,-299.7199"/>
<polygon fill="#191970" stroke="#191970" points="613.4851,-296.3576 604.7637,-302.3733 615.333,-303.1094 613.4851,-296.3576"/>
</g>
<!-- Node3&#45;&gt;Node1 -->
<g id="edge4" class="edge">
<title>Node3&#45;&gt;Node1</title>
<path fill="none" stroke="#191970" d="M687.2997,-247.5252C597.3399,-237.1808 445.8097,-219.7563 353.3562,-209.1252"/>
<polygon fill="#191970" stroke="#191970" points="353.5486,-205.6243 343.2142,-207.9589 352.7488,-212.5785 353.5486,-205.6243"/>
</g>
<!-- Node4 -->
<g id="node5" class="node">
<title>Node4</title>
<g id="a_node5"><a xlink:href="fold__compound_8h.html" target="_top" xlink:title="The Basic Fold Compound API. ">
<polygon fill="none" stroke="#000000" points="493,-190.5 493,-209.5 639,-209.5 639,-190.5 493,-190.5"/>
<text text-anchor="middle" x="566" y="-197.5" font-family="Helvetica,sans-Serif" font-size="10.00" fill="#000000">ViennaRNA/fold_compound.h</text>
</a>
</g>
</g>
<!-- Node3&#45;&gt;Node4 -->
<g id="edge5" class="edge">
<title>Node3&#45;&gt;Node4</title>
<path fill="none" stroke="#191970" d="M727.4783,-246.3733C694.6317,-236.9404 644.4405,-222.5265 608.7422,-212.2747"/>
<polygon fill="#191970" stroke="#191970" points="609.6619,-208.8974 599.0843,-209.5011 607.7297,-215.6255 609.6619,-208.8974"/>
</g>
<!-- Node3&#45;&gt;Node5 -->
<g id="edge31" class="edge">
<title>Node3&#45;&gt;Node5</title>
<path fill="none" stroke="#191970" d="M687.3086,-248.9979C603.0864,-240.4637 470.7293,-225.2822 423,-210 404.8237,-204.1802 403.0581,-196.1768 385,-190 297.8875,-160.2031 271.0483,-173.1767 181,-154 175.9081,-152.9156 170.5999,-151.7081 165.3258,-150.4589"/>
<polygon fill="#191970" stroke="#191970" points="165.8342,-146.9808 155.2912,-148.0267 164.1853,-153.7839 165.8342,-146.9808"/>
</g>
<!-- Node7 -->
<g id="node8" class="node">
<title>Node7</title>
<g id="a_node8"><a xlink:href="dp__matrices_8h.html" target="_top" xlink:title="Functions to deal with standard dynamic programming (DP) matrices. ">
<polygon fill="none" stroke="#000000" points="599.5,-129 599.5,-148 732.5,-148 732.5,-129 599.5,-129"/>
<text text-anchor="middle" x="666" y="-136" font-family="Helvetica,sans-Serif" font-size="10.00" fill="#000000">ViennaRNA/dp_matrices.h</text>
</a>
</g>
</g>
<!-- Node3&#45;&gt;Node7 -->
<g id="edge33" class="edge">
<title>Node3&#45;&gt;Node7</title>
<path fill="none" stroke="#191970" d="M749.3139,-246.3845C730.0845,-226.761 693.3814,-181.8274 675.5821,-156.5772"/>
<polygon fill="#191970" stroke="#191970" points="678.4497,-154.5696 669.9472,-148.2484 672.652,-158.4922 678.4497,-154.5696"/>
</g>
<!-- Node8 -->
<g id="node9" class="node">
<title>Node8</title>
<g id="a_node9"><a xlink:href="constraints_8h.html" target="_top" xlink:title="Functions and data structures for constraining secondary structure predictions and evaluation...">
<polygon fill="none" stroke="#000000" points="827,-129 827,-148 955,-148 955,-129 827,-129"/>
<text text-anchor="middle" x="891" y="-136" font-family="Helvetica,sans-Serif" font-size="10.00" fill="#000000">ViennaRNA/constraints.h</text>
</a>
</g>
</g>
<!-- Node3&#45;&gt;Node8 -->
<g id="edge34" class="edge">
<title>Node3&#45;&gt;Node8</title>
<path fill="none" stroke="#191970" d="M765.2453,-246.1863C773.7744,-236.9116 790.0275,-222.5825 804,-210 824.999,-191.0901 848.9253,-169.0893 866.6314,-154.5399"/>
<polygon fill="#191970" stroke="#191970" points="869.1452,-157.0121 874.7838,-148.0423 864.7822,-151.5381 869.1452,-157.0121"/>
</g>
<!-- Node14 -->
<g id="node15" class="node">
<title>Node14</title>
<g id="a_node15"><a xlink:href="grammar_8h.html" target="_top" xlink:title="Implementations for the RNA folding grammar. ">
<polygon fill="none" stroke="#000000" points="190,-129 190,-148 308,-148 308,-129 190,-129"/>
<text text-anchor="middle" x="249" y="-136" font-family="Helvetica,sans-Serif" font-size="10.00" fill="#000000">ViennaRNA/grammar.h</text>
</a>
</g>
</g>
<!-- Node3&#45;&gt;Node14 -->
<g id="edge35" class="edge">
<title>Node3&#45;&gt;Node14</title>
<path fill="none" stroke="#191970" d="M687.4834,-247.8748C629.1864,-240.2704 546.1337,-227.4599 475,-210 447.2914,-203.1989 441.2374,-198.494 414,-190 369.8458,-176.2305 319.109,-161.3166 285.5589,-151.0995"/>
<polygon fill="#191970" stroke="#191970" points="286.3115,-147.6695 275.7249,-148.0859 284.2605,-154.3623 286.3115,-147.6695"/>
</g>
<!-- Node15 -->
<g id="node16" class="node">
<title>Node15</title>
<g id="a_node16"><a xlink:href="structured__domains_8h.html" target="_top" xlink:title="This module provides interfaces that deal with additional structured domains in the folding grammar...">
<polygon fill="none" stroke="#000000" points="466.5,-123.5 466.5,-153.5 581.5,-153.5 581.5,-123.5 466.5,-123.5"/>
<text text-anchor="start" x="474.5" y="-141.5" font-family="Helvetica,sans-Serif" font-size="10.00" fill="#000000">ViennaRNA/structured</text>
<text text-anchor="middle" x="524" y="-130.5" font-family="Helvetica,sans-Serif" font-size="10.00" fill="#000000">_domains.h</text>
</a>
</g>
</g>
<!-- Node3&#45;&gt;Node15 -->
<g id="edge36" class="edge">
<title>Node3&#45;&gt;Node15</title>
<path fill="none" stroke="#191970" d="M746.0079,-246.364C724.7001,-232.8737 684.2161,-207.9944 648,-190 623.9798,-178.0652 596.5019,-166.4551 573.5269,-157.2887"/>
<polygon fill="#191970" stroke="#191970" points="574.566,-153.936 563.9795,-153.5161 571.9935,-160.4462 574.566,-153.936"/>
</g>
<!-- Node16 -->
<g id="node17" class="node">
<title>Node16</title>
<g id="a_node17"><a xlink:href="unstructured__domains_8h.html" target="_top" xlink:title="Functions to modify unstructured domains, e.g. to incorporate ligands binding to unpaired stretches...">
<polygon fill="none" stroke="#000000" points="1087.5,-123.5 1087.5,-153.5 1212.5,-153.5 1212.5,-123.5 1087.5,-123.5"/>
<text text-anchor="start" x="1095.5" y="-141.5" font-family="Helvetica,sans-Serif" font-size="10.00" fill="#000000">ViennaRNA/unstructured</text>
<text text-anchor="middle" x="1150" y="-130.5" font-family="Helvetica,sans-Serif" font-size="10.00" fill="#000000">_domains.h</text>
</a>
</g>
</g>
<!-- Node3&#45;&gt;Node16 -->
<g id="edge37" class="edge">
<title>Node3&#45;&gt;Node16</title>
<path fill="none" stroke="#191970" d="M834.8303,-249.5748C911.1039,-242.3456 1024.2622,-229.0673 1064,-210 1087.6043,-198.674 1108.9428,-177.5758 1124.7232,-161.2217"/>
<polygon fill="#191970" stroke="#191970" points="1127.6049,-163.2741 1132.009,-153.638 1122.557,-158.4244 1127.6049,-163.2741"/>
</g>
<!-- Node17 -->
<g id="node18" class="node">
<title>Node17</title>
<g id="a_node18"><a xlink:href="structure__utils_8h.html" target="_top" xlink:title="Various utility&#45; and helper&#45;functions for secondary structure parsing, converting, etc. ">
<polygon fill="none" stroke="#000000" points="1236,-56.5 1236,-86.5 1346,-86.5 1346,-56.5 1236,-56.5"/>
<text text-anchor="start" x="1244" y="-74.5" font-family="Helvetica,sans-Serif" font-size="10.00" fill="#000000">ViennaRNA/structure</text>
<text text-anchor="middle" x="1291" y="-63.5" font-family="Helvetica,sans-Serif" font-size="10.00" fill="#000000">_utils.h</text>
</a>
</g>
</g>
<!-- Node3&#45;&gt;Node17 -->
<g id="edge38" class="edge">
<title>Node3&#45;&gt;Node17</title>
<path fill="none" stroke="#191970" d="M834.6517,-248.6454C919.4733,-240.0726 1053.1965,-225.1388 1102,-210 1154.3966,-193.7466 1168.9671,-188.0257 1212,-154 1233.3995,-137.0796 1253.048,-112.8049 1267.6881,-94.9663"/>
<polygon fill="#191970" stroke="#191970" points="1270.7784,-96.7218 1274.4584,-86.7866 1265.3859,-92.2584 1270.7784,-96.7218"/>
</g>
<!-- Node4&#45;&gt;Node0 -->
<g id="edge7" class="edge">
<title>Node4&#45;&gt;Node0</title>
<path fill="none" stroke="#191970" d="M566,-209.5249C566,-227.7725 566,-267.9985 566,-292.2702"/>
<polygon fill="#191970" stroke="#191970" points="562.5001,-292.4509 566,-302.4509 569.5001,-292.451 562.5001,-292.4509"/>
</g>
<!-- Node4&#45;&gt;Node5 -->
<g id="edge6" class="edge">
<title>Node4&#45;&gt;Node5</title>
<path fill="none" stroke="#191970" d="M492.8544,-194.027C415.1007,-187.0336 288.7478,-173.8237 181,-154 175.4758,-152.9836 169.7118,-151.7631 164.019,-150.4589"/>
<polygon fill="#191970" stroke="#191970" points="164.4552,-146.9648 153.9158,-148.047 162.8298,-153.7734 164.4552,-146.9648"/>
</g>
<!-- Node6 -->
<g id="node7" class="node">
<title>Node6</title>
<g id="a_node7"><a xlink:href="sequence_8h.html" target="_top" xlink:title="Functions and data structures related to sequence representations. ">
<polygon fill="none" stroke="#000000" points="326,-129 326,-148 448,-148 448,-129 326,-129"/>
<text text-anchor="middle" x="387" y="-136" font-family="Helvetica,sans-Serif" font-size="10.00" fill="#000000">ViennaRNA/sequence.h</text>
</a>
</g>
</g>
<!-- Node4&#45;&gt;Node6 -->
<g id="edge8" class="edge">
<title>Node4&#45;&gt;Node6</title>
<path fill="none" stroke="#191970" d="M538.0313,-190.3906C507.4245,-179.8749 458.2101,-162.966 424.3259,-151.3243"/>
<polygon fill="#191970" stroke="#191970" points="425.367,-147.9812 414.7724,-148.0419 423.0924,-154.6014 425.367,-147.9812"/>
</g>
<!-- Node4&#45;&gt;Node7 -->
<g id="edge9" class="edge">
<title>Node4&#45;&gt;Node7</title>
<path fill="none" stroke="#191970" d="M581.625,-190.3906C597.7698,-180.4616 623.1822,-164.833 641.9023,-153.3201"/>
<polygon fill="#191970" stroke="#191970" points="643.8002,-156.2619 650.4847,-148.0419 640.1331,-150.2992 643.8002,-156.2619"/>
</g>
<!-- Node4&#45;&gt;Node8 -->
<g id="edge11" class="edge">
<title>Node4&#45;&gt;Node8</title>
<path fill="none" stroke="#191970" d="M616.4247,-190.4581C674.27,-179.512 769.0577,-161.5752 830.7424,-149.9026"/>
<polygon fill="#191970" stroke="#191970" points="831.5496,-153.312 840.7245,-148.0137 830.248,-146.4341 831.5496,-153.312"/>
</g>
<!-- Node4&#45;&gt;Node14 -->
<g id="edge23" class="edge">
<title>Node4&#45;&gt;Node14</title>
<path fill="none" stroke="#191970" d="M510.4896,-190.4243C459.9434,-181.5436 383.3039,-167.675 317,-154 311.3022,-152.8248 305.3479,-151.5448 299.4341,-150.2407"/>
<polygon fill="#191970" stroke="#191970" points="300.0947,-146.8021 289.5721,-148.0374 298.5683,-153.6336 300.0947,-146.8021"/>
</g>
<!-- Node4&#45;&gt;Node15 -->
<g id="edge25" class="edge">
<title>Node4&#45;&gt;Node15</title>
<path fill="none" stroke="#191970" d="M559.4375,-190.3906C554.227,-182.761 546.7181,-171.7658 539.9523,-161.8588"/>
<polygon fill="#191970" stroke="#191970" points="542.8043,-159.8287 534.2744,-153.5446 537.0237,-163.7765 542.8043,-159.8287"/>
</g>
<!-- Node4&#45;&gt;Node16 -->
<g id="edge26" class="edge">
<title>Node4&#45;&gt;Node16</title>
<path fill="none" stroke="#191970" d="M639.0777,-192.3043C751.265,-180.4901 964.6924,-158.0144 1076.8957,-146.1985"/>
<polygon fill="#191970" stroke="#191970" points="1077.5236,-149.6518 1087.1021,-145.1237 1076.7905,-142.6903 1077.5236,-149.6518"/>
</g>
<!-- Node7&#45;&gt;Node3 -->
<g id="edge10" class="edge">
<title>Node7&#45;&gt;Node3</title>
<path fill="none" stroke="#191970" d="M677.8162,-148.2484C697.124,-167.9856 733.8237,-212.9315 751.5377,-238.093"/>
<polygon fill="#191970" stroke="#191970" points="748.6402,-240.0563 757.1376,-246.3845 754.4412,-236.1385 748.6402,-240.0563"/>
</g>
<!-- Node8&#45;&gt;Node3 -->
<g id="edge12" class="edge">
<title>Node8&#45;&gt;Node3</title>
<path fill="none" stroke="#191970" d="M886.4312,-148.2741C874.5169,-162.0987 846.2987,-188.1187 822,-210 810.8656,-220.0266 798.2831,-231.1624 787.2538,-239.9659"/>
<polygon fill="#191970" stroke="#191970" points="784.9618,-237.3133 779.1721,-246.1863 789.2314,-242.8604 784.9618,-237.3133"/>
</g>
<!-- Node9 -->
<g id="node10" class="node">
<title>Node9</title>
<g id="a_node10"><a xlink:href="constraints__hard_8h.html" target="_top" xlink:title="Functions and data structures for handling of secondary structure hard constraints. ">
<polygon fill="none" stroke="#000000" points="824.5,-56.5 824.5,-86.5 943.5,-86.5 943.5,-56.5 824.5,-56.5"/>
<text text-anchor="start" x="832.5" y="-74.5" font-family="Helvetica,sans-Serif" font-size="10.00" fill="#000000">ViennaRNA/constraints</text>
<text text-anchor="middle" x="884" y="-63.5" font-family="Helvetica,sans-Serif" font-size="10.00" fill="#000000">_hard.h</text>
</a>
</g>
</g>
<!-- Node8&#45;&gt;Node9 -->
<g id="edge13" class="edge">
<title>Node8&#45;&gt;Node9</title>
<path fill="none" stroke="#191970" d="M889.9971,-128.9005C889.1204,-120.5099 887.8077,-107.9451 886.6337,-96.7085"/>
<polygon fill="#191970" stroke="#191970" points="890.0897,-96.1039 885.5694,-86.5218 883.1276,-96.8314 890.0897,-96.1039"/>
</g>
<!-- Node10 -->
<g id="node11" class="node">
<title>Node10</title>
<g id="a_node11"><a xlink:href="constraints__soft_8h.html" target="_top" xlink:title="Functions and data structures for secondary structure soft constraints. ">
<polygon fill="none" stroke="#000000" points="961.5,-56.5 961.5,-86.5 1080.5,-86.5 1080.5,-56.5 961.5,-56.5"/>
<text text-anchor="start" x="969.5" y="-74.5" font-family="Helvetica,sans-Serif" font-size="10.00" fill="#000000">ViennaRNA/constraints</text>
<text text-anchor="middle" x="1021" y="-63.5" font-family="Helvetica,sans-Serif" font-size="10.00" fill="#000000">_soft.h</text>
</a>
</g>
</g>
<!-- Node8&#45;&gt;Node10 -->
<g id="edge15" class="edge">
<title>Node8&#45;&gt;Node10</title>
<path fill="none" stroke="#191970" d="M909.6258,-128.9005C928.6756,-119.0826 958.8139,-103.5498 982.9377,-91.1167"/>
<polygon fill="#191970" stroke="#191970" points="984.5678,-94.2141 991.8533,-86.5218 981.3609,-87.9919 984.5678,-94.2141"/>
</g>
<!-- Node11 -->
<g id="node12" class="node">
<title>Node11</title>
<g id="a_node12"><a xlink:href="constraints__SHAPE_8h.html" target="_top" xlink:title="This module provides function to incorporate SHAPE reactivity data into the folding recursions by mea...">
<polygon fill="none" stroke="#000000" points="1098.5,-56.5 1098.5,-86.5 1217.5,-86.5 1217.5,-56.5 1098.5,-56.5"/>
<text text-anchor="start" x="1106.5" y="-74.5" font-family="Helvetica,sans-Serif" font-size="10.00" fill="#000000">ViennaRNA/constraints</text>
<text text-anchor="middle" x="1158" y="-63.5" font-family="Helvetica,sans-Serif" font-size="10.00" fill="#000000">_SHAPE.h</text>
</a>
</g>
</g>
<!-- Node8&#45;&gt;Node11 -->
<g id="edge17" class="edge">
<title>Node8&#45;&gt;Node11</title>
<path fill="none" stroke="#191970" d="M928.971,-128.9717C970.3407,-118.5905 1037.4118,-101.76 1088.3062,-88.9887"/>
<polygon fill="#191970" stroke="#191970" points="1089.4095,-92.3204 1098.2569,-86.4917 1087.7058,-85.5309 1089.4095,-92.3204"/>
</g>
<!-- Node12 -->
<g id="node13" class="node">
<title>Node12</title>
<g id="a_node13"><a xlink:href="perturbation__fold_8h.html" target="_top" xlink:title="Find a vector of perturbation energies that minimizes the discripancies between predicted and observe...">
<polygon fill="none" stroke="#000000" points="547,-56.5 547,-86.5 669,-86.5 669,-56.5 547,-56.5"/>
<text text-anchor="start" x="555" y="-74.5" font-family="Helvetica,sans-Serif" font-size="10.00" fill="#000000">ViennaRNA/perturbation</text>
<text text-anchor="middle" x="608" y="-63.5" font-family="Helvetica,sans-Serif" font-size="10.00" fill="#000000">_fold.h</text>
</a>
</g>
</g>
<!-- Node8&#45;&gt;Node12 -->
<g id="edge19" class="edge">
<title>Node8&#45;&gt;Node12</title>
<path fill="none" stroke="#191970" d="M850.7535,-128.9717C806.1475,-118.4112 733.3506,-101.1766 679.0907,-88.3307"/>
<polygon fill="#191970" stroke="#191970" points="679.7233,-84.8837 669.1859,-85.9857 678.1105,-91.6954 679.7233,-84.8837"/>
</g>
<!-- Node13 -->
<g id="node14" class="node">
<title>Node13</title>
<g id="a_node14"><a xlink:href="constraints__ligand_8h.html" target="_top" xlink:title="Functions for incorporation of ligands binding to hairpin and interior loop motifs using the soft con...">
<polygon fill="none" stroke="#000000" points="687.5,-56.5 687.5,-86.5 806.5,-86.5 806.5,-56.5 687.5,-56.5"/>
<text text-anchor="start" x="695.5" y="-74.5" font-family="Helvetica,sans-Serif" font-size="10.00" fill="#000000">ViennaRNA/constraints</text>
<text text-anchor="middle" x="747" y="-63.5" font-family="Helvetica,sans-Serif" font-size="10.00" fill="#000000">_ligand.h</text>
</a>
</g>
</g>
<!-- Node8&#45;&gt;Node13 -->
<g id="edge21" class="edge">
<title>Node8&#45;&gt;Node13</title>
<path fill="none" stroke="#191970" d="M870.3683,-128.9005C849.0811,-118.9961 815.2939,-103.2756 788.4565,-90.7888"/>
<polygon fill="#191970" stroke="#191970" points="789.8287,-87.567 779.2856,-86.5218 786.8757,-93.9137 789.8287,-87.567"/>
</g>
<!-- Node9&#45;&gt;Node3 -->
<g id="edge14" class="edge">
<title>Node9&#45;&gt;Node3</title>
<path fill="none" stroke="#191970" d="M923.051,-86.6371C938.7201,-94.872 955.1401,-106.7594 964,-123 970.5983,-135.095 971.2319,-142.2728 964,-154 933.0752,-204.1476 869.1245,-230.5011 821.2177,-243.7543"/>
<polygon fill="#191970" stroke="#191970" points="820.0296,-240.4481 811.2561,-246.3874 821.8185,-247.2156 820.0296,-240.4481"/>
</g>
<!-- Node10&#45;&gt;Node3 -->
<g id="edge16" class="edge">
<title>Node10&#45;&gt;Node3</title>
<path fill="none" stroke="#191970" d="M1016.0498,-86.7936C1005.6139,-116.3065 978.3367,-180.7753 931,-210 903.8859,-226.7397 870.6736,-237.4735 840.822,-244.3172"/>
<polygon fill="#191970" stroke="#191970" points="839.8665,-240.9432 830.8409,-246.492 841.3568,-247.7827 839.8665,-240.9432"/>
</g>
<!-- Node11&#45;&gt;Node3 -->
<g id="edge18" class="edge">
<title>Node11&#45;&gt;Node3</title>
<path fill="none" stroke="#191970" d="M1133.6158,-86.7056C1117.6495,-96.7821 1096.4089,-110.4156 1078,-123 1023.6173,-160.1763 1017.9236,-182.6373 958,-210 921.6426,-226.6017 878.6801,-237.5335 842.1695,-244.5556"/>
<polygon fill="#191970" stroke="#191970" points="841.2466,-241.167 832.0536,-246.4339 842.5246,-248.0494 841.2466,-241.167"/>
</g>
<!-- Node12&#45;&gt;Node3 -->
<g id="edge20" class="edge">
<title>Node12&#45;&gt;Node3</title>
<path fill="none" stroke="#191970" d="M662.4045,-86.5074C694.4063,-96.4473 730.5904,-110.0031 741,-123 767.1718,-155.6767 766.4938,-207.8218 763.7381,-236.1359"/>
<polygon fill="#191970" stroke="#191970" points="760.2267,-236.0307 762.5455,-246.3686 767.1797,-236.8411 760.2267,-236.0307"/>
</g>
<!-- Node13&#45;&gt;Node3 -->
<g id="edge22" class="edge">
<title>Node13&#45;&gt;Node3</title>
<path fill="none" stroke="#191970" d="M758.0139,-86.8796C764.3487,-96.6952 771.6896,-109.9806 775,-123 784.5285,-160.4742 780.6911,-171.7544 775,-210 773.6673,-218.9561 770.9506,-228.581 768.2619,-236.7"/>
<polygon fill="#191970" stroke="#191970" points="764.8933,-235.728 764.8624,-246.3228 771.4936,-238.0598 764.8933,-235.728"/>
</g>
<!-- Node14&#45;&gt;Node3 -->
<g id="edge24" class="edge">
<title>Node14&#45;&gt;Node3</title>
<path fill="none" stroke="#191970" d="M289.1635,-148.0859C326.5413,-158.2187 383.2781,-174.8061 432,-190 459.2374,-198.494 465.2914,-203.1989 493,-210 555.9351,-225.4476 628.1999,-237.2557 681.8753,-245.0388"/>
<polygon fill="#191970" stroke="#191970" points="681.6184,-248.5377 692.0141,-246.4934 682.6125,-241.6086 681.6184,-248.5377"/>
</g>
<!-- Node16&#45;&gt;Node3 -->
<g id="edge27" class="edge">
<title>Node16&#45;&gt;Node3</title>
<path fill="none" stroke="#191970" d="M1145.0121,-153.638C1133.8656,-170.4092 1109.4669,-196.8206 1082,-210 1041.7027,-229.3358 925.9025,-242.7184 844.9612,-249.8766"/>
<polygon fill="#191970" stroke="#191970" points="844.4353,-246.409 834.7755,-250.7608 845.0408,-253.3827 844.4353,-246.409"/>
</g>
<!-- Node16&#45;&gt;Node17 -->
<g id="edge28" class="edge">
<title>Node16&#45;&gt;Node17</title>
<path fill="none" stroke="#191970" d="M1181.6432,-123.4639C1201.7299,-113.9191 1227.9367,-101.4663 1249.6597,-91.144"/>
<polygon fill="#191970" stroke="#191970" points="1251.4446,-94.1709 1258.9746,-86.7177 1248.4403,-87.8484 1251.4446,-94.1709"/>
</g>
<!-- Node17&#45;&gt;Node3 -->
<g id="edge30" class="edge">
<title>Node17&#45;&gt;Node3</title>
<path fill="none" stroke="#191970" d="M1287.2798,-86.7866C1277.4315,-104.6635 1254.9012,-134.3108 1230,-154 1186.9671,-188.0257 1172.3966,-193.7466 1120,-210 1070.6826,-225.2982 934.6477,-240.3871 844.8554,-248.9141"/>
<polygon fill="#191970" stroke="#191970" points="844.3157,-245.4493 834.6874,-249.8704 844.9712,-252.4185 844.3157,-245.4493"/>
</g>
<!-- Node18 -->
<g id="node19" class="node">
<title>Node18</title>
<polygon fill="none" stroke="#bfbfbf" points="1268,-.5 1268,-19.5 1314,-19.5 1314,-.5 1268,-.5"/>
<text text-anchor="middle" x="1291" y="-7.5" font-family="Helvetica,sans-Serif" font-size="10.00" fill="#000000">stdio.h</text>
</g>
<!-- Node17&#45;&gt;Node18 -->
<g id="edge29" class="edge">
<title>Node17&#45;&gt;Node18</title>
<path fill="none" stroke="#191970" d="M1291,-56.2977C1291,-48.3834 1291,-38.6043 1291,-30.0759"/>
<polygon fill="#191970" stroke="#191970" points="1294.5001,-29.8469 1291,-19.8469 1287.5001,-29.847 1294.5001,-29.8469"/>
</g>
</g>
</svg>
        <g id="navigator" transform="translate(0 0)" fill="#404254">
                <rect fill="#f2f5e9" fill-opacity="0.5" stroke="#606060" stroke-width=".5" x="0" y="0" width="60" height="60"/>
                <use id="zoomplus" xlink:href="#zoomPlus" x="17" y="9" onmousedown="handleZoom(evt,'in')"/>
                <use id="zoomminus" xlink:href="#zoomMin" x="42" y="9" onmousedown="handleZoom(evt,'out')"/>
                <use id="reset" xlink:href="#resetDef" x="30" y="36" onmousedown="handleReset()"/>
                <g id="arrowUp" xlink:href="#dirArrow" transform="translate(30 24)" onmousedown="handlePan(0,-1)">
                  <use xlink:href="#rim" fill="#404040">
                        <set attributeName="fill" to="#808080" begin="arrowUp.mouseover" end="arrowUp.mouseout"/>
                  </use>
                  <path fill="none" stroke="white" stroke-width="1.5" d="M0,-3.0v7 M-2.5,-0.5L0,-3.0L2.5,-0.5"/>
                </g>
                <g id="arrowRight" xlink:href="#dirArrow" transform="rotate(90) translate(36 -43)" onmousedown="handlePan(1,0)">
                  <use xlink:href="#rim" fill="#404040">
                        <set attributeName="fill" to="#808080" begin="arrowRight.mouseover" end="arrowRight.mouseout"/>
                  </use>
                  <path fill="none" stroke="white" stroke-width="1.5" d="M0,-3.0v7 M-2.5,-0.5L0,-3.0L2.5,-0.5"/>
                </g>
                <g id="arrowDown" xlink:href="#dirArrow" transform="rotate(180) translate(-30 -48)" onmousedown="handlePan(0,1)">
                  <use xlink:href="#rim" fill="#404040">
                        <set attributeName="fill" to="#808080" begin="arrowDown.mouseover" end="arrowDown.mouseout"/>
                  </use>
                  <path fill="none" stroke="white" stroke-width="1.5" d="M0,-3.0v7 M-2.5,-0.5L0,-3.0L2.5,-0.5"/>
                </g>
                <g id="arrowLeft" xlink:href="#dirArrow" transform="rotate(270) translate(-36 17)" onmousedown="handlePan(-1,0)">
                  <use xlink:href="#rim" fill="#404040">
                        <set attributeName="fill" to="#808080" begin="arrowLeft.mouseover" end="arrowLeft.mouseout"/>
                  </use>
                  <path fill="none" stroke="white" stroke-width="1.5" d="M0,-3.0v7 M-2.5,-0.5L0,-3.0L2.5,-0.5"/>
                </g>
        </g>
        <svg viewBox="0 0 15 15" width="100%" height="30px" preserveAspectRatio="xMaxYMin meet">
         <g id="arrow_out" transform="scale(0.3 0.3)">
          <a xlink:href="params_8h__incl_org.svg" target="_base">
           <rect id="button" ry="5" rx="5" y="6" x="6" height="38" width="38"
                fill="#f2f5e9" fill-opacity="0.5" stroke="#606060" stroke-width="1.0"/>
           <path id="arrow"
             d="M 11.500037,31.436501 C 11.940474,20.09759 22.043105,11.32322 32.158766,21.979434 L 37.068811,17.246167 C 37.068811,17.246167 37.088388,32 37.088388,32 L 22.160133,31.978069 C 22.160133,31.978069 26.997745,27.140456 26.997745,27.140456 C 18.528582,18.264221 13.291696,25.230495 11.500037,31.436501 z"
             style="fill:#404040;"/>
          </a>
         </g>
        </svg>
</svg>
