<?xml version="1.0" encoding="UTF-8" standalone="no"?>
<!DOCTYPE svg PUBLIC "-//W3C//DTD SVG 1.1//EN"
 "http://www.w3.org/Graphics/SVG/1.1/DTD/svg11.dtd">
<!-- Generated by graphviz version 2.40.1 (20161225.0304)
 -->
<!-- Title: ViennaRNA/part_func_co.h Pages: 1 -->
<!--zoomable 453 -->
<svg id="main" version="1.1" xmlns="http://www.w3.org/2000/svg" xmlns:xlink="http://www.w3.org/1999/xlink" xml:space="preserve" onload="init(evt)">
<style type="text/css"><![CDATA[
.edge:hover path { stroke: red; }
.edge:hover polygon { stroke: red; fill: red; }
]]></style>
<script type="text/javascript"><![CDATA[
var edges = document.getElementsByTagName('g');
if (edges && edges.length) {
  for (var i=0;i<edges.length;i++) {
    if (edges[i].id.substr(0,4)=='edge') {
      edges[i].setAttribute('class','edge');
    }
  }
}
]]></script>
        <defs>
                <circle id="rim" cx="0" cy="0" r="7"/>
                <circle id="rim2" cx="0" cy="0" r="3.5"/>
                <g id="zoomPlus">
                        <use xlink:href="#rim" fill="#404040">
                                <set attributeName="fill" to="#808080" begin="zoomplus.mouseover" end="zoomplus.mouseout"/>
                        </use>
                        <path d="M-4,0h8M0,-4v8" fill="none" stroke="white" stroke-width="1.5" pointer-events="none"/>
                </g>
                <g id="zoomMin">
                        <use xlink:href="#rim" fill="#404040">
                                <set attributeName="fill" to="#808080" begin="zoomminus.mouseover" end="zoomminus.mouseout"/>
                        </use>
                        <path d="M-4,0h8" fill="none" stroke="white" stroke-width="1.5" pointer-events="none"/>
                </g>
                <g id="dirArrow">
                        <path fill="none" stroke="white" stroke-width="1.5" d="M0,-3.0v7 M-2.5,-0.5L0,-3.0L2.5,-0.5"/>
                </g>
               <g id="resetDef">
                       <use xlink:href="#rim2" fill="#404040">
                               <set attributeName="fill" to="#808080" begin="reset.mouseover" end="reset.mouseout"/>
                       </use>
               </g>
        </defs>

<script type="text/javascript">
var viewWidth = 1370;
var viewHeight = 453;
var sectionId = 'dynsection-0';
</script>
<script xlink:href="svgpan.js"/>
<svg id="graph" class="graph">
<g id="viewport">
<title>ViennaRNA/part_func_co.h</title>
<!-- Node0 -->
<g id="node1" class="node">
<title>Node0</title>
<polygon fill="#bfbfbf" stroke="#000000" points="1098,-425.5 1098,-444.5 1234,-444.5 1234,-425.5 1098,-425.5"/>
<text text-anchor="middle" x="1166" y="-432.5" font-family="Helvetica,sans-Serif" font-size="10.00" fill="#000000">ViennaRNA/part_func_co.h</text>
</g>
<!-- Node1 -->
<g id="node2" class="node">
<title>Node1</title>
<g id="a_node2"><a xlink:href="data__structures_8h.html" target="_top" xlink:title="Various data structures and pre&#45;processor macros. ">
<polygon fill="none" stroke="#000000" points="622.5,-246.5 622.5,-265.5 769.5,-265.5 769.5,-246.5 622.5,-246.5"/>
<text text-anchor="middle" x="696" y="-253.5" font-family="Helvetica,sans-Serif" font-size="10.00" fill="#000000">ViennaRNA/data_structures.h</text>
</a>
</g>
</g>
<!-- Node0&#45;&gt;Node1 -->
<g id="edge1" class="edge">
<title>Node0&#45;&gt;Node1</title>
<path fill="none" stroke="#191970" d="M1120.1882,-425.4721C1083.0421,-417.2587 1029.5642,-404.3221 984,-389 923.596,-368.6876 909.9299,-359.5586 852,-333 806.4676,-312.1252 754.4593,-285.9815 723.4748,-270.1564"/>
<polygon fill="#191970" stroke="#191970" points="725.0604,-267.0362 714.5643,-265.5937 721.8699,-273.2669 725.0604,-267.0362"/>
</g>
<!-- Node6 -->
<g id="node7" class="node">
<title>Node6</title>
<g id="a_node7"><a xlink:href="params_8h.html" target="_top" xlink:title="Functions to deal with sets of energy parameters. ">
<polygon fill="none" stroke="#000000" points="1248,-129 1248,-148 1360,-148 1360,-129 1248,-129"/>
<text text-anchor="middle" x="1304" y="-136" font-family="Helvetica,sans-Serif" font-size="10.00" fill="#000000">ViennaRNA/params.h</text>
</a>
</g>
</g>
<!-- Node0&#45;&gt;Node6 -->
<g id="edge41" class="edge">
<title>Node0&#45;&gt;Node6</title>
<path fill="none" stroke="#191970" d="M1224.2758,-425.4709C1282.0513,-412.3049 1362,-382.3669 1362,-317.5 1362,-317.5 1362,-317.5 1362,-256 1362,-217.2109 1336.2702,-177.9674 1319.085,-156.0823"/>
<polygon fill="#191970" stroke="#191970" points="1321.5881,-153.6133 1312.5581,-148.0716 1316.1613,-158.0349 1321.5881,-153.6133"/>
</g>
<!-- Node20 -->
<g id="node21" class="node">
<title>Node20</title>
<g id="a_node21"><a xlink:href="part__func_8h.html" target="_top" xlink:title="Partition function implementations. ">
<polygon fill="none" stroke="#000000" points="993,-369.5 993,-388.5 1113,-388.5 1113,-369.5 993,-369.5"/>
<text text-anchor="middle" x="1053" y="-376.5" font-family="Helvetica,sans-Serif" font-size="10.00" fill="#000000">ViennaRNA/part_func.h</text>
</a>
</g>
</g>
<!-- Node0&#45;&gt;Node20 -->
<g id="edge42" class="edge">
<title>Node0&#45;&gt;Node20</title>
<path fill="none" stroke="#191970" d="M1146.5746,-425.3733C1128.5979,-416.4644 1101.6559,-403.1127 1081.291,-393.0203"/>
<polygon fill="#191970" stroke="#191970" points="1082.6861,-389.8055 1072.1719,-388.5011 1079.5778,-396.0776 1082.6861,-389.8055"/>
</g>
<!-- Node22 -->
<g id="node23" class="node">
<title>Node22</title>
<g id="a_node23"><a xlink:href="equilibrium__probs_8h.html" target="_top" xlink:title="Equilibrium Probability implementations. ">
<polygon fill="none" stroke="#000000" points="1107,-302.5 1107,-332.5 1225,-332.5 1225,-302.5 1107,-302.5"/>
<text text-anchor="start" x="1115" y="-320.5" font-family="Helvetica,sans-Serif" font-size="10.00" fill="#000000">ViennaRNA/equilibrium</text>
<text text-anchor="middle" x="1166" y="-309.5" font-family="Helvetica,sans-Serif" font-size="10.00" fill="#000000">_probs.h</text>
</a>
</g>
</g>
<!-- Node0&#45;&gt;Node22 -->
<g id="edge53" class="edge">
<title>Node0&#45;&gt;Node22</title>
<path fill="none" stroke="#191970" d="M1166,-425.3845C1166,-407.544 1166,-368.7839 1166,-342.9138"/>
<polygon fill="#191970" stroke="#191970" points="1169.5001,-342.7143 1166,-332.7143 1162.5001,-342.7143 1169.5001,-342.7143"/>
</g>
<!-- Node24 -->
<g id="node25" class="node">
<title>Node24</title>
<g id="a_node25"><a xlink:href="concentrations_8h.html" target="_top" xlink:title="Concentration computations for RNA&#45;RNA interactions. ">
<polygon fill="none" stroke="#000000" points="1190.5,-246.5 1190.5,-265.5 1333.5,-265.5 1333.5,-246.5 1190.5,-246.5"/>
<text text-anchor="middle" x="1262" y="-253.5" font-family="Helvetica,sans-Serif" font-size="10.00" fill="#000000">ViennaRNA/concentrations.h</text>
</a>
</g>
</g>
<!-- Node0&#45;&gt;Node24 -->
<g id="edge54" class="edge">
<title>Node0&#45;&gt;Node24</title>
<path fill="none" stroke="#191970" d="M1173.5887,-425.3516C1187.1298,-407.7907 1215.7447,-369.0821 1234,-333 1243.4959,-314.231 1251.3641,-291.4532 1256.3165,-275.5604"/>
<polygon fill="#191970" stroke="#191970" points="1259.7261,-276.3763 1259.2635,-265.7915 1253.0244,-274.3545 1259.7261,-276.3763"/>
</g>
<!-- Node2 -->
<g id="node3" class="node">
<title>Node2</title>
<g id="a_node3"><a xlink:href="energy__const_8h.html" target="_top" xlink:title="Energy parameter constants. ">
<polygon fill="none" stroke="#000000" points="1193,-62 1193,-81 1331,-81 1331,-62 1193,-62"/>
<text text-anchor="middle" x="1262" y="-69" font-family="Helvetica,sans-Serif" font-size="10.00" fill="#000000">ViennaRNA/energy_const.h</text>
</a>
</g>
</g>
<!-- Node1&#45;&gt;Node2 -->
<g id="edge2" class="edge">
<title>Node1&#45;&gt;Node2</title>
<path fill="none" stroke="#191970" d="M769.6139,-252.6181C833.9663,-247.9196 929.1797,-236.7111 1008,-210 1025.335,-204.1254 1026.9106,-196.5547 1044,-190 1110.8407,-164.3629 1141.1093,-193.218 1201,-154 1225.127,-138.201 1243.1348,-109.3881 1253.1133,-90.3412"/>
<polygon fill="#191970" stroke="#191970" points="1256.3666,-91.6604 1257.7042,-81.1503 1250.1044,-88.5323 1256.3666,-91.6604"/>
</g>
<!-- Node4 -->
<g id="node5" class="node">
<title>Node4</title>
<g id="a_node5"><a xlink:href="fold__compound_8h.html" target="_top" xlink:title="The Basic Fold Compound API. ">
<polygon fill="none" stroke="#000000" points="818,-190.5 818,-209.5 964,-209.5 964,-190.5 818,-190.5"/>
<text text-anchor="middle" x="891" y="-197.5" font-family="Helvetica,sans-Serif" font-size="10.00" fill="#000000">ViennaRNA/fold_compound.h</text>
</a>
</g>
</g>
<!-- Node1&#45;&gt;Node4 -->
<g id="edge4" class="edge">
<title>Node1&#45;&gt;Node4</title>
<path fill="none" stroke="#191970" d="M729.5217,-246.3733C762.3683,-236.9404 812.5595,-222.5265 848.2578,-212.2747"/>
<polygon fill="#191970" stroke="#191970" points="849.2703,-215.6255 857.9157,-209.5011 847.3381,-208.8974 849.2703,-215.6255"/>
</g>
<!-- Node5 -->
<g id="node6" class="node">
<title>Node5</title>
<g id="a_node6"><a xlink:href="model_8h.html" target="_top" xlink:title="The model details data structure and its corresponding modifiers. ">
<polygon fill="none" stroke="#000000" points="855,-62 855,-81 961,-81 961,-62 855,-62"/>
<text text-anchor="middle" x="908" y="-69" font-family="Helvetica,sans-Serif" font-size="10.00" fill="#000000">ViennaRNA/model.h</text>
</a>
</g>
</g>
<!-- Node1&#45;&gt;Node5 -->
<g id="edge33" class="edge">
<title>Node1&#45;&gt;Node5</title>
<path fill="none" stroke="#191970" d="M699.8675,-246.3865C711.886,-216.5933 748.0758,-127.5265 753,-123 768.4746,-108.7751 818.0082,-93.7543 856.9634,-83.63"/>
<polygon fill="#191970" stroke="#191970" points="858.2977,-86.9017 867.1214,-81.0372 856.5664,-80.1192 858.2977,-86.9017"/>
</g>
<!-- Node1&#45;&gt;Node6 -->
<g id="edge34" class="edge">
<title>Node1&#45;&gt;Node6</title>
<path fill="none" stroke="#191970" d="M769.6909,-249.0805C838.7509,-242.1144 944.4579,-229.5662 1035,-210 1064.959,-203.5258 1071.5166,-198.3778 1101,-190 1151.0114,-175.789 1208.6235,-160.6499 1249.7714,-150.4914"/>
<polygon fill="#191970" stroke="#191970" points="1250.7204,-153.8625 1259.6003,-148.0836 1249.0547,-147.0636 1250.7204,-153.8625"/>
</g>
<!-- Node8 -->
<g id="node9" class="node">
<title>Node8</title>
<g id="a_node9"><a xlink:href="dp__matrices_8h.html" target="_top" xlink:title="Functions to deal with standard dynamic programming (DP) matrices. ">
<polygon fill="none" stroke="#000000" points="350.5,-129 350.5,-148 483.5,-148 483.5,-129 350.5,-129"/>
<text text-anchor="middle" x="417" y="-136" font-family="Helvetica,sans-Serif" font-size="10.00" fill="#000000">ViennaRNA/dp_matrices.h</text>
</a>
</g>
</g>
<!-- Node1&#45;&gt;Node8 -->
<g id="edge35" class="edge">
<title>Node1&#45;&gt;Node8</title>
<path fill="none" stroke="#191970" d="M669.5099,-246.484C616.7139,-225.7565 499.4382,-176.4564 445.2504,-152.3085"/>
<polygon fill="#191970" stroke="#191970" points="446.4523,-149.0115 435.8963,-148.1048 443.5829,-155.3964 446.4523,-149.0115"/>
</g>
<!-- Node9 -->
<g id="node10" class="node">
<title>Node9</title>
<g id="a_node10"><a xlink:href="constraints_8h.html" target="_top" xlink:title="Functions and data structures for constraining secondary structure predictions and evaluation...">
<polygon fill="none" stroke="#000000" points="502,-129 502,-148 630,-148 630,-129 502,-129"/>
<text text-anchor="middle" x="566" y="-136" font-family="Helvetica,sans-Serif" font-size="10.00" fill="#000000">ViennaRNA/constraints.h</text>
</a>
</g>
</g>
<!-- Node1&#45;&gt;Node9 -->
<g id="edge36" class="edge">
<title>Node1&#45;&gt;Node9</title>
<path fill="none" stroke="#191970" d="M677.8279,-246.1863C665.2256,-236.9116 648.9725,-222.5825 635,-210 614.6878,-191.7086 591.6367,-170.5251 577.6601,-155.9911"/>
<polygon fill="#191970" stroke="#191970" points="579.9123,-153.2692 570.5688,-148.2741 574.758,-158.0056 579.9123,-153.2692"/>
</g>
<!-- Node15 -->
<g id="node16" class="node">
<title>Node15</title>
<g id="a_node16"><a xlink:href="grammar_8h.html" target="_top" xlink:title="Implementations for the RNA folding grammar. ">
<polygon fill="none" stroke="#000000" points="762,-129 762,-148 880,-148 880,-129 762,-129"/>
<text text-anchor="middle" x="821" y="-136" font-family="Helvetica,sans-Serif" font-size="10.00" fill="#000000">ViennaRNA/grammar.h</text>
</a>
</g>
</g>
<!-- Node1&#45;&gt;Node15 -->
<g id="edge37" class="edge">
<title>Node1&#45;&gt;Node15</title>
<path fill="none" stroke="#191970" d="M700.3414,-246.2913C708.9384,-237.0907 725.2374,-222.8118 739,-210 758.974,-191.406 781.3017,-169.3414 797.8951,-154.6909"/>
<polygon fill="#191970" stroke="#191970" points="800.2245,-157.3042 805.5449,-148.1421 795.6722,-151.9865 800.2245,-157.3042"/>
</g>
<!-- Node16 -->
<g id="node17" class="node">
<title>Node16</title>
<g id="a_node17"><a xlink:href="structured__domains_8h.html" target="_top" xlink:title="This module provides interfaces that deal with additional structured domains in the folding grammar...">
<polygon fill="none" stroke="#000000" points="1076.5,-123.5 1076.5,-153.5 1191.5,-153.5 1191.5,-123.5 1076.5,-123.5"/>
<text text-anchor="start" x="1084.5" y="-141.5" font-family="Helvetica,sans-Serif" font-size="10.00" fill="#000000">ViennaRNA/structured</text>
<text text-anchor="middle" x="1134" y="-130.5" font-family="Helvetica,sans-Serif" font-size="10.00" fill="#000000">_domains.h</text>
</a>
</g>
</g>
<!-- Node1&#45;&gt;Node16 -->
<g id="edge38" class="edge">
<title>Node1&#45;&gt;Node16</title>
<path fill="none" stroke="#191970" d="M769.5692,-249.2681C826.1239,-242.7871 905.7032,-230.8143 973,-210 993.136,-203.7721 996.7843,-198.6605 1016,-190 1040.1417,-179.1193 1067.2096,-167.2801 1089.3254,-157.6997"/>
<polygon fill="#191970" stroke="#191970" points="1091.0036,-160.7873 1098.7927,-153.6054 1088.2249,-154.3624 1091.0036,-160.7873"/>
</g>
<!-- Node17 -->
<g id="node18" class="node">
<title>Node17</title>
<g id="a_node18"><a xlink:href="unstructured__domains_8h.html" target="_top" xlink:title="Functions to modify unstructured domains, e.g. to incorporate ligands binding to unpaired stretches...">
<polygon fill="none" stroke="#000000" points="92.5,-123.5 92.5,-153.5 217.5,-153.5 217.5,-123.5 92.5,-123.5"/>
<text text-anchor="start" x="100.5" y="-141.5" font-family="Helvetica,sans-Serif" font-size="10.00" fill="#000000">ViennaRNA/unstructured</text>
<text text-anchor="middle" x="155" y="-130.5" font-family="Helvetica,sans-Serif" font-size="10.00" fill="#000000">_domains.h</text>
</a>
</g>
</g>
<!-- Node1&#45;&gt;Node17 -->
<g id="edge39" class="edge">
<title>Node1&#45;&gt;Node17</title>
<path fill="none" stroke="#191970" d="M622.1307,-254.5435C507.2014,-251.2885 291.9068,-241.0696 223,-210 199.4266,-199.3709 178.351,-178.5911 165.7625,-162.1606"/>
<polygon fill="#191970" stroke="#191970" points="168.3159,-159.7099 159.6801,-153.572 162.6033,-163.7556 168.3159,-159.7099"/>
</g>
<!-- Node18 -->
<g id="node19" class="node">
<title>Node18</title>
<g id="a_node19"><a xlink:href="structure__utils_8h.html" target="_top" xlink:title="Various utility&#45; and helper&#45;functions for secondary structure parsing, converting, etc. ">
<polygon fill="none" stroke="#000000" points="0,-56.5 0,-86.5 110,-86.5 110,-56.5 0,-56.5"/>
<text text-anchor="start" x="8" y="-74.5" font-family="Helvetica,sans-Serif" font-size="10.00" fill="#000000">ViennaRNA/structure</text>
<text text-anchor="middle" x="55" y="-63.5" font-family="Helvetica,sans-Serif" font-size="10.00" fill="#000000">_utils.h</text>
</a>
</g>
</g>
<!-- Node1&#45;&gt;Node18 -->
<g id="edge40" class="edge">
<title>Node1&#45;&gt;Node18</title>
<path fill="none" stroke="#191970" d="M622.1925,-252.6424C501.9678,-246.4209 269.6713,-231.7257 191,-210 135.4306,-194.6541 112.2635,-197.1203 74,-154 59.8001,-137.9978 52.7439,-114.4931 50.7903,-96.6617"/>
<polygon fill="#191970" stroke="#191970" points="54.2838,-96.4465 50.2141,-86.6644 47.2953,-96.8493 54.2838,-96.4465"/>
</g>
<!-- Node3 -->
<g id="node4" class="node">
<title>Node3</title>
<polygon fill="none" stroke="#bfbfbf" points="1238,-.5 1238,-19.5 1286,-19.5 1286,-.5 1238,-.5"/>
<text text-anchor="middle" x="1262" y="-7.5" font-family="Helvetica,sans-Serif" font-size="10.00" fill="#000000">limits.h</text>
</g>
<!-- Node2&#45;&gt;Node3 -->
<g id="edge3" class="edge">
<title>Node2&#45;&gt;Node3</title>
<path fill="none" stroke="#191970" d="M1262,-61.8906C1262,-53.3657 1262,-40.6392 1262,-29.9235"/>
<polygon fill="#191970" stroke="#191970" points="1265.5001,-29.7448 1262,-19.7449 1258.5001,-29.7449 1265.5001,-29.7448"/>
</g>
<!-- Node4&#45;&gt;Node5 -->
<g id="edge5" class="edge">
<title>Node4&#45;&gt;Node5</title>
<path fill="none" stroke="#191970" d="M892.2778,-190.3416C895.0467,-169.4114 901.6493,-119.504 905.3572,-91.4762"/>
<polygon fill="#191970" stroke="#191970" points="908.8656,-91.6432 906.7074,-81.2705 901.926,-90.725 908.8656,-91.6432"/>
</g>
<!-- Node4&#45;&gt;Node6 -->
<g id="edge6" class="edge">
<title>Node4&#45;&gt;Node6</title>
<path fill="none" stroke="#191970" d="M955.4248,-190.4795C1018.1305,-181.2038 1116.1128,-166.6852 1201,-154 1212.8766,-152.2252 1225.5222,-150.3282 1237.7389,-148.4918"/>
<polygon fill="#191970" stroke="#191970" points="1238.5054,-151.916 1247.8736,-146.9676 1237.4643,-144.9939 1238.5054,-151.916"/>
</g>
<!-- Node7 -->
<g id="node8" class="node">
<title>Node7</title>
<g id="a_node8"><a xlink:href="sequence_8h.html" target="_top" xlink:title="Functions and data structures related to sequence representations. ">
<polygon fill="none" stroke="#000000" points="936,-129 936,-148 1058,-148 1058,-129 936,-129"/>
<text text-anchor="middle" x="997" y="-136" font-family="Helvetica,sans-Serif" font-size="10.00" fill="#000000">ViennaRNA/sequence.h</text>
</a>
</g>
</g>
<!-- Node4&#45;&gt;Node7 -->
<g id="edge10" class="edge">
<title>Node4&#45;&gt;Node7</title>
<path fill="none" stroke="#191970" d="M907.5625,-190.3906C924.7537,-180.4165 951.8582,-164.6908 971.7266,-153.1633"/>
<polygon fill="#191970" stroke="#191970" points="973.6606,-156.0877 980.5538,-148.0419 970.1477,-150.033 973.6606,-156.0877"/>
</g>
<!-- Node4&#45;&gt;Node8 -->
<g id="edge11" class="edge">
<title>Node4&#45;&gt;Node8</title>
<path fill="none" stroke="#191970" d="M817.752,-193.4419C737.7084,-185.8316 605.8223,-171.9905 493,-154 485.7775,-152.8483 478.1988,-151.4876 470.7401,-150.0585"/>
<polygon fill="#191970" stroke="#191970" points="471.1759,-146.5772 460.6882,-148.0804 469.8242,-153.4455 471.1759,-146.5772"/>
</g>
<!-- Node4&#45;&gt;Node9 -->
<g id="edge13" class="edge">
<title>Node4&#45;&gt;Node9</title>
<path fill="none" stroke="#191970" d="M840.5753,-190.4581C782.73,-179.512 687.9423,-161.5752 626.2576,-149.9026"/>
<polygon fill="#191970" stroke="#191970" points="626.752,-146.4341 616.2755,-148.0137 625.4504,-153.312 626.752,-146.4341"/>
</g>
<!-- Node4&#45;&gt;Node15 -->
<g id="edge25" class="edge">
<title>Node4&#45;&gt;Node15</title>
<path fill="none" stroke="#191970" d="M880.0625,-190.3906C869.338,-180.9683 852.7713,-166.4134 839.9099,-155.1137"/>
<polygon fill="#191970" stroke="#191970" points="841.9143,-152.2158 832.0917,-148.2449 837.2941,-157.4745 841.9143,-152.2158"/>
</g>
<!-- Node4&#45;&gt;Node16 -->
<g id="edge27" class="edge">
<title>Node4&#45;&gt;Node16</title>
<path fill="none" stroke="#191970" d="M928.7021,-190.4581C965.3871,-181.1736 1021.944,-166.8599 1066.4139,-155.6051"/>
<polygon fill="#191970" stroke="#191970" points="1067.4468,-158.9541 1076.2824,-153.1075 1065.7293,-152.1681 1067.4468,-158.9541"/>
</g>
<!-- Node4&#45;&gt;Node17 -->
<g id="edge28" class="edge">
<title>Node4&#45;&gt;Node17</title>
<path fill="none" stroke="#191970" d="M817.7387,-193.8783C676.6481,-182.0888 368.7451,-156.3605 227.9222,-144.5934"/>
<polygon fill="#191970" stroke="#191970" points="227.9258,-141.0816 217.669,-143.7366 227.3428,-148.0572 227.9258,-141.0816"/>
</g>
<!-- Node6&#45;&gt;Node1 -->
<g id="edge8" class="edge">
<title>Node6&#45;&gt;Node1</title>
<path fill="none" stroke="#191970" d="M1273.0811,-148.0836C1236.1756,-158.1471 1173.135,-174.6173 1119,-190 1089.5166,-198.3778 1082.959,-203.5258 1053,-210 960.6938,-229.9475 852.6262,-242.6007 779.7042,-249.4813"/>
<polygon fill="#191970" stroke="#191970" points="779.2869,-246.0049 769.6532,-250.4141 779.9338,-252.975 779.2869,-246.0049"/>
</g>
<!-- Node6&#45;&gt;Node2 -->
<g id="edge7" class="edge">
<title>Node6&#45;&gt;Node2</title>
<path fill="none" stroke="#191970" d="M1297.9824,-128.9005C1291.62,-118.751 1281.4291,-102.4941 1273.5142,-89.8679"/>
<polygon fill="#191970" stroke="#191970" points="1276.2833,-87.6956 1268.0064,-81.0817 1270.3523,-91.4135 1276.2833,-87.6956"/>
</g>
<!-- Node6&#45;&gt;Node5 -->
<g id="edge9" class="edge">
<title>Node6&#45;&gt;Node5</title>
<path fill="none" stroke="#191970" d="M1247.6834,-128.9717C1174.6257,-116.6109 1047.5245,-95.1064 971.2312,-82.1982"/>
<polygon fill="#191970" stroke="#191970" points="971.7155,-78.7305 961.2718,-80.5132 970.5477,-85.6324 971.7155,-78.7305"/>
</g>
<!-- Node8&#45;&gt;Node1 -->
<g id="edge12" class="edge">
<title>Node8&#45;&gt;Node1</title>
<path fill="none" stroke="#191970" d="M443.6623,-148.0836C496.5354,-168.8484 613.5977,-218.0601 667.7337,-242.1844"/>
<polygon fill="#191970" stroke="#191970" points="666.5241,-245.478 677.0801,-246.3845 669.3934,-239.093 666.5241,-245.478"/>
</g>
<!-- Node9&#45;&gt;Node1 -->
<g id="edge14" class="edge">
<title>Node9&#45;&gt;Node1</title>
<path fill="none" stroke="#191970" d="M582.2162,-148.0423C600.1659,-161.8062 628.5648,-187.9957 653,-210 663.6977,-219.6334 675.7323,-230.2908 684.6136,-238.9196"/>
<polygon fill="#191970" stroke="#191970" points="682.2492,-241.5071 691.7547,-246.1863 687.2419,-236.6006 682.2492,-241.5071"/>
</g>
<!-- Node10 -->
<g id="node11" class="node">
<title>Node10</title>
<g id="a_node11"><a xlink:href="constraints__hard_8h.html" target="_top" xlink:title="Functions and data structures for handling of secondary structure hard constraints. ">
<polygon fill="none" stroke="#000000" points="699.5,-56.5 699.5,-86.5 818.5,-86.5 818.5,-56.5 699.5,-56.5"/>
<text text-anchor="start" x="707.5" y="-74.5" font-family="Helvetica,sans-Serif" font-size="10.00" fill="#000000">ViennaRNA/constraints</text>
<text text-anchor="middle" x="759" y="-63.5" font-family="Helvetica,sans-Serif" font-size="10.00" fill="#000000">_hard.h</text>
</a>
</g>
</g>
<!-- Node9&#45;&gt;Node10 -->
<g id="edge15" class="edge">
<title>Node9&#45;&gt;Node10</title>
<path fill="none" stroke="#191970" d="M593.6522,-128.9005C622.9305,-118.7366 669.8517,-102.4479 706.2444,-89.8141"/>
<polygon fill="#191970" stroke="#191970" points="707.4293,-93.1078 715.7284,-86.5218 705.1335,-86.4949 707.4293,-93.1078"/>
</g>
<!-- Node11 -->
<g id="node12" class="node">
<title>Node11</title>
<g id="a_node12"><a xlink:href="constraints__soft_8h.html" target="_top" xlink:title="Functions and data structures for secondary structure soft constraints. ">
<polygon fill="none" stroke="#000000" points="147.5,-56.5 147.5,-86.5 266.5,-86.5 266.5,-56.5 147.5,-56.5"/>
<text text-anchor="start" x="155.5" y="-74.5" font-family="Helvetica,sans-Serif" font-size="10.00" fill="#000000">ViennaRNA/constraints</text>
<text text-anchor="middle" x="207" y="-63.5" font-family="Helvetica,sans-Serif" font-size="10.00" fill="#000000">_soft.h</text>
</a>
</g>
</g>
<!-- Node9&#45;&gt;Node11 -->
<g id="edge17" class="edge">
<title>Node9&#45;&gt;Node11</title>
<path fill="none" stroke="#191970" d="M521.8434,-128.9337C512.0336,-126.897 501.6757,-124.8151 492,-123 399.01,-105.5557 372.6083,-105.8337 276.4993,-87.2334"/>
<polygon fill="#191970" stroke="#191970" points="277.1468,-83.7938 266.6612,-85.3111 275.8044,-90.6639 277.1468,-83.7938"/>
</g>
<!-- Node12 -->
<g id="node13" class="node">
<title>Node12</title>
<g id="a_node13"><a xlink:href="constraints__SHAPE_8h.html" target="_top" xlink:title="This module provides function to incorporate SHAPE reactivity data into the folding recursions by mea...">
<polygon fill="none" stroke="#000000" points="284.5,-56.5 284.5,-86.5 403.5,-86.5 403.5,-56.5 284.5,-56.5"/>
<text text-anchor="start" x="292.5" y="-74.5" font-family="Helvetica,sans-Serif" font-size="10.00" fill="#000000">ViennaRNA/constraints</text>
<text text-anchor="middle" x="344" y="-63.5" font-family="Helvetica,sans-Serif" font-size="10.00" fill="#000000">_SHAPE.h</text>
</a>
</g>
</g>
<!-- Node9&#45;&gt;Node12 -->
<g id="edge19" class="edge">
<title>Node9&#45;&gt;Node12</title>
<path fill="none" stroke="#191970" d="M534.1928,-128.9005C500.1569,-118.6284 445.393,-102.1006 403.3508,-89.4122"/>
<polygon fill="#191970" stroke="#191970" points="404.3584,-86.0604 393.7736,-86.5218 402.3358,-92.7619 404.3584,-86.0604"/>
</g>
<!-- Node13 -->
<g id="node14" class="node">
<title>Node13</title>
<g id="a_node14"><a xlink:href="perturbation__fold_8h.html" target="_top" xlink:title="Find a vector of perturbation energies that minimizes the discripancies between predicted and observe...">
<polygon fill="none" stroke="#000000" points="422,-56.5 422,-86.5 544,-86.5 544,-56.5 422,-56.5"/>
<text text-anchor="start" x="430" y="-74.5" font-family="Helvetica,sans-Serif" font-size="10.00" fill="#000000">ViennaRNA/perturbation</text>
<text text-anchor="middle" x="483" y="-63.5" font-family="Helvetica,sans-Serif" font-size="10.00" fill="#000000">_fold.h</text>
</a>
</g>
</g>
<!-- Node9&#45;&gt;Node13 -->
<g id="edge21" class="edge">
<title>Node9&#45;&gt;Node13</title>
<path fill="none" stroke="#191970" d="M554.1081,-128.9005C542.5349,-119.5583 524.5517,-105.0417 509.5662,-92.945"/>
<polygon fill="#191970" stroke="#191970" points="511.5887,-90.0796 501.6091,-86.5218 507.1918,-95.5264 511.5887,-90.0796"/>
</g>
<!-- Node14 -->
<g id="node15" class="node">
<title>Node14</title>
<g id="a_node15"><a xlink:href="constraints__ligand_8h.html" target="_top" xlink:title="Functions for incorporation of ligands binding to hairpin and interior loop motifs using the soft con...">
<polygon fill="none" stroke="#000000" points="562.5,-56.5 562.5,-86.5 681.5,-86.5 681.5,-56.5 562.5,-56.5"/>
<text text-anchor="start" x="570.5" y="-74.5" font-family="Helvetica,sans-Serif" font-size="10.00" fill="#000000">ViennaRNA/constraints</text>
<text text-anchor="middle" x="622" y="-63.5" font-family="Helvetica,sans-Serif" font-size="10.00" fill="#000000">_ligand.h</text>
</a>
</g>
</g>
<!-- Node9&#45;&gt;Node14 -->
<g id="edge23" class="edge">
<title>Node9&#45;&gt;Node14</title>
<path fill="none" stroke="#191970" d="M574.0234,-128.9005C581.5426,-119.9043 593.0723,-106.1099 602.9444,-94.2986"/>
<polygon fill="#191970" stroke="#191970" points="605.7169,-96.4392 609.4445,-86.5218 600.3459,-91.95 605.7169,-96.4392"/>
</g>
<!-- Node10&#45;&gt;Node1 -->
<g id="edge16" class="edge">
<title>Node10&#45;&gt;Node1</title>
<path fill="none" stroke="#191970" d="M744.5992,-86.5008C736.1295,-96.1738 725.9464,-109.4424 720,-123 703.4248,-160.7907 698.2967,-209.4301 696.7103,-236.1752"/>
<polygon fill="#191970" stroke="#191970" points="693.2127,-236.0437 696.2242,-246.2015 700.2045,-236.3827 693.2127,-236.0437"/>
</g>
<!-- Node11&#45;&gt;Node1 -->
<g id="edge18" class="edge">
<title>Node11&#45;&gt;Node1</title>
<path fill="none" stroke="#191970" d="M218.0861,-86.7825C240.4298,-116.2758 294.0594,-180.7119 356,-210 400.0286,-230.8185 526.5385,-243.8098 612.1914,-250.4789"/>
<polygon fill="#191970" stroke="#191970" points="611.9279,-253.9689 622.1656,-251.2415 612.4615,-246.9893 611.9279,-253.9689"/>
</g>
<!-- Node12&#45;&gt;Node1 -->
<g id="edge20" class="edge">
<title>Node12&#45;&gt;Node1</title>
<path fill="none" stroke="#191970" d="M336.6316,-86.5406C329.3466,-103.6657 320.6656,-132.1016 331,-154 347.7093,-189.4068 363.2719,-193.9894 399,-210 436.0629,-226.6088 537.8809,-240.0285 611.9907,-247.9957"/>
<polygon fill="#191970" stroke="#191970" points="611.9411,-251.51 622.2543,-249.0835 612.679,-244.549 611.9411,-251.51"/>
</g>
<!-- Node13&#45;&gt;Node1 -->
<g id="edge22" class="edge">
<title>Node13&#45;&gt;Node1</title>
<path fill="none" stroke="#191970" d="M421.9344,-86.1765C388.0952,-95.6789 350.8979,-108.8816 341,-123 333.0909,-134.2816 332.7113,-142.9944 341,-154 374.453,-198.4184 525.5093,-229.4667 619.4715,-244.8743"/>
<polygon fill="#191970" stroke="#191970" points="619.0765,-248.3558 629.5069,-246.4961 620.1934,-241.4454 619.0765,-248.3558"/>
</g>
<!-- Node14&#45;&gt;Node1 -->
<g id="edge24" class="edge">
<title>Node14&#45;&gt;Node1</title>
<path fill="none" stroke="#191970" d="M628.111,-86.7363C641.5248,-120.18 673.5236,-199.9609 688.2907,-236.7789"/>
<polygon fill="#191970" stroke="#191970" points="685.1545,-238.3619 692.1256,-246.3402 691.6514,-235.756 685.1545,-238.3619"/>
</g>
<!-- Node15&#45;&gt;Node1 -->
<g id="edge26" class="edge">
<title>Node15&#45;&gt;Node1</title>
<path fill="none" stroke="#191970" d="M817.2105,-148.3759C806.3768,-162.3215 780.1126,-188.4842 757,-210 746.0329,-220.2094 733.4552,-231.3504 722.3866,-240.1109"/>
<polygon fill="#191970" stroke="#191970" points="720.105,-237.4491 714.2683,-246.2913 724.3451,-243.0188 720.105,-237.4491"/>
</g>
<!-- Node17&#45;&gt;Node1 -->
<g id="edge29" class="edge">
<title>Node17&#45;&gt;Node1</title>
<path fill="none" stroke="#191970" d="M172.5929,-153.572C188.6309,-170.5468 213.0612,-197.4026 241,-210 305.6739,-239.161 499.303,-249.9543 612.0942,-253.8616"/>
<polygon fill="#191970" stroke="#191970" points="612.3032,-257.3705 622.415,-254.2077 612.5379,-250.3744 612.3032,-257.3705"/>
</g>
<!-- Node17&#45;&gt;Node18 -->
<g id="edge30" class="edge">
<title>Node17&#45;&gt;Node18</title>
<path fill="none" stroke="#191970" d="M132.3085,-123.2967C118.6278,-114.1306 101.0126,-102.3285 86.053,-92.3055"/>
<polygon fill="#191970" stroke="#191970" points="87.8576,-89.3017 77.6017,-86.6432 83.9613,-95.1171 87.8576,-89.3017"/>
</g>
<!-- Node18&#45;&gt;Node1 -->
<g id="edge32" class="edge">
<title>Node18&#45;&gt;Node1</title>
<path fill="none" stroke="#191970" d="M62.9431,-86.6644C68.186,-104.6972 74.9335,-134.7673 92,-154 130.2635,-197.1203 153.4306,-194.6541 209,-210 283.1146,-230.4674 493.5735,-244.695 612.1933,-251.4763"/>
<polygon fill="#191970" stroke="#191970" points="612.1434,-254.979 622.3254,-252.0503 612.5394,-247.9902 612.1434,-254.979"/>
</g>
<!-- Node19 -->
<g id="node20" class="node">
<title>Node19</title>
<polygon fill="none" stroke="#bfbfbf" points="32,-.5 32,-19.5 78,-19.5 78,-.5 32,-.5"/>
<text text-anchor="middle" x="55" y="-7.5" font-family="Helvetica,sans-Serif" font-size="10.00" fill="#000000">stdio.h</text>
</g>
<!-- Node18&#45;&gt;Node19 -->
<g id="edge31" class="edge">
<title>Node18&#45;&gt;Node19</title>
<path fill="none" stroke="#191970" d="M55,-56.2977C55,-48.3834 55,-38.6043 55,-30.0759"/>
<polygon fill="#191970" stroke="#191970" points="58.5001,-29.8469 55,-19.8469 51.5001,-29.847 58.5001,-29.8469"/>
</g>
<!-- Node20&#45;&gt;Node1 -->
<g id="edge43" class="edge">
<title>Node20&#45;&gt;Node1</title>
<path fill="none" stroke="#191970" d="M1047.654,-369.2738C1037.8526,-352.4666 1015.2941,-318.2332 986,-302 951.4527,-282.8557 852.4707,-270.0334 779.7195,-262.894"/>
<polygon fill="#191970" stroke="#191970" points="779.9267,-259.3979 769.6375,-261.9243 779.2564,-266.3657 779.9267,-259.3979"/>
</g>
<!-- Node20&#45;&gt;Node6 -->
<g id="edge44" class="edge">
<title>Node20&#45;&gt;Node6</title>
<path fill="none" stroke="#191970" d="M1057.7055,-369.2884C1065.2207,-354.2082 1080.8442,-324.5509 1098,-302 1140.0558,-246.7189 1151.4331,-231.6775 1207,-190 1227.1864,-174.8594 1252.4252,-161.6095 1272.0975,-152.3419"/>
<polygon fill="#191970" stroke="#191970" points="1273.6424,-155.4838 1281.2612,-148.1214 1270.7141,-149.1258 1273.6424,-155.4838"/>
</g>
<!-- Node21 -->
<g id="node22" class="node">
<title>Node21</title>
<g id="a_node22"><a xlink:href="centroid_8h.html" target="_top" xlink:title="Centroid structure computation. ">
<polygon fill="none" stroke="#000000" points="639,-308 639,-327 753,-327 753,-308 639,-308"/>
<text text-anchor="middle" x="696" y="-315" font-family="Helvetica,sans-Serif" font-size="10.00" fill="#000000">ViennaRNA/centroid.h</text>
</a>
</g>
</g>
<!-- Node20&#45;&gt;Node21 -->
<g id="edge45" class="edge">
<title>Node20&#45;&gt;Node21</title>
<path fill="none" stroke="#191970" d="M997.6105,-369.4581C933.8075,-358.4668 829.0895,-340.4272 761.3543,-328.7585"/>
<polygon fill="#191970" stroke="#191970" points="761.6748,-325.2622 751.2258,-327.0137 760.4864,-332.1606 761.6748,-325.2622"/>
</g>
<!-- Node20&#45;&gt;Node22 -->
<g id="edge48" class="edge">
<title>Node20&#45;&gt;Node22</title>
<path fill="none" stroke="#191970" d="M1070.6563,-369.3906C1086.3034,-360.8747 1109.6544,-348.166 1129.3304,-337.4573"/>
<polygon fill="#191970" stroke="#191970" points="1131.2468,-340.3992 1138.3571,-332.5446 1127.9005,-334.2508 1131.2468,-340.3992"/>
</g>
<!-- Node23 -->
<g id="node24" class="node">
<title>Node23</title>
<g id="a_node24"><a xlink:href="boltzmann__sampling_8h.html" target="_top" xlink:title="Boltzmann Sampling of secondary structures from the ensemble. ">
<polygon fill="none" stroke="#000000" points="861,-302.5 861,-332.5 977,-332.5 977,-302.5 861,-302.5"/>
<text text-anchor="start" x="869" y="-320.5" font-family="Helvetica,sans-Serif" font-size="10.00" fill="#000000">ViennaRNA/boltzmann</text>
<text text-anchor="middle" x="919" y="-309.5" font-family="Helvetica,sans-Serif" font-size="10.00" fill="#000000">_sampling.h</text>
</a>
</g>
</g>
<!-- Node20&#45;&gt;Node23 -->
<g id="edge51" class="edge">
<title>Node20&#45;&gt;Node23</title>
<path fill="none" stroke="#191970" d="M1032.0625,-369.3906C1013.0876,-360.682 984.5593,-347.5888 960.9074,-336.7336"/>
<polygon fill="#191970" stroke="#191970" points="962.3285,-333.5349 951.7801,-332.5446 959.4087,-339.8968 962.3285,-333.5349"/>
</g>
<!-- Node21&#45;&gt;Node1 -->
<g id="edge46" class="edge">
<title>Node21&#45;&gt;Node1</title>
<path fill="none" stroke="#191970" d="M696,-307.8906C696,-299.3657 696,-286.6392 696,-275.9235"/>
<polygon fill="#191970" stroke="#191970" points="699.5001,-275.7448 696,-265.7449 692.5001,-275.7449 699.5001,-275.7448"/>
</g>
<!-- Node21&#45;&gt;Node18 -->
<g id="edge47" class="edge">
<title>Node21&#45;&gt;Node18</title>
<path fill="none" stroke="#191970" d="M638.7605,-310.5223C513.174,-294.5992 217.457,-253.5776 127,-210 92.6469,-193.4504 79.3422,-187.9599 62,-154 53.0442,-136.4626 51.6689,-114.07 52.3256,-97.0404"/>
<polygon fill="#191970" stroke="#191970" points="55.8396,-96.9337 52.9913,-86.729 48.8542,-96.4827 55.8396,-96.9337"/>
</g>
<!-- Node22&#45;&gt;Node1 -->
<g id="edge49" class="edge">
<title>Node22&#45;&gt;Node1</title>
<path fill="none" stroke="#191970" d="M1106.9501,-309.7733C1024.049,-298.9256 872.7931,-279.1336 778.7195,-266.8239"/>
<polygon fill="#191970" stroke="#191970" points="779.0396,-263.3361 768.67,-265.5089 778.1313,-270.2769 779.0396,-263.3361"/>
</g>
<!-- Node22&#45;&gt;Node6 -->
<g id="edge50" class="edge">
<title>Node22&#45;&gt;Node6</title>
<path fill="none" stroke="#191970" d="M1166.6899,-302.2663C1167.9766,-287.0663 1171.6354,-263.5155 1182,-246 1206.1286,-205.2241 1251.0578,-171.7083 1279.1424,-153.4594"/>
<polygon fill="#191970" stroke="#191970" points="1281.0516,-156.3932 1287.6212,-148.0811 1277.302,-150.4821 1281.0516,-156.3932"/>
</g>
<!-- Node23&#45;&gt;Node1 -->
<g id="edge52" class="edge">
<title>Node23&#45;&gt;Node1</title>
<path fill="none" stroke="#191970" d="M864.4481,-302.4554C826.2608,-291.9239 775.8912,-278.0328 740.2094,-268.1923"/>
<polygon fill="#191970" stroke="#191970" points="741.1277,-264.8149 730.5571,-265.5303 739.2667,-271.563 741.1277,-264.8149"/>
</g>
<!-- Node24&#45;&gt;Node4 -->
<g id="edge55" class="edge">
<title>Node24&#45;&gt;Node4</title>
<path fill="none" stroke="#191970" d="M1198.6444,-246.4369C1133.6833,-236.6314 1032.7464,-221.3957 964.3596,-211.0731"/>
<polygon fill="#191970" stroke="#191970" points="964.5047,-207.5555 954.0943,-209.5237 963.4599,-214.4771 964.5047,-207.5555"/>
</g>
<!-- Node24&#45;&gt;Node6 -->
<g id="edge56" class="edge">
<title>Node24&#45;&gt;Node6</title>
<path fill="none" stroke="#191970" d="M1265.437,-246.3845C1272.3283,-227.1053 1287.952,-183.3963 1297.0569,-157.9241"/>
<polygon fill="#191970" stroke="#191970" points="1300.4453,-158.843 1300.5155,-148.2484 1293.8537,-156.4868 1300.4453,-158.843"/>
</g>
</g>
</svg>
        <g id="navigator" transform="translate(0 0)" fill="#404254">
                <rect fill="#f2f5e9" fill-opacity="0.5" stroke="#606060" stroke-width=".5" x="0" y="0" width="60" height="60"/>
                <use id="zoomplus" xlink:href="#zoomPlus" x="17" y="9" onmousedown="handleZoom(evt,'in')"/>
                <use id="zoomminus" xlink:href="#zoomMin" x="42" y="9" onmousedown="handleZoom(evt,'out')"/>
                <use id="reset" xlink:href="#resetDef" x="30" y="36" onmousedown="handleReset()"/>
                <g id="arrowUp" xlink:href="#dirArrow" transform="translate(30 24)" onmousedown="handlePan(0,-1)">
                  <use xlink:href="#rim" fill="#404040">
                        <set attributeName="fill" to="#808080" begin="arrowUp.mouseover" end="arrowUp.mouseout"/>
                  </use>
                  <path fill="none" stroke="white" stroke-width="1.5" d="M0,-3.0v7 M-2.5,-0.5L0,-3.0L2.5,-0.5"/>
                </g>
                <g id="arrowRight" xlink:href="#dirArrow" transform="rotate(90) translate(36 -43)" onmousedown="handlePan(1,0)">
                  <use xlink:href="#rim" fill="#404040">
                        <set attributeName="fill" to="#808080" begin="arrowRight.mouseover" end="arrowRight.mouseout"/>
                  </use>
                  <path fill="none" stroke="white" stroke-width="1.5" d="M0,-3.0v7 M-2.5,-0.5L0,-3.0L2.5,-0.5"/>
                </g>
                <g id="arrowDown" xlink:href="#dirArrow" transform="rotate(180) translate(-30 -48)" onmousedown="handlePan(0,1)">
                  <use xlink:href="#rim" fill="#404040">
                        <set attributeName="fill" to="#808080" begin="arrowDown.mouseover" end="arrowDown.mouseout"/>
                  </use>
                  <path fill="none" stroke="white" stroke-width="1.5" d="M0,-3.0v7 M-2.5,-0.5L0,-3.0L2.5,-0.5"/>
                </g>
                <g id="arrowLeft" xlink:href="#dirArrow" transform="rotate(270) translate(-36 17)" onmousedown="handlePan(-1,0)">
                  <use xlink:href="#rim" fill="#404040">
                        <set attributeName="fill" to="#808080" begin="arrowLeft.mouseover" end="arrowLeft.mouseout"/>
                  </use>
                  <path fill="none" stroke="white" stroke-width="1.5" d="M0,-3.0v7 M-2.5,-0.5L0,-3.0L2.5,-0.5"/>
                </g>
        </g>
        <svg viewBox="0 0 15 15" width="100%" height="30px" preserveAspectRatio="xMaxYMin meet">
         <g id="arrow_out" transform="scale(0.3 0.3)">
          <a xlink:href="part__func__co_8h__incl_org.svg" target="_base">
           <rect id="button" ry="5" rx="5" y="6" x="6" height="38" width="38"
                fill="#f2f5e9" fill-opacity="0.5" stroke="#606060" stroke-width="1.0"/>
           <path id="arrow"
             d="M 11.500037,31.436501 C 11.940474,20.09759 22.043105,11.32322 32.158766,21.979434 L 37.068811,17.246167 C 37.068811,17.246167 37.088388,32 37.088388,32 L 22.160133,31.978069 C 22.160133,31.978069 26.997745,27.140456 26.997745,27.140456 C 18.528582,18.264221 13.291696,25.230495 11.500037,31.436501 z"
             style="fill:#404040;"/>
          </a>
         </g>
        </svg>
</svg>
