<?xml version="1.0" encoding="UTF-8" standalone="no"?>
<!DOCTYPE svg PUBLIC "-//W3C//DTD SVG 1.1//EN"
 "http://www.w3.org/Graphics/SVG/1.1/DTD/svg11.dtd">
<!-- Generated by graphviz version 2.40.1 (20161225.0304)
 -->
<!-- Title: ViennaRNA/part_func.h Pages: 1 -->
<!--zoomable 397 -->
<svg id="main" version="1.1" xmlns="http://www.w3.org/2000/svg" xmlns:xlink="http://www.w3.org/1999/xlink" xml:space="preserve" onload="init(evt)">
<style type="text/css"><![CDATA[
.edge:hover path { stroke: red; }
.edge:hover polygon { stroke: red; fill: red; }
]]></style>
<script type="text/javascript"><![CDATA[
var edges = document.getElementsByTagName('g');
if (edges && edges.length) {
  for (var i=0;i<edges.length;i++) {
    if (edges[i].id.substr(0,4)=='edge') {
      edges[i].setAttribute('class','edge');
    }
  }
}
]]></script>
        <defs>
                <circle id="rim" cx="0" cy="0" r="7"/>
                <circle id="rim2" cx="0" cy="0" r="3.5"/>
                <g id="zoomPlus">
                        <use xlink:href="#rim" fill="#404040">
                                <set attributeName="fill" to="#808080" begin="zoomplus.mouseover" end="zoomplus.mouseout"/>
                        </use>
                        <path d="M-4,0h8M0,-4v8" fill="none" stroke="white" stroke-width="1.5" pointer-events="none"/>
                </g>
                <g id="zoomMin">
                        <use xlink:href="#rim" fill="#404040">
                                <set attributeName="fill" to="#808080" begin="zoomminus.mouseover" end="zoomminus.mouseout"/>
                        </use>
                        <path d="M-4,0h8" fill="none" stroke="white" stroke-width="1.5" pointer-events="none"/>
                </g>
                <g id="dirArrow">
                        <path fill="none" stroke="white" stroke-width="1.5" d="M0,-3.0v7 M-2.5,-0.5L0,-3.0L2.5,-0.5"/>
                </g>
               <g id="resetDef">
                       <use xlink:href="#rim2" fill="#404040">
                               <set attributeName="fill" to="#808080" begin="reset.mouseover" end="reset.mouseout"/>
                       </use>
               </g>
        </defs>

<script type="text/javascript">
var viewWidth = 1429;
var viewHeight = 397;
var sectionId = 'dynsection-0';
</script>
<script xlink:href="svgpan.js"/>
<svg id="graph" class="graph">
<g id="viewport">
<title>ViennaRNA/part_func.h</title>
<!-- Node0 -->
<g id="node1" class="node">
<title>Node0</title>
<polygon fill="#bfbfbf" stroke="#000000" points="668,-369.5 668,-388.5 788,-388.5 788,-369.5 668,-369.5"/>
<text text-anchor="middle" x="728" y="-376.5" font-family="Helvetica,sans-Serif" font-size="10.00" fill="#000000">ViennaRNA/part_func.h</text>
</g>
<!-- Node1 -->
<g id="node2" class="node">
<title>Node1</title>
<g id="a_node2"><a xlink:href="data__structures_8h.html" target="_top" xlink:title="Various data structures and pre&#45;processor macros. ">
<polygon fill="none" stroke="#000000" points="740.5,-246.5 740.5,-265.5 887.5,-265.5 887.5,-246.5 740.5,-246.5"/>
<text text-anchor="middle" x="814" y="-253.5" font-family="Helvetica,sans-Serif" font-size="10.00" fill="#000000">ViennaRNA/data_structures.h</text>
</a>
</g>
</g>
<!-- Node0&#45;&gt;Node1 -->
<g id="edge1" class="edge">
<title>Node0&#45;&gt;Node1</title>
<path fill="none" stroke="#191970" d="M728.2413,-369.0968C729.073,-353.4954 732.5793,-322.8304 747,-302 756.2007,-288.7097 770.5843,-278.1023 783.6695,-270.4381"/>
<polygon fill="#191970" stroke="#191970" points="785.3715,-273.4966 792.4414,-265.6056 781.9937,-267.3654 785.3715,-273.4966"/>
</g>
<!-- Node6 -->
<g id="node7" class="node">
<title>Node6</title>
<g id="a_node7"><a xlink:href="params_8h.html" target="_top" xlink:title="Functions to deal with sets of energy parameters. ">
<polygon fill="none" stroke="#000000" points="55,-129 55,-148 167,-148 167,-129 55,-129"/>
<text text-anchor="middle" x="111" y="-136" font-family="Helvetica,sans-Serif" font-size="10.00" fill="#000000">ViennaRNA/params.h</text>
</a>
</g>
</g>
<!-- Node0&#45;&gt;Node6 -->
<g id="edge41" class="edge">
<title>Node0&#45;&gt;Node6</title>
<path fill="none" stroke="#191970" d="M692.9615,-369.4835C661.3767,-360.6966 613.7718,-346.934 573,-333 429.9977,-284.128 394.3484,-270.8098 256,-210 214.2152,-191.6339 167.007,-167.7501 138.1261,-152.7694"/>
<polygon fill="#191970" stroke="#191970" points="139.5544,-149.5671 129.0686,-148.0511 136.3204,-155.7752 139.5544,-149.5671"/>
</g>
<!-- Node20 -->
<g id="node21" class="node">
<title>Node20</title>
<g id="a_node21"><a xlink:href="centroid_8h.html" target="_top" xlink:title="Centroid structure computation. ">
<polygon fill="none" stroke="#000000" points="890,-308 890,-327 1004,-327 1004,-308 890,-308"/>
<text text-anchor="middle" x="947" y="-315" font-family="Helvetica,sans-Serif" font-size="10.00" fill="#000000">ViennaRNA/centroid.h</text>
</a>
</g>
</g>
<!-- Node0&#45;&gt;Node20 -->
<g id="edge42" class="edge">
<title>Node0&#45;&gt;Node20</title>
<path fill="none" stroke="#191970" d="M762.2188,-369.3906C800.2275,-358.7169 861.6911,-341.4566 903.1884,-329.8033"/>
<polygon fill="#191970" stroke="#191970" points="904.3402,-333.1153 913.0215,-327.0419 902.4477,-326.3759 904.3402,-333.1153"/>
</g>
<!-- Node21 -->
<g id="node22" class="node">
<title>Node21</title>
<g id="a_node22"><a xlink:href="equilibrium__probs_8h.html" target="_top" xlink:title="Equilibrium Probability implementations. ">
<polygon fill="none" stroke="#000000" points="582,-302.5 582,-332.5 700,-332.5 700,-302.5 582,-302.5"/>
<text text-anchor="start" x="590" y="-320.5" font-family="Helvetica,sans-Serif" font-size="10.00" fill="#000000">ViennaRNA/equilibrium</text>
<text text-anchor="middle" x="641" y="-309.5" font-family="Helvetica,sans-Serif" font-size="10.00" fill="#000000">_probs.h</text>
</a>
</g>
</g>
<!-- Node0&#45;&gt;Node21 -->
<g id="edge45" class="edge">
<title>Node0&#45;&gt;Node21</title>
<path fill="none" stroke="#191970" d="M714.4063,-369.3906C702.7409,-361.1444 685.5141,-348.9669 670.68,-338.4807"/>
<polygon fill="#191970" stroke="#191970" points="672.4687,-335.459 662.2826,-332.5446 668.428,-341.175 672.4687,-335.459"/>
</g>
<!-- Node22 -->
<g id="node23" class="node">
<title>Node22</title>
<g id="a_node23"><a xlink:href="boltzmann__sampling_8h.html" target="_top" xlink:title="Boltzmann Sampling of secondary structures from the ensemble. ">
<polygon fill="none" stroke="#000000" points="756,-302.5 756,-332.5 872,-332.5 872,-302.5 756,-302.5"/>
<text text-anchor="start" x="764" y="-320.5" font-family="Helvetica,sans-Serif" font-size="10.00" fill="#000000">ViennaRNA/boltzmann</text>
<text text-anchor="middle" x="814" y="-309.5" font-family="Helvetica,sans-Serif" font-size="10.00" fill="#000000">_sampling.h</text>
</a>
</g>
</g>
<!-- Node0&#45;&gt;Node22 -->
<g id="edge48" class="edge">
<title>Node0&#45;&gt;Node22</title>
<path fill="none" stroke="#191970" d="M741.4375,-369.3906C752.9688,-361.1444 769.9976,-348.9669 784.6611,-338.4807"/>
<polygon fill="#191970" stroke="#191970" points="786.8638,-341.2084 792.962,-332.5446 782.792,-335.5145 786.8638,-341.2084"/>
</g>
<!-- Node2 -->
<g id="node3" class="node">
<title>Node2</title>
<g id="a_node3"><a xlink:href="energy__const_8h.html" target="_top" xlink:title="Energy parameter constants. ">
<polygon fill="none" stroke="#000000" points="0,-62 0,-81 138,-81 138,-62 0,-62"/>
<text text-anchor="middle" x="69" y="-69" font-family="Helvetica,sans-Serif" font-size="10.00" fill="#000000">ViennaRNA/energy_const.h</text>
</a>
</g>
</g>
<!-- Node1&#45;&gt;Node2 -->
<g id="edge2" class="edge">
<title>Node1&#45;&gt;Node2</title>
<path fill="none" stroke="#191970" d="M740.2204,-251.8544C556.3866,-240.7502 89.5397,-207.4968 46,-154 30.8938,-135.4392 43.8728,-107.608 55.5938,-89.4991"/>
<polygon fill="#191970" stroke="#191970" points="58.6497,-91.2333 61.4531,-81.0161 52.89,-87.2551 58.6497,-91.2333"/>
</g>
<!-- Node4 -->
<g id="node5" class="node">
<title>Node4</title>
<g id="a_node5"><a xlink:href="fold__compound_8h.html" target="_top" xlink:title="The Basic Fold Compound API. ">
<polygon fill="none" stroke="#000000" points="501,-190.5 501,-209.5 647,-209.5 647,-190.5 501,-190.5"/>
<text text-anchor="middle" x="574" y="-197.5" font-family="Helvetica,sans-Serif" font-size="10.00" fill="#000000">ViennaRNA/fold_compound.h</text>
</a>
</g>
</g>
<!-- Node1&#45;&gt;Node4 -->
<g id="edge4" class="edge">
<title>Node1&#45;&gt;Node4</title>
<path fill="none" stroke="#191970" d="M773.0152,-246.4369C732.0274,-236.8731 668.8996,-222.1432 624.7643,-211.845"/>
<polygon fill="#191970" stroke="#191970" points="625.3495,-208.3876 614.8157,-209.5237 623.7588,-215.2045 625.3495,-208.3876"/>
</g>
<!-- Node5 -->
<g id="node6" class="node">
<title>Node5</title>
<g id="a_node6"><a xlink:href="model_8h.html" target="_top" xlink:title="The model details data structure and its corresponding modifiers. ">
<polygon fill="none" stroke="#000000" points="434,-62 434,-81 540,-81 540,-62 434,-62"/>
<text text-anchor="middle" x="487" y="-69" font-family="Helvetica,sans-Serif" font-size="10.00" fill="#000000">ViennaRNA/model.h</text>
</a>
</g>
</g>
<!-- Node1&#45;&gt;Node5 -->
<g id="edge33" class="edge">
<title>Node1&#45;&gt;Node5</title>
<path fill="none" stroke="#191970" d="M814.4269,-246.1957C814.9259,-221.4313 812.5388,-155.9914 776,-123 759.4269,-108.0359 630.1025,-89.4243 550.1703,-79.1723"/>
<polygon fill="#191970" stroke="#191970" points="550.5597,-75.6937 540.1979,-77.9037 549.6763,-82.6378 550.5597,-75.6937"/>
</g>
<!-- Node1&#45;&gt;Node6 -->
<g id="edge34" class="edge">
<title>Node1&#45;&gt;Node6</title>
<path fill="none" stroke="#191970" d="M740.1592,-250.6187C657.9862,-243.7126 521.7513,-230.1639 406,-210 298.5195,-191.2769 273.1731,-179.0977 167,-154 162.1735,-152.8591 157.1464,-151.667 152.1622,-150.4726"/>
<polygon fill="#191970" stroke="#191970" points="152.6119,-146.9806 142.0695,-148.0335 150.9675,-153.7847 152.6119,-146.9806"/>
</g>
<!-- Node8 -->
<g id="node9" class="node">
<title>Node8</title>
<g id="a_node9"><a xlink:href="dp__matrices_8h.html" target="_top" xlink:title="Functions to deal with standard dynamic programming (DP) matrices. ">
<polygon fill="none" stroke="#000000" points="185.5,-129 185.5,-148 318.5,-148 318.5,-129 185.5,-129"/>
<text text-anchor="middle" x="252" y="-136" font-family="Helvetica,sans-Serif" font-size="10.00" fill="#000000">ViennaRNA/dp_matrices.h</text>
</a>
</g>
</g>
<!-- Node1&#45;&gt;Node8 -->
<g id="edge35" class="edge">
<title>Node1&#45;&gt;Node8</title>
<path fill="none" stroke="#191970" d="M740.3183,-249.3683C672.7081,-242.1858 570.2931,-229.1286 483,-210 410.3075,-194.0709 327.5295,-167.4785 283.3404,-151.6034"/>
<polygon fill="#191970" stroke="#191970" points="284.3334,-148.24 273.7395,-148.0988 281.9331,-154.8156 284.3334,-148.24"/>
</g>
<!-- Node9 -->
<g id="node10" class="node">
<title>Node9</title>
<g id="a_node10"><a xlink:href="constraints_8h.html" target="_top" xlink:title="Functions and data structures for constraining secondary structure predictions and evaluation...">
<polygon fill="none" stroke="#000000" points="899,-129 899,-148 1027,-148 1027,-129 899,-129"/>
<text text-anchor="middle" x="963" y="-136" font-family="Helvetica,sans-Serif" font-size="10.00" fill="#000000">ViennaRNA/constraints.h</text>
</a>
</g>
</g>
<!-- Node1&#45;&gt;Node9 -->
<g id="edge36" class="edge">
<title>Node1&#45;&gt;Node9</title>
<path fill="none" stroke="#191970" d="M823.7737,-246.1561C836.6226,-237.3154 858.342,-223.6598 876,-210 898.6011,-192.5164 922.5335,-169.8824 939.8542,-154.8115"/>
<polygon fill="#191970" stroke="#191970" points="942.4311,-157.2152 947.7912,-148.0763 937.9019,-151.8779 942.4311,-157.2152"/>
</g>
<!-- Node15 -->
<g id="node16" class="node">
<title>Node15</title>
<g id="a_node16"><a xlink:href="grammar_8h.html" target="_top" xlink:title="Implementations for the RNA folding grammar. ">
<polygon fill="none" stroke="#000000" points="515,-129 515,-148 633,-148 633,-129 515,-129"/>
<text text-anchor="middle" x="574" y="-136" font-family="Helvetica,sans-Serif" font-size="10.00" fill="#000000">ViennaRNA/grammar.h</text>
</a>
</g>
</g>
<!-- Node1&#45;&gt;Node15 -->
<g id="edge37" class="edge">
<title>Node1&#45;&gt;Node15</title>
<path fill="none" stroke="#191970" d="M790.448,-246.3845C744.793,-225.7631 645.3508,-177.192 598.7682,-152.8837"/>
<polygon fill="#191970" stroke="#191970" points="600.1465,-149.6537 589.6687,-148.0836 596.8805,-155.8451 600.1465,-149.6537"/>
</g>
<!-- Node16 -->
<g id="node17" class="node">
<title>Node16</title>
<g id="a_node17"><a xlink:href="structured__domains_8h.html" target="_top" xlink:title="This module provides interfaces that deal with additional structured domains in the folding grammar...">
<polygon fill="none" stroke="#000000" points="651.5,-123.5 651.5,-153.5 766.5,-153.5 766.5,-123.5 651.5,-123.5"/>
<text text-anchor="start" x="659.5" y="-141.5" font-family="Helvetica,sans-Serif" font-size="10.00" fill="#000000">ViennaRNA/structured</text>
<text text-anchor="middle" x="709" y="-130.5" font-family="Helvetica,sans-Serif" font-size="10.00" fill="#000000">_domains.h</text>
</a>
</g>
</g>
<!-- Node1&#45;&gt;Node16 -->
<g id="edge38" class="edge">
<title>Node1&#45;&gt;Node16</title>
<path fill="none" stroke="#191970" d="M805.4074,-246.3845C788.8955,-227.9068 752.3303,-186.9887 729.2787,-161.1928"/>
<polygon fill="#191970" stroke="#191970" points="731.8689,-158.8387 722.5958,-153.7143 726.6493,-163.5031 731.8689,-158.8387"/>
</g>
<!-- Node17 -->
<g id="node18" class="node">
<title>Node17</title>
<g id="a_node18"><a xlink:href="unstructured__domains_8h.html" target="_top" xlink:title="Functions to modify unstructured domains, e.g. to incorporate ligands binding to unpaired stretches...">
<polygon fill="none" stroke="#000000" points="1159.5,-123.5 1159.5,-153.5 1284.5,-153.5 1284.5,-123.5 1159.5,-123.5"/>
<text text-anchor="start" x="1167.5" y="-141.5" font-family="Helvetica,sans-Serif" font-size="10.00" fill="#000000">ViennaRNA/unstructured</text>
<text text-anchor="middle" x="1222" y="-130.5" font-family="Helvetica,sans-Serif" font-size="10.00" fill="#000000">_domains.h</text>
</a>
</g>
</g>
<!-- Node1&#45;&gt;Node17 -->
<g id="edge39" class="edge">
<title>Node1&#45;&gt;Node17</title>
<path fill="none" stroke="#191970" d="M887.865,-250.3835C968.8901,-243.583 1092.9572,-230.434 1136,-210 1159.6511,-198.772 1180.9839,-177.6619 1196.7503,-161.2784"/>
<polygon fill="#191970" stroke="#191970" points="1199.6393,-163.3221 1204.0287,-153.6793 1194.584,-158.4801 1199.6393,-163.3221"/>
</g>
<!-- Node18 -->
<g id="node19" class="node">
<title>Node18</title>
<g id="a_node19"><a xlink:href="structure__utils_8h.html" target="_top" xlink:title="Various utility&#45; and helper&#45;functions for secondary structure parsing, converting, etc. ">
<polygon fill="none" stroke="#000000" points="1311,-56.5 1311,-86.5 1421,-86.5 1421,-56.5 1311,-56.5"/>
<text text-anchor="start" x="1319" y="-74.5" font-family="Helvetica,sans-Serif" font-size="10.00" fill="#000000">ViennaRNA/structure</text>
<text text-anchor="middle" x="1366" y="-63.5" font-family="Helvetica,sans-Serif" font-size="10.00" fill="#000000">_utils.h</text>
</a>
</g>
</g>
<!-- Node1&#45;&gt;Node18 -->
<g id="edge40" class="edge">
<title>Node1&#45;&gt;Node18</title>
<path fill="none" stroke="#191970" d="M887.7697,-249.1726C976.8054,-240.8075 1120.8512,-225.7894 1173,-210 1226.2653,-193.8726 1240.9816,-188.0538 1285,-154 1307.0361,-136.9523 1327.4385,-112.3856 1342.5444,-94.4959"/>
<polygon fill="#191970" stroke="#191970" points="1345.2814,-96.6802 1349.0991,-86.7971 1339.9514,-92.1424 1345.2814,-96.6802"/>
</g>
<!-- Node3 -->
<g id="node4" class="node">
<title>Node3</title>
<polygon fill="none" stroke="#bfbfbf" points="45,-.5 45,-19.5 93,-19.5 93,-.5 45,-.5"/>
<text text-anchor="middle" x="69" y="-7.5" font-family="Helvetica,sans-Serif" font-size="10.00" fill="#000000">limits.h</text>
</g>
<!-- Node2&#45;&gt;Node3 -->
<g id="edge3" class="edge">
<title>Node2&#45;&gt;Node3</title>
<path fill="none" stroke="#191970" d="M69,-61.8906C69,-53.3657 69,-40.6392 69,-29.9235"/>
<polygon fill="#191970" stroke="#191970" points="72.5001,-29.7448 69,-19.7449 65.5001,-29.7449 72.5001,-29.7448"/>
</g>
<!-- Node4&#45;&gt;Node5 -->
<g id="edge5" class="edge">
<title>Node4&#45;&gt;Node5</title>
<path fill="none" stroke="#191970" d="M551.7195,-190.3609C536.5655,-182.6701 517.2867,-170.4555 506,-154 493.1179,-135.2186 488.8695,-108.9478 487.5226,-91.1351"/>
<polygon fill="#191970" stroke="#191970" points="491.0128,-90.8531 487.0013,-81.0471 484.0222,-91.2144 491.0128,-90.8531"/>
</g>
<!-- Node4&#45;&gt;Node6 -->
<g id="edge6" class="edge">
<title>Node4&#45;&gt;Node6</title>
<path fill="none" stroke="#191970" d="M500.9977,-194.1881C420.8871,-187.2007 288.6824,-173.8742 176,-154 170.0716,-152.9544 163.8759,-151.6958 157.7649,-150.3536"/>
<polygon fill="#191970" stroke="#191970" points="158.1507,-146.8517 147.6226,-148.0386 156.593,-153.6762 158.1507,-146.8517"/>
</g>
<!-- Node7 -->
<g id="node8" class="node">
<title>Node7</title>
<g id="a_node8"><a xlink:href="sequence_8h.html" target="_top" xlink:title="Functions and data structures related to sequence representations. ">
<polygon fill="none" stroke="#000000" points="337,-129 337,-148 459,-148 459,-129 337,-129"/>
<text text-anchor="middle" x="398" y="-136" font-family="Helvetica,sans-Serif" font-size="10.00" fill="#000000">ViennaRNA/sequence.h</text>
</a>
</g>
</g>
<!-- Node4&#45;&gt;Node7 -->
<g id="edge10" class="edge">
<title>Node4&#45;&gt;Node7</title>
<path fill="none" stroke="#191970" d="M546.5,-190.3906C516.5353,-179.92 468.4317,-163.1111 435.1302,-151.4745"/>
<polygon fill="#191970" stroke="#191970" points="435.9017,-148.0366 425.3069,-148.0419 433.5926,-154.6448 435.9017,-148.0366"/>
</g>
<!-- Node4&#45;&gt;Node8 -->
<g id="edge11" class="edge">
<title>Node4&#45;&gt;Node8</title>
<path fill="none" stroke="#191970" d="M521.645,-190.466C471.8111,-181.3306 394.7343,-167.0436 328,-154 321.6687,-152.7625 315.0456,-151.4454 308.4615,-150.1218"/>
<polygon fill="#191970" stroke="#191970" points="308.6901,-146.5973 298.1949,-148.0469 307.3034,-153.4585 308.6901,-146.5973"/>
</g>
<!-- Node4&#45;&gt;Node9 -->
<g id="edge13" class="edge">
<title>Node4&#45;&gt;Node9</title>
<path fill="none" stroke="#191970" d="M634.3544,-190.4581C704.1619,-179.4217 818.9189,-161.2789 892.6949,-149.6151"/>
<polygon fill="#191970" stroke="#191970" points="893.4933,-153.0324 902.824,-148.0137 892.4001,-146.1183 893.4933,-153.0324"/>
</g>
<!-- Node4&#45;&gt;Node15 -->
<g id="edge25" class="edge">
<title>Node4&#45;&gt;Node15</title>
<path fill="none" stroke="#191970" d="M574,-190.3906C574,-181.8657 574,-169.1392 574,-158.4235"/>
<polygon fill="#191970" stroke="#191970" points="577.5001,-158.2448 574,-148.2449 570.5001,-158.2449 577.5001,-158.2448"/>
</g>
<!-- Node4&#45;&gt;Node16 -->
<g id="edge27" class="edge">
<title>Node4&#45;&gt;Node16</title>
<path fill="none" stroke="#191970" d="M595.0938,-190.3906C614.2102,-181.682 642.9514,-168.5888 666.7798,-157.7336"/>
<polygon fill="#191970" stroke="#191970" points="668.3261,-160.8754 675.9753,-153.5446 665.4241,-154.5052 668.3261,-160.8754"/>
</g>
<!-- Node4&#45;&gt;Node17 -->
<g id="edge28" class="edge">
<title>Node4&#45;&gt;Node17</title>
<path fill="none" stroke="#191970" d="M647.0742,-193.0647C771.8269,-181.2248 1024.4629,-157.2477 1149.0979,-145.4189"/>
<polygon fill="#191970" stroke="#191970" points="1149.6756,-148.8799 1159.3001,-144.4507 1149.0142,-141.9113 1149.6756,-148.8799"/>
</g>
<!-- Node6&#45;&gt;Node1 -->
<g id="edge8" class="edge">
<title>Node6&#45;&gt;Node1</title>
<path fill="none" stroke="#191970" d="M159.6691,-148.0335C168.1733,-150.0117 176.8712,-152.0785 185,-154 291.1731,-179.0977 316.5195,-191.2769 424,-210 528.8607,-228.2668 650.5319,-241.1045 729.7755,-248.493"/>
<polygon fill="#191970" stroke="#191970" points="729.9075,-252.02 740.1872,-249.4552 730.5518,-245.0497 729.9075,-252.02"/>
</g>
<!-- Node6&#45;&gt;Node2 -->
<g id="edge7" class="edge">
<title>Node6&#45;&gt;Node2</title>
<path fill="none" stroke="#191970" d="M104.9824,-128.9005C98.62,-118.751 88.4291,-102.4941 80.5142,-89.8679"/>
<polygon fill="#191970" stroke="#191970" points="83.2833,-87.6956 75.0064,-81.0817 77.3523,-91.4135 83.2833,-87.6956"/>
</g>
<!-- Node6&#45;&gt;Node5 -->
<g id="edge9" class="edge">
<title>Node6&#45;&gt;Node5</title>
<path fill="none" stroke="#191970" d="M149.0528,-128.9547C157.8742,-126.873 167.2436,-124.7668 176,-123 261.3745,-105.7739 360.7869,-90.0631 423.792,-80.6405"/>
<polygon fill="#191970" stroke="#191970" points="424.5915,-84.0602 433.9673,-79.1261 423.561,-77.1364 424.5915,-84.0602"/>
</g>
<!-- Node8&#45;&gt;Node1 -->
<g id="edge12" class="edge">
<title>Node8&#45;&gt;Node1</title>
<path fill="none" stroke="#191970" d="M285.0014,-148.0988C332.5724,-163.271 422.6452,-192.8301 501,-210 578.1006,-226.8951 666.9979,-239.0538 730.3617,-246.6118"/>
<polygon fill="#191970" stroke="#191970" points="729.965,-250.0892 740.3063,-247.7853 730.7854,-243.1374 729.965,-250.0892"/>
</g>
<!-- Node9&#45;&gt;Node1 -->
<g id="edge14" class="edge">
<title>Node9&#45;&gt;Node1</title>
<path fill="none" stroke="#191970" d="M959.245,-148.3138C948.0911,-162.6386 920.1542,-189.7678 894,-210 879.2808,-221.3864 861.7395,-232.7699 846.6841,-241.3642"/>
<polygon fill="#191970" stroke="#191970" points="844.7455,-238.4363 837.6787,-246.33 848.1257,-244.5661 844.7455,-238.4363"/>
</g>
<!-- Node10 -->
<g id="node11" class="node">
<title>Node10</title>
<g id="a_node11"><a xlink:href="constraints__hard_8h.html" target="_top" xlink:title="Functions and data structures for handling of secondary structure hard constraints. ">
<polygon fill="none" stroke="#000000" points="1173.5,-56.5 1173.5,-86.5 1292.5,-86.5 1292.5,-56.5 1173.5,-56.5"/>
<text text-anchor="start" x="1181.5" y="-74.5" font-family="Helvetica,sans-Serif" font-size="10.00" fill="#000000">ViennaRNA/constraints</text>
<text text-anchor="middle" x="1233" y="-63.5" font-family="Helvetica,sans-Serif" font-size="10.00" fill="#000000">_hard.h</text>
</a>
</g>
</g>
<!-- Node9&#45;&gt;Node10 -->
<g id="edge15" class="edge">
<title>Node9&#45;&gt;Node10</title>
<path fill="none" stroke="#191970" d="M1001.3977,-128.9717C1043.5244,-118.518 1112.006,-101.5244 1163.5995,-88.7216"/>
<polygon fill="#191970" stroke="#191970" points="1164.4903,-92.1068 1173.353,-86.3013 1162.8044,-85.3128 1164.4903,-92.1068"/>
</g>
<!-- Node11 -->
<g id="node12" class="node">
<title>Node11</title>
<g id="a_node12"><a xlink:href="constraints__soft_8h.html" target="_top" xlink:title="Functions and data structures for secondary structure soft constraints. ">
<polygon fill="none" stroke="#000000" points="621.5,-56.5 621.5,-86.5 740.5,-86.5 740.5,-56.5 621.5,-56.5"/>
<text text-anchor="start" x="629.5" y="-74.5" font-family="Helvetica,sans-Serif" font-size="10.00" fill="#000000">ViennaRNA/constraints</text>
<text text-anchor="middle" x="681" y="-63.5" font-family="Helvetica,sans-Serif" font-size="10.00" fill="#000000">_soft.h</text>
</a>
</g>
</g>
<!-- Node9&#45;&gt;Node11 -->
<g id="edge17" class="edge">
<title>Node9&#45;&gt;Node11</title>
<path fill="none" stroke="#191970" d="M922.8958,-128.9717C878.0895,-118.3262 804.7377,-100.8987 750.5371,-88.0212"/>
<polygon fill="#191970" stroke="#191970" points="751.189,-84.5787 740.6507,-85.6723 749.5709,-91.3892 751.189,-84.5787"/>
</g>
<!-- Node12 -->
<g id="node13" class="node">
<title>Node12</title>
<g id="a_node13"><a xlink:href="constraints__SHAPE_8h.html" target="_top" xlink:title="This module provides function to incorporate SHAPE reactivity data into the folding recursions by mea...">
<polygon fill="none" stroke="#000000" points="758.5,-56.5 758.5,-86.5 877.5,-86.5 877.5,-56.5 758.5,-56.5"/>
<text text-anchor="start" x="766.5" y="-74.5" font-family="Helvetica,sans-Serif" font-size="10.00" fill="#000000">ViennaRNA/constraints</text>
<text text-anchor="middle" x="818" y="-63.5" font-family="Helvetica,sans-Serif" font-size="10.00" fill="#000000">_SHAPE.h</text>
</a>
</g>
</g>
<!-- Node9&#45;&gt;Node12 -->
<g id="edge19" class="edge">
<title>Node9&#45;&gt;Node12</title>
<path fill="none" stroke="#191970" d="M942.225,-128.9005C920.79,-118.9961 886.7681,-103.2756 859.7444,-90.7888"/>
<polygon fill="#191970" stroke="#191970" points="861.0557,-87.5392 850.5098,-86.5218 858.1194,-93.8936 861.0557,-87.5392"/>
</g>
<!-- Node13 -->
<g id="node14" class="node">
<title>Node13</title>
<g id="a_node14"><a xlink:href="perturbation__fold_8h.html" target="_top" xlink:title="Find a vector of perturbation energies that minimizes the discripancies between predicted and observe...">
<polygon fill="none" stroke="#000000" points="896,-56.5 896,-86.5 1018,-86.5 1018,-56.5 896,-56.5"/>
<text text-anchor="start" x="904" y="-74.5" font-family="Helvetica,sans-Serif" font-size="10.00" fill="#000000">ViennaRNA/perturbation</text>
<text text-anchor="middle" x="957" y="-63.5" font-family="Helvetica,sans-Serif" font-size="10.00" fill="#000000">_fold.h</text>
</a>
</g>
</g>
<!-- Node9&#45;&gt;Node13 -->
<g id="edge21" class="edge">
<title>Node9&#45;&gt;Node13</title>
<path fill="none" stroke="#191970" d="M962.1403,-128.9005C961.3889,-120.5099 960.2637,-107.9451 959.2575,-96.7085"/>
<polygon fill="#191970" stroke="#191970" points="962.7233,-96.1697 958.3452,-86.5218 955.7512,-96.7941 962.7233,-96.1697"/>
</g>
<!-- Node14 -->
<g id="node15" class="node">
<title>Node14</title>
<g id="a_node15"><a xlink:href="constraints__ligand_8h.html" target="_top" xlink:title="Functions for incorporation of ligands binding to hairpin and interior loop motifs using the soft con...">
<polygon fill="none" stroke="#000000" points="1036.5,-56.5 1036.5,-86.5 1155.5,-86.5 1155.5,-56.5 1036.5,-56.5"/>
<text text-anchor="start" x="1044.5" y="-74.5" font-family="Helvetica,sans-Serif" font-size="10.00" fill="#000000">ViennaRNA/constraints</text>
<text text-anchor="middle" x="1096" y="-63.5" font-family="Helvetica,sans-Serif" font-size="10.00" fill="#000000">_ligand.h</text>
</a>
</g>
</g>
<!-- Node9&#45;&gt;Node14 -->
<g id="edge23" class="edge">
<title>Node9&#45;&gt;Node14</title>
<path fill="none" stroke="#191970" d="M982.0557,-128.9005C1001.545,-119.0826 1032.3788,-103.5498 1057.0594,-91.1167"/>
<polygon fill="#191970" stroke="#191970" points="1058.8245,-94.1466 1066.1807,-86.5218 1055.6752,-87.895 1058.8245,-94.1466"/>
</g>
<!-- Node10&#45;&gt;Node1 -->
<g id="edge16" class="edge">
<title>Node10&#45;&gt;Node1</title>
<path fill="none" stroke="#191970" d="M1208.014,-86.7001C1191.6516,-96.7743 1169.8807,-110.4074 1151,-123 1095.2939,-160.1536 1089.3113,-183.0838 1028,-210 986.9408,-228.0253 938.2658,-239.2069 897.7195,-246.024"/>
<polygon fill="#191970" stroke="#191970" points="896.9071,-242.6099 887.5959,-247.6647 898.027,-249.5198 896.9071,-242.6099"/>
</g>
<!-- Node11&#45;&gt;Node1 -->
<g id="edge18" class="edge">
<title>Node11&#45;&gt;Node1</title>
<path fill="none" stroke="#191970" d="M734.5593,-86.6073C765.3883,-96.4783 799.8022,-109.9215 809,-123 832.8213,-156.8717 825.741,-208.4981 819.3502,-236.4219"/>
<polygon fill="#191970" stroke="#191970" points="815.9375,-235.6425 816.9155,-246.1921 822.7297,-237.3352 815.9375,-235.6425"/>
</g>
<!-- Node12&#45;&gt;Node1 -->
<g id="edge20" class="edge">
<title>Node12&#45;&gt;Node1</title>
<path fill="none" stroke="#191970" d="M829.4026,-86.8216C835.9619,-96.6154 843.5648,-109.8983 847,-123 856.8068,-160.4024 858.838,-173.19 847,-210 843.6054,-220.5555 836.7942,-230.7408 830.2369,-238.8324"/>
<polygon fill="#191970" stroke="#191970" points="827.553,-236.5851 823.6492,-246.4346 832.8431,-241.1693 827.553,-236.5851"/>
</g>
<!-- Node13&#45;&gt;Node1 -->
<g id="edge22" class="edge">
<title>Node13&#45;&gt;Node1</title>
<path fill="none" stroke="#191970" d="M995.1614,-86.529C1010.7613,-94.7932 1027.1865,-106.7336 1036,-123 1042.5636,-135.1139 1043.3442,-142.3428 1036,-154 1003.4494,-205.6668 937.2968,-231.4806 885.632,-244.1791"/>
<polygon fill="#191970" stroke="#191970" points="884.774,-240.7852 875.8361,-246.4743 886.3709,-247.6007 884.774,-240.7852"/>
</g>
<!-- Node14&#45;&gt;Node1 -->
<g id="edge24" class="edge">
<title>Node14&#45;&gt;Node1</title>
<path fill="none" stroke="#191970" d="M1090.6338,-86.8277C1079.3908,-116.4002 1050.3271,-180.9686 1002,-210 970.5406,-228.8985 931.7053,-240.0443 897.5138,-246.6126"/>
<polygon fill="#191970" stroke="#191970" points="896.7482,-243.1944 887.5357,-248.427 898.0006,-250.0814 896.7482,-243.1944"/>
</g>
<!-- Node15&#45;&gt;Node1 -->
<g id="edge26" class="edge">
<title>Node15&#45;&gt;Node1</title>
<path fill="none" stroke="#191970" d="M597.4813,-148.0836C643.0807,-168.6761 742.5224,-217.2453 789.1596,-241.5787"/>
<polygon fill="#191970" stroke="#191970" points="787.7936,-244.8152 798.2716,-246.3845 791.0592,-238.6235 787.7936,-244.8152"/>
</g>
<!-- Node17&#45;&gt;Node1 -->
<g id="edge29" class="edge">
<title>Node17&#45;&gt;Node1</title>
<path fill="none" stroke="#191970" d="M1217.0318,-153.6793C1205.9034,-170.4885 1181.5213,-196.9346 1154,-210 1110.3909,-230.7028 983.6112,-243.9278 897.7451,-250.6486"/>
<polygon fill="#191970" stroke="#191970" points="897.4486,-247.161 887.7459,-251.4164 897.9846,-254.1405 897.4486,-247.161"/>
</g>
<!-- Node17&#45;&gt;Node18 -->
<g id="edge30" class="edge">
<title>Node17&#45;&gt;Node18</title>
<path fill="none" stroke="#191970" d="M1254.3164,-123.4639C1274.9225,-113.8763 1301.8351,-101.3545 1324.0783,-91.0052"/>
<polygon fill="#191970" stroke="#191970" points="1325.7031,-94.1096 1333.2932,-86.7177 1322.7501,-87.763 1325.7031,-94.1096"/>
</g>
<!-- Node18&#45;&gt;Node1 -->
<g id="edge32" class="edge">
<title>Node18&#45;&gt;Node1</title>
<path fill="none" stroke="#191970" d="M1361.9205,-86.7971C1351.6496,-104.6842 1328.411,-134.3414 1303,-154 1258.9816,-188.0538 1244.2653,-193.8726 1191,-210 1138.3063,-225.9544 991.785,-241.1212 897.6304,-249.4326"/>
<polygon fill="#191970" stroke="#191970" points="897.211,-245.9559 887.5539,-250.3136 897.8208,-252.9293 897.211,-245.9559"/>
</g>
<!-- Node19 -->
<g id="node20" class="node">
<title>Node19</title>
<polygon fill="none" stroke="#bfbfbf" points="1343,-.5 1343,-19.5 1389,-19.5 1389,-.5 1343,-.5"/>
<text text-anchor="middle" x="1366" y="-7.5" font-family="Helvetica,sans-Serif" font-size="10.00" fill="#000000">stdio.h</text>
</g>
<!-- Node18&#45;&gt;Node19 -->
<g id="edge31" class="edge">
<title>Node18&#45;&gt;Node19</title>
<path fill="none" stroke="#191970" d="M1366,-56.2977C1366,-48.3834 1366,-38.6043 1366,-30.0759"/>
<polygon fill="#191970" stroke="#191970" points="1369.5001,-29.8469 1366,-19.8469 1362.5001,-29.847 1369.5001,-29.8469"/>
</g>
<!-- Node20&#45;&gt;Node1 -->
<g id="edge43" class="edge">
<title>Node20&#45;&gt;Node1</title>
<path fill="none" stroke="#191970" d="M926.2188,-307.8906C904.1606,-297.6908 869.095,-281.4763 844.0331,-269.8875"/>
<polygon fill="#191970" stroke="#191970" points="845.1809,-266.5622 834.6353,-265.5419 842.2429,-272.9158 845.1809,-266.5622"/>
</g>
<!-- Node20&#45;&gt;Node18 -->
<g id="edge44" class="edge">
<title>Node20&#45;&gt;Node18</title>
<path fill="none" stroke="#191970" d="M1004.2537,-309.1775C1088.6898,-293.8517 1245.9805,-253.1349 1333,-154 1347.3267,-137.6787 1355.876,-114.3588 1360.6695,-96.6737"/>
<polygon fill="#191970" stroke="#191970" points="1364.1815,-97.0513 1363.1868,-86.5033 1357.3866,-95.3694 1364.1815,-97.0513"/>
</g>
<!-- Node21&#45;&gt;Node1 -->
<g id="edge46" class="edge">
<title>Node21&#45;&gt;Node1</title>
<path fill="none" stroke="#191970" d="M683.3206,-302.4554C712.1861,-292.194 750.0239,-278.7429 777.5516,-268.9571"/>
<polygon fill="#191970" stroke="#191970" points="778.9412,-272.1778 787.1911,-265.5303 776.5964,-265.5821 778.9412,-272.1778"/>
</g>
<!-- Node21&#45;&gt;Node6 -->
<g id="edge47" class="edge">
<title>Node21&#45;&gt;Node6</title>
<path fill="none" stroke="#191970" d="M594.6364,-302.4249C531.5115,-281.8405 415.0371,-243.6479 316,-210 256.8174,-189.8927 188.2901,-165.8338 147.3572,-151.3796"/>
<polygon fill="#191970" stroke="#191970" points="148.4105,-148.0398 137.8157,-148.0078 146.0781,-154.6398 148.4105,-148.0398"/>
</g>
<!-- Node22&#45;&gt;Node1 -->
<g id="edge49" class="edge">
<title>Node22&#45;&gt;Node1</title>
<path fill="none" stroke="#191970" d="M814,-302.2977C814,-294.3834 814,-284.6043 814,-276.0759"/>
<polygon fill="#191970" stroke="#191970" points="817.5001,-275.8469 814,-265.8469 810.5001,-275.847 817.5001,-275.8469"/>
</g>
</g>
</svg>
        <g id="navigator" transform="translate(0 0)" fill="#404254">
                <rect fill="#f2f5e9" fill-opacity="0.5" stroke="#606060" stroke-width=".5" x="0" y="0" width="60" height="60"/>
                <use id="zoomplus" xlink:href="#zoomPlus" x="17" y="9" onmousedown="handleZoom(evt,'in')"/>
                <use id="zoomminus" xlink:href="#zoomMin" x="42" y="9" onmousedown="handleZoom(evt,'out')"/>
                <use id="reset" xlink:href="#resetDef" x="30" y="36" onmousedown="handleReset()"/>
                <g id="arrowUp" xlink:href="#dirArrow" transform="translate(30 24)" onmousedown="handlePan(0,-1)">
                  <use xlink:href="#rim" fill="#404040">
                        <set attributeName="fill" to="#808080" begin="arrowUp.mouseover" end="arrowUp.mouseout"/>
                  </use>
                  <path fill="none" stroke="white" stroke-width="1.5" d="M0,-3.0v7 M-2.5,-0.5L0,-3.0L2.5,-0.5"/>
                </g>
                <g id="arrowRight" xlink:href="#dirArrow" transform="rotate(90) translate(36 -43)" onmousedown="handlePan(1,0)">
                  <use xlink:href="#rim" fill="#404040">
                        <set attributeName="fill" to="#808080" begin="arrowRight.mouseover" end="arrowRight.mouseout"/>
                  </use>
                  <path fill="none" stroke="white" stroke-width="1.5" d="M0,-3.0v7 M-2.5,-0.5L0,-3.0L2.5,-0.5"/>
                </g>
                <g id="arrowDown" xlink:href="#dirArrow" transform="rotate(180) translate(-30 -48)" onmousedown="handlePan(0,1)">
                  <use xlink:href="#rim" fill="#404040">
                        <set attributeName="fill" to="#808080" begin="arrowDown.mouseover" end="arrowDown.mouseout"/>
                  </use>
                  <path fill="none" stroke="white" stroke-width="1.5" d="M0,-3.0v7 M-2.5,-0.5L0,-3.0L2.5,-0.5"/>
                </g>
                <g id="arrowLeft" xlink:href="#dirArrow" transform="rotate(270) translate(-36 17)" onmousedown="handlePan(-1,0)">
                  <use xlink:href="#rim" fill="#404040">
                        <set attributeName="fill" to="#808080" begin="arrowLeft.mouseover" end="arrowLeft.mouseout"/>
                  </use>
                  <path fill="none" stroke="white" stroke-width="1.5" d="M0,-3.0v7 M-2.5,-0.5L0,-3.0L2.5,-0.5"/>
                </g>
        </g>
        <svg viewBox="0 0 15 15" width="100%" height="30px" preserveAspectRatio="xMaxYMin meet">
         <g id="arrow_out" transform="scale(0.3 0.3)">
          <a xlink:href="part__func_8h__incl_org.svg" target="_base">
           <rect id="button" ry="5" rx="5" y="6" x="6" height="38" width="38"
                fill="#f2f5e9" fill-opacity="0.5" stroke="#606060" stroke-width="1.0"/>
           <path id="arrow"
             d="M 11.500037,31.436501 C 11.940474,20.09759 22.043105,11.32322 32.158766,21.979434 L 37.068811,17.246167 C 37.068811,17.246167 37.088388,32 37.088388,32 L 22.160133,31.978069 C 22.160133,31.978069 26.997745,27.140456 26.997745,27.140456 C 18.528582,18.264221 13.291696,25.230495 11.500037,31.436501 z"
             style="fill:#404040;"/>
          </a>
         </g>
        </svg>
</svg>
