<?xml version="1.0" encoding="UTF-8" standalone="no"?>
<!DOCTYPE svg PUBLIC "-//W3C//DTD SVG 1.1//EN"
 "http://www.w3.org/Graphics/SVG/1.1/DTD/svg11.dtd">
<!-- Generated by graphviz version 2.40.1 (20161225.0304)
 -->
<!-- Title: ViennaRNA/plot_layouts.h Pages: 1 -->
<!--zoomable 330 -->
<svg id="main" version="1.1" xmlns="http://www.w3.org/2000/svg" xmlns:xlink="http://www.w3.org/1999/xlink" xml:space="preserve" onload="init(evt)">
<style type="text/css"><![CDATA[
.edge:hover path { stroke: red; }
.edge:hover polygon { stroke: red; fill: red; }
]]></style>
<script type="text/javascript"><![CDATA[
var edges = document.getElementsByTagName('g');
if (edges && edges.length) {
  for (var i=0;i<edges.length;i++) {
    if (edges[i].id.substr(0,4)=='edge') {
      edges[i].setAttribute('class','edge');
    }
  }
}
]]></script>
        <defs>
                <circle id="rim" cx="0" cy="0" r="7"/>
                <circle id="rim2" cx="0" cy="0" r="3.5"/>
                <g id="zoomPlus">
                        <use xlink:href="#rim" fill="#404040">
                                <set attributeName="fill" to="#808080" begin="zoomplus.mouseover" end="zoomplus.mouseout"/>
                        </use>
                        <path d="M-4,0h8M0,-4v8" fill="none" stroke="white" stroke-width="1.5" pointer-events="none"/>
                </g>
                <g id="zoomMin">
                        <use xlink:href="#rim" fill="#404040">
                                <set attributeName="fill" to="#808080" begin="zoomminus.mouseover" end="zoomminus.mouseout"/>
                        </use>
                        <path d="M-4,0h8" fill="none" stroke="white" stroke-width="1.5" pointer-events="none"/>
                </g>
                <g id="dirArrow">
                        <path fill="none" stroke="white" stroke-width="1.5" d="M0,-3.0v7 M-2.5,-0.5L0,-3.0L2.5,-0.5"/>
                </g>
               <g id="resetDef">
                       <use xlink:href="#rim2" fill="#404040">
                               <set attributeName="fill" to="#808080" begin="reset.mouseover" end="reset.mouseout"/>
                       </use>
               </g>
        </defs>

<script type="text/javascript">
var viewWidth = 1428;
var viewHeight = 330;
var sectionId = 'dynsection-0';
</script>
<script xlink:href="svgpan.js"/>
<svg id="graph" class="graph">
<g id="viewport">
<title>ViennaRNA/plot_layouts.h</title>
<!-- Node0 -->
<g id="node1" class="node">
<title>Node0</title>
<polygon fill="#bfbfbf" stroke="#000000" points="840,-302.5 840,-321.5 972,-321.5 972,-302.5 840,-302.5"/>
<text text-anchor="middle" x="906" y="-309.5" font-family="Helvetica,sans-Serif" font-size="10.00" fill="#000000">ViennaRNA/plot_layouts.h</text>
</g>
<!-- Node1 -->
<g id="node2" class="node">
<title>Node1</title>
<g id="a_node2"><a xlink:href="data__structures_8h.html" target="_top" xlink:title="Various data structures and pre&#45;processor macros. ">
<polygon fill="none" stroke="#000000" points="759.5,-246.5 759.5,-265.5 906.5,-265.5 906.5,-246.5 759.5,-246.5"/>
<text text-anchor="middle" x="833" y="-253.5" font-family="Helvetica,sans-Serif" font-size="10.00" fill="#000000">ViennaRNA/data_structures.h</text>
</a>
</g>
</g>
<!-- Node0&#45;&gt;Node1 -->
<g id="edge1" class="edge">
<title>Node0&#45;&gt;Node1</title>
<path fill="none" stroke="#191970" d="M893.2844,-302.2455C882.398,-293.8943 866.5117,-281.7076 853.78,-271.9408"/>
<polygon fill="#191970" stroke="#191970" points="855.6346,-268.9523 845.5699,-265.6427 851.3739,-274.5063 855.6346,-268.9523"/>
</g>
<!-- Node20 -->
<g id="node21" class="node">
<title>Node20</title>
<g id="a_node21"><a xlink:href="naview_8h.html" target="_top" xlink:title="ViennaRNA/naview.h">
<polygon fill="none" stroke="#000000" points="925,-246.5 925,-265.5 1035,-265.5 1035,-246.5 925,-246.5"/>
<text text-anchor="middle" x="980" y="-253.5" font-family="Helvetica,sans-Serif" font-size="10.00" fill="#000000">ViennaRNA/naview.h</text>
</a>
</g>
</g>
<!-- Node0&#45;&gt;Node20 -->
<g id="edge41" class="edge">
<title>Node0&#45;&gt;Node20</title>
<path fill="none" stroke="#191970" d="M918.8898,-302.2455C929.9254,-293.8943 946.0292,-281.7076 958.9353,-271.9408"/>
<polygon fill="#191970" stroke="#191970" points="961.3959,-274.4681 967.2579,-265.6427 957.1717,-268.8862 961.3959,-274.4681"/>
</g>
<!-- Node2 -->
<g id="node3" class="node">
<title>Node2</title>
<g id="a_node3"><a xlink:href="energy__const_8h.html" target="_top" xlink:title="Energy parameter constants. ">
<polygon fill="none" stroke="#000000" points="0,-62 0,-81 138,-81 138,-62 0,-62"/>
<text text-anchor="middle" x="69" y="-69" font-family="Helvetica,sans-Serif" font-size="10.00" fill="#000000">ViennaRNA/energy_const.h</text>
</a>
</g>
</g>
<!-- Node1&#45;&gt;Node2 -->
<g id="edge2" class="edge">
<title>Node1&#45;&gt;Node2</title>
<path fill="none" stroke="#191970" d="M759.4902,-252.3641C622.0758,-245.2376 331.2062,-228.5055 232,-210 147.1318,-194.169 97.5001,-223.2891 46,-154 31.7998,-134.8948 44.3551,-107.4208 55.7555,-89.5168"/>
<polygon fill="#191970" stroke="#191970" points="58.7353,-91.3589 61.464,-81.1215 52.9467,-87.4229 58.7353,-91.3589"/>
</g>
<!-- Node4 -->
<g id="node5" class="node">
<title>Node4</title>
<g id="a_node5"><a xlink:href="fold__compound_8h.html" target="_top" xlink:title="The Basic Fold Compound API. ">
<polygon fill="none" stroke="#000000" points="539,-190.5 539,-209.5 685,-209.5 685,-190.5 539,-190.5"/>
<text text-anchor="middle" x="612" y="-197.5" font-family="Helvetica,sans-Serif" font-size="10.00" fill="#000000">ViennaRNA/fold_compound.h</text>
</a>
</g>
</g>
<!-- Node1&#45;&gt;Node4 -->
<g id="edge4" class="edge">
<title>Node1&#45;&gt;Node4</title>
<path fill="none" stroke="#191970" d="M795.2599,-246.4369C757.7552,-236.9335 700.1201,-222.3291 659.5176,-212.0407"/>
<polygon fill="#191970" stroke="#191970" points="660.1379,-208.5873 649.5845,-209.5237 658.4184,-215.3728 660.1379,-208.5873"/>
</g>
<!-- Node5 -->
<g id="node6" class="node">
<title>Node5</title>
<g id="a_node6"><a xlink:href="model_8h.html" target="_top" xlink:title="The model details data structure and its corresponding modifiers. ">
<polygon fill="none" stroke="#000000" points="294,-62 294,-81 400,-81 400,-62 294,-62"/>
<text text-anchor="middle" x="347" y="-69" font-family="Helvetica,sans-Serif" font-size="10.00" fill="#000000">ViennaRNA/model.h</text>
</a>
</g>
</g>
<!-- Node1&#45;&gt;Node5 -->
<g id="edge33" class="edge">
<title>Node1&#45;&gt;Node5</title>
<path fill="none" stroke="#191970" d="M759.3486,-249.7733C642.4482,-238.3125 422.2755,-209.7771 370,-154 354.0013,-136.9297 348.9804,-109.6776 347.4866,-91.2082"/>
<polygon fill="#191970" stroke="#191970" points="350.9707,-90.8134 346.9457,-81.0129 343.9805,-91.1843 350.9707,-90.8134"/>
</g>
<!-- Node6 -->
<g id="node7" class="node">
<title>Node6</title>
<g id="a_node7"><a xlink:href="params_8h.html" target="_top" xlink:title="Functions to deal with sets of energy parameters. ">
<polygon fill="none" stroke="#000000" points="55,-129 55,-148 167,-148 167,-129 55,-129"/>
<text text-anchor="middle" x="111" y="-136" font-family="Helvetica,sans-Serif" font-size="10.00" fill="#000000">ViennaRNA/params.h</text>
</a>
</g>
</g>
<!-- Node1&#45;&gt;Node6 -->
<g id="edge34" class="edge">
<title>Node1&#45;&gt;Node6</title>
<path fill="none" stroke="#191970" d="M759.1962,-252.465C631.9133,-245.7015 376.7442,-229.8242 290,-210 232.0608,-196.7588 168.0638,-169.5202 134.3186,-152.7491"/>
<polygon fill="#191970" stroke="#191970" points="135.7421,-149.546 125.2447,-148.1121 132.5567,-155.7793 135.7421,-149.546"/>
</g>
<!-- Node8 -->
<g id="node9" class="node">
<title>Node8</title>
<g id="a_node9"><a xlink:href="dp__matrices_8h.html" target="_top" xlink:title="Functions to deal with standard dynamic programming (DP) matrices. ">
<polygon fill="none" stroke="#000000" points="185.5,-129 185.5,-148 318.5,-148 318.5,-129 185.5,-129"/>
<text text-anchor="middle" x="252" y="-136" font-family="Helvetica,sans-Serif" font-size="10.00" fill="#000000">ViennaRNA/dp_matrices.h</text>
</a>
</g>
</g>
<!-- Node1&#45;&gt;Node8 -->
<g id="edge35" class="edge">
<title>Node1&#45;&gt;Node8</title>
<path fill="none" stroke="#191970" d="M759.313,-254.9265C637.3713,-252.2104 399.8334,-242.7311 324,-210 296.8273,-198.2718 272.3803,-173.8401 259.7282,-156.8192"/>
<polygon fill="#191970" stroke="#191970" points="262.4538,-154.6001 253.9704,-148.2534 256.6443,-158.5052 262.4538,-154.6001"/>
</g>
<!-- Node9 -->
<g id="node10" class="node">
<title>Node9</title>
<g id="a_node10"><a xlink:href="constraints_8h.html" target="_top" xlink:title="Functions and data structures for constraining secondary structure predictions and evaluation...">
<polygon fill="none" stroke="#000000" points="899,-129 899,-148 1027,-148 1027,-129 899,-129"/>
<text text-anchor="middle" x="963" y="-136" font-family="Helvetica,sans-Serif" font-size="10.00" fill="#000000">ViennaRNA/constraints.h</text>
</a>
</g>
</g>
<!-- Node1&#45;&gt;Node9 -->
<g id="edge36" class="edge">
<title>Node1&#45;&gt;Node9</title>
<path fill="none" stroke="#191970" d="M837.2453,-246.1863C845.7744,-236.9116 862.0275,-222.5825 876,-210 896.999,-191.0901 920.9253,-169.0893 938.6314,-154.5399"/>
<polygon fill="#191970" stroke="#191970" points="941.1452,-157.0121 946.7838,-148.0423 936.7822,-151.5381 941.1452,-157.0121"/>
</g>
<!-- Node15 -->
<g id="node16" class="node">
<title>Node15</title>
<g id="a_node16"><a xlink:href="grammar_8h.html" target="_top" xlink:title="Implementations for the RNA folding grammar. ">
<polygon fill="none" stroke="#000000" points="553,-129 553,-148 671,-148 671,-129 553,-129"/>
<text text-anchor="middle" x="612" y="-136" font-family="Helvetica,sans-Serif" font-size="10.00" fill="#000000">ViennaRNA/grammar.h</text>
</a>
</g>
</g>
<!-- Node1&#45;&gt;Node15 -->
<g id="edge37" class="edge">
<title>Node1&#45;&gt;Node15</title>
<path fill="none" stroke="#191970" d="M811.0028,-246.3845C768.8594,-225.8494 677.8598,-177.5979 634.9803,-153.1901"/>
<polygon fill="#191970" stroke="#191970" points="636.5308,-150.0441 626.119,-148.0836 633.0357,-156.1091 636.5308,-150.0441"/>
</g>
<!-- Node16 -->
<g id="node17" class="node">
<title>Node16</title>
<g id="a_node17"><a xlink:href="structured__domains_8h.html" target="_top" xlink:title="This module provides interfaces that deal with additional structured domains in the folding grammar...">
<polygon fill="none" stroke="#000000" points="689.5,-123.5 689.5,-153.5 804.5,-153.5 804.5,-123.5 689.5,-123.5"/>
<text text-anchor="start" x="697.5" y="-141.5" font-family="Helvetica,sans-Serif" font-size="10.00" fill="#000000">ViennaRNA/structured</text>
<text text-anchor="middle" x="747" y="-130.5" font-family="Helvetica,sans-Serif" font-size="10.00" fill="#000000">_domains.h</text>
</a>
</g>
</g>
<!-- Node1&#45;&gt;Node16 -->
<g id="edge38" class="edge">
<title>Node1&#45;&gt;Node16</title>
<path fill="none" stroke="#191970" d="M825.9623,-246.3845C812.5548,-228.0661 783.0047,-187.6925 764.1,-161.8633"/>
<polygon fill="#191970" stroke="#191970" points="766.8661,-159.7167 758.1356,-153.7143 761.2175,-163.851 766.8661,-159.7167"/>
</g>
<!-- Node17 -->
<g id="node18" class="node">
<title>Node17</title>
<g id="a_node18"><a xlink:href="unstructured__domains_8h.html" target="_top" xlink:title="Functions to modify unstructured domains, e.g. to incorporate ligands binding to unpaired stretches...">
<polygon fill="none" stroke="#000000" points="1159.5,-123.5 1159.5,-153.5 1284.5,-153.5 1284.5,-123.5 1159.5,-123.5"/>
<text text-anchor="start" x="1167.5" y="-141.5" font-family="Helvetica,sans-Serif" font-size="10.00" fill="#000000">ViennaRNA/unstructured</text>
<text text-anchor="middle" x="1222" y="-130.5" font-family="Helvetica,sans-Serif" font-size="10.00" fill="#000000">_domains.h</text>
</a>
</g>
</g>
<!-- Node1&#45;&gt;Node17 -->
<g id="edge39" class="edge">
<title>Node1&#45;&gt;Node17</title>
<path fill="none" stroke="#191970" d="M899.0478,-246.4504C984.9856,-234.5512 1125.2634,-215.1517 1136,-210 1159.6043,-198.674 1180.9428,-177.5758 1196.7232,-161.2217"/>
<polygon fill="#191970" stroke="#191970" points="1199.6049,-163.2741 1204.009,-153.638 1194.557,-158.4244 1199.6049,-163.2741"/>
</g>
<!-- Node18 -->
<g id="node19" class="node">
<title>Node18</title>
<g id="a_node19"><a xlink:href="structure__utils_8h.html" target="_top" xlink:title="Various utility&#45; and helper&#45;functions for secondary structure parsing, converting, etc. ">
<polygon fill="none" stroke="#000000" points="1310,-56.5 1310,-86.5 1420,-86.5 1420,-56.5 1310,-56.5"/>
<text text-anchor="start" x="1318" y="-74.5" font-family="Helvetica,sans-Serif" font-size="10.00" fill="#000000">ViennaRNA/structure</text>
<text text-anchor="middle" x="1365" y="-63.5" font-family="Helvetica,sans-Serif" font-size="10.00" fill="#000000">_utils.h</text>
</a>
</g>
</g>
<!-- Node1&#45;&gt;Node18 -->
<g id="edge40" class="edge">
<title>Node1&#45;&gt;Node18</title>
<path fill="none" stroke="#191970" d="M904.1032,-246.4851C1000.0085,-234.2042 1160.1449,-213.9392 1173,-210 1226.211,-193.6944 1241.0997,-188.206 1285,-154 1306.8456,-136.9785 1326.9479,-112.408 1341.8319,-94.5103"/>
<polygon fill="#191970" stroke="#191970" points="1344.5474,-96.7191 1348.2909,-86.8076 1339.1836,-92.2213 1344.5474,-96.7191"/>
</g>
<!-- Node3 -->
<g id="node4" class="node">
<title>Node3</title>
<polygon fill="none" stroke="#bfbfbf" points="45,-.5 45,-19.5 93,-19.5 93,-.5 45,-.5"/>
<text text-anchor="middle" x="69" y="-7.5" font-family="Helvetica,sans-Serif" font-size="10.00" fill="#000000">limits.h</text>
</g>
<!-- Node2&#45;&gt;Node3 -->
<g id="edge3" class="edge">
<title>Node2&#45;&gt;Node3</title>
<path fill="none" stroke="#191970" d="M69,-61.8906C69,-53.3657 69,-40.6392 69,-29.9235"/>
<polygon fill="#191970" stroke="#191970" points="72.5001,-29.7448 69,-19.7449 65.5001,-29.7449 72.5001,-29.7448"/>
</g>
<!-- Node4&#45;&gt;Node5 -->
<g id="edge5" class="edge">
<title>Node4&#45;&gt;Node5</title>
<path fill="none" stroke="#191970" d="M544.0415,-190.4582C492.4598,-182.2148 426.6734,-169.2444 404,-154 380.6097,-138.2736 364.0066,-109.4415 354.9613,-90.3706"/>
<polygon fill="#191970" stroke="#191970" points="358.1155,-88.8508 350.8212,-81.1668 351.7317,-91.7225 358.1155,-88.8508"/>
</g>
<!-- Node4&#45;&gt;Node6 -->
<g id="edge6" class="edge">
<title>Node4&#45;&gt;Node6</title>
<path fill="none" stroke="#191970" d="M538.7036,-195.1673C451.7458,-188.7658 302.6004,-175.6801 176,-154 169.8467,-152.9463 163.4082,-151.6506 157.0763,-150.2614"/>
<polygon fill="#191970" stroke="#191970" points="157.7985,-146.8363 147.2703,-148.0225 156.2403,-153.6607 157.7985,-146.8363"/>
</g>
<!-- Node7 -->
<g id="node8" class="node">
<title>Node7</title>
<g id="a_node8"><a xlink:href="sequence_8h.html" target="_top" xlink:title="Functions and data structures related to sequence representations. ">
<polygon fill="none" stroke="#000000" points="413,-129 413,-148 535,-148 535,-129 413,-129"/>
<text text-anchor="middle" x="474" y="-136" font-family="Helvetica,sans-Serif" font-size="10.00" fill="#000000">ViennaRNA/sequence.h</text>
</a>
</g>
</g>
<!-- Node4&#45;&gt;Node7 -->
<g id="edge10" class="edge">
<title>Node4&#45;&gt;Node7</title>
<path fill="none" stroke="#191970" d="M590.4375,-190.3906C567.4488,-180.1457 530.844,-163.8326 504.8176,-152.2339"/>
<polygon fill="#191970" stroke="#191970" points="505.9698,-148.9156 495.4111,-148.0419 503.1204,-155.3095 505.9698,-148.9156"/>
</g>
<!-- Node4&#45;&gt;Node8 -->
<g id="edge11" class="edge">
<title>Node4&#45;&gt;Node8</title>
<path fill="none" stroke="#191970" d="M556.145,-190.4581C491.8059,-179.4668 386.2079,-161.4272 317.9035,-149.7585"/>
<polygon fill="#191970" stroke="#191970" points="318.1364,-146.2477 307.6898,-148.0137 316.9576,-153.1477 318.1364,-146.2477"/>
</g>
<!-- Node4&#45;&gt;Node9 -->
<g id="edge13" class="edge">
<title>Node4&#45;&gt;Node9</title>
<path fill="none" stroke="#191970" d="M666.4586,-190.4581C729.1893,-179.4668 832.1473,-161.4272 898.7441,-149.7585"/>
<polygon fill="#191970" stroke="#191970" points="899.4565,-153.1871 908.7024,-148.0137 898.2484,-146.2921 899.4565,-153.1871"/>
</g>
<!-- Node4&#45;&gt;Node15 -->
<g id="edge25" class="edge">
<title>Node4&#45;&gt;Node15</title>
<path fill="none" stroke="#191970" d="M612,-190.3906C612,-181.8657 612,-169.1392 612,-158.4235"/>
<polygon fill="#191970" stroke="#191970" points="615.5001,-158.2448 612,-148.2449 608.5001,-158.2449 615.5001,-158.2448"/>
</g>
<!-- Node4&#45;&gt;Node16 -->
<g id="edge27" class="edge">
<title>Node4&#45;&gt;Node16</title>
<path fill="none" stroke="#191970" d="M633.0938,-190.3906C652.2102,-181.682 680.9514,-168.5888 704.7798,-157.7336"/>
<polygon fill="#191970" stroke="#191970" points="706.3261,-160.8754 713.9753,-153.5446 703.4241,-154.5052 706.3261,-160.8754"/>
</g>
<!-- Node4&#45;&gt;Node17 -->
<g id="edge28" class="edge">
<title>Node4&#45;&gt;Node17</title>
<path fill="none" stroke="#191970" d="M685.2771,-192.6122C802.7777,-180.7659 1031.9979,-157.6559 1149.1972,-145.84"/>
<polygon fill="#191970" stroke="#191970" points="1149.5553,-149.3217 1159.1537,-144.8361 1148.8531,-142.357 1149.5553,-149.3217"/>
</g>
<!-- Node6&#45;&gt;Node1 -->
<g id="edge8" class="edge">
<title>Node6&#45;&gt;Node1</title>
<path fill="none" stroke="#191970" d="M136.2289,-148.1121C173.3702,-164.0063 244.3414,-195.4517 308,-210 390.0282,-228.7464 622.6655,-243.9634 749.0034,-251.2819"/>
<polygon fill="#191970" stroke="#191970" points="748.8439,-254.7784 759.0286,-251.859 749.2463,-247.7899 748.8439,-254.7784"/>
</g>
<!-- Node6&#45;&gt;Node2 -->
<g id="edge7" class="edge">
<title>Node6&#45;&gt;Node2</title>
<path fill="none" stroke="#191970" d="M104.9824,-128.9005C98.62,-118.751 88.4291,-102.4941 80.5142,-89.8679"/>
<polygon fill="#191970" stroke="#191970" points="83.2833,-87.6956 75.0064,-81.0817 77.3523,-91.4135 83.2833,-87.6956"/>
</g>
<!-- Node6&#45;&gt;Node5 -->
<g id="edge9" class="edge">
<title>Node6&#45;&gt;Node5</title>
<path fill="none" stroke="#191970" d="M144.5624,-128.9717C186.2946,-117.124 257.6164,-96.8758 303.503,-83.8487"/>
<polygon fill="#191970" stroke="#191970" points="304.5073,-87.202 313.1713,-81.1039 302.5955,-80.4681 304.5073,-87.202"/>
</g>
<!-- Node8&#45;&gt;Node1 -->
<g id="edge12" class="edge">
<title>Node8&#45;&gt;Node1</title>
<path fill="none" stroke="#191970" d="M264.9545,-148.2534C281.4193,-164.3557 309.7953,-196.0999 342,-210 413.45,-240.8391 628.4503,-251.0368 748.955,-254.3845"/>
<polygon fill="#191970" stroke="#191970" points="749.1548,-257.8911 759.2449,-254.6601 749.3423,-250.8936 749.1548,-257.8911"/>
</g>
<!-- Node9&#45;&gt;Node1 -->
<g id="edge14" class="edge">
<title>Node9&#45;&gt;Node1</title>
<path fill="none" stroke="#191970" d="M958.4312,-148.2741C946.5169,-162.0987 918.2987,-188.1187 894,-210 882.8656,-220.0266 870.2831,-231.1624 859.2538,-239.9659"/>
<polygon fill="#191970" stroke="#191970" points="856.9618,-237.3133 851.1721,-246.1863 861.2314,-242.8604 856.9618,-237.3133"/>
</g>
<!-- Node10 -->
<g id="node11" class="node">
<title>Node10</title>
<g id="a_node11"><a xlink:href="constraints__hard_8h.html" target="_top" xlink:title="Functions and data structures for handling of secondary structure hard constraints. ">
<polygon fill="none" stroke="#000000" points="620.5,-56.5 620.5,-86.5 739.5,-86.5 739.5,-56.5 620.5,-56.5"/>
<text text-anchor="start" x="628.5" y="-74.5" font-family="Helvetica,sans-Serif" font-size="10.00" fill="#000000">ViennaRNA/constraints</text>
<text text-anchor="middle" x="680" y="-63.5" font-family="Helvetica,sans-Serif" font-size="10.00" fill="#000000">_hard.h</text>
</a>
</g>
</g>
<!-- Node9&#45;&gt;Node10 -->
<g id="edge15" class="edge">
<title>Node9&#45;&gt;Node10</title>
<path fill="none" stroke="#191970" d="M922.7535,-128.9717C877.7165,-118.3092 803.9413,-100.843 749.5232,-87.9596"/>
<polygon fill="#191970" stroke="#191970" points="750.1361,-84.508 739.5987,-85.6099 748.5233,-91.3197 750.1361,-84.508"/>
</g>
<!-- Node11 -->
<g id="node12" class="node">
<title>Node11</title>
<g id="a_node12"><a xlink:href="constraints__soft_8h.html" target="_top" xlink:title="Functions and data structures for secondary structure soft constraints. ">
<polygon fill="none" stroke="#000000" points="757.5,-56.5 757.5,-86.5 876.5,-86.5 876.5,-56.5 757.5,-56.5"/>
<text text-anchor="start" x="765.5" y="-74.5" font-family="Helvetica,sans-Serif" font-size="10.00" fill="#000000">ViennaRNA/constraints</text>
<text text-anchor="middle" x="817" y="-63.5" font-family="Helvetica,sans-Serif" font-size="10.00" fill="#000000">_soft.h</text>
</a>
</g>
</g>
<!-- Node9&#45;&gt;Node11 -->
<g id="edge17" class="edge">
<title>Node9&#45;&gt;Node11</title>
<path fill="none" stroke="#191970" d="M942.0818,-128.9005C920.4989,-118.9961 886.2424,-103.2756 859.0323,-90.7888"/>
<polygon fill="#191970" stroke="#191970" points="860.2825,-87.5116 849.734,-86.5218 857.3629,-93.8737 860.2825,-87.5116"/>
</g>
<!-- Node12 -->
<g id="node13" class="node">
<title>Node12</title>
<g id="a_node13"><a xlink:href="constraints__SHAPE_8h.html" target="_top" xlink:title="This module provides function to incorporate SHAPE reactivity data into the folding recursions by mea...">
<polygon fill="none" stroke="#000000" points="894.5,-56.5 894.5,-86.5 1013.5,-86.5 1013.5,-56.5 894.5,-56.5"/>
<text text-anchor="start" x="902.5" y="-74.5" font-family="Helvetica,sans-Serif" font-size="10.00" fill="#000000">ViennaRNA/constraints</text>
<text text-anchor="middle" x="954" y="-63.5" font-family="Helvetica,sans-Serif" font-size="10.00" fill="#000000">_SHAPE.h</text>
</a>
</g>
</g>
<!-- Node9&#45;&gt;Node12 -->
<g id="edge19" class="edge">
<title>Node9&#45;&gt;Node12</title>
<path fill="none" stroke="#191970" d="M961.7105,-128.9005C960.5834,-120.5099 958.8956,-107.9451 957.3862,-96.7085"/>
<polygon fill="#191970" stroke="#191970" points="960.8181,-95.9668 956.0178,-86.5218 953.8804,-96.8987 960.8181,-95.9668"/>
</g>
<!-- Node13 -->
<g id="node14" class="node">
<title>Node13</title>
<g id="a_node14"><a xlink:href="perturbation__fold_8h.html" target="_top" xlink:title="Find a vector of perturbation energies that minimizes the discripancies between predicted and observe...">
<polygon fill="none" stroke="#000000" points="1032,-56.5 1032,-86.5 1154,-86.5 1154,-56.5 1032,-56.5"/>
<text text-anchor="start" x="1040" y="-74.5" font-family="Helvetica,sans-Serif" font-size="10.00" fill="#000000">ViennaRNA/perturbation</text>
<text text-anchor="middle" x="1093" y="-63.5" font-family="Helvetica,sans-Serif" font-size="10.00" fill="#000000">_fold.h</text>
</a>
</g>
</g>
<!-- Node9&#45;&gt;Node13 -->
<g id="edge21" class="edge">
<title>Node9&#45;&gt;Node13</title>
<path fill="none" stroke="#191970" d="M981.6258,-128.9005C1000.6756,-119.0826 1030.8139,-103.5498 1054.9377,-91.1167"/>
<polygon fill="#191970" stroke="#191970" points="1056.5678,-94.2141 1063.8533,-86.5218 1053.3609,-87.9919 1056.5678,-94.2141"/>
</g>
<!-- Node14 -->
<g id="node15" class="node">
<title>Node14</title>
<g id="a_node15"><a xlink:href="constraints__ligand_8h.html" target="_top" xlink:title="Functions for incorporation of ligands binding to hairpin and interior loop motifs using the soft con...">
<polygon fill="none" stroke="#000000" points="1172.5,-56.5 1172.5,-86.5 1291.5,-86.5 1291.5,-56.5 1172.5,-56.5"/>
<text text-anchor="start" x="1180.5" y="-74.5" font-family="Helvetica,sans-Serif" font-size="10.00" fill="#000000">ViennaRNA/constraints</text>
<text text-anchor="middle" x="1232" y="-63.5" font-family="Helvetica,sans-Serif" font-size="10.00" fill="#000000">_ligand.h</text>
</a>
</g>
</g>
<!-- Node9&#45;&gt;Node14 -->
<g id="edge23" class="edge">
<title>Node9&#45;&gt;Node14</title>
<path fill="none" stroke="#191970" d="M1001.2555,-128.9717C1043.1581,-118.535 1111.2327,-101.5796 1162.6061,-88.784"/>
<polygon fill="#191970" stroke="#191970" points="1163.4618,-92.1779 1172.3194,-86.3647 1161.7699,-85.3854 1163.4618,-92.1779"/>
</g>
<!-- Node10&#45;&gt;Node1 -->
<g id="edge16" class="edge">
<title>Node10&#45;&gt;Node1</title>
<path fill="none" stroke="#191970" d="M735.2018,-86.5435C767.3665,-96.4433 803.5929,-109.9415 814,-123 840.0644,-155.7047 838.939,-207.8386 835.9247,-236.1434"/>
<polygon fill="#191970" stroke="#191970" points="832.4135,-236.0138 834.6374,-246.3726 839.3587,-236.8879 832.4135,-236.0138"/>
</g>
<!-- Node11&#45;&gt;Node1 -->
<g id="edge18" class="edge">
<title>Node11&#45;&gt;Node1</title>
<path fill="none" stroke="#191970" d="M828.7909,-86.7621C835.5746,-96.5336 843.4394,-109.8138 847,-123 857.08,-160.3297 852.6911,-171.7544 847,-210 845.6673,-218.9561 842.9506,-228.581 840.2619,-236.7"/>
<polygon fill="#191970" stroke="#191970" points="836.8933,-235.728 836.8624,-246.3228 843.4936,-238.0598 836.8933,-235.728"/>
</g>
<!-- Node12&#45;&gt;Node1 -->
<g id="edge20" class="edge">
<title>Node12&#45;&gt;Node1</title>
<path fill="none" stroke="#191970" d="M994.431,-86.6321C1010.3567,-94.818 1026.972,-106.6691 1036,-123 1042.6658,-135.0579 1043.2319,-142.2728 1036,-154 1005.0752,-204.1476 941.1245,-230.5011 893.2177,-243.7543"/>
<polygon fill="#191970" stroke="#191970" points="892.0296,-240.4481 883.2561,-246.3874 893.8185,-247.2156 892.0296,-240.4481"/>
</g>
<!-- Node13&#45;&gt;Node1 -->
<g id="edge22" class="edge">
<title>Node13&#45;&gt;Node1</title>
<path fill="none" stroke="#191970" d="M1087.9259,-86.7704C1077.2535,-116.2425 1049.4716,-180.6431 1002,-210 975.0469,-226.668 942.0302,-237.3886 912.354,-244.2417"/>
<polygon fill="#191970" stroke="#191970" points="911.4482,-240.8571 902.4316,-246.4205 912.9495,-247.6942 911.4482,-240.8571"/>
</g>
<!-- Node14&#45;&gt;Node1 -->
<g id="edge24" class="edge">
<title>Node14&#45;&gt;Node1</title>
<path fill="none" stroke="#191970" d="M1207.6974,-86.5154C1191.5037,-96.6272 1169.8195,-110.3727 1151,-123 1095.3971,-160.3078 1089.04,-182.4742 1028,-210 991.3359,-226.5336 948.0102,-237.516 911.5206,-244.5889"/>
<polygon fill="#191970" stroke="#191970" points="910.6054,-241.1994 901.4212,-246.4816 911.8948,-248.0797 910.6054,-241.1994"/>
</g>
<!-- Node15&#45;&gt;Node1 -->
<g id="edge26" class="edge">
<title>Node15&#45;&gt;Node1</title>
<path fill="none" stroke="#191970" d="M633.9316,-148.0836C676.0243,-168.59 767.0236,-216.8394 809.953,-241.2719"/>
<polygon fill="#191970" stroke="#191970" points="808.4144,-244.4248 818.8265,-246.3845 811.909,-238.3595 808.4144,-244.4248"/>
</g>
<!-- Node17&#45;&gt;Node1 -->
<g id="edge29" class="edge">
<title>Node17&#45;&gt;Node1</title>
<path fill="none" stroke="#191970" d="M1217.0121,-153.638C1205.8656,-170.4092 1181.4669,-196.8206 1154,-210 1143.4729,-215.0512 1008.4112,-233.7995 916.812,-245.7454"/>
<polygon fill="#191970" stroke="#191970" points="916.1683,-242.2995 906.7027,-247.0591 917.0704,-249.2411 916.1683,-242.2995"/>
</g>
<!-- Node17&#45;&gt;Node18 -->
<g id="edge30" class="edge">
<title>Node17&#45;&gt;Node18</title>
<path fill="none" stroke="#191970" d="M1254.092,-123.4639C1274.555,-113.8763 1301.2806,-101.3545 1323.3694,-91.0052"/>
<polygon fill="#191970" stroke="#191970" points="1324.95,-94.1299 1332.5204,-86.7177 1321.98,-87.7911 1324.95,-94.1299"/>
</g>
<!-- Node18&#45;&gt;Node1 -->
<g id="edge32" class="edge">
<title>Node18&#45;&gt;Node1</title>
<path fill="none" stroke="#191970" d="M1361.1123,-86.8076C1351.0644,-104.7048 1328.1913,-134.3716 1303,-154 1259.0997,-188.206 1244.211,-193.6944 1191,-210 1178.1704,-213.9314 1018.6432,-234.1239 916.8603,-246.412"/>
<polygon fill="#191970" stroke="#191970" points="916.4018,-242.9418 906.892,-247.6123 917.2387,-249.8916 916.4018,-242.9418"/>
</g>
<!-- Node19 -->
<g id="node20" class="node">
<title>Node19</title>
<polygon fill="none" stroke="#bfbfbf" points="1342,-.5 1342,-19.5 1388,-19.5 1388,-.5 1342,-.5"/>
<text text-anchor="middle" x="1365" y="-7.5" font-family="Helvetica,sans-Serif" font-size="10.00" fill="#000000">stdio.h</text>
</g>
<!-- Node18&#45;&gt;Node19 -->
<g id="edge31" class="edge">
<title>Node18&#45;&gt;Node19</title>
<path fill="none" stroke="#191970" d="M1365,-56.2977C1365,-48.3834 1365,-38.6043 1365,-30.0759"/>
<polygon fill="#191970" stroke="#191970" points="1368.5001,-29.8469 1365,-19.8469 1361.5001,-29.847 1368.5001,-29.8469"/>
</g>
</g>
</svg>
        <g id="navigator" transform="translate(0 0)" fill="#404254">
                <rect fill="#f2f5e9" fill-opacity="0.5" stroke="#606060" stroke-width=".5" x="0" y="0" width="60" height="60"/>
                <use id="zoomplus" xlink:href="#zoomPlus" x="17" y="9" onmousedown="handleZoom(evt,'in')"/>
                <use id="zoomminus" xlink:href="#zoomMin" x="42" y="9" onmousedown="handleZoom(evt,'out')"/>
                <use id="reset" xlink:href="#resetDef" x="30" y="36" onmousedown="handleReset()"/>
                <g id="arrowUp" xlink:href="#dirArrow" transform="translate(30 24)" onmousedown="handlePan(0,-1)">
                  <use xlink:href="#rim" fill="#404040">
                        <set attributeName="fill" to="#808080" begin="arrowUp.mouseover" end="arrowUp.mouseout"/>
                  </use>
                  <path fill="none" stroke="white" stroke-width="1.5" d="M0,-3.0v7 M-2.5,-0.5L0,-3.0L2.5,-0.5"/>
                </g>
                <g id="arrowRight" xlink:href="#dirArrow" transform="rotate(90) translate(36 -43)" onmousedown="handlePan(1,0)">
                  <use xlink:href="#rim" fill="#404040">
                        <set attributeName="fill" to="#808080" begin="arrowRight.mouseover" end="arrowRight.mouseout"/>
                  </use>
                  <path fill="none" stroke="white" stroke-width="1.5" d="M0,-3.0v7 M-2.5,-0.5L0,-3.0L2.5,-0.5"/>
                </g>
                <g id="arrowDown" xlink:href="#dirArrow" transform="rotate(180) translate(-30 -48)" onmousedown="handlePan(0,1)">
                  <use xlink:href="#rim" fill="#404040">
                        <set attributeName="fill" to="#808080" begin="arrowDown.mouseover" end="arrowDown.mouseout"/>
                  </use>
                  <path fill="none" stroke="white" stroke-width="1.5" d="M0,-3.0v7 M-2.5,-0.5L0,-3.0L2.5,-0.5"/>
                </g>
                <g id="arrowLeft" xlink:href="#dirArrow" transform="rotate(270) translate(-36 17)" onmousedown="handlePan(-1,0)">
                  <use xlink:href="#rim" fill="#404040">
                        <set attributeName="fill" to="#808080" begin="arrowLeft.mouseover" end="arrowLeft.mouseout"/>
                  </use>
                  <path fill="none" stroke="white" stroke-width="1.5" d="M0,-3.0v7 M-2.5,-0.5L0,-3.0L2.5,-0.5"/>
                </g>
        </g>
        <svg viewBox="0 0 15 15" width="100%" height="30px" preserveAspectRatio="xMaxYMin meet">
         <g id="arrow_out" transform="scale(0.3 0.3)">
          <a xlink:href="plot__layouts_8h__incl_org.svg" target="_base">
           <rect id="button" ry="5" rx="5" y="6" x="6" height="38" width="38"
                fill="#f2f5e9" fill-opacity="0.5" stroke="#606060" stroke-width="1.0"/>
           <path id="arrow"
             d="M 11.500037,31.436501 C 11.940474,20.09759 22.043105,11.32322 32.158766,21.979434 L 37.068811,17.246167 C 37.068811,17.246167 37.088388,32 37.088388,32 L 22.160133,31.978069 C 22.160133,31.978069 26.997745,27.140456 26.997745,27.140456 C 18.528582,18.264221 13.291696,25.230495 11.500037,31.436501 z"
             style="fill:#404040;"/>
          </a>
         </g>
        </svg>
</svg>
