<?xml version="1.0" encoding="UTF-8" standalone="no"?>
<!DOCTYPE svg PUBLIC "-//W3C//DTD SVG 1.1//EN"
 "http://www.w3.org/Graphics/SVG/1.1/DTD/svg11.dtd">
<!-- Generated by graphviz version 2.40.1 (20161225.0304)
 -->
<!-- Title: ViennaRNA/plot_structure.h Pages: 1 -->
<svg width="1448pt" height="386pt"
 viewBox="0.00 0.00 1448.00 386.00" xmlns="http://www.w3.org/2000/svg" xmlns:xlink="http://www.w3.org/1999/xlink">
<g id="graph0" class="graph" transform="scale(1 1) rotate(0) translate(4 382)">
<title>ViennaRNA/plot_structure.h</title>
<!-- Node0 -->
<g id="node1" class="node">
<title>Node0</title>
<polygon fill="#bfbfbf" stroke="#000000" points="259.5,-358.5 259.5,-377.5 398.5,-377.5 398.5,-358.5 259.5,-358.5"/>
<text text-anchor="middle" x="329" y="-365.5" font-family="Helvetica,sans-Serif" font-size="10.00" fill="#000000">ViennaRNA/plot_structure.h</text>
</g>
<!-- Node1 -->
<g id="node2" class="node">
<title>Node1</title>
<g id="a_node2"><a xlink:href="model_8h.html" target="_top" xlink:title="The model details data structure and its corresponding modifiers. ">
<polygon fill="none" stroke="#000000" points="148,-62 148,-81 254,-81 254,-62 148,-62"/>
<text text-anchor="middle" x="201" y="-69" font-family="Helvetica,sans-Serif" font-size="10.00" fill="#000000">ViennaRNA/model.h</text>
</a>
</g>
</g>
<!-- Node0&#45;&gt;Node1 -->
<g id="edge1" class="edge">
<title>Node0&#45;&gt;Node1</title>
<path fill="none" stroke="#191970" d="M259.2276,-358.6057C162.6526,-343.6137 0,-310.3033 0,-256 0,-256 0,-256 0,-200 0,-160.136 14.9162,-147.9586 46,-123 72.2218,-101.9452 107.4129,-89.3457 137.6356,-81.8861"/>
<polygon fill="#191970" stroke="#191970" points="138.7288,-85.2253 147.6744,-79.5486 137.1412,-78.4076 138.7288,-85.2253"/>
</g>
<!-- Node2 -->
<g id="node3" class="node">
<title>Node2</title>
<g id="a_node3"><a xlink:href="plot__layouts_8h.html" target="_top" xlink:title="Secondary structure plot layout algorithms. ">
<polygon fill="none" stroke="#000000" points="447,-302.5 447,-321.5 579,-321.5 579,-302.5 447,-302.5"/>
<text text-anchor="middle" x="513" y="-309.5" font-family="Helvetica,sans-Serif" font-size="10.00" fill="#000000">ViennaRNA/plot_layouts.h</text>
</a>
</g>
</g>
<!-- Node0&#45;&gt;Node2 -->
<g id="edge2" class="edge">
<title>Node0&#45;&gt;Node2</title>
<path fill="none" stroke="#191970" d="M360.6307,-358.3733C391.3596,-349.021 438.176,-334.7725 471.8022,-324.5385"/>
<polygon fill="#191970" stroke="#191970" points="473.2344,-327.7612 481.782,-321.5011 471.1962,-321.0644 473.2344,-327.7612"/>
</g>
<!-- Node3 -->
<g id="node4" class="node">
<title>Node3</title>
<g id="a_node4"><a xlink:href="data__structures_8h.html" target="_top" xlink:title="Various data structures and pre&#45;processor macros. ">
<polygon fill="none" stroke="#000000" points="751.5,-246.5 751.5,-265.5 898.5,-265.5 898.5,-246.5 751.5,-246.5"/>
<text text-anchor="middle" x="825" y="-253.5" font-family="Helvetica,sans-Serif" font-size="10.00" fill="#000000">ViennaRNA/data_structures.h</text>
</a>
</g>
</g>
<!-- Node2&#45;&gt;Node3 -->
<g id="edge3" class="edge">
<title>Node2&#45;&gt;Node3</title>
<path fill="none" stroke="#191970" d="M566.2802,-302.4369C620.4618,-292.712 704.4031,-277.6456 761.8841,-267.3285"/>
<polygon fill="#191970" stroke="#191970" points="762.7152,-270.7353 771.9395,-265.5237 761.4785,-263.8454 762.7152,-270.7353"/>
</g>
<!-- Node21 -->
<g id="node22" class="node">
<title>Node21</title>
<g id="a_node22"><a xlink:href="naview_8h.html" target="_top" xlink:title="ViennaRNA/naview.h">
<polygon fill="none" stroke="#000000" points="458,-246.5 458,-265.5 568,-265.5 568,-246.5 458,-246.5"/>
<text text-anchor="middle" x="513" y="-253.5" font-family="Helvetica,sans-Serif" font-size="10.00" fill="#000000">ViennaRNA/naview.h</text>
</a>
</g>
</g>
<!-- Node2&#45;&gt;Node21 -->
<g id="edge43" class="edge">
<title>Node2&#45;&gt;Node21</title>
<path fill="none" stroke="#191970" d="M513,-302.2455C513,-294.9382 513,-284.6944 513,-275.7046"/>
<polygon fill="#191970" stroke="#191970" points="516.5001,-275.6426 513,-265.6427 509.5001,-275.6427 516.5001,-275.6426"/>
</g>
<!-- Node3&#45;&gt;Node1 -->
<g id="edge35" class="edge">
<title>Node3&#45;&gt;Node1</title>
<path fill="none" stroke="#191970" d="M751.2472,-251.8325C567.4765,-240.6767 100.766,-207.3117 57,-154 28.4037,-119.1667 88.513,-96.1003 139.6036,-83.4259"/>
<polygon fill="#191970" stroke="#191970" points="140.4273,-86.8277 149.3433,-81.1045 138.8043,-80.0185 140.4273,-86.8277"/>
</g>
<!-- Node4 -->
<g id="node5" class="node">
<title>Node4</title>
<g id="a_node5"><a xlink:href="energy__const_8h.html" target="_top" xlink:title="Energy parameter constants. ">
<polygon fill="none" stroke="#000000" points="484,-62 484,-81 622,-81 622,-62 484,-62"/>
<text text-anchor="middle" x="553" y="-69" font-family="Helvetica,sans-Serif" font-size="10.00" fill="#000000">ViennaRNA/energy_const.h</text>
</a>
</g>
</g>
<!-- Node3&#45;&gt;Node4 -->
<g id="edge4" class="edge">
<title>Node3&#45;&gt;Node4</title>
<path fill="none" stroke="#191970" d="M825.3469,-246.2825C825.6583,-221.7219 822.8669,-156.7206 787,-123 783.7165,-119.913 677.5825,-97.3921 609.3946,-83.1723"/>
<polygon fill="#191970" stroke="#191970" points="609.716,-79.6642 599.2124,-81.0518 608.2887,-86.5172 609.716,-79.6642"/>
</g>
<!-- Node6 -->
<g id="node7" class="node">
<title>Node6</title>
<g id="a_node7"><a xlink:href="fold__compound_8h.html" target="_top" xlink:title="The Basic Fold Compound API. ">
<polygon fill="none" stroke="#000000" points="517,-190.5 517,-209.5 663,-209.5 663,-190.5 517,-190.5"/>
<text text-anchor="middle" x="590" y="-197.5" font-family="Helvetica,sans-Serif" font-size="10.00" fill="#000000">ViennaRNA/fold_compound.h</text>
</a>
</g>
</g>
<!-- Node3&#45;&gt;Node6 -->
<g id="edge6" class="edge">
<title>Node3&#45;&gt;Node6</title>
<path fill="none" stroke="#191970" d="M784.8691,-246.4369C744.7351,-236.8731 682.9225,-222.1432 639.7067,-211.845"/>
<polygon fill="#191970" stroke="#191970" points="640.5044,-208.4372 629.9654,-209.5237 638.8817,-215.2465 640.5044,-208.4372"/>
</g>
<!-- Node7 -->
<g id="node8" class="node">
<title>Node7</title>
<g id="a_node8"><a xlink:href="params_8h.html" target="_top" xlink:title="Functions to deal with sets of energy parameters. ">
<polygon fill="none" stroke="#000000" points="666,-129 666,-148 778,-148 778,-129 666,-129"/>
<text text-anchor="middle" x="722" y="-136" font-family="Helvetica,sans-Serif" font-size="10.00" fill="#000000">ViennaRNA/params.h</text>
</a>
</g>
</g>
<!-- Node3&#45;&gt;Node7 -->
<g id="edge36" class="edge">
<title>Node3&#45;&gt;Node7</title>
<path fill="none" stroke="#191970" d="M812.6593,-246.3845C792.0938,-226.761 752.3314,-181.8274 732.8129,-156.5772"/>
<polygon fill="#191970" stroke="#191970" points="735.3906,-154.1786 726.6109,-148.2484 729.7762,-158.3593 735.3906,-154.1786"/>
</g>
<!-- Node9 -->
<g id="node10" class="node">
<title>Node9</title>
<g id="a_node10"><a xlink:href="dp__matrices_8h.html" target="_top" xlink:title="Functions to deal with standard dynamic programming (DP) matrices. ">
<polygon fill="none" stroke="#000000" points="66.5,-129 66.5,-148 199.5,-148 199.5,-129 66.5,-129"/>
<text text-anchor="middle" x="133" y="-136" font-family="Helvetica,sans-Serif" font-size="10.00" fill="#000000">ViennaRNA/dp_matrices.h</text>
</a>
</g>
</g>
<!-- Node3&#45;&gt;Node9 -->
<g id="edge37" class="edge">
<title>Node3&#45;&gt;Node9</title>
<path fill="none" stroke="#191970" d="M751.4235,-250.493C670.7301,-243.5278 537.9028,-229.9813 425,-210 333.1371,-193.7423 227.3689,-166.6321 171.662,-150.8795"/>
<polygon fill="#191970" stroke="#191970" points="172.4345,-147.4601 161.8576,-148.0755 170.5097,-154.1903 172.4345,-147.4601"/>
</g>
<!-- Node10 -->
<g id="node11" class="node">
<title>Node10</title>
<g id="a_node11"><a xlink:href="constraints_8h.html" target="_top" xlink:title="Functions and data structures for constraining secondary structure predictions and evaluation...">
<polygon fill="none" stroke="#000000" points="910,-129 910,-148 1038,-148 1038,-129 910,-129"/>
<text text-anchor="middle" x="974" y="-136" font-family="Helvetica,sans-Serif" font-size="10.00" fill="#000000">ViennaRNA/constraints.h</text>
</a>
</g>
</g>
<!-- Node3&#45;&gt;Node10 -->
<g id="edge38" class="edge">
<title>Node3&#45;&gt;Node10</title>
<path fill="none" stroke="#191970" d="M834.7737,-246.1561C847.6226,-237.3154 869.342,-223.6598 887,-210 909.6011,-192.5164 933.5335,-169.8824 950.8542,-154.8115"/>
<polygon fill="#191970" stroke="#191970" points="953.4311,-157.2152 958.7912,-148.0763 948.9019,-151.8779 953.4311,-157.2152"/>
</g>
<!-- Node16 -->
<g id="node17" class="node">
<title>Node16</title>
<g id="a_node17"><a xlink:href="grammar_8h.html" target="_top" xlink:title="Implementations for the RNA folding grammar. ">
<polygon fill="none" stroke="#000000" points="218,-129 218,-148 336,-148 336,-129 218,-129"/>
<text text-anchor="middle" x="277" y="-136" font-family="Helvetica,sans-Serif" font-size="10.00" fill="#000000">ViennaRNA/grammar.h</text>
</a>
</g>
</g>
<!-- Node3&#45;&gt;Node16 -->
<g id="edge39" class="edge">
<title>Node3&#45;&gt;Node16</title>
<path fill="none" stroke="#191970" d="M751.3644,-249.3808C684.7339,-242.2612 584.4354,-229.2969 499,-210 428.8655,-194.1591 349.1807,-167.5113 306.8109,-151.607"/>
<polygon fill="#191970" stroke="#191970" points="307.9549,-148.2974 297.3643,-148.0001 305.458,-154.8369 307.9549,-148.2974"/>
</g>
<!-- Node17 -->
<g id="node18" class="node">
<title>Node17</title>
<g id="a_node18"><a xlink:href="structured__domains_8h.html" target="_top" xlink:title="This module provides interfaces that deal with additional structured domains in the folding grammar...">
<polygon fill="none" stroke="#000000" points="532.5,-123.5 532.5,-153.5 647.5,-153.5 647.5,-123.5 532.5,-123.5"/>
<text text-anchor="start" x="540.5" y="-141.5" font-family="Helvetica,sans-Serif" font-size="10.00" fill="#000000">ViennaRNA/structured</text>
<text text-anchor="middle" x="590" y="-130.5" font-family="Helvetica,sans-Serif" font-size="10.00" fill="#000000">_domains.h</text>
</a>
</g>
</g>
<!-- Node3&#45;&gt;Node17 -->
<g id="edge40" class="edge">
<title>Node3&#45;&gt;Node17</title>
<path fill="none" stroke="#191970" d="M805.769,-246.3845C767.2769,-227.1384 680.0933,-183.5467 629.1116,-158.0558"/>
<polygon fill="#191970" stroke="#191970" points="630.5429,-154.8584 620.0334,-153.5167 627.4124,-161.1194 630.5429,-154.8584"/>
</g>
<!-- Node18 -->
<g id="node19" class="node">
<title>Node18</title>
<g id="a_node19"><a xlink:href="unstructured__domains_8h.html" target="_top" xlink:title="Functions to modify unstructured domains, e.g. to incorporate ligands binding to unpaired stretches...">
<polygon fill="none" stroke="#000000" points="1170.5,-123.5 1170.5,-153.5 1295.5,-153.5 1295.5,-123.5 1170.5,-123.5"/>
<text text-anchor="start" x="1178.5" y="-141.5" font-family="Helvetica,sans-Serif" font-size="10.00" fill="#000000">ViennaRNA/unstructured</text>
<text text-anchor="middle" x="1233" y="-130.5" font-family="Helvetica,sans-Serif" font-size="10.00" fill="#000000">_domains.h</text>
</a>
</g>
</g>
<!-- Node3&#45;&gt;Node18 -->
<g id="edge41" class="edge">
<title>Node3&#45;&gt;Node18</title>
<path fill="none" stroke="#191970" d="M898.865,-250.3835C979.8901,-243.583 1103.9572,-230.434 1147,-210 1170.6511,-198.772 1191.9839,-177.6619 1207.7503,-161.2784"/>
<polygon fill="#191970" stroke="#191970" points="1210.6393,-163.3221 1215.0287,-153.6793 1205.584,-158.4801 1210.6393,-163.3221"/>
</g>
<!-- Node19 -->
<g id="node20" class="node">
<title>Node19</title>
<g id="a_node20"><a xlink:href="structure__utils_8h.html" target="_top" xlink:title="Various utility&#45; and helper&#45;functions for secondary structure parsing, converting, etc. ">
<polygon fill="none" stroke="#000000" points="1330,-56.5 1330,-86.5 1440,-86.5 1440,-56.5 1330,-56.5"/>
<text text-anchor="start" x="1338" y="-74.5" font-family="Helvetica,sans-Serif" font-size="10.00" fill="#000000">ViennaRNA/structure</text>
<text text-anchor="middle" x="1385" y="-63.5" font-family="Helvetica,sans-Serif" font-size="10.00" fill="#000000">_utils.h</text>
</a>
</g>
</g>
<!-- Node3&#45;&gt;Node19 -->
<g id="edge42" class="edge">
<title>Node3&#45;&gt;Node19</title>
<path fill="none" stroke="#191970" d="M898.7697,-249.1726C987.8054,-240.8075 1131.8512,-225.7894 1184,-210 1237.2653,-193.8726 1251.1034,-186.8873 1296,-154 1319.588,-136.7215 1342.3873,-112.1883 1359.259,-94.3694"/>
<polygon fill="#191970" stroke="#191970" points="1362.202,-96.3551 1366.5752,-86.7049 1357.1386,-91.5217 1362.202,-96.3551"/>
</g>
<!-- Node5 -->
<g id="node6" class="node">
<title>Node5</title>
<polygon fill="none" stroke="#bfbfbf" points="529,-.5 529,-19.5 577,-19.5 577,-.5 529,-.5"/>
<text text-anchor="middle" x="553" y="-7.5" font-family="Helvetica,sans-Serif" font-size="10.00" fill="#000000">limits.h</text>
</g>
<!-- Node4&#45;&gt;Node5 -->
<g id="edge5" class="edge">
<title>Node4&#45;&gt;Node5</title>
<path fill="none" stroke="#191970" d="M553,-61.8906C553,-53.3657 553,-40.6392 553,-29.9235"/>
<polygon fill="#191970" stroke="#191970" points="556.5001,-29.7448 553,-19.7449 549.5001,-29.7449 556.5001,-29.7448"/>
</g>
<!-- Node6&#45;&gt;Node1 -->
<g id="edge7" class="edge">
<title>Node6&#45;&gt;Node1</title>
<path fill="none" stroke="#191970" d="M516.8494,-192.1938C475.9389,-185.7886 424.9037,-174.3184 383,-154 363.388,-144.4905 363.9808,-133.714 345,-123 314.4927,-105.7797 277.1802,-92.6297 248.1814,-83.9288"/>
<polygon fill="#191970" stroke="#191970" points="248.8761,-80.4854 238.2957,-81.0373 246.911,-87.2039 248.8761,-80.4854"/>
</g>
<!-- Node6&#45;&gt;Node7 -->
<g id="edge8" class="edge">
<title>Node6&#45;&gt;Node7</title>
<path fill="none" stroke="#191970" d="M610.625,-190.3906C632.5173,-180.1908 667.3193,-163.9763 692.1927,-152.3875"/>
<polygon fill="#191970" stroke="#191970" points="693.9335,-155.4377 701.5198,-148.0419 690.9772,-149.0926 693.9335,-155.4377"/>
</g>
<!-- Node8 -->
<g id="node9" class="node">
<title>Node8</title>
<g id="a_node9"><a xlink:href="sequence_8h.html" target="_top" xlink:title="Functions and data structures related to sequence representations. ">
<polygon fill="none" stroke="#000000" points="392,-129 392,-148 514,-148 514,-129 392,-129"/>
<text text-anchor="middle" x="453" y="-136" font-family="Helvetica,sans-Serif" font-size="10.00" fill="#000000">ViennaRNA/sequence.h</text>
</a>
</g>
</g>
<!-- Node6&#45;&gt;Node8 -->
<g id="edge12" class="edge">
<title>Node6&#45;&gt;Node8</title>
<path fill="none" stroke="#191970" d="M568.5938,-190.3906C545.7717,-180.1457 509.4321,-163.8326 483.5943,-152.2339"/>
<polygon fill="#191970" stroke="#191970" points="484.8123,-148.9443 474.2559,-148.0419 481.9455,-155.3303 484.8123,-148.9443"/>
</g>
<!-- Node6&#45;&gt;Node9 -->
<g id="edge13" class="edge">
<title>Node6&#45;&gt;Node9</title>
<path fill="none" stroke="#191970" d="M516.7122,-192.9328C439.8155,-185.1015 315.5443,-171.2674 209,-154 201.7804,-152.8299 194.2034,-151.4587 186.7456,-150.0243"/>
<polygon fill="#191970" stroke="#191970" points="187.1827,-146.5431 176.6944,-148.0421 185.8282,-153.4109 187.1827,-146.5431"/>
</g>
<!-- Node6&#45;&gt;Node10 -->
<g id="edge15" class="edge">
<title>Node6&#45;&gt;Node10</title>
<path fill="none" stroke="#191970" d="M649.5787,-190.4581C718.4889,-179.4217 831.7709,-161.2789 904.5985,-149.6151"/>
<polygon fill="#191970" stroke="#191970" points="905.2769,-153.0511 914.5975,-148.0137 904.1698,-146.1392 905.2769,-153.0511"/>
</g>
<!-- Node6&#45;&gt;Node16 -->
<g id="edge27" class="edge">
<title>Node6&#45;&gt;Node16</title>
<path fill="none" stroke="#191970" d="M538.4435,-190.4245C489.8032,-181.3182 414.8731,-167.1029 350,-154 343.9161,-152.7712 337.5527,-151.4595 331.2277,-150.1389"/>
<polygon fill="#191970" stroke="#191970" points="331.8714,-146.6978 321.3654,-148.0672 330.4322,-153.5483 331.8714,-146.6978"/>
</g>
<!-- Node6&#45;&gt;Node17 -->
<g id="edge29" class="edge">
<title>Node6&#45;&gt;Node17</title>
<path fill="none" stroke="#191970" d="M590,-190.3906C590,-183.2234 590,-173.0862 590,-163.671"/>
<polygon fill="#191970" stroke="#191970" points="593.5001,-163.5446 590,-153.5446 586.5001,-163.5446 593.5001,-163.5446"/>
</g>
<!-- Node6&#45;&gt;Node18 -->
<g id="edge30" class="edge">
<title>Node6&#45;&gt;Node18</title>
<path fill="none" stroke="#191970" d="M663.1343,-193.005C787.0359,-181.1544 1036.7707,-157.2684 1160.3462,-145.449"/>
<polygon fill="#191970" stroke="#191970" points="1160.8422,-148.9176 1170.4635,-144.4813 1160.1757,-141.9494 1160.8422,-148.9176"/>
</g>
<!-- Node7&#45;&gt;Node1 -->
<g id="edge11" class="edge">
<title>Node7&#45;&gt;Node1</title>
<path fill="none" stroke="#191970" d="M685.3804,-128.9445C676.1623,-126.7668 666.2562,-124.6201 657,-123 517.9133,-98.6555 352.8493,-83.3352 264.4413,-76.2122"/>
<polygon fill="#191970" stroke="#191970" points="264.5534,-72.7101 254.3069,-75.4046 263.9973,-79.688 264.5534,-72.7101"/>
</g>
<!-- Node7&#45;&gt;Node3 -->
<g id="edge10" class="edge">
<title>Node7&#45;&gt;Node3</title>
<path fill="none" stroke="#191970" d="M734.4799,-148.2484C755.1315,-167.9856 794.8914,-212.9315 814.3185,-238.093"/>
<polygon fill="#191970" stroke="#191970" points="811.7077,-240.4475 820.4829,-246.3845 817.3253,-236.2711 811.7077,-240.4475"/>
</g>
<!-- Node7&#45;&gt;Node4 -->
<g id="edge9" class="edge">
<title>Node7&#45;&gt;Node4</title>
<path fill="none" stroke="#191970" d="M697.7864,-128.9005C668.6714,-117.3579 619.6322,-97.9163 586.7982,-84.8993"/>
<polygon fill="#191970" stroke="#191970" points="587.7547,-81.5135 577.1687,-81.0817 585.1748,-88.0208 587.7547,-81.5135"/>
</g>
<!-- Node9&#45;&gt;Node3 -->
<g id="edge14" class="edge">
<title>Node9&#45;&gt;Node3</title>
<path fill="none" stroke="#191970" d="M173.1194,-148.0755C232.1488,-163.2153 345.4195,-192.7304 443,-210 545.0934,-228.0682 663.4787,-240.8749 741.1314,-248.3116"/>
<polygon fill="#191970" stroke="#191970" points="741.0532,-251.8198 751.3393,-249.2807 741.7149,-244.8511 741.0532,-251.8198"/>
</g>
<!-- Node10&#45;&gt;Node3 -->
<g id="edge16" class="edge">
<title>Node10&#45;&gt;Node3</title>
<path fill="none" stroke="#191970" d="M970.245,-148.3138C959.0911,-162.6386 931.1542,-189.7678 905,-210 890.2808,-221.3864 872.7395,-232.7699 857.6841,-241.3642"/>
<polygon fill="#191970" stroke="#191970" points="855.7455,-238.4363 848.6787,-246.33 859.1257,-244.5661 855.7455,-238.4363"/>
</g>
<!-- Node11 -->
<g id="node12" class="node">
<title>Node11</title>
<g id="a_node12"><a xlink:href="constraints__hard_8h.html" target="_top" xlink:title="Functions and data structures for handling of secondary structure hard constraints. ">
<polygon fill="none" stroke="#000000" points="640.5,-56.5 640.5,-86.5 759.5,-86.5 759.5,-56.5 640.5,-56.5"/>
<text text-anchor="start" x="648.5" y="-74.5" font-family="Helvetica,sans-Serif" font-size="10.00" fill="#000000">ViennaRNA/constraints</text>
<text text-anchor="middle" x="700" y="-63.5" font-family="Helvetica,sans-Serif" font-size="10.00" fill="#000000">_hard.h</text>
</a>
</g>
</g>
<!-- Node10&#45;&gt;Node11 -->
<g id="edge17" class="edge">
<title>Node10&#45;&gt;Node11</title>
<path fill="none" stroke="#191970" d="M935.0335,-128.9717C892.0744,-118.4671 822.1089,-101.3588 769.6649,-88.5348"/>
<polygon fill="#191970" stroke="#191970" points="770.3004,-85.0872 759.7552,-86.1117 768.6377,-91.8869 770.3004,-85.0872"/>
</g>
<!-- Node12 -->
<g id="node13" class="node">
<title>Node12</title>
<g id="a_node13"><a xlink:href="constraints__soft_8h.html" target="_top" xlink:title="Functions and data structures for secondary structure soft constraints. ">
<polygon fill="none" stroke="#000000" points="777.5,-56.5 777.5,-86.5 896.5,-86.5 896.5,-56.5 777.5,-56.5"/>
<text text-anchor="start" x="785.5" y="-74.5" font-family="Helvetica,sans-Serif" font-size="10.00" fill="#000000">ViennaRNA/constraints</text>
<text text-anchor="middle" x="837" y="-63.5" font-family="Helvetica,sans-Serif" font-size="10.00" fill="#000000">_soft.h</text>
</a>
</g>
</g>
<!-- Node10&#45;&gt;Node12 -->
<g id="edge19" class="edge">
<title>Node10&#45;&gt;Node12</title>
<path fill="none" stroke="#191970" d="M954.3712,-128.9005C934.2073,-119.0393 902.2546,-103.4128 876.7762,-90.9526"/>
<polygon fill="#191970" stroke="#191970" points="878.2371,-87.7709 867.7161,-86.5218 875.1618,-94.0592 878.2371,-87.7709"/>
</g>
<!-- Node13 -->
<g id="node14" class="node">
<title>Node13</title>
<g id="a_node14"><a xlink:href="constraints__SHAPE_8h.html" target="_top" xlink:title="This module provides function to incorporate SHAPE reactivity data into the folding recursions by mea...">
<polygon fill="none" stroke="#000000" points="914.5,-56.5 914.5,-86.5 1033.5,-86.5 1033.5,-56.5 914.5,-56.5"/>
<text text-anchor="start" x="922.5" y="-74.5" font-family="Helvetica,sans-Serif" font-size="10.00" fill="#000000">ViennaRNA/constraints</text>
<text text-anchor="middle" x="974" y="-63.5" font-family="Helvetica,sans-Serif" font-size="10.00" fill="#000000">_SHAPE.h</text>
</a>
</g>
</g>
<!-- Node10&#45;&gt;Node13 -->
<g id="edge21" class="edge">
<title>Node10&#45;&gt;Node13</title>
<path fill="none" stroke="#191970" d="M974,-128.9005C974,-120.5099 974,-107.9451 974,-96.7085"/>
<polygon fill="#191970" stroke="#191970" points="977.5001,-96.5217 974,-86.5218 970.5001,-96.5218 977.5001,-96.5217"/>
</g>
<!-- Node14 -->
<g id="node15" class="node">
<title>Node14</title>
<g id="a_node15"><a xlink:href="perturbation__fold_8h.html" target="_top" xlink:title="Find a vector of perturbation energies that minimizes the discripancies between predicted and observe...">
<polygon fill="none" stroke="#000000" points="1052,-56.5 1052,-86.5 1174,-86.5 1174,-56.5 1052,-56.5"/>
<text text-anchor="start" x="1060" y="-74.5" font-family="Helvetica,sans-Serif" font-size="10.00" fill="#000000">ViennaRNA/perturbation</text>
<text text-anchor="middle" x="1113" y="-63.5" font-family="Helvetica,sans-Serif" font-size="10.00" fill="#000000">_fold.h</text>
</a>
</g>
</g>
<!-- Node10&#45;&gt;Node14 -->
<g id="edge23" class="edge">
<title>Node10&#45;&gt;Node14</title>
<path fill="none" stroke="#191970" d="M993.9153,-128.9005C1014.3736,-119.0393 1046.7928,-103.4128 1072.6432,-90.9526"/>
<polygon fill="#191970" stroke="#191970" points="1074.347,-94.0167 1081.8354,-86.5218 1071.3076,-87.711 1074.347,-94.0167"/>
</g>
<!-- Node15 -->
<g id="node16" class="node">
<title>Node15</title>
<g id="a_node16"><a xlink:href="constraints__ligand_8h.html" target="_top" xlink:title="Functions for incorporation of ligands binding to hairpin and interior loop motifs using the soft con...">
<polygon fill="none" stroke="#000000" points="1192.5,-56.5 1192.5,-86.5 1311.5,-86.5 1311.5,-56.5 1192.5,-56.5"/>
<text text-anchor="start" x="1200.5" y="-74.5" font-family="Helvetica,sans-Serif" font-size="10.00" fill="#000000">ViennaRNA/constraints</text>
<text text-anchor="middle" x="1252" y="-63.5" font-family="Helvetica,sans-Serif" font-size="10.00" fill="#000000">_ligand.h</text>
</a>
</g>
</g>
<!-- Node10&#45;&gt;Node15 -->
<g id="edge25" class="edge">
<title>Node10&#45;&gt;Node15</title>
<path fill="none" stroke="#191970" d="M1013.5354,-128.9717C1057.4945,-118.3772 1129.325,-101.0656 1182.6797,-88.2067"/>
<polygon fill="#191970" stroke="#191970" points="1183.5148,-91.6057 1192.4163,-85.8601 1181.8746,-84.8006 1183.5148,-91.6057"/>
</g>
<!-- Node11&#45;&gt;Node3 -->
<g id="edge18" class="edge">
<title>Node11&#45;&gt;Node3</title>
<path fill="none" stroke="#191970" d="M748.9555,-86.572C778.1991,-96.6502 811.3085,-110.3362 820,-123 843.4324,-157.1419 836.5078,-208.6602 830.2452,-236.4948"/>
<polygon fill="#191970" stroke="#191970" points="826.84,-235.6857 827.8589,-246.2314 833.6388,-237.3521 826.84,-235.6857"/>
</g>
<!-- Node12&#45;&gt;Node3 -->
<g id="edge20" class="edge">
<title>Node12&#45;&gt;Node3</title>
<path fill="none" stroke="#191970" d="M845.0663,-86.7899C849.8738,-96.7879 855.5108,-110.303 858,-123 865.4389,-160.9444 869.838,-173.19 858,-210 854.6054,-220.5555 847.7942,-230.7408 841.2369,-238.8324"/>
<polygon fill="#191970" stroke="#191970" points="838.553,-236.5851 834.6492,-246.4346 843.8431,-241.1693 838.553,-236.5851"/>
</g>
<!-- Node13&#45;&gt;Node3 -->
<g id="edge22" class="edge">
<title>Node13&#45;&gt;Node3</title>
<path fill="none" stroke="#191970" d="M1008.1893,-86.5289C1022.9558,-94.955 1038.7206,-107.0266 1047,-123 1053.3403,-135.2322 1054.3442,-142.3428 1047,-154 1014.4494,-205.6668 948.2968,-231.4806 896.632,-244.1791"/>
<polygon fill="#191970" stroke="#191970" points="895.774,-240.7852 886.8361,-246.4743 897.3709,-247.6007 895.774,-240.7852"/>
</g>
<!-- Node14&#45;&gt;Node3 -->
<g id="edge24" class="edge">
<title>Node14&#45;&gt;Node3</title>
<path fill="none" stroke="#191970" d="M1106.9234,-86.7226C1094.3177,-116.111 1062.3208,-180.3717 1013,-210 981.5406,-228.8985 942.7053,-240.0443 908.5138,-246.6126"/>
<polygon fill="#191970" stroke="#191970" points="907.7482,-243.1944 898.5357,-248.427 909.0006,-250.0814 907.7482,-243.1944"/>
</g>
<!-- Node15&#45;&gt;Node3 -->
<g id="edge26" class="edge">
<title>Node15&#45;&gt;Node3</title>
<path fill="none" stroke="#191970" d="M1224.0026,-86.5769C1206.0209,-96.4899 1182.3143,-109.9904 1162,-123 1105.9179,-158.9159 1100.9407,-183.1412 1040,-210 998.6963,-228.2041 949.6767,-239.4055 908.8822,-246.1894"/>
<polygon fill="#191970" stroke="#191970" points="908.2879,-242.7399 898.968,-247.7788 909.396,-249.6516 908.2879,-242.7399"/>
</g>
<!-- Node16&#45;&gt;Node3 -->
<g id="edge28" class="edge">
<title>Node16&#45;&gt;Node3</title>
<path fill="none" stroke="#191970" d="M308.5712,-148.0001C354.3429,-163.1692 441.2429,-192.8891 517,-210 592.1493,-226.9736 678.7983,-239.0477 741.0662,-246.5543"/>
<polygon fill="#191970" stroke="#191970" points="740.8888,-250.0578 751.2327,-247.7655 741.717,-243.107 740.8888,-250.0578"/>
</g>
<!-- Node18&#45;&gt;Node3 -->
<g id="edge31" class="edge">
<title>Node18&#45;&gt;Node3</title>
<path fill="none" stroke="#191970" d="M1228.0318,-153.6793C1216.9034,-170.4885 1192.5213,-196.9346 1165,-210 1121.3909,-230.7028 994.6112,-243.9278 908.7451,-250.6486"/>
<polygon fill="#191970" stroke="#191970" points="908.4486,-247.161 898.7459,-251.4164 908.9846,-254.1405 908.4486,-247.161"/>
</g>
<!-- Node18&#45;&gt;Node19 -->
<g id="edge32" class="edge">
<title>Node18&#45;&gt;Node19</title>
<path fill="none" stroke="#191970" d="M1267.1118,-123.4639C1289.0367,-113.7996 1317.7254,-101.154 1341.3119,-90.7572"/>
<polygon fill="#191970" stroke="#191970" points="1343.0007,-93.8379 1350.7395,-86.6017 1340.1772,-87.4325 1343.0007,-93.8379"/>
</g>
<!-- Node19&#45;&gt;Node3 -->
<g id="edge34" class="edge">
<title>Node19&#45;&gt;Node3</title>
<path fill="none" stroke="#191970" d="M1379.3966,-86.7049C1367.3524,-104.5034 1341.2005,-134.0753 1314,-154 1269.1034,-186.8873 1255.2653,-193.8726 1202,-210 1149.3063,-225.9544 1002.785,-241.1212 908.6304,-249.4326"/>
<polygon fill="#191970" stroke="#191970" points="908.211,-245.9559 898.5539,-250.3136 908.8208,-252.9293 908.211,-245.9559"/>
</g>
<!-- Node20 -->
<g id="node21" class="node">
<title>Node20</title>
<polygon fill="none" stroke="#bfbfbf" points="1362,-.5 1362,-19.5 1408,-19.5 1408,-.5 1362,-.5"/>
<text text-anchor="middle" x="1385" y="-7.5" font-family="Helvetica,sans-Serif" font-size="10.00" fill="#000000">stdio.h</text>
</g>
<!-- Node19&#45;&gt;Node20 -->
<g id="edge33" class="edge">
<title>Node19&#45;&gt;Node20</title>
<path fill="none" stroke="#191970" d="M1385,-56.2977C1385,-48.3834 1385,-38.6043 1385,-30.0759"/>
<polygon fill="#191970" stroke="#191970" points="1388.5001,-29.8469 1385,-19.8469 1381.5001,-29.847 1388.5001,-29.8469"/>
</g>
</g>
</svg>
