<?xml version="1.0" encoding="UTF-8" standalone="no"?>
<!DOCTYPE svg PUBLIC "-//W3C//DTD SVG 1.1//EN"
 "http://www.w3.org/Graphics/SVG/1.1/DTD/svg11.dtd">
<!-- Generated by graphviz version 2.40.1 (20161225.0304)
 -->
<!-- Title: ViennaRNA/PS_dot.h Pages: 1 -->
<!--zoomable 442 -->
<svg id="main" version="1.1" xmlns="http://www.w3.org/2000/svg" xmlns:xlink="http://www.w3.org/1999/xlink" xml:space="preserve" onload="init(evt)">
<style type="text/css"><![CDATA[
.edge:hover path { stroke: red; }
.edge:hover polygon { stroke: red; fill: red; }
]]></style>
<script type="text/javascript"><![CDATA[
var edges = document.getElementsByTagName('g');
if (edges && edges.length) {
  for (var i=0;i<edges.length;i++) {
    if (edges[i].id.substr(0,4)=='edge') {
      edges[i].setAttribute('class','edge');
    }
  }
}
]]></script>
        <defs>
                <circle id="rim" cx="0" cy="0" r="7"/>
                <circle id="rim2" cx="0" cy="0" r="3.5"/>
                <g id="zoomPlus">
                        <use xlink:href="#rim" fill="#404040">
                                <set attributeName="fill" to="#808080" begin="zoomplus.mouseover" end="zoomplus.mouseout"/>
                        </use>
                        <path d="M-4,0h8M0,-4v8" fill="none" stroke="white" stroke-width="1.5" pointer-events="none"/>
                </g>
                <g id="zoomMin">
                        <use xlink:href="#rim" fill="#404040">
                                <set attributeName="fill" to="#808080" begin="zoomminus.mouseover" end="zoomminus.mouseout"/>
                        </use>
                        <path d="M-4,0h8" fill="none" stroke="white" stroke-width="1.5" pointer-events="none"/>
                </g>
                <g id="dirArrow">
                        <path fill="none" stroke="white" stroke-width="1.5" d="M0,-3.0v7 M-2.5,-0.5L0,-3.0L2.5,-0.5"/>
                </g>
               <g id="resetDef">
                       <use xlink:href="#rim2" fill="#404040">
                               <set attributeName="fill" to="#808080" begin="reset.mouseover" end="reset.mouseout"/>
                       </use>
               </g>
        </defs>

<script type="text/javascript">
var viewWidth = 1648;
var viewHeight = 442;
var sectionId = 'dynsection-0';
</script>
<script xlink:href="svgpan.js"/>
<svg id="graph" class="graph">
<g id="viewport">
<title>ViennaRNA/PS_dot.h</title>
<!-- Node0 -->
<g id="node1" class="node">
<title>Node0</title>
<polygon fill="#bfbfbf" stroke="#000000" points="1393.5,-414.5 1393.5,-433.5 1505.5,-433.5 1505.5,-414.5 1393.5,-414.5"/>
<text text-anchor="middle" x="1449.5" y="-421.5" font-family="Helvetica,sans-Serif" font-size="10.00" fill="#000000">ViennaRNA/PS_dot.h</text>
</g>
<!-- Node1 -->
<g id="node2" class="node">
<title>Node1</title>
<g id="a_node2"><a xlink:href="data__structures_8h.html" target="_top" xlink:title="Various data structures and pre&#45;processor macros. ">
<polygon fill="none" stroke="#000000" points="766,-246.5 766,-265.5 913,-265.5 913,-246.5 766,-246.5"/>
<text text-anchor="middle" x="839.5" y="-253.5" font-family="Helvetica,sans-Serif" font-size="10.00" fill="#000000">ViennaRNA/data_structures.h</text>
</a>
</g>
</g>
<!-- Node0&#45;&gt;Node1 -->
<g id="edge1" class="edge">
<title>Node0&#45;&gt;Node1</title>
<path fill="none" stroke="#191970" d="M1414.956,-414.4862C1310.8571,-385.8164 1000.2195,-300.2637 884.0209,-268.2615"/>
<polygon fill="#191970" stroke="#191970" points="884.6127,-264.7942 874.0423,-265.5133 882.754,-271.543 884.6127,-264.7942"/>
</g>
<!-- Node18 -->
<g id="node19" class="node">
<title>Node18</title>
<g id="a_node19"><a xlink:href="structure__utils_8h.html" target="_top" xlink:title="Various utility&#45; and helper&#45;functions for secondary structure parsing, converting, etc. ">
<polygon fill="none" stroke="#000000" points="1396.5,-56.5 1396.5,-86.5 1506.5,-86.5 1506.5,-56.5 1396.5,-56.5"/>
<text text-anchor="start" x="1404.5" y="-74.5" font-family="Helvetica,sans-Serif" font-size="10.00" fill="#000000">ViennaRNA/structure</text>
<text text-anchor="middle" x="1451.5" y="-63.5" font-family="Helvetica,sans-Serif" font-size="10.00" fill="#000000">_utils.h</text>
</a>
</g>
</g>
<!-- Node0&#45;&gt;Node18 -->
<g id="edge41" class="edge">
<title>Node0&#45;&gt;Node18</title>
<path fill="none" stroke="#191970" d="M1456.942,-414.4319C1470.6496,-395.819 1498.5,-352.9622 1498.5,-312 1498.5,-312 1498.5,-312 1498.5,-200 1498.5,-161.6644 1479.8219,-120.5958 1466.0151,-95.4747"/>
<polygon fill="#191970" stroke="#191970" points="1468.994,-93.6326 1461.0112,-86.6666 1462.9076,-97.0903 1468.994,-93.6326"/>
</g>
<!-- Node20 -->
<g id="node21" class="node">
<title>Node20</title>
<g id="a_node21"><a xlink:href="plot__structure_8h.html" target="_top" xlink:title="Various functions for plotting RNA secondary structures. ">
<polygon fill="none" stroke="#000000" points="1331,-358.5 1331,-377.5 1470,-377.5 1470,-358.5 1331,-358.5"/>
<text text-anchor="middle" x="1400.5" y="-365.5" font-family="Helvetica,sans-Serif" font-size="10.00" fill="#000000">ViennaRNA/plot_structure.h</text>
</a>
</g>
</g>
<!-- Node0&#45;&gt;Node20 -->
<g id="edge42" class="edge">
<title>Node0&#45;&gt;Node20</title>
<path fill="none" stroke="#191970" d="M1440.9649,-414.2455C1434.0088,-406.2958 1424.0117,-394.8706 1415.6949,-385.3656"/>
<polygon fill="#191970" stroke="#191970" points="1418.1564,-382.8637 1408.9373,-377.6427 1412.8884,-387.4732 1418.1564,-382.8637"/>
</g>
<!-- Node23 -->
<g id="node24" class="node">
<title>Node23</title>
<g id="a_node24"><a xlink:href="plot__aln_8h.html" target="_top" xlink:title="Various functions for plotting Sequence / Structure Alignments. ">
<polygon fill="none" stroke="#000000" points="1527,-358.5 1527,-377.5 1640,-377.5 1640,-358.5 1527,-358.5"/>
<text text-anchor="middle" x="1583.5" y="-365.5" font-family="Helvetica,sans-Serif" font-size="10.00" fill="#000000">ViennaRNA/plot_aln.h</text>
</a>
</g>
</g>
<!-- Node0&#45;&gt;Node23 -->
<g id="edge47" class="edge">
<title>Node0&#45;&gt;Node23</title>
<path fill="none" stroke="#191970" d="M1472.5354,-414.3733C1494.2388,-405.3032 1526.9618,-391.6279 1551.255,-381.4755"/>
<polygon fill="#191970" stroke="#191970" points="1552.8881,-384.5865 1560.7652,-377.5011 1550.1889,-378.1278 1552.8881,-384.5865"/>
</g>
<!-- Node2 -->
<g id="node3" class="node">
<title>Node2</title>
<g id="a_node3"><a xlink:href="energy__const_8h.html" target="_top" xlink:title="Energy parameter constants. ">
<polygon fill="none" stroke="#000000" points="823.5,-62 823.5,-81 961.5,-81 961.5,-62 823.5,-62"/>
<text text-anchor="middle" x="892.5" y="-69" font-family="Helvetica,sans-Serif" font-size="10.00" fill="#000000">ViennaRNA/energy_const.h</text>
</a>
</g>
</g>
<!-- Node1&#45;&gt;Node2 -->
<g id="edge2" class="edge">
<title>Node1&#45;&gt;Node2</title>
<path fill="none" stroke="#191970" d="M785.8875,-246.4754C702.2211,-229.3435 555.5849,-188.8522 610.5,-123 635.881,-92.564 738.8213,-80.0655 812.9977,-74.9657"/>
<polygon fill="#191970" stroke="#191970" points="813.5123,-78.4396 823.2624,-74.2941 813.0552,-71.4545 813.5123,-78.4396"/>
</g>
<!-- Node4 -->
<g id="node5" class="node">
<title>Node4</title>
<g id="a_node5"><a xlink:href="fold__compound_8h.html" target="_top" xlink:title="The Basic Fold Compound API. ">
<polygon fill="none" stroke="#000000" points="766.5,-190.5 766.5,-209.5 912.5,-209.5 912.5,-190.5 766.5,-190.5"/>
<text text-anchor="middle" x="839.5" y="-197.5" font-family="Helvetica,sans-Serif" font-size="10.00" fill="#000000">ViennaRNA/fold_compound.h</text>
</a>
</g>
</g>
<!-- Node1&#45;&gt;Node4 -->
<g id="edge4" class="edge">
<title>Node1&#45;&gt;Node4</title>
<path fill="none" stroke="#191970" d="M839.5,-246.2455C839.5,-238.9382 839.5,-228.6944 839.5,-219.7046"/>
<polygon fill="#191970" stroke="#191970" points="843.0001,-219.6426 839.5,-209.6427 836.0001,-219.6427 843.0001,-219.6426"/>
</g>
<!-- Node5 -->
<g id="node6" class="node">
<title>Node5</title>
<g id="a_node6"><a xlink:href="model_8h.html" target="_top" xlink:title="The model details data structure and its corresponding modifiers. ">
<polygon fill="none" stroke="#000000" points="1027.5,-62 1027.5,-81 1133.5,-81 1133.5,-62 1027.5,-62"/>
<text text-anchor="middle" x="1080.5" y="-69" font-family="Helvetica,sans-Serif" font-size="10.00" fill="#000000">ViennaRNA/model.h</text>
</a>
</g>
</g>
<!-- Node1&#45;&gt;Node5 -->
<g id="edge33" class="edge">
<title>Node1&#45;&gt;Node5</title>
<path fill="none" stroke="#191970" d="M909.6506,-246.4479C1005.1022,-231.8489 1168.1084,-200.6723 1203.5,-154 1228.2713,-121.3332 1174.4746,-97.3554 1130.3682,-83.9148"/>
<polygon fill="#191970" stroke="#191970" points="1131.1458,-80.4956 1120.5653,-81.0469 1129.1802,-87.214 1131.1458,-80.4956"/>
</g>
<!-- Node6 -->
<g id="node7" class="node">
<title>Node6</title>
<g id="a_node7"><a xlink:href="params_8h.html" target="_top" xlink:title="Functions to deal with sets of energy parameters. ">
<polygon fill="none" stroke="#000000" points="930.5,-129 930.5,-148 1042.5,-148 1042.5,-129 930.5,-129"/>
<text text-anchor="middle" x="986.5" y="-136" font-family="Helvetica,sans-Serif" font-size="10.00" fill="#000000">ViennaRNA/params.h</text>
</a>
</g>
</g>
<!-- Node1&#45;&gt;Node6 -->
<g id="edge34" class="edge">
<title>Node1&#45;&gt;Node6</title>
<path fill="none" stroke="#191970" d="M853.6143,-246.3781C869.1429,-238.066 893.5959,-225.0418 912.5,-210 932.8454,-193.8114 952.38,-171.0182 966.6256,-155.5507"/>
<polygon fill="#191970" stroke="#191970" points="969.2441,-157.8755 973.5693,-148.2037 964.1567,-153.0674 969.2441,-157.8755"/>
</g>
<!-- Node8 -->
<g id="node9" class="node">
<title>Node8</title>
<g id="a_node9"><a xlink:href="dp__matrices_8h.html" target="_top" xlink:title="Functions to deal with standard dynamic programming (DP) matrices. ">
<polygon fill="none" stroke="#000000" points="1061,-129 1061,-148 1194,-148 1194,-129 1061,-129"/>
<text text-anchor="middle" x="1127.5" y="-136" font-family="Helvetica,sans-Serif" font-size="10.00" fill="#000000">ViennaRNA/dp_matrices.h</text>
</a>
</g>
</g>
<!-- Node1&#45;&gt;Node8 -->
<g id="edge35" class="edge">
<title>Node1&#45;&gt;Node8</title>
<path fill="none" stroke="#191970" d="M856.8383,-246.3881C878.0588,-237.1369 914.2265,-222.7168 945.5,-210 994.9675,-189.8849 1052.206,-166.135 1089.2397,-151.7036"/>
<polygon fill="#191970" stroke="#191970" points="1090.5943,-154.9325 1098.6639,-148.0672 1088.0743,-148.4018 1090.5943,-154.9325"/>
</g>
<!-- Node9 -->
<g id="node10" class="node">
<title>Node9</title>
<g id="a_node10"><a xlink:href="constraints_8h.html" target="_top" xlink:title="Functions and data structures for constraining secondary structure predictions and evaluation...">
<polygon fill="none" stroke="#000000" points="358.5,-129 358.5,-148 486.5,-148 486.5,-129 358.5,-129"/>
<text text-anchor="middle" x="422.5" y="-136" font-family="Helvetica,sans-Serif" font-size="10.00" fill="#000000">ViennaRNA/constraints.h</text>
</a>
</g>
</g>
<!-- Node1&#45;&gt;Node9 -->
<g id="edge36" class="edge">
<title>Node1&#45;&gt;Node9</title>
<path fill="none" stroke="#191970" d="M765.6642,-251.6162C678.0816,-245.3029 538.2856,-231.9349 491.5,-210 465.2564,-197.696 441.7328,-173.3983 429.6526,-156.565"/>
<polygon fill="#191970" stroke="#191970" points="432.5473,-154.596 424.174,-148.1046 426.6717,-158.4009 432.5473,-154.596"/>
</g>
<!-- Node15 -->
<g id="node16" class="node">
<title>Node15</title>
<g id="a_node16"><a xlink:href="grammar_8h.html" target="_top" xlink:title="Implementations for the RNA folding grammar. ">
<polygon fill="none" stroke="#000000" points="222.5,-129 222.5,-148 340.5,-148 340.5,-129 222.5,-129"/>
<text text-anchor="middle" x="281.5" y="-136" font-family="Helvetica,sans-Serif" font-size="10.00" fill="#000000">ViennaRNA/grammar.h</text>
</a>
</g>
</g>
<!-- Node1&#45;&gt;Node15 -->
<g id="edge37" class="edge">
<title>Node1&#45;&gt;Node15</title>
<path fill="none" stroke="#191970" d="M765.8558,-252.6351C688.2244,-247.7311 563.1408,-236.164 458.5,-210 401.683,-195.7937 338.673,-169.1094 305.1093,-152.6625"/>
<polygon fill="#191970" stroke="#191970" points="306.5712,-149.4801 296.0649,-148.1131 303.4256,-155.7335 306.5712,-149.4801"/>
</g>
<!-- Node16 -->
<g id="node17" class="node">
<title>Node16</title>
<g id="a_node17"><a xlink:href="structured__domains_8h.html" target="_top" xlink:title="This module provides interfaces that deal with additional structured domains in the folding grammar...">
<polygon fill="none" stroke="#000000" points="619,-123.5 619,-153.5 734,-153.5 734,-123.5 619,-123.5"/>
<text text-anchor="start" x="627" y="-141.5" font-family="Helvetica,sans-Serif" font-size="10.00" fill="#000000">ViennaRNA/structured</text>
<text text-anchor="middle" x="676.5" y="-130.5" font-family="Helvetica,sans-Serif" font-size="10.00" fill="#000000">_domains.h</text>
</a>
</g>
</g>
<!-- Node1&#45;&gt;Node16 -->
<g id="edge38" class="edge">
<title>Node1&#45;&gt;Node16</title>
<path fill="none" stroke="#191970" d="M819.5762,-246.3319C802.5176,-237.7061 777.6003,-224.2652 757.5,-210 736.5281,-195.1162 714.7871,-175.6671 699.116,-160.8116"/>
<polygon fill="#191970" stroke="#191970" points="701.1482,-157.9108 691.5105,-153.5103 696.3005,-162.9605 701.1482,-157.9108"/>
</g>
<!-- Node17 -->
<g id="node18" class="node">
<title>Node17</title>
<g id="a_node18"><a xlink:href="unstructured__domains_8h.html" target="_top" xlink:title="Functions to modify unstructured domains, e.g. to incorporate ligands binding to unpaired stretches...">
<polygon fill="none" stroke="#000000" points="1251,-123.5 1251,-153.5 1376,-153.5 1376,-123.5 1251,-123.5"/>
<text text-anchor="start" x="1259" y="-141.5" font-family="Helvetica,sans-Serif" font-size="10.00" fill="#000000">ViennaRNA/unstructured</text>
<text text-anchor="middle" x="1313.5" y="-130.5" font-family="Helvetica,sans-Serif" font-size="10.00" fill="#000000">_domains.h</text>
</a>
</g>
</g>
<!-- Node1&#45;&gt;Node17 -->
<g id="edge39" class="edge">
<title>Node1&#45;&gt;Node17</title>
<path fill="none" stroke="#191970" d="M913.3871,-252.5967C1009.9152,-247.3672 1172.8351,-235.194 1227.5,-210 1251.2772,-199.0415 1272.5947,-177.8988 1288.3233,-161.4345"/>
<polygon fill="#191970" stroke="#191970" points="1291.2324,-163.4539 1295.5819,-153.793 1286.1572,-158.6329 1291.2324,-163.4539"/>
</g>
<!-- Node1&#45;&gt;Node18 -->
<g id="edge40" class="edge">
<title>Node1&#45;&gt;Node18</title>
<path fill="none" stroke="#191970" d="M913.1305,-250.9721C1016.7918,-243.6527 1200.0511,-228.8555 1264.5,-210 1317.9142,-194.3729 1333.2204,-188.9879 1376.5,-154 1397.3391,-137.1534 1415.8878,-112.6666 1429.6463,-94.7464"/>
<polygon fill="#191970" stroke="#191970" points="1432.6472,-96.5878 1436.0046,-86.539 1427.1135,-92.3007 1432.6472,-96.5878"/>
</g>
<!-- Node3 -->
<g id="node4" class="node">
<title>Node3</title>
<polygon fill="none" stroke="#bfbfbf" points="868.5,-.5 868.5,-19.5 916.5,-19.5 916.5,-.5 868.5,-.5"/>
<text text-anchor="middle" x="892.5" y="-7.5" font-family="Helvetica,sans-Serif" font-size="10.00" fill="#000000">limits.h</text>
</g>
<!-- Node2&#45;&gt;Node3 -->
<g id="edge3" class="edge">
<title>Node2&#45;&gt;Node3</title>
<path fill="none" stroke="#191970" d="M892.5,-61.8906C892.5,-53.3657 892.5,-40.6392 892.5,-29.9235"/>
<polygon fill="#191970" stroke="#191970" points="896.0001,-29.7448 892.5,-19.7449 889.0001,-29.7449 896.0001,-29.7448"/>
</g>
<!-- Node4&#45;&gt;Node5 -->
<g id="edge5" class="edge">
<title>Node4&#45;&gt;Node5</title>
<path fill="none" stroke="#191970" d="M848.7295,-190.3338C866.5092,-171.8865 905.1905,-132.635 921.5,-123 952.8342,-104.4889 991.6317,-91.7543 1023.0575,-83.5793"/>
<polygon fill="#191970" stroke="#191970" points="1024.1382,-86.9166 1032.9829,-81.0838 1022.4313,-80.1279 1024.1382,-86.9166"/>
</g>
<!-- Node4&#45;&gt;Node6 -->
<g id="edge6" class="edge">
<title>Node4&#45;&gt;Node6</title>
<path fill="none" stroke="#191970" d="M862.4688,-190.3906C887.1724,-180.0554 926.637,-163.5447 954.4027,-151.9284"/>
<polygon fill="#191970" stroke="#191970" points="955.8182,-155.1303 963.6925,-148.0419 953.1165,-148.6727 955.8182,-155.1303"/>
</g>
<!-- Node7 -->
<g id="node8" class="node">
<title>Node7</title>
<g id="a_node8"><a xlink:href="sequence_8h.html" target="_top" xlink:title="Functions and data structures related to sequence representations. ">
<polygon fill="none" stroke="#000000" points="752.5,-129 752.5,-148 874.5,-148 874.5,-129 752.5,-129"/>
<text text-anchor="middle" x="813.5" y="-136" font-family="Helvetica,sans-Serif" font-size="10.00" fill="#000000">ViennaRNA/sequence.h</text>
</a>
</g>
</g>
<!-- Node4&#45;&gt;Node7 -->
<g id="edge10" class="edge">
<title>Node4&#45;&gt;Node7</title>
<path fill="none" stroke="#191970" d="M835.4375,-190.3906C831.7576,-181.6862 826.2258,-168.6015 821.638,-157.7494"/>
<polygon fill="#191970" stroke="#191970" points="824.7375,-156.0927 817.6198,-148.2449 818.29,-158.8185 824.7375,-156.0927"/>
</g>
<!-- Node4&#45;&gt;Node8 -->
<g id="edge11" class="edge">
<title>Node4&#45;&gt;Node8</title>
<path fill="none" stroke="#191970" d="M884.184,-190.4581C935.0525,-179.5956 1018.1595,-161.8488 1072.8451,-150.1711"/>
<polygon fill="#191970" stroke="#191970" points="1073.6626,-153.5755 1082.7112,-148.0643 1072.2007,-146.7299 1073.6626,-153.5755"/>
</g>
<!-- Node4&#45;&gt;Node9 -->
<g id="edge13" class="edge">
<title>Node4&#45;&gt;Node9</title>
<path fill="none" stroke="#191970" d="M774.8013,-190.4581C699.7066,-179.383 576.0883,-161.1515 497.035,-149.4926"/>
<polygon fill="#191970" stroke="#191970" points="497.0686,-145.9598 486.665,-147.9632 496.0473,-152.8848 497.0686,-145.9598"/>
</g>
<!-- Node4&#45;&gt;Node15 -->
<g id="edge25" class="edge">
<title>Node4&#45;&gt;Node15</title>
<path fill="none" stroke="#191970" d="M766.4836,-196.1286C670.4103,-190.3541 496.5106,-177.5522 349.5,-154 342.913,-152.9447 336.0118,-151.6258 329.2366,-150.2055"/>
<polygon fill="#191970" stroke="#191970" points="329.9679,-146.7828 319.4517,-148.0711 328.476,-153.622 329.9679,-146.7828"/>
</g>
<!-- Node4&#45;&gt;Node16 -->
<g id="edge27" class="edge">
<title>Node4&#45;&gt;Node16</title>
<path fill="none" stroke="#191970" d="M814.0313,-190.3906C790.5414,-181.5279 755.0155,-168.1239 725.955,-157.1594"/>
<polygon fill="#191970" stroke="#191970" points="726.966,-153.8001 716.3743,-153.5446 724.4949,-160.3494 726.966,-153.8001"/>
</g>
<!-- Node4&#45;&gt;Node17 -->
<g id="edge28" class="edge">
<title>Node4&#45;&gt;Node17</title>
<path fill="none" stroke="#191970" d="M912.7455,-191.0554C986.2802,-182.0021 1102.7984,-167.4572 1203.5,-154 1215.6424,-152.3774 1228.5313,-150.6057 1241.0487,-148.8588"/>
<polygon fill="#191970" stroke="#191970" points="1241.5689,-152.3203 1250.9865,-147.4666 1240.5976,-145.388 1241.5689,-152.3203"/>
</g>
<!-- Node6&#45;&gt;Node1 -->
<g id="edge8" class="edge">
<title>Node6&#45;&gt;Node1</title>
<path fill="none" stroke="#191970" d="M985.1013,-148.2037C977.1656,-162.8712 954.3918,-190.9896 930.5,-210 914.5496,-222.6915 894.649,-233.9467 877.4026,-242.147"/>
<polygon fill="#191970" stroke="#191970" points="875.779,-239.0406 868.1362,-246.3781 878.6866,-245.4082 875.779,-239.0406"/>
</g>
<!-- Node6&#45;&gt;Node2 -->
<g id="edge7" class="edge">
<title>Node6&#45;&gt;Node2</title>
<path fill="none" stroke="#191970" d="M973.0321,-128.9005C957.6756,-117.9549 932.3537,-99.9064 914.2024,-86.9688"/>
<polygon fill="#191970" stroke="#191970" points="916.1176,-84.0358 905.9429,-81.0817 912.0546,-89.736 916.1176,-84.0358"/>
</g>
<!-- Node6&#45;&gt;Node5 -->
<g id="edge9" class="edge">
<title>Node6&#45;&gt;Node5</title>
<path fill="none" stroke="#191970" d="M999.9679,-128.9005C1015.3244,-117.9549 1040.6463,-99.9064 1058.7976,-86.9688"/>
<polygon fill="#191970" stroke="#191970" points="1060.9454,-89.736 1067.0571,-81.0817 1056.8824,-84.0358 1060.9454,-89.736"/>
</g>
<!-- Node8&#45;&gt;Node1 -->
<g id="edge12" class="edge">
<title>Node8&#45;&gt;Node1</title>
<path fill="none" stroke="#191970" d="M1110.5105,-148.0672C1080.4979,-161.8614 1017.388,-188.0874 963.5,-210 936.0136,-221.1769 904.7464,-233.6695 880.3508,-242.8121"/>
<polygon fill="#191970" stroke="#191970" points="878.8504,-239.6353 870.6864,-246.3881 881.2796,-246.2003 878.8504,-239.6353"/>
</g>
<!-- Node9&#45;&gt;Node1 -->
<g id="edge14" class="edge">
<title>Node9&#45;&gt;Node1</title>
<path fill="none" stroke="#191970" d="M435.1582,-148.1046C451.1137,-163.9878 478.3965,-195.4175 509.5,-210 552.2829,-230.0582 672.8421,-242.9528 755.8075,-249.84"/>
<polygon fill="#191970" stroke="#191970" points="755.7325,-253.3454 765.9841,-250.6705 756.302,-246.3686 755.7325,-253.3454"/>
</g>
<!-- Node10 -->
<g id="node11" class="node">
<title>Node10</title>
<g id="a_node11"><a xlink:href="constraints__hard_8h.html" target="_top" xlink:title="Functions and data structures for handling of secondary structure hard constraints. ">
<polygon fill="none" stroke="#000000" points="552,-56.5 552,-86.5 671,-86.5 671,-56.5 552,-56.5"/>
<text text-anchor="start" x="560" y="-74.5" font-family="Helvetica,sans-Serif" font-size="10.00" fill="#000000">ViennaRNA/constraints</text>
<text text-anchor="middle" x="611.5" y="-63.5" font-family="Helvetica,sans-Serif" font-size="10.00" fill="#000000">_hard.h</text>
</a>
</g>
</g>
<!-- Node9&#45;&gt;Node10 -->
<g id="edge15" class="edge">
<title>Node9&#45;&gt;Node10</title>
<path fill="none" stroke="#191970" d="M449.5791,-128.9005C478.1286,-118.7798 523.8086,-102.5864 559.3822,-89.9756"/>
<polygon fill="#191970" stroke="#191970" points="560.8693,-93.1619 569.1252,-86.5218 558.5304,-86.5642 560.8693,-93.1619"/>
</g>
<!-- Node11 -->
<g id="node12" class="node">
<title>Node11</title>
<g id="a_node12"><a xlink:href="constraints__soft_8h.html" target="_top" xlink:title="Functions and data structures for secondary structure soft constraints. ">
<polygon fill="none" stroke="#000000" points="0,-56.5 0,-86.5 119,-86.5 119,-56.5 0,-56.5"/>
<text text-anchor="start" x="8" y="-74.5" font-family="Helvetica,sans-Serif" font-size="10.00" fill="#000000">ViennaRNA/constraints</text>
<text text-anchor="middle" x="59.5" y="-63.5" font-family="Helvetica,sans-Serif" font-size="10.00" fill="#000000">_soft.h</text>
</a>
</g>
</g>
<!-- Node9&#45;&gt;Node11 -->
<g id="edge17" class="edge">
<title>Node9&#45;&gt;Node11</title>
<path fill="none" stroke="#191970" d="M379.3364,-128.9734C369.5445,-126.9131 359.1787,-124.8112 349.5,-123 254.4162,-105.2068 227.3384,-106.0405 129.2038,-87.2657"/>
<polygon fill="#191970" stroke="#191970" points="129.6414,-83.7856 119.1588,-85.3235 128.3125,-90.6583 129.6414,-83.7856"/>
</g>
<!-- Node12 -->
<g id="node13" class="node">
<title>Node12</title>
<g id="a_node13"><a xlink:href="constraints__SHAPE_8h.html" target="_top" xlink:title="This module provides function to incorporate SHAPE reactivity data into the folding recursions by mea...">
<polygon fill="none" stroke="#000000" points="137,-56.5 137,-86.5 256,-86.5 256,-56.5 137,-56.5"/>
<text text-anchor="start" x="145" y="-74.5" font-family="Helvetica,sans-Serif" font-size="10.00" fill="#000000">ViennaRNA/constraints</text>
<text text-anchor="middle" x="196.5" y="-63.5" font-family="Helvetica,sans-Serif" font-size="10.00" fill="#000000">_SHAPE.h</text>
</a>
</g>
</g>
<!-- Node9&#45;&gt;Node12 -->
<g id="edge19" class="edge">
<title>Node9&#45;&gt;Node12</title>
<path fill="none" stroke="#191970" d="M390.1197,-128.9005C355.4706,-118.6284 299.7199,-102.1006 256.9202,-89.4122"/>
<polygon fill="#191970" stroke="#191970" points="257.7528,-86.0085 247.1704,-86.5218 255.7631,-92.7198 257.7528,-86.0085"/>
</g>
<!-- Node13 -->
<g id="node14" class="node">
<title>Node13</title>
<g id="a_node14"><a xlink:href="perturbation__fold_8h.html" target="_top" xlink:title="Find a vector of perturbation energies that minimizes the discripancies between predicted and observe...">
<polygon fill="none" stroke="#000000" points="274.5,-56.5 274.5,-86.5 396.5,-86.5 396.5,-56.5 274.5,-56.5"/>
<text text-anchor="start" x="282.5" y="-74.5" font-family="Helvetica,sans-Serif" font-size="10.00" fill="#000000">ViennaRNA/perturbation</text>
<text text-anchor="middle" x="335.5" y="-63.5" font-family="Helvetica,sans-Serif" font-size="10.00" fill="#000000">_fold.h</text>
</a>
</g>
</g>
<!-- Node9&#45;&gt;Node13 -->
<g id="edge21" class="edge">
<title>Node9&#45;&gt;Node13</title>
<path fill="none" stroke="#191970" d="M410.035,-128.9005C397.9041,-119.5583 379.0542,-105.0417 363.3465,-92.945"/>
<polygon fill="#191970" stroke="#191970" points="365.0643,-89.8503 355.0059,-86.5218 360.7932,-95.3963 365.0643,-89.8503"/>
</g>
<!-- Node14 -->
<g id="node15" class="node">
<title>Node14</title>
<g id="a_node15"><a xlink:href="constraints__ligand_8h.html" target="_top" xlink:title="Functions for incorporation of ligands binding to hairpin and interior loop motifs using the soft con...">
<polygon fill="none" stroke="#000000" points="415,-56.5 415,-86.5 534,-86.5 534,-56.5 415,-56.5"/>
<text text-anchor="start" x="423" y="-74.5" font-family="Helvetica,sans-Serif" font-size="10.00" fill="#000000">ViennaRNA/constraints</text>
<text text-anchor="middle" x="474.5" y="-63.5" font-family="Helvetica,sans-Serif" font-size="10.00" fill="#000000">_ligand.h</text>
</a>
</g>
</g>
<!-- Node9&#45;&gt;Node14 -->
<g id="edge23" class="edge">
<title>Node9&#45;&gt;Node14</title>
<path fill="none" stroke="#191970" d="M429.9503,-128.9005C436.8653,-119.9908 447.433,-106.3748 456.5407,-94.6399"/>
<polygon fill="#191970" stroke="#191970" points="459.475,-96.5676 462.8413,-86.5218 453.9451,-92.2757 459.475,-96.5676"/>
</g>
<!-- Node10&#45;&gt;Node1 -->
<g id="edge16" class="edge">
<title>Node10&#45;&gt;Node1</title>
<path fill="none" stroke="#191970" d="M605.1358,-86.5053C601.2035,-96.6128 596.5327,-110.3573 594.5,-123 588.0519,-163.1048 590.3613,-185.1589 622.5,-210 643.3605,-226.1238 703.9853,-238.1592 755.8696,-245.867"/>
<polygon fill="#191970" stroke="#191970" points="755.3807,-249.3326 765.7793,-247.3033 756.3848,-242.405 755.3807,-249.3326"/>
</g>
<!-- Node11&#45;&gt;Node1 -->
<g id="edge18" class="edge">
<title>Node11&#45;&gt;Node1</title>
<path fill="none" stroke="#191970" d="M71.155,-86.6616C95.1368,-116.5407 153.3414,-182.5126 219.5,-210 267.7482,-230.046 597.6859,-246.0832 755.6047,-252.7083"/>
<polygon fill="#191970" stroke="#191970" points="755.616,-256.2117 765.753,-253.131 755.9074,-249.2177 755.616,-256.2117"/>
</g>
<!-- Node12&#45;&gt;Node1 -->
<g id="edge20" class="edge">
<title>Node12&#45;&gt;Node1</title>
<path fill="none" stroke="#191970" d="M195.1116,-86.7422C194.1557,-103.8026 194.3963,-131.9434 203.5,-154 215.8969,-184.0353 221.6078,-195.1325 250.5,-210 294.2686,-232.5227 603.5856,-247.133 755.5919,-253.033"/>
<polygon fill="#191970" stroke="#191970" points="755.6886,-256.5392 765.8156,-253.4259 755.9574,-249.5444 755.6886,-256.5392"/>
</g>
<!-- Node13&#45;&gt;Node1 -->
<g id="edge22" class="edge">
<title>Node13&#45;&gt;Node1</title>
<path fill="none" stroke="#191970" d="M277.8619,-86.5433C236.0965,-100.3663 190.6522,-123.3544 213.5,-154 265.6109,-223.896 316.0039,-192.9296 401.5,-210 523.3332,-234.3256 666.9627,-246.3033 755.6369,-251.808"/>
<polygon fill="#191970" stroke="#191970" points="755.4461,-255.3027 765.64,-252.4159 755.8708,-248.3156 755.4461,-255.3027"/>
</g>
<!-- Node14&#45;&gt;Node1 -->
<g id="edge24" class="edge">
<title>Node14&#45;&gt;Node1</title>
<path fill="none" stroke="#191970" d="M483.206,-86.5136C500.8894,-115.5357 543.9969,-179.1838 598.5,-210 625.0515,-225.0123 697.32,-237.6242 755.8447,-245.8232"/>
<polygon fill="#191970" stroke="#191970" points="755.4683,-249.3043 765.8524,-247.2014 756.4234,-242.3697 755.4683,-249.3043"/>
</g>
<!-- Node15&#45;&gt;Node1 -->
<g id="edge26" class="edge">
<title>Node15&#45;&gt;Node1</title>
<path fill="none" stroke="#191970" d="M307.161,-148.1131C344.1729,-163.7197 414.0744,-194.3914 476.5,-210 570.7121,-233.5564 681.4952,-245.2805 755.7327,-250.9625"/>
<polygon fill="#191970" stroke="#191970" points="755.7273,-254.4717 765.9598,-251.7247 756.2477,-247.491 755.7273,-254.4717"/>
</g>
<!-- Node17&#45;&gt;Node1 -->
<g id="edge29" class="edge">
<title>Node17&#45;&gt;Node1</title>
<path fill="none" stroke="#191970" d="M1308.585,-153.793C1297.5054,-170.7066 1273.168,-197.2483 1245.5,-210 1190.4418,-235.3753 1025.5648,-247.5418 923.5884,-252.7085"/>
<polygon fill="#191970" stroke="#191970" points="923.1263,-249.227 913.3113,-253.2164 923.4719,-256.2185 923.1263,-249.227"/>
</g>
<!-- Node17&#45;&gt;Node18 -->
<g id="edge30" class="edge">
<title>Node17&#45;&gt;Node18</title>
<path fill="none" stroke="#191970" d="M1344.4699,-123.4639C1364.1292,-113.9191 1389.7784,-101.4663 1411.0393,-91.144"/>
<polygon fill="#191970" stroke="#191970" points="1412.6888,-94.2339 1420.156,-86.7177 1409.6315,-87.9368 1412.6888,-94.2339"/>
</g>
<!-- Node18&#45;&gt;Node1 -->
<g id="edge32" class="edge">
<title>Node18&#45;&gt;Node1</title>
<path fill="none" stroke="#191970" d="M1448.7336,-86.539C1439.897,-104.4482 1418.7491,-134.3967 1394.5,-154 1351.2204,-188.9879 1335.9142,-194.3729 1282.5,-210 1217.7103,-228.9552 1032.8505,-243.8091 923.4228,-251.0876"/>
<polygon fill="#191970" stroke="#191970" points="923.1494,-247.598 913.4008,-251.7471 923.6091,-254.5828 923.1494,-247.598"/>
</g>
<!-- Node19 -->
<g id="node20" class="node">
<title>Node19</title>
<polygon fill="none" stroke="#bfbfbf" points="1428.5,-.5 1428.5,-19.5 1474.5,-19.5 1474.5,-.5 1428.5,-.5"/>
<text text-anchor="middle" x="1451.5" y="-7.5" font-family="Helvetica,sans-Serif" font-size="10.00" fill="#000000">stdio.h</text>
</g>
<!-- Node18&#45;&gt;Node19 -->
<g id="edge31" class="edge">
<title>Node18&#45;&gt;Node19</title>
<path fill="none" stroke="#191970" d="M1451.5,-56.2977C1451.5,-48.3834 1451.5,-38.6043 1451.5,-30.0759"/>
<polygon fill="#191970" stroke="#191970" points="1455.0001,-29.8469 1451.5,-19.8469 1448.0001,-29.847 1455.0001,-29.8469"/>
</g>
<!-- Node20&#45;&gt;Node5 -->
<g id="edge43" class="edge">
<title>Node20&#45;&gt;Node5</title>
<path fill="none" stroke="#191970" d="M1401.0731,-358.4157C1402.1791,-339.0653 1404.5,-293.9408 1404.5,-256 1404.5,-256 1404.5,-256 1404.5,-200 1404.5,-164.7513 1411.3373,-146.9772 1385.5,-123 1351.2661,-91.2307 1222.747,-78.8576 1143.8722,-74.1896"/>
<polygon fill="#191970" stroke="#191970" points="1143.7432,-70.6768 1133.5615,-73.6063 1143.3478,-77.6656 1143.7432,-70.6768"/>
</g>
<!-- Node21 -->
<g id="node22" class="node">
<title>Node21</title>
<g id="a_node22"><a xlink:href="plot__layouts_8h.html" target="_top" xlink:title="Secondary structure plot layout algorithms. ">
<polygon fill="none" stroke="#000000" points="1159.5,-302.5 1159.5,-321.5 1291.5,-321.5 1291.5,-302.5 1159.5,-302.5"/>
<text text-anchor="middle" x="1225.5" y="-309.5" font-family="Helvetica,sans-Serif" font-size="10.00" fill="#000000">ViennaRNA/plot_layouts.h</text>
</a>
</g>
</g>
<!-- Node20&#45;&gt;Node21 -->
<g id="edge44" class="edge">
<title>Node20&#45;&gt;Node21</title>
<path fill="none" stroke="#191970" d="M1370.4164,-358.3733C1341.3166,-349.0613 1297.0477,-334.8953 1265.097,-324.671"/>
<polygon fill="#191970" stroke="#191970" points="1265.782,-321.2155 1255.191,-321.5011 1263.6485,-327.8824 1265.782,-321.2155"/>
</g>
<!-- Node21&#45;&gt;Node1 -->
<g id="edge45" class="edge">
<title>Node21&#45;&gt;Node1</title>
<path fill="none" stroke="#191970" d="M1159.5828,-302.4369C1091.8565,-292.6113 986.546,-277.3331 915.3877,-267.0096"/>
<polygon fill="#191970" stroke="#191970" points="915.5442,-263.4958 905.1453,-265.5237 914.5392,-270.4232 915.5442,-263.4958"/>
</g>
<!-- Node22 -->
<g id="node23" class="node">
<title>Node22</title>
<g id="a_node23"><a xlink:href="naview_8h.html" target="_top" xlink:title="ViennaRNA/naview.h">
<polygon fill="none" stroke="#000000" points="1170.5,-246.5 1170.5,-265.5 1280.5,-265.5 1280.5,-246.5 1170.5,-246.5"/>
<text text-anchor="middle" x="1225.5" y="-253.5" font-family="Helvetica,sans-Serif" font-size="10.00" fill="#000000">ViennaRNA/naview.h</text>
</a>
</g>
</g>
<!-- Node21&#45;&gt;Node22 -->
<g id="edge46" class="edge">
<title>Node21&#45;&gt;Node22</title>
<path fill="none" stroke="#191970" d="M1225.5,-302.2455C1225.5,-294.9382 1225.5,-284.6944 1225.5,-275.7046"/>
<polygon fill="#191970" stroke="#191970" points="1229.0001,-275.6426 1225.5,-265.6427 1222.0001,-275.6427 1229.0001,-275.6426"/>
</g>
</g>
</svg>
        <g id="navigator" transform="translate(0 0)" fill="#404254">
                <rect fill="#f2f5e9" fill-opacity="0.5" stroke="#606060" stroke-width=".5" x="0" y="0" width="60" height="60"/>
                <use id="zoomplus" xlink:href="#zoomPlus" x="17" y="9" onmousedown="handleZoom(evt,'in')"/>
                <use id="zoomminus" xlink:href="#zoomMin" x="42" y="9" onmousedown="handleZoom(evt,'out')"/>
                <use id="reset" xlink:href="#resetDef" x="30" y="36" onmousedown="handleReset()"/>
                <g id="arrowUp" xlink:href="#dirArrow" transform="translate(30 24)" onmousedown="handlePan(0,-1)">
                  <use xlink:href="#rim" fill="#404040">
                        <set attributeName="fill" to="#808080" begin="arrowUp.mouseover" end="arrowUp.mouseout"/>
                  </use>
                  <path fill="none" stroke="white" stroke-width="1.5" d="M0,-3.0v7 M-2.5,-0.5L0,-3.0L2.5,-0.5"/>
                </g>
                <g id="arrowRight" xlink:href="#dirArrow" transform="rotate(90) translate(36 -43)" onmousedown="handlePan(1,0)">
                  <use xlink:href="#rim" fill="#404040">
                        <set attributeName="fill" to="#808080" begin="arrowRight.mouseover" end="arrowRight.mouseout"/>
                  </use>
                  <path fill="none" stroke="white" stroke-width="1.5" d="M0,-3.0v7 M-2.5,-0.5L0,-3.0L2.5,-0.5"/>
                </g>
                <g id="arrowDown" xlink:href="#dirArrow" transform="rotate(180) translate(-30 -48)" onmousedown="handlePan(0,1)">
                  <use xlink:href="#rim" fill="#404040">
                        <set attributeName="fill" to="#808080" begin="arrowDown.mouseover" end="arrowDown.mouseout"/>
                  </use>
                  <path fill="none" stroke="white" stroke-width="1.5" d="M0,-3.0v7 M-2.5,-0.5L0,-3.0L2.5,-0.5"/>
                </g>
                <g id="arrowLeft" xlink:href="#dirArrow" transform="rotate(270) translate(-36 17)" onmousedown="handlePan(-1,0)">
                  <use xlink:href="#rim" fill="#404040">
                        <set attributeName="fill" to="#808080" begin="arrowLeft.mouseover" end="arrowLeft.mouseout"/>
                  </use>
                  <path fill="none" stroke="white" stroke-width="1.5" d="M0,-3.0v7 M-2.5,-0.5L0,-3.0L2.5,-0.5"/>
                </g>
        </g>
        <svg viewBox="0 0 15 15" width="100%" height="30px" preserveAspectRatio="xMaxYMin meet">
         <g id="arrow_out" transform="scale(0.3 0.3)">
          <a xlink:href="PS__dot_8h__incl_org.svg" target="_base">
           <rect id="button" ry="5" rx="5" y="6" x="6" height="38" width="38"
                fill="#f2f5e9" fill-opacity="0.5" stroke="#606060" stroke-width="1.0"/>
           <path id="arrow"
             d="M 11.500037,31.436501 C 11.940474,20.09759 22.043105,11.32322 32.158766,21.979434 L 37.068811,17.246167 C 37.068811,17.246167 37.088388,32 37.088388,32 L 22.160133,31.978069 C 22.160133,31.978069 26.997745,27.140456 26.997745,27.140456 C 18.528582,18.264221 13.291696,25.230495 11.500037,31.436501 z"
             style="fill:#404040;"/>
          </a>
         </g>
        </svg>
</svg>
