<?xml version="1.0" encoding="UTF-8" standalone="no"?>
<!DOCTYPE svg PUBLIC "-//W3C//DTD SVG 1.1//EN"
 "http://www.w3.org/Graphics/SVG/1.1/DTD/svg11.dtd">
<!-- Generated by graphviz version 2.40.1 (20161225.0304)
 -->
<!-- Title: ViennaRNA/structure_utils.h Pages: 1 -->
<svg width="1447pt" height="341pt"
 viewBox="0.00 0.00 1447.00 341.00" xmlns="http://www.w3.org/2000/svg" xmlns:xlink="http://www.w3.org/1999/xlink">
<g id="graph0" class="graph" transform="scale(1 1) rotate(0) translate(4 337)">
<title>ViennaRNA/structure_utils.h</title>
<!-- Node0 -->
<g id="node1" class="node">
<title>Node0</title>
<polygon fill="#bfbfbf" stroke="#000000" points="756.5,-302.5 756.5,-332.5 866.5,-332.5 866.5,-302.5 756.5,-302.5"/>
<text text-anchor="start" x="764.5" y="-320.5" font-family="Helvetica,sans-Serif" font-size="10.00" fill="#000000">ViennaRNA/structure</text>
<text text-anchor="middle" x="811.5" y="-309.5" font-family="Helvetica,sans-Serif" font-size="10.00" fill="#000000">_utils.h</text>
</g>
<!-- Node1 -->
<g id="node2" class="node">
<title>Node1</title>
<polygon fill="none" stroke="#bfbfbf" points="673.5,-246.5 673.5,-265.5 719.5,-265.5 719.5,-246.5 673.5,-246.5"/>
<text text-anchor="middle" x="696.5" y="-253.5" font-family="Helvetica,sans-Serif" font-size="10.00" fill="#000000">stdio.h</text>
</g>
<!-- Node0&#45;&gt;Node1 -->
<g id="edge1" class="edge">
<title>Node0&#45;&gt;Node1</title>
<path fill="none" stroke="#191970" d="M783.3678,-302.4554C765.0214,-292.644 741.2223,-279.9167 723.1749,-270.2653"/>
<polygon fill="#191970" stroke="#191970" points="724.7897,-267.1598 714.3209,-265.5303 721.4886,-273.3326 724.7897,-267.1598"/>
</g>
<!-- Node2 -->
<g id="node3" class="node">
<title>Node2</title>
<g id="a_node3"><a xlink:href="data__structures_8h.html" target="_top" xlink:title="Various data structures and pre&#45;processor macros. ">
<polygon fill="none" stroke="#000000" points="738,-246.5 738,-265.5 885,-265.5 885,-246.5 738,-246.5"/>
<text text-anchor="middle" x="811.5" y="-253.5" font-family="Helvetica,sans-Serif" font-size="10.00" fill="#000000">ViennaRNA/data_structures.h</text>
</a>
</g>
</g>
<!-- Node0&#45;&gt;Node2 -->
<g id="edge2" class="edge">
<title>Node0&#45;&gt;Node2</title>
<path fill="none" stroke="#191970" d="M805.5843,-302.2977C804.6446,-294.2945 804.4987,-284.3843 805.1466,-275.7889"/>
<polygon fill="#191970" stroke="#191970" points="808.6218,-276.2044 806.3917,-265.8469 801.676,-275.3345 808.6218,-276.2044"/>
</g>
<!-- Node2&#45;&gt;Node0 -->
<g id="edge39" class="edge">
<title>Node2&#45;&gt;Node0</title>
<path fill="none" stroke="#191970" d="M816.6083,-265.8469C817.9704,-272.9883 818.4849,-282.9858 818.1519,-292.2849"/>
<polygon fill="#191970" stroke="#191970" points="814.6584,-292.068 817.4157,-302.2977 821.6396,-292.5813 814.6584,-292.068"/>
</g>
<!-- Node3 -->
<g id="node4" class="node">
<title>Node3</title>
<g id="a_node4"><a xlink:href="energy__const_8h.html" target="_top" xlink:title="Energy parameter constants. ">
<polygon fill="none" stroke="#000000" points="611.5,-62 611.5,-81 749.5,-81 749.5,-62 611.5,-62"/>
<text text-anchor="middle" x="680.5" y="-69" font-family="Helvetica,sans-Serif" font-size="10.00" fill="#000000">ViennaRNA/energy_const.h</text>
</a>
</g>
</g>
<!-- Node2&#45;&gt;Node3 -->
<g id="edge3" class="edge">
<title>Node2&#45;&gt;Node3</title>
<path fill="none" stroke="#191970" d="M834.2341,-246.3527C881.1468,-225.129 981.0272,-172.342 940.5,-123 940.0955,-122.5075 815.5525,-97.9972 739.0066,-82.9719"/>
<polygon fill="#191970" stroke="#191970" points="739.489,-79.4998 729.0022,-81.0084 738.1409,-86.3688 739.489,-79.4998"/>
</g>
<!-- Node5 -->
<g id="node6" class="node">
<title>Node5</title>
<g id="a_node6"><a xlink:href="fold__compound_8h.html" target="_top" xlink:title="The Basic Fold Compound API. ">
<polygon fill="none" stroke="#000000" points="488.5,-190.5 488.5,-209.5 634.5,-209.5 634.5,-190.5 488.5,-190.5"/>
<text text-anchor="middle" x="561.5" y="-197.5" font-family="Helvetica,sans-Serif" font-size="10.00" fill="#000000">ViennaRNA/fold_compound.h</text>
</a>
</g>
</g>
<!-- Node2&#45;&gt;Node5 -->
<g id="edge5" class="edge">
<title>Node2&#45;&gt;Node5</title>
<path fill="none" stroke="#191970" d="M768.8075,-246.4369C725.9321,-236.8328 659.7995,-222.0191 613.7998,-211.7152"/>
<polygon fill="#191970" stroke="#191970" points="614.5396,-208.2942 604.0164,-209.5237 613.0095,-215.1249 614.5396,-208.2942"/>
</g>
<!-- Node6 -->
<g id="node7" class="node">
<title>Node6</title>
<g id="a_node7"><a xlink:href="model_8h.html" target="_top" xlink:title="The model details data structure and its corresponding modifiers. ">
<polygon fill="none" stroke="#000000" points="282.5,-62 282.5,-81 388.5,-81 388.5,-62 282.5,-62"/>
<text text-anchor="middle" x="335.5" y="-69" font-family="Helvetica,sans-Serif" font-size="10.00" fill="#000000">ViennaRNA/model.h</text>
</a>
</g>
</g>
<!-- Node2&#45;&gt;Node6 -->
<g id="edge32" class="edge">
<title>Node2&#45;&gt;Node6</title>
<path fill="none" stroke="#191970" d="M737.8946,-246.7253C647.7402,-235.2211 503.9281,-216.3491 479.5,-210 413.039,-192.7261 374.2708,-210.677 335.5,-154 322.8505,-135.5084 325.6593,-108.8131 329.7583,-90.8432"/>
<polygon fill="#191970" stroke="#191970" points="333.1451,-91.7257 332.282,-81.1661 326.3717,-89.9592 333.1451,-91.7257"/>
</g>
<!-- Node7 -->
<g id="node8" class="node">
<title>Node7</title>
<g id="a_node8"><a xlink:href="params_8h.html" target="_top" xlink:title="Functions to deal with sets of energy parameters. ">
<polygon fill="none" stroke="#000000" points="637.5,-129 637.5,-148 749.5,-148 749.5,-129 637.5,-129"/>
<text text-anchor="middle" x="693.5" y="-136" font-family="Helvetica,sans-Serif" font-size="10.00" fill="#000000">ViennaRNA/params.h</text>
</a>
</g>
</g>
<!-- Node2&#45;&gt;Node7 -->
<g id="edge33" class="edge">
<title>Node2&#45;&gt;Node7</title>
<path fill="none" stroke="#191970" d="M794.1452,-246.2236C782.3241,-236.9752 767.2998,-222.6639 754.5,-210 736.2967,-191.99 715.8479,-171.0145 703.493,-156.4599"/>
<polygon fill="#191970" stroke="#191970" points="705.9336,-153.9098 696.9388,-148.3113 700.4791,-158.2971 705.9336,-153.9098"/>
</g>
<!-- Node9 -->
<g id="node10" class="node">
<title>Node9</title>
<g id="a_node10"><a xlink:href="dp__matrices_8h.html" target="_top" xlink:title="Functions to deal with standard dynamic programming (DP) matrices. ">
<polygon fill="none" stroke="#000000" points="0,-129 0,-148 133,-148 133,-129 0,-129"/>
<text text-anchor="middle" x="66.5" y="-136" font-family="Helvetica,sans-Serif" font-size="10.00" fill="#000000">ViennaRNA/dp_matrices.h</text>
</a>
</g>
</g>
<!-- Node2&#45;&gt;Node9 -->
<g id="edge34" class="edge">
<title>Node2&#45;&gt;Node9</title>
<path fill="none" stroke="#191970" d="M737.7736,-247.9155C731.5766,-247.2314 725.4223,-246.5804 719.5,-246 508.3519,-225.306 450.4886,-256.5563 243.5,-210 186.0541,-197.0792 122.7785,-169.735 89.4615,-152.8571"/>
<polygon fill="#191970" stroke="#191970" points="90.9907,-149.7073 80.5053,-148.1888 87.7552,-155.9147 90.9907,-149.7073"/>
</g>
<!-- Node10 -->
<g id="node11" class="node">
<title>Node10</title>
<g id="a_node11"><a xlink:href="constraints_8h.html" target="_top" xlink:title="Functions and data structures for constraining secondary structure predictions and evaluation...">
<polygon fill="none" stroke="#000000" points="1025.5,-129 1025.5,-148 1153.5,-148 1153.5,-129 1025.5,-129"/>
<text text-anchor="middle" x="1089.5" y="-136" font-family="Helvetica,sans-Serif" font-size="10.00" fill="#000000">ViennaRNA/constraints.h</text>
</a>
</g>
</g>
<!-- Node2&#45;&gt;Node10 -->
<g id="edge35" class="edge">
<title>Node2&#45;&gt;Node10</title>
<path fill="none" stroke="#191970" d="M885.0139,-246.9452C921.8072,-240.3825 966.0755,-229.1489 1002.5,-210 1028.4908,-196.3362 1052.4341,-171.8603 1068.9448,-155.4012"/>
<polygon fill="#191970" stroke="#191970" points="1071.7489,-157.5528 1076.4293,-148.0478 1066.8431,-152.5595 1071.7489,-157.5528"/>
</g>
<!-- Node16 -->
<g id="node17" class="node">
<title>Node16</title>
<g id="a_node17"><a xlink:href="grammar_8h.html" target="_top" xlink:title="Implementations for the RNA folding grammar. ">
<polygon fill="none" stroke="#000000" points="151.5,-129 151.5,-148 269.5,-148 269.5,-129 151.5,-129"/>
<text text-anchor="middle" x="210.5" y="-136" font-family="Helvetica,sans-Serif" font-size="10.00" fill="#000000">ViennaRNA/grammar.h</text>
</a>
</g>
</g>
<!-- Node2&#45;&gt;Node16 -->
<g id="edge36" class="edge">
<title>Node2&#45;&gt;Node16</title>
<path fill="none" stroke="#191970" d="M737.7704,-247.9483C731.574,-247.2575 725.4208,-246.5959 719.5,-246 620.7868,-236.0644 364.7681,-251.1664 274.5,-210 249.1338,-198.4318 227.4008,-174.1212 216.482,-157.0726"/>
<polygon fill="#191970" stroke="#191970" points="219.3311,-155.0012 211.3571,-148.0251 213.2404,-158.4513 219.3311,-155.0012"/>
</g>
<!-- Node17 -->
<g id="node18" class="node">
<title>Node17</title>
<g id="a_node18"><a xlink:href="structured__domains_8h.html" target="_top" xlink:title="This module provides interfaces that deal with additional structured domains in the folding grammar...">
<polygon fill="none" stroke="#000000" points="504,-123.5 504,-153.5 619,-153.5 619,-123.5 504,-123.5"/>
<text text-anchor="start" x="512" y="-141.5" font-family="Helvetica,sans-Serif" font-size="10.00" fill="#000000">ViennaRNA/structured</text>
<text text-anchor="middle" x="561.5" y="-130.5" font-family="Helvetica,sans-Serif" font-size="10.00" fill="#000000">_domains.h</text>
</a>
</g>
</g>
<!-- Node2&#45;&gt;Node17 -->
<g id="edge37" class="edge">
<title>Node2&#45;&gt;Node17</title>
<path fill="none" stroke="#191970" d="M791.0415,-246.3845C750.0075,-227.0985 656.9589,-183.3657 602.771,-157.8974"/>
<polygon fill="#191970" stroke="#191970" points="603.9894,-154.6028 593.4504,-153.5167 601.0119,-160.9379 603.9894,-154.6028"/>
</g>
<!-- Node18 -->
<g id="node19" class="node">
<title>Node18</title>
<g id="a_node19"><a xlink:href="unstructured__domains_8h.html" target="_top" xlink:title="Functions to modify unstructured domains, e.g. to incorporate ligands binding to unpaired stretches...">
<polygon fill="none" stroke="#000000" points="806,-123.5 806,-153.5 931,-153.5 931,-123.5 806,-123.5"/>
<text text-anchor="start" x="814" y="-141.5" font-family="Helvetica,sans-Serif" font-size="10.00" fill="#000000">ViennaRNA/unstructured</text>
<text text-anchor="middle" x="868.5" y="-130.5" font-family="Helvetica,sans-Serif" font-size="10.00" fill="#000000">_domains.h</text>
</a>
</g>
</g>
<!-- Node2&#45;&gt;Node18 -->
<g id="edge38" class="edge">
<title>Node2&#45;&gt;Node18</title>
<path fill="none" stroke="#191970" d="M812.2527,-246.3845C817.9492,-228.2254 836.7197,-188.393 851.2687,-162.5404"/>
<polygon fill="#191970" stroke="#191970" points="854.4003,-164.1176 856.4058,-153.7143 848.3505,-160.5964 854.4003,-164.1176"/>
</g>
<!-- Node4 -->
<g id="node5" class="node">
<title>Node4</title>
<polygon fill="none" stroke="#bfbfbf" points="656.5,-.5 656.5,-19.5 704.5,-19.5 704.5,-.5 656.5,-.5"/>
<text text-anchor="middle" x="680.5" y="-7.5" font-family="Helvetica,sans-Serif" font-size="10.00" fill="#000000">limits.h</text>
</g>
<!-- Node3&#45;&gt;Node4 -->
<g id="edge4" class="edge">
<title>Node3&#45;&gt;Node4</title>
<path fill="none" stroke="#191970" d="M680.5,-61.8906C680.5,-53.3657 680.5,-40.6392 680.5,-29.9235"/>
<polygon fill="#191970" stroke="#191970" points="684.0001,-29.7448 680.5,-19.7449 677.0001,-29.7449 684.0001,-29.7448"/>
</g>
<!-- Node5&#45;&gt;Node6 -->
<g id="edge6" class="edge">
<title>Node5&#45;&gt;Node6</title>
<path fill="none" stroke="#191970" d="M488.3778,-192.048C436.6783,-184.9338 373.3473,-172.7029 354.5,-154 338.0072,-137.6335 334.6384,-110.0202 334.4741,-91.2916"/>
<polygon fill="#191970" stroke="#191970" points="337.9752,-91.2718 334.6848,-81.2009 330.9767,-91.1256 337.9752,-91.2718"/>
</g>
<!-- Node5&#45;&gt;Node7 -->
<g id="edge7" class="edge">
<title>Node5&#45;&gt;Node7</title>
<path fill="none" stroke="#191970" d="M582.125,-190.3906C604.0173,-180.1908 638.8193,-163.9763 663.6927,-152.3875"/>
<polygon fill="#191970" stroke="#191970" points="665.4335,-155.4377 673.0198,-148.0419 662.4772,-149.0926 665.4335,-155.4377"/>
</g>
<!-- Node8 -->
<g id="node9" class="node">
<title>Node8</title>
<g id="a_node9"><a xlink:href="sequence_8h.html" target="_top" xlink:title="Functions and data structures related to sequence representations. ">
<polygon fill="none" stroke="#000000" points="363.5,-129 363.5,-148 485.5,-148 485.5,-129 363.5,-129"/>
<text text-anchor="middle" x="424.5" y="-136" font-family="Helvetica,sans-Serif" font-size="10.00" fill="#000000">ViennaRNA/sequence.h</text>
</a>
</g>
</g>
<!-- Node5&#45;&gt;Node8 -->
<g id="edge11" class="edge">
<title>Node5&#45;&gt;Node8</title>
<path fill="none" stroke="#191970" d="M540.0938,-190.3906C517.2717,-180.1457 480.9321,-163.8326 455.0943,-152.2339"/>
<polygon fill="#191970" stroke="#191970" points="456.3123,-148.9443 445.7559,-148.0419 453.4455,-155.3303 456.3123,-148.9443"/>
</g>
<!-- Node5&#45;&gt;Node9 -->
<g id="edge12" class="edge">
<title>Node5&#45;&gt;Node9</title>
<path fill="none" stroke="#191970" d="M488.1883,-194.0063C404.3352,-186.6749 263.0599,-172.871 142.5,-154 135.0996,-152.8416 127.327,-151.4549 119.6934,-149.9936"/>
<polygon fill="#191970" stroke="#191970" points="120.2689,-146.5398 109.7813,-148.0427 118.9171,-153.4081 120.2689,-146.5398"/>
</g>
<!-- Node5&#45;&gt;Node10 -->
<g id="edge14" class="edge">
<title>Node5&#45;&gt;Node10</title>
<path fill="none" stroke="#191970" d="M634.6388,-191.481C734.9604,-179.7958 914.2762,-158.9096 1015.2022,-147.154"/>
<polygon fill="#191970" stroke="#191970" points="1015.789,-150.6094 1025.3169,-145.9759 1014.9791,-143.6564 1015.789,-150.6094"/>
</g>
<!-- Node5&#45;&gt;Node16 -->
<g id="edge26" class="edge">
<title>Node5&#45;&gt;Node16</title>
<path fill="none" stroke="#191970" d="M507.0414,-190.4581C444.3107,-179.4668 341.3527,-161.4272 274.7559,-149.7585"/>
<polygon fill="#191970" stroke="#191970" points="275.2516,-146.2921 264.7976,-148.0137 274.0435,-153.1871 275.2516,-146.2921"/>
</g>
<!-- Node5&#45;&gt;Node17 -->
<g id="edge28" class="edge">
<title>Node5&#45;&gt;Node17</title>
<path fill="none" stroke="#191970" d="M561.5,-190.3906C561.5,-183.2234 561.5,-173.0862 561.5,-163.671"/>
<polygon fill="#191970" stroke="#191970" points="565.0001,-163.5446 561.5,-153.5446 558.0001,-163.5446 565.0001,-163.5446"/>
</g>
<!-- Node5&#45;&gt;Node18 -->
<g id="edge29" class="edge">
<title>Node5&#45;&gt;Node18</title>
<path fill="none" stroke="#191970" d="M609.1319,-190.4581C659.0202,-180.4642 737.9973,-164.643 795.7067,-153.0824"/>
<polygon fill="#191970" stroke="#191970" points="796.7429,-156.4444 805.8606,-151.0483 795.3679,-149.5808 796.7429,-156.4444"/>
</g>
<!-- Node7&#45;&gt;Node2 -->
<g id="edge9" class="edge">
<title>Node7&#45;&gt;Node2</title>
<path fill="none" stroke="#191970" d="M708.6129,-148.0787C724.9791,-161.8869 750.3952,-188.1299 772.5,-210 782.1999,-219.5969 793.1772,-230.1398 801.2973,-238.7085"/>
<polygon fill="#191970" stroke="#191970" points="798.7767,-241.1397 808.0721,-246.2236 803.9759,-236.4526 798.7767,-241.1397"/>
</g>
<!-- Node7&#45;&gt;Node3 -->
<g id="edge8" class="edge">
<title>Node7&#45;&gt;Node3</title>
<path fill="none" stroke="#191970" d="M691.6374,-128.9005C689.726,-119.0495 686.6983,-103.4451 684.2819,-90.9912"/>
<polygon fill="#191970" stroke="#191970" points="687.6999,-90.2319 682.3591,-81.0817 680.8281,-91.5653 687.6999,-90.2319"/>
</g>
<!-- Node7&#45;&gt;Node6 -->
<g id="edge10" class="edge">
<title>Node7&#45;&gt;Node6</title>
<path fill="none" stroke="#191970" d="M655.0903,-128.9369C646.3703,-126.8784 637.134,-124.7865 628.5,-123 549.6126,-106.6766 458.0854,-91.1262 398.606,-81.4665"/>
<polygon fill="#191970" stroke="#191970" points="399.0442,-77.992 388.6136,-79.8502 397.9263,-84.9022 399.0442,-77.992"/>
</g>
<!-- Node9&#45;&gt;Node2 -->
<g id="edge13" class="edge">
<title>Node9&#45;&gt;Node2</title>
<path fill="none" stroke="#191970" d="M91.1955,-148.0607C127.8543,-164.0269 198.2147,-195.7658 261.5,-210 465.2544,-255.8288 524.5073,-226.2635 732.3033,-245.527"/>
<polygon fill="#191970" stroke="#191970" points="732.0246,-249.0162 742.3118,-246.4817 732.6893,-242.0478 732.0246,-249.0162"/>
</g>
<!-- Node10&#45;&gt;Node2 -->
<g id="edge15" class="edge">
<title>Node10&#45;&gt;Node2</title>
<path fill="none" stroke="#191970" d="M1087.5255,-148.0478C1078.2153,-163.5605 1050.7439,-194.1003 1020.5,-210 982.1242,-230.1748 935.0417,-241.5634 895.2341,-247.9603"/>
<polygon fill="#191970" stroke="#191970" points="894.6366,-244.5109 885.2801,-249.4813 895.694,-251.4305 894.6366,-244.5109"/>
</g>
<!-- Node11 -->
<g id="node12" class="node">
<title>Node11</title>
<g id="a_node12"><a xlink:href="constraints__hard_8h.html" target="_top" xlink:title="Functions and data structures for handling of secondary structure hard constraints. ">
<polygon fill="none" stroke="#000000" points="768,-56.5 768,-86.5 887,-86.5 887,-56.5 768,-56.5"/>
<text text-anchor="start" x="776" y="-74.5" font-family="Helvetica,sans-Serif" font-size="10.00" fill="#000000">ViennaRNA/constraints</text>
<text text-anchor="middle" x="827.5" y="-63.5" font-family="Helvetica,sans-Serif" font-size="10.00" fill="#000000">_hard.h</text>
</a>
</g>
</g>
<!-- Node10&#45;&gt;Node11 -->
<g id="edge16" class="edge">
<title>Node10&#45;&gt;Node11</title>
<path fill="none" stroke="#191970" d="M1052.24,-128.9717C1011.7113,-118.6075 946.0446,-101.8148 896.1332,-89.0512"/>
<polygon fill="#191970" stroke="#191970" points="896.9285,-85.6421 886.3732,-86.5553 895.1942,-92.4238 896.9285,-85.6421"/>
</g>
<!-- Node12 -->
<g id="node13" class="node">
<title>Node12</title>
<g id="a_node13"><a xlink:href="constraints__soft_8h.html" target="_top" xlink:title="Functions and data structures for secondary structure soft constraints. ">
<polygon fill="none" stroke="#000000" points="905,-56.5 905,-86.5 1024,-86.5 1024,-56.5 905,-56.5"/>
<text text-anchor="start" x="913" y="-74.5" font-family="Helvetica,sans-Serif" font-size="10.00" fill="#000000">ViennaRNA/constraints</text>
<text text-anchor="middle" x="964.5" y="-63.5" font-family="Helvetica,sans-Serif" font-size="10.00" fill="#000000">_soft.h</text>
</a>
</g>
</g>
<!-- Node10&#45;&gt;Node12 -->
<g id="edge18" class="edge">
<title>Node10&#45;&gt;Node12</title>
<path fill="none" stroke="#191970" d="M1071.5905,-128.9005C1053.3541,-119.1258 1024.5495,-103.6865 1001.4052,-91.2812"/>
<polygon fill="#191970" stroke="#191970" points="1002.9929,-88.1612 992.5257,-86.5218 999.686,-94.3308 1002.9929,-88.1612"/>
</g>
<!-- Node13 -->
<g id="node14" class="node">
<title>Node13</title>
<g id="a_node14"><a xlink:href="constraints__SHAPE_8h.html" target="_top" xlink:title="This module provides function to incorporate SHAPE reactivity data into the folding recursions by mea...">
<polygon fill="none" stroke="#000000" points="1042,-56.5 1042,-86.5 1161,-86.5 1161,-56.5 1042,-56.5"/>
<text text-anchor="start" x="1050" y="-74.5" font-family="Helvetica,sans-Serif" font-size="10.00" fill="#000000">ViennaRNA/constraints</text>
<text text-anchor="middle" x="1101.5" y="-63.5" font-family="Helvetica,sans-Serif" font-size="10.00" fill="#000000">_SHAPE.h</text>
</a>
</g>
</g>
<!-- Node10&#45;&gt;Node13 -->
<g id="edge20" class="edge">
<title>Node10&#45;&gt;Node13</title>
<path fill="none" stroke="#191970" d="M1091.2193,-128.9005C1092.7221,-120.5099 1094.9725,-107.9451 1096.985,-96.7085"/>
<polygon fill="#191970" stroke="#191970" points="1100.4916,-96.9822 1098.8095,-86.5218 1093.6013,-95.7481 1100.4916,-96.9822"/>
</g>
<!-- Node14 -->
<g id="node15" class="node">
<title>Node14</title>
<g id="a_node15"><a xlink:href="perturbation__fold_8h.html" target="_top" xlink:title="Find a vector of perturbation energies that minimizes the discripancies between predicted and observe...">
<polygon fill="none" stroke="#000000" points="1179.5,-56.5 1179.5,-86.5 1301.5,-86.5 1301.5,-56.5 1179.5,-56.5"/>
<text text-anchor="start" x="1187.5" y="-74.5" font-family="Helvetica,sans-Serif" font-size="10.00" fill="#000000">ViennaRNA/perturbation</text>
<text text-anchor="middle" x="1240.5" y="-63.5" font-family="Helvetica,sans-Serif" font-size="10.00" fill="#000000">_fold.h</text>
</a>
</g>
</g>
<!-- Node10&#45;&gt;Node14 -->
<g id="edge22" class="edge">
<title>Node10&#45;&gt;Node14</title>
<path fill="none" stroke="#191970" d="M1111.1346,-128.9005C1133.5541,-118.9528 1169.196,-103.1382 1197.3965,-90.6254"/>
<polygon fill="#191970" stroke="#191970" points="1198.9239,-93.7768 1206.645,-86.5218 1196.0848,-87.3784 1198.9239,-93.7768"/>
</g>
<!-- Node15 -->
<g id="node16" class="node">
<title>Node15</title>
<g id="a_node16"><a xlink:href="constraints__ligand_8h.html" target="_top" xlink:title="Functions for incorporation of ligands binding to hairpin and interior loop motifs using the soft con...">
<polygon fill="none" stroke="#000000" points="1320,-56.5 1320,-86.5 1439,-86.5 1439,-56.5 1320,-56.5"/>
<text text-anchor="start" x="1328" y="-74.5" font-family="Helvetica,sans-Serif" font-size="10.00" fill="#000000">ViennaRNA/constraints</text>
<text text-anchor="middle" x="1379.5" y="-63.5" font-family="Helvetica,sans-Serif" font-size="10.00" fill="#000000">_ligand.h</text>
</a>
</g>
</g>
<!-- Node10&#45;&gt;Node15 -->
<g id="edge24" class="edge">
<title>Node10&#45;&gt;Node15</title>
<path fill="none" stroke="#191970" d="M1130.742,-128.9717C1177.3575,-118.2019 1254.018,-100.4907 1309.935,-87.5719"/>
<polygon fill="#191970" stroke="#191970" points="1310.8162,-90.9606 1319.7717,-85.2993 1309.2404,-84.1403 1310.8162,-90.9606"/>
</g>
<!-- Node11&#45;&gt;Node2 -->
<g id="edge17" class="edge">
<title>Node11&#45;&gt;Node2</title>
<path fill="none" stroke="#191970" d="M815.7091,-86.7621C808.9254,-96.5336 801.0606,-109.8138 797.5,-123 786.8549,-162.4225 797.4442,-210.4516 805.1157,-236.6548"/>
<polygon fill="#191970" stroke="#191970" points="801.8509,-237.944 808.1544,-246.4597 808.5372,-235.8718 801.8509,-237.944"/>
</g>
<!-- Node12&#45;&gt;Node2 -->
<g id="edge19" class="edge">
<title>Node12&#45;&gt;Node2</title>
<path fill="none" stroke="#191970" d="M965.3835,-86.7705C965.9043,-103.614 965.4089,-131.3344 958.5,-154 950.1418,-181.4202 948.1251,-191.1829 926.5,-210 908.5642,-225.6069 884.6695,-236.3133 863.3089,-243.441"/>
<polygon fill="#191970" stroke="#191970" points="862.1886,-240.1243 853.7034,-246.4688 864.2931,-246.8004 862.1886,-240.1243"/>
</g>
<!-- Node13&#45;&gt;Node2 -->
<g id="edge21" class="edge">
<title>Node13&#45;&gt;Node2</title>
<path fill="none" stroke="#191970" d="M1128.6057,-86.671C1141.4215,-95.4531 1155.4355,-107.7902 1162.5,-123 1168.3039,-135.4957 1169.7846,-142.3055 1162.5,-154 1133.8505,-199.993 987.2227,-230.0144 892.7726,-244.9056"/>
<polygon fill="#191970" stroke="#191970" points="892.0097,-241.482 882.6642,-246.4731 893.0825,-248.3993 892.0097,-241.482"/>
</g>
<!-- Node14&#45;&gt;Node2 -->
<g id="edge23" class="edge">
<title>Node14&#45;&gt;Node2</title>
<path fill="none" stroke="#191970" d="M1231.2294,-86.6269C1220.0787,-104.0865 1200.14,-133.0782 1178.5,-154 1147.2974,-184.1671 1138.7269,-193.7073 1098.5,-210 1062.6137,-224.5347 966.6273,-238.1728 895.4863,-246.7667"/>
<polygon fill="#191970" stroke="#191970" points="894.6948,-243.3362 885.1805,-247.9975 895.525,-250.2868 894.6948,-243.3362"/>
</g>
<!-- Node15&#45;&gt;Node2 -->
<g id="edge25" class="edge">
<title>Node15&#45;&gt;Node2</title>
<path fill="none" stroke="#191970" d="M1358.8545,-86.544C1317.8205,-115.6194 1222.1304,-179.3566 1131.5,-210 1089.0518,-224.3523 975.0684,-238.696 895.2981,-247.4586"/>
<polygon fill="#191970" stroke="#191970" points="894.8211,-243.9897 885.2588,-248.5518 895.5789,-250.9486 894.8211,-243.9897"/>
</g>
<!-- Node16&#45;&gt;Node2 -->
<g id="edge27" class="edge">
<title>Node16&#45;&gt;Node2</title>
<path fill="none" stroke="#191970" d="M222.2281,-148.0251C237.01,-164.0878 262.1554,-196.1614 292.5,-210 379.9473,-249.88 622.9475,-236.9533 732.1682,-245.5877"/>
<polygon fill="#191970" stroke="#191970" points="732.039,-249.09 742.3106,-246.4931 732.6615,-242.1178 732.039,-249.09"/>
</g>
<!-- Node18&#45;&gt;Node0 -->
<g id="edge31" class="edge">
<title>Node18&#45;&gt;Node0</title>
<path fill="none" stroke="#191970" d="M877.8512,-153.6493C891.9471,-178.6132 914.9294,-229.2814 894.5,-266 887.0641,-279.3649 874.5662,-289.7047 861.4958,-297.4923"/>
<polygon fill="#191970" stroke="#191970" points="859.4911,-294.6001 852.4108,-302.4816 862.8607,-300.7357 859.4911,-294.6001"/>
</g>
<!-- Node18&#45;&gt;Node2 -->
<g id="edge30" class="edge">
<title>Node18&#45;&gt;Node2</title>
<path fill="none" stroke="#191970" d="M865.8331,-153.7143C857.9598,-175.3076 838.9205,-214.7793 825.3368,-237.8651"/>
<polygon fill="#191970" stroke="#191970" points="822.3522,-236.0369 820.0764,-246.3845 828.3083,-239.7147 822.3522,-236.0369"/>
</g>
</g>
</svg>
