<?xml version="1.0" encoding="UTF-8" standalone="no"?>
<!DOCTYPE svg PUBLIC "-//W3C//DTD SVG 1.1//EN"
 "http://www.w3.org/Graphics/SVG/1.1/DTD/svg11.dtd">
<!-- Generated by graphviz version 2.40.1 (20161225.0304)
 -->
<!-- Title: ViennaRNA/unstructured_domains.h Pages: 1 -->
<svg width="1383pt" height="352pt"
 viewBox="0.00 0.00 1383.00 352.00" xmlns="http://www.w3.org/2000/svg" xmlns:xlink="http://www.w3.org/1999/xlink">
<g id="graph0" class="graph" transform="scale(1 1) rotate(0) translate(4 348)">
<title>ViennaRNA/unstructured_domains.h</title>
<!-- Node0 -->
<g id="node1" class="node">
<title>Node0</title>
<polygon fill="#bfbfbf" stroke="#000000" points="715,-313.5 715,-343.5 840,-343.5 840,-313.5 715,-313.5"/>
<text text-anchor="start" x="723" y="-331.5" font-family="Helvetica,sans-Serif" font-size="10.00" fill="#000000">ViennaRNA/unstructured</text>
<text text-anchor="middle" x="777.5" y="-320.5" font-family="Helvetica,sans-Serif" font-size="10.00" fill="#000000">_domains.h</text>
</g>
<!-- Node1 -->
<g id="node2" class="node">
<title>Node1</title>
<g id="a_node2"><a xlink:href="data__structures_8h.html" target="_top" xlink:title="Various data structures and pre&#45;processor macros. ">
<polygon fill="none" stroke="#000000" points="704,-257.5 704,-276.5 851,-276.5 851,-257.5 704,-257.5"/>
<text text-anchor="middle" x="777.5" y="-264.5" font-family="Helvetica,sans-Serif" font-size="10.00" fill="#000000">ViennaRNA/data_structures.h</text>
</a>
</g>
</g>
<!-- Node0&#45;&gt;Node1 -->
<g id="edge1" class="edge">
<title>Node0&#45;&gt;Node1</title>
<path fill="none" stroke="#191970" d="M771.5843,-313.2977C770.6446,-305.2945 770.4987,-295.3843 771.1466,-286.7889"/>
<polygon fill="#191970" stroke="#191970" points="774.6218,-287.2044 772.3917,-276.8469 767.676,-286.3345 774.6218,-287.2044"/>
</g>
<!-- Node17 -->
<g id="node18" class="node">
<title>Node17</title>
<g id="a_node18"><a xlink:href="structure__utils_8h.html" target="_top" xlink:title="Various utility&#45; and helper&#45;functions for secondary structure parsing, converting, etc. ">
<polygon fill="none" stroke="#000000" points="1141.5,-190.5 1141.5,-220.5 1251.5,-220.5 1251.5,-190.5 1141.5,-190.5"/>
<text text-anchor="start" x="1149.5" y="-208.5" font-family="Helvetica,sans-Serif" font-size="10.00" fill="#000000">ViennaRNA/structure</text>
<text text-anchor="middle" x="1196.5" y="-197.5" font-family="Helvetica,sans-Serif" font-size="10.00" fill="#000000">_utils.h</text>
</a>
</g>
</g>
<!-- Node0&#45;&gt;Node17 -->
<g id="edge39" class="edge">
<title>Node0&#45;&gt;Node17</title>
<path fill="none" stroke="#191970" d="M828.8776,-313.4178C906.3637,-290.6713 1052.8451,-247.6708 1135.592,-223.3799"/>
<polygon fill="#191970" stroke="#191970" points="1136.7489,-226.6881 1145.3582,-220.513 1134.7772,-219.9715 1136.7489,-226.6881"/>
</g>
<!-- Node1&#45;&gt;Node0 -->
<g id="edge35" class="edge">
<title>Node1&#45;&gt;Node0</title>
<path fill="none" stroke="#191970" d="M782.6083,-276.8469C783.9704,-283.9883 784.4849,-293.9858 784.1519,-303.2849"/>
<polygon fill="#191970" stroke="#191970" points="780.6584,-303.068 783.4157,-313.2977 787.6396,-303.5813 780.6584,-303.068"/>
</g>
<!-- Node2 -->
<g id="node3" class="node">
<title>Node2</title>
<g id="a_node3"><a xlink:href="energy__const_8h.html" target="_top" xlink:title="Energy parameter constants. ">
<polygon fill="none" stroke="#000000" points="547.5,-62 547.5,-81 685.5,-81 685.5,-62 547.5,-62"/>
<text text-anchor="middle" x="616.5" y="-69" font-family="Helvetica,sans-Serif" font-size="10.00" fill="#000000">ViennaRNA/energy_const.h</text>
</a>
</g>
</g>
<!-- Node1&#45;&gt;Node2 -->
<g id="edge2" class="edge">
<title>Node1&#45;&gt;Node2</title>
<path fill="none" stroke="#191970" d="M779.333,-257.2999C783.5152,-232.0591 791.0434,-163.4889 758.5,-123 746.5615,-108.1467 702.4112,-93.5597 666.4714,-83.7239"/>
<polygon fill="#191970" stroke="#191970" points="667.1507,-80.2826 656.5858,-81.0795 665.3417,-87.0449 667.1507,-80.2826"/>
</g>
<!-- Node4 -->
<g id="node5" class="node">
<title>Node4</title>
<g id="a_node5"><a xlink:href="fold__compound_8h.html" target="_top" xlink:title="The Basic Fold Compound API. ">
<polygon fill="none" stroke="#000000" points="341.5,-196 341.5,-215 487.5,-215 487.5,-196 341.5,-196"/>
<text text-anchor="middle" x="414.5" y="-203" font-family="Helvetica,sans-Serif" font-size="10.00" fill="#000000">ViennaRNA/fold_compound.h</text>
</a>
</g>
</g>
<!-- Node1&#45;&gt;Node4 -->
<g id="edge4" class="edge">
<title>Node1&#45;&gt;Node4</title>
<path fill="none" stroke="#191970" d="M719.316,-257.4963C663.4375,-248.3233 576.658,-233.9579 501.5,-221 493.6535,-219.6472 485.4128,-218.2059 477.2603,-216.7675"/>
<polygon fill="#191970" stroke="#191970" points="477.8491,-213.3174 467.3921,-215.0206 476.6289,-220.2102 477.8491,-213.3174"/>
</g>
<!-- Node5 -->
<g id="node6" class="node">
<title>Node5</title>
<g id="a_node6"><a xlink:href="model_8h.html" target="_top" xlink:title="The model details data structure and its corresponding modifiers. ">
<polygon fill="none" stroke="#000000" points="423.5,-62 423.5,-81 529.5,-81 529.5,-62 423.5,-62"/>
<text text-anchor="middle" x="476.5" y="-69" font-family="Helvetica,sans-Serif" font-size="10.00" fill="#000000">ViennaRNA/model.h</text>
</a>
</g>
</g>
<!-- Node1&#45;&gt;Node5 -->
<g id="edge29" class="edge">
<title>Node1&#45;&gt;Node5</title>
<path fill="none" stroke="#191970" d="M764.6693,-257.4234C738.7822,-238.0677 678.5042,-192.8267 628.5,-154 611.011,-140.4203 608.3811,-134.5661 589.5,-123 564.5663,-107.7262 534.3357,-94.1814 511.4187,-84.8206"/>
<polygon fill="#191970" stroke="#191970" points="512.6658,-81.5498 502.0817,-81.0721 510.0578,-88.0459 512.6658,-81.5498"/>
</g>
<!-- Node6 -->
<g id="node7" class="node">
<title>Node6</title>
<g id="a_node7"><a xlink:href="params_8h.html" target="_top" xlink:title="Functions to deal with sets of energy parameters. ">
<polygon fill="none" stroke="#000000" points="637.5,-129 637.5,-148 749.5,-148 749.5,-129 637.5,-129"/>
<text text-anchor="middle" x="693.5" y="-136" font-family="Helvetica,sans-Serif" font-size="10.00" fill="#000000">ViennaRNA/params.h</text>
</a>
</g>
</g>
<!-- Node1&#45;&gt;Node6 -->
<g id="edge30" class="edge">
<title>Node1&#45;&gt;Node6</title>
<path fill="none" stroke="#191970" d="M767.413,-257.3416C750.0193,-236.1323 716.3132,-185.1679 700.8871,-157.3669"/>
<polygon fill="#191970" stroke="#191970" points="703.8525,-155.4865 696.095,-148.2705 697.6593,-158.7492 703.8525,-155.4865"/>
</g>
<!-- Node8 -->
<g id="node9" class="node">
<title>Node8</title>
<g id="a_node9"><a xlink:href="dp__matrices_8h.html" target="_top" xlink:title="Functions to deal with standard dynamic programming (DP) matrices. ">
<polygon fill="none" stroke="#000000" points="0,-129 0,-148 133,-148 133,-129 0,-129"/>
<text text-anchor="middle" x="66.5" y="-136" font-family="Helvetica,sans-Serif" font-size="10.00" fill="#000000">ViennaRNA/dp_matrices.h</text>
</a>
</g>
</g>
<!-- Node1&#45;&gt;Node8 -->
<g id="edge31" class="edge">
<title>Node1&#45;&gt;Node8</title>
<path fill="none" stroke="#191970" d="M703.966,-264.1853C613.443,-259.5768 455.7087,-248.0581 323.5,-221 238.8125,-203.6677 142.6774,-170.307 95.4536,-151.7589"/>
<polygon fill="#191970" stroke="#191970" points="96.7254,-148.498 86.1406,-148.0368 94.1275,-154.9981 96.7254,-148.498"/>
</g>
<!-- Node9 -->
<g id="node10" class="node">
<title>Node9</title>
<g id="a_node10"><a xlink:href="constraints_8h.html" target="_top" xlink:title="Functions and data structures for constraining secondary structure predictions and evaluation...">
<polygon fill="none" stroke="#000000" points="881.5,-129 881.5,-148 1009.5,-148 1009.5,-129 881.5,-129"/>
<text text-anchor="middle" x="945.5" y="-136" font-family="Helvetica,sans-Serif" font-size="10.00" fill="#000000">ViennaRNA/constraints.h</text>
</a>
</g>
</g>
<!-- Node1&#45;&gt;Node9 -->
<g id="edge32" class="edge">
<title>Node1&#45;&gt;Node9</title>
<path fill="none" stroke="#191970" d="M794.0303,-257.4949C811.2446,-249.3376 837.8557,-236.4659 858.5,-221 884.2184,-201.7328 908.8139,-173.5467 925.6108,-155.6156"/>
<polygon fill="#191970" stroke="#191970" points="928.3587,-157.807 932.7555,-148.1675 923.3071,-152.9612 928.3587,-157.807"/>
</g>
<!-- Node15 -->
<g id="node16" class="node">
<title>Node15</title>
<g id="a_node16"><a xlink:href="grammar_8h.html" target="_top" xlink:title="Implementations for the RNA folding grammar. ">
<polygon fill="none" stroke="#000000" points="329.5,-129 329.5,-148 447.5,-148 447.5,-129 329.5,-129"/>
<text text-anchor="middle" x="388.5" y="-136" font-family="Helvetica,sans-Serif" font-size="10.00" fill="#000000">ViennaRNA/grammar.h</text>
</a>
</g>
</g>
<!-- Node1&#45;&gt;Node15 -->
<g id="edge33" class="edge">
<title>Node1&#45;&gt;Node15</title>
<path fill="none" stroke="#191970" d="M703.9908,-257.696C658.5145,-250.3712 599.577,-238.4521 549.5,-221 520.408,-210.8613 515.1831,-203.5197 487.5,-190 461.3535,-177.2308 431.4849,-163.0163 411.2703,-152.7613"/>
<polygon fill="#191970" stroke="#191970" points="412.6722,-149.5462 402.1809,-148.0688 409.4611,-155.7662 412.6722,-149.5462"/>
</g>
<!-- Node16 -->
<g id="node17" class="node">
<title>Node16</title>
<g id="a_node17"><a xlink:href="structured__domains_8h.html" target="_top" xlink:title="This module provides interfaces that deal with additional structured domains in the folding grammar...">
<polygon fill="none" stroke="#000000" points="466,-123.5 466,-153.5 581,-153.5 581,-123.5 466,-123.5"/>
<text text-anchor="start" x="474" y="-141.5" font-family="Helvetica,sans-Serif" font-size="10.00" fill="#000000">ViennaRNA/structured</text>
<text text-anchor="middle" x="523.5" y="-130.5" font-family="Helvetica,sans-Serif" font-size="10.00" fill="#000000">_domains.h</text>
</a>
</g>
</g>
<!-- Node1&#45;&gt;Node16 -->
<g id="edge34" class="edge">
<title>Node1&#45;&gt;Node16</title>
<path fill="none" stroke="#191970" d="M703.9876,-258.7638C669.1573,-252.3629 628.1386,-241.0292 595.5,-221 571.5503,-206.3028 551.2538,-181.0737 538.3763,-162.3745"/>
<polygon fill="#191970" stroke="#191970" points="541.1207,-160.1808 532.6671,-153.7943 535.2929,-164.0586 541.1207,-160.1808"/>
</g>
<!-- Node1&#45;&gt;Node17 -->
<g id="edge36" class="edge">
<title>Node1&#45;&gt;Node17</title>
<path fill="none" stroke="#191970" d="M851.3302,-258.4608C920.5895,-250.4563 1026.7808,-237.2947 1118.5,-221 1122.6478,-220.2631 1126.9234,-219.4453 1131.2395,-218.5815"/>
<polygon fill="#191970" stroke="#191970" points="1132.2557,-221.9457 1141.3432,-216.4989 1130.8425,-215.0898 1132.2557,-221.9457"/>
</g>
<!-- Node3 -->
<g id="node4" class="node">
<title>Node3</title>
<polygon fill="none" stroke="#bfbfbf" points="592.5,-.5 592.5,-19.5 640.5,-19.5 640.5,-.5 592.5,-.5"/>
<text text-anchor="middle" x="616.5" y="-7.5" font-family="Helvetica,sans-Serif" font-size="10.00" fill="#000000">limits.h</text>
</g>
<!-- Node2&#45;&gt;Node3 -->
<g id="edge3" class="edge">
<title>Node2&#45;&gt;Node3</title>
<path fill="none" stroke="#191970" d="M616.5,-61.8906C616.5,-53.3657 616.5,-40.6392 616.5,-29.9235"/>
<polygon fill="#191970" stroke="#191970" points="620.0001,-29.7448 616.5,-19.7449 613.0001,-29.7449 620.0001,-29.7448"/>
</g>
<!-- Node4&#45;&gt;Node0 -->
<g id="edge28" class="edge">
<title>Node4&#45;&gt;Node0</title>
<path fill="none" stroke="#191970" d="M442.6819,-215.0493C502.8927,-235.4512 644.9593,-283.5895 723.2985,-310.1342"/>
<polygon fill="#191970" stroke="#191970" points="722.3948,-313.5234 732.9891,-313.4178 724.6413,-306.8936 722.3948,-313.5234"/>
</g>
<!-- Node4&#45;&gt;Node5 -->
<g id="edge5" class="edge">
<title>Node4&#45;&gt;Node5</title>
<path fill="none" stroke="#191970" d="M378.5138,-195.8314C357.6193,-188.1651 333.0188,-175.1332 320.5,-154 313.478,-142.146 312.4279,-134.1655 320.5,-123 332.3614,-106.5931 379.0437,-92.5452 418.278,-83.2856"/>
<polygon fill="#191970" stroke="#191970" points="419.1045,-86.687 428.0666,-81.0361 417.5367,-79.8648 419.1045,-86.687"/>
</g>
<!-- Node4&#45;&gt;Node6 -->
<g id="edge6" class="edge">
<title>Node4&#45;&gt;Node6</title>
<path fill="none" stroke="#191970" d="M454.1776,-195.9717C504.0307,-183.9998 589.602,-163.4504 643.7736,-150.4415"/>
<polygon fill="#191970" stroke="#191970" points="644.6013,-153.8423 653.5076,-148.1039 642.9667,-147.0358 644.6013,-153.8423"/>
</g>
<!-- Node7 -->
<g id="node8" class="node">
<title>Node7</title>
<g id="a_node8"><a xlink:href="sequence_8h.html" target="_top" xlink:title="Functions and data structures related to sequence representations. ">
<polygon fill="none" stroke="#000000" points="151.5,-129 151.5,-148 273.5,-148 273.5,-129 151.5,-129"/>
<text text-anchor="middle" x="212.5" y="-136" font-family="Helvetica,sans-Serif" font-size="10.00" fill="#000000">ViennaRNA/sequence.h</text>
</a>
</g>
</g>
<!-- Node4&#45;&gt;Node7 -->
<g id="edge10" class="edge">
<title>Node4&#45;&gt;Node7</title>
<path fill="none" stroke="#191970" d="M385.5583,-195.9005C350.1582,-184.1589 290.1149,-164.2436 250.8855,-151.2318"/>
<polygon fill="#191970" stroke="#191970" points="251.9814,-147.9079 241.388,-148.0817 249.7776,-154.5519 251.9814,-147.9079"/>
</g>
<!-- Node4&#45;&gt;Node8 -->
<g id="edge11" class="edge">
<title>Node4&#45;&gt;Node8</title>
<path fill="none" stroke="#191970" d="M363.0726,-195.9857C308.3473,-185.8091 219.2499,-169.0915 142.5,-154 136.1701,-152.7553 129.5479,-151.4337 122.9643,-150.1075"/>
<polygon fill="#191970" stroke="#191970" points="123.1938,-146.5831 112.6982,-148.0302 121.8054,-153.444 123.1938,-146.5831"/>
</g>
<!-- Node4&#45;&gt;Node9 -->
<g id="edge13" class="edge">
<title>Node4&#45;&gt;Node9</title>
<path fill="none" stroke="#191970" d="M487.7758,-196.2543C588.7227,-183.5171 769.5775,-160.6974 871.1091,-147.8864"/>
<polygon fill="#191970" stroke="#191970" points="871.7996,-151.3271 881.2828,-146.6027 870.9233,-144.3822 871.7996,-151.3271"/>
</g>
<!-- Node4&#45;&gt;Node15 -->
<g id="edge25" class="edge">
<title>Node4&#45;&gt;Node15</title>
<path fill="none" stroke="#191970" d="M410.7748,-195.9005C406.9134,-185.95 400.774,-170.1292 395.9177,-157.6147"/>
<polygon fill="#191970" stroke="#191970" points="399.099,-156.1381 392.2183,-148.0817 392.5731,-158.6706 399.099,-156.1381"/>
</g>
<!-- Node4&#45;&gt;Node16 -->
<g id="edge27" class="edge">
<title>Node4&#45;&gt;Node16</title>
<path fill="none" stroke="#191970" d="M430.117,-195.9005C445.8081,-186.2556 470.4716,-171.0954 490.5124,-158.7768"/>
<polygon fill="#191970" stroke="#191970" points="492.3752,-161.7402 499.0616,-153.5218 488.7095,-155.7767 492.3752,-161.7402"/>
</g>
<!-- Node6&#45;&gt;Node1 -->
<g id="edge8" class="edge">
<title>Node6&#45;&gt;Node1</title>
<path fill="none" stroke="#191970" d="M703.6789,-148.2705C721.1297,-169.5841 754.8323,-220.56 770.1941,-248.2794"/>
<polygon fill="#191970" stroke="#191970" points="767.2074,-250.1199 774.9597,-257.3416 773.403,-246.8618 767.2074,-250.1199"/>
</g>
<!-- Node6&#45;&gt;Node2 -->
<g id="edge7" class="edge">
<title>Node6&#45;&gt;Node2</title>
<path fill="none" stroke="#191970" d="M682.4678,-128.9005C670.1172,-118.1539 649.8977,-100.5603 635.0943,-87.6794"/>
<polygon fill="#191970" stroke="#191970" points="637.3532,-85.0055 627.5118,-81.0817 632.7582,-90.2863 637.3532,-85.0055"/>
</g>
<!-- Node6&#45;&gt;Node5 -->
<g id="edge9" class="edge">
<title>Node6&#45;&gt;Node5</title>
<path fill="none" stroke="#191970" d="M662.4092,-128.9005C624.2192,-117.1091 559.3313,-97.0746 517.2014,-84.0668"/>
<polygon fill="#191970" stroke="#191970" points="518.1206,-80.6876 507.5331,-81.0817 516.0555,-87.3761 518.1206,-80.6876"/>
</g>
<!-- Node8&#45;&gt;Node1 -->
<g id="edge12" class="edge">
<title>Node8&#45;&gt;Node1</title>
<path fill="none" stroke="#191970" d="M96.606,-148.0368C146.9433,-165.4801 250.7887,-202.4349 341.5,-221 462.635,-245.7917 605.1986,-257.5381 693.5307,-262.8768"/>
<polygon fill="#191970" stroke="#191970" points="693.5742,-266.3853 703.7632,-263.4812 693.987,-259.3975 693.5742,-266.3853"/>
</g>
<!-- Node9&#45;&gt;Node1 -->
<g id="edge14" class="edge">
<title>Node9&#45;&gt;Node1</title>
<path fill="none" stroke="#191970" d="M943.6265,-148.1675C934.3213,-164.7039 906.1573,-198.782 876.5,-221 858.8394,-234.2306 836.8122,-245.5627 817.9032,-253.6689"/>
<polygon fill="#191970" stroke="#191970" points="816.5335,-250.4477 808.6222,-257.4949 819.2014,-256.9194 816.5335,-250.4477"/>
</g>
<!-- Node10 -->
<g id="node11" class="node">
<title>Node10</title>
<g id="a_node11"><a xlink:href="constraints__hard_8h.html" target="_top" xlink:title="Functions and data structures for handling of secondary structure hard constraints. ">
<polygon fill="none" stroke="#000000" points="704,-56.5 704,-86.5 823,-86.5 823,-56.5 704,-56.5"/>
<text text-anchor="start" x="712" y="-74.5" font-family="Helvetica,sans-Serif" font-size="10.00" fill="#000000">ViennaRNA/constraints</text>
<text text-anchor="middle" x="763.5" y="-63.5" font-family="Helvetica,sans-Serif" font-size="10.00" fill="#000000">_hard.h</text>
</a>
</g>
</g>
<!-- Node9&#45;&gt;Node10 -->
<g id="edge15" class="edge">
<title>Node9&#45;&gt;Node10</title>
<path fill="none" stroke="#191970" d="M919.4238,-128.9005C892.0492,-118.8231 848.3192,-102.7247 814.1272,-90.1375"/>
<polygon fill="#191970" stroke="#191970" points="814.8989,-86.692 804.3054,-86.5218 812.4806,-93.261 814.8989,-86.692"/>
</g>
<!-- Node11 -->
<g id="node12" class="node">
<title>Node11</title>
<g id="a_node12"><a xlink:href="constraints__soft_8h.html" target="_top" xlink:title="Functions and data structures for secondary structure soft constraints. ">
<polygon fill="none" stroke="#000000" points="841,-56.5 841,-86.5 960,-86.5 960,-56.5 841,-56.5"/>
<text text-anchor="start" x="849" y="-74.5" font-family="Helvetica,sans-Serif" font-size="10.00" fill="#000000">ViennaRNA/constraints</text>
<text text-anchor="middle" x="900.5" y="-63.5" font-family="Helvetica,sans-Serif" font-size="10.00" fill="#000000">_soft.h</text>
</a>
</g>
</g>
<!-- Node9&#45;&gt;Node11 -->
<g id="edge17" class="edge">
<title>Node9&#45;&gt;Node11</title>
<path fill="none" stroke="#191970" d="M939.0526,-128.9005C933.1266,-120.0773 924.1006,-106.6387 916.2716,-94.9822"/>
<polygon fill="#191970" stroke="#191970" points="919.0703,-92.8717 910.5892,-86.5218 913.2594,-96.7746 919.0703,-92.8717"/>
</g>
<!-- Node12 -->
<g id="node13" class="node">
<title>Node12</title>
<g id="a_node13"><a xlink:href="constraints__SHAPE_8h.html" target="_top" xlink:title="This module provides function to incorporate SHAPE reactivity data into the folding recursions by mea...">
<polygon fill="none" stroke="#000000" points="978,-56.5 978,-86.5 1097,-86.5 1097,-56.5 978,-56.5"/>
<text text-anchor="start" x="986" y="-74.5" font-family="Helvetica,sans-Serif" font-size="10.00" fill="#000000">ViennaRNA/constraints</text>
<text text-anchor="middle" x="1037.5" y="-63.5" font-family="Helvetica,sans-Serif" font-size="10.00" fill="#000000">_SHAPE.h</text>
</a>
</g>
</g>
<!-- Node9&#45;&gt;Node12 -->
<g id="edge19" class="edge">
<title>Node9&#45;&gt;Node12</title>
<path fill="none" stroke="#191970" d="M958.6814,-128.9005C971.6282,-119.4718 991.8124,-104.7725 1008.5137,-92.6096"/>
<polygon fill="#191970" stroke="#191970" points="1010.85,-95.238 1016.8731,-86.5218 1006.7291,-89.5795 1010.85,-95.238"/>
</g>
<!-- Node13 -->
<g id="node14" class="node">
<title>Node13</title>
<g id="a_node14"><a xlink:href="perturbation__fold_8h.html" target="_top" xlink:title="Find a vector of perturbation energies that minimizes the discripancies between predicted and observe...">
<polygon fill="none" stroke="#000000" points="1115.5,-56.5 1115.5,-86.5 1237.5,-86.5 1237.5,-56.5 1115.5,-56.5"/>
<text text-anchor="start" x="1123.5" y="-74.5" font-family="Helvetica,sans-Serif" font-size="10.00" fill="#000000">ViennaRNA/perturbation</text>
<text text-anchor="middle" x="1176.5" y="-63.5" font-family="Helvetica,sans-Serif" font-size="10.00" fill="#000000">_fold.h</text>
</a>
</g>
</g>
<!-- Node9&#45;&gt;Node13 -->
<g id="edge21" class="edge">
<title>Node9&#45;&gt;Node13</title>
<path fill="none" stroke="#191970" d="M978.5967,-128.9005C1014.087,-118.6068 1071.2365,-102.031 1115.0192,-89.3321"/>
<polygon fill="#191970" stroke="#191970" points="1116.0794,-92.6689 1124.7085,-86.5218 1114.1294,-85.946 1116.0794,-92.6689"/>
</g>
<!-- Node14 -->
<g id="node15" class="node">
<title>Node14</title>
<g id="a_node15"><a xlink:href="constraints__ligand_8h.html" target="_top" xlink:title="Functions for incorporation of ligands binding to hairpin and interior loop motifs using the soft con...">
<polygon fill="none" stroke="#000000" points="1256,-56.5 1256,-86.5 1375,-86.5 1375,-56.5 1256,-56.5"/>
<text text-anchor="start" x="1264" y="-74.5" font-family="Helvetica,sans-Serif" font-size="10.00" fill="#000000">ViennaRNA/constraints</text>
<text text-anchor="middle" x="1315.5" y="-63.5" font-family="Helvetica,sans-Serif" font-size="10.00" fill="#000000">_ligand.h</text>
</a>
</g>
</g>
<!-- Node9&#45;&gt;Node14 -->
<g id="edge23" class="edge">
<title>Node9&#45;&gt;Node14</title>
<path fill="none" stroke="#191970" d="M1006.7776,-128.9643C1065.5178,-119.6085 1156.9074,-104.4927 1245.7249,-87.0969"/>
<polygon fill="#191970" stroke="#191970" points="1246.5662,-90.4985 1255.7008,-85.1311 1245.2127,-83.6306 1246.5662,-90.4985"/>
</g>
<!-- Node10&#45;&gt;Node1 -->
<g id="edge16" class="edge">
<title>Node10&#45;&gt;Node1</title>
<path fill="none" stroke="#191970" d="M774.5139,-86.8796C780.8487,-96.6952 788.1896,-109.9806 791.5,-123 802.2333,-165.2124 797.9107,-177.9188 791.5,-221 790.1673,-229.9561 787.4506,-239.581 784.7619,-247.7"/>
<polygon fill="#191970" stroke="#191970" points="781.3933,-246.728 781.3624,-257.3228 787.9936,-249.0598 781.3933,-246.728"/>
</g>
<!-- Node11&#45;&gt;Node1 -->
<g id="edge18" class="edge">
<title>Node11&#45;&gt;Node1</title>
<path fill="none" stroke="#191970" d="M891.3037,-86.9108C874.9741,-114.1687 839.6951,-172.5798 808.5,-221 802.5248,-230.2746 795.6893,-240.4604 789.9601,-248.8846"/>
<polygon fill="#191970" stroke="#191970" points="787.0245,-246.977 784.2706,-257.2077 792.8033,-250.9273 787.0245,-246.977"/>
</g>
<!-- Node12&#45;&gt;Node1 -->
<g id="edge20" class="edge">
<title>Node12&#45;&gt;Node1</title>
<path fill="none" stroke="#191970" d="M1037.4582,-86.6393C1036.6865,-104.3747 1033.0746,-133.8859 1018.5,-154 976.5508,-211.8932 897.2851,-241.0827 841.1276,-255.1179"/>
<polygon fill="#191970" stroke="#191970" points="840.1809,-251.7457 831.2753,-257.485 841.8163,-258.552 840.1809,-251.7457"/>
</g>
<!-- Node13&#45;&gt;Node1 -->
<g id="edge22" class="edge">
<title>Node13&#45;&gt;Node1</title>
<path fill="none" stroke="#191970" d="M1152.9367,-86.5999C1137.5307,-96.6331 1117.0791,-110.258 1099.5,-123 1042.3421,-164.4304 1038.1534,-190.4753 974.5,-221 939.1848,-237.9352 897.2552,-248.8449 861.1749,-255.7651"/>
<polygon fill="#191970" stroke="#191970" points="860.3625,-252.3558 851.1639,-257.6128 861.6331,-259.2395 860.3625,-252.3558"/>
</g>
<!-- Node14&#45;&gt;Node1 -->
<g id="edge24" class="edge">
<title>Node14&#45;&gt;Node1</title>
<path fill="none" stroke="#191970" d="M1260.7482,-86.5958C1231.4932,-95.5428 1195.2691,-108.0539 1164.5,-123 1092.5348,-157.9571 1087.6769,-191.0205 1013.5,-221 964.9142,-240.6365 907.2272,-252.0761 861.049,-258.6359"/>
<polygon fill="#191970" stroke="#191970" points="860.5102,-255.1769 851.078,-260.0024 861.4607,-262.1121 860.5102,-255.1769"/>
</g>
<!-- Node15&#45;&gt;Node1 -->
<g id="edge26" class="edge">
<title>Node15&#45;&gt;Node1</title>
<path fill="none" stroke="#191970" d="M415.5345,-148.0688C439.61,-158.3255 475.075,-175.1413 505.5,-190 533.1831,-203.5197 538.408,-210.8613 567.5,-221 613.2542,-236.9455 666.4051,-248.2721 707.8459,-255.6958"/>
<polygon fill="#191970" stroke="#191970" points="707.3922,-259.1696 717.847,-257.4529 708.6035,-252.2752 707.3922,-259.1696"/>
</g>
<!-- Node17&#45;&gt;Node1 -->
<g id="edge38" class="edge">
<title>Node17&#45;&gt;Node1</title>
<path fill="none" stroke="#191970" d="M1141.2624,-220.1295C1139.6613,-220.43 1138.0715,-220.7208 1136.5,-221 1042.9938,-237.6122 934.4461,-250.9679 861.3322,-258.9227"/>
<polygon fill="#191970" stroke="#191970" points="860.823,-255.4572 851.2559,-260.0091 861.5735,-262.4169 860.823,-255.4572"/>
</g>
<!-- Node18 -->
<g id="node19" class="node">
<title>Node18</title>
<polygon fill="none" stroke="#bfbfbf" points="1173.5,-129 1173.5,-148 1219.5,-148 1219.5,-129 1173.5,-129"/>
<text text-anchor="middle" x="1196.5" y="-136" font-family="Helvetica,sans-Serif" font-size="10.00" fill="#000000">stdio.h</text>
</g>
<!-- Node17&#45;&gt;Node18 -->
<g id="edge37" class="edge">
<title>Node17&#45;&gt;Node18</title>
<path fill="none" stroke="#191970" d="M1196.5,-190.2967C1196.5,-180.7699 1196.5,-168.3954 1196.5,-158.1306"/>
<polygon fill="#191970" stroke="#191970" points="1200.0001,-158.0549 1196.5,-148.055 1193.0001,-158.055 1200.0001,-158.0549"/>
</g>
</g>
</svg>
