<?xml version="1.0" encoding="UTF-8" standalone="no"?>
<!DOCTYPE svg PUBLIC "-//W3C//DTD SVG 1.1//EN"
 "http://www.w3.org/Graphics/SVG/1.1/DTD/svg11.dtd">
<!-- Generated by graphviz version 2.40.1 (20161225.0304)
 -->
<!-- Title: ViennaRNA/utils.h Pages: 1 -->
<svg width="540pt" height="151pt"
 viewBox="0.00 0.00 540.00 151.00" xmlns="http://www.w3.org/2000/svg" xmlns:xlink="http://www.w3.org/1999/xlink">
<g id="graph0" class="graph" transform="scale(1 1) rotate(0) translate(4 147)">
<title>ViennaRNA/utils.h</title>
<!-- Node24 -->
<g id="node1" class="node">
<title>Node24</title>
<polygon fill="#bfbfbf" stroke="#000000" points="221.5,-123.5 221.5,-142.5 319.5,-142.5 319.5,-123.5 221.5,-123.5"/>
<text text-anchor="middle" x="270.5" y="-130.5" font-family="Helvetica,sans-Serif" font-size="10.00" fill="#000000">ViennaRNA/utils.h</text>
</g>
<!-- Node25 -->
<g id="node2" class="node">
<title>Node25</title>
<g id="a_node2"><a xlink:href="hairpin__loops_8h.html" target="_top" xlink:title="Energy evaluation of hairpin loops for MFE and partition function calculations. ">
<polygon fill="none" stroke="#000000" points="0,-62 0,-81 137,-81 137,-62 0,-62"/>
<text text-anchor="middle" x="68.5" y="-69" font-family="Helvetica,sans-Serif" font-size="10.00" fill="#000000">ViennaRNA/hairpin_loops.h</text>
</a>
</g>
</g>
<!-- Node24&#45;&gt;Node25 -->
<g id="edge1" class="edge">
<title>Node24&#45;&gt;Node25</title>
<path fill="none" stroke="#191970" d="M229.1148,-120.4001C190.775,-108.7273 134.5859,-91.6202 99.8409,-81.0419"/>
<polygon fill="#191970" stroke="#191970" points="228.3516,-123.8263 238.9375,-123.3906 230.3905,-117.1297 228.3516,-123.8263"/>
</g>
<!-- Node27 -->
<g id="node4" class="node">
<title>Node27</title>
<g id="a_node4"><a xlink:href="interior__loops_8h.html" target="_top" xlink:title="Energy evaluation of interior loops for MFE and partition function calculations. ">
<polygon fill="none" stroke="#000000" points="155,-56.5 155,-86.5 256,-86.5 256,-56.5 155,-56.5"/>
<text text-anchor="start" x="163" y="-74.5" font-family="Helvetica,sans-Serif" font-size="10.00" fill="#000000">ViennaRNA/interior</text>
<text text-anchor="middle" x="205.5" y="-63.5" font-family="Helvetica,sans-Serif" font-size="10.00" fill="#000000">_loops.h</text>
</a>
</g>
</g>
<!-- Node24&#45;&gt;Node27 -->
<g id="edge3" class="edge">
<title>Node24&#45;&gt;Node27</title>
<path fill="none" stroke="#191970" d="M253.0478,-116.4875C243.1988,-107.1689 230.9838,-95.6116 221.4008,-86.5446"/>
<polygon fill="#191970" stroke="#191970" points="250.6743,-119.0602 260.3438,-123.3906 255.4853,-113.9754 250.6743,-119.0602"/>
</g>
<!-- Node28 -->
<g id="node5" class="node">
<title>Node28</title>
<g id="a_node5"><a xlink:href="multibranch__loops_8h.html" target="_top" xlink:title="Energy evaluation of multibranch loops for MFE and partition function calculations. ">
<polygon fill="none" stroke="#000000" points="274.5,-56.5 274.5,-86.5 396.5,-86.5 396.5,-56.5 274.5,-56.5"/>
<text text-anchor="start" x="282.5" y="-74.5" font-family="Helvetica,sans-Serif" font-size="10.00" fill="#000000">ViennaRNA/multibranch</text>
<text text-anchor="middle" x="335.5" y="-63.5" font-family="Helvetica,sans-Serif" font-size="10.00" fill="#000000">_loops.h</text>
</a>
</g>
</g>
<!-- Node24&#45;&gt;Node28 -->
<g id="edge5" class="edge">
<title>Node24&#45;&gt;Node28</title>
<path fill="none" stroke="#191970" d="M287.9522,-116.4875C297.8012,-107.1689 310.0162,-95.6116 319.5992,-86.5446"/>
<polygon fill="#191970" stroke="#191970" points="285.5147,-113.9754 280.6563,-123.3906 290.3257,-119.0602 285.5147,-113.9754"/>
</g>
<!-- Node29 -->
<g id="node6" class="node">
<title>Node29</title>
<g id="a_node6"><a xlink:href="pair__mat_8h_source.html" target="_top" xlink:title="ViennaRNA/pair_mat.h">
<polygon fill="none" stroke="#000000" points="415,-62 415,-81 532,-81 532,-62 415,-62"/>
<text text-anchor="middle" x="473.5" y="-69" font-family="Helvetica,sans-Serif" font-size="10.00" fill="#000000">ViennaRNA/pair_mat.h</text>
</a>
</g>
</g>
<!-- Node24&#45;&gt;Node29 -->
<g id="edge7" class="edge">
<title>Node24&#45;&gt;Node29</title>
<path fill="none" stroke="#191970" d="M312.0901,-120.4001C350.6197,-108.7273 407.0869,-91.6202 442.004,-81.0419"/>
<polygon fill="#191970" stroke="#191970" points="310.7744,-117.1415 302.2188,-123.3906 312.804,-123.8408 310.7744,-117.1415"/>
</g>
<!-- Node26 -->
<g id="node3" class="node">
<title>Node26</title>
<g id="a_node3"><a xlink:href="loop__energies_8h.html" target="_top" xlink:title="Energy evaluation for MFE and partition function calculations. ">
<polygon fill="none" stroke="#000000" points="135.5,-.5 135.5,-19.5 275.5,-19.5 275.5,-.5 135.5,-.5"/>
<text text-anchor="middle" x="205.5" y="-7.5" font-family="Helvetica,sans-Serif" font-size="10.00" fill="#000000">ViennaRNA/loop_energies.h</text>
</a>
</g>
</g>
<!-- Node25&#45;&gt;Node26 -->
<g id="edge2" class="edge">
<title>Node25&#45;&gt;Node26</title>
<path fill="none" stroke="#191970" d="M99.2648,-57.6895C125.1487,-46.0701 161.4815,-29.7601 184.2441,-19.5419"/>
<polygon fill="#191970" stroke="#191970" points="97.5958,-54.6022 89.9063,-61.8906 100.4626,-60.9883 97.5958,-54.6022"/>
</g>
<!-- Node27&#45;&gt;Node26 -->
<g id="edge4" class="edge">
<title>Node27&#45;&gt;Node26</title>
<path fill="none" stroke="#191970" d="M205.5,-46.2849C205.5,-36.9858 205.5,-26.9883 205.5,-19.8469"/>
<polygon fill="#191970" stroke="#191970" points="202.0001,-46.2977 205.5,-56.2977 209.0001,-46.2978 202.0001,-46.2977"/>
</g>
<!-- Node28&#45;&gt;Node26 -->
<g id="edge6" class="edge">
<title>Node28&#45;&gt;Node26</title>
<path fill="none" stroke="#191970" d="M294.5133,-52.1102C271.563,-41.2529 243.9652,-28.197 225.6454,-19.5303"/>
<polygon fill="#191970" stroke="#191970" points="293.1622,-55.3428 303.6984,-56.4554 296.1557,-49.0151 293.1622,-55.3428"/>
</g>
</g>
</svg>
