<?xml version="1.0" encoding="UTF-8" standalone="no"?>
<!DOCTYPE svg PUBLIC "-//W3C//DTD SVG 1.1//EN"
 "http://www.w3.org/Graphics/SVG/1.1/DTD/svg11.dtd">
<!-- Generated by graphviz version 2.40.1 (20161225.0304)
 -->
<!-- Title: ViennaRNA/utils.h Pages: 1 -->
<!--zoomable 386 -->
<svg id="main" version="1.1" xmlns="http://www.w3.org/2000/svg" xmlns:xlink="http://www.w3.org/1999/xlink" xml:space="preserve" onload="init(evt)">
<style type="text/css"><![CDATA[
.edge:hover path { stroke: red; }
.edge:hover polygon { stroke: red; fill: red; }
]]></style>
<script type="text/javascript"><![CDATA[
var edges = document.getElementsByTagName('g');
if (edges && edges.length) {
  for (var i=0;i<edges.length;i++) {
    if (edges[i].id.substr(0,4)=='edge') {
      edges[i].setAttribute('class','edge');
    }
  }
}
]]></script>
        <defs>
                <circle id="rim" cx="0" cy="0" r="7"/>
                <circle id="rim2" cx="0" cy="0" r="3.5"/>
                <g id="zoomPlus">
                        <use xlink:href="#rim" fill="#404040">
                                <set attributeName="fill" to="#808080" begin="zoomplus.mouseover" end="zoomplus.mouseout"/>
                        </use>
                        <path d="M-4,0h8M0,-4v8" fill="none" stroke="white" stroke-width="1.5" pointer-events="none"/>
                </g>
                <g id="zoomMin">
                        <use xlink:href="#rim" fill="#404040">
                                <set attributeName="fill" to="#808080" begin="zoomminus.mouseover" end="zoomminus.mouseout"/>
                        </use>
                        <path d="M-4,0h8" fill="none" stroke="white" stroke-width="1.5" pointer-events="none"/>
                </g>
                <g id="dirArrow">
                        <path fill="none" stroke="white" stroke-width="1.5" d="M0,-3.0v7 M-2.5,-0.5L0,-3.0L2.5,-0.5"/>
                </g>
               <g id="resetDef">
                       <use xlink:href="#rim2" fill="#404040">
                               <set attributeName="fill" to="#808080" begin="reset.mouseover" end="reset.mouseout"/>
                       </use>
               </g>
        </defs>

<script type="text/javascript">
var viewWidth = 1557;
var viewHeight = 386;
var sectionId = 'dynsection-0';
</script>
<script xlink:href="svgpan.js"/>
<svg id="graph" class="graph">
<g id="viewport">
<title>ViennaRNA/utils.h</title>
<!-- Node0 -->
<g id="node1" class="node">
<title>Node0</title>
<polygon fill="#bfbfbf" stroke="#000000" points="654,-358.5 654,-377.5 752,-377.5 752,-358.5 654,-358.5"/>
<text text-anchor="middle" x="703" y="-365.5" font-family="Helvetica,sans-Serif" font-size="10.00" fill="#000000">ViennaRNA/utils.h</text>
</g>
<!-- Node1 -->
<g id="node2" class="node">
<title>Node1</title>
<polygon fill="none" stroke="#bfbfbf" points="19,-.5 19,-19.5 65,-19.5 65,-.5 19,-.5"/>
<text text-anchor="middle" x="42" y="-7.5" font-family="Helvetica,sans-Serif" font-size="10.00" fill="#000000">stdio.h</text>
</g>
<!-- Node0&#45;&gt;Node1 -->
<g id="edge1" class="edge">
<title>Node0&#45;&gt;Node1</title>
<path fill="none" stroke="#191970" d="M653.8968,-366.4743C533.9741,-362.3599 228.8424,-349.4447 131,-322 68.2286,-304.3927 0,-321.1941 0,-256 0,-256 0,-256 0,-138.5 0,-97.6559 19.4082,-52.962 31.838,-28.5263"/>
<polygon fill="#191970" stroke="#191970" points="34.9528,-30.1228 36.5092,-19.6429 28.7572,-26.8649 34.9528,-30.1228"/>
</g>
<!-- Node2 -->
<g id="node3" class="node">
<title>Node2</title>
<polygon fill="none" stroke="#bfbfbf" points="887,-246.5 887,-265.5 939,-265.5 939,-246.5 887,-246.5"/>
<text text-anchor="middle" x="913" y="-253.5" font-family="Helvetica,sans-Serif" font-size="10.00" fill="#000000">stdarg.h</text>
</g>
<!-- Node0&#45;&gt;Node2 -->
<g id="edge2" class="edge">
<title>Node0&#45;&gt;Node2</title>
<path fill="none" stroke="#191970" d="M752.3463,-363.2852C787.3317,-357.9088 833.9253,-346.436 868,-322 884.6653,-310.0488 897.0925,-289.8826 904.6172,-274.9798"/>
<polygon fill="#191970" stroke="#191970" points="907.9103,-276.2039 909.0351,-265.6689 901.5862,-273.203 907.9103,-276.2039"/>
</g>
<!-- Node3 -->
<g id="node4" class="node">
<title>Node3</title>
<g id="a_node4"><a xlink:href="data__structures_8h.html" target="_top" xlink:title="Various data structures and pre&#45;processor macros. ">
<polygon fill="none" stroke="#000000" points="721.5,-246.5 721.5,-265.5 868.5,-265.5 868.5,-246.5 721.5,-246.5"/>
<text text-anchor="middle" x="795" y="-253.5" font-family="Helvetica,sans-Serif" font-size="10.00" fill="#000000">ViennaRNA/data_structures.h</text>
</a>
</g>
</g>
<!-- Node0&#45;&gt;Node3 -->
<g id="edge3" class="edge">
<title>Node0&#45;&gt;Node3</title>
<path fill="none" stroke="#191970" d="M703.6658,-358.0781C705.0448,-344.2481 709.2502,-318.9678 722,-302 728.322,-293.5865 749.6952,-280.5514 767.6931,-270.5023"/>
<polygon fill="#191970" stroke="#191970" points="769.6167,-273.4391 776.6996,-265.5598 766.2491,-267.3024 769.6167,-273.4391"/>
</g>
<!-- Node20 -->
<g id="node21" class="node">
<title>Node20</title>
<g id="a_node21"><a xlink:href="structure__utils_8h.html" target="_top" xlink:title="Various utility&#45; and helper&#45;functions for secondary structure parsing, converting, etc. ">
<polygon fill="none" stroke="#000000" points="30,-56.5 30,-86.5 140,-86.5 140,-56.5 30,-56.5"/>
<text text-anchor="start" x="38" y="-74.5" font-family="Helvetica,sans-Serif" font-size="10.00" fill="#000000">ViennaRNA/structure</text>
<text text-anchor="middle" x="85" y="-63.5" font-family="Helvetica,sans-Serif" font-size="10.00" fill="#000000">_utils.h</text>
</a>
</g>
</g>
<!-- Node0&#45;&gt;Node20 -->
<g id="edge46" class="edge">
<title>Node0&#45;&gt;Node20</title>
<path fill="none" stroke="#191970" d="M653.8309,-364.9132C499.986,-354.6057 38,-318.4535 38,-256 38,-256 38,-256 38,-200 38,-161.6644 56.6781,-120.5958 70.4849,-95.4747"/>
<polygon fill="#191970" stroke="#191970" points="73.5924,-97.0903 75.4888,-86.6666 67.506,-93.6326 73.5924,-97.0903"/>
</g>
<!-- Node21 -->
<g id="node22" class="node">
<title>Node21</title>
<g id="a_node22"><a xlink:href="string__utils_8h.html" target="_top" xlink:title="General utility&#45; and helper&#45;functions for RNA sequence and structure strings used throughout the Vien...">
<polygon fill="none" stroke="#000000" points="731.5,-302.5 731.5,-321.5 858.5,-321.5 858.5,-302.5 731.5,-302.5"/>
<text text-anchor="middle" x="795" y="-309.5" font-family="Helvetica,sans-Serif" font-size="10.00" fill="#000000">ViennaRNA/string_utils.h</text>
</a>
</g>
</g>
<!-- Node0&#45;&gt;Node21 -->
<g id="edge43" class="edge">
<title>Node0&#45;&gt;Node21</title>
<path fill="none" stroke="#191970" d="M719.0252,-358.2455C733.1408,-349.6534 753.9263,-337.0014 770.1899,-327.1018"/>
<polygon fill="#191970" stroke="#191970" points="772.4363,-329.8319 779.1585,-321.6427 768.7966,-323.8525 772.4363,-329.8319"/>
</g>
<!-- Node22 -->
<g id="node23" class="node">
<title>Node22</title>
<g id="a_node23"><a xlink:href="file__utils_8h.html" target="_top" xlink:title="Several utilities for file handling. ">
<polygon fill="none" stroke="#000000" points="915,-302.5 915,-321.5 1031,-321.5 1031,-302.5 915,-302.5"/>
<text text-anchor="middle" x="973" y="-309.5" font-family="Helvetica,sans-Serif" font-size="10.00" fill="#000000">ViennaRNA/file_utils.h</text>
</a>
</g>
</g>
<!-- Node0&#45;&gt;Node22 -->
<g id="edge47" class="edge">
<title>Node0&#45;&gt;Node22</title>
<path fill="none" stroke="#191970" d="M749.1079,-358.4369C795.6075,-348.7925 867.4359,-333.8948 917.14,-323.5858"/>
<polygon fill="#191970" stroke="#191970" points="918.0015,-326.9817 927.0823,-321.5237 916.5799,-320.1275 918.0015,-326.9817"/>
</g>
<!-- Node23 -->
<g id="node24" class="node">
<title>Node23</title>
<g id="a_node24"><a xlink:href="alphabet_8h.html" target="_top" xlink:title="Functions to process, convert, and generally handle different nucleotide and/or base pair alphabets...">
<polygon fill="none" stroke="#000000" points="205,-190.5 205,-209.5 321,-209.5 321,-190.5 205,-190.5"/>
<text text-anchor="middle" x="263" y="-197.5" font-family="Helvetica,sans-Serif" font-size="10.00" fill="#000000">ViennaRNA/alphabet.h</text>
</a>
</g>
</g>
<!-- Node0&#45;&gt;Node23 -->
<g id="edge48" class="edge">
<title>Node0&#45;&gt;Node23</title>
<path fill="none" stroke="#191970" d="M678.083,-358.4862C603.6752,-330.076 382.9741,-245.8083 297.4244,-213.1439"/>
<polygon fill="#191970" stroke="#191970" points="298.5064,-209.8106 287.9158,-209.5133 296.0095,-216.3501 298.5064,-209.8106"/>
</g>
<!-- Node4 -->
<g id="node5" class="node">
<title>Node4</title>
<g id="a_node5"><a xlink:href="energy__const_8h.html" target="_top" xlink:title="Energy parameter constants. ">
<polygon fill="none" stroke="#000000" points="721,-62 721,-81 859,-81 859,-62 721,-62"/>
<text text-anchor="middle" x="790" y="-69" font-family="Helvetica,sans-Serif" font-size="10.00" fill="#000000">ViennaRNA/energy_const.h</text>
</a>
</g>
</g>
<!-- Node3&#45;&gt;Node4 -->
<g id="edge4" class="edge">
<title>Node3&#45;&gt;Node4</title>
<path fill="none" stroke="#191970" d="M815.3173,-246.4051C856.7691,-225.4912 944.4586,-173.6038 911,-123 898.3335,-103.8428 876.9384,-91.7891 855.6302,-84.2144"/>
<polygon fill="#191970" stroke="#191970" points="856.47,-80.8071 845.8777,-81.0399 854.3033,-87.4633 856.47,-80.8071"/>
</g>
<!-- Node6 -->
<g id="node7" class="node">
<title>Node6</title>
<g id="a_node7"><a xlink:href="fold__compound_8h.html" target="_top" xlink:title="The Basic Fold Compound API. ">
<polygon fill="none" stroke="#000000" points="550,-190.5 550,-209.5 696,-209.5 696,-190.5 550,-190.5"/>
<text text-anchor="middle" x="623" y="-197.5" font-family="Helvetica,sans-Serif" font-size="10.00" fill="#000000">ViennaRNA/fold_compound.h</text>
</a>
</g>
</g>
<!-- Node3&#45;&gt;Node6 -->
<g id="edge6" class="edge">
<title>Node3&#45;&gt;Node6</title>
<path fill="none" stroke="#191970" d="M765.4321,-246.3733C736.8312,-237.0613 693.3212,-222.8953 661.9181,-212.671"/>
<polygon fill="#191970" stroke="#191970" points="662.7743,-209.269 652.182,-209.5011 660.6072,-215.9251 662.7743,-209.269"/>
</g>
<!-- Node7 -->
<g id="node8" class="node">
<title>Node7</title>
<g id="a_node8"><a xlink:href="model_8h.html" target="_top" xlink:title="The model details data structure and its corresponding modifiers. ">
<polygon fill="none" stroke="#000000" points="485,-62 485,-81 591,-81 591,-62 485,-62"/>
<text text-anchor="middle" x="538" y="-69" font-family="Helvetica,sans-Serif" font-size="10.00" fill="#000000">ViennaRNA/model.h</text>
</a>
</g>
</g>
<!-- Node3&#45;&gt;Node7 -->
<g id="edge35" class="edge">
<title>Node3&#45;&gt;Node7</title>
<path fill="none" stroke="#191970" d="M794.0911,-246.2655C791.2573,-221.6648 780.3272,-156.5773 742,-123 721.1359,-104.7216 653.2278,-90.005 601.4378,-81.0573"/>
<polygon fill="#191970" stroke="#191970" points="601.7571,-77.5617 591.3135,-79.3454 600.5899,-84.4637 601.7571,-77.5617"/>
</g>
<!-- Node8 -->
<g id="node9" class="node">
<title>Node8</title>
<g id="a_node9"><a xlink:href="params_8h.html" target="_top" xlink:title="Functions to deal with sets of energy parameters. ">
<polygon fill="none" stroke="#000000" points="790,-129 790,-148 902,-148 902,-129 790,-129"/>
<text text-anchor="middle" x="846" y="-136" font-family="Helvetica,sans-Serif" font-size="10.00" fill="#000000">ViennaRNA/params.h</text>
</a>
</g>
</g>
<!-- Node3&#45;&gt;Node8 -->
<g id="edge36" class="edge">
<title>Node3&#45;&gt;Node8</title>
<path fill="none" stroke="#191970" d="M795.2617,-246.3845C800.3703,-226.9331 819.2102,-182.6138 832.7617,-157.2462"/>
<polygon fill="#191970" stroke="#191970" points="835.9722,-158.6783 837.8343,-148.2484 829.8745,-155.2406 835.9722,-158.6783"/>
</g>
<!-- Node10 -->
<g id="node11" class="node">
<title>Node10</title>
<g id="a_node11"><a xlink:href="dp__matrices_8h.html" target="_top" xlink:title="Functions to deal with standard dynamic programming (DP) matrices. ">
<polygon fill="none" stroke="#000000" points="1218.5,-129 1218.5,-148 1351.5,-148 1351.5,-129 1218.5,-129"/>
<text text-anchor="middle" x="1285" y="-136" font-family="Helvetica,sans-Serif" font-size="10.00" fill="#000000">ViennaRNA/dp_matrices.h</text>
</a>
</g>
</g>
<!-- Node3&#45;&gt;Node10 -->
<g id="edge37" class="edge">
<title>Node3&#45;&gt;Node10</title>
<path fill="none" stroke="#191970" d="M865.0759,-246.4546C866.3934,-246.3015 867.7024,-246.1498 869,-246 1013.8077,-229.2815 1061.6971,-268.984 1195,-210 1222.8164,-197.6918 1247.8943,-172.2866 1264.8291,-155.3159"/>
<polygon fill="#191970" stroke="#191970" points="1267.38,-157.7155 1272.0175,-148.1895 1262.4517,-152.7443 1267.38,-157.7155"/>
</g>
<!-- Node11 -->
<g id="node12" class="node">
<title>Node11</title>
<g id="a_node12"><a xlink:href="constraints_8h.html" target="_top" xlink:title="Functions and data structures for constraining secondary structure predictions and evaluation...">
<polygon fill="none" stroke="#000000" points="1034,-129 1034,-148 1162,-148 1162,-129 1034,-129"/>
<text text-anchor="middle" x="1098" y="-136" font-family="Helvetica,sans-Serif" font-size="10.00" fill="#000000">ViennaRNA/constraints.h</text>
</a>
</g>
</g>
<!-- Node3&#45;&gt;Node11 -->
<g id="edge38" class="edge">
<title>Node3&#45;&gt;Node11</title>
<path fill="none" stroke="#191970" d="M854.1576,-246.4709C908.2782,-237.6756 983.7425,-223.9079 1011,-210 1037.1556,-196.6544 1061.0579,-172.0993 1077.5145,-155.5359"/>
<polygon fill="#191970" stroke="#191970" points="1080.3423,-157.6605 1084.9724,-148.1309 1075.4101,-152.6931 1080.3423,-157.6605"/>
</g>
<!-- Node17 -->
<g id="node18" class="node">
<title>Node17</title>
<g id="a_node18"><a xlink:href="grammar_8h.html" target="_top" xlink:title="Implementations for the RNA folding grammar. ">
<polygon fill="none" stroke="#000000" points="304,-129 304,-148 422,-148 422,-129 304,-129"/>
<text text-anchor="middle" x="363" y="-136" font-family="Helvetica,sans-Serif" font-size="10.00" fill="#000000">ViennaRNA/grammar.h</text>
</a>
</g>
</g>
<!-- Node3&#45;&gt;Node17 -->
<g id="edge39" class="edge">
<title>Node3&#45;&gt;Node17</title>
<path fill="none" stroke="#191970" d="M721.2803,-247.7412C667.8872,-240.4033 594.548,-228.0238 532,-210 478.349,-194.5399 418.6261,-168.6631 386.3234,-152.6444"/>
<polygon fill="#191970" stroke="#191970" points="387.7159,-149.426 377.2158,-148.012 384.5424,-155.6653 387.7159,-149.426"/>
</g>
<!-- Node18 -->
<g id="node19" class="node">
<title>Node18</title>
<g id="a_node19"><a xlink:href="structured__domains_8h.html" target="_top" xlink:title="This module provides interfaces that deal with additional structured domains in the folding grammar...">
<polygon fill="none" stroke="#000000" points="618.5,-123.5 618.5,-153.5 733.5,-153.5 733.5,-123.5 618.5,-123.5"/>
<text text-anchor="start" x="626.5" y="-141.5" font-family="Helvetica,sans-Serif" font-size="10.00" fill="#000000">ViennaRNA/structured</text>
<text text-anchor="middle" x="676" y="-130.5" font-family="Helvetica,sans-Serif" font-size="10.00" fill="#000000">_domains.h</text>
</a>
</g>
</g>
<!-- Node3&#45;&gt;Node18 -->
<g id="edge40" class="edge">
<title>Node3&#45;&gt;Node18</title>
<path fill="none" stroke="#191970" d="M784.8941,-246.1506C775.3621,-236.8507 760.6838,-222.5045 748,-210 731.3818,-193.6167 712.6832,-175.0438 698.5069,-160.9341"/>
<polygon fill="#191970" stroke="#191970" points="700.6941,-158.1728 691.1384,-153.5968 695.7549,-163.133 700.6941,-158.1728"/>
</g>
<!-- Node19 -->
<g id="node20" class="node">
<title>Node19</title>
<g id="a_node20"><a xlink:href="unstructured__domains_8h.html" target="_top" xlink:title="Functions to modify unstructured domains, e.g. to incorporate ligands binding to unpaired stretches...">
<polygon fill="none" stroke="#000000" points="160.5,-123.5 160.5,-153.5 285.5,-153.5 285.5,-123.5 160.5,-123.5"/>
<text text-anchor="start" x="168.5" y="-141.5" font-family="Helvetica,sans-Serif" font-size="10.00" fill="#000000">ViennaRNA/unstructured</text>
<text text-anchor="middle" x="223" y="-130.5" font-family="Helvetica,sans-Serif" font-size="10.00" fill="#000000">_domains.h</text>
</a>
</g>
</g>
<!-- Node3&#45;&gt;Node19 -->
<g id="edge41" class="edge">
<title>Node3&#45;&gt;Node19</title>
<path fill="none" stroke="#191970" d="M721.298,-248.5501C655.7826,-240.9053 557.8514,-227.6422 474,-210 403.7794,-195.2257 324.4367,-172.5105 274.0023,-156.6604"/>
<polygon fill="#191970" stroke="#191970" points="274.9023,-153.2741 264.3121,-153.5863 272.7856,-159.9464 274.9023,-153.2741"/>
</g>
<!-- Node3&#45;&gt;Node20 -->
<g id="edge42" class="edge">
<title>Node3&#45;&gt;Node20</title>
<path fill="none" stroke="#191970" d="M721.3606,-253.4299C569.9034,-247.5446 234.045,-231.8912 187,-210 137.3753,-186.9083 103.1764,-129.1836 89.8939,-96.0028"/>
<polygon fill="#191970" stroke="#191970" points="93.1641,-94.7541 86.4493,-86.5588 86.5878,-97.1527 93.1641,-94.7541"/>
</g>
<!-- Node5 -->
<g id="node6" class="node">
<title>Node5</title>
<polygon fill="none" stroke="#bfbfbf" points="766,-.5 766,-19.5 814,-19.5 814,-.5 766,-.5"/>
<text text-anchor="middle" x="790" y="-7.5" font-family="Helvetica,sans-Serif" font-size="10.00" fill="#000000">limits.h</text>
</g>
<!-- Node4&#45;&gt;Node5 -->
<g id="edge5" class="edge">
<title>Node4&#45;&gt;Node5</title>
<path fill="none" stroke="#191970" d="M790,-61.8906C790,-53.3657 790,-40.6392 790,-29.9235"/>
<polygon fill="#191970" stroke="#191970" points="793.5001,-29.7448 790,-19.7449 786.5001,-29.7449 793.5001,-29.7448"/>
</g>
<!-- Node6&#45;&gt;Node7 -->
<g id="edge7" class="edge">
<title>Node6&#45;&gt;Node7</title>
<path fill="none" stroke="#191970" d="M566.8474,-190.4591C527.9009,-182.5649 480.9605,-170.0553 469,-154 450.7396,-129.488 484.0463,-102.5904 510.4375,-86.3811"/>
<polygon fill="#191970" stroke="#191970" points="512.5442,-89.2025 519.3881,-81.1148 508.9944,-83.1693 512.5442,-89.2025"/>
</g>
<!-- Node6&#45;&gt;Node8 -->
<g id="edge8" class="edge">
<title>Node6&#45;&gt;Node8</title>
<path fill="none" stroke="#191970" d="M657.8438,-190.3906C696.6286,-179.6944 759.3977,-162.3836 801.6559,-150.7294"/>
<polygon fill="#191970" stroke="#191970" points="802.6913,-154.0746 811.4009,-148.0419 800.8303,-147.3265 802.6913,-154.0746"/>
</g>
<!-- Node9 -->
<g id="node10" class="node">
<title>Node9</title>
<g id="a_node10"><a xlink:href="sequence_8h.html" target="_top" xlink:title="Functions and data structures related to sequence representations. ">
<polygon fill="none" stroke="#000000" points="478,-129 478,-148 600,-148 600,-129 478,-129"/>
<text text-anchor="middle" x="539" y="-136" font-family="Helvetica,sans-Serif" font-size="10.00" fill="#000000">ViennaRNA/sequence.h</text>
</a>
</g>
</g>
<!-- Node6&#45;&gt;Node9 -->
<g id="edge12" class="edge">
<title>Node6&#45;&gt;Node9</title>
<path fill="none" stroke="#191970" d="M609.875,-190.3906C596.56,-180.6421 575.7406,-165.3994 560.1053,-153.9521"/>
<polygon fill="#191970" stroke="#191970" points="562.1691,-151.1253 552.0328,-148.0419 558.0339,-156.7734 562.1691,-151.1253"/>
</g>
<!-- Node6&#45;&gt;Node10 -->
<g id="edge13" class="edge">
<title>Node6&#45;&gt;Node10</title>
<path fill="none" stroke="#191970" d="M696.2432,-195.0538C801.4478,-187.6763 1001.3621,-172.6398 1171,-154 1183.3763,-152.6401 1196.4847,-151.0234 1209.2348,-149.3557"/>
<polygon fill="#191970" stroke="#191970" points="1209.9101,-152.7968 1219.3625,-148.0112 1208.9888,-145.8577 1209.9101,-152.7968"/>
</g>
<!-- Node6&#45;&gt;Node11 -->
<g id="edge15" class="edge">
<title>Node6&#45;&gt;Node11</title>
<path fill="none" stroke="#191970" d="M696.1778,-190.5254C785.1336,-179.008 934.4141,-159.6801 1023.8201,-148.1043"/>
<polygon fill="#191970" stroke="#191970" points="1024.4157,-151.5565 1033.8835,-146.8014 1023.5168,-144.6145 1024.4157,-151.5565"/>
</g>
<!-- Node6&#45;&gt;Node17 -->
<g id="edge27" class="edge">
<title>Node6&#45;&gt;Node17</title>
<path fill="none" stroke="#191970" d="M582.6603,-190.4581C537.0232,-179.6632 462.643,-162.0694 413.266,-150.3899"/>
<polygon fill="#191970" stroke="#191970" points="413.9715,-146.9602 403.4344,-148.0643 412.3602,-153.7722 413.9715,-146.9602"/>
</g>
<!-- Node6&#45;&gt;Node18 -->
<g id="edge29" class="edge">
<title>Node6&#45;&gt;Node18</title>
<path fill="none" stroke="#191970" d="M631.2813,-190.3906C637.9892,-182.6068 647.7159,-171.3202 656.3859,-161.2597"/>
<polygon fill="#191970" stroke="#191970" points="659.1578,-163.4046 663.0347,-153.5446 653.8552,-158.8349 659.1578,-163.4046"/>
</g>
<!-- Node6&#45;&gt;Node19 -->
<g id="edge30" class="edge">
<title>Node6&#45;&gt;Node19</title>
<path fill="none" stroke="#191970" d="M549.8062,-191.2828C485.4524,-183.264 389.0527,-170.3947 295.6763,-154.0442"/>
<polygon fill="#191970" stroke="#191970" points="296.2321,-150.5883 285.7757,-152.2953 295.0143,-157.4816 296.2321,-150.5883"/>
</g>
<!-- Node8&#45;&gt;Node3 -->
<g id="edge10" class="edge">
<title>Node8&#45;&gt;Node3</title>
<path fill="none" stroke="#191970" d="M845.7033,-148.2484C840.5324,-167.8124 821.6735,-212.1449 808.1461,-237.4263"/>
<polygon fill="#191970" stroke="#191970" points="804.9567,-235.9562 803.0854,-246.3845 811.0514,-239.3993 804.9567,-235.9562"/>
</g>
<!-- Node8&#45;&gt;Node4 -->
<g id="edge9" class="edge">
<title>Node8&#45;&gt;Node4</title>
<path fill="none" stroke="#191970" d="M837.9766,-128.9005C829.2439,-118.4525 815.1018,-101.5325 804.4292,-88.7635"/>
<polygon fill="#191970" stroke="#191970" points="807.1072,-86.5099 798.0086,-81.0817 801.7362,-90.9991 807.1072,-86.5099"/>
</g>
<!-- Node8&#45;&gt;Node7 -->
<g id="edge11" class="edge">
<title>Node8&#45;&gt;Node7</title>
<path fill="none" stroke="#191970" d="M803.0647,-128.9587C794.1219,-126.981 784.7546,-124.9164 776,-123 712.9619,-109.2006 640.4828,-93.5477 592.233,-83.1576"/>
<polygon fill="#191970" stroke="#191970" points="592.8295,-79.7059 582.3169,-81.0229 591.3563,-86.5492 592.8295,-79.7059"/>
</g>
<!-- Node10&#45;&gt;Node3 -->
<g id="edge14" class="edge">
<title>Node10&#45;&gt;Node3</title>
<path fill="none" stroke="#191970" d="M1283.0017,-148.1895C1273.5116,-164.1976 1245.0765,-195.8067 1213,-210 1079.6971,-268.984 1031.8077,-229.2815 887,-246 884.3214,-246.3093 881.5944,-246.6263 878.8368,-246.9483"/>
<polygon fill="#191970" stroke="#191970" points="878.2736,-243.4903 868.7494,-248.1315 879.0891,-250.4427 878.2736,-243.4903"/>
</g>
<!-- Node11&#45;&gt;Node3 -->
<g id="edge16" class="edge">
<title>Node11&#45;&gt;Node3</title>
<path fill="none" stroke="#191970" d="M1096.0685,-148.1309C1086.8201,-163.763 1059.4356,-194.4705 1029,-210 1003.2864,-223.1201 934.6722,-236.1155 878.289,-244.9294"/>
<polygon fill="#191970" stroke="#191970" points="877.6281,-241.4899 868.2772,-246.4709 878.6934,-248.4083 877.6281,-241.4899"/>
</g>
<!-- Node12 -->
<g id="node13" class="node">
<title>Node12</title>
<g id="a_node13"><a xlink:href="constraints__hard_8h.html" target="_top" xlink:title="Functions and data structures for handling of secondary structure hard constraints. ">
<polygon fill="none" stroke="#000000" points="1429.5,-56.5 1429.5,-86.5 1548.5,-86.5 1548.5,-56.5 1429.5,-56.5"/>
<text text-anchor="start" x="1437.5" y="-74.5" font-family="Helvetica,sans-Serif" font-size="10.00" fill="#000000">ViennaRNA/constraints</text>
<text text-anchor="middle" x="1489" y="-63.5" font-family="Helvetica,sans-Serif" font-size="10.00" fill="#000000">_hard.h</text>
</a>
</g>
</g>
<!-- Node11&#45;&gt;Node12 -->
<g id="edge17" class="edge">
<title>Node11&#45;&gt;Node12</title>
<path fill="none" stroke="#191970" d="M1162.2613,-129.53C1225.3691,-120.4321 1324.5912,-105.3594 1419.3061,-87.2648"/>
<polygon fill="#191970" stroke="#191970" points="1420.185,-90.6599 1429.343,-85.3325 1418.8616,-83.7861 1420.185,-90.6599"/>
</g>
<!-- Node13 -->
<g id="node14" class="node">
<title>Node13</title>
<g id="a_node14"><a xlink:href="constraints__soft_8h.html" target="_top" xlink:title="Functions and data structures for secondary structure soft constraints. ">
<polygon fill="none" stroke="#000000" points="877.5,-56.5 877.5,-86.5 996.5,-86.5 996.5,-56.5 877.5,-56.5"/>
<text text-anchor="start" x="885.5" y="-74.5" font-family="Helvetica,sans-Serif" font-size="10.00" fill="#000000">ViennaRNA/constraints</text>
<text text-anchor="middle" x="937" y="-63.5" font-family="Helvetica,sans-Serif" font-size="10.00" fill="#000000">_soft.h</text>
</a>
</g>
</g>
<!-- Node11&#45;&gt;Node13 -->
<g id="edge19" class="edge">
<title>Node11&#45;&gt;Node13</title>
<path fill="none" stroke="#191970" d="M1074.9326,-128.9005C1050.9245,-118.9096 1012.6954,-103.0006 982.5663,-90.4624"/>
<polygon fill="#191970" stroke="#191970" points="983.6743,-87.1325 973.0971,-86.5218 980.9848,-93.5953 983.6743,-87.1325"/>
</g>
<!-- Node14 -->
<g id="node15" class="node">
<title>Node14</title>
<g id="a_node15"><a xlink:href="constraints__SHAPE_8h.html" target="_top" xlink:title="This module provides function to incorporate SHAPE reactivity data into the folding recursions by mea...">
<polygon fill="none" stroke="#000000" points="1014.5,-56.5 1014.5,-86.5 1133.5,-86.5 1133.5,-56.5 1014.5,-56.5"/>
<text text-anchor="start" x="1022.5" y="-74.5" font-family="Helvetica,sans-Serif" font-size="10.00" fill="#000000">ViennaRNA/constraints</text>
<text text-anchor="middle" x="1074" y="-63.5" font-family="Helvetica,sans-Serif" font-size="10.00" fill="#000000">_SHAPE.h</text>
</a>
</g>
</g>
<!-- Node11&#45;&gt;Node14 -->
<g id="edge21" class="edge">
<title>Node11&#45;&gt;Node14</title>
<path fill="none" stroke="#191970" d="M1094.5614,-128.9005C1091.4938,-120.3368 1086.8687,-107.4252 1082.7816,-96.0152"/>
<polygon fill="#191970" stroke="#191970" points="1086.0482,-94.7557 1079.3809,-86.5218 1079.4583,-97.1163 1086.0482,-94.7557"/>
</g>
<!-- Node15 -->
<g id="node16" class="node">
<title>Node15</title>
<g id="a_node16"><a xlink:href="perturbation__fold_8h.html" target="_top" xlink:title="Find a vector of perturbation energies that minimizes the discripancies between predicted and observe...">
<polygon fill="none" stroke="#000000" points="1152,-56.5 1152,-86.5 1274,-86.5 1274,-56.5 1152,-56.5"/>
<text text-anchor="start" x="1160" y="-74.5" font-family="Helvetica,sans-Serif" font-size="10.00" fill="#000000">ViennaRNA/perturbation</text>
<text text-anchor="middle" x="1213" y="-63.5" font-family="Helvetica,sans-Serif" font-size="10.00" fill="#000000">_fold.h</text>
</a>
</g>
</g>
<!-- Node11&#45;&gt;Node15 -->
<g id="edge23" class="edge">
<title>Node11&#45;&gt;Node15</title>
<path fill="none" stroke="#191970" d="M1114.4767,-128.9005C1131.1057,-119.2123 1157.2862,-103.9593 1178.4807,-91.6113"/>
<polygon fill="#191970" stroke="#191970" points="1180.3378,-94.58 1187.2164,-86.5218 1176.8139,-88.5317 1180.3378,-94.58"/>
</g>
<!-- Node16 -->
<g id="node17" class="node">
<title>Node16</title>
<g id="a_node17"><a xlink:href="constraints__ligand_8h.html" target="_top" xlink:title="Functions for incorporation of ligands binding to hairpin and interior loop motifs using the soft con...">
<polygon fill="none" stroke="#000000" points="1292.5,-56.5 1292.5,-86.5 1411.5,-86.5 1411.5,-56.5 1292.5,-56.5"/>
<text text-anchor="start" x="1300.5" y="-74.5" font-family="Helvetica,sans-Serif" font-size="10.00" fill="#000000">ViennaRNA/constraints</text>
<text text-anchor="middle" x="1352" y="-63.5" font-family="Helvetica,sans-Serif" font-size="10.00" fill="#000000">_ligand.h</text>
</a>
</g>
</g>
<!-- Node11&#45;&gt;Node16 -->
<g id="edge25" class="edge">
<title>Node11&#45;&gt;Node16</title>
<path fill="none" stroke="#191970" d="M1134.1223,-128.9717C1173.3316,-118.6291 1236.8099,-101.8848 1285.1598,-89.1311"/>
<polygon fill="#191970" stroke="#191970" points="1286.148,-92.4902 1294.9245,-86.5553 1284.3625,-85.7217 1286.148,-92.4902"/>
</g>
<!-- Node12&#45;&gt;Node3 -->
<g id="edge18" class="edge">
<title>Node12&#45;&gt;Node3</title>
<path fill="none" stroke="#191970" d="M1474.1638,-86.762C1443.8195,-116.8214 1371.0818,-183.1016 1295,-210 1122.6986,-270.9164 1065.0624,-228.4252 878.871,-245.9821"/>
<polygon fill="#191970" stroke="#191970" points="878.3586,-242.5156 868.7518,-246.9831 879.0478,-249.4816 878.3586,-242.5156"/>
</g>
<!-- Node13&#45;&gt;Node3 -->
<g id="edge20" class="edge">
<title>Node13&#45;&gt;Node3</title>
<path fill="none" stroke="#191970" d="M937.5978,-86.5455C937.8523,-115.0541 934.0558,-177.0329 899,-210 882.8824,-225.1573 860.9462,-235.8592 841.3743,-243.1019"/>
<polygon fill="#191970" stroke="#191970" points="839.9834,-239.8803 831.6963,-246.4814 842.2911,-246.489 839.9834,-239.8803"/>
</g>
<!-- Node14&#45;&gt;Node3 -->
<g id="edge22" class="edge">
<title>Node14&#45;&gt;Node3</title>
<path fill="none" stroke="#191970" d="M1058.5619,-86.7761C1025.9379,-118.8201 950.4867,-191.6201 920,-210 895.7193,-224.6384 866.024,-235.8066 841.6701,-243.4708"/>
<polygon fill="#191970" stroke="#191970" points="840.4804,-240.1744 831.9361,-246.439 842.5222,-246.87 840.4804,-240.1744"/>
</g>
<!-- Node15&#45;&gt;Node3 -->
<g id="edge24" class="edge">
<title>Node15&#45;&gt;Node3</title>
<path fill="none" stroke="#191970" d="M1208.5526,-86.6818C1202.5942,-104.7316 1190.4576,-134.8185 1171,-154 1130.7999,-193.6298 1110.6686,-192.5 1057,-210 1023.45,-220.9398 936.587,-235.2113 872.0198,-244.938"/>
<polygon fill="#191970" stroke="#191970" points="871.2318,-241.5169 861.8602,-246.4588 872.2682,-248.4397 871.2318,-241.5169"/>
</g>
<!-- Node16&#45;&gt;Node3 -->
<g id="edge26" class="edge">
<title>Node16&#45;&gt;Node3</title>
<path fill="none" stroke="#191970" d="M1359.0569,-86.7986C1366.0406,-104.4196 1373.9696,-133.5627 1361,-154 1329.6801,-203.3534 1298.3471,-194.4533 1242,-210 1088.5023,-252.3515 1041.5187,-229.2713 879.1117,-245.9312"/>
<polygon fill="#191970" stroke="#191970" points="878.3313,-242.4943 868.7569,-247.0309 879.0706,-249.4552 878.3313,-242.4943"/>
</g>
<!-- Node17&#45;&gt;Node3 -->
<g id="edge28" class="edge">
<title>Node17&#45;&gt;Node3</title>
<path fill="none" stroke="#191970" d="M388.4227,-148.012C424.2046,-163.1978 490.7989,-192.9406 550,-210 605.1782,-225.9002 668.7545,-237.4077 717.3694,-244.9364"/>
<polygon fill="#191970" stroke="#191970" points="717.0944,-248.4349 727.5078,-246.4827 718.1498,-241.5149 717.0944,-248.4349"/>
</g>
<!-- Node19&#45;&gt;Node3 -->
<g id="edge31" class="edge">
<title>Node19&#45;&gt;Node3</title>
<path fill="none" stroke="#191970" d="M277.6228,-153.5863C331.8172,-169.4465 417.098,-194.2407 492,-210 565.7197,-225.5105 650.3224,-237.6362 711.4173,-245.5351"/>
<polygon fill="#191970" stroke="#191970" points="711.0323,-249.0143 721.3963,-246.8148 711.9227,-242.0711 711.0323,-249.0143"/>
</g>
<!-- Node19&#45;&gt;Node20 -->
<g id="edge32" class="edge">
<title>Node19&#45;&gt;Node20</title>
<path fill="none" stroke="#191970" d="M192.0301,-123.4639C172.3708,-113.9191 146.7216,-101.4663 125.4607,-91.144"/>
<polygon fill="#191970" stroke="#191970" points="126.8685,-87.9368 116.344,-86.7177 123.8112,-94.2339 126.8685,-87.9368"/>
</g>
<!-- Node20&#45;&gt;Node1 -->
<g id="edge33" class="edge">
<title>Node20&#45;&gt;Node1</title>
<path fill="none" stroke="#191970" d="M74.3708,-56.2977C68.4019,-47.7609 60.9162,-37.0545 54.6471,-28.0883"/>
<polygon fill="#191970" stroke="#191970" points="57.4835,-26.0368 48.8848,-19.8469 51.7466,-30.048 57.4835,-26.0368"/>
</g>
<!-- Node20&#45;&gt;Node3 -->
<g id="edge34" class="edge">
<title>Node20&#45;&gt;Node3</title>
<path fill="none" stroke="#191970" d="M96.371,-86.5588C114.2659,-116.8699 150.2417,-184.5195 205,-210 250.0061,-230.9425 559.335,-246.1761 711.2659,-252.61"/>
<polygon fill="#191970" stroke="#191970" points="711.346,-256.1163 721.4842,-253.0395 711.6401,-249.1225 711.346,-256.1163"/>
</g>
<!-- Node21&#45;&gt;Node2 -->
<g id="edge44" class="edge">
<title>Node21&#45;&gt;Node2</title>
<path fill="none" stroke="#191970" d="M815.2849,-302.3733C834.1421,-293.4241 862.446,-279.9917 883.7455,-269.8835"/>
<polygon fill="#191970" stroke="#191970" points="885.4461,-272.9506 892.9798,-265.5011 882.4449,-266.6266 885.4461,-272.9506"/>
</g>
<!-- Node21&#45;&gt;Node3 -->
<g id="edge45" class="edge">
<title>Node21&#45;&gt;Node3</title>
<path fill="none" stroke="#191970" d="M795,-302.2455C795,-294.9382 795,-284.6944 795,-275.7046"/>
<polygon fill="#191970" stroke="#191970" points="798.5001,-275.6426 795,-265.6427 791.5001,-275.6427 798.5001,-275.6426"/>
</g>
<!-- Node23&#45;&gt;Node7 -->
<g id="edge49" class="edge">
<title>Node23&#45;&gt;Node7</title>
<path fill="none" stroke="#191970" d="M206.3634,-190.4697C185.347,-183.8875 163.5824,-172.77 151,-154 143.3284,-142.5557 141.9229,-133.365 151,-123 171.9596,-99.0665 370.3287,-82.5383 474.6129,-75.4264"/>
<polygon fill="#191970" stroke="#191970" points="474.9653,-78.9107 484.7078,-74.7473 474.4954,-71.9265 474.9653,-78.9107"/>
</g>
</g>
</svg>
        <g id="navigator" transform="translate(0 0)" fill="#404254">
                <rect fill="#f2f5e9" fill-opacity="0.5" stroke="#606060" stroke-width=".5" x="0" y="0" width="60" height="60"/>
                <use id="zoomplus" xlink:href="#zoomPlus" x="17" y="9" onmousedown="handleZoom(evt,'in')"/>
                <use id="zoomminus" xlink:href="#zoomMin" x="42" y="9" onmousedown="handleZoom(evt,'out')"/>
                <use id="reset" xlink:href="#resetDef" x="30" y="36" onmousedown="handleReset()"/>
                <g id="arrowUp" xlink:href="#dirArrow" transform="translate(30 24)" onmousedown="handlePan(0,-1)">
                  <use xlink:href="#rim" fill="#404040">
                        <set attributeName="fill" to="#808080" begin="arrowUp.mouseover" end="arrowUp.mouseout"/>
                  </use>
                  <path fill="none" stroke="white" stroke-width="1.5" d="M0,-3.0v7 M-2.5,-0.5L0,-3.0L2.5,-0.5"/>
                </g>
                <g id="arrowRight" xlink:href="#dirArrow" transform="rotate(90) translate(36 -43)" onmousedown="handlePan(1,0)">
                  <use xlink:href="#rim" fill="#404040">
                        <set attributeName="fill" to="#808080" begin="arrowRight.mouseover" end="arrowRight.mouseout"/>
                  </use>
                  <path fill="none" stroke="white" stroke-width="1.5" d="M0,-3.0v7 M-2.5,-0.5L0,-3.0L2.5,-0.5"/>
                </g>
                <g id="arrowDown" xlink:href="#dirArrow" transform="rotate(180) translate(-30 -48)" onmousedown="handlePan(0,1)">
                  <use xlink:href="#rim" fill="#404040">
                        <set attributeName="fill" to="#808080" begin="arrowDown.mouseover" end="arrowDown.mouseout"/>
                  </use>
                  <path fill="none" stroke="white" stroke-width="1.5" d="M0,-3.0v7 M-2.5,-0.5L0,-3.0L2.5,-0.5"/>
                </g>
                <g id="arrowLeft" xlink:href="#dirArrow" transform="rotate(270) translate(-36 17)" onmousedown="handlePan(-1,0)">
                  <use xlink:href="#rim" fill="#404040">
                        <set attributeName="fill" to="#808080" begin="arrowLeft.mouseover" end="arrowLeft.mouseout"/>
                  </use>
                  <path fill="none" stroke="white" stroke-width="1.5" d="M0,-3.0v7 M-2.5,-0.5L0,-3.0L2.5,-0.5"/>
                </g>
        </g>
        <svg viewBox="0 0 15 15" width="100%" height="30px" preserveAspectRatio="xMaxYMin meet">
         <g id="arrow_out" transform="scale(0.3 0.3)">
          <a xlink:href="utils_8h__incl_org.svg" target="_base">
           <rect id="button" ry="5" rx="5" y="6" x="6" height="38" width="38"
                fill="#f2f5e9" fill-opacity="0.5" stroke="#606060" stroke-width="1.0"/>
           <path id="arrow"
             d="M 11.500037,31.436501 C 11.940474,20.09759 22.043105,11.32322 32.158766,21.979434 L 37.068811,17.246167 C 37.068811,17.246167 37.088388,32 37.088388,32 L 22.160133,31.978069 C 22.160133,31.978069 26.997745,27.140456 26.997745,27.140456 C 18.528582,18.264221 13.291696,25.230495 11.500037,31.436501 z"
             style="fill:#404040;"/>
          </a>
         </g>
        </svg>
</svg>
